<svg width="16" height="16" viewBox="0 0 16 16" fill="none" xmlns="http://www.w3.org/2000/svg">
<path fill-rule="evenodd" clip-rule="evenodd" d="M2 3.75C2 2.7835 2.7835 2 3.75 2H12.25C13.2165 2 14 2.7835 14 3.75V12.25C14 13.2165 13.2165 14 12.25 14H3.75C2.7835 14 2 13.2165 2 12.25V3.75ZM12.8714 8.41506C13.0394 8.16308 13.0395 7.83474 12.8714 7.58276L11.3698 5.33125C11.14 4.98665 10.6743 4.89361 10.3297 5.12343C9.98509 5.35326 9.89204 5.81893 10.1219 6.16353L10.8455 7.24847L5.15181 7.24847L5.87388 6.16629C6.10377 5.82173 6.01082 5.35604 5.66627 5.12614C5.32171 4.89625 4.85602 4.9892 4.62612 5.33375L3.12582 7.58232C2.95775 7.83422 2.95765 8.16248 3.12557 8.41448L4.62587 10.666C4.85556 11.0107 5.32119 11.1039 5.66589 10.8742C6.01059 10.6446 6.10382 10.1789 5.87413 9.83423L5.15064 8.74847L10.846 8.74847L10.1219 9.83404C9.89205 10.1786 9.98507 10.6443 10.3297 10.8741C10.6743 11.104 11.1399 11.011 11.3698 10.6664L12.8714 8.41506Z" fill="#7D8198"/>
</svg>
