<svg width="16" height="16" viewBox="0 0 16 16" fill="none" xmlns="http://www.w3.org/2000/svg">
<path fill-rule="evenodd" clip-rule="evenodd" d="M15 8C15 11.866 11.866 15 8 15C4.13401 15 1 11.866 1 8C1 4.13401 4.13401 1 8 1C11.866 1 15 4.13401 15 8ZM6.38543 5.09188C6.62608 4.96036 6.91931 4.97067 7.15013 5.11876L10.657 7.36876C10.872 7.50669 11.002 7.74457 11.002 8C11.002 8.25543 10.872 8.49331 10.657 8.63124L7.15013 10.8812C6.91931 11.0293 6.62608 11.0396 6.38543 10.9081C6.14479 10.7766 5.99512 10.5242 5.99512 10.25V5.75C5.99512 5.47576 6.14479 5.22339 6.38543 5.09188Z" fill="#7D8198"/>
</svg>
