<svg width="16" height="16" viewBox="0 0 16 16" fill="none" xmlns="http://www.w3.org/2000/svg">
<path fill-rule="evenodd" clip-rule="evenodd" d="M2 3.75C2 2.7835 2.7835 2 3.75 2H12.25C13.2165 2 14 2.7835 14 3.75V12.25C14 13.2165 13.2165 14 12.25 14H3.75C2.7835 14 2 13.2165 2 12.25V3.75ZM9.5 4.75V5.43934L10.7197 4.21967C11.0126 3.92678 11.4874 3.92678 11.7803 4.21967C12.0732 4.51256 12.0732 4.98744 11.7803 5.28033L10.5607 6.5H11.25C11.6642 6.5 12 6.83579 12 7.25C12 7.66421 11.6642 8 11.25 8H8.75C8.33579 8 8 7.66421 8 7.25V4.75C8 4.33579 8.33579 4 8.75 4C9.16421 4 9.5 4.33579 9.5 4.75ZM6.5 10.5607V11.25C6.5 11.6642 6.83579 12 7.25 12C7.66421 12 8 11.6642 8 11.25V8.75C8 8.55109 7.92098 8.36032 7.78033 8.21967C7.63968 8.07902 7.44891 8 7.25 8H4.75C4.33579 8 4 8.33579 4 8.75C4 9.16421 4.33579 9.5 4.75 9.5H5.43934L4.21967 10.7197C3.92678 11.0126 3.92678 11.4874 4.21967 11.7803C4.51256 12.0732 4.98744 12.0732 5.28033 11.7803L6.5 10.5607Z" fill="#7D8198"/>
</svg>
