<svg width="16" height="16" viewBox="0 0 16 16" fill="none" xmlns="http://www.w3.org/2000/svg">
<path fill-rule="evenodd" clip-rule="evenodd" d="M8.5117 1C9.0024 1 9.4 1.3976 9.4 1.8883C9.4 2.2922 9.6772 2.6401 10.0545 2.7892C10.114 2.81291 10.173 2.83765 10.2316 2.8634C10.604 3.0251 11.045 2.9761 11.332 2.6891C11.4986 2.52265 11.7244 2.42915 11.9599 2.42915C12.1954 2.42915 12.4212 2.52265 12.5878 2.6891L13.3116 3.4129C13.4781 3.57947 13.5716 3.80532 13.5716 4.0408C13.5716 4.27628 13.4781 4.50213 13.3116 4.6687C13.0253 4.9557 12.9763 5.3974 13.1373 5.7691C13.1628 5.8277 13.1873 5.88674 13.2108 5.9462C13.3599 6.3235 13.7071 6.6007 14.1117 6.6007C14.6024 6.6007 15 6.9983 15 7.489V8.5117C15 9.0024 14.6024 9.4 14.1117 9.4C13.7071 9.4 13.3599 9.6772 13.2115 10.0545C13.1877 10.114 13.1632 10.1735 13.1373 10.2316C12.9756 10.604 13.0246 11.045 13.3116 11.332C13.4781 11.4986 13.5716 11.7244 13.5716 11.9599C13.5716 12.1954 13.4781 12.4212 13.3116 12.5878L12.5878 13.3116C12.5053 13.3941 12.4074 13.4596 12.2996 13.5043C12.1918 13.5489 12.0762 13.5719 11.9595 13.5719C11.8429 13.5719 11.7273 13.5489 11.6195 13.5043C11.5117 13.4596 11.4138 13.3941 11.3313 13.3116C11.045 13.0253 10.6033 12.9756 10.2316 13.138C10.1735 13.1632 10.114 13.1877 10.0545 13.2108C9.6772 13.3599 9.4 13.7071 9.4 14.1117C9.4 14.6024 9.0024 15 8.5117 15H7.4883C6.9976 15 6.6 14.6024 6.6 14.1117C6.6 13.7071 6.3228 13.3599 5.9455 13.2115C5.886 13.1877 5.8265 13.1632 5.7684 13.1373C5.396 12.9756 4.955 13.0246 4.668 13.3116C4.50143 13.4781 4.27558 13.5716 4.0401 13.5716C3.80462 13.5716 3.57877 13.4781 3.4122 13.3116L2.6884 12.5878C2.52195 12.4212 2.42845 12.1954 2.42845 11.9599C2.42845 11.7244 2.52195 11.4986 2.6884 11.332C2.9747 11.045 3.0237 10.6033 2.862 10.2316L2.85667 10.219C2.83386 10.1649 2.81058 10.1097 2.7885 10.0545C2.6401 9.6772 2.2929 9.4 1.8883 9.4C1.3976 9.4 1 9.0024 1 8.5117V7.4883C1 6.9976 1.3976 6.6 1.8883 6.6C2.2929 6.6 2.6401 6.3228 2.7885 5.9455C2.81198 5.88605 2.83648 5.82701 2.862 5.7684C3.0244 5.396 2.9754 4.955 2.6884 4.668C2.52195 4.50143 2.42845 4.27558 2.42845 4.0401C2.42845 3.80462 2.52195 3.57877 2.6884 3.4122L3.4122 2.6884C3.57877 2.52195 3.80462 2.42845 4.0401 2.42845C4.27558 2.42845 4.50143 2.52195 4.668 2.6884C4.955 2.9747 5.3967 3.0237 5.7684 2.8627C5.8265 2.8375 5.886 2.8123 5.9455 2.7885C6.3228 2.6401 6.6 2.2929 6.6 1.8883C6.6 1.3976 6.9976 1 7.489 1H8.5117ZM9.41421 9.41421C9.78929 9.03914 10 8.53043 10 8C10 7.46957 9.78929 6.96086 9.41421 6.58579C9.03914 6.21071 8.53043 6 8 6C7.46957 6 6.96086 6.21071 6.58579 6.58579C6.21071 6.96086 6 7.46957 6 8C6 8.53043 6.21071 9.03914 6.58579 9.41421C6.96086 9.78929 7.46957 10 8 10C8.53043 10 9.03914 9.78929 9.41421 9.41421Z" fill="#7D8198"/>
</svg>
