<svg width="16" height="16" viewBox="0 0 16 16" fill="none" xmlns="http://www.w3.org/2000/svg">
<path fill-rule="evenodd" clip-rule="evenodd" d="M5 3.99756V4.00049H3.25002C2.55966 4.00049 2.00002 4.56013 2.00002 5.25049V12.25C2.00002 13.7688 3.23123 15 4.75002 15H11.25C12.7688 15 14 13.7688 14 12.25V5.25049C14 4.56013 13.4404 4.00049 12.75 4.00049H11V3.99756C11 2.34074 9.65682 0.997559 8 0.997559C6.34319 0.997559 5 2.34074 5 3.99756ZM8 2.49756C7.17162 2.49756 6.5 3.16917 6.5 3.99756V4.00049H9.5V3.99756C9.5 3.16917 8.82839 2.49756 8 2.49756ZM9.50002 7C9.50002 7.82839 8.8284 8.5 8.00002 8.5C7.17163 8.5 6.50002 7.82839 6.50002 7V5.75001C6.50002 5.33579 6.16423 5 5.75002 5C5.3358 5 5.00002 5.33586 5.00002 5.75007V7C5.00002 8.65681 6.3432 10 8.00002 10C9.65683 10 11 8.65681 11 7V5.75001C11 5.33579 10.6642 5 10.25 5C9.8358 5 9.50002 5.33592 9.50002 5.75013V7Z" fill="#7D8198"/>
</svg>
