<svg width="16" height="16" viewBox="0 0 16 16" fill="none" xmlns="http://www.w3.org/2000/svg">
<path d="M8.67444 1.41788C8.54886 1.15985 8.28704 0.996094 8.00007 0.996094C7.7131 0.996094 7.45128 1.15985 7.3257 1.41788L5.73863 4.6788L1.96614 5.25871C1.68946 5.30124 1.4595 5.49431 1.36972 5.75945C1.27994 6.02459 1.34528 6.31767 1.5392 6.51955L4.16509 9.25332L3.58043 13.1344C3.53804 13.4157 3.65851 13.6968 3.89146 13.8602C4.12441 14.0235 4.42974 14.041 4.6798 13.9053L8.00007 12.1033L11.3203 13.9053C11.5704 14.041 11.8757 14.0235 12.1087 13.8602C12.3416 13.6968 12.4621 13.4157 12.4197 13.1344L11.835 9.25306L14.458 6.51925C14.6518 6.31733 14.717 6.02434 14.6272 5.7593C14.5374 5.49426 14.3075 5.30127 14.0309 5.25872L10.2615 4.67885L8.67444 1.41788Z" fill="#7D8198"/>
</svg>
