<svg width="16" height="16" viewBox="0 0 16 16" fill="none" xmlns="http://www.w3.org/2000/svg">
<path fill-rule="evenodd" clip-rule="evenodd" d="M11.9988 2.75001C11.9988 2.46168 11.8335 2.19888 11.5736 2.074C11.3137 1.94913 11.0053 1.98428 10.7802 2.16443L7.57928 4.72597C7.35762 4.90336 7.08217 5.00001 6.79826 5.00001H5.75085C4.78436 5.00001 4.00085 5.78351 4.00085 6.75001V9.25001C4.00085 10.2165 4.78436 11 5.75085 11H6.79823C7.08215 11 7.35761 11.0967 7.57928 11.2741L10.7802 13.8357C11.0053 14.0159 11.3137 14.051 11.5736 13.9262C11.8335 13.8013 11.9988 13.5385 11.9988 13.2502V2.75001Z" fill="#7D8198"/>
</svg>
