<svg width="16" height="16" viewBox="0 0 16 16" fill="none" xmlns="http://www.w3.org/2000/svg">
<path fill-rule="evenodd" clip-rule="evenodd" d="M2 3.75C2 2.7835 2.7835 2 3.75 2H12.25C13.2165 2 14 2.7835 14 3.75V12.25C14 13.2165 13.2165 14 12.25 14H3.75C2.7835 14 2 13.2165 2 12.25V3.75ZM5.75 10C5.33579 10 5 10.3358 5 10.75C5 11.1642 5.33579 11.5 5.75 11.5H10.25C10.6642 11.5 11 11.1642 11 10.75C11 10.3358 10.6642 10 10.25 10H5.75ZM5 4.75C5 4.33579 5.33579 4 5.75 4H10.25C10.6642 4 11 4.33579 11 4.75C11 5.16421 10.6642 5.5 10.25 5.5H5.75C5.33579 5.5 5 5.16421 5 4.75ZM4.75 7C4.33579 7 4 7.33579 4 7.75C4 8.16421 4.33579 8.5 4.75 8.5H11.25C11.6642 8.5 12 8.16421 12 7.75C12 7.33579 11.6642 7 11.25 7H4.75Z" fill="#7D8198"/>
</svg>
