<svg width="16" height="16" viewBox="0 0 16 16" fill="none" xmlns="http://www.w3.org/2000/svg">
<path fill-rule="evenodd" clip-rule="evenodd" d="M1 3.75C1 2.7835 1.7835 2 2.75 2H13.25C14.2165 2 15 2.7835 15 3.75V11.25C15 12.2165 14.2165 13 13.25 13H7.38381C7.32266 13 7.26363 13.0224 7.21789 13.063L5.24776 14.811C5.02693 15.0069 4.7117 15.0551 4.44245 14.934C4.17319 14.813 4 14.5452 4 14.25V13.25C4 13.1119 3.88807 13 3.75 13H2.75C1.7835 13 1 12.2165 1 11.25V3.75ZM7.89666 4.49834C8.09786 4.48749 8.2996 4.51602 8.48977 4.5826C8.67997 4.64918 8.85541 4.75273 9.00484 4.88799C9.14073 5.011 9.27516 5.17121 9.3645 5.36982C9.50878 5.69052 9.55137 6.03994 9.42599 6.39251C9.30654 6.72841 9.05665 7.00406 8.74486 7.23874C8.59769 7.34951 8.53856 7.44828 8.51501 7.49903C8.5039 7.52297 8.49915 7.53965 8.49749 7.54637C8.47117 7.80912 8.24331 8.00813 7.97645 7.99554C7.70062 7.98252 7.48756 7.74837 7.50057 7.47253L7.99837 7.49602C7.74965 7.48428 7.62519 7.47849 7.56292 7.47559C7.50167 7.47273 7.50058 7.47268 7.50057 7.47254V7.47253L7.50063 7.47131L7.50069 7.47005L7.50084 7.46744L7.50118 7.4618L7.50218 7.44888C7.50299 7.43956 7.50412 7.42882 7.50569 7.41676C7.50881 7.39265 7.5137 7.3632 7.52133 7.32924C7.53659 7.26125 7.56286 7.17521 7.6079 7.07814C7.69933 6.88109 7.86227 6.65144 8.14348 6.43977C8.37056 6.26885 8.4548 6.139 8.48379 6.05746C8.50685 5.99261 8.51219 5.91267 8.45254 5.78008C8.43385 5.73855 8.39629 5.68597 8.33375 5.62937C8.28476 5.58502 8.22558 5.54962 8.15934 5.52643C8.09307 5.50323 8.02193 5.49304 7.95052 5.49689C7.87912 5.50074 7.80999 5.51849 7.74749 5.54837C7.68502 5.57824 7.63112 5.61926 7.58832 5.66782C7.55723 5.7031 7.53244 5.74183 7.51421 5.78252C7.56885 5.95382 7.52899 6.14891 7.39401 6.28587C7.20018 6.48255 6.88361 6.48486 6.68693 6.29103C6.49663 6.10349 6.49655 5.8606 6.50115 5.77006C6.50724 5.65005 6.53713 5.5359 6.57092 5.4476L6.5727 5.44295L6.58139 5.42097C6.64285 5.26951 6.72976 5.12956 6.83811 5.00662C6.97142 4.85537 7.13435 4.7331 7.31618 4.64617C7.49796 4.55926 7.69545 4.50919 7.89666 4.49834ZM8.00089 10.5C8.4156 10.5 8.75178 10.1642 8.75178 9.75C8.75178 9.33579 8.4156 9 8.00089 9C7.58619 9 7.25 9.33579 7.25 9.75C7.25 10.1642 7.58619 10.5 8.00089 10.5Z" fill="#7D8198"/>
</svg>
