<svg width="16" height="16" viewBox="0 0 16 16" fill="none" xmlns="http://www.w3.org/2000/svg">
<path fill-rule="evenodd" clip-rule="evenodd" d="M4.99589 4C4.99589 2.30655 6.34539 1 7.99589 1C9.64638 1 10.9959 2.30655 10.9959 4V4.0044L13.2542 4.0044C13.6684 4.0044 14.0042 4.34018 14.0042 4.7544C14.0042 5.16861 13.6684 5.5044 13.2542 5.5044H12.7238L12.3001 13.3445C12.2499 14.2729 11.4824 15 10.5526 15H5.45064C4.52111 15 3.75376 14.2733 3.70323 13.3451L3.27636 5.50439H2.75421C2.34 5.50439 2.00421 5.16861 2.00421 4.75439C2.00421 4.34018 2.34 4.00439 2.75421 4.00439L4.99589 4.00439V4ZM9.49589 4.0044V4C9.49589 3.14799 8.83103 2.5 7.99589 2.5C7.16074 2.5 6.49589 3.14799 6.49589 4V4.00439L9.49589 4.0044ZM6.75001 7C7.16422 7 7.50001 7.33579 7.50001 7.75L7.50001 11.2501C7.50001 11.6644 7.16422 12.0001 6.75001 12.0001C6.33579 12.0001 6.00001 11.6644 6.00001 11.2501L6.00001 7.75C6.00001 7.33579 6.3358 7 6.75001 7ZM10 7.75C10 7.33579 9.66422 7 9.25001 7C8.8358 7 8.50001 7.33579 8.50001 7.75L8.50001 11.25C8.50001 11.6642 8.83579 12 9.25001 12C9.66422 12 10 11.6642 10 11.25L10 7.75Z" fill="#7D8198"/>
</svg>
