<svg width="16" height="16" viewBox="0 0 16 16" fill="none" xmlns="http://www.w3.org/2000/svg">
<path fill-rule="evenodd" clip-rule="evenodd" d="M15 8.00024C15 4.13425 11.866 1.00024 8 1.00024C4.13401 1.00024 1 4.13425 1 8.00024C1 11.8662 4.13401 15.0002 8 15.0002C11.866 15.0002 15 11.8662 15 8.00024ZM10.5001 7.25005C10.5001 7.66426 10.8358 8.00005 11.2501 8.00005C11.6643 8.00005 12.0001 7.66426 12.0001 7.25005V4.75C12.0001 4.33579 11.6643 4 11.2501 4H8.75006C8.33585 4 8.00006 4.33579 8.00006 4.75C8.00006 5.16421 8.33585 5.5 8.75006 5.5H9.43297L5.50006 9.43284V8.75005C5.50006 8.33584 5.16427 8.00005 4.75006 8.00005C4.33585 8.00005 4.00006 8.33584 4.00006 8.75005V11.25C4.00006 11.6643 4.33585 12 4.75006 12H7.25006C7.66427 12 8.00006 11.6643 8.00006 11.25C8.00006 10.8358 7.66427 10.5 7.25006 10.5H6.55417L10.5001 6.55422V7.25005Z" fill="#7D8198"/>
</svg>
