<svg width="16" height="16" viewBox="0 0 16 16" fill="none" xmlns="http://www.w3.org/2000/svg">
<path fill-rule="evenodd" clip-rule="evenodd" d="M8 15C11.866 15 15 11.866 15 8C15 4.13401 11.866 1 8 1C4.13401 1 1 4.13401 1 8C1 11.866 4.13401 15 8 15ZM6.25 5C6.66421 5 7 5.33579 7 5.75V10.25C7 10.6642 6.66421 11 6.25 11C5.83579 11 5.5 10.6642 5.5 10.25V5.75C5.5 5.33579 5.83579 5 6.25 5ZM10.5034 5.75C10.5034 5.33579 10.1676 5 9.75336 5C9.33914 5 9.00336 5.33579 9.00336 5.75V10.25C9.00336 10.6642 9.33914 11 9.75336 11C10.1676 11 10.5034 10.6642 10.5034 10.25V5.75Z" fill="#7D8198"/>
</svg>
