<svg width="16" height="16" viewBox="0 0 16 16" fill="none" xmlns="http://www.w3.org/2000/svg">
<path fill-rule="evenodd" clip-rule="evenodd" d="M1.99756 7.49822C1.99756 3.92058 4.91781 1 8.4957 1C12.0729 1 14.9976 3.91995 14.9976 7.49822C14.9976 11.0759 12.0736 14 8.4957 14C7.46627 14 6.47224 13.7523 5.60386 13.3235L3.35062 13.9609L3.34843 13.9615C2.90449 14.0856 2.51141 13.8947 2.28583 13.6447C2.06493 13.4 1.92923 13.022 2.0383 12.6252L2.65152 10.3384C2.22282 9.47381 1.99756 8.52557 1.99756 7.49822ZM8.5 3.99854C8.91421 3.99854 9.25 4.33432 9.25 4.74854V6.75H11.25C11.6642 6.75 12 7.08579 12 7.5C12 7.91421 11.6642 8.25 11.25 8.25H9.25V10.2485C9.25 10.6627 8.91421 10.9985 8.5 10.9985C8.08579 10.9985 7.75 10.6627 7.75 10.2485V8.25H5.75C5.33579 8.25 5 7.91421 5 7.5C5 7.08579 5.33579 6.75 5.75 6.75H7.75V4.74854C7.75 4.33432 8.08579 3.99854 8.5 3.99854Z" fill="#7D8198"/>
</svg>
