<svg width="16" height="16" viewBox="0 0 16 16" fill="none" xmlns="http://www.w3.org/2000/svg">
<path fill-rule="evenodd" clip-rule="evenodd" d="M1 3.75C1 2.7835 1.7835 2 2.75 2H13.25C14.2165 2 15 2.7835 15 3.75V12.2538C15 13.2203 14.2165 14.0038 13.25 14.0038H2.75C1.7835 14.0038 1 13.2203 1 12.2538V3.75ZM7.47937 6.748C7.35565 7.1433 6.9349 7.36346 6.53959 7.23974C6.42024 7.20238 6.29377 7.19365 6.17041 7.21425C6.04706 7.23484 5.93028 7.28419 5.82954 7.35829C5.72879 7.43239 5.64691 7.52917 5.59051 7.64079C5.5341 7.75241 5.50477 7.87575 5.50488 8.00081C5.505 8.12587 5.53455 8.24915 5.59114 8.36067C5.64774 8.4722 5.7298 8.56883 5.83068 8.64275C5.93155 8.71668 6.04842 8.76581 6.17181 8.78619C6.2952 8.80656 6.42166 8.79761 6.54094 8.76004C6.93603 8.63562 7.35717 8.85503 7.48159 9.25012C7.60602 9.6452 7.3866 10.0663 6.99152 10.1908C6.64765 10.2991 6.28312 10.3249 5.92742 10.2661C5.57172 10.2074 5.23484 10.0658 4.94405 9.85266C4.65325 9.63957 4.4167 9.36101 4.25355 9.03952C4.09039 8.71804 4.0052 8.36266 4.00488 8.00214C4.00456 7.64162 4.08912 7.28609 4.2517 6.96432C4.41429 6.64255 4.65034 6.36357 4.94076 6.14995C5.23118 5.93634 5.5678 5.79409 5.9234 5.73473C6.27899 5.67536 6.64357 5.70053 6.98763 5.80822C7.38293 5.93194 7.60309 6.35269 7.47937 6.748ZM11.9694 6.748C11.8456 7.1433 11.4249 7.36346 11.0296 7.23974C10.9102 7.20238 10.7838 7.19365 10.6604 7.21425C10.537 7.23484 10.4203 7.28419 10.3195 7.35829C10.2188 7.43239 10.1369 7.52917 10.0805 7.64079C10.0241 7.75241 9.99476 7.87575 9.99487 8.00081C9.99499 8.12587 10.0245 8.24915 10.0811 8.36067C10.1377 8.4722 10.2198 8.56883 10.3207 8.64275C10.4215 8.71668 10.5384 8.76581 10.6618 8.78619C10.7852 8.80656 10.9116 8.79761 11.0309 8.76004C11.426 8.63562 11.8472 8.85503 11.9716 9.25012C12.096 9.6452 11.8766 10.0663 11.4815 10.1908C11.1376 10.2991 10.7731 10.3249 10.4174 10.2661C10.0617 10.2074 9.72483 10.0658 9.43404 9.85266C9.14324 9.63957 8.90669 9.36101 8.74354 9.03952C8.58038 8.71804 8.4952 8.36266 8.49487 8.00214C8.49455 7.64162 8.57911 7.28609 8.74169 6.96432C8.90428 6.64255 9.14033 6.36357 9.43075 6.14995C9.72117 5.93634 10.0578 5.79409 10.4134 5.73473C10.769 5.67536 11.1336 5.70053 11.4776 5.80822C11.8729 5.93194 12.0931 6.35269 11.9694 6.748Z" fill="#7D8198"/>
</svg>
