<svg width="16" height="16" viewBox="0 0 16 16" fill="none" xmlns="http://www.w3.org/2000/svg">
<path d="M3.87621 3C4.14179 3.00011 4.39383 3.12078 4.5598 3.32812L6.56078 5.82812C6.86248 6.20516 6.80166 6.75554 6.42504 7.05762C6.04782 7.35958 5.49659 7.29902 5.19457 6.92188L4.75023 6.36621V10.1221C4.75023 10.7428 5.25358 11.2462 5.87425 11.2471L7.12621 11.249C7.60942 11.2496 8.00077 11.6418 8.00023 12.125C7.99963 12.6082 7.60748 12.9996 7.12425 12.999L5.87133 12.9971C4.28517 12.9948 3.00023 11.7083 3.00023 10.1221V6.36816L2.55687 6.92188C2.25481 7.29892 1.70453 7.35953 1.32738 7.05762C0.95028 6.75551 0.889571 6.20528 1.19164 5.82812L3.19359 3.32812L3.26 3.25391C3.42284 3.09231 3.64414 3.00008 3.87621 3Z" fill="#7D8198"/>
<path d="M10.1282 3.00293C11.7143 3.00522 12.9993 4.2917 12.9993 5.87793V9.62988L13.4426 9.07715C13.7447 8.70034 14.295 8.63974 14.6721 8.94141C15.0491 9.24347 15.1098 9.79375 14.8078 10.1709L12.8059 12.6709L12.7395 12.7451C12.5766 12.9068 12.3554 12.9989 12.1233 12.999C11.8577 12.9989 11.6057 12.8782 11.4397 12.6709L9.43871 10.1709C9.13722 9.79382 9.19778 9.24338 9.57445 8.94141C9.95157 8.6396 10.5029 8.70029 10.8049 9.07715L11.2493 9.63184V5.87793C11.2493 5.25724 10.7459 4.75384 10.1252 4.75293L8.87328 4.75098C8.39006 4.75038 7.99871 4.35722 7.99925 3.87402C8.00012 3.39102 8.39217 3.00041 8.87523 3.00098L10.1282 3.00293Z" fill="#7D8198"/>
</svg>
