<svg width="16" height="16" viewBox="0 0 16 16" fill="none" xmlns="http://www.w3.org/2000/svg">
<path fill-rule="evenodd" clip-rule="evenodd" d="M2.29598 2.74263C1.36241 2.99278 0.80839 3.95237 1.05854 4.88594L2.74086 11.1645C2.85997 11.609 3.13991 11.9674 3.5013 12.194V6.99609C3.5013 5.0631 5.06831 3.49609 7.0013 3.49609H11.0389L10.7178 2.29775C10.4676 1.36418 9.50806 0.81016 8.57449 1.06031L2.29598 2.74263ZM5 6.75C5 5.7835 5.7835 5 6.75 5H13.25C14.2165 5 15 5.7835 15 6.75V13.25C15 14.2165 14.2165 15 13.25 15H6.75C5.7835 15 5 14.2165 5 13.25V6.75Z" fill="#7D8198"/>
</svg>
