<svg width="16" height="16" viewBox="0 0 16 16" fill="none" xmlns="http://www.w3.org/2000/svg">
<path fill-rule="evenodd" clip-rule="evenodd" d="M1 8C1 4.13401 4.13401 1 8 1C11.866 1 15 4.13401 15 8C15 11.866 11.866 15 8 15C4.13401 15 1 11.866 1 8ZM10.0001 7C10.5524 7 11.0001 6.55228 11.0001 6C11.0001 5.44772 10.5524 5 10.0001 5C9.44783 5 9.00012 5.44772 9.00012 6C9.00012 6.55228 9.44783 7 10.0001 7ZM10.9445 10.0407C11.1045 9.65859 10.9245 9.21916 10.5424 9.05916C10.1604 8.89917 9.72095 9.07919 9.56096 9.46125C9.43208 9.76901 9.21515 10.0318 8.93742 10.2167C8.65968 10.4016 8.33351 10.5003 7.99987 10.5005C7.66622 10.5006 7.33996 10.4022 7.06205 10.2176C6.78414 10.033 6.56697 9.77034 6.43781 9.4627C6.27746 9.08079 5.83786 8.90117 5.45595 9.06152C5.07403 9.22187 4.89442 9.66147 5.05477 10.0434C5.29835 10.6235 5.70789 11.1188 6.23198 11.467C6.75607 11.8152 7.37135 12.0008 8.00056 12.0005C8.62977 12.0002 9.24487 11.814 9.76864 11.4653C10.2924 11.1167 10.7015 10.621 10.9445 10.0407ZM7.00012 6C7.00012 6.55228 6.5524 7 6.00012 7C5.44783 7 5.00012 6.55228 5.00012 6C5.00012 5.44772 5.44783 5 6.00012 5C6.5524 5 7.00012 5.44772 7.00012 6Z" fill="#7D8198"/>
</svg>
