<svg width="16" height="16" viewBox="0 0 16 16" fill="none" xmlns="http://www.w3.org/2000/svg">
<path d="M11.8552 6.30859C11.79 6.15498 11.6391 6.05554 11.4722 6.05554H9.52608L11.2761 3.07193C11.3516 2.94304 11.3525 2.78359 11.2783 2.65415C11.2039 2.52443 11.0661 2.44443 10.9166 2.44443H7.5833C7.43136 2.44443 7.29136 2.52721 7.2183 2.66026L4.16275 8.21582C4.09191 8.34471 4.09414 8.50193 4.16914 8.62859C4.24414 8.75554 4.38052 8.83332 4.52775 8.83332H6.40969L4.69802 12.98C4.62164 13.1653 4.68775 13.3786 4.85552 13.488C4.92552 13.5333 5.00441 13.5555 5.0833 13.5555C5.19358 13.5555 5.3033 13.5116 5.38414 13.4272L11.773 6.76054C11.8886 6.63998 11.9211 6.4622 11.8552 6.30859Z" fill="#5B53FF"/>
</svg>
