<svg width="16" height="16" viewBox="0 0 16 16" fill="none" xmlns="http://www.w3.org/2000/svg">
<path fill-rule="evenodd" clip-rule="evenodd" d="M2 3.75C2 2.7835 2.7835 2 3.75 2H12.25C13.2165 2 14 2.7835 14 3.75V12.25C14 13.2165 13.2165 14 12.25 14H3.75C2.7835 14 2 13.2165 2 12.25V3.75ZM7.80745 5.24826C8.08456 5.55614 8.05962 6.03035 7.75174 6.30746L6.70454 7.25001H11.25C11.6642 7.25001 12 7.58579 12 8.00001C12 8.41422 11.6642 8.75001 11.25 8.75001H6.70439L7.7517 9.69252C8.0596 9.9696 8.08457 10.4438 7.80749 10.7517C7.53041 11.0596 7.05619 11.0846 6.7483 10.8075L4.2483 8.55766C4.09026 8.41543 4.00001 8.21281 4 8.0002C3.99999 7.78758 4.09023 7.58495 4.24826 7.44272L6.74826 5.19255C7.05613 4.91545 7.53035 4.94039 7.80745 5.24826Z" fill="#7D8198"/>
</svg>
