<svg width="16" height="16" viewBox="0 0 16 16" fill="none" xmlns="http://www.w3.org/2000/svg">
<path fill-rule="evenodd" clip-rule="evenodd" d="M8 1C5.56672 1 3 2.95247 3 5.64386C3 7.05402 3.62406 7.96692 4.22141 8.56037C4.45174 8.78919 4.69025 8.9811 4.85807 9.11613C4.89648 9.14704 4.93119 9.17497 4.96125 9.19968L5 9.23187V9.75C5 10.7165 5.7835 11.5 6.75 11.5H9.25C10.2165 11.5 11 10.7165 11 9.75V9.23187L11.0387 9.19968C11.0688 9.17497 11.1035 9.14704 11.1419 9.11613C11.3097 8.98111 11.5483 8.78919 11.7786 8.56037C12.3759 7.96692 13 7.05402 13 5.64386C13 2.95247 10.4333 1 8 1ZM5.10039 9.32262C5.1068 9.32992 5.1043 9.32843 5.09682 9.31873L5.10039 9.32262ZM10.8996 9.32262L10.9032 9.31873C10.8957 9.32843 10.8932 9.32992 10.8996 9.32262ZM8.54896 4.07681C8.15065 3.96312 7.91993 3.54806 8.03362 3.14976C8.14731 2.75145 8.56237 2.52073 8.96067 2.63442C9.74466 2.8582 10.4259 3.34866 10.8869 4.02114C11.3478 4.69361 11.5596 5.50592 11.4855 6.31785C11.4479 6.73035 11.083 7.03425 10.6705 6.99664C10.258 6.95902 9.95412 6.59413 9.99174 6.18163C10.034 5.71767 9.91305 5.25349 9.64965 4.86922C9.38624 4.48495 8.99695 4.20469 8.54896 4.07681Z" fill="#7D8198"/>
<path d="M9.5 13C9.77614 13 10.0062 13.2273 9.93783 13.4948C9.84972 13.8398 9.67027 14.1582 9.41421 14.4142C9.03914 14.7893 8.53043 15 8 15C7.46957 15 6.96086 14.7893 6.58579 14.4142C6.32973 14.1582 6.15028 13.8398 6.06217 13.4948C5.99384 13.2273 6.22386 13 6.5 13H9.5Z" fill="#7D8198"/>
</svg>
