<svg width="16" height="16" viewBox="0 0 16 16" fill="none" xmlns="http://www.w3.org/2000/svg">
<path fill-rule="evenodd" clip-rule="evenodd" d="M8.33623 3.91893L6.69708 5.28133C6.00873 5.85346 5.14188 6.16667 4.24682 6.16667H3.33333C3.1492 6.16667 3 6.31587 3 6.5V9.5C3 9.68414 3.1492 9.83334 3.33333 9.83334H4.24682C5.14188 9.83334 6.00873 10.1465 6.69707 10.7187L8.33623 12.0811V3.91893ZM8.04531 2.86041C8.54559 2.4202 9.33623 2.77416 9.33623 3.445V12.555C9.33623 13.2259 8.54559 13.5798 8.04531 13.1396L6.05788 11.4877C5.5491 11.0648 4.90839 10.8333 4.24682 10.8333H3.33333C2.59691 10.8333 2 10.2364 2 9.5V6.5C2 5.76358 2.59691 5.16667 3.33333 5.16667H4.24682C4.90839 5.16667 5.5491 4.93516 6.05788 4.51229L8.04531 2.86041ZM12.3238 4.55108C12.5551 4.4001 12.8649 4.46515 13.0159 4.69636C13.6359 5.64598 14 6.78011 14 8.00001C14 9.21991 13.6359 10.354 13.0159 11.3037C12.8649 11.5349 12.5551 11.5999 12.3238 11.4489C12.0926 11.298 12.0276 10.9881 12.1786 10.7569C12.6968 9.9632 13 9.01789 13 8.00001C13 6.98213 12.6968 6.03682 12.1786 5.2431C12.0276 5.01188 12.0926 4.70205 12.3238 4.55108ZM11.5315 6.1065C11.4062 5.86041 11.1052 5.76247 10.8591 5.88776C10.613 6.01304 10.5151 6.31409 10.6404 6.56018C10.8708 7.01277 11.0026 7.52176 11.0026 8.06195C11.0026 8.60214 10.8708 9.11113 10.6404 9.56372C10.5151 9.80981 10.613 10.1109 10.8591 10.2361C11.1052 10.3614 11.4062 10.2635 11.5315 10.0174C11.83 9.4311 12.0026 8.76731 12.0026 8.06195C12.0026 7.35658 11.83 6.69279 11.5315 6.1065Z" fill="#5B53FF"/>
</svg>
