<svg width="16" height="16" viewBox="0 0 16 16" fill="none" xmlns="http://www.w3.org/2000/svg">
<path d="M5.66016 11.0112C5.82355 11.0113 5.9758 11.0935 6.06738 11.23L8.06934 14.2114C8.2934 14.5453 8.05404 15.0002 7.6543 15.0005H5.85938C5.69592 15.0004 5.54372 14.9183 5.45215 14.7817L3.45215 11.8003C3.22813 11.4663 3.46731 11.0112 3.86719 11.0112H5.66016Z" fill="#7D8198"/>
<path d="M13.3271 1.00439C13.7051 1.04304 14.001 1.36234 14.001 1.75049V11.2593C14.0007 11.6729 13.6646 12.0088 13.251 12.0093L13.0078 11.9995C11.8549 11.9074 11.5464 11.1373 10.1768 10.0249C9.52665 9.49698 9.03586 9.23291 8.68652 9.10498C8.36384 8.9869 8.00132 8.64781 8.00098 8.3042V4.59326C8.00108 4.28412 8.28552 3.99448 8.57617 3.88916C8.92966 3.76101 9.45499 3.49396 10.1768 2.94287C11.7062 1.77507 11.8915 1.00049 13.251 1.00049L13.3271 1.00439Z" fill="#7D8198"/>
<path d="M5.5 4.00244C5.77614 4.00244 6 4.2263 6 4.50244V8.50635C5.99993 8.78243 5.7761 9.00635 5.5 9.00635H3.5C2.67162 9.00635 2.00007 8.33471 2 7.50635V5.50244C2 4.67401 2.67157 4.00244 3.5 4.00244H5.5Z" fill="#7D8198"/>
</svg>
