<svg width="16" height="16" viewBox="0 0 16 16" fill="none" xmlns="http://www.w3.org/2000/svg">
<path fill-rule="evenodd" clip-rule="evenodd" d="M2 3.75C2 2.7835 2.7835 2 3.75 2H12.25C13.2165 2 14 2.7835 14 3.75V12.25C14 13.2165 13.2165 14 12.25 14H3.75C2.7835 14 2 13.2165 2 12.25V3.75ZM10 5.75C10 6.16421 9.66421 6.5 9.25 6.5L7.56076 6.50001L10.7803 9.71968C11.0732 10.0126 11.0732 10.4875 10.7803 10.7803C10.4874 11.0732 10.0126 11.0732 9.71966 10.7803L6.49999 7.56057L6.5 9.25C6.5 9.66422 6.16422 10 5.75 10C5.33579 10 5 9.66422 5 9.25001L4.99999 5.75002C4.99998 5.33581 5.33577 5.00002 5.74998 5.00002L9.24999 5C9.6642 5 9.99999 5.33578 10 5.75Z" fill="#7D8198"/>
</svg>
