<svg width="16" height="16" viewBox="0 0 16 16" fill="none" xmlns="http://www.w3.org/2000/svg">
<path fill-rule="evenodd" clip-rule="evenodd" d="M2 3.75C2 2.7835 2.7835 2 3.75 2H12.25C13.2165 2 14 2.7835 14 3.75V12.25C14 13.2165 13.2165 14 12.25 14H3.75C2.7835 14 2 13.2165 2 12.25V3.75ZM9.76034 5.2996C10.0639 5.01774 10.0814 4.54319 9.7996 4.23966C9.51774 3.93613 9.04319 3.91855 8.73966 4.2004L5.23966 7.45041C5.08684 7.59231 5 7.79145 5 8C5 8.20855 5.08684 8.40769 5.23966 8.54959L8.73966 11.7996C9.04319 12.0814 9.51774 12.0639 9.7996 11.7603C10.0814 11.4568 10.0639 10.9823 9.76034 10.7004L6.85221 8L9.76034 5.2996Z" fill="#7D8198"/>
</svg>
