<svg width="16" height="16" viewBox="0 0 16 16" fill="none" xmlns="http://www.w3.org/2000/svg">
<path fill-rule="evenodd" clip-rule="evenodd" d="M2.41035 6.35898C2.26386 6.40781 2.16249 6.5417 2.15522 6.69594C2.14796 6.85018 2.2363 6.993 2.37755 7.05538L5.84812 8.58807C5.96943 8.64164 6.11003 8.62692 6.21761 8.54939L9.27717 6.34425L9.27722 6.34422C9.31085 6.31997 9.33208 6.31996 9.34413 6.32145C9.36135 6.32357 9.38469 6.33328 9.40599 6.35457C9.42728 6.37586 9.43698 6.39921 9.43911 6.41643C9.4406 6.42848 9.44058 6.44971 9.41634 6.48333L9.41632 6.48336L7.21101 9.54275C7.13346 9.65033 7.11873 9.79095 7.17231 9.91226L8.705 13.3828C8.76738 13.5241 8.9102 13.6124 9.06444 13.6052C9.21868 13.5979 9.35257 13.4965 9.4014 13.35L12.6606 3.57253C12.7053 3.43824 12.6704 3.29019 12.5703 3.1901C12.4702 3.09 12.3221 3.05505 12.1878 3.09982L2.41035 6.35898Z" fill="#5B53FF"/>
</svg>
