<svg width="16" height="16" viewBox="0 0 16 16" fill="none" xmlns="http://www.w3.org/2000/svg">
<path d="M5.01577 9.29181C5.52546 8.93256 6.25937 9.40306 6.08706 10.0506L5.84878 10.9442C5.80304 11.1162 5.85207 11.3015 5.97769 11.4276L6.63198 12.0819C7.13649 12.5881 6.64685 13.4363 5.9562 13.2528L5.06167 13.0145C4.88969 12.9688 4.70527 13.0177 4.57925 13.1434L3.92398 13.7967C3.4177 14.3006 2.57063 13.8114 2.75405 13.1209L2.99234 12.2274C3.03821 12.0554 2.989 11.8711 2.86343 11.7449L2.20913 11.0897C1.70515 10.5835 2.19463 9.73576 2.88491 9.91877L3.77944 10.158C3.95138 10.2037 4.1358 10.1537 4.26187 10.0281L4.91714 9.37482L5.01577 9.29181Z" fill="#7D8198"/>
<path d="M11.1828 2.23322C11.8878 1.63916 12.9689 2.26307 12.8068 3.17072L12.7863 3.26252L12.4425 4.54865C12.3279 4.97903 12.4512 5.43938 12.7658 5.75471L13.7062 6.69611C14.4277 7.41945 13.7275 8.6319 12.7404 8.36896L11.4542 8.02619C11.024 7.91155 10.5635 8.03509 10.2482 8.34943L9.30679 9.28888C8.58338 10.0106 7.37064 9.31041 7.63394 8.32306L7.97671 7.03791C8.09134 6.60757 7.96798 6.14717 7.65347 5.83185L6.71402 4.88947C5.99233 4.16606 6.6925 2.95333 7.67984 3.21662L8.96499 3.56037C9.39525 3.67499 9.85573 3.55151 10.171 3.23713L11.1134 2.2967L11.1828 2.23322Z" fill="#7D8198"/>
</svg>
