<svg width="16" height="16" viewBox="0 0 16 16" fill="none" xmlns="http://www.w3.org/2000/svg">
<path d="M4.125 4.4163C3.65074 3.2645 4.49757 2 5.74319 2H10.2567C11.5024 2 12.3492 3.26452 11.8749 4.41633L11.7099 4.81709C11.2099 6.03138 11.4898 7.42728 12.4193 8.35494L12.7842 8.71914C12.999 8.93352 13.0635 9.25623 12.9475 9.53667C12.8315 9.81711 12.5579 10 12.2544 10H8.75V13.2543C8.75 13.6685 8.41421 14.0043 8 14.0043C7.58579 14.0043 7.25 13.6685 7.25 13.2543V10H3.75454C3.45133 10 3.17795 9.81743 3.06178 9.53737C2.9456 9.2573 3.00949 8.93483 3.22367 8.72021L3.58748 8.35565C4.51341 7.42782 4.79133 6.03458 4.29225 4.8225L4.125 4.4163Z" fill="#7D8198"/>
</svg>
