<svg width="16" height="16" viewBox="0 0 16 16" fill="none" xmlns="http://www.w3.org/2000/svg">
<path fill-rule="evenodd" clip-rule="evenodd" d="M2 3.75C2 2.7835 2.7835 2 3.75 2H12.25C13.2165 2 14 2.7835 14 3.75V12.25C14 13.2165 13.2165 14 12.25 14H3.75C2.7835 14 2 13.2165 2 12.25V3.75ZM7.24996 5.25C7.24996 5.11193 7.36189 5 7.49996 5H8.49996C8.63803 5 8.74996 5.11193 8.74996 5.25V6.14538C8.91195 6.21095 9.06339 6.29713 9.20104 6.40066L9.96337 5.98034C10.0843 5.91368 10.2383 5.95657 10.3073 6.07614L10.8073 6.94217C10.8763 7.06174 10.8343 7.21272 10.7134 7.27938L9.97549 7.68622C9.9916 7.78845 9.99996 7.89325 9.99996 8C9.99996 8.08801 9.99428 8.1747 9.98325 8.25971L10.7134 8.66227C10.8343 8.72893 10.8763 8.87991 10.8073 8.99948L10.3073 9.86551C10.2383 9.98508 10.0843 10.028 9.96337 9.96131L9.24506 9.56526C9.09592 9.68406 8.92941 9.78198 8.74996 9.85462V10.75C8.74996 10.8881 8.63803 11 8.49996 11H7.49996C7.36189 11 7.24996 10.8881 7.24996 10.75V9.85462C7.06996 9.78176 6.90299 9.68345 6.75349 9.56417L6.03339 9.9612C5.91248 10.0279 5.7585 9.98497 5.68947 9.8654L5.18947 8.99938C5.12043 8.8798 5.16248 8.72883 5.28339 8.66216L6.01645 8.25798C6.00557 8.17353 5.99996 8.08742 5.99996 8C5.99996 7.89384 6.00823 7.78961 6.02417 7.68792L5.28339 7.27949C5.16248 7.21282 5.12043 7.06185 5.18947 6.94227L5.68947 6.07625C5.7585 5.95668 5.91248 5.91379 6.03339 5.98045L6.79747 6.40173C6.93549 6.29772 7.08742 6.21118 7.24996 6.14538V5.25ZM9 8C9 8.55228 8.55228 9 8 9C7.44772 9 7 8.55228 7 8C7 7.44772 7.44772 7 8 7C8.55228 7 9 7.44772 9 8Z" fill="#7D8198"/>
</svg>
