<svg width="16" height="16" viewBox="0 0 16 16" fill="none" xmlns="http://www.w3.org/2000/svg">
<path d="M7.75 2C7.33579 2 7 2.33579 7 2.75C7 3.16421 7.33579 3.5 7.75 3.5H8.75L8.75 6.25C8.75 6.66421 9.08579 7 9.5 7C9.91421 7 10.25 6.66421 10.25 6.25L10.25 3.5H11.248C11.6623 3.5 11.998 3.16421 11.998 2.75C11.998 2.33579 11.6623 2 11.248 2H7.75Z" fill="#7D8198"/>
<path d="M12.7134 9.16029C13.0391 9.4162 13.0957 9.88769 12.8398 10.2134L10.0898 13.7134C9.96343 13.8742 9.77695 13.9764 9.57347 13.9964C9.36999 14.0165 9.16716 13.9525 9.01192 13.8195L7.26192 12.3195C6.94743 12.0499 6.911 11.5764 7.18057 11.2619C7.45014 10.9474 7.92361 10.911 8.23811 11.1806L9.39384 12.1712L11.6603 9.28667C11.9162 8.96096 12.3877 8.90438 12.7134 9.16029Z" fill="#7D8198"/>
<path d="M3.50068 5C3.58816 5 3.6678 5.05043 3.7052 5.12951L4.33043 6.45143L5.81106 6.69223C5.89375 6.70568 5.96224 6.76373 5.98907 6.8431C6.0159 6.92246 5.99667 7.01016 5.9391 7.07102L4.90811 8.16092L5.13817 9.74178C5.15054 9.82679 5.1137 9.91146 5.04308 9.96037C4.97246 10.0093 4.88023 10.014 4.80501 9.97247L3.50068 9.25306L2.19634 9.97247C2.12112 10.014 2.0289 10.0093 1.95827 9.96037C1.88765 9.91146 1.85081 9.82679 1.86318 9.74178L2.09325 8.16092L1.06226 7.07102C1.00468 7.01016 0.985457 6.92246 1.01229 6.8431C1.03911 6.76373 1.10761 6.70568 1.1903 6.69223L2.67092 6.45143L3.29615 5.12951C3.33356 5.05043 3.4132 5 3.50068 5Z" fill="#7D8198"/>
</svg>
