<svg width="16" height="16" viewBox="0 0 16 16" fill="none" xmlns="http://www.w3.org/2000/svg">
<path fill-rule="evenodd" clip-rule="evenodd" d="M15 8.00024C15 4.13425 11.866 1.00024 8 1.00024C4.13401 1.00024 1 4.13425 1 8.00024C1 11.8662 4.13401 15.0002 8 15.0002C11.866 15.0002 15 11.8662 15 8.00024ZM9.99997 5.75009C9.99997 6.16431 9.66419 6.5001 9.24998 6.5001L7.56073 6.50011L10.7803 9.71978C11.0732 10.0127 11.0732 10.4876 10.7803 10.7804C10.4874 11.0733 10.0125 11.0733 9.71964 10.7804L6.49997 7.56067L6.49998 9.2501C6.49998 9.66432 6.16419 10.0001 5.74998 10.0001C5.33577 10.0001 4.99998 9.66432 4.99998 9.25011L4.99996 5.75012C4.99996 5.33591 5.33574 5.00012 5.74996 5.00012L9.24997 5.0001C9.66418 5.0001 9.99997 5.33588 9.99997 5.75009Z" fill="#7D8198"/>
</svg>
