<svg width="16" height="16" viewBox="0 0 16 16" fill="none" xmlns="http://www.w3.org/2000/svg">
<path d="M7.15556 5.11911C6.92478 4.97076 6.63141 4.96025 6.39061 5.09172C6.1498 5.22319 6 5.47565 6 5.75V10.25C6 10.5244 6.1498 10.7768 6.39061 10.9083C6.63142 11.0398 6.92479 11.0292 7.15557 10.8809L10.6556 8.63086C10.8702 8.49286 11 8.25517 11 7.99997C11 7.74477 10.8702 7.50709 10.6556 7.36909L7.15556 5.11911Z" fill="#7D8198"/>
<path d="M8.81554 1.00546C8.40451 0.955849 8.03121 1.24986 7.98176 1.66215C7.9323 2.07443 8.22541 2.44888 8.63643 2.49849C9.97746 2.66035 11.2129 3.3094 12.1092 4.32295C13.0055 5.3365 13.5006 6.64431 13.5008 7.99915C13.5011 9.35399 13.0065 10.662 12.1105 11.6758C11.2146 12.6897 9.97934 13.3392 8.63838 13.5015C8.22737 13.5513 7.93439 13.9258 7.98399 14.3381C8.0336 14.7504 8.407 15.0443 8.81801 14.9945C10.5229 14.7881 12.0933 13.9624 13.2324 12.6734C14.3715 11.3843 15.0003 9.7214 15 7.99889C14.9997 6.27637 14.3703 4.61365 13.2308 3.32504C12.0912 2.03644 10.5205 1.21125 8.81554 1.00546Z" fill="#7D8198"/>
<path d="M4.89966 14.331C5.27178 14.5133 5.72085 14.3585 5.90269 13.9853C6.08452 13.6121 5.93027 13.1619 5.55815 12.9796C5.40754 12.9059 5.26035 12.8253 5.11705 12.7381C4.763 12.5227 4.30176 12.6359 4.08686 12.991C3.87195 13.3461 3.98475 13.8085 4.3388 14.0239C4.52101 14.1348 4.70815 14.2373 4.89966 14.331Z" fill="#7D8198"/>
<path d="M2.99821 11.9045C2.64394 12.1194 2.18311 12.0055 1.9689 11.6501C1.45205 10.7927 1.12354 9.83445 1.00534 8.83949C0.956353 8.42715 1.24989 8.05304 1.66097 8.0039C2.07206 7.95476 2.44502 8.2492 2.49401 8.66155C2.58697 9.44406 2.84533 10.1977 3.25183 10.872C3.46603 11.2274 3.35248 11.6896 2.99821 11.9045Z" fill="#7D8198"/>
<path d="M1.66161 4.91467C1.48003 5.28786 1.63444 5.73804 2.00649 5.92018C2.37854 6.10231 2.82734 5.94743 3.00892 5.57424C3.55021 4.46174 4.44745 3.56318 5.55741 3.022C5.92975 2.84046 6.08487 2.39053 5.90389 2.01705C5.7229 1.64357 5.27435 1.48798 4.90201 1.66952C3.4907 2.35763 2.34987 3.50013 1.66161 4.91467Z" fill="#7D8198"/>
</svg>
