<svg width="16" height="16" viewBox="0 0 16 16" fill="none" xmlns="http://www.w3.org/2000/svg">
<path fill-rule="evenodd" clip-rule="evenodd" d="M1 8C1 4.13401 4.13401 1 8 1C11.866 1 15 4.13401 15 8C15 11.866 11.866 15 8 15C4.13401 15 1 11.866 1 8ZM9.10219 5.32561L8.77516 5.65265L10.359 7.21314L10.6744 6.89779C11.1086 6.46363 11.1085 5.75971 10.6744 5.32557C10.2402 4.89146 9.53632 4.89148 9.10219 5.32561ZM8.06803 6.35977L9.65191 7.92027L7.30349 10.2687C7.23765 10.3347 7.15624 10.3848 7.06782 10.4139L5.33735 10.987C5.24507 11.0174 5.14403 10.9936 5.07516 10.9249C5.00658 10.8564 4.98246 10.7549 5.01308 10.6629L5.58602 8.93193C5.6151 8.84385 5.66521 8.76261 5.73106 8.69676L8.06803 6.35977Z" fill="#7D8198"/>
</svg>
