<svg width="16" height="16" viewBox="0 0 16 16" fill="none" xmlns="http://www.w3.org/2000/svg">
<path fill-rule="evenodd" clip-rule="evenodd" d="M2 3.75C2 2.7835 2.7835 2 3.75 2H12.25C13.2165 2 14 2.7835 14 3.75V12.25C14 13.2165 13.2165 14 12.25 14H3.75C2.7835 14 2 13.2165 2 12.25V3.75ZM10.5 7.25005C10.5 7.66426 10.8358 8.00005 11.25 8.00005C11.6642 8.00005 12 7.66426 12 7.25005V4.75C12 4.33579 11.6642 4 11.25 4H8.75C8.33579 4 8 4.33579 8 4.75C8 5.16421 8.33579 5.5 8.75 5.5H9.4329L5.5 9.43284V8.75005C5.5 8.33584 5.16421 8.00005 4.75 8.00005C4.33579 8.00005 4 8.33584 4 8.75005V11.25C4 11.6643 4.33579 12 4.75 12H7.25C7.66421 12 8 11.6643 8 11.25C8 10.8358 7.66421 10.5 7.25 10.5H6.55411L10.5 6.55422V7.25005Z" fill="#7D8198"/>
</svg>
