<svg width="16" height="16" viewBox="0 0 16 16" fill="none" xmlns="http://www.w3.org/2000/svg">
<path fill-rule="evenodd" clip-rule="evenodd" d="M15 8.00024C15 4.13425 11.866 1.00024 8 1.00024C4.13401 1.00024 1 4.13425 1 8.00024C1 11.8662 4.13401 15.0002 8 15.0002C11.866 15.0002 15 11.8662 15 8.00024ZM9.50006 4.75V5.43934L10.7197 4.21967C11.0126 3.92678 11.4875 3.92678 11.7804 4.21967C12.0733 4.51256 12.0733 4.98744 11.7804 5.28033L10.5607 6.5H11.2501C11.6643 6.5 12.0001 6.83579 12.0001 7.25C12.0001 7.66421 11.6643 8 11.2501 8H8.75006C8.33585 8 8.00006 7.66421 8.00006 7.25V4.75C8.00006 4.33579 8.33585 4 8.75006 4C9.16427 4 9.50006 4.33579 9.50006 4.75ZM6.50006 10.5607V11.25C6.50006 11.6642 6.83585 12 7.25006 12C7.66427 12 8.00006 11.6642 8.00006 11.25V8.75C8.00006 8.55109 7.92104 8.36032 7.78039 8.21967C7.63974 8.07902 7.44897 8 7.25006 8H4.75006C4.33585 8 4.00006 8.33579 4.00006 8.75C4.00006 9.16421 4.33585 9.5 4.75006 9.5H5.4394L4.21973 10.7197C3.92684 11.0126 3.92684 11.4874 4.21973 11.7803C4.51262 12.0732 4.9875 12.0732 5.28039 11.7803L6.50006 10.5607Z" fill="#7D8198"/>
</svg>
