<svg width="16" height="16" viewBox="0 0 16 16" fill="none" xmlns="http://www.w3.org/2000/svg">
<path fill-rule="evenodd" clip-rule="evenodd" d="M8.33424 1.93368C8.14423 1.76336 7.85592 1.76301 7.66601 1.9335L7.66322 1.93597L7.64843 1.94884C7.63458 1.96079 7.61282 1.97931 7.58355 2.00347C7.52498 2.0518 7.43652 2.12254 7.32133 2.20825C7.09059 2.37994 6.7547 2.61014 6.33887 2.84035C5.50141 3.30396 4.37151 3.75001 3.13892 3.75001C2.86277 3.75001 2.63892 3.97387 2.63892 4.25001V7.65529C2.63892 8.59324 2.83789 9.83374 3.59617 11.0745C4.35706 12.3195 5.65937 13.5289 7.80594 14.433C7.93005 14.4853 8.07 14.4853 8.19411 14.433C10.3407 13.5289 11.643 12.3195 12.4039 11.0745C13.1622 9.83374 13.3611 8.59324 13.3611 7.65529V4.25003C13.3611 3.97389 13.1373 3.75001 12.8611 3.75001C11.6285 3.75001 10.4986 3.30396 9.66119 2.84035C9.24536 2.61014 8.90946 2.37994 8.67872 2.20825C8.56353 2.12254 8.47507 2.0518 8.4165 2.00347C8.38723 1.97931 8.36547 1.96079 8.35162 1.94884L8.33684 1.93597L8.33424 1.93368Z" fill="#5B53FF"/>
</svg>
