<svg width="16" height="16" viewBox="0 0 16 16" fill="none" xmlns="http://www.w3.org/2000/svg">
<path d="M13.228 3.96805L13.4567 5.38222L13.834 7.65622L13.9826 8.58392C14.1313 9.489 13.308 10.3036 12.2218 10.3036H8.15138C7.80837 10.3036 7.63686 10.5977 7.76263 10.8692C8.11708 11.582 8.32289 12.1703 8.4944 12.883C8.58587 13.2677 8.65447 13.5505 8.65447 13.7881C8.65447 14.2972 8.42579 14.6253 8.16282 14.8402C7.73977 15.1796 7.16808 14.9308 6.82506 14.5235C5.94466 13.46 4.22959 11.4462 3.37206 10.7561C2.54882 10.0886 2 9.21747 2 8.25583V5.77819C2 3.68521 3.98948 1.99951 6.43631 1.99951H10.5868C11.9245 1.99951 13.0679 2.84802 13.228 3.99067V3.96805Z" fill="#7D8198"/>
</svg>
