<svg width="16" height="16" viewBox="0 0 16 16" fill="none" xmlns="http://www.w3.org/2000/svg">
<path fill-rule="evenodd" clip-rule="evenodd" d="M4.08893 13.8063C2.2254 12.5486 1 10.4174 1 8C1 4.13401 4.13401 1 8 1C11.866 1 15 4.13401 15 8C15 8.05608 14.9993 8.11201 14.998 8.16778C14.263 7.74306 13.4099 7.5 12.5 7.5C11.3881 7.5 10.3609 7.86296 9.53056 8.47686C10.1204 8.01954 10.5 7.3041 10.5 6.5C10.5 5.11929 9.38071 4 8 4C6.61929 4 5.5 5.11929 5.5 6.5C5.5 7.88071 6.61929 9 8 9C8.54908 9 9.05682 8.82298 9.46926 8.52291C8.94348 8.92419 8.49964 9.42736 8.1672 10.003C8.11209 10.0015 8.05635 10.0007 7.99997 10.0007C5.88715 10.0007 4.67718 11.0568 4.07122 11.849C4.9816 12.7781 6.21896 13.3857 7.59709 13.4855C7.70519 14.0262 7.90052 14.5355 8.16778 14.998C8.11201 14.9993 8.05608 15 8 15C7.7553 15 7.51353 14.9874 7.2753 14.9629C6.14604 14.8468 5.09636 14.4622 4.19114 13.874C4.15686 13.8517 4.12279 13.8292 4.08893 13.8063ZM12.5 16C14.433 16 16 14.433 16 12.5C16 10.567 14.433 9 12.5 9C10.567 9 9 10.567 9 12.5C9 14.433 10.567 16 12.5 16ZM13 10.5C13 10.2239 12.7761 10 12.5 10C12.2238 10 12 10.2239 12 10.5V12.002H10.5034C10.2272 12.002 10.0034 12.2258 10.0034 12.502C10.0034 12.7781 10.2272 13.002 10.5034 13.002H12V14.5C12 14.7761 12.2238 15 12.5 15C12.7761 15 13 14.7761 13 14.5V13.002H14.5C14.7761 13.002 15 12.7781 15 12.502C15 12.2258 14.7761 12.002 14.5 12.002H13V10.5Z" fill="#7D8198"/>
</svg>
