<svg width="16" height="16" viewBox="0 0 16 16" fill="none" xmlns="http://www.w3.org/2000/svg">
<path fill-rule="evenodd" clip-rule="evenodd" d="M2 3.75C2 2.7835 2.7835 2 3.75 2H12.25C13.2165 2 14 2.7835 14 3.75V12.25C14 13.2165 13.2165 14 12.25 14H3.75C2.7835 14 2 13.2165 2 12.25V3.75ZM8.19255 5.24826C7.91544 5.55614 7.94038 6.03035 8.24826 6.30746L9.29546 7.25001H4.75C4.33579 7.25001 4 7.58579 4 8.00001C4 8.41422 4.33579 8.75001 4.75 8.75001H9.29561L8.2483 9.69252C7.9404 9.9696 7.91543 10.4438 8.19251 10.7517C8.46959 11.0596 8.94381 11.0846 9.2517 10.8075L11.7517 8.55766C11.9097 8.41543 12 8.21281 12 8.0002C12 7.78758 11.9098 7.58495 11.7517 7.44272L9.25174 5.19255C8.94387 4.91545 8.46965 4.94039 8.19255 5.24826Z" fill="#7D8198"/>
</svg>
