<svg width="16" height="16" viewBox="0 0 16 16" fill="none" xmlns="http://www.w3.org/2000/svg">
<path fill-rule="evenodd" clip-rule="evenodd" d="M1 8C1 11.866 4.13401 15 8 15C11.866 15 15 11.866 15 8C15 4.13401 11.866 1 8 1C4.13401 1 1 4.13401 1 8ZM5.21967 5.21967C5.51256 4.92678 5.98744 4.92678 6.28033 5.21967L8 6.93934L9.71967 5.21967C10.0126 4.92678 10.4874 4.92678 10.7803 5.21967C11.0732 5.51256 11.0732 5.98744 10.7803 6.28033L9.06066 8L10.7771 9.71646C11.07 10.0093 11.07 10.4842 10.7771 10.7771C10.4842 11.07 10.0093 11.07 9.71646 10.7771L8 9.06066L6.28033 10.7803C5.98744 11.0732 5.51256 11.0732 5.21967 10.7803C4.92678 10.4874 4.92678 10.0126 5.21967 9.71967L6.93934 8L5.21967 6.28033C4.92678 5.98744 4.92678 5.51256 5.21967 5.21967Z" fill="#7D8198"/>
</svg>
