<svg width="16" height="16" viewBox="0 0 16 16" fill="none" xmlns="http://www.w3.org/2000/svg">
<path fill-rule="evenodd" clip-rule="evenodd" d="M1.99762 7.49822C1.99762 3.92058 4.91787 1 8.49576 1C12.073 1 14.9976 3.91995 14.9976 7.49822C14.9976 11.0759 12.0736 14 8.49576 14C7.46633 14 6.4723 13.7523 5.60393 13.3235L3.35068 13.9609L3.34849 13.9615C2.90455 14.0856 2.51147 13.8947 2.28589 13.6447C2.06499 13.4 1.9293 13.022 2.03837 12.6252L2.65158 10.3384C2.22288 9.47381 1.99762 8.52557 1.99762 7.49822ZM6.25009 8C6.66432 8 7.00012 7.66421 7.00012 7.25C7.00012 6.83579 6.66432 6.5 6.25009 6.5C5.83586 6.5 5.50006 6.83579 5.50006 7.25C5.50006 7.66421 5.83586 8 6.25009 8ZM9.25012 7.25C9.25012 7.66421 8.91432 8 8.50009 8C8.08586 8 7.75006 7.66421 7.75006 7.25C7.75006 6.83579 8.08586 6.5 8.50009 6.5C8.91432 6.5 9.25012 6.83579 9.25012 7.25ZM10.7501 8C11.1643 8 11.5001 7.66421 11.5001 7.25C11.5001 6.83579 11.1643 6.5 10.7501 6.5C10.3359 6.5 10.0001 6.83579 10.0001 7.25C10.0001 7.66421 10.3359 8 10.7501 8Z" fill="#7D8198"/>
</svg>
