<svg width="16" height="16" viewBox="0 0 16 16" fill="none" xmlns="http://www.w3.org/2000/svg">
<path d="M8.59885 1.07575C8.57165 0.974749 8.42835 0.974749 8.40115 1.07575L8.27323 1.5509C8.17838 1.9032 7.9032 2.17838 7.5509 2.27323L7.07575 2.40115C6.97475 2.42835 6.97475 2.57165 7.07575 2.59885L7.5509 2.72677C7.9032 2.82162 8.17838 3.0968 8.27323 3.4491L8.40115 3.92425C8.42835 4.02525 8.57165 4.02525 8.59885 3.92425L8.72677 3.4491C8.82162 3.0968 9.0968 2.82162 9.4491 2.72677L9.92425 2.59885C10.0253 2.57165 10.0253 2.42835 9.92425 2.40115L9.4491 2.27323C9.0968 2.17838 8.82162 1.9032 8.72677 1.5509L8.59885 1.07575Z" fill="#7D8198"/>
<path d="M4.2786 4.16968C4.33951 3.94344 4.66049 3.94344 4.7214 4.16968L4.99715 5.19388C5.10337 5.58843 5.41157 5.89663 5.80612 6.00285L6.83032 6.2786C7.05656 6.33951 7.05656 6.66049 6.83032 6.7214L5.80612 6.99715C5.41157 7.10337 5.10337 7.41157 4.99715 7.80612L4.7214 8.83032C4.66049 9.05656 4.33951 9.05656 4.2786 8.83032L4.00285 7.80612C3.89663 7.41157 3.58843 7.10337 3.19388 6.99715L2.16968 6.7214C1.94344 6.66049 1.94344 6.33951 2.16968 6.2786L3.19388 6.00285C3.58843 5.89663 3.89663 5.58843 4.00285 5.19388L4.2786 4.16968Z" fill="#7D8198"/>
<path d="M10.2431 7.19691C10.3137 6.93436 10.6863 6.93436 10.7569 7.19691L11.0845 8.41342C11.2817 9.14604 11.854 9.7183 12.5866 9.91554L13.8031 10.2431C14.0656 10.3137 14.0656 10.6863 13.8031 10.7569L12.5866 11.0845C11.854 11.2817 11.2817 11.854 11.0845 12.5866L10.7569 13.8031C10.6863 14.0656 10.3137 14.0656 10.2431 13.8031L9.91554 12.5866C9.7183 11.854 9.14603 11.2817 8.41342 11.0845L7.19691 10.7569C6.93436 10.6863 6.93436 10.3137 7.19691 10.2431L8.41342 9.91554C9.14604 9.7183 9.7183 9.14604 9.91554 8.41342L10.2431 7.19691Z" fill="#7D8198"/>
</svg>
