<svg width="16" height="16" viewBox="0 0 16 16" fill="none" xmlns="http://www.w3.org/2000/svg">
<path d="M7.25 6.70454L6.30745 7.75174C6.03035 8.05962 5.55613 8.08456 5.24826 7.80745C4.94038 7.53035 4.91544 7.05613 5.19255 6.74826L7.44271 4.24826C7.58495 4.09023 7.78757 3.99999 8.00019 4C8.2128 4.00001 8.41542 4.09026 8.55765 4.2483L10.8075 6.7483C11.0846 7.05619 11.0596 7.53041 10.7517 7.80749C10.4438 8.08457 9.9696 8.0596 9.69251 7.7517L8.75 6.70439L8.75 11.2501C8.75 11.6643 8.41421 12.0001 8 12.0001C7.58579 12.0001 7.25 11.6643 7.25 11.2501L7.25 6.70454Z" fill="#7D8198"/>
<path fill-rule="evenodd" clip-rule="evenodd" d="M8 1C11.866 1 15 4.13401 15 8C15 11.866 11.866 15 8 15C4.13401 15 1 11.866 1 8C1 4.13401 4.13401 1 8 1ZM13.5 8C13.5 4.96243 11.0376 2.5 8 2.5C4.96243 2.5 2.5 4.96243 2.5 8C2.5 11.0376 4.96243 13.5 8 13.5C11.0376 13.5 13.5 11.0376 13.5 8Z" fill="#7D8198"/>
</svg>
