<svg width="16" height="16" viewBox="0 0 16 16" fill="none" xmlns="http://www.w3.org/2000/svg">
<path d="M9 5.75002C9 5.44668 8.81727 5.1732 8.53701 5.05711C8.25676 4.94103 7.93417 5.00519 7.71967 5.21969L6.21967 6.71969C5.92678 7.01258 5.92678 7.48746 6.21967 7.78035C6.51256 8.07324 6.98744 8.07324 7.28033 7.78035L7.5 7.56068V10.2499C7.5 10.6642 7.83579 10.9999 8.25 10.9999C8.66421 10.9999 9 10.6642 9 10.2499V5.75002Z" fill="#7D8198"/>
<path fill-rule="evenodd" clip-rule="evenodd" d="M3.75 2C2.7835 2 2 2.7835 2 3.75V12.25C2 13.2165 2.7835 14 3.75 14H12.25C13.2165 14 14 13.2165 14 12.25V3.75C14 2.7835 13.2165 2 12.25 2H3.75ZM3.5 3.75C3.5 3.61193 3.61193 3.5 3.75 3.5H12.25C12.3881 3.5 12.5 3.61193 12.5 3.75V12.25C12.5 12.3881 12.3881 12.5 12.25 12.5H3.75C3.61193 12.5 3.5 12.3881 3.5 12.25V3.75Z" fill="#7D8198"/>
</svg>
