<svg width="16" height="16" viewBox="0 0 16 16" fill="none" xmlns="http://www.w3.org/2000/svg">
<path fill-rule="evenodd" clip-rule="evenodd" d="M11.252 1.00208C12.2185 1.00208 13.002 1.78558 13.002 2.75208V13.2521C13.002 14.2186 12.2185 15.0021 11.252 15.0021H4.74817C3.78167 15.0021 2.99817 14.2186 2.99817 13.2521L2.99817 2.75207C2.99817 1.78558 3.78167 1.00208 4.74817 1.00208L11.252 1.00208ZM11.502 2.75208C11.502 2.614 11.39 2.50208 11.252 2.50208L4.74817 2.50208C4.6101 2.50208 4.49817 2.614 4.49817 2.75207L4.49817 13.2521C4.49817 13.3901 4.6101 13.5021 4.74817 13.5021H11.252C11.39 13.5021 11.502 13.3901 11.502 13.2521V2.75208Z" fill="#7D8198"/>
</svg>
