<svg width="16" height="16" viewBox="0 0 16 16" fill="none" xmlns="http://www.w3.org/2000/svg">
<path fill-rule="evenodd" clip-rule="evenodd" d="M3.27185 11.599C4.03031 10.4783 5.51316 9 8 9C10.4868 9 11.9697 10.4783 12.7282 11.599C13.0919 12.1365 13.0708 12.7668 12.7664 13.248C12.473 13.7119 11.945 14 11.3575 14H4.6425C4.055 14 3.52699 13.7119 3.2336 13.248C2.92924 12.7668 2.90809 12.1365 3.27185 11.599ZM8 10.5C6.20109 10.5 5.12034 11.5439 4.51409 12.4397C4.51065 12.4448 4.50811 12.449 4.50623 12.4525C4.52009 12.468 4.56017 12.5 4.6425 12.5H11.3575C11.4398 12.5 11.4799 12.468 11.4938 12.4525C11.4919 12.449 11.4894 12.4448 11.4859 12.4397C10.8797 11.5439 9.79891 10.5 8 10.5ZM11.4987 12.4639C11.4987 12.4639 11.4985 12.4634 11.4983 12.4625L11.4987 12.4639ZM4.50132 12.4639C4.50128 12.4639 4.50136 12.4634 4.50166 12.4625L4.50132 12.4639Z" fill="#7D8198"/>
<path fill-rule="evenodd" clip-rule="evenodd" d="M8 3.5C7.17157 3.5 6.5 4.17157 6.5 5C6.5 5.82843 7.17157 6.5 8 6.5C8.82843 6.5 9.5 5.82843 9.5 5C9.5 4.17157 8.82843 3.5 8 3.5ZM5 5C5 3.34315 6.34315 2 8 2C9.65686 2 11 3.34315 11 5C11 6.65685 9.65686 8 8 8C6.34315 8 5 6.65685 5 5Z" fill="#7D8198"/>
</svg>
