<svg width="16" height="16" viewBox="0 0 16 16" fill="none" xmlns="http://www.w3.org/2000/svg">
<path fill-rule="evenodd" clip-rule="evenodd" d="M3.75 2C2.7835 2 2 2.7835 2 3.75V12.25C2 13.2165 2.7835 14 3.75 14H12.25C13.2165 14 14 13.2165 14 12.25V3.75C14 2.7835 13.2165 2 12.25 2H3.75ZM3.5 3.75C3.5 3.61193 3.61193 3.5 3.75 3.5H12.25C12.3881 3.5 12.5 3.61193 12.5 3.75V7H10.5C10.1575 7 9.85876 7.23194 9.7736 7.56321L9.77227 7.56801C9.77035 7.57476 9.76652 7.58787 9.76055 7.60643C9.74857 7.64371 9.72832 7.70194 9.69828 7.77404C9.63737 7.92022 9.5409 8.11209 9.39997 8.3C9.12733 8.66351 8.70532 9 7.99997 9C7.29479 9 6.87384 8.66371 6.60217 8.30066C6.46167 8.1129 6.36558 7.92116 6.30495 7.77505C6.27505 7.70299 6.25491 7.64479 6.243 7.60754C6.23707 7.58899 6.23326 7.57589 6.23136 7.56915L6.23005 7.5644C6.14532 7.23255 5.84631 7 5.50338 7H3.5V3.75ZM3.5 8.5V12.25C3.5 12.3881 3.61193 12.5 3.75 12.5H12.25C12.3881 12.5 12.5 12.3881 12.5 12.25V8.5H11.0172C10.9217 8.70545 10.7864 8.95147 10.6 9.2C10.1226 9.83649 9.29461 10.5 7.99997 10.5C6.70514 10.5 5.8778 9.83629 5.40118 9.19934C5.21541 8.95108 5.08058 8.70533 4.98539 8.5H3.5Z" fill="#7D8198"/>
</svg>
