<svg width="16" height="16" viewBox="0 0 16 16" fill="none" xmlns="http://www.w3.org/2000/svg">
<path fill-rule="evenodd" clip-rule="evenodd" d="M8 1C8.41421 1 8.75 1.33579 8.75 1.75V2H10.75C11.4404 2 12 2.55964 12 3.25V6.29275L13.4872 6.78849C13.8682 6.91547 14.0815 7.31995 13.9712 7.70604L13.4712 9.45604C13.3574 9.85432 12.9423 10.0849 12.544 9.97114C12.1457 9.85735 11.9151 9.44224 12.0289 9.04396L12.3316 7.98443L8.00004 6.54057L3.66846 7.98443L3.97119 9.04396C4.08498 9.44224 3.85436 9.85735 3.45608 9.97114C3.05781 10.0849 2.64269 9.85432 2.5289 9.45604L2.0289 7.70604C1.91859 7.31995 2.13193 6.91547 2.51287 6.78849L4 6.29278V3.24944C4 2.55799 4.56074 2 5.25 2H7.25V1.75C7.25 1.33579 7.58579 1 8 1ZM5.5 5.79278V3.5H10.5V5.79275L8.23721 5.03849C8.08326 4.98717 7.91682 4.98717 7.76287 5.03849L5.5 5.79278Z" fill="#7D8198"/>
<path d="M14.9186 12.0847C15.1034 11.714 14.9527 11.2636 14.582 11.0788C14.2113 10.894 13.761 11.0447 13.5762 11.4154C13.1492 12.2719 12.6719 12.5005 12.3122 12.5005C11.9042 12.5005 11.2868 12.216 10.6001 11.3001C10.4585 11.1112 10.2361 11 10 11C9.76394 11 9.54161 11.1112 9.39998 11.3001C9.04333 11.7758 8.74768 12.089 8.49855 12.2789C8.2553 12.4643 8.09878 12.5005 8.00004 12.5005C7.9013 12.5005 7.74479 12.4643 7.50154 12.2789C7.2524 12.089 6.95675 11.7758 6.60011 11.3001C6.45847 11.1112 6.23615 11 6.00004 11C5.76394 11 5.54161 11.1112 5.39998 11.3001C4.71334 12.2159 4.09593 12.5005 3.68754 12.5005C3.32715 12.5005 2.84914 12.2714 2.4209 11.4147C2.23571 11.0442 1.78522 10.894 1.41471 11.0792C1.04421 11.2644 0.893984 11.7149 1.07918 12.0854C1.65095 13.2293 2.54794 14.0005 3.68754 14.0005C4.51822 14.0005 5.30024 13.5861 5.98504 12.9099C6.18501 13.1262 6.38671 13.3152 6.5923 13.4719C7.0053 13.7867 7.47378 14.0005 8.00004 14.0005C8.5263 14.0005 8.99479 13.7867 9.40779 13.4719C9.61338 13.3152 9.81508 13.1262 10.015 12.9099C10.6998 13.586 11.4818 14.0005 12.3122 14.0005C13.4518 14.0005 14.3482 13.2288 14.9186 12.0847Z" fill="#7D8198"/>
</svg>
