<svg width="16" height="16" viewBox="0 0 16 16" fill="none" xmlns="http://www.w3.org/2000/svg">
<path fill-rule="evenodd" clip-rule="evenodd" d="M8.00006 3.50146C6.71524 3.50146 5.6559 4.47131 5.51584 5.71841C5.476 6.07314 5.19167 6.35064 4.83608 6.38184C3.55053 6.49463 2.50146 7.57678 2.50146 8.9365C2.50146 10.3523 3.64918 11.5 5.06496 11.5H11.4901C12.6009 11.5 13.5015 10.5995 13.5015 9.48863C13.5015 8.51017 12.7973 7.67367 11.8332 7.50674L11.0606 7.37296C10.8616 7.33851 10.6849 7.22527 10.5705 7.05886C10.4561 6.89246 10.4137 6.68694 10.4527 6.48882C10.4837 6.33178 10.5001 6.1689 10.5001 6.00146C10.5001 4.62075 9.38077 3.50146 8.00006 3.50146ZM4.13185 4.97991C4.58357 3.26539 6.14379 2.00146 8.00006 2.00146C10.2092 2.00146 12.0001 3.79233 12.0001 6.00146C12.0001 6.00541 12.0001 6.00936 12 6.0133L12.0891 6.02873C13.7722 6.32014 15.0015 7.78048 15.0015 9.48863C15.0015 11.4279 13.4294 13 11.4901 13H5.06496C2.82075 13 1.00146 11.1807 1.00146 8.9365C1.00146 6.98312 2.36411 5.39751 4.13185 4.97991Z" fill="#7D8198"/>
</svg>
