<svg width="16" height="16" viewBox="0 0 16 16" fill="none" xmlns="http://www.w3.org/2000/svg">
<path d="M8.02247 10.4993H5.0754C5.02551 10.4993 5.00058 10.4713 5.00061 10.4154V5.5693C4.9993 5.55996 5.00014 5.55045 5.00306 5.54151C5.00598 5.53257 5.01091 5.52444 5.01744 5.51778C5.02397 5.51112 5.03194 5.50609 5.0407 5.50311C5.04947 5.50013 5.05879 5.49928 5.06793 5.50061H5.98048C5.98759 5.49959 5.99484 5.50027 6.00165 5.50259C6.00846 5.50491 6.01465 5.50882 6.01972 5.514C6.0248 5.51918 6.02863 5.5255 6.03091 5.53245C6.03318 5.53939 6.03384 5.54679 6.03284 5.55404V9.53773H8.17957C8.22444 9.53773 8.24189 9.56063 8.23193 9.60642L8.09729 10.4306C8.09697 10.4419 8.09411 10.4529 8.08892 10.4628C8.08373 10.4728 8.07635 10.4813 8.06737 10.4879C8.05349 10.4952 8.03811 10.4991 8.02247 10.4993Z" fill="#7D8198"/>
<path d="M9.57823 6.70644H8.76293C8.75569 6.70453 8.74809 6.70458 8.74087 6.70659C8.73366 6.70859 8.72708 6.71249 8.72179 6.71789C8.7165 6.72328 8.71269 6.72999 8.71072 6.73736C8.70875 6.74472 8.7087 6.75248 8.71057 6.75987C8.72718 6.86339 8.73717 6.96791 8.74047 7.07275C8.7454 7.1949 8.74914 7.31828 8.7517 7.44289C8.7542 7.56761 8.75545 7.6859 8.75545 7.79776V10.423C8.75399 10.4334 8.75491 10.444 8.75816 10.4539C8.7614 10.4638 8.76687 10.4729 8.77413 10.4803C8.78138 10.4877 8.79023 10.4933 8.79997 10.4966C8.80971 10.4999 8.82008 10.5008 8.83024 10.4993H9.7353C9.7752 10.4994 9.79515 10.4765 9.79515 10.4307V8.01144C9.86676 7.93695 9.95186 7.87735 10.0457 7.83592C10.3219 7.71159 10.6233 7.65664 10.9246 7.67565C10.9745 7.6757 10.9994 7.65789 10.9994 7.62223V6.69881C11.0007 6.68948 10.9999 6.67997 10.997 6.67103C10.994 6.66209 10.9891 6.65396 10.9826 6.6473C10.9761 6.64064 10.9681 6.63561 10.9593 6.63263C10.9506 6.62965 10.9412 6.62879 10.9321 6.63013C10.6908 6.62559 10.4525 6.68474 10.2402 6.80184C10.0512 6.90561 9.88261 7.04402 9.74279 7.21012C9.74272 7.14907 9.74022 7.09184 9.7353 7.03842C9.7308 6.98839 9.72331 6.93869 9.71287 6.88959C9.70587 6.85223 9.69325 6.81619 9.67546 6.78276C9.6696 6.76097 9.65693 6.74174 9.63939 6.72796C9.62184 6.71419 9.60037 6.70663 9.57823 6.70644Z" fill="#7D8198"/>
<path fill-rule="evenodd" clip-rule="evenodd" d="M2 4.25C2 3.00736 3.00736 2 4.25 2H11.75C12.9926 2 14 3.00736 14 4.25V11.75C14 12.9926 12.9926 14 11.75 14H4.25C3.00736 14 2 12.9926 2 11.75V4.25ZM4.25 3.5C3.83579 3.5 3.5 3.83579 3.5 4.25V11.75C3.5 12.1642 3.83579 12.5 4.25 12.5H11.75C12.1642 12.5 12.5 12.1642 12.5 11.75V4.25C12.5 3.83579 12.1642 3.5 11.75 3.5H4.25Z" fill="#7D8198"/>
</svg>
