<svg width="16" height="16" viewBox="0 0 16 16" fill="none" xmlns="http://www.w3.org/2000/svg">
<path fill-rule="evenodd" clip-rule="evenodd" d="M8.48028 2.06739C8.16636 1.97754 7.83364 1.97754 7.51973 2.06739L3.27008 3.28371C2.36519 3.54271 1.99357 4.21152 1.99997 5V10.5L2.00001 5.5L2.00001 11C2.00001 11.3729 2.19467 11.6385 2.34809 11.8066C2.50999 11.984 2.71371 12.134 2.91409 12.2595C3.31827 12.5127 3.84278 12.7484 4.37122 12.9554C5.43725 13.3731 6.65885 13.7274 7.31596 13.9077C7.76393 14.0307 8.23579 14.0308 8.68384 13.908C9.34098 13.7279 10.5626 13.374 11.6288 12.9564C12.1572 12.7494 12.6818 12.5137 13.0861 12.2603C13.2866 12.1346 13.4904 11.9845 13.6523 11.8068C13.8059 11.6383 14 11.3726 14 11V10L14 9.64062V5C14 4.22417 13.6349 3.54274 12.7299 3.28371L8.48028 2.06739ZM12.5 6.72452L8.74997 7.79364V12.3272C9.40661 12.1382 10.2981 11.8627 11.0831 11.5552C11.5829 11.3594 12.0054 11.1638 12.291 10.9847C12.3898 10.9228 12.457 10.8722 12.5 10.8349V10.4912L12.5 10.4843V6.72452ZM7.24997 7.79362L3.49997 6.7245V9.97289L3.50001 9.97975V10.8342C3.54309 10.8714 3.61023 10.9219 3.70877 10.9836C3.99457 11.1627 4.41713 11.3584 4.91706 11.5542C5.70196 11.8618 6.59335 12.1376 7.24997 12.3268V7.79362ZM7.93139 3.51392C7.97624 3.50108 8.02377 3.50108 8.06861 3.51392L12.3183 4.73025C12.3951 4.75223 12.4328 4.78756 12.4552 4.8194C12.4814 4.85674 12.4997 4.90986 12.4996 4.97147C12.4996 5.03307 12.4812 5.08618 12.455 5.12348C12.4326 5.1553 12.3948 5.19059 12.318 5.2125L8.06837 6.42406C8.02368 6.4368 7.97633 6.4368 7.93164 6.42406L3.68199 5.2125C3.60517 5.19059 3.56739 5.1553 3.54501 5.12348C3.51876 5.08618 3.50039 5.03307 3.50036 4.97147C3.50032 4.90986 3.51865 4.85674 3.54485 4.8194C3.5672 4.78756 3.60495 4.75223 3.68175 4.73025L7.93139 3.51392Z" fill="#7D8198"/>
</svg>
