<svg width="16" height="16" viewBox="0 0 16 16" fill="none" xmlns="http://www.w3.org/2000/svg">
<path fill-rule="evenodd" clip-rule="evenodd" d="M6.33331 2.66666C5.50489 2.66666 4.83331 3.33824 4.83331 4.16667V11.8333C4.83331 12.6618 5.50489 13.3333 6.33331 13.3333H9.66665C10.4951 13.3333 11.1666 12.6618 11.1666 11.8333V4.16666C11.1666 3.33824 10.4951 2.66666 9.66665 2.66666H6.33331ZM5.83331 4.16667C5.83331 3.89052 6.05717 3.66666 6.33331 3.66666H6.80552C6.80552 3.94281 7.02938 4.16666 7.30552 4.16666H8.69441C8.97055 4.16666 9.19441 3.94281 9.19441 3.66666H9.66665C9.94279 3.66666 10.1666 3.89052 10.1666 4.16666V11.8333C10.1666 12.1095 9.94279 12.3333 9.66665 12.3333H6.33331C6.05717 12.3333 5.83331 12.1095 5.83331 11.8333V4.16667Z" fill="#5B53FF"/>
</svg>
