<svg width="16" height="16" viewBox="0 0 16 16" fill="none" xmlns="http://www.w3.org/2000/svg">
<path d="M1 2.75C1 1.7835 1.7835 1 2.75 1H3.24609C3.66031 1 3.99609 1.33579 3.99609 1.75C3.99609 2.16421 3.66031 2.5 3.24609 2.5H2.75C2.61193 2.5 2.5 2.61193 2.5 2.75V3.25C2.5 3.66421 2.16421 4 1.75 4C1.33579 4 1 3.66421 1 3.25V2.75Z" fill="#7D8198"/>
<path d="M7.50171 3.75C7.50171 3.33579 7.16592 3 6.75171 3C6.3375 3 6.00171 3.33579 6.00171 3.75V8.75C6.00171 8.9949 6.12127 9.22437 6.32198 9.36468L8.50493 10.8908V12.25C8.50493 12.6642 8.84072 13 9.25493 13C9.66915 13 10.0049 12.6642 10.0049 12.25V10.5C10.0049 10.2551 9.88537 10.0256 9.68466 9.88532L7.50171 8.35922V3.75Z" fill="#7D8198"/>
<path d="M10 3.75C10 3.33579 9.66421 3 9.25 3C8.83579 3 8.5 3.33579 8.5 3.75V7.24847C8.5 7.66269 8.83579 7.99847 9.25 7.99847C9.66421 7.99847 10 7.66269 10 7.24847V3.75Z" fill="#7D8198"/>
<path d="M11.75 5C12.1642 5 12.5 5.33579 12.5 5.75V10.25C12.5 10.6642 12.1642 11 11.75 11C11.3358 11 11 10.6642 11 10.25V5.75C11 5.33579 11.3358 5 11.75 5Z" fill="#7D8198"/>
<path d="M5 8.7478C5 8.33359 4.66421 7.9978 4.25 7.9978C3.83579 7.9978 3.5 8.33359 3.5 8.7478V10.2478C3.5 10.662 3.83579 10.9978 4.25 10.9978C4.66421 10.9978 5 10.662 5 10.2478V8.7478Z" fill="#7D8198"/>
<path d="M4.23844 5.00009C4.65261 4.99371 4.99353 5.32428 4.99991 5.73844L5.00736 6.2216C5.01374 6.63576 4.68317 6.97668 4.269 6.98307C3.85484 6.98945 3.51392 6.65888 3.50754 6.24471L3.50009 5.76156C3.49371 5.34739 3.82428 5.00647 4.23844 5.00009Z" fill="#7D8198"/>
<path d="M7.50171 11.75C7.50171 11.3358 7.16592 11 6.75171 11C6.3375 11 6.00171 11.3358 6.00171 11.75V12.25C6.00171 12.6642 6.3375 13 6.75171 13C7.16592 13 7.50171 12.6642 7.50171 12.25V11.75Z" fill="#7D8198"/>
<path d="M15 2.75C15 1.7835 14.2165 1 13.25 1H12.75C12.3358 1 12 1.33579 12 1.75C12 2.16421 12.3358 2.5 12.75 2.5H13.25C13.3881 2.5 13.5 2.61193 13.5 2.75V3.24609C13.5 3.66031 13.8358 3.99609 14.25 3.99609C14.6642 3.99609 15 3.66031 15 3.24609V2.75Z" fill="#7D8198"/>
<path d="M15 13.25C15 14.2165 14.2165 15 13.25 15H12.7539C12.3397 15 12.0039 14.6642 12.0039 14.25C12.0039 13.8358 12.3397 13.5 12.7539 13.5H13.25C13.3881 13.5 13.5 13.3881 13.5 13.25V12.75C13.5 12.3358 13.8358 12 14.25 12C14.6642 12 15 12.3358 15 12.75V13.25Z" fill="#7D8198"/>
<path d="M1 13.25C1 14.2165 1.7835 15 2.75 15H3.25C3.66421 15 4 14.6642 4 14.25C4 13.8358 3.66421 13.5 3.25 13.5H2.75C2.61193 13.5 2.5 13.3881 2.5 13.25V12.7539C2.5 12.3397 2.16421 12.0039 1.75 12.0039C1.33579 12.0039 1 12.3397 1 12.7539V13.25Z" fill="#7D8198"/>
</svg>
