<svg width="16" height="16" viewBox="0 0 16 16" fill="none" xmlns="http://www.w3.org/2000/svg">
<path fill-rule="evenodd" clip-rule="evenodd" d="M2 3.75C2 2.7835 2.7835 2 3.75 2H12.25C13.2165 2 14 2.7835 14 3.75V12.25C14 13.2165 13.2165 14 12.25 14H3.75C2.7835 14 2 13.2165 2 12.25V3.75ZM3.75 3.5C3.61193 3.5 3.5 3.61193 3.5 3.75V12.25C3.5 12.3881 3.61193 12.5 3.75 12.5H12.25C12.3881 12.5 12.5 12.3881 12.5 12.25V3.75C12.5 3.61193 12.3881 3.5 12.25 3.5H10V5H8V3.5H3.75ZM8 7H6V5H8V7ZM8 9V7H10V9H8ZM8 9H6V11H8V9Z" fill="#7D8198"/>
</svg>
