<svg width="16" height="16" viewBox="0 0 16 16" fill="none" xmlns="http://www.w3.org/2000/svg">
<path d="M8.00067 6.5C8.41489 6.5 8.75067 6.16421 8.75067 5.75C8.75067 5.33579 8.41489 5 8.00067 5C7.58646 5 7.25067 5.33579 7.25067 5.75C7.25067 6.16421 7.58646 6.5 8.00067 6.5Z" fill="#7D8198"/>
<path d="M7.99994 7.5C7.58573 7.5 7.24994 7.83579 7.24994 8.25V10.75C7.24994 11.1642 7.58573 11.5 7.99994 11.5C8.41415 11.5 8.74994 11.1642 8.74994 10.75V8.25C8.74994 7.83579 8.41415 7.5 7.99994 7.5Z" fill="#7D8198"/>
<path fill-rule="evenodd" clip-rule="evenodd" d="M8.59244 1.28923C8.45032 1.10719 8.23165 1 8.00067 1C7.7695 1 7.55126 1.1066 7.40915 1.28891L7.4066 1.29213L7.39121 1.31127C7.37667 1.32921 7.35365 1.35721 7.32259 1.39384C7.26041 1.46716 7.16635 1.57466 7.04383 1.70494C6.79795 1.96639 6.44195 2.31482 6.00335 2.66181C5.10755 3.37049 3.95993 4 2.75244 4C2.33823 4 2.00244 4.33579 2.00244 4.75V7.50266C2.00244 8.50245 2.22446 9.88472 3.06621 11.2665C3.91341 12.6573 5.35865 13.9979 7.72136 14.946C7.90062 15.018 8.10072 15.018 8.27998 14.946C10.6427 13.9979 12.0879 12.6573 12.9351 11.2665C13.7769 9.88472 13.9989 8.50245 13.9989 7.50266V4.75056C13.9989 4.33635 13.6631 4 13.2489 4C12.0414 4 10.8938 3.37049 9.998 2.66181C9.5594 2.31482 9.20339 1.96639 8.95752 1.70494C8.835 1.57466 8.74093 1.46716 8.67876 1.39384C8.6477 1.35721 8.62468 1.32921 8.61013 1.31127L8.59474 1.29213L8.59244 1.28923ZM3.50244 5.44458V7.50266C3.50244 8.28973 3.67809 9.3877 4.34723 10.4861C4.98077 11.5261 6.08372 12.6117 8.00067 13.4378C9.91762 12.6117 11.0206 11.5261 11.6541 10.4861C12.3233 9.3877 12.4989 8.28973 12.4989 7.50266V5.44458C11.1124 5.24096 9.91773 4.51096 9.06734 3.83819C8.63433 3.49562 8.27315 3.1541 8.00067 2.87447C7.72819 3.1541 7.36702 3.49562 6.93401 3.83819C6.08361 4.51096 4.88897 5.24096 3.50244 5.44458Z" fill="#7D8198"/>
</svg>
