<svg width="16" height="16" viewBox="0 0 16 16" fill="none" xmlns="http://www.w3.org/2000/svg">
<path d="M8.75001 1.75C8.75001 1.33579 8.41422 1 8.00001 1C7.58579 1 7.25001 1.33579 7.25001 1.75V3.25C7.25001 3.66421 7.58579 4 8.00001 4C8.41422 4 8.75001 3.66421 8.75001 3.25V1.75Z" fill="#7D8198"/>
<path fill-rule="evenodd" clip-rule="evenodd" d="M7.38272 5.81089C6.41495 5.50107 5.50153 6.41415 5.81099 7.38204L7.96856 14.1304C8.30942 15.1965 9.77205 15.3116 10.2756 14.312L11.6274 11.6282L14.3115 10.2784C15.3116 9.77551 15.1971 8.31253 14.131 7.97122L7.38272 5.81089ZM9.21106 13.091L7.3875 7.3874L13.0909 9.21325L10.8797 10.3253C10.6401 10.4458 10.4456 10.6401 10.3249 10.8797L9.21106 13.091Z" fill="#7D8198"/>
<path d="M12.9538 3.04866C13.2467 3.34155 13.2467 3.81643 12.9538 4.10932L11.8931 5.16998C11.6002 5.46287 11.1254 5.46287 10.8325 5.16998C10.5396 4.87709 10.5396 4.40221 10.8325 4.10932L11.8931 3.04866C12.186 2.75576 12.6609 2.75576 12.9538 3.04866Z" fill="#7D8198"/>
<path d="M5.16864 11.8945C5.46154 11.6016 5.46154 11.1267 5.16864 10.8338C4.87575 10.5409 4.40088 10.5409 4.10798 10.8338L3.04732 11.8945C2.75443 12.1874 2.75443 12.6622 3.04732 12.9551C3.34022 13.248 3.81509 13.248 4.10798 12.9551L5.16864 11.8945Z" fill="#7D8198"/>
<path d="M1.00439 7.99989C1.00439 7.58567 1.34018 7.24989 1.75439 7.24989H3.25439C3.66861 7.24989 4.00439 7.58567 4.00439 7.99989C4.00439 8.4141 3.66861 8.74989 3.25439 8.74989H1.75439C1.34018 8.74989 1.00439 8.4141 1.00439 7.99989Z" fill="#7D8198"/>
<path d="M4.09766 3.04866C3.80477 2.75576 3.32989 2.75576 3.037 3.04866C2.74411 3.34155 2.74411 3.81643 3.037 4.10932L4.09766 5.16998C4.39055 5.46287 4.86543 5.46287 5.15832 5.16998C5.45121 4.87709 5.45121 4.40221 5.15832 4.10932L4.09766 3.04866Z" fill="#7D8198"/>
</svg>
