<svg width="16" height="16" viewBox="0 0 16 16" fill="none" xmlns="http://www.w3.org/2000/svg">
<path d="M6.70454 7.25L7.75174 6.30745C8.05962 6.03035 8.08456 5.55613 7.80745 5.24826C7.53035 4.94038 7.05613 4.91544 6.74826 5.19255L4.24826 7.44271C4.09023 7.58495 3.99999 7.78757 4 8.00019C4.00001 8.2128 4.09026 8.41542 4.2483 8.55765L6.7483 10.8075C7.05619 11.0846 7.53041 11.0596 7.80749 10.7517C8.08457 10.4438 8.0596 9.96959 7.7517 9.69251L6.70439 8.75H11.25C11.6642 8.75 12 8.41421 12 8C12 7.58579 11.6642 7.25 11.25 7.25H6.70454Z" fill="#7D8198"/>
<path fill-rule="evenodd" clip-rule="evenodd" d="M15 8C15 11.866 11.866 15 8 15C4.13401 15 1 11.866 1 8C1 4.13401 4.13401 1 8 1C11.866 1 15 4.13401 15 8ZM8 13.5C11.0376 13.5 13.5 11.0376 13.5 8C13.5 4.96243 11.0376 2.5 8 2.5C4.96243 2.5 2.5 4.96243 2.5 8C2.5 11.0376 4.96243 13.5 8 13.5Z" fill="#7D8198"/>
</svg>
