<svg width="16" height="16" viewBox="0 0 16 16" fill="none" xmlns="http://www.w3.org/2000/svg">
<path fill-rule="evenodd" clip-rule="evenodd" d="M7.61517 2.1832C7.81511 1.93894 8.18488 1.93893 8.38482 2.18319L9.94145 4.08485C10.0766 4.24997 9.96073 4.49996 9.74904 4.49996L8.75 4.49997V7.25003L11.5 7.25003L11.5 6.25095C11.5 6.03925 11.75 5.92337 11.9151 6.05853L13.8168 7.61517C14.0611 7.81511 14.0611 8.18488 13.8168 8.38482L11.9152 9.94145C11.75 10.0766 11.5 9.96073 11.5 9.74904L11.5 8.75003L8.75 8.75003V11.5L9.74905 11.5C9.96075 11.5 10.0766 11.75 9.94147 11.9151L8.38483 13.8168C8.18489 14.0611 7.81512 14.0611 7.61518 13.8168L6.05855 11.9152C5.92339 11.75 6.03927 11.5 6.25096 11.5L7.25 11.5V8.75003L4.49999 8.75003L4.5 9.74905C4.5 9.96075 4.25001 10.0766 4.08489 9.94147L2.1832 8.38483C1.93894 8.18489 1.93893 7.81512 2.18319 7.61518L4.08485 6.05855C4.24997 5.92339 4.49996 6.03927 4.49996 6.25096L4.49997 7.25003L7.25 7.25003V4.49999L6.25095 4.5C6.03925 4.5 5.92337 4.25001 6.05853 4.08489L7.61517 2.1832Z" fill="#7D8198"/>
</svg>
