<svg width="16" height="16" viewBox="0 0 16 16" fill="none" xmlns="http://www.w3.org/2000/svg">
<path d="M7.24319 6.75348C7.24319 6.33878 7.57938 6.00259 7.99408 6.00259C8.40879 6.00259 8.74498 6.33878 8.74498 6.75348V8.24992C8.74498 8.66462 8.40879 9.00081 7.99408 9.00081C7.57938 9.00081 7.24319 8.66462 7.24319 8.24992V6.75348Z" fill="#7D8198"/>
<path d="M8.74498 10.7502C8.74498 11.1644 8.40879 11.5002 7.99408 11.5002C7.57938 11.5002 7.24319 11.1644 7.24319 10.7502C7.24319 10.3359 7.57938 10.0002 7.99408 10.0002C8.40879 10.0002 8.74498 10.3359 8.74498 10.7502Z" fill="#7D8198"/>
<path fill-rule="evenodd" clip-rule="evenodd" d="M9.56017 2.96413C8.9149 1.67373 7.07314 1.67458 6.42904 2.96555L2.18755 11.4668C1.60706 12.6303 2.45321 13.998 3.75347 13.998H12.2461C13.547 13.998 14.3931 12.6289 13.8113 11.4653L9.56017 2.96413ZM7.77125 3.63522C7.86327 3.45079 8.12638 3.45067 8.21856 3.63501L12.4697 12.1362C12.5528 12.3025 12.4319 12.498 12.2461 12.498H3.75347C3.56772 12.498 3.44684 12.3026 3.52977 12.1364L7.77125 3.63522Z" fill="#7D8198"/>
</svg>
