<svg width="16" height="16" viewBox="0 0 16 16" fill="none" xmlns="http://www.w3.org/2000/svg">
<path d="M3 3.75C3 3.33579 3.33579 3 3.75 3H12.25C12.6642 3 13 3.33579 13 3.75C13 4.16421 12.6642 4.5 12.25 4.5H3.75C3.33579 4.5 3 4.16421 3 3.75Z" fill="#7D8198"/>
<path d="M3 11.75C3 11.3358 3.33579 11 3.75 11H10.25C10.6642 11 11 11.3358 11 11.75C11 12.1642 10.6642 12.5 10.25 12.5H3.75C3.33579 12.5 3 12.1642 3 11.75Z" fill="#7D8198"/>
<path d="M3.75 7C3.33579 7 3 7.33579 3 7.75C3 8.16421 3.33579 8.5 3.75 8.5H14.25C14.6642 8.5 15 8.16421 15 7.75C15 7.33579 14.6642 7 14.25 7H3.75Z" fill="#7D8198"/>
</svg>
