<svg width="16" height="16" viewBox="0 0 16 16" fill="none" xmlns="http://www.w3.org/2000/svg">
<path d="M4.75 1.99963C4.33579 1.99963 4 2.33542 4 2.74963C4 3.16385 4.33579 3.49963 4.75 3.49963H11.25C11.6642 3.49963 12 3.16385 12 2.74963C12 2.33542 11.6642 1.99963 11.25 1.99963H4.75Z" fill="#7D8198"/>
<path d="M3 5.24836C3 4.83415 3.33579 4.49836 3.75 4.49836H12.25C12.6642 4.49836 13 4.83415 13 5.24836C13 5.66258 12.6642 5.99836 12.25 5.99836H3.75C3.33579 5.99836 3 5.66258 3 5.24836Z" fill="#7D8198"/>
<path fill-rule="evenodd" clip-rule="evenodd" d="M2 8.7488C2 7.7823 2.7835 6.9988 3.75 6.9988H12.25C13.2165 6.9988 14 7.7823 14 8.7488V12.2504C14 13.2169 13.2165 14.0004 12.25 14.0004H3.75C2.7835 14.0004 2 13.2169 2 12.2504V8.7488ZM3.75 8.4988C3.61193 8.4988 3.5 8.61073 3.5 8.7488V12.2504C3.5 12.3885 3.61193 12.5004 3.75 12.5004H12.25C12.3881 12.5004 12.5 12.3885 12.5 12.2504V8.7488C12.5 8.61073 12.3881 8.4988 12.25 8.4988H3.75Z" fill="#7D8198"/>
</svg>
