<svg width="16" height="16" viewBox="0 0 16 16" fill="none" xmlns="http://www.w3.org/2000/svg">
<path d="M1 2.75C1 1.7835 1.7835 1 2.75 1H10.25C11.2165 1 12 1.7835 12 2.75V2.9996C12 3.41381 11.6642 3.7496 11.25 3.7496C10.8358 3.7496 10.5 3.41381 10.5 2.9996V2.75C10.5 2.61193 10.3881 2.5 10.25 2.5H2.75C2.61193 2.5 2.5 2.61193 2.5 2.75V10.25C2.5 10.3881 2.61193 10.5 2.75 10.5H3C3.41421 10.5 3.75 10.8358 3.75 11.25C3.75 11.6642 3.41421 12 3 12H2.75C1.7835 12 1 11.2165 1 10.25V2.75Z" fill="#7D8198"/>
<path d="M11.002 4.75C11.002 5.16421 10.6662 5.5 10.252 5.5H8.75195C8.33774 5.5 8.00195 5.16421 8.00195 4.75C8.00195 4.33579 8.33774 4 8.75195 4H10.252C10.6662 4 11.002 4.33579 11.002 4.75Z" fill="#7D8198"/>
<path d="M10.252 15C10.6662 15 11.002 14.6642 11.002 14.25C11.002 13.8358 10.6662 13.5 10.252 13.5H8.75195C8.33774 13.5 8.00195 13.8358 8.00195 14.25C8.00195 14.6642 8.33774 15 8.75195 15H10.252Z" fill="#7D8198"/>
<path d="M4.75 8C5.16421 8 5.5 8.33579 5.5 8.75V10.25C5.5 10.6642 5.16421 11 4.75 11C4.33579 11 4 10.6642 4 10.25V8.75C4 8.33579 4.33579 8 4.75 8Z" fill="#7D8198"/>
<path d="M15 8.75C15 8.33579 14.6642 8 14.25 8C13.8358 8 13.5 8.33579 13.5 8.75V10.25C13.5 10.6642 13.8358 11 14.25 11C14.6642 11 15 10.6642 15 10.25V8.75Z" fill="#7D8198"/>
<path d="M4.75 7C5.16421 7 5.5 6.66421 5.5 6.25V5.75C5.5 5.61193 5.61193 5.5 5.75 5.5H6.25C6.66421 5.5 7 5.16421 7 4.75C7 4.33579 6.66421 4 6.25 4H5.75C4.7835 4 4 4.7835 4 5.75V6.25C4 6.66421 4.33579 7 4.75 7Z" fill="#7D8198"/>
<path d="M5.5 12.75C5.5 12.3358 5.16421 12 4.75 12C4.33579 12 4 12.3358 4 12.75V13.25C4 14.2165 4.7835 15 5.75 15H6.25C6.66421 15 7 14.6642 7 14.25C7 13.8358 6.66421 13.5 6.25 13.5H5.75C5.61193 13.5 5.5 13.3881 5.5 13.25V12.75Z" fill="#7D8198"/>
<path d="M14.25 12C13.8358 12 13.5 12.3358 13.5 12.75V13.25C13.5 13.3881 13.3881 13.5 13.25 13.5H12.75C12.3358 13.5 12 13.8358 12 14.25C12 14.6642 12.3358 15 12.75 15H13.25C14.2165 15 15 14.2165 15 13.25V12.75C15 12.3358 14.6642 12 14.25 12Z" fill="#7D8198"/>
<path d="M13.5 6.25C13.5 6.66421 13.8358 7 14.25 7C14.6642 7 15 6.66421 15 6.25V5.75C15 4.7835 14.2165 4 13.25 4H12.75C12.3358 4 12 4.33579 12 4.75C12 5.16421 12.3358 5.5 12.75 5.5H13.25C13.3881 5.5 13.5 5.61193 13.5 5.75V6.25Z" fill="#7D8198"/>
</svg>
