<svg width="16" height="16" viewBox="0 0 16 16" fill="none" xmlns="http://www.w3.org/2000/svg">
<path fill-rule="evenodd" clip-rule="evenodd" d="M8 13.5C11.0376 13.5 13.5 11.0376 13.5 8C13.5 4.96243 11.0376 2.5 8 2.5C4.96243 2.5 2.5 4.96243 2.5 8C2.5 11.0376 4.96243 13.5 8 13.5ZM15 8C15 11.866 11.866 15 8 15C4.13401 15 1 11.866 1 8C1 4.13401 4.13401 1 8 1C11.866 1 15 4.13401 15 8ZM8.24512 6.38196C8.24512 5.89005 7.88057 5.5022 7.35 5.5022C7.12269 5.5022 6.90736 5.6009 6.74254 5.76482C6.57029 5.93613 6.50293 6.12747 6.50293 6.25C6.50293 6.66421 6.16714 7 5.75293 7C5.33872 7 5.00293 6.66421 5.00293 6.25C5.00293 5.65769 5.28372 5.10013 5.68481 4.70124C6.09332 4.29497 6.67653 4.0022 7.35 4.0022C8.72099 4.0022 9.74512 5.07368 9.74512 6.38196L9.74512 9.31172L10.7017 8.25459C10.9796 7.94746 11.4539 7.92377 11.761 8.20169C12.0682 8.47961 12.0919 8.9539 11.8139 9.26103L9.55881 11.7532C9.41673 11.9102 9.21489 11.9999 9.00313 12C8.79137 12.0001 8.58943 11.9107 8.44716 11.7539L6.18667 9.26169C5.90838 8.95488 5.9315 8.48057 6.23831 8.20229C6.54512 7.924 7.01943 7.94713 7.29771 8.25393L8.24512 9.29844V6.38196Z" fill="#7D8198"/>
</svg>
