<svg width="16" height="16" viewBox="0 0 16 16" fill="none" xmlns="http://www.w3.org/2000/svg">
<path d="M8.75 5C8.33579 5 8 5.33579 8 5.75V7.25C8 7.66421 8.33579 8 8.75 8H10.25C10.6642 8 11 7.66421 11 7.25V5.75C11 5.33579 10.6642 5 10.25 5H8.75Z" fill="#7D8198"/>
<path d="M8.75 9.50098C8.33579 9.50098 8 9.83676 8 10.251C8 10.6652 8.33579 11.001 8.75 11.001H10.25C10.6642 11.001 11 10.6652 11 10.251C11 9.83676 10.6642 9.50098 10.25 9.50098H8.75Z" fill="#7D8198"/>
<path fill-rule="evenodd" clip-rule="evenodd" d="M6.75 2C6.05286 2 5.45093 2.40764 5.16957 2.99756H3.75C2.7835 2.99756 2 3.78106 2 4.74756V11.2476C2 12.2141 2.7835 12.9976 3.75 12.9976H5.16725C5.44762 13.5901 6.05094 14 6.75 14H12.25C13.2165 14 14 13.2165 14 12.25V3.75C14 2.7835 13.2165 2 12.25 2H6.75ZM3.75 4.49756H5V11.4976H3.75C3.61193 11.4976 3.5 11.3856 3.5 11.2476V4.74756C3.5 4.60949 3.61193 4.49756 3.75 4.49756ZM6.5 3.75C6.5 3.61193 6.61193 3.5 6.75 3.5H12.25C12.3881 3.5 12.5 3.61193 12.5 3.75V12.25C12.5 12.3881 12.3881 12.5 12.25 12.5H6.75C6.61193 12.5 6.5 12.3881 6.5 12.25V3.75Z" fill="#7D8198"/>
</svg>
