<svg width="16" height="16" viewBox="0 0 16 16" fill="none" xmlns="http://www.w3.org/2000/svg">
<path d="M6.68767 4.29829C7.01616 3.59369 7.89282 3.286 8.69438 3.65986C9.07042 3.83525 9.51742 3.67252 9.69277 3.29639C9.86812 2.92026 9.70543 2.47317 9.32938 2.29778C7.8747 1.61929 6.04953 2.11098 5.32591 3.66314C4.7544 4.88903 5.01336 6.37795 6.03714 7.24936L4.33313 10.6582C4.14758 11.0294 4.298 11.4807 4.66911 11.6663C5.04023 11.8519 5.4915 11.7015 5.67705 11.3303L7.68045 7.32256C7.77114 7.14112 7.78465 6.93071 7.7179 6.73916C7.65114 6.54761 7.5098 6.39119 7.32599 6.30546C6.62154 5.9769 6.3139 5.10003 6.68767 4.29829Z" fill="#7D8198"/>
<path d="M7.67832 4.31514C8.04949 4.12966 8.50071 4.28025 8.68616 4.6515L10.3973 8.07703C11.6927 7.80971 13.0887 8.3643 13.6996 9.6747C14.378 11.1298 13.8862 12.9553 12.3345 13.6791C11.9584 13.8545 11.5114 13.6918 11.3361 13.3156C11.1607 12.9395 11.3234 12.4924 11.6995 12.317C12.404 11.9884 12.7116 11.1115 12.3379 10.3098C12.0094 9.60523 11.1327 9.29753 10.3311 9.67138C9.96227 9.84343 9.5235 9.69038 9.34159 9.3262L7.34204 5.32321C7.15659 4.95196 7.30715 4.50063 7.67832 4.31514Z" fill="#7D8198"/>
<path d="M2.74859 10.2428C3.1635 10.2428 3.49986 10.5792 3.49986 10.9942C3.49986 11.8242 4.17257 12.4971 5.00241 12.4971C5.83224 12.4971 6.50495 11.8242 6.50495 10.9942C6.50495 10.5792 6.84131 10.2428 7.25623 10.2428H11.012C11.4269 10.2428 11.7633 10.5792 11.7633 10.9942C11.7633 11.4092 11.4269 11.7457 11.012 11.7457H7.91283C7.57923 13.0421 6.40266 14 5.00241 14C3.34274 14 1.99731 12.6543 1.99731 10.9942C1.99731 10.5792 2.33367 10.2428 2.74859 10.2428Z" fill="#7D8198"/>
</svg>
