<svg width="16" height="16" viewBox="0 0 16 16" fill="none" xmlns="http://www.w3.org/2000/svg">
<path fill-rule="evenodd" clip-rule="evenodd" d="M4.66667 2.83333C4.39052 2.83333 4.16667 3.05719 4.16667 3.33333C4.16667 3.60948 4.39052 3.83333 4.66667 3.83333H11.3333C11.6095 3.83333 11.8333 3.60948 11.8333 3.33333C11.8333 3.05719 11.6095 2.83333 11.3333 2.83333H4.66667ZM4.2958 5.83333C3.94022 5.83333 3.66667 6.11399 3.66667 6.44444V11.7222C3.66667 12.0527 3.94022 12.3333 4.2958 12.3333H6.1479H6.66667C7.1269 12.3333 7.5 11.9602 7.5 11.5V10.2071L7.02022 10.6869C6.82496 10.8821 6.50838 10.8821 6.31311 10.6869C6.11785 10.4916 6.11785 10.175 6.31311 9.97978L7.64645 8.64645C7.84171 8.45118 8.15829 8.45118 8.35355 8.64645L9.68689 9.97978C9.88215 10.175 9.88215 10.4916 9.68689 10.6869C9.49162 10.8821 9.17504 10.8821 8.97978 10.6869L8.5 10.2071V11.5C8.5 12.5125 7.67919 13.3333 6.66667 13.3333H6.1479H4.2958C3.40316 13.3333 2.66667 12.6201 2.66667 11.7222V6.44444C2.66667 5.5466 3.40316 4.83333 4.2958 4.83333H11.7042C12.5968 4.83333 13.3333 5.5466 13.3333 6.44444V11.7222C13.3333 12.6201 12.5968 13.3333 11.7042 13.3333H10.6854C10.4093 13.3333 10.1854 13.1095 10.1854 12.8333C10.1854 12.5572 10.4093 12.3333 10.6854 12.3333H11.7042C12.0598 12.3333 12.3333 12.0527 12.3333 11.7222V6.44444C12.3333 6.11399 12.0598 5.83333 11.7042 5.83333H4.2958Z" fill="#7D8198"/>
</svg>
