<svg width="16" height="16" viewBox="0 0 16 16" fill="none" xmlns="http://www.w3.org/2000/svg">
<path d="M8.75002 1.75C8.75002 1.33579 8.41424 1 8.00002 1C7.58581 1 7.25002 1.33579 7.25002 1.75V3.25C7.25002 3.66421 7.58581 4 8.00002 4C8.41424 4 8.75002 3.66421 8.75002 3.25V1.75Z" fill="#7D8198"/>
<path d="M1 8C1 7.58579 1.33579 7.25 1.75 7.25H3.25C3.66421 7.25 4 7.58579 4 8C4 8.41421 3.66421 8.75 3.25 8.75H1.75C1.33579 8.75 1 8.41421 1 8Z" fill="#7D8198"/>
<path d="M11.9956 8C11.9956 7.58579 12.3314 7.25 12.7456 7.25H14.2456C14.6598 7.25 14.9956 7.58579 14.9956 8C14.9956 8.41421 14.6598 8.75 14.2456 8.75H12.7456C12.3314 8.75 11.9956 8.41421 11.9956 8Z" fill="#7D8198"/>
<path d="M8.00002 12C8.41424 12 8.75002 12.3358 8.75002 12.75V14.25C8.75002 14.6642 8.41424 15 8.00002 15C7.58581 15 7.25002 14.6642 7.25002 14.25V12.75C7.25002 12.3358 7.58581 12 8.00002 12Z" fill="#7D8198"/>
<path d="M11.8995 10.8231C11.6066 10.5302 11.1317 10.5302 10.8388 10.8231C10.546 11.1159 10.546 11.5908 10.8388 11.8837L11.8995 12.9444C12.1924 13.2373 12.6673 13.2373 12.9602 12.9444C13.2531 12.6515 13.2531 12.1766 12.9602 11.8837L11.8995 10.8231Z" fill="#7D8198"/>
<path d="M3.04095 3.05401C3.33385 2.76112 3.80872 2.76112 4.10161 3.05401L5.16227 4.11467C5.45517 4.40757 5.45517 4.88244 5.16227 5.17533C4.86938 5.46823 4.39451 5.46823 4.10161 5.17533L3.04095 4.11467C2.74806 3.82178 2.74806 3.3469 3.04095 3.05401Z" fill="#7D8198"/>
<path d="M12.9614 4.11456C13.2543 3.82167 13.2543 3.34679 12.9614 3.0539C12.6685 2.76101 12.1936 2.76101 11.9007 3.0539L10.8401 4.11456C10.5472 4.40745 10.5472 4.88233 10.8401 5.17522C11.133 5.46811 11.6078 5.46811 11.9007 5.17522L12.9614 4.11456Z" fill="#7D8198"/>
<path d="M5.16692 10.8308C5.45981 11.1236 5.45981 11.5985 5.16692 11.8914L4.10626 12.9521C3.81337 13.245 3.33849 13.245 3.0456 12.9521C2.75271 12.6592 2.75271 12.1843 3.0456 11.8914L4.10626 10.8308C4.39915 10.5379 4.87403 10.5379 5.16692 10.8308Z" fill="#7D8198"/>
<path fill-rule="evenodd" clip-rule="evenodd" d="M11 8C11 9.65685 9.65685 11 8 11C6.34315 11 5 9.65685 5 8C5 6.34315 6.34315 5 8 5C9.65685 5 11 6.34315 11 8ZM9.5 8C9.5 8.82843 8.82843 9.5 8 9.5C7.17157 9.5 6.5 8.82843 6.5 8C6.5 7.17157 7.17157 6.5 8 6.5C8.82843 6.5 9.5 7.17157 9.5 8Z" fill="#7D8198"/>
</svg>
