<svg width="16" height="16" viewBox="0 0 16 16" fill="none" xmlns="http://www.w3.org/2000/svg">
<path fill-rule="evenodd" clip-rule="evenodd" d="M13.2555 1C13.6698 1.0007 14.005 1.33706 14.0043 1.75127L14 4.25078C13.9993 4.6645 13.6637 4.99951 13.25 4.99951H10.75C10.3358 4.99951 10 4.66372 10 4.24951C10 3.8353 10.3358 3.49951 10.75 3.49951H11.1616C10.4488 2.99877 9.62315 2.67174 8.75103 2.55153C7.55583 2.38678 6.33961 2.61961 5.28976 3.21414C4.23991 3.80867 3.41468 4.73191 2.94121 5.84163C2.46774 6.95135 2.3723 8.18597 2.66959 9.35527C2.96689 10.5246 3.64043 11.5637 4.58643 12.3125C5.53244 13.0613 6.69842 13.4783 7.90475 13.4992C9.11107 13.5201 10.2908 13.1437 11.2622 12.4281C12.2335 11.7125 12.9427 10.6974 13.2803 9.53907C13.3962 9.1414 13.8125 8.91299 14.2102 9.0289C14.6079 9.14481 14.8363 9.56115 14.7204 9.95881C14.2907 11.433 13.3881 12.725 12.1519 13.6358C10.9156 14.5466 9.41409 15.0256 7.87877 14.999C6.34345 14.9724 4.85947 14.4417 3.65546 13.4886C2.45145 12.5356 1.59422 11.2131 1.21585 9.72489C0.837469 8.23669 0.958937 6.66536 1.56154 5.25299C2.16414 3.84061 3.21443 2.66557 4.5506 1.9089C5.88678 1.15222 7.43469 0.855898 8.95586 1.06558C10.2671 1.24633 11.4958 1.79443 12.5028 2.64041L12.5043 1.74873C12.505 1.33451 12.8413 0.999298 13.2555 1ZM6.39061 5.09172C6.63141 4.96025 6.92478 4.97076 7.15556 5.11911L10.6556 7.36909C10.8702 7.50709 11 7.74477 11 7.99997C11 8.25517 10.8702 8.49286 10.6556 8.63086L7.15557 10.8809C6.92479 11.0292 6.63142 11.0398 6.39061 10.9083C6.1498 10.7768 6 10.5244 6 10.25V5.75C6 5.47565 6.1498 5.22319 6.39061 5.09172ZM7.5 7.12374V8.87624L8.86306 7.99998L7.5 7.12374Z" fill="#7D8198"/>
</svg>
