<svg width="16" height="16" viewBox="0 0 16 16" fill="none" xmlns="http://www.w3.org/2000/svg">
<path d="M2 12.2501V3.75006C2 2.78356 2.7835 2.00006 3.75 2.00006H7.25C7.66421 2.00006 8 2.33585 8 2.75006C8 3.16427 7.66421 3.50006 7.25 3.50006H3.75C3.61193 3.50006 3.5 3.61199 3.5 3.75006V12.2501C3.5 12.3881 3.61193 12.5001 3.75 12.5001H12.25C12.3881 12.5001 12.5 12.3881 12.5 12.2501V8.75006C12.5 8.33585 12.8358 8.00006 13.25 8.00006C13.6642 8.00006 14 8.33585 14 8.75006V12.2501C14 13.2166 13.2165 14.0001 12.25 14.0001H3.75C2.7835 14.0001 2 13.2166 2 12.2501Z" fill="#7D8198"/>
<path fill-rule="evenodd" clip-rule="evenodd" d="M13.197 1.14553C13.5587 0.784782 14.1644 1.13438 14.033 1.62796L13.821 2.42385C13.6605 3.02644 13.8328 3.66986 14.2732 4.11135L14.8542 4.69339C15.215 5.05503 14.8654 5.66166 14.3718 5.5303L13.5759 5.31741C12.9734 5.15688 12.3299 5.33012 11.8884 5.77053L11.3064 6.35159C10.9447 6.71243 10.3378 6.36186 10.4695 5.86819L10.6814 5.07327C10.8421 4.47061 10.6698 3.82733 10.2292 3.38577L9.64819 2.80276C9.28762 2.44104 9.638 1.8352 10.1316 1.96682L10.9265 2.17874C11.5292 2.33945 12.1725 2.1671 12.614 1.72659L13.197 1.14553Z" fill="#7D8198"/>
<path fill-rule="evenodd" clip-rule="evenodd" d="M8.26356 6.57701C8.55886 6.36902 8.97527 6.60939 8.9424 6.96922L8.92826 7.04842L8.78117 7.59903C8.71471 7.84833 8.7866 8.11403 8.9688 8.29672L9.37139 8.70213C9.68424 9.01638 9.38043 9.54207 8.95183 9.4281L8.40027 9.28102C8.15105 9.21459 7.88525 9.28566 7.70257 9.4677L7.29809 9.87123C6.98388 10.1842 6.4573 9.88027 6.57116 9.45167L6.71824 8.90012C6.78469 8.6508 6.71381 8.38417 6.53156 8.20149L6.12897 7.79796C5.81544 7.48369 6.11959 6.95763 6.54853 7.07199L7.09915 7.21813C7.34851 7.28463 7.61509 7.21277 7.79779 7.03051L8.20133 6.62887L8.26356 6.57701Z" fill="#7D8198"/>
</svg>
