<svg width="16" height="16" viewBox="0 0 16 16" fill="none" xmlns="http://www.w3.org/2000/svg">
<path fill-rule="evenodd" clip-rule="evenodd" d="M9.82279 3.2699C9.55735 2.95191 9.08439 2.9093 8.76641 3.17473L7.26453 4.42838C7.09351 4.57113 6.99481 4.78253 6.99515 5.0053C6.99549 5.22807 7.09484 5.43916 7.2663 5.58139L8.76817 6.82725C9.08697 7.09171 9.5598 7.04766 9.82426 6.72886C9.94555 6.58264 10.0019 6.40402 9.9967 6.22796C10.8975 6.82097 11.5 7.80871 11.5 8.9C11.5 10.8424 9.78832 12.5 7.99999 12.5C6.228 12.5 4.5 10.8591 4.5 8.75C4.5 8.33578 4.16421 8 3.75 8C3.33579 8 3 8.33578 3 8.75C3 11.6409 5.3537 14 7.99999 14C10.6299 14 13 11.6576 13 8.9C13 6.77647 11.5233 5.02867 9.63708 4.40186L9.72763 4.32628C10.0456 4.06084 10.0882 3.58789 9.82279 3.2699ZM6.82548 3.26954C6.55985 2.95172 6.08686 2.9094 5.76904 3.17503L4.26904 4.42867C4.09823 4.57143 3.99966 4.78269 4 5.0053C4.00034 5.22791 4.09955 5.43886 4.2708 5.5811L5.7708 6.82696C6.08944 7.09161 6.56229 7.04785 6.82695 6.72921C7.0916 6.41057 7.04784 5.93772 6.7292 5.67307L5.92167 5.00236L6.73096 4.32598C7.04879 4.06035 7.09111 3.58737 6.82548 3.26954Z" fill="#7D8198"/>
</svg>
