<svg width="16" height="16" viewBox="0 0 16 16" fill="none" xmlns="http://www.w3.org/2000/svg">
<path d="M7.47941 6.74808C7.35569 7.14339 6.93493 7.36355 6.53963 7.23983C6.42027 7.20247 6.2938 7.19374 6.17045 7.21433C6.04709 7.23493 5.93032 7.28427 5.82957 7.35837C5.72883 7.43248 5.64694 7.52925 5.59054 7.64088C5.53414 7.7525 5.50481 7.87583 5.50492 8.0009C5.50503 8.12596 5.53458 8.24924 5.59118 8.36076C5.64778 8.47228 5.72984 8.56891 5.83071 8.64284C5.93159 8.71676 6.04845 8.7659 6.17184 8.78627C6.29524 8.80665 6.42169 8.79769 6.54098 8.76013C6.93606 8.6357 7.35721 8.85512 7.48163 9.2502C7.60605 9.64529 7.38664 10.0664 6.99155 10.1909C6.64769 10.2991 6.28315 10.325 5.92745 10.2662C5.57175 10.2075 5.23488 10.0658 4.94408 9.85275C4.65329 9.63965 4.41674 9.36109 4.25358 9.03961C4.09043 8.71812 4.00524 8.36274 4.00492 8.00223C4.0046 7.64171 4.08915 7.28618 4.25174 6.96441C4.41433 6.64263 4.65038 6.36365 4.94079 6.15004C5.23121 5.93643 5.56784 5.79418 5.92343 5.73481C6.27903 5.67544 6.6436 5.70062 6.98766 5.8083C7.38297 5.93202 7.60313 6.35278 7.47941 6.74808Z" fill="#7D8198"/>
<path d="M11.0296 7.23983C11.4249 7.36355 11.8457 7.14339 11.9694 6.74808C12.0931 6.35278 11.873 5.93202 11.4777 5.8083C11.1336 5.70062 10.769 5.67544 10.4134 5.73481C10.0578 5.79418 9.7212 5.93643 9.43079 6.15004C9.14037 6.36365 8.90432 6.64263 8.74173 6.96441C8.57914 7.28618 8.49459 7.64171 8.49491 8.00223C8.49523 8.36274 8.58042 8.71812 8.74357 9.03961C8.90673 9.36109 9.14328 9.63965 9.43407 9.85275C9.72487 10.0658 10.0617 10.2075 10.4174 10.2662C10.7731 10.325 11.1377 10.2991 11.4815 10.1909C11.8766 10.0664 12.096 9.64529 11.9716 9.2502C11.8472 8.85512 11.4261 8.6357 11.031 8.76013C10.9117 8.79769 10.7852 8.80665 10.6618 8.78627C10.5384 8.7659 10.4216 8.71676 10.3207 8.64284C10.2198 8.56891 10.1378 8.47228 10.0812 8.36076C10.0246 8.24924 9.99502 8.12596 9.99491 8.0009C9.9948 7.87583 10.0241 7.7525 10.0805 7.64088C10.1369 7.52925 10.2188 7.43248 10.3196 7.35837C10.4203 7.28427 10.5371 7.23493 10.6604 7.21433C10.7838 7.19374 10.9103 7.20247 11.0296 7.23983Z" fill="#7D8198"/>
<path fill-rule="evenodd" clip-rule="evenodd" d="M1 3.75C1 2.7835 1.7835 2 2.75 2H13.25C14.2165 2 15 2.7835 15 3.75V12.2538C15 13.2203 14.2165 14.0038 13.25 14.0038H2.75C1.7835 14.0038 1 13.2203 1 12.2538V3.75ZM2.75 3.5C2.61193 3.5 2.5 3.61193 2.5 3.75V12.2538C2.5 12.3919 2.61193 12.5038 2.75 12.5038H13.25C13.3881 12.5038 13.5 12.3919 13.5 12.2538V3.75C13.5 3.61193 13.3881 3.5 13.25 3.5H2.75Z" fill="#7D8198"/>
</svg>
