<svg width="16" height="16" viewBox="0 0 16 16" fill="none" xmlns="http://www.w3.org/2000/svg">
<path fill-rule="evenodd" clip-rule="evenodd" d="M3.75 2.00012C2.7835 2.00012 2 2.78362 2 3.75012V12.2501C2 13.2166 2.7835 14.0001 3.75 14.0001H6.25C6.66421 14.0001 7 13.6643 7 13.2501C7 12.8359 6.66421 12.5001 6.25 12.5001H6V3.50012H10V4.5C10 4.77614 10.2239 5 10.5 5C10.7761 5 11 4.77614 11 4.5V3.50012H12.25C12.3881 3.50012 12.5 3.61205 12.5 3.75012V4.25C12.5 4.66421 12.8358 5 13.25 5C13.6642 5 14 4.66421 14 4.25V3.75012C14 2.78362 13.2165 2.00012 12.25 2.00012H3.75ZM5 3.50012V6H3.5V3.75012C3.5 3.61205 3.61193 3.50012 3.75 3.50012H5ZM3.5 7H5V9H3.5V7ZM3.5 10V12.2501C3.5 12.3882 3.61193 12.5001 3.75 12.5001H5V10H3.5Z" fill="#7D8198"/>
<path fill-rule="evenodd" clip-rule="evenodd" d="M10 8.89317V9.99951C9.44772 9.99951 9 10.4472 9 10.9995V13.9995C9 14.5518 9.44772 14.9995 10 14.9995H14C14.5523 14.9995 15 14.5518 15 13.9995V10.9995C15 10.4472 14.5523 9.99951 14 9.99951V8.89317C14 8.63721 13.9453 8.38513 13.8405 8.15181C13.7358 7.91865 13.5838 7.71024 13.396 7.53701C13.2083 7.36388 12.9881 7.22895 12.7492 7.13769C12.5104 7.04644 12.2559 7 12 7C11.7441 7 11.4896 7.04644 11.2508 7.13769C11.0119 7.22895 10.7917 7.36388 10.604 7.53701C10.4162 7.71024 10.2642 7.91865 10.1595 8.15181C10.0547 8.38513 10 8.63721 10 8.89317ZM12 8.25C11.8948 8.25 11.7917 8.26916 11.6969 8.30538C11.6021 8.34158 11.5191 8.39348 11.4515 8.45587C11.3839 8.51816 11.3333 8.58935 11.2998 8.66392C11.2664 8.73832 11.25 8.81606 11.25 8.89317V9.99951H12.75V8.89317C12.75 8.81606 12.7336 8.73832 12.7002 8.66392C12.6667 8.58935 12.6161 8.51816 12.5485 8.45587C12.4809 8.39348 12.3979 8.34158 12.3031 8.30538C12.2083 8.26916 12.1052 8.25 12 8.25Z" fill="#7D8198"/>
</svg>
