<svg width="16" height="16" viewBox="0 0 16 16" fill="none" xmlns="http://www.w3.org/2000/svg">
<path d="M3 3.75C3 3.33579 3.33579 3 3.75 3H12.25C12.6642 3 13 3.33579 13 3.75C13 4.16421 12.6642 4.5 12.25 4.5H3.75C3.33579 4.5 3 4.16421 3 3.75Z" fill="#7D8198"/>
<path d="M5 11.75C5 11.3358 5.33579 11 5.75 11H12.25C12.6642 11 13 11.3358 13 11.75C13 12.1642 12.6642 12.5 12.25 12.5H5.75C5.33579 12.5 5 12.1642 5 11.75Z" fill="#7D8198"/>
<path d="M1.75 7C1.33579 7 1 7.33579 1 7.75C1 8.16421 1.33579 8.5 1.75 8.5H12.25C12.6642 8.5 13 8.16421 13 7.75C13 7.33579 12.6642 7 12.25 7H1.75Z" fill="#7D8198"/>
</svg>
