<svg width="16" height="16" viewBox="0 0 16 16" fill="none" xmlns="http://www.w3.org/2000/svg">
<path d="M4.49792 1.75293C4.49792 1.33872 4.16214 1.00293 3.74792 1.00293C3.33371 1.00293 2.99792 1.33872 2.99792 1.75293V4.25C2.99792 5.2165 3.78143 6 4.74792 6H11.2471C12.2136 6 12.9971 5.2165 12.9971 4.25V1.75293C12.9971 1.33872 12.6613 1.00293 12.2471 1.00293C11.8329 1.00293 11.4971 1.33872 11.4971 1.75293V4.25C11.4971 4.38807 11.3851 4.5 11.2471 4.5H4.74792C4.60985 4.5 4.49792 4.38807 4.49792 4.25V1.75293Z" fill="#7D8198"/>
<path fill-rule="evenodd" clip-rule="evenodd" d="M3 9.75C3 8.7835 3.7835 8 4.75 8H8.58579C9.04992 8 9.49503 8.18437 9.82322 8.51256L12.4874 11.1768C12.8156 11.505 13 11.9501 13 12.4142V14.2513C13 14.6655 12.6642 15.0013 12.25 15.0013C11.8358 15.0013 11.5 14.6655 11.5 14.2513V13.5H9.75C8.7835 13.5 8 12.7165 8 11.75V9.5H4.75C4.61193 9.5 4.5 9.61193 4.5 9.75V14.2513C4.5 14.6655 4.16421 15.0013 3.75 15.0013C3.33579 15.0013 3 14.6655 3 14.2513V9.75ZM9.5 10.3107L11.1893 12H9.75C9.61193 12 9.5 11.8881 9.5 11.75V10.3107Z" fill="#7D8198"/>
</svg>
