<svg width="16" height="16" viewBox="0 0 16 16" fill="none" xmlns="http://www.w3.org/2000/svg">
<path d="M2.99792 2.74856C2.99792 2.33514 3.33301 2 3.74636 2H10.7318V3.49712L3.74636 3.49712C3.33301 3.49712 2.99792 3.16198 2.99792 2.74856Z" fill="#7D8198"/>
<path d="M10.7318 6.9904L5.24324 6.9904C4.81733 6.9904 4.3956 7.07431 4.00211 7.23732C3.60862 7.40033 3.25109 7.63927 2.94992 7.94048C2.64876 8.24169 2.40987 8.59928 2.24688 8.99283C2.08389 9.38638 2 9.80819 2 10.2342C2 10.6601 2.08389 11.0819 2.24688 11.4755C2.40987 11.8691 2.64876 12.2266 2.94992 12.5279C3.25109 12.8291 3.60862 13.068 4.00211 13.231C4.3956 13.394 4.81733 13.4779 5.24324 13.4779H11.3844L11.1829 13.6795C10.8808 13.9816 10.8808 14.4714 11.1829 14.7734C11.4849 15.0755 11.9746 15.0755 12.2766 14.7734L13.7735 13.2763C14.0755 12.9742 14.0755 12.4845 13.7735 12.1824L12.2766 10.6853C11.9746 10.3832 11.4849 10.3832 11.1829 10.6853C10.8808 10.9873 10.8808 11.4771 11.1829 11.7792L11.3844 11.9808H5.24324C5.01391 11.9808 4.78682 11.9356 4.57494 11.8479C4.36306 11.7601 4.17054 11.6314 4.00838 11.4692C3.84621 11.307 3.71758 11.1145 3.62982 10.9026C3.54205 10.6907 3.49688 10.4635 3.49688 10.2342C3.49688 10.0048 3.54205 9.77767 3.62982 9.56575C3.71758 9.35384 3.84621 9.16129 4.00838 8.9991C4.17054 8.83691 4.36306 8.70826 4.57494 8.62048C4.78682 8.5327 5.01391 8.48752 5.24324 8.48752L10.7318 8.48753L10.7342 8.48752C11.1593 8.48721 11.5802 8.40331 11.973 8.24061C12.3664 8.07759 12.724 7.83866 13.0251 7.53745C13.3263 7.23624 13.5652 6.87865 13.7282 6.4851C13.8912 6.09154 13.9751 5.66974 13.9751 5.24376C13.9751 4.81779 13.8912 4.39598 13.7282 4.00243C13.5652 3.60888 13.3263 3.25129 13.0251 2.95008C12.724 2.64886 12.3664 2.40993 11.973 2.24692C11.5795 2.0839 11.1577 2 10.7318 2V3.49712C10.9611 3.49712 11.1882 3.5423 11.4001 3.63008C11.612 3.71785 11.8045 3.84651 11.9667 4.0087C12.1289 4.17089 12.2575 4.36344 12.3453 4.57535C12.433 4.78726 12.4782 5.01439 12.4782 5.24376C12.4782 5.47313 12.433 5.70026 12.3453 5.91217C12.2575 6.12409 12.1289 6.31663 11.9667 6.47882C11.8045 6.64101 11.612 6.76967 11.4001 6.85745C11.1882 6.94523 10.9611 6.9904 10.7318 6.9904Z" fill="#7D8198"/>
</svg>
