<svg width="16" height="16" viewBox="0 0 16 16" fill="none" xmlns="http://www.w3.org/2000/svg">
<path fill-rule="evenodd" clip-rule="evenodd" d="M9.91437 1.28148C10.0567 1.10357 10.2722 1 10.5 1H12.25C12.6642 1 13 1.33579 13 1.75C13 2.16421 12.6642 2.5 12.25 2.5H10.8605L10.6591 2.75175C10.9967 2.95923 11.3097 3.206 11.5912 3.48752C12.0628 3.95912 12.4369 4.519 12.6921 5.13517C12.82 5.44388 12.9111 5.79146 12.9724 6.12702C13.1118 6.89059 12.7065 7.50456 12.1341 7.80608L10.917 12.6761C10.7222 13.4552 10.0223 14.0018 9.21919 14.0018H6.78085C5.97779 14.0018 5.27779 13.4552 5.08307 12.6761L3.86594 7.80611C3.2935 7.5046 2.88817 6.89061 3.02762 6.12702C3.08891 5.79145 3.18002 5.44388 3.30789 5.13517C3.56312 4.519 3.93721 3.95912 4.40881 3.48752C4.88041 3.01592 5.44029 2.64182 6.05647 2.38659C6.67264 2.13136 7.33306 2 8 2C8.4123 2 8.82209 2.0502 9.22049 2.14883L9.91437 1.28148ZM5.46274 8.00879L6.53831 12.3124C6.56613 12.4237 6.66613 12.5018 6.78085 12.5018H9.21919C9.33391 12.5018 9.43391 12.4237 9.46173 12.3124L10.5373 8.00879H5.46274ZM6.63133 3.77444C7.06526 3.59471 7.53033 3.5022 8 3.5022C8.46968 3.5022 8.93475 3.59471 9.36868 3.77444C9.8026 3.95418 10.1969 4.21762 10.529 4.54973C10.8611 4.88184 11.1245 5.27612 11.3043 5.71004C11.3799 5.89266 11.4461 6.13129 11.4946 6.39689C11.4975 6.41285 11.4955 6.41981 11.4946 6.42275C11.4932 6.42719 11.4891 6.43675 11.4773 6.44934C11.4518 6.47648 11.3994 6.50659 11.3262 6.50659H4.67384C4.60062 6.50659 4.54821 6.47648 4.52269 6.44934C4.51085 6.43676 4.50678 6.42719 4.50539 6.42276C4.50447 6.41982 4.50246 6.41286 4.50538 6.3969C4.55389 6.13131 4.62009 5.89267 4.69574 5.71004C4.87547 5.27612 5.13892 4.88184 5.47103 4.54973C5.80314 4.21762 6.19741 3.95418 6.63133 3.77444Z" fill="#7D8198"/>
</svg>
