<svg width="16" height="16" viewBox="0 0 16 16" fill="none" xmlns="http://www.w3.org/2000/svg">
<path d="M2.75 1C1.7835 1 1 1.7835 1 2.75V3.25C1 3.66421 1.33579 4 1.75 4C2.16421 4 2.5 3.66421 2.5 3.25V2.75C2.5 2.61193 2.61193 2.5 2.75 2.5H3.25377C3.66798 2.5 4.00377 2.16421 4.00377 1.75C4.00377 1.33579 3.66798 1 3.25377 1H2.75Z" fill="#7D8198"/>
<path d="M14.9976 2.75C14.9976 1.7835 14.2141 1 13.2476 1H12.7476C12.3333 1 11.9976 1.33579 11.9976 1.75C11.9976 2.16421 12.3333 2.5 12.7476 2.5H13.2476C13.3856 2.5 13.4976 2.61193 13.4976 2.75V3.25377C13.4976 3.66798 13.8333 4.00377 14.2476 4.00377C14.6618 4.00377 14.9976 3.66798 14.9976 3.25377V2.75Z" fill="#7D8198"/>
<path d="M15.0013 13.25C15.0013 14.2165 14.2178 15 13.2513 15H12.7476C12.3334 15 11.9976 14.6642 11.9976 14.25C11.9976 13.8358 12.3334 13.5 12.7476 13.5H13.2513C13.3894 13.5 13.5013 13.3881 13.5013 13.25V12.75C13.5013 12.3358 13.8371 12 14.2513 12C14.6656 12 15.0013 12.3358 15.0013 12.75V13.25Z" fill="#7D8198"/>
<path d="M1.00378 13.25C1.00378 14.2165 1.78729 15 2.75378 15H3.25378C3.668 15 4.00378 14.6642 4.00378 14.25C4.00378 13.8358 3.668 13.5 3.25378 13.5H2.75378C2.61571 13.5 2.50378 13.3881 2.50378 13.25L2.50378 12.7462C2.50378 12.332 2.168 11.9962 1.75378 11.9962C1.33957 11.9962 1.00378 12.332 1.00378 12.7462L1.00378 13.25Z" fill="#7D8198"/>
<path fill-rule="evenodd" clip-rule="evenodd" d="M8.00472 3C8.33593 3.00018 8.62781 3.21758 8.72281 3.53487L10.9685 11.0349C11.0873 11.4317 10.8619 11.8497 10.4651 11.9685C10.0683 12.0873 9.65033 11.862 9.53152 11.4652L9.09285 10.0001H6.90884L6.46826 11.4659C6.34902 11.8626 5.93079 12.0875 5.53411 11.9683C5.13743 11.8491 4.91251 11.4308 5.03174 11.0342L7.28607 3.53411C7.38141 3.21692 7.67352 2.99982 8.00472 3ZM7.35971 8.50012H8.64371L8.00294 6.36009L7.35971 8.50012Z" fill="#7D8198"/>
</svg>
