<svg width="16" height="16" viewBox="0 0 16 16" fill="none" xmlns="http://www.w3.org/2000/svg">
<path d="M5.75 6.75C5.33579 6.75 5 7.08579 5 7.5C5 7.91421 5.33579 8.25 5.75 8.25H9.25C9.66421 8.25 10 7.91421 10 7.5C10 7.08579 9.66421 6.75 9.25 6.75H5.75Z" fill="#7D8198"/>
<path fill-rule="evenodd" clip-rule="evenodd" d="M13 7.5C13 8.74835 12.5841 9.89957 11.8833 10.8226L13.7803 12.7197C14.0732 13.0126 14.0732 13.4874 13.7803 13.7803C13.4874 14.0732 13.0126 14.0732 12.7197 13.7803L10.8226 11.8833C9.89957 12.5841 8.74835 13 7.5 13C4.46243 13 2 10.5376 2 7.5C2 4.46243 4.46243 2 7.5 2C10.5376 2 13 4.46243 13 7.5ZM7.5 11.5C9.70914 11.5 11.5 9.70914 11.5 7.5C11.5 5.29086 9.70914 3.5 7.5 3.5C5.29086 3.5 3.5 5.29086 3.5 7.5C3.5 9.70914 5.29086 11.5 7.5 11.5Z" fill="#7D8198"/>
</svg>
