<svg width="16" height="16" viewBox="0 0 16 16" fill="none" xmlns="http://www.w3.org/2000/svg">
<path fill-rule="evenodd" clip-rule="evenodd" d="M11.5004 4.75193C11.5004 4.55838 11.2899 4.43824 11.1232 4.53668L5.62433 7.78458C5.46052 7.88133 5.46052 8.11833 5.62433 8.21509L11.1232 11.4631C11.2899 11.5615 11.5004 11.4414 11.5004 11.2478V4.75193ZM10.3604 3.24514C11.527 2.5561 13.0004 3.39706 13.0004 4.75193V11.2478C13.0004 12.6027 11.5269 13.4436 10.3604 12.7546L4.86147 9.50662C4.72466 9.42581 4.60417 9.33102 4.5 9.2256L4.5 12.2499C4.5 12.6641 4.16421 12.9999 3.75 12.9999C3.33579 12.9999 3 12.6641 3 12.2499V3.74988C3 3.33567 3.33579 2.99988 3.75 2.99988C4.16421 2.99988 4.5 3.33567 4.5 3.74988V6.77407C4.60417 6.66864 4.72467 6.57385 4.86149 6.49304L10.3604 3.24514Z" fill="#7D8198"/>
</svg>
