<svg width="16" height="16" viewBox="0 0 16 16" fill="none" xmlns="http://www.w3.org/2000/svg">
<path d="M4 6.75C4 6.33579 4.33579 6 4.75 6H6.25C6.66421 6 7 6.33579 7 6.75C7 7.16421 6.66421 7.5 6.25 7.5H5.5V8.2504C5.5 8.66461 5.16421 9.0004 4.75 9.0004C4.33579 9.0004 4 8.66461 4 8.2504V6.75Z" fill="#7D8198"/>
<path d="M12 7.74561C12 7.33139 11.6642 6.99561 11.25 6.99561C10.8358 6.99561 10.5 7.33139 10.5 7.74561V8.5H9.75C9.33579 8.5 9 8.83579 9 9.25C9 9.66421 9.33579 10 9.75 10H11.25C11.6642 10 12 9.66421 12 9.25V7.74561Z" fill="#7D8198"/>
<path fill-rule="evenodd" clip-rule="evenodd" d="M1 4.75012C1 3.78362 1.7835 3.00012 2.75 3.00012H13.25C14.2165 3.00012 15 3.78362 15 4.75012V11.2539C15 12.2204 14.2165 13.0039 13.25 13.0039H2.75C1.7835 13.0039 1 12.2204 1 11.2539V4.75012ZM2.75 4.50012C2.61193 4.50012 2.5 4.61205 2.5 4.75012V11.2539C2.5 11.392 2.61193 11.5039 2.75 11.5039H13.25C13.3881 11.5039 13.5 11.392 13.5 11.2539V4.75012C13.5 4.61205 13.3881 4.50012 13.25 4.50012H2.75Z" fill="#7D8198"/>
</svg>
