<svg width="16" height="16" viewBox="0 0 16 16" fill="none" xmlns="http://www.w3.org/2000/svg">
<path fill-rule="evenodd" clip-rule="evenodd" d="M6.5 3.99756C6.5 3.16917 7.17161 2.49756 8 2.49756C8.82839 2.49756 9.5 3.16917 9.5 3.99756V4.00049H6.5V3.99756ZM5 5.50049V7.24998C5 7.66419 5.33579 8 5.75 8C6.16421 8 6.5 7.66339 6.5 7.24918V5.50049H9.5V7.24997C9.5 7.66418 9.83579 8 10.25 8C10.6642 8 11 7.66418 11 7.24997V5.50049H12.5V12.25C12.5 12.9404 11.9404 13.5 11.25 13.5H4.75001C4.05966 13.5 3.50001 12.9404 3.50001 12.25V5.50049H5ZM5 4.00049V3.99756C5 2.34074 6.34319 0.997559 8 0.997559C9.65681 0.997559 11 2.34074 11 3.99756V4.00049H12.75C13.4404 4.00049 14 4.56013 14 5.25049V12.25C14 13.7688 12.7688 15 11.25 15H4.75001C3.23123 15 2.00001 13.7688 2.00001 12.25V5.25049C2.00001 4.56013 2.55966 4.00049 3.25001 4.00049H5Z" fill="#7D8198"/>
</svg>
