<svg width="16" height="16" viewBox="0 0 16 16" fill="none" xmlns="http://www.w3.org/2000/svg">
<path d="M14.7783 1.21766C14.9202 1.35702 15 1.54605 15 1.74315L15 5.24549C15 5.65592 14.6611 5.98865 14.2431 5.98865C13.8251 5.98865 13.4862 5.65593 13.4862 5.2455L13.4862 3.56423L9.28783 7.76712C8.99513 8.06015 8.51591 8.06471 8.21746 7.77733C7.91901 7.48994 7.91436 7.01942 8.20707 6.7264L12.4425 2.48634L10.7464 2.48638C10.3284 2.48638 9.98953 2.15367 9.98952 1.74324C9.98951 1.33281 10.3284 1.00008 10.7464 1.00007L14.2431 1C14.4438 0.999996 14.6363 1.07829 14.7783 1.21766Z" fill="#7D8198"/>
<path d="M4.49932 4.74528C4.49932 4.60712 4.6112 4.49512 4.74921 4.49512H7.24808C7.66211 4.49512 7.99775 4.15913 7.99775 3.74465C7.99775 3.33018 7.66211 2.99418 7.24808 2.99418H4.74921C3.78315 2.99418 3 3.77818 3 4.74528V11.2489C3 12.216 3.78316 13 4.74924 13L11.2463 12.9999C12.2124 12.9999 12.9955 12.2159 12.9955 11.2488V8.74781C12.9955 8.33333 12.6599 7.99733 12.2458 7.99733C11.8318 7.99733 11.4962 8.33333 11.4962 8.74781V11.2488C11.4962 11.387 11.3843 11.499 11.2463 11.499L4.74921 11.4991C4.6112 11.4991 4.49932 11.3871 4.49932 11.2489V4.74528Z" fill="#7D8198"/>
</svg>
