<svg width="16" height="16" viewBox="0 0 16 16" fill="none" xmlns="http://www.w3.org/2000/svg">
<path d="M12.25 7.99942C12.664 7.99942 12.9997 8.33551 13 8.74942V10.2524C13 11.7711 11.7688 13.0024 10.25 13.0024H5.88672L6.71973 13.6693C7.04288 13.9283 7.09481 14.3998 6.83594 14.7231C6.57697 15.0462 6.10548 15.0982 5.78223 14.8393L3.28223 12.8373L3.21875 12.7807C3.08023 12.6411 3.00106 12.4513 3.00098 12.2524C3.00108 12.0247 3.10453 11.8087 3.28223 11.6664L5.78223 9.66544C6.10549 9.40667 6.578 9.45857 6.83691 9.78165C7.09577 10.105 7.04308 10.5775 6.71973 10.8363L5.8877 11.5024H10.25C10.9404 11.5024 11.5 10.9427 11.5 10.2524V8.74942C11.5003 8.33551 11.836 7.99942 12.25 7.99942Z" fill="#7D8198"/>
<path d="M9.16504 1.28165C9.424 0.958483 9.8955 0.906544 10.2188 1.16544L12.7188 3.16739L12.7822 3.22403C12.9208 3.36361 12.9999 3.55342 13 3.75235C12.9998 3.97992 12.8964 4.19607 12.7188 4.33829L10.2188 6.33927C9.89549 6.59785 9.42292 6.54608 9.16406 6.22306C8.90526 5.89976 8.95807 5.42726 9.28125 5.16837L10.1162 4.5004H5.75C5.05964 4.5004 4.5 5.06004 4.5 5.7504V7.2504C4.49982 7.66446 4.1641 8.0004 3.75 8.0004C3.3359 8.0004 3.00018 7.66446 3 7.2504V5.7504C3 4.23162 4.23122 3.0004 5.75 3.0004H10.1113L9.28125 2.33536C8.95817 2.07647 8.90638 1.6049 9.16504 1.28165Z" fill="#7D8198"/>
</svg>
