<svg width="16" height="16" viewBox="0 0 16 16" fill="none" xmlns="http://www.w3.org/2000/svg">
<path d="M7.60233 4.0401C7.92623 3.97446 8.26134 3.99009 8.57772 4.08559C8.89411 4.18109 9.1819 4.35349 9.41538 4.58739C9.64885 4.82128 9.82074 5.10938 9.91568 5.42593C10.0106 5.74248 10.0257 6.07763 9.95943 6.40141C9.87643 6.80722 9.48017 7.06891 9.07435 6.98591C8.66854 6.90291 8.40685 6.50665 8.48985 6.10083C8.50642 6.01985 8.50266 5.93602 8.47891 5.85684C8.45516 5.77767 8.41217 5.70561 8.35377 5.6471C8.29537 5.5886 8.22339 5.54548 8.14425 5.52159C8.06512 5.4977 7.9813 5.49379 7.90028 5.51021C7.49432 5.59249 7.09853 5.3301 7.01625 4.92414C6.93398 4.51818 7.19637 4.12238 7.60233 4.0401Z" fill="#7D8198"/>
<path fill-rule="evenodd" clip-rule="evenodd" d="M3 5.64386C3 2.95247 5.56672 1 8 1C10.4333 1 13 2.95247 13 5.64386C13 7.05402 12.3759 7.96692 11.7786 8.56037C11.5483 8.78918 11.3098 8.98109 11.1419 9.11612C11.1035 9.14703 11.0688 9.17497 11.0387 9.19968L11 9.23187V9.75C11 10.7165 10.2165 11.5 9.25 11.5H6.75C5.7835 11.5 5 10.7165 5 9.75V9.23187L4.96125 9.19968C4.93121 9.17498 4.89651 9.14707 4.85812 9.11617C4.6903 8.98114 4.45174 8.78919 4.22141 8.56037C3.62406 7.96692 3 7.05402 3 5.64386ZM5.10039 9.32262C5.1068 9.32992 5.1043 9.32843 5.09682 9.31873L5.10039 9.32262ZM10.8996 9.32262L10.9032 9.31873C10.8957 9.32843 10.8932 9.32992 10.8996 9.32262ZM8 2.5C6.20414 2.5 4.5 3.9598 4.5 5.64386C4.5 6.54473 4.87594 7.09622 5.27859 7.49624C5.44758 7.66412 5.60907 7.7944 5.77317 7.92678C5.81973 7.96435 5.86653 8.0021 5.91375 8.04091C6.00753 8.118 6.12862 8.22021 6.22773 8.33313C6.3105 8.42743 6.5 8.66163 6.5 9V9.75C6.5 9.88807 6.61193 10 6.75 10H9.25C9.38807 10 9.5 9.88807 9.5 9.75V9C9.5 8.66163 9.6895 8.42743 9.77227 8.33313C9.87138 8.22021 9.99247 8.118 10.0863 8.04091C10.1334 8.00213 10.1802 7.96444 10.2267 7.92691C10.3908 7.79453 10.5524 7.66412 10.7214 7.49624C11.1241 7.09622 11.5 6.54473 11.5 5.64386C11.5 3.9598 9.79586 2.5 8 2.5Z" fill="#7D8198"/>
<path d="M9.50002 13C9.77616 13 10.0062 13.2273 9.93785 13.4948C9.84974 13.8398 9.67029 14.1582 9.41424 14.4142C9.03916 14.7893 8.53045 15 8.00002 15C7.46959 15 6.96088 14.7893 6.58581 14.4142C6.32976 14.1582 6.1503 13.8398 6.06219 13.4948C5.99387 13.2273 6.22388 13 6.50002 13H9.50002Z" fill="#7D8198"/>
</svg>
