<svg width="16" height="16" viewBox="0 0 16 16" fill="none" xmlns="http://www.w3.org/2000/svg">
<path d="M9.37846 1.14201C7.74833 0.810049 6.05306 1.06642 4.59489 1.8654C3.13668 2.6644 2.01005 3.95429 1.41639 5.50541C1.26838 5.89211 1.46207 6.3258 1.849 6.47408C2.23594 6.62235 2.66959 6.42907 2.81759 6.04237C3.28405 4.82362 4.16961 3.8093 5.31676 3.18074C6.46394 2.55216 7.79776 2.35046 9.08017 2.61161C9.48617 2.69429 9.88207 2.43234 9.96445 2.02652C10.0468 1.6207 9.78446 1.22469 9.37846 1.14201Z" fill="#7D8198"/>
<path d="M12.3919 2.56071C12.0695 2.30035 11.5972 2.35039 11.337 2.67248C11.0769 2.99457 11.1273 3.46673 11.4497 3.72709C12.2348 4.36114 12.8302 5.1978 13.1712 6.14579C13.5121 7.09377 13.5857 8.11693 13.3837 9.10382C13.3007 9.50951 13.5624 9.90593 13.9683 9.98925C14.3742 10.0726 14.7705 9.81124 14.8535 9.40555C15.1106 8.14917 15.017 6.84642 14.5828 5.63935C14.1487 4.43228 13.3908 3.36742 12.3919 2.56071Z" fill="#7D8198"/>
<path d="M1.65984 8.01102C2.0711 7.96147 2.44493 8.25464 2.49483 8.66582C2.58981 9.44862 2.8524 10.202 3.26485 10.8748C3.48139 11.228 3.37062 11.6897 3.01745 11.9059C2.66428 12.122 2.20243 12.0109 1.98589 11.6577C1.46084 10.8012 1.12649 9.84201 1.00554 8.84524C0.955642 8.43406 1.24858 8.06056 1.65984 8.01102Z" fill="#7D8198"/>
<path d="M8.60614 7.42633C8.42294 7.05472 7.97321 6.90171 7.60165 7.08456C7.23009 7.26741 7.0774 7.71688 7.2606 8.08849C7.50157 8.57726 7.61088 8.95734 7.71688 9.42063C7.80927 9.82443 8.21154 10.0772 8.61538 9.98513C9.01922 9.8931 9.2717 9.49115 9.17931 9.08735C9.05831 8.55849 8.91679 8.05644 8.60614 7.42633Z" fill="#7D8198"/>
<path d="M8.53992 11.5227C8.94543 11.6078 9.20546 12.0053 9.12072 12.4106C8.93776 13.2857 8.71658 13.9404 8.44293 14.555C8.27451 14.9332 7.83115 15.1031 7.45266 14.9344C7.07417 14.7657 6.90387 14.3224 7.07229 13.9441C7.30126 13.4299 7.49033 12.877 7.65223 12.1026C7.73698 11.6973 8.13441 11.4377 8.53992 11.5227Z" fill="#7D8198"/>
<path d="M8.24131 4.00907C6.52095 3.8971 5.16514 4.90514 4.61136 5.83145C4.15734 6.59088 3.81764 7.86394 4.46105 9.73231C4.89921 11.0047 4.65225 11.9985 4.12327 13.0741C3.94055 13.4457 4.09383 13.8952 4.46563 14.0782C4.83743 14.2611 5.28695 14.1083 5.46967 13.7367C6.10015 12.4547 6.49408 11.0298 5.87951 9.24513C5.37359 7.77602 5.68198 6.96511 5.89927 6.60165C6.20437 6.09131 7.05947 5.43503 8.14505 5.50569C9.25628 5.57802 9.90201 6.34489 10.1592 6.75462C10.248 6.92947 10.3642 7.27667 10.4746 7.78133C10.5851 8.28679 10.6788 8.8981 10.7366 9.54508C10.8543 10.8634 10.8134 12.2232 10.5336 13.1177C10.41 13.5129 10.6304 13.9337 11.0258 14.0576C11.4212 14.1815 11.8419 13.9615 11.9655 13.5663C12.3338 12.3887 12.3541 10.7937 12.2308 9.41293C12.1681 8.71036 12.0657 8.03605 11.9402 7.46214C11.8185 6.90579 11.6632 6.38654 11.4726 6.03015C11.4656 6.01693 11.4581 6.00392 11.4503 5.99114C11.0988 5.41896 10.0886 4.12931 8.24131 4.00907Z" fill="#7D8198"/>
</svg>
