<svg width="16" height="16" viewBox="0 0 16 16" fill="none" xmlns="http://www.w3.org/2000/svg">
<path d="M6.25 9C6.66421 9 7 8.66421 7 8.25C7 7.83579 6.66421 7.5 6.25 7.5C5.83579 7.5 5.5 7.83579 5.5 8.25C5.5 8.66421 5.83579 9 6.25 9Z" fill="#7D8198"/>
<path d="M9.75 9C10.16 9 10.5 8.66 10.5 8.25C10.5 7.84 10.16 7.5 9.75 7.5C9.34 7.5 9 7.84 9 8.25C9 8.66 9.34 9 9.75 9Z" fill="#7D8198"/>
<path d="M8.00512 15C6.62643 15 5.46753 13.96 5.29769 12.58C5.23775 12.08 4.90806 11.66 4.43851 11.49L2.49036 10.78C2.14069 10.65 1.93089 10.28 2.02081 9.91004L2.40044 8.23004C2.52033 7.69004 2.71015 7.17004 2.95991 6.68004C1.87095 5.71004 2.14069 2.91004 2.3405 1.64004C2.37047 1.43004 2.49036 1.25004 2.6602 1.13004C2.83004 1.02004 3.03984 0.970038 3.23965 1.02004C5.01796 1.42004 7.10597 2.11004 7.55555 3.23004C7.90521 3.20004 8.25488 3.21004 8.60455 3.26004C9.02415 2.12004 11.1321 1.42004 12.9304 1.02004C13.1303 0.970038 13.35 1.02004 13.5299 1.14004C13.6997 1.26004 13.8196 1.45004 13.8396 1.67004C13.9794 2.93004 14.1493 5.67004 13.0703 6.66004C13.43 7.32004 13.6797 8.05004 13.7996 8.81004L13.9894 9.95004C14.0494 10.31 13.8496 10.65 13.5099 10.78L11.5617 11.49C11.0922 11.66 10.7625 12.08 10.7026 12.58C10.5327 13.96 9.37382 15 7.99513 15H8.00512ZM3.63927 9.60004L4.96801 10.09C5.96706 10.46 6.66639 11.35 6.79627 12.41C6.87619 13.03 7.3957 13.5 8.01511 13.5C8.63452 13.5 9.15403 13.03 9.23395 12.41C9.36383 11.34 10.0632 10.45 11.0622 10.09L12.4209 9.59004L12.331 9.06004C12.0812 7.55004 11.2021 6.21004 9.91331 5.40004L9.61359 5.21004C8.62453 4.58004 7.29579 4.57004 6.28675 5.19004C5.06791 5.95004 4.18875 7.17004 3.86905 8.57004L3.62928 9.60004H3.63927ZM10.0432 3.73004C10.1731 3.79004 10.2929 3.86004 10.4128 3.94004L10.7125 4.13004C11.262 4.48004 11.7616 4.90004 12.1812 5.39004C12.381 4.96004 12.4709 3.87004 12.4109 2.71004C11.292 3.03004 10.3029 3.46004 10.0432 3.74004V3.73004ZM3.71919 2.69004C3.61929 3.82004 3.66924 4.90004 3.83908 5.36004C4.30863 4.80004 4.85811 4.31004 5.48751 3.92004C5.65735 3.81004 5.83718 3.72004 6.027 3.63004C5.65735 3.35004 4.73822 2.97004 3.72918 2.68004L3.71919 2.69004Z" fill="#7D8198"/>
</svg>
