<svg width="16" height="16" viewBox="0 0 16 16" fill="none" xmlns="http://www.w3.org/2000/svg">
<path fill-rule="evenodd" clip-rule="evenodd" d="M6.49707 3.99815C6.49707 3.12463 7.15486 2.5 7.99707 2.5C8.43226 2.5 8.8478 2.6358 9.14264 2.87952C9.4619 3.14342 9.93465 3.09855 10.1986 2.77929C10.4625 2.46003 10.4176 1.98728 10.0983 1.72337C9.49198 1.22216 8.7215 1 7.99707 1C6.35389 1 4.99707 2.26901 4.99707 3.99815V5.00439H4.75354C3.78704 5.00439 3.00354 5.7879 3.00354 6.75439V12.25C3.00354 13.2165 3.78704 14 4.75354 14H11.2535C12.22 14 13.0035 13.2165 13.0035 12.25V6.75439C13.0035 5.7879 12.22 5.00439 11.2535 5.00439H6.49707V3.99815ZM4.50354 6.75439C4.50354 6.61632 4.61547 6.50439 4.75354 6.50439H11.2535C11.3916 6.50439 11.5035 6.61632 11.5035 6.75439V12.25C11.5035 12.3881 11.3916 12.5 11.2535 12.5H4.75354C4.61547 12.5 4.50354 12.3881 4.50354 12.25V6.75439Z" fill="#7D8198"/>
</svg>
