<svg width="16" height="16" viewBox="0 0 16 16" fill="none" xmlns="http://www.w3.org/2000/svg">
<path d="M6 12C6 12.2626 6.05173 12.5227 6.15224 12.7654C6.25275 13.008 6.40007 13.2285 6.58579 13.4142C6.7715 13.5999 6.99198 13.7472 7.23463 13.8478C7.47728 13.9483 7.73736 14 8 14C8.26264 14 8.52272 13.9483 8.76537 13.8478C9.00802 13.7472 9.2285 13.5999 9.41421 13.4142C9.59993 13.2285 9.74725 13.008 9.84776 12.7654C9.94827 12.5227 10 12.2626 10 12H6Z" fill="#7D8198"/>
<path fill-rule="evenodd" clip-rule="evenodd" d="M8.00003 2.5C6.07135 2.5 4.50785 4.0635 4.50785 5.99218V8.53758L4.48111 8.63502C4.43535 8.80179 4.36789 8.95339 4.28239 9.08898C4.15858 9.28536 4.00683 9.46698 3.89045 9.60626C3.88624 9.61131 3.88207 9.6163 3.87795 9.62123C3.73268 9.79518 3.63532 9.9144 3.56748 10.0282C3.50484 10.1333 3.5 10.1822 3.5 10.2002C3.5 10.3658 3.63423 10.5 3.7998 10.5H12.2002C12.3658 10.5 12.5 10.3658 12.5 10.2002C12.5 10.1822 12.4952 10.1333 12.4325 10.0282C12.3647 9.9144 12.2673 9.79518 12.1221 9.62123L12.1096 9.60628C11.9932 9.467 11.8414 9.28537 11.7176 9.08899C11.6322 8.95349 11.5648 8.80202 11.519 8.6354L11.4922 8.53789V5.99218C11.4922 4.0635 9.92871 2.5 8.00003 2.5ZM3.00785 5.99218C3.00785 3.23507 5.24293 1 8.00003 1C10.7571 1 12.9922 3.23508 12.9922 5.99218V8.29802C13.0569 8.39874 13.1453 8.50644 13.2734 8.65973C13.278 8.66531 13.2827 8.67096 13.2875 8.67668C13.4152 8.82951 13.5862 9.03412 13.7209 9.26003C13.8658 9.50311 14 9.81981 14 10.2002C14 11.1942 13.1942 12 12.2002 12H3.7998C2.8058 12 2 11.1942 2 10.2002C2 9.81981 2.13417 9.50311 2.27909 9.26003C2.41379 9.03411 2.58477 8.8295 2.71248 8.67667C2.71726 8.67095 2.72198 8.66531 2.72663 8.65974C2.8547 8.50639 2.94316 8.39867 3.00785 8.29792V5.99218Z" fill="#7D8198"/>
</svg>
