<svg width="16" height="16" viewBox="0 0 16 16" fill="none" xmlns="http://www.w3.org/2000/svg">
<path fill-rule="evenodd" clip-rule="evenodd" d="M8.33422 1.93369L8.33682 1.93598L8.3516 1.94885C8.36545 1.9608 8.38721 1.97932 8.41648 2.00348C8.47505 2.05181 8.56351 2.12255 8.6787 2.20826C8.90944 2.37995 9.24534 2.61015 9.66117 2.84035C10.4986 3.30397 11.6285 3.75002 12.8611 3.75002C13.1373 3.75002 13.3611 3.97387 13.3611 4.25002H12.8611L13.3611 4.25004V4.2501V4.25019V4.25033V4.2505V4.25072V4.25097V4.25126V4.25159V4.25196V4.25236V4.25281V4.25329V4.25381V4.25437V4.25497V4.2556V4.25627V4.25698V4.25773V4.25852V4.25934V4.2602V4.2611V4.26203V4.263V4.26401V4.26506V4.26614V4.26726V4.26841V4.26961V4.27084V4.2721V4.27341V4.27474V4.27612V4.27753V4.27898V4.28046V4.28198V4.28354V4.28513V4.28676V4.28842V4.29012V4.29185V4.29362V4.29543V4.29727V4.29915V4.30106V4.303V4.30498V4.307V4.30905V4.31114V4.31326V4.31541V4.3176V4.31982V4.32208V4.32438V4.3267V4.32906V4.33146V4.33389V4.33635V4.33885V4.34138V4.34394V4.34654V4.34917V4.35184V4.35454V4.35727V4.36003V4.36283V4.36566V4.36853V4.37142V4.37435V4.37732V4.38031V4.38334V4.3864V4.3895V4.39262V4.39578V4.39897V4.40219V4.40545V4.40873V4.41205V4.4154V4.41879V4.4222V4.42564V4.42912V4.43263V4.43617V4.43974V4.44334V4.44698V4.45064V4.45434V4.45807V4.46182V4.46561V4.46943V4.47328V4.47716V4.48107V4.48501V4.48899V4.49299V4.49702V4.50108V4.50517V4.5093V4.51345V4.51763V4.52184V4.52608V4.53035V4.53465V4.53898V4.54334V4.54773V4.55215V4.55659V4.56107V4.56557V4.57011V4.57467V4.57926V4.58388V4.58853V4.5932V4.59791V4.60264V4.6074V4.61219V4.61701V4.62186V4.62673V4.63163V4.63656V4.64152V4.6465V4.65152V4.65656V4.66162V4.66672V4.67184V4.67699V4.68217V4.68737V4.6926V4.69786V4.70314V4.70845V4.71379V4.71915V4.72454V4.72996V4.7354V4.74087V4.74637V4.75189V4.75744V4.76301V4.76861V4.77423V4.77988V4.78556V4.79126V4.79699V4.80274V4.80852V4.81433V4.82015V4.82601V4.83189V4.83779V4.84372V4.84967V4.85565V4.86166V4.86768V4.87374V4.87981V4.88591V4.89204V4.89819V4.90436V4.91056V4.91678V4.92303V4.92929V4.93559V4.9419V4.94824V4.95461V4.96099V4.9674V4.97384V4.98029V4.98677V4.99328V4.9998V5.00635V5.01292V5.01952V5.02614V5.03277V5.03944V5.04612V5.05283V5.05956V5.06631V5.07308V5.07988V5.0867V5.09353V5.1004V5.10728V5.11418V5.12111V5.12806V5.13503V5.14202V5.14903V5.15606V5.16311V5.17019V5.17729V5.1844V5.19154V5.1987V5.20588V5.21308V5.2203V5.22754V5.2348V5.24208V5.24938V5.2567V5.26404V5.27141V5.27879V5.28619V5.29361V5.30105V5.30851V5.31599V5.32349V5.33101V5.33854V5.3461V5.35368V5.36127V5.36889V5.37652V5.38417V5.39184V5.39953V5.40724V5.41497V5.42271V5.43047V5.43825V5.44605V5.45387V5.46171V5.46956V5.47743V5.48532V5.49323V5.50115V5.5091V5.51706V5.52503V5.53303V5.54104V5.54907V5.55712V5.56518V5.57326V5.58136V5.58947V5.5976V5.60575V5.61391V5.62209V5.63029V5.6385V5.64673V5.65498V5.66324V5.67152V5.67981V5.68812V5.69645V5.70479V5.71315V5.72152V5.72991V5.73831V5.74673V5.75517V5.76362V5.77208V5.78056V5.78905V5.79756V5.80609V5.81463V5.82318V5.83175V5.84033V5.84893V5.85754V5.86617V5.87481V5.88346V5.89213V5.90081V5.90951V5.91822V5.92694V5.93568V5.94443V5.9532V5.96198V5.97077V5.97957V5.98839V5.99722V6.00606V6.01492V6.02379V6.03267V6.04157V6.05048V6.0594V6.06833V6.07728V6.08624V6.09521V6.10419V6.11319V6.12219V6.13121V6.14024V6.14928V6.15834V6.16741V6.17648V6.18557V6.19467V6.20378V6.21291V6.22204V6.23119V6.24035V6.24951V6.25869V6.26788V6.27708V6.28629V6.29551V6.30475V6.31399V6.32324V6.3325V6.34178V6.35106V6.36035V6.36966V6.37897V6.38829V6.39763V6.40697V6.41632V6.42568V6.43506V6.44444V6.45383V6.46323V6.47263V6.48205V6.49148V6.50091V6.51036V6.51981V6.52927V6.53874V6.54822V6.55771V6.5672V6.57671V6.58622V6.59574V6.60527V6.6148V6.62435V6.6339V6.64346V6.65303V6.6626V6.67218V6.68178V6.69137V6.70098V6.71059V6.72021V6.72983V6.73947V6.74911V6.75875V6.76841V6.77807V6.78774V6.79741V6.80709V6.81678V6.82647V6.83617V6.84587V6.85558V6.8653V6.87502V6.88475V6.89449V6.90423V6.91397V6.92372V6.93348V6.94324V6.95301V6.96278V6.97256V6.98235V6.99213V7.00193V7.01172V7.02153V7.03133V7.04115V7.05096V7.06078V7.07061V7.08044V7.09027V7.10011V7.10995V7.1198V7.12965V7.1395V7.14936V7.15922V7.16909V7.17895V7.18883V7.1987V7.20858V7.21846V7.22835V7.23823V7.24813V7.25802V7.26792V7.27782V7.28772V7.29762V7.30753V7.31744V7.32735V7.33727V7.34718V7.3571V7.36702V7.37695V7.38687V7.3968V7.40673V7.41666V7.42659V7.43652V7.44646V7.45639V7.46633V7.47627V7.48621V7.49615V7.50609V7.51604V7.52598V7.53593V7.54587V7.55582V7.56576V7.57571V7.58566V7.59561V7.60555V7.6155V7.62545V7.6354V7.64535V7.6553C13.3611 8.59325 13.1621 9.83375 12.4039 11.0745C11.643 12.3195 10.3407 13.5289 8.19409 14.433C8.06998 14.4853 7.93003 14.4853 7.80592 14.433C5.65935 13.5289 4.35704 12.3195 3.59615 11.0745C2.83787 9.83375 2.6389 8.59325 2.6389 7.6553V7.64535V7.6354V7.62546V7.61551V7.60556V7.59562V7.58567V7.57572V7.56578V7.55583V7.54589V7.53594V7.526V7.51606V7.50612V7.49618V7.48624V7.4763V7.46636V7.45642V7.44649V7.43656V7.42662V7.41669V7.40676V7.39684V7.38691V7.37699V7.36707V7.35715V7.34723V7.33731V7.3274V7.31749V7.30758V7.29767V7.28777V7.27787V7.26797V7.25807V7.24818V7.23829V7.2284V7.21852V7.20864V7.19876V7.18889V7.17902V7.16915V7.15929V7.14943V7.13957V7.12972V7.11987V7.11002V7.10018V7.09034V7.08051V7.07068V7.06086V7.05104V7.04122V7.03141V7.02161V7.0118V7.00201V6.99222V6.98243V6.97265V6.96287V6.9531V6.94333V6.93357V6.92381V6.91406V6.90432V6.89458V6.88484V6.87512V6.86539V6.85568V6.84597V6.83626V6.82656V6.81687V6.80719V6.79751V6.78783V6.77817V6.76851V6.75885V6.74921V6.73957V6.72994V6.72031V6.71069V6.70108V6.69148V6.68188V6.67229V6.66271V6.65313V6.64357V6.63401V6.62446V6.61491V6.60538V6.59585V6.58633V6.57682V6.56731V6.55782V6.54833V6.53885V6.52938V6.51992V6.51047V6.50103V6.49159V6.48217V6.47275V6.46334V6.45394V6.44455V6.43517V6.4258V6.41644V6.40709V6.39775V6.38841V6.37909V6.36978V6.36047V6.35118V6.3419V6.33262V6.32336V6.31411V6.30487V6.29563V6.28641V6.2772V6.268V6.25881V6.24963V6.24047V6.23131V6.22216V6.21303V6.20391V6.1948V6.18569V6.17661V6.16753V6.15846V6.14941V6.14037V6.13133V6.12232V6.11331V6.10431V6.09533V6.08636V6.0774V6.06846V6.05952V6.0506V6.04169V6.0328V6.02392V6.01505V6.00619V5.99734V5.98851V5.97969V5.97089V5.9621V5.95332V5.94456V5.9358V5.92707V5.91834V5.90963V5.90094V5.89225V5.88359V5.87493V5.86629V5.85766V5.84905V5.84046V5.83187V5.8233V5.81475V5.80621V5.79769V5.78918V5.78068V5.7722V5.76374V5.75529V5.74685V5.73843V5.73003V5.72164V5.71327V5.70491V5.69657V5.68824V5.67993V5.67164V5.66336V5.6551V5.64685V5.63862V5.63041V5.62221V5.61403V5.60587V5.59772V5.58959V5.58147V5.57338V5.56529V5.55723V5.54918V5.54116V5.53314V5.52515V5.51717V5.50921V5.50127V5.49334V5.48543V5.47755V5.46967V5.46182V5.45398V5.44616V5.43836V5.43058V5.42282V5.41507V5.40735V5.39964V5.39195V5.38428V5.37663V5.36899V5.36138V5.35378V5.34621V5.33865V5.33111V5.32359V5.31609V5.30861V5.30115V5.29371V5.28629V5.27889V5.27151V5.26415V5.2568V5.24948V5.24218V5.2349V5.22764V5.2204V5.21317V5.20597V5.1988V5.19164V5.1845V5.17738V5.17028V5.16321V5.15615V5.14912V5.14211V5.13512V5.12815V5.1212V5.11427V5.10737V5.10049V5.09362V5.08678V5.07997V5.07317V5.0664V5.05965V5.05292V5.04621V5.03952V5.03286V5.02622V5.0196V5.01301V5.00644V4.99989V4.99336V4.98686V4.98038V4.97392V4.96749V4.96107V4.95469V4.94832V4.94198V4.93567V4.92937V4.9231V4.91686V4.91063V4.90444V4.89826V4.89211V4.88599V4.87989V4.87381V4.86776V4.86173V4.85572V4.84975V4.84379V4.83786V4.83196V4.82608V4.82022V4.81439V4.80859V4.80281V4.79706V4.79133V4.78563V4.77995V4.7743V4.76867V4.76307V4.7575V4.75195V4.74643V4.74093V4.73546V4.73002V4.7246V4.71921V4.71385V4.70851V4.7032V4.69791V4.69265V4.68742V4.68222V4.67704V4.67189V4.66677V4.66168V4.65661V4.65157V4.64655V4.64157V4.63661V4.63168V4.62678V4.62191V4.61706V4.61224V4.60745V4.60269V4.59795V4.59325V4.58857V4.58392V4.5793V4.57471V4.57015V4.56562V4.56111V4.55663V4.55219V4.54777V4.54338V4.53902V4.53469V4.53039V4.52612V4.52188V4.51767V4.51348V4.50933V4.50521V4.50112V4.49705V4.49302V4.48902V4.48505V4.4811V4.47719V4.47331V4.46946V4.46564V4.46185V4.45809V4.45437V4.45067V4.44701V4.44337V4.43977V4.4362V4.43266V4.42915V4.42567V4.42222V4.41881V4.41543V4.41208V4.40876V4.40547V4.40221V4.39899V4.3958V4.39264V4.38952V4.38642V4.38336V4.38033V4.37734V4.37437V4.37144V4.36854V4.36568V4.36285V4.36005V4.35728V4.35455V4.35185V4.34919V4.34656V4.34396V4.34139V4.33886V4.33636V4.3339V4.33147V4.32907V4.32671V4.32439V4.32209V4.31983V4.31761V4.31542V4.31327V4.31114V4.30906V4.30701V4.30499V4.30301V4.30106V4.29915V4.29728V4.29544V4.29363V4.29186V4.29013V4.28843V4.28676V4.28514V4.28354V4.28199V4.28047V4.27898V4.27754V4.27612V4.27475V4.27341V4.27211V4.27084V4.26961V4.26842V4.26726V4.26614V4.26506V4.26401V4.263V4.26203V4.2611V4.2602V4.25934V4.25852V4.25773V4.25698V4.25627V4.2556V4.25497V4.25437V4.25381V4.25329V4.25281V4.25236V4.25196V4.25159V4.25126V4.25097V4.25072V4.2505V4.25033V4.25019V4.2501V4.25004L3.1389 4.25002H2.6389C2.6389 3.97387 2.86275 3.75002 3.1389 3.75002C4.37148 3.75002 5.50139 3.30397 6.33885 2.84035C6.75467 2.61015 7.09057 2.37995 7.32131 2.20826C7.4365 2.12255 7.52496 2.05181 7.58353 2.00348C7.6128 1.97932 7.63456 1.9608 7.64841 1.94885L7.66319 1.93598L7.66579 1.93369L7.66599 1.93351C7.85591 1.76301 8.14375 1.76293 8.33376 1.93327C8.33391 1.93341 8.33407 1.93355 8.33422 1.93369ZM3.6389 4.72985V4.73002V4.73546V4.74093V4.74643V4.75195V4.7575V4.76307V4.76867V4.7743V4.77995V4.78563V4.79133V4.79706V4.80281V4.80859V4.81439V4.82022V4.82608V4.83196V4.83786V4.84379V4.84975V4.85572V4.86173V4.86776V4.87381V4.87989V4.88599V4.89211V4.89826V4.90444V4.91063V4.91686V4.9231V4.92937V4.93567V4.94198V4.94832V4.95469V4.96107V4.96749V4.97392V4.98038V4.98686V4.99336V4.99989V5.00644V5.01301V5.0196V5.02622V5.03286V5.03952V5.04621V5.05292V5.05965V5.0664V5.07317V5.07997V5.08678V5.09362V5.10049V5.10737V5.11427V5.1212V5.12815V5.13512V5.14211V5.14912V5.15615V5.16321V5.17028V5.17738V5.1845V5.19164V5.1988V5.20597V5.21317V5.2204V5.22764V5.2349V5.24218V5.24948V5.2568V5.26415V5.27151V5.27889V5.28629V5.29371V5.30115V5.30861V5.31609V5.32359V5.33111V5.33865V5.34621V5.35378V5.36138V5.36899V5.37663V5.38428V5.39195V5.39964V5.40735V5.41507V5.42282V5.43058V5.43836V5.44616V5.45398V5.46182V5.46967V5.47755V5.48543V5.49334V5.50127V5.50921V5.51717V5.52515V5.53314V5.54116V5.54918V5.55723V5.56529V5.57338V5.58147V5.58959V5.59772V5.60587V5.61403V5.62221V5.63041V5.63862V5.64685V5.6551V5.66336V5.67164V5.67993V5.68824V5.69657V5.70491V5.71327V5.72164V5.73003V5.73843V5.74685V5.75529V5.76374V5.7722V5.78068V5.78918V5.79769V5.80621V5.81475V5.8233V5.83187V5.84046V5.84905V5.85766V5.86629V5.87493V5.88359V5.89225V5.90094V5.90963V5.91834V5.92707V5.9358V5.94456V5.95332V5.9621V5.97089V5.97969V5.98851V5.99734V6.00619V6.01505V6.02392V6.0328V6.04169V6.0506V6.05952V6.06846V6.0774V6.08636V6.09533V6.10431V6.11331V6.12232V6.13133V6.14037V6.14941V6.15846V6.16753V6.17661V6.18569V6.1948V6.20391V6.21303V6.22216V6.23131V6.24047V6.24963V6.25881V6.268V6.2772V6.28641V6.29563V6.30487V6.31411V6.32336V6.33262V6.3419V6.35118V6.36047V6.36978V6.37909V6.38841V6.39775V6.40709V6.41644V6.4258V6.43517V6.44455V6.45394V6.46334V6.47275V6.48217V6.49159V6.50103V6.51047V6.51992V6.52938V6.53885V6.54833V6.55782V6.56731V6.57682V6.58633V6.59585V6.60538V6.61491V6.62446V6.63401V6.64357V6.65313V6.66271V6.67229V6.68188V6.69148V6.70108V6.71069V6.72031V6.72994V6.73957V6.74921V6.75885V6.76851V6.77817V6.78783V6.79751V6.80719V6.81687V6.82656V6.83626V6.84597V6.85568V6.86539V6.87512V6.88484V6.89458V6.90432V6.91406V6.92381V6.93357V6.94333V6.9531V6.96287V6.97265V6.98243V6.99222V7.00201V7.0118V7.02161V7.03141V7.04122V7.05104V7.06086V7.07068V7.08051V7.09034V7.10018V7.11002V7.11987V7.12972V7.13957V7.14943V7.15929V7.16915V7.17902V7.18889V7.19876V7.20864V7.21852V7.2284V7.23829V7.24818V7.25807V7.26797V7.27787V7.28777V7.29767V7.30758V7.31749V7.3274V7.33731V7.34723V7.35715V7.36707V7.37699V7.38691V7.39684V7.40676V7.41669V7.42662V7.43656V7.44649V7.45642V7.46636V7.4763V7.48624V7.49618V7.50612V7.51606V7.526V7.53594V7.54589V7.55583V7.56578V7.57572V7.58567V7.59562V7.60556V7.61551V7.62546V7.6354V7.64535V7.6553C3.6389 8.45456 3.80826 9.50392 4.44942 10.553C5.06679 11.5632 6.14189 12.6067 8.00001 13.4277C9.85812 12.6067 10.9332 11.5632 11.5506 10.553C12.1918 9.50392 12.3611 8.45456 12.3611 7.6553V7.64535V7.6354V7.62545V7.6155V7.60555V7.59561V7.58566V7.57571V7.56576V7.55582V7.54587V7.53593V7.52598V7.51604V7.50609V7.49615V7.48621V7.47627V7.46633V7.45639V7.44646V7.43652V7.42659V7.41666V7.40673V7.3968V7.38687V7.37695V7.36702V7.3571V7.34718V7.33727V7.32735V7.31744V7.30753V7.29762V7.28772V7.27782V7.26792V7.25802V7.24813V7.23823V7.22835V7.21846V7.20858V7.1987V7.18883V7.17895V7.16909V7.15922V7.14936V7.1395V7.12965V7.1198V7.10995V7.10011V7.09027V7.08044V7.07061V7.06078V7.05096V7.04115V7.03133V7.02153V7.01172V7.00193V6.99213V6.98235V6.97256V6.96278V6.95301V6.94324V6.93348V6.92372V6.91397V6.90423V6.89449V6.88475V6.87502V6.8653V6.85558V6.84587V6.83617V6.82647V6.81678V6.80709V6.79741V6.78774V6.77807V6.76841V6.75875V6.74911V6.73947V6.72983V6.72021V6.71059V6.70098V6.69137V6.68178V6.67218V6.6626V6.65303V6.64346V6.6339V6.62435V6.6148V6.60527V6.59574V6.58622V6.57671V6.5672V6.55771V6.54822V6.53874V6.52927V6.51981V6.51036V6.50091V6.49148V6.48205V6.47263V6.46323V6.45383V6.44444V6.43506V6.42568V6.41632V6.40697V6.39763V6.38829V6.37897V6.36966V6.36035V6.35106V6.34178V6.3325V6.32324V6.31399V6.30475V6.29551V6.28629V6.27708V6.26788V6.25869V6.24951V6.24035V6.23119V6.22204V6.21291V6.20378V6.19467V6.18557V6.17648V6.16741V6.15834V6.14928V6.14024V6.13121V6.12219V6.11319V6.10419V6.09521V6.08624V6.07728V6.06833V6.0594V6.05048V6.04157V6.03267V6.02379V6.01492V6.00606V5.99722V5.98839V5.97957V5.97077V5.96198V5.9532V5.94443V5.93568V5.92694V5.91822V5.90951V5.90081V5.89213V5.88346V5.87481V5.86617V5.85754V5.84893V5.84033V5.83175V5.82318V5.81463V5.80609V5.79756V5.78905V5.78056V5.77208V5.76362V5.75517V5.74673V5.73831V5.72991V5.72152V5.71315V5.70479V5.69645V5.68812V5.67981V5.67152V5.66324V5.65498V5.64673V5.6385V5.63029V5.62209V5.61391V5.60575V5.5976V5.58947V5.58136V5.57326V5.56518V5.55712V5.54907V5.54104V5.53303V5.52503V5.51706V5.5091V5.50115V5.49323V5.48532V5.47743V5.46956V5.46171V5.45387V5.44605V5.43825V5.43047V5.42271V5.41497V5.40724V5.39953V5.39184V5.38417V5.37652V5.36889V5.36127V5.35368V5.3461V5.33854V5.33101V5.32349V5.31599V5.30851V5.30105V5.29361V5.28619V5.27879V5.27141V5.26404V5.2567V5.24938V5.24208V5.2348V5.22754V5.2203V5.21308V5.20588V5.1987V5.19154V5.1844V5.17729V5.17019V5.16311V5.15606V5.14903V5.14202V5.13503V5.12806V5.12111V5.11418V5.10728V5.1004V5.09353V5.0867V5.07988V5.07308V5.06631V5.05956V5.05283V5.04612V5.03944V5.03277V5.02614V5.01952V5.01292V5.00635V4.9998V4.99328V4.98677V4.98029V4.97384V4.9674V4.96099V4.95461V4.94824V4.9419V4.93559V4.92929V4.92303V4.91678V4.91056V4.90436V4.89819V4.89204V4.88591V4.87981V4.87374V4.86768V4.86166V4.85565V4.84967V4.84372V4.83779V4.83189V4.82601V4.82015V4.81433V4.80852V4.80274V4.79699V4.79126V4.78556V4.77988V4.77423V4.76861V4.76301V4.75744V4.75189V4.74637V4.74087V4.7354V4.72996V4.72985C11.1013 4.62887 9.98959 4.16518 9.17683 3.71524C8.71457 3.45933 8.34097 3.20342 8.08174 3.01053C8.05311 2.98923 8.02586 2.96868 8.00001 2.94896C7.97415 2.96868 7.9469 2.98923 7.91827 3.01053C7.65904 3.20342 7.28544 3.45933 6.82318 3.71524C6.01043 4.16518 4.89876 4.62887 3.6389 4.72985Z" fill="#5B53FF"/>
</svg>
