<svg width="16" height="16" viewBox="0 0 16 16" fill="none" xmlns="http://www.w3.org/2000/svg">
<path d="M2.49805 3.25C2.49805 3.66421 2.16226 4 1.74805 4C1.33383 4 0.998047 3.66421 0.998047 3.25V2.75C0.998047 1.7835 1.78155 1 2.74805 1H3.24805C3.66226 1 3.99805 1.33579 3.99805 1.75C3.99805 2.16421 3.66226 2.5 3.24805 2.5H2.74805C2.60998 2.5 2.49805 2.61193 2.49805 2.75V3.25Z" fill="#7D8198"/>
<path d="M7.25 2.5C7.66421 2.5 8 2.16421 8 1.75C8 1.33579 7.66421 1 7.25 1H5.75C5.33579 1 5 1.33579 5 1.75C5 2.16421 5.33579 2.5 5.75 2.5L7.25 2.5Z" fill="#7D8198"/>
<path d="M4 5.75C4 4.7835 4.7835 4 5.75 4H10.5V2.75C10.5 2.61193 10.3881 2.5 10.25 2.5H9.75C9.33579 2.5 9 2.16421 9 1.75C9 1.33579 9.33579 1 9.75 1H10.25C11.2165 1 12 1.7835 12 2.75V4H13.25C14.2165 4 15 4.7835 15 5.75V13.25C15 14.2165 14.2165 15 13.25 15H9.75C9.33579 15 9 14.6642 9 14.25C9 13.8358 9.33579 13.5 9.75 13.5H13.25C13.3881 13.5 13.5 13.3881 13.5 13.25V5.75C13.5 5.61193 13.3881 5.5 13.25 5.5H5.75C5.61193 5.5 5.5 5.61193 5.5 5.75V6.25C5.5 6.66421 5.16421 7 4.75 7C4.33579 7 4 6.66421 4 6.25V5.75Z" fill="#7D8198"/>
<path d="M1.75 9C2.16421 9 2.5 9.33579 2.5 9.75V11C2.5 11.1381 2.61193 11.25 2.75 11.25H5.29556L4.24831 10.3075C3.94043 10.0304 3.91547 9.55617 4.19257 9.24828C4.46966 8.9404 4.94388 8.91544 5.25176 9.19254L7.75176 11.4425C7.90985 11.5848 8.0001 11.7875 8.00004 12.0002C7.99998 12.2129 7.90962 12.4156 7.75145 12.5578L5.25145 14.8052C4.94341 15.0822 4.46921 15.0569 4.19229 14.7489C3.91536 14.4409 3.94059 13.9667 4.24862 13.6897L5.29395 12.75H2.75C1.7835 12.75 1 11.9665 1 11V9.75C1 9.33579 1.33579 9 1.75 9Z" fill="#7D8198"/>
<path d="M1.75 4.99683C1.33579 4.99683 1 5.33261 1 5.74683V6.25C1 6.66421 1.33579 7 1.75 7C2.16421 7 2.5 6.66421 2.5 6.25V5.74683C2.5 5.33261 2.16421 4.99683 1.75 4.99683Z" fill="#7D8198"/>
</svg>
