<svg width="16" height="16" viewBox="0 0 16 16" fill="none" xmlns="http://www.w3.org/2000/svg">
<path fill-rule="evenodd" clip-rule="evenodd" d="M3.75 2C2.7835 2 2 2.7835 2 3.75V5.25C2 6.2165 2.7835 7 3.75 7H12.25C13.2165 7 14 6.2165 14 5.25V3.75C14 2.7835 13.2165 2 12.25 2H3.75ZM3.5 3.75C3.5 3.61193 3.61193 3.5 3.75 3.5H12.25C12.3881 3.5 12.5 3.61193 12.5 3.75V5.25C12.5 5.38807 12.3881 5.5 12.25 5.5H3.75C3.61193 5.5 3.5 5.38807 3.5 5.25V3.75ZM3.75 8.99561C2.7835 8.99561 2 9.77911 2 10.7456V12.2456C2 13.2121 2.7835 13.9956 3.75 13.9956H12.25C13.2165 13.9956 14 13.2121 14 12.2456V10.7456C14 9.77911 13.2165 8.99561 12.25 8.99561H3.75ZM3.5 10.7456C3.5 10.6075 3.61193 10.4956 3.75 10.4956H12.25C12.3881 10.4956 12.5 10.6075 12.5 10.7456V12.2456C12.5 12.3837 12.3881 12.4956 12.25 12.4956H3.75C3.61193 12.4956 3.5 12.3837 3.5 12.2456V10.7456Z" fill="#7D8198"/>
</svg>
