<svg width="16" height="16" viewBox="0 0 16 16" fill="none" xmlns="http://www.w3.org/2000/svg">
<path fill-rule="evenodd" clip-rule="evenodd" d="M12 5C12.5523 5 13 4.55228 13 4C13 3.44772 12.5523 3 12 3C11.4477 3 11 3.44772 11 4C11 4.55228 11.4477 5 12 5ZM7.77481 11.4998L5.49719 7.52117L3.22341 11.4998H7.77481ZM1.06602 12.2517C0.875524 12.5851 1.11621 12.9998 1.50013 12.9998H8.49097L8.50331 13H14.5007C14.8889 13 15.129 12.5769 14.93 12.2436L11.9295 7.21926C11.7355 6.89431 11.2647 6.89443 11.0708 7.21948L9.02058 10.6568L5.93039 5.25865C5.76229 4.965 5.37067 4.92843 5.14686 5.14879C5.11488 5.18027 5.08633 5.217 5.06235 5.25897L1.06602 12.2517ZM12.7388 11.5H10.2642L11.5008 9.42686L12.7388 11.5Z" fill="#7D8198"/>
</svg>
