<svg width="16" height="16" viewBox="0 0 16 16" fill="none" xmlns="http://www.w3.org/2000/svg">
<path d="M12 6.75C12 7.16421 11.6642 7.5 11.25 7.5H10.75C10.3358 7.5 10 7.16421 10 6.75C10 6.33579 10.3358 6 10.75 6H11.25C11.6642 6 12 6.33579 12 6.75Z" fill="#7D8198"/>
<path d="M11.25 10C11.6642 10 12 9.66421 12 9.25C12 8.83579 11.6642 8.5 11.25 8.5H10.75C10.3358 8.5 10 8.83579 10 9.25C10 9.66421 10.3358 10 10.75 10H11.25Z" fill="#7D8198"/>
<path fill-rule="evenodd" clip-rule="evenodd" d="M2.74915 3C1.78265 3 0.999146 3.7835 0.999146 4.75V11.25C0.999146 12.2165 1.78265 13 2.74915 13H13.2491C14.2156 13 14.9991 12.2165 14.9991 11.25V4.75C14.9991 3.7835 14.2156 3 13.2491 3H2.74915ZM2.49915 4.75C2.49915 4.61193 2.61107 4.5 2.74915 4.5H7V11.5H2.74915C2.61107 11.5 2.49915 11.3881 2.49915 11.25V4.75ZM8.5 11.5H13.2491C13.3872 11.5 13.4991 11.3881 13.4991 11.25V4.75C13.4991 4.61193 13.3872 4.5 13.2491 4.5H8.5V11.5Z" fill="#7D8198"/>
</svg>
