<svg fill="none" height="16" viewBox="0 0 16 16" width="16" xmlns="http://www.w3.org/2000/svg"><g fill="#7d8198"><path d="m11.5262 14.9992h-3.43825c-.05819 0-.08728-.0327-.08725-.0979v-5.64853c-.00153-.01088-.00055-.02197.00286-.03239s.00916-.01989.01678-.02766.01691-.01362.02714-.01709c.01022-.00348.0211-.00448.03177-.00292h1.06463c.00829-.00119.01675-.0004.02469.00231.00795.00271.01517.00726.02109.0133s.01039.0134.01305.0215c.00265.00809.00342.01671.00225.02517v4.64331h2.50454c.0523 0 .0727.0267.061.0801l-.157.9607c-.0004.0131-.0037.026-.0098.0375-.0061.0116-.0147.0216-.0251.0292-.0162.0086-.0342.0132-.0524.0134z"/><path d="m12.3901 10.5782h.9512c.0258.0002.0509.0091.0713.0251.0205.0161.0353.0385.0421.0639.0208.0389.0355.0809.0437.1245.0121.0572.0209.1152.0261.1735.0058.0622.0087.1289.0088.2001.1631-.1936.3598-.3549.5803-.4759.2476-.1365.5257-.2054.8072-.2001.0106-.0016.0215-.0006.0317.0029.0103.0035.0196.0093.0272.0171s.0133.0172.0167.0276c.0034.0105.0044.0216.0029.0324v1.0764c0 .0415-.0291.0623-.0873.0622-.3515-.0221-.7031.0419-1.0253.1868-.1095.0483-.2088.1178-.2924.2046v2.8198c0 .0534-.0232.0801-.0698.0801h-1.0559c-.0118.0017-.0239.0006-.0353-.0032-.0113-.0039-.0217-.0104-.0301-.019-.0085-.0087-.0149-.0192-.0187-.0308-.0038-.0115-.0048-.0239-.0031-.036v-3.0599c0-.1304-.0015-.2683-.0044-.4137-.003-.1452-.0074-.289-.0131-.4314-.0039-.1222-.0155-.244-.0349-.3647-.0022-.0086-.0021-.0177.0002-.0262.0023-.0086.0067-.0164.0129-.0227s.0138-.0109.0223-.0132c.0084-.0024.0173-.0024.0257-.0002z"/><path clip-rule="evenodd" d="m8.00006 3.50146c-1.28482 0-2.34416.96985-2.48422 2.21695-.03984.35473-.32417.63223-.67976.66343-1.28555.11279-2.33462 1.19494-2.33462 2.55466 0 1.4158 1.14772 2.5635 2.5635 2.5635h.19233c.41422 0 .75.3358.75.75s-.33578.75-.75.75h-.19233c-2.24421 0-4.0635-1.8193-4.0635-4.0635 0-1.95338 1.36265-3.53899 3.13039-3.95659.45172-1.71452 2.01194-2.97845 3.86821-2.97845 2.20914 0 4.00004 1.79087 4.00004 4 0 .00395 0 .0079-.0001.01184l.0891.01543c.4803.08315.9246.26192 1.3139.51496.0102.0066.0202.01345.03.02053l.1199.08651c.336.24231.4119.71107.1696 1.04702s-.7111.41186-1.047.16956l-.1041-.07504c-.2188-.13964-.4677-.23871-.7382-.28553l-.7726-.13378c-.199-.03445-.3757-.14769-.4901-.3141-.1144-.1664-.1568-.37192-.1178-.57004.031-.15704.0474-.31992.0474-.48736 0-1.38071-1.11933-2.5-2.50004-2.5z" fill-rule="evenodd"/></g></svg>