<svg width="16" height="16" viewBox="0 0 16 16" fill="none" xmlns="http://www.w3.org/2000/svg">
<path fill-rule="evenodd" clip-rule="evenodd" d="M3.75 2C2.7835 2 2 2.7835 2 3.75V12.25C2 13.2165 2.7835 14 3.75 14H12.25C13.2165 14 14 13.2165 14 12.25V3.75C14 2.7835 13.2165 2 12.25 2H3.75ZM3.5 3.75C3.5 3.61193 3.61193 3.5 3.75 3.5H12.25C12.3881 3.5 12.5 3.61193 12.5 3.75V5.5L3.5 5.5V3.75ZM3.5 7V12.25C3.5 12.3881 3.61193 12.5 3.75 12.5H12.25C12.3881 12.5 12.5 12.3881 12.5 12.25V7L3.5 7Z" fill="#7D8198"/>
</svg>
