<svg width="16" height="16" viewBox="0 0 16 16" fill="none" xmlns="http://www.w3.org/2000/svg">
<path fill-rule="evenodd" clip-rule="evenodd" d="M8.00184 2.79014C9.69786 1.62075 12.0132 1.7211 13.6189 3.07972C13.8581 3.2821 14 3.5818 14 3.90039V11.9618C14 12.8685 12.9158 13.336 12.2565 12.7135C11.257 11.77 9.70283 11.7449 8.67341 12.6556L8.31456 12.25L8.67341 12.6556L8.49696 12.8117C8.21254 13.0634 7.78493 13.0627 7.5013 12.8102L7.34277 12.6691C6.31141 11.7509 4.74984 11.7715 3.74304 12.7165C3.08231 13.3367 2 12.8683 2 11.962V3.90138C2 3.58409 2.14016 3.28301 2.38294 3.07874L2.38294 3.07874L2.4194 3.04807L2.4194 3.04807C4.02762 1.69502 6.32048 1.6199 8.00184 2.79014ZM8.75 10.8442C9.95207 10.3117 11.3504 10.3788 12.5 11.0384V4.10553C11.3854 3.27298 9.84684 3.27532 8.75 4.09967V10.8442ZM7.25 4.09783C6.14793 3.26071 4.61022 3.25545 3.5 4.10371V11.0428C4.65029 10.3843 6.04776 10.3172 7.25 10.8471V4.09783Z" fill="#7D8198"/>
</svg>
