<svg width="16" height="16" viewBox="0 0 16 16" fill="none" xmlns="http://www.w3.org/2000/svg">
<path fill-rule="evenodd" clip-rule="evenodd" d="M1 8C1 4.13401 4.13401 1 8 1C11.866 1 15 4.13401 15 8C15 11.866 11.866 15 8 15C4.13401 15 1 11.866 1 8ZM2.58664 7.02231C2.99114 4.76769 4.76965 2.9898 7.02459 2.58623C7.08497 3.30462 7.25606 4.01057 7.53284 4.67878C7.88463 5.52806 8.40024 6.29974 9.05025 6.94975C9.70026 7.59976 10.4719 8.11537 11.3212 8.46716C11.9894 8.74394 12.6954 8.91503 13.4138 8.97541C13.0101 11.231 11.2312 13.01 8.9756 13.4137C8.9154 12.6946 8.74423 11.9878 8.46716 11.3189C8.11537 10.4696 7.59976 9.69794 6.94975 9.04793C6.29974 8.39792 5.52806 7.88231 4.67878 7.53052C4.0107 7.25379 3.30488 7.08271 2.58664 7.02231ZM2.52452 8.52275C2.7715 11.1424 4.85582 13.2273 7.47513 13.4753C7.42331 12.9322 7.29087 12.3988 7.08134 11.8929C6.80494 11.2256 6.39981 10.6193 5.88909 10.1086C5.37837 9.59787 4.77205 9.19274 4.10476 8.91634C3.59957 8.70709 3.06691 8.57471 2.52452 8.52275ZM8.52509 2.52474C11.1435 2.77274 13.2273 4.85648 13.4753 7.47491C12.9329 7.42293 12.4004 7.29057 11.8952 7.08134C11.228 6.80494 10.6216 6.39981 10.1109 5.88909C9.60019 5.37836 9.19506 4.77205 8.91866 4.10476C8.70943 3.59963 8.57707 3.06706 8.52509 2.52474Z" fill="#7D8198"/>
</svg>
