<svg width="16" height="16" viewBox="0 0 16 16" fill="none" xmlns="http://www.w3.org/2000/svg">
<path fill-rule="evenodd" clip-rule="evenodd" d="M3.66666 5.22222C3.66666 4.71699 4.06035 4.33334 4.51397 4.33334H11.486C11.9396 4.33334 12.3333 4.71699 12.3333 5.22222V9.94445C12.3333 10.4497 11.9396 10.8333 11.486 10.8333H8.55589C8.44519 10.8333 8.33763 10.8701 8.25006 10.9378L5.82235 12.8147V11.3333C5.82235 11.0572 5.5985 10.8333 5.32235 10.8333H4.51397C4.06035 10.8333 3.66666 10.4497 3.66666 9.94445V5.22222ZM4.51397 3.33334C3.47963 3.33334 2.66666 4.19357 2.66666 5.22222V9.94445C2.66666 10.9731 3.47963 11.8333 4.51397 11.8333H4.82235V13.2778C4.82235 13.8927 5.52999 14.3046 6.05922 13.8956L6.05932 13.8956L8.72663 11.8333H11.486C12.5204 11.8333 13.3333 10.9731 13.3333 9.94445V5.22222C13.3333 4.19357 12.5204 3.33334 11.486 3.33334H4.51397ZM6.05555 8.00001C6.3625 8.00001 6.61111 7.7514 6.61111 7.44445C6.61111 7.13751 6.3625 6.8889 6.05555 6.8889C5.74861 6.8889 5.5 7.13751 5.5 7.44445C5.5 7.7514 5.74861 8.00001 6.05555 8.00001ZM9.94443 8.00001C10.2514 8.00001 10.5 7.7514 10.5 7.44446C10.5 7.13751 10.2514 6.8889 9.94443 6.8889C9.63748 6.8889 9.38887 7.13751 9.38887 7.44446C9.38887 7.7514 9.63748 8.00001 9.94443 8.00001ZM8.55557 7.44446C8.55557 7.7514 8.30696 8.00001 8.00001 8.00001C7.69307 8.00001 7.44446 7.7514 7.44446 7.44446C7.44446 7.13751 7.69307 6.8889 8.00001 6.8889C8.30696 6.8889 8.55557 7.13751 8.55557 7.44446Z" fill="#5B53FF"/>
</svg>
