<svg fill="none" height="16" viewBox="0 0 16 16" width="16" xmlns="http://www.w3.org/2000/svg"><g fill="#7d8198"><path d="m9 1c.27614 0 .5.22386.5.5v1.46289c-.00011.18414-.10138.35341-.26367.44043l-.48633.25977v10.58891l-.00391.0761c-.03825.3784-.35765.6739-.74609.6739s-.70784-.2955-.74609-.6739l-.00391-.0761v-10.58794l-.48633-.26074c-.16225-.08711-.26366-.25627-.26367-.44043v-1.46289c0-.27614.22386-.5.5-.5z"/><path d="m5.32715 10.0039c.37797.0386.67285.3579.67285.7461s-.29488.7075-.67285.7461l-.07715.0039h-2.25c-.27614 0-.5.2239-.5.5s.22386.5.5.5h2.25l.07715.0039c.37797.0386.67285.3579.67285.7461s-.29488.7075-.67285.7461l-.07715.0039h-2.25c-1.10457 0-2-.8954-2-2s.89543-2 2-2h2.25z"/><path d="m11.2041 10.0107c1.0087.1023 1.7959.9536 1.7959 1.9893 0 1.1046-.8954 2-2 2h-.25c-.4142 0-.75-.3358-.75-.75s.3358-.75.75-.75h.25c.2761 0 .5-.2239.5-.5 0-.2417-.1714-.4437-.3994-.4902l-.1006-.0098h-.25c-.4142 0-.75-.3358-.75-.75s.3358-.75.75-.75h.25z"/><path d="m5.25 5c.41421 0 .75.33579.75.75s-.33579.75-.75.75h-.25c-.27614 0-.5.22386-.5.5 0 .24171.17145.44371.39941.49023l.10059.00977h.25c.41421 0 .75.33579.75.75s-.33579.75-.75.75h-.25l-.2041-.01074c-1.00868-.10226-1.7959-.95361-1.7959-1.98926 0-1.10457.89543-2 2-2z"/><path d="m13 5c1.1046 0 2 .89543 2 2s-.8954 2-2 2h-2.25l-.0771-.00391c-.378-.03862-.6729-.35792-.6729-.74609s.2949-.70747.6729-.74609l.0771-.00391h2.25c.2761 0 .5-.22386.5-.5s-.2239-.5-.5-.5h-2.25l-.0771-.00391c-.378-.03862-.6729-.35792-.6729-.74609s.2949-.70747.6729-.74609l.0771-.00391z"/></g></svg>