<svg width="16" height="16" viewBox="0 0 16 16" fill="none" xmlns="http://www.w3.org/2000/svg">
<path d="M12.6555 2.02927C13.4391 1.84575 14.1411 2.53976 13.9749 3.32126L13.9768 3.32224L12.886 8.86228C12.8839 8.87312 12.8808 8.88377 12.8782 8.89451C12.6761 9.72241 11.648 10.0135 11.0423 9.41404C11.0252 9.39714 11.0088 9.37878 10.9934 9.36033L10.1165 8.30759L3.21901 13.832C2.91952 14.0717 2.48699 14.0469 2.21706 13.7744C1.94712 13.5017 1.92641 13.0686 2.16921 12.7715L7.71901 5.9824L6.68288 5.21286C6.65469 5.19191 6.62778 5.16919 6.6028 5.14451C5.99284 4.54083 6.28143 3.50178 7.1155 3.29978L7.12429 3.29783L12.6555 2.02927ZM8.32155 4.5615L9.24343 5.24704C9.40777 5.36917 9.515 5.55364 9.5403 5.75681C9.56549 5.96016 9.50688 6.16554 9.37722 6.32419L7.82643 8.22068L9.75417 6.67771L9.88015 6.59568C10.1863 6.43788 10.5713 6.50843 10.8001 6.78318L11.5813 7.72165L12.387 3.6279L8.32155 4.5615Z" fill="#7D8198"/>
</svg>
