<svg width="16" height="16" viewBox="0 0 16 16" fill="none" xmlns="http://www.w3.org/2000/svg">
<path d="M10.265 14H6.63844C4.08379 14 2 12.16 2 9.90998V7.71998C2 6.69998 2.52095 5.69998 3.4827 4.92998C3.99363 4.51998 5.05556 3.33998 6.398 1.70998C6.99909 0.949983 7.96084 0.779983 8.61203 1.29998C9.08288 1.66998 9.32332 2.19998 9.32332 2.81998C9.32332 3.11998 9.25319 3.42998 9.16303 3.78998C9.04281 4.28998 8.91257 4.70998 8.73225 5.14998H11.6976C12.419 5.14998 13.0802 5.44998 13.521 5.95998C13.9017 6.40998 14.072 6.96998 13.9718 7.53998L13.3106 11.61C13.1102 12.98 11.7978 14 10.255 14H10.265ZM7.69035 2.48998C7.69035 2.48998 7.63024 2.55998 7.5501 2.64998C6.53826 3.87998 5.17578 5.46998 4.42441 6.08998C4.07377 6.36998 3.50273 6.95998 3.50273 7.71998V9.90998C3.50273 11.34 4.90528 12.5 6.63844 12.5H10.265C11.0665 12.5 11.7477 12.02 11.8379 11.38C11.8379 11.38 11.8379 11.38 11.8379 11.37L12.4991 7.28998C12.5292 7.12998 12.449 6.99998 12.3789 6.91998C12.2286 6.73998 11.9681 6.63998 11.6976 6.63998H8.13115C7.73042 6.63998 7.36977 6.44998 7.1694 6.11998C6.96904 5.79998 6.949 5.39998 7.11931 5.05998C7.39982 4.49998 7.56011 4.04998 7.70037 3.43998C7.76048 3.17998 7.82059 2.93998 7.82059 2.81998C7.82059 2.66998 7.78052 2.56998 7.68033 2.48998H7.69035Z" fill="#7D8198"/>
</svg>
