<svg width="16" height="16" viewBox="0 0 16 16" fill="none" xmlns="http://www.w3.org/2000/svg">
<path d="M5.74785 7.25C5.33363 7.25 4.99785 7.58579 4.99785 8C4.99785 8.41421 5.33363 8.75 5.74785 8.75L10.2478 8.75C10.6621 8.75 10.9978 8.41421 10.9978 8C10.9978 7.58579 10.6621 7.25 10.2478 7.25L5.74785 7.25Z" fill="#7D8198"/>
<path fill-rule="evenodd" clip-rule="evenodd" d="M8 15C11.866 15 15 11.866 15 8C15 4.13401 11.866 1 8 1C4.13401 1 1 4.13401 1 8C1 11.866 4.13401 15 8 15ZM13.5 8C13.5 11.0376 11.0376 13.5 8 13.5C4.96243 13.5 2.5 11.0376 2.5 8C2.5 4.96243 4.96243 2.5 8 2.5C11.0376 2.5 13.5 4.96243 13.5 8Z" fill="#7D8198"/>
</svg>
