<svg width="16" height="16" viewBox="0 0 16 16" fill="none" xmlns="http://www.w3.org/2000/svg">
<path d="M4.31132 3.75024C4.17393 3.9051 3.97342 4.00269 3.75012 4.00269C3.33591 4.00269 3.00012 3.6669 3.00012 3.25269L3.00012 2.75269C3.00012 2.33847 3.33591 2.00269 3.75012 2.00269C3.97107 2.00269 4.1697 2.09822 4.30695 2.25024L11.6923 2.25024C11.8296 2.09822 12.0282 2.00269 12.2491 2.00269C12.6634 2.00269 12.9991 2.33847 12.9991 2.75269V3.25269C12.9991 3.6669 12.6634 4.00269 12.2491 4.00269C12.0258 4.00269 11.8253 3.9051 11.6879 3.75024L8.75012 3.75024V5.75C8.75012 6.16421 8.41434 6.5 8.00012 6.5C7.58591 6.5 7.25012 6.16421 7.25012 5.75V3.75024L4.31132 3.75024Z" fill="#7D8198"/>
<path d="M7.25012 9.50415V12.4998H6.75402C6.33981 12.4998 6.00402 12.8355 6.00402 13.2498C6.00402 13.664 6.33981 13.9998 6.75402 13.9998H9.25403C9.66824 13.9998 10.004 13.664 10.004 13.2498C10.004 12.8355 9.66824 12.4998 9.25403 12.4998H8.75012V9.50415H13.25C13.6642 9.50415 14 9.16836 14 8.75415C14 8.33994 13.6642 8.00415 13.25 8.00415H2.75208C2.33786 8.00415 2.00208 8.33994 2.00208 8.75415C2.00208 9.16836 2.33786 9.50415 2.75208 9.50415H7.25012Z" fill="#7D8198"/>
</svg>
