<svg width="16" height="16" viewBox="0 0 16 16" fill="none" xmlns="http://www.w3.org/2000/svg">
<path d="M6.25009 8C6.66432 8 7.00012 7.66421 7.00012 7.25C7.00012 6.83579 6.66432 6.5 6.25009 6.5C5.83586 6.5 5.50006 6.83579 5.50006 7.25C5.50006 7.66421 5.83586 8 6.25009 8Z" fill="#7D8198"/>
<path d="M9.25012 7.25C9.25012 7.66421 8.91432 8 8.50009 8C8.08586 8 7.75006 7.66421 7.75006 7.25C7.75006 6.83579 8.08586 6.5 8.50009 6.5C8.91432 6.5 9.25012 6.83579 9.25012 7.25Z" fill="#7D8198"/>
<path d="M10.7501 8C11.1643 8 11.5001 7.66421 11.5001 7.25C11.5001 6.83579 11.1643 6.5 10.7501 6.5C10.3359 6.5 10.0001 6.83579 10.0001 7.25C10.0001 7.66421 10.3359 8 10.7501 8Z" fill="#7D8198"/>
<path fill-rule="evenodd" clip-rule="evenodd" d="M8.49576 1C4.91787 1 1.99762 3.92058 1.99762 7.49822C1.99762 8.52557 2.22288 9.47381 2.65158 10.3384L2.03837 12.6252C1.9293 13.022 2.06499 13.4 2.28589 13.6447C2.51147 13.8947 2.90455 14.0856 3.34849 13.9615L3.35068 13.9609L5.60393 13.3235C6.4723 13.7523 7.46633 14 8.49576 14C12.0736 14 14.9976 11.0759 14.9976 7.49822C14.9976 3.91995 12.073 1 8.49576 1ZM3.49762 7.49822C3.49762 4.74895 5.74636 2.5 8.49576 2.5C11.2458 2.5 13.4976 4.74958 13.4976 7.49822C13.4976 10.2475 11.2452 12.5 8.49576 12.5C7.61757 12.5 6.76891 12.2645 6.0523 11.8653C5.87886 11.7687 5.67419 11.7447 5.48316 11.7988L3.67587 12.31L4.1764 10.4435C4.22694 10.255 4.20204 10.0543 4.10698 9.88384C3.70976 9.17178 3.49762 8.38281 3.49762 7.49822Z" fill="#7D8198"/>
</svg>
