<svg width="16" height="16" viewBox="0 0 16 16" fill="none" xmlns="http://www.w3.org/2000/svg">
<path d="M7.24809 1.74634C7.24809 1.33212 7.58388 0.996338 7.99809 0.996338C11.865 0.996338 15 4.13129 15 7.99825C15 11.8652 11.865 15.0002 7.99809 15.0002C4.13114 15.0002 0.996185 11.8652 0.996185 7.99825C0.996185 6.27914 1.7349 4.33568 2.93468 3.20434C3.23604 2.92016 3.71071 2.9341 3.99488 3.23546C4.27905 3.53682 4.26512 4.01149 3.96376 4.29566C3.10885 5.10182 2.49619 6.62711 2.49619 7.99825C2.49619 11.0368 4.95956 13.5002 7.99809 13.5002C11.0366 13.5002 13.5 11.0368 13.5 7.99825C13.5 5.21412 11.4318 2.91286 8.74809 2.54703V3.25201C8.74809 3.66622 8.41231 4.00201 7.99809 4.00201C7.58388 4.00201 7.24809 3.66622 7.24809 3.25201V1.74634Z" fill="#7D8198"/>
<path d="M5.21964 5.2197C5.51252 4.92679 5.98739 4.92676 6.2803 5.21964L8.11163 7.05077C8.2355 7.01765 8.36569 7 8.5 7C9.32843 7 10 7.67157 10 8.5C10 9.32843 9.32843 10 8.5 10C7.67157 10 7 9.32843 7 8.5C7 8.36557 7.01768 8.23528 7.05085 8.11131L5.2197 6.28036C4.92679 5.98748 4.92676 5.51261 5.21964 5.2197Z" fill="#7D8198"/>
</svg>
