<svg fill="none" height="16" viewBox="0 0 16 16" width="16" xmlns="http://www.w3.org/2000/svg"><g fill="#7d8198"><path d="m8.79496 1.00495.36816.05289c.85548.14456 1.67798.44709 2.42478.89413l.3145.19978c.7205.48519 1.3457 1.10154 1.8428 1.81764l.2041.31143c.4573.73968.7737 1.55918.9326 2.41699l.0586.36921c.0967.73938.0752 1.48947-.0635 2.2221l-.0791.36529c-.2075.84709-.5699 1.64709-1.0684 2.35919l-.2226.2997c-.5369.6861-1.1958 1.265-1.9424 1.7079l-.3252.1822c-.7712.4037-1.6101.6588-2.47266.7541l-.3711.0313c-.99248.0563-1.98553-.1007-2.91308-.4593-.38635-.1494-.57846-.584-.42969-.9715.14893-.3874.58235-.581.96875-.4319.72873.2817 1.50932.4047 2.28906.3604l.29199-.0245c.67766-.0749 1.3365-.2753 1.94243-.5924l.2558-.143c.5866-.3481 1.1046-.8027 1.5264-1.3417l.1738-.236c.3918-.5597.6768-1.1882.8399-1.85391l.0625-.28596c.1091-.57602.1259-1.1658.0498-1.74713l-.0459-.28988c-.1249-.67357-.3734-1.31706-.7325-1.89794l-.1611-.24582c-.3904-.56231-.8815-1.0458-1.4473-1.42688l-.247-.15767c-.5868-.3513-1.23307-.58955-1.9053-.70316l-.29004-.04114-.0752-.01175c-.37162-.08113-.62905-.43362-.58496-.82068.04414-.38681.37388-.671662.75391-.66692z"/><path d="m6.04886 1.23804c.39766-.11551.81328.1144.92871.51317.11529.39875-.11319.81545-.51074.93134-1.14434.33316-2.14987 1.03042-2.86523 1.98608l-.04981.05974c-.25779.27983-.69055.32376-1.00097.0901-.33091-.24942-.39791-.7207-.14942-1.05278l.17481-.22427c.89615-1.10138 2.10709-1.90582 3.47265-2.30338z"/><path d="m1.13968 6.5842c.08233-.40696.47799-.66992.88379-.58759.40588.08257.66816.47927.58594.88629-.17374.85891-.14004 1.74768.09668 2.59131.20719.73809.565 1.42359 1.04981 2.01349l.21484.2468.0498.0588c.2292.3039.19625.7387-.08789 1.0038-.28441.265-.7193.2661-1.00488.0147l-.05566-.0539-.27442-.3134c-.52895-.6436-.93847-1.3772-1.21094-2.1653l-.125-.39759c-.301274-1.07369-.343176-2.20428-.12207-3.29741z"/><path d="m9.79496 6.1298c.32834-.25321.79924-.19114 1.05174.13808.2524.3292.1915.80148-.1367 1.05474l-3.25 2.50709c-.27881.21509-.66229.20339-.92676-.0098l-.10547-.1038-1.25293-1.49936-.0459-.0617c-.21344-.31549-.15807-.74788.13965-.99794.29767-.24999.73163-.22872 1.00391.03722l.05273.0568.78906.94505z"/></g></svg>