<svg width="16" height="16" viewBox="0 0 16 16" fill="none" xmlns="http://www.w3.org/2000/svg">
<path d="M5.99998 4.25C5.99998 4.66421 5.6642 5 5.24998 5H2.74998C2.55107 5 2.3603 4.92098 2.21965 4.78033C2.079 4.63968 1.99998 4.44891 1.99998 4.25L1.99998 1.75C1.99998 1.33579 2.33577 1 2.74998 1C3.1642 1 3.49998 1.33579 3.49998 1.75V2.63816C4.07604 2.15469 4.72762 1.76607 5.4304 1.48873C6.38056 1.11376 7.40128 0.951278 8.42091 1.0127C9.44054 1.07412 10.4344 1.35794 11.3327 1.84426C12.2309 2.33057 13.0119 3.00759 13.6207 3.8278C13.8676 4.16039 13.7981 4.63016 13.4655 4.87704C13.1329 5.12393 12.6632 5.05444 12.4163 4.72185C11.9379 4.0774 11.3243 3.54546 10.6185 3.16335C9.91272 2.78125 9.13185 2.55824 8.33072 2.50998C7.52958 2.46172 6.72759 2.58939 5.98103 2.88401C5.57576 3.04394 5.19216 3.25097 4.83778 3.5H5.24998C5.6642 3.5 5.99998 3.83579 5.99998 4.25Z" fill="#7D8198"/>
<path d="M2 9.00003C2.55228 9.00003 3 8.55232 3 8.00003C3 7.44775 2.55228 7.00003 2 7.00003C1.44772 7.00003 1 7.44775 1 8.00003C1 8.55232 1.44772 9.00003 2 9.00003Z" fill="#7D8198"/>
<path d="M14 9.00003C14.5523 9.00003 15 8.55232 15 8.00003C15 7.44775 14.5523 7.00003 14 7.00003C13.4477 7.00003 13 7.44775 13 8.00003C13 8.55232 13.4477 9.00003 14 9.00003Z" fill="#7D8198"/>
<path d="M10 11.7501C10 11.3358 10.3358 11.0001 10.75 11.0001H13.25C13.4489 11.0001 13.6397 11.0791 13.7803 11.2197C13.921 11.3604 14 11.5511 14 11.7501L14 14.2501C14 14.6643 13.6642 15.0001 13.25 15.0001C12.8358 15.0001 12.5 14.6643 12.5 14.2501V13.3619C11.9266 13.8432 11.2783 14.2305 10.5791 14.5076C9.63274 14.8827 8.61592 15.0468 7.59957 14.9886C6.58322 14.9303 5.5918 14.6511 4.69444 14.1704C3.79708 13.6897 3.01537 13.019 2.40381 12.2051C2.15498 11.874 2.22171 11.4038 2.55286 11.155C2.884 10.9062 3.35416 10.9729 3.60299 11.304C4.0835 11.9435 4.6977 12.4705 5.40277 12.8482C6.10784 13.2259 6.88681 13.4453 7.68537 13.491C8.48393 13.5368 9.28287 13.4078 10.0265 13.1131C10.429 12.9536 10.81 12.7475 11.1622 12.5001H10.75C10.3358 12.5001 10 12.1643 10 11.7501Z" fill="#7D8198"/>
</svg>
