<svg width="16" height="16" viewBox="0 0 16 16" fill="none" xmlns="http://www.w3.org/2000/svg">
<path fill-rule="evenodd" clip-rule="evenodd" d="M5.74319 2C4.49757 2 3.65074 3.2645 4.125 4.4163L4.29225 4.8225C4.79133 6.03458 4.51341 7.42782 3.58748 8.35565L3.22367 8.72021C3.00949 8.93483 2.9456 9.2573 3.06178 9.53737C3.17795 9.81743 3.45133 10 3.75454 10H7.25001V13.2543C7.25001 13.6685 7.5858 14.0043 8.00001 14.0043C8.41422 14.0043 8.75001 13.6685 8.75001 13.2543V10H12.2544C12.5579 10 12.8315 9.81711 12.9475 9.53667C13.0635 9.25623 12.999 8.93352 12.7842 8.71914L12.4193 8.35494C11.4898 7.42728 11.2099 6.03138 11.7099 4.81709L11.8749 4.41633C12.3492 3.26452 11.5024 2 10.2567 2H5.74319ZM5.51202 3.84519C5.44427 3.68064 5.56524 3.5 5.74319 3.5H10.2567C10.4347 3.5 10.5557 3.68065 10.4879 3.84519L10.3229 4.24595C9.74263 5.65512 9.881 7.23161 10.6427 8.5H5.36264C6.12158 7.23241 6.25861 5.65839 5.67927 4.25139L5.51202 3.84519Z" fill="#7D8198"/>
</svg>
