<svg width="16" height="16" viewBox="0 0 16 16" fill="none" xmlns="http://www.w3.org/2000/svg">
<path d="M4.75 2C4.33579 2 4 2.33579 4 2.75C4 3.16421 4.33579 3.5 4.75 3.5H11.25C11.6642 3.5 12 3.16421 12 2.75C12 2.33579 11.6642 2 11.25 2H4.75Z" fill="#7D8198"/>
<path d="M9.5 8.49951C9.5 9.32794 8.82843 9.99951 8 9.99951C7.17157 9.99951 6.5 9.32794 6.5 8.49951C6.5 7.67108 7.17157 6.99951 8 6.99951C8.82843 6.99951 9.5 7.67108 9.5 8.49951Z" fill="#7D8198"/>
<path fill-rule="evenodd" clip-rule="evenodd" d="M3.75 4.5C2.7835 4.5 2 5.2835 2 6.25V12.25C2 13.2165 2.7835 14 3.75 14H12.25C13.2165 14 14 13.2165 14 12.25V6.25C14 5.2835 13.2165 4.5 12.25 4.5H3.75ZM3.5 6.25C3.5 6.11193 3.61193 6 3.75 6H12.25C12.3881 6 12.5 6.11193 12.5 6.25V12.25C12.5 12.3881 12.3881 12.5 12.25 12.5H10.7862C10.4573 11.9101 9.68001 11.0077 8.00004 11C6.32007 11.0077 5.54273 11.9101 5.21385 12.5H3.75C3.61193 12.5 3.5 12.3881 3.5 12.25V6.25Z" fill="#7D8198"/>
</svg>
