<svg width="16" height="16" viewBox="0 0 16 16" fill="none" xmlns="http://www.w3.org/2000/svg">
<path fill-rule="evenodd" clip-rule="evenodd" d="M7.99945 2C4.68608 2 2 4.68608 2 7.99945C2 11.3128 4.68608 13.9989 7.99945 13.9989C8.74001 13.9989 9.45065 13.8644 10.1072 13.6181C10.495 13.4725 10.6915 13.0402 10.546 12.6524C10.4005 12.2646 9.96811 12.0681 9.58029 12.2136C9.08957 12.3978 8.55725 12.4989 7.99945 12.4989C5.51451 12.4989 3.5 10.4844 3.5 7.99945C3.5 5.51451 5.51451 3.5 7.99945 3.5C10.4844 3.5 12.4989 5.51451 12.4989 7.99945V8.58272C12.4989 9.13499 12.0513 9.58254 11.4991 9.58254C10.9468 9.58254 10.4993 9.13499 10.4993 8.58272V8.02395C10.4993 8.01582 10.4994 8.00768 10.4994 7.99954C10.4994 7.9914 10.4993 7.98326 10.4993 7.97513V5.66636C10.4993 5.25215 10.1635 4.91636 9.74926 4.91636C9.46234 4.91636 9.21305 5.07748 9.08693 5.31417C8.68824 5.06313 8.22138 4.91645 7.7079 4.91645C6.07701 4.91645 4.91645 6.39615 4.91645 7.99954C4.91645 9.60293 6.07701 11.0826 7.7079 11.0826C8.47602 11.0826 9.1398 10.7544 9.62714 10.2396C10.0851 10.7566 10.754 11.0825 11.4991 11.0825C12.8798 11.0825 13.9989 9.96342 13.9989 8.58272V7.99945C13.9989 4.68608 11.3128 2 7.99945 2ZM8.99926 7.98015V8.01892C8.99039 8.97714 8.32429 9.58263 7.7079 9.58263C7.08736 9.58263 6.41645 8.96896 6.41645 7.99954C6.41645 7.03011 7.08736 6.41645 7.7079 6.41645C8.32429 6.41645 8.99039 7.02194 8.99926 7.98015Z" fill="#7D8198"/>
</svg>
