<svg width="16" height="16" viewBox="0 0 16 16" fill="none" xmlns="http://www.w3.org/2000/svg">
<path d="M8.55485 1.24799C8.41258 1.09008 8.20999 0.999946 7.99744 1C7.78489 1.00005 7.58235 1.09029 7.44016 1.24828L5.19016 3.74828C4.91307 4.05616 4.93803 4.53038 5.24591 4.80747C5.55379 5.08457 6.02801 5.05961 6.3051 4.75172L7.24763 3.70447V6.25C7.24763 6.66421 7.58342 7 7.99763 7C8.41185 7 8.74763 6.66421 8.74763 6.25V3.70297L9.69274 4.75201C9.96999 5.05975 10.4442 5.08447 10.752 4.80721C11.0597 4.52996 11.0844 4.05573 10.8072 3.74799L8.55485 1.24799Z" fill="#7D8198"/>
<path d="M7.44248 14.7476C7.58471 14.9056 7.78734 14.9958 7.99995 14.9958C8.21257 14.9958 8.41519 14.9056 8.55742 14.7476L10.8074 12.2476C11.0845 11.9397 11.0596 11.4655 10.7517 11.1884C10.4438 10.9113 9.96958 10.9362 9.69248 11.2441L8.74763 12.294V9.75171C8.74763 9.3375 8.41185 9.00171 7.99763 9.00171C7.58342 9.00171 7.24763 9.3375 7.24763 9.75171V12.2888L6.30742 11.2441C6.03033 10.9362 5.55611 10.9113 5.24823 11.1884C4.94035 11.4655 4.91539 11.9397 5.19248 12.2476L7.44248 14.7476Z" fill="#7D8198"/>
<path d="M12 2.75C12 2.33579 12.3357 2 12.75 2H13.2514C14.2179 2 15.0014 2.7835 15.0014 3.75L15.0014 12.25C15.0014 13.2165 14.2179 14 13.2514 14H12.75C12.3357 14 12 13.6642 12 13.25C12 12.8358 12.3357 12.5 12.75 12.5H13.2514C13.3894 12.5 13.5014 12.3881 13.5014 12.25L13.5014 3.75C13.5014 3.61193 13.3894 3.5 13.2514 3.5H12.75C12.3357 3.5 12 3.16421 12 2.75Z" fill="#7D8198"/>
<path d="M3.24995 2C3.66417 2 3.99995 2.33579 3.99995 2.75C3.99995 3.16421 3.66417 3.5 3.24995 3.5H2.7467C2.60863 3.5 2.4967 3.61193 2.4967 3.75V12.25C2.4967 12.3881 2.60863 12.5 2.7467 12.5H3.24995C3.66417 12.5 3.99995 12.8358 3.99995 13.25C3.99995 13.6642 3.66417 14 3.24995 14H2.7467C1.78021 14 0.996704 13.2165 0.996704 12.25V3.75C0.996704 2.7835 1.78021 2 2.7467 2H3.24995Z" fill="#7D8198"/>
</svg>
