<svg width="16" height="16" viewBox="0 0 16 16" fill="none" xmlns="http://www.w3.org/2000/svg">
<path d="M4 6.5C4 6.22386 4.22386 6 4.5 6H11.4968C11.773 6 11.9968 6.22386 11.9968 6.5V7.5C11.9968 7.77614 11.773 8 11.4968 8H4.5C4.22386 8 4 7.77614 4 7.5V6.5Z" fill="#7D8198"/>
<path d="M4.75 8.5C4.33579 8.5 4 8.83579 4 9.25C4 9.66421 4.33579 10 4.75 10H7.25C7.66421 10 8 9.66421 8 9.25C8 8.83579 7.66421 8.5 7.25 8.5H4.75Z" fill="#7D8198"/>
<path fill-rule="evenodd" clip-rule="evenodd" d="M0.998413 4.74805C0.998413 3.78155 1.78191 2.99805 2.74841 2.99805H13.2484C14.2149 2.99805 14.9984 3.78155 14.9984 4.74805V11.2518C14.9984 12.2183 14.2149 13.0018 13.2484 13.0018H2.74841C1.78191 13.0018 0.998413 12.2183 0.998413 11.2518V4.74805ZM2.74841 4.49805C2.61034 4.49805 2.49841 4.60998 2.49841 4.74805V11.2518C2.49841 11.3899 2.61034 11.5018 2.74841 11.5018H13.2484C13.3865 11.5018 13.4984 11.3899 13.4984 11.2518V4.74805C13.4984 4.60998 13.3865 4.49805 13.2484 4.49805H2.74841Z" fill="#7D8198"/>
</svg>
