<svg width="16" height="16" viewBox="0 0 16 16" fill="none" xmlns="http://www.w3.org/2000/svg">
<path d="M13.2297 3.17349C13.0061 2.98742 12.695 2.94744 12.4316 3.07093C12.1682 3.19442 12 3.4591 12 3.75001V4.25H10.0951C9.15698 4.25 8.28355 4.72826 7.7782 5.51868L7.08239 6.607L6.2258 5.26803C5.72038 4.47799 4.84716 4 3.90928 4H1.75C1.33579 4 1 4.33579 1 4.75C1 5.16421 1.33579 5.5 1.75 5.5H3.90928C4.33559 5.5 4.73251 5.71727 4.96225 6.07638L6.19232 7.99916L4.96212 9.92333C4.73241 10.2826 4.3354 10.5 3.90896 10.5H1.75C1.33579 10.5 1 10.8358 1 11.25C1 11.6642 1.33579 12 1.75 12H3.90896C4.84712 12 5.72055 11.5217 6.2259 10.7313L7.08278 9.39107L7.77821 10.4781C8.28363 11.2682 9.15685 11.7461 10.0947 11.7461H12V12.25C12 12.5409 12.1682 12.8056 12.4316 12.9291C12.695 13.0526 13.0061 13.0126 13.2297 12.8265L14.732 11.5765C14.9032 11.434 15.0023 11.2228 15.0023 11C15.0023 10.7772 14.9032 10.566 14.732 10.4235L13.2297 9.17349C13.0061 8.98742 12.695 8.94744 12.4316 9.07093C12.1682 9.19442 12 9.4591 12 9.75001V10.2461H10.0947C9.66842 10.2461 9.2715 10.0289 9.04176 9.66977L7.97285 7.99891L9.04198 6.32667C9.27169 5.96739 9.6687 5.75 10.0951 5.75H12V6.25001C12 6.54092 12.1682 6.80559 12.4316 6.92908C12.695 7.05257 13.0061 7.0126 13.2297 6.82653L14.732 5.57653C14.9032 5.43404 15.0023 5.22279 15.0023 5.00001C15.0023 4.77723 14.9032 4.56598 14.732 4.42349L13.2297 3.17349Z" fill="#7D8198"/>
</svg>
