<svg width="16" height="16" viewBox="0 0 16 16" fill="none" xmlns="http://www.w3.org/2000/svg">
<path d="M5 5C5.55228 5 6 5.44772 6 6C6 6.55228 5.55228 7 5 7C4.44772 7 4 6.55228 4 6C4 5.44772 4.44772 5 5 5Z" fill="#7D8198"/>
<path fill-rule="evenodd" clip-rule="evenodd" d="M7.25 2C8.2165 2 9 2.7835 9 3.75V12.25C9 13.2165 8.2165 14 7.25 14H2.75C1.7835 14 1 13.2165 1 12.25V3.75C1 2.7835 1.7835 2 2.75 2H7.25ZM4.67676 9.56543C4.57915 9.4679 4.42085 9.4679 4.32324 9.56543L2.5 11.3887V12.25C2.5 12.3881 2.61193 12.5 2.75 12.5H7.25C7.34787 12.5 7.43161 12.4433 7.47266 12.3613L4.67676 9.56543ZM2.75 3.5C2.61193 3.5 2.5 3.61193 2.5 3.75V9.26758L3.2627 8.50488C3.94609 7.82157 5.05391 7.82157 5.7373 8.50488L7.5 10.2676V3.75C7.5 3.61193 7.38807 3.5 7.25 3.5H2.75Z" fill="#7D8198"/>
<path d="M14.25 11C14.6642 11 15 11.3358 15 11.75V13.25C15 13.6642 14.6642 14 14.25 14H11.75C11.3358 14 11 13.6642 11 13.25C11 12.8358 11.3358 12.5 11.75 12.5H13.5V11.75C13.5 11.3358 13.8358 11 14.25 11Z" fill="#7D8198"/>
<path d="M14.25 5.99707C14.6641 5.99708 14.9999 6.33295 15 6.74707V9.24902C15 9.66323 14.6642 9.99902 14.25 9.99902C13.8358 9.99902 13.5 9.66324 13.5 9.24902V6.74707C13.5001 6.33294 13.8358 5.99707 14.25 5.99707Z" fill="#7D8198"/>
<path d="M14.25 2C14.6642 2.00002 15 2.3358 15 2.75V4.25C15 4.66421 14.6642 4.99999 14.25 5C13.8358 5 13.5 4.66421 13.5 4.25V3.5H11.75C11.3358 3.49999 11 3.16421 11 2.75C11 2.33579 11.3358 2.00001 11.75 2H14.25Z" fill="#7D8198"/>
</svg>
