<svg width="16" height="16" viewBox="0 0 16 16" fill="none" xmlns="http://www.w3.org/2000/svg">
<path fill-rule="evenodd" clip-rule="evenodd" d="M11.6182 2.66667C12.5654 2.66667 13.3333 3.43459 13.3333 4.38178V11.6182C13.3333 12.5654 12.5654 13.3333 11.6182 13.3333H4.38179C3.4346 13.3333 2.66668 12.5654 2.66668 11.6182V4.38178C2.66668 3.43459 3.4346 2.66667 4.38179 2.66667H11.6182ZM12.3333 4.38178C12.3333 3.98688 12.0131 3.66667 11.6182 3.66667H4.38179C3.98689 3.66667 3.66668 3.98688 3.66668 4.38178V11.6182C3.66668 12.0131 3.98689 12.3333 4.38179 12.3333H11.6182C12.0131 12.3333 12.3333 12.0131 12.3333 11.6182V4.38178ZM5.05555 11.5H5.94444C6.25126 11.5 6.49999 11.2513 6.49999 10.9444V5.05556C6.49999 4.74873 6.25126 4.5 5.94444 4.5H5.05555C4.74872 4.5 4.49999 4.74873 4.49999 5.05556V10.9444C4.49999 11.2513 4.74872 11.5 5.05555 11.5Z" fill="#5B53FF"/>
<path fill-rule="evenodd" clip-rule="evenodd" d="M10.1035 6.60355C10.2988 6.40829 10.2988 6.09171 10.1035 5.89645C9.90829 5.70118 9.5917 5.70118 9.39644 5.89645L7.64832 7.64457C7.55673 7.7352 7.49998 7.86097 7.49998 8.00001C7.49998 8.13904 7.55673 8.26482 7.64833 8.35544L9.39644 10.1036C9.5917 10.2988 9.90829 10.2988 10.1035 10.1036C10.2988 9.90829 10.2988 9.59171 10.1035 9.39645L9.2071 8.50001H11.25C11.5261 8.50001 11.75 8.27615 11.75 8.00001C11.75 7.72386 11.5261 7.50001 11.25 7.50001H9.2071L10.1035 6.60355Z" fill="#5B53FF"/>
</svg>
