<svg width="16" height="16" viewBox="0 0 16 16" fill="none" xmlns="http://www.w3.org/2000/svg">
<path d="M1.666 5.02004C1.68431 4.98113 1.70296 4.94242 1.72195 4.90391L2.86026 6.04223C2.47767 7.0466 2.39668 8.14434 2.63234 9.19919C2.8984 10.3901 3.55293 11.4587 4.49291 12.2368C5.43288 13.0149 6.60493 13.4583 7.82455 13.4972C8.55708 13.5206 9.28178 13.3973 9.9578 13.1398L11.0961 14.2781C10.0708 14.7837 8.93137 15.0333 7.7767 14.9964C6.22445 14.9469 4.73275 14.3826 3.53642 13.3922C2.34008 12.4019 1.50704 11.0419 1.16843 9.52624C0.829818 8.01056 1.00486 6.42532 1.666 5.02004Z" fill="#7D8198"/>
<path d="M14.2781 11.0961L13.1398 9.95779C13.1921 9.82056 13.239 9.68089 13.2803 9.53907C13.3962 9.1414 13.8125 8.91299 14.2102 9.0289C14.6079 9.14481 14.8363 9.56115 14.7204 9.95881C14.6057 10.3522 14.4574 10.7325 14.2781 11.0961Z" fill="#7D8198"/>
<path d="M4.90393 1.72193L6.04224 2.86024C6.99035 2.49909 8.02393 2.40587 9.02815 2.59696C9.80014 2.74386 10.5266 3.0534 11.1616 3.49952H10.75C10.3358 3.49952 10 3.8353 10 4.24952C10 4.66373 10.3358 4.99952 10.75 4.99952H13.25C13.6638 4.99952 13.9993 4.66451 14 4.25079L14.0043 1.75128C14.005 1.33707 13.6698 1.00071 13.2556 1.00001C12.8413 0.999306 12.505 1.33452 12.5043 1.74874L12.5028 2.6404C11.5898 1.87341 10.4912 1.34844 9.30855 1.1234C7.8135 0.83891 6.26733 1.04955 4.90393 1.72193Z" fill="#7D8198"/>
<path d="M1.21967 2.28035L13.7197 14.7803C14.0126 15.0732 14.4875 15.0732 14.7804 14.7803C15.0733 14.4875 15.0733 14.0126 14.7804 13.7197L2.28033 1.21969C1.98744 0.926792 1.51256 0.926792 1.21967 1.21969C0.926776 1.51258 0.926777 1.98745 1.21967 2.28035Z" fill="#7D8198"/>
</svg>
