<svg width="16" height="16" viewBox="0 0 16 16" fill="none" xmlns="http://www.w3.org/2000/svg">
<path fill-rule="evenodd" clip-rule="evenodd" d="M3.24555 2.15938C3.2697 2.06968 3.39697 2.06968 3.42112 2.15938L3.53925 2.59817C3.60875 2.85629 3.81037 3.05791 4.06849 3.1274L4.50728 3.24554C4.59698 3.26969 4.59698 3.39696 4.50728 3.42111L4.06849 3.53925C3.81037 3.60874 3.60875 3.81036 3.53925 4.06848L3.42112 4.50727C3.39697 4.59697 3.2697 4.59697 3.24555 4.50727L3.12741 4.06848C3.05792 3.81036 2.8563 3.60874 2.59818 3.53925L2.15938 3.42111C2.06968 3.39696 2.06968 3.26969 2.15938 3.24554L2.59818 3.1274C2.8563 3.05791 3.05792 2.85629 3.12741 2.59817L3.24555 2.15938ZM9.47964 2.37674C9.43939 2.22724 9.22728 2.22725 9.18703 2.37675L8.99013 3.10807C8.87431 3.53827 8.53827 3.8743 8.10808 3.99012L7.37675 4.18702C7.22725 4.22727 7.22725 4.43938 7.37675 4.47963L8.10808 4.67653C8.53828 4.79235 8.87431 5.12838 8.99013 5.55858L9.18703 6.28991C9.22728 6.43941 9.43939 6.43941 9.47964 6.28991L9.67653 5.55858C9.79236 5.12838 10.1284 4.79235 10.5586 4.67653L11.2899 4.47963C11.4394 4.43938 11.4394 4.22727 11.2899 4.18702L10.5586 3.99012C10.1284 3.8743 9.79236 3.53827 9.67653 3.10807L9.47964 2.37674ZM7.54709 6.37247L6.38582 7.56402L5.57653 6.75487C5.25227 6.42789 5.25227 5.90139 5.57653 5.57718C5.73728 5.41646 5.95069 5.33333 6.1641 5.33333C6.3775 5.33333 6.59091 5.41646 6.75443 5.57718L7.54709 6.37247ZM13.0901 13.0895C12.9266 13.253 12.716 13.3333 12.5026 13.3333C12.2892 13.3333 12.0785 13.253 11.915 13.0895L6.97614 8.15148L8.13741 6.95993L13.0901 11.9146C13.4144 12.2388 13.4144 12.7653 13.0901 13.0895ZM5.47061 8.84322L5.39186 8.55069C5.37575 8.49089 5.29091 8.49089 5.27481 8.55069L5.19605 8.84322C5.14972 9.0153 5.01531 9.14972 4.84323 9.19604L4.5507 9.2748C4.4909 9.2909 4.4909 9.37575 4.5507 9.39185L4.84323 9.4706C5.01531 9.51693 5.14972 9.65135 5.19605 9.82343L5.27481 10.116C5.29091 10.1758 5.37575 10.1758 5.39185 10.116L5.47061 9.82343C5.51694 9.65135 5.65136 9.51693 5.82343 9.47061L6.11596 9.39185C6.17576 9.37575 6.17576 9.2909 6.11596 9.2748L5.82343 9.19604C5.65136 9.14972 5.51694 9.0153 5.47061 8.84322Z" fill="#5B53FF"/>
</svg>
