<svg width="16" height="16" viewBox="0 0 16 16" fill="none" xmlns="http://www.w3.org/2000/svg">
<path fill-rule="evenodd" clip-rule="evenodd" d="M8.75417 1.74609C8.75417 1.33188 8.41838 0.996094 8.00417 0.996094C7.58996 0.996094 7.25417 1.33188 7.25417 1.74609V1.99997H6.49954C6.0876 1.99997 5.85239 2.47017 6.09942 2.79982L7.25417 4.34071V6.26359C7.25417 6.45604 7.04584 6.57633 6.87917 6.4801L5.19844 5.50973L4.44835 3.75356C4.28651 3.37465 3.76154 3.34313 3.55552 3.69996L3.1826 4.34588L2.96277 4.21897C2.60405 4.01186 2.14536 4.13477 1.93825 4.49349C1.73115 4.85221 1.85405 5.3109 2.21277 5.51801L2.4326 5.64492L2.05531 6.29841C1.84934 6.65515 2.13894 7.09396 2.54794 7.04484L4.45967 6.81525L6.12505 7.77676C6.29171 7.87298 6.29171 8.11355 6.12505 8.20977L4.44435 9.18012L2.54842 8.95163C2.13934 8.90233 1.84956 9.34121 2.05558 9.69804L2.42851 10.344L2.20862 10.4709C1.8499 10.678 1.727 11.1367 1.9341 11.4954C2.14121 11.8542 2.5999 11.9771 2.95862 11.77L3.17851 11.643L3.55579 12.2965C3.76176 12.6532 4.28658 12.6218 4.44854 12.2431L5.20557 10.4727L6.87087 9.51122C7.03754 9.415 7.24587 9.53528 7.24587 9.72773V11.6685L6.10008 13.1961C5.85285 13.5257 6.08804 13.9961 6.50007 13.9961H7.24587V14.25C7.24587 14.6642 7.58166 15 7.99587 15C8.41008 15 8.74587 14.6642 8.74587 14.25V13.9961H9.5005C9.91244 13.9961 10.1477 13.5259 9.90062 13.1963L8.74587 11.6554V9.7325C8.74587 9.54005 8.9542 9.41977 9.12087 9.51599L10.8016 10.4864L11.5517 12.2425C11.7135 12.6214 12.2385 12.653 12.4445 12.2961L12.8174 11.6502L13.0373 11.7771C13.396 11.9842 13.8547 11.8613 14.0618 11.5026C14.2689 11.1439 14.146 10.6852 13.7873 10.4781L13.5674 10.3512L13.9447 9.69769C14.1507 9.34094 13.8611 8.90214 13.4521 8.95125L11.5404 9.18084L9.87499 8.21934C9.70833 8.12311 9.70833 7.88255 9.87499 7.78632L11.5557 6.81597L13.4516 7.04447C13.8607 7.09377 14.1505 6.65489 13.9445 6.29806L13.5715 5.65212L13.7914 5.52517C14.1501 5.31807 14.273 4.85937 14.0659 4.50065C13.8588 4.14193 13.4001 4.01903 13.0414 4.22614L12.8215 4.35309L12.4442 3.69961C12.2383 3.34286 11.7135 3.37426 11.5515 3.75302L10.7945 5.52341L9.12917 6.48487C8.9625 6.5811 8.75417 6.46082 8.75417 6.26837V4.32758L9.89996 2.79998C10.1472 2.47037 9.912 1.99997 9.49997 1.99997H8.75417V1.74609ZM8.00114 7.99608L7.99893 7.99608L7.99778 7.99804L7.9989 8.00001L8.00111 8.00002L8.00226 7.99805L8.00114 7.99608Z" fill="#7D8198"/>
</svg>
