<svg width="16" height="16" viewBox="0 0 16 16" fill="none" xmlns="http://www.w3.org/2000/svg">
<path d="M5 5.75C5 5.33579 5.33579 5 5.75 5H10.25C10.6642 5 11 5.33579 11 5.75C11 6.16421 10.6642 6.5 10.25 6.5H8.74997L8.75 10.25C8.75 10.6642 8.41422 11 8.00001 11C7.58579 11 7.25 10.6642 7.25 10.25L7.24997 6.5H5.75C5.33579 6.5 5 6.16421 5 5.75Z" fill="#7D8198"/>
<path fill-rule="evenodd" clip-rule="evenodd" d="M3.75093 2C2.78535 2 2 2.78259 2 3.75V12.25C2 13.2165 2.7835 14 3.75 14H12.25C13.2165 14 14 13.2165 14 12.25V3.75C14 2.78259 13.2147 2 12.2491 2H3.75093ZM3.5 3.75C3.5 3.61284 3.61195 3.5 3.75093 3.5H12.2491C12.388 3.5 12.5 3.61284 12.5 3.75V12.25C12.5 12.3881 12.3881 12.5 12.25 12.5H3.75C3.61193 12.5 3.5 12.3881 3.5 12.25V3.75Z" fill="#7D8198"/>
</svg>
