<svg width="16" height="16" viewBox="0 0 16 16" fill="none" xmlns="http://www.w3.org/2000/svg">
<path fill-rule="evenodd" clip-rule="evenodd" d="M5.36118 4.38891C5.28435 4.38891 5.22229 4.45097 5.22229 4.52779V5.31254C5.2223 5.31448 5.2223 5.31643 5.22229 5.31837V7.7131L8.00001 9.06442L10.7778 7.71305V5.32564C10.7777 5.31904 10.7777 5.31244 10.7778 5.30583V4.52779C10.7778 4.45097 10.7158 4.38891 10.639 4.38891H5.36118ZM11.6112 5.07915V4.52779C11.6112 3.99073 11.176 3.55557 10.639 3.55557H5.36118C4.82412 3.55557 4.38896 3.99073 4.38896 4.52779V5.07881L3.0557 5.87158L3.05567 5.8716C2.67652 6.09702 2.44446 6.50537 2.44446 6.94612V11.1945C2.44446 12.1915 3.25295 13 4.25001 13H11.75C12.7471 13 13.5556 12.1915 13.5556 11.1945V6.9464C13.5556 6.50542 13.323 6.09726 12.9445 5.87196L12.9444 5.87188L11.6112 5.07915ZM11.6112 6.04867V7.30764L12.6889 6.78332C12.6548 6.70309 12.5957 6.63414 12.5183 6.58806L11.6112 6.04867ZM12.7222 7.69384L8.18229 9.90246C8.06722 9.95844 7.93281 9.95844 7.81774 9.90246L3.27779 7.69384V11.1945C3.27779 11.7313 3.71319 12.1667 4.25001 12.1667H11.75C12.2868 12.1667 12.7222 11.7313 12.7222 11.1945V7.69384ZM3.31092 6.78324L4.38896 7.30769V6.04833L3.48158 6.58787L3.48155 6.58789C3.40408 6.63395 3.34502 6.7029 3.31092 6.78324Z" fill="#5B53FF"/>
</svg>
