<svg width="16" height="16" viewBox="0 0 16 16" fill="none" xmlns="http://www.w3.org/2000/svg">
<path d="M8 5C8.41421 5 8.75 5.33579 8.75 5.75V7.25H10.25C10.6642 7.25 11 7.58579 11 8C11 8.41421 10.6642 8.75 10.25 8.75H8.75V10.25C8.75 10.6642 8.41421 11 8 11C7.58579 11 7.25 10.6642 7.25 10.25V8.75H5.75C5.33579 8.75 5 8.41421 5 8C5 7.58579 5.33579 7.25 5.75 7.25H7.25V5.75C7.25 5.33579 7.58579 5 8 5Z" fill="#7D8198"/>
<path fill-rule="evenodd" clip-rule="evenodd" d="M8 1C11.866 1 15 4.13401 15 8C15 11.866 11.866 15 8 15C4.13401 15 1 11.866 1 8C1 4.13401 4.13401 1 8 1ZM13.5 8C13.5 4.96243 11.0376 2.5 8 2.5C4.96243 2.5 2.5 4.96243 2.5 8C2.5 11.0376 4.96243 13.5 8 13.5C11.0376 13.5 13.5 11.0376 13.5 8Z" fill="#7D8198"/>
</svg>
