<svg width="16" height="16" viewBox="0 0 16 16" fill="none" xmlns="http://www.w3.org/2000/svg">
<path fill-rule="evenodd" clip-rule="evenodd" d="M2.75 3.5C2.61193 3.5 2.5 3.61193 2.5 3.75V12.1293L5.78396 8.3578C6.18239 7.90022 6.89321 7.90001 7.29191 8.35736L10.7663 12.3429C10.8102 12.3933 10.848 12.4458 10.8798 12.5H13.25C13.3881 12.5 13.5 12.3881 13.5 12.25V4.75C13.5 4.61193 13.3881 4.5 13.25 4.5H8.23607C7.96439 4.5 7.69644 4.43675 7.45344 4.31525L5.87574 3.52639C5.84102 3.50904 5.80274 3.5 5.76393 3.5H2.75ZM1 3.75C1 2.7835 1.7835 2 2.75 2H5.76393C6.03561 2 6.30356 2.06325 6.54656 2.18475L8.12426 2.97361C8.15898 2.99096 8.19726 3 8.23607 3H13.25C14.2165 3 15 3.7835 15 4.75V12.25C15 13.2165 14.2165 14 13.25 14H2.75C1.7835 14 1 13.2165 1 12.25V3.75ZM11 7C11 7.55228 10.5523 8 10 8C9.44771 8 9 7.55228 9 7C9 6.44772 9.44771 6 10 6C10.5523 6 11 6.44772 11 7ZM4.16615 12.5L6.53835 9.77563L8.91333 12.5H4.16615Z" fill="#7D8198"/>
</svg>
