<svg width="16" height="16" viewBox="0 0 16 16" fill="none" xmlns="http://www.w3.org/2000/svg">
<path fill-rule="evenodd" clip-rule="evenodd" d="M10.2473 4.19165C9.93888 3.9151 9.46471 3.9409 9.18816 4.24927C8.91161 4.55765 8.93741 5.03182 9.24579 5.30837L10.2931 6.24757H6.74854C5.22975 6.24757 3.99854 7.47878 3.99854 8.99757V10.2492C3.99854 10.6634 4.33432 10.9992 4.74854 10.9992C5.16275 10.9992 5.49854 10.6634 5.49854 10.2492V8.99757C5.49854 8.30721 6.05818 7.74757 6.74854 7.74757H10.2924L9.24488 8.69002C8.93696 8.96707 8.91193 9.44128 9.18898 9.74921C9.46603 10.0571 9.94024 10.0822 10.2482 9.80511L12.7516 7.55265C12.9099 7.41027 13.0002 7.20736 13 6.99449C12.9998 6.78162 12.9092 6.57886 12.7507 6.43674L10.2473 4.19165Z" fill="#7D8198"/>
</svg>
