<svg width="16" height="16" viewBox="0 0 16 16" fill="none" xmlns="http://www.w3.org/2000/svg">
<path fill-rule="evenodd" clip-rule="evenodd" d="M15 8C15 4.13401 11.866 1 8 1C4.13401 1 1 4.13401 1 8C1 11.866 4.13401 15 8 15C11.866 15 15 11.866 15 8ZM10.3381 12.9797C10.4883 12.7703 10.6169 12.5491 10.724 12.3401C11.0359 11.7314 11.0213 11.0237 10.8277 10.3677L10.7844 10.2208C10.6554 9.78357 10.399 9.39469 10.0479 9.10385L9.82987 8.92324C9.69827 8.81423 9.54303 8.73745 9.37651 8.69902L9.19954 8.65818C8.80516 8.56717 8.5258 8.21599 8.5258 7.81125C8.5258 7.58319 8.61543 7.36426 8.77537 7.20169L9.09639 6.87538C9.3905 6.57642 9.79233 6.40805 10.2117 6.40805H10.3655C10.5108 6.40805 10.654 6.44236 10.7835 6.50818L11.1272 6.68285C11.3966 6.81976 11.7259 6.71 11.8593 6.43884C12.0038 6.14505 11.8569 5.79117 11.5468 5.6861L10.8112 5.43685C10.6675 5.38817 10.5102 5.39947 10.375 5.46821L10.3024 5.50513C9.96072 5.67877 9.55614 5.43056 9.55614 5.04732C9.55614 4.91258 9.6091 4.78323 9.7036 4.68718L9.94532 4.44147C10.0289 4.35646 10.1234 4.28286 10.2263 4.22258L10.3432 4.15411C10.796 3.88876 11.3289 3.83166 11.7781 4.003C10.9122 3.18424 9.7804 2.6438 8.5258 2.52481V4.31008C8.5258 4.6334 8.34424 4.92934 8.05601 5.07583L7.91193 5.14906C7.66395 5.27509 7.3629 5.22599 7.16782 5.02769C7.04785 4.90574 6.88394 4.83706 6.71287 4.83706H6.6207C6.25025 4.83706 5.94994 5.13737 5.94994 5.50781C5.94994 5.74169 5.82812 5.95869 5.62845 6.08047L3.69559 7.2593C3.49592 7.38108 3.37409 7.59807 3.37409 7.83195C3.37409 8.20239 3.6744 8.5027 4.04484 8.5027H4.46324C4.75519 8.5027 5.03491 8.61991 5.23965 8.82803L5.70129 9.29727C6.19079 9.79484 6.46512 10.4649 6.46512 11.1628V11.2251C6.46512 12.1234 6.89351 12.96 7.60493 13.486C7.73542 13.4953 7.86716 13.5 8 13.5C8.83607 13.5 9.62856 13.3134 10.3381 12.9797Z" fill="#7D8198"/>
</svg>
