<svg width="16" height="16" viewBox="0 0 16 16" fill="none" xmlns="http://www.w3.org/2000/svg">
<path fill-rule="evenodd" clip-rule="evenodd" d="M3 2.75C3 1.7835 3.7835 1 4.75 1H8.58579C9.04992 1 9.49503 1.18437 9.82322 1.51256L12.4874 4.17678C12.8156 4.50496 13 4.95008 13 5.41421V6.25C13 6.66421 12.6642 7 12.25 7C11.9234 7 11.6456 6.7913 11.5427 6.5H9.75C8.7835 6.5 8 5.7165 8 4.75V2.5H4.75C4.61193 2.5 4.5 2.61193 4.5 2.75V12.25C4.5 12.3881 4.61193 12.5 4.75 12.5H6.25C6.66421 12.5 7 12.8358 7 13.25C7 13.6642 6.66421 14 6.25 14H4.75C3.7835 14 3 13.2165 3 12.25V2.75ZM9.5 3.31066L11.1893 5H9.75C9.61193 5 9.5 4.88807 9.5 4.75V3.31066Z" fill="#7D8198"/>
<path fill-rule="evenodd" clip-rule="evenodd" d="M12.5 16C14.433 16 16 14.433 16 12.5C16 10.567 14.433 9 12.5 9C10.567 9 9 10.567 9 12.5C9 14.433 10.567 16 12.5 16ZM13.6463 14.3559C13.8415 14.5512 14.1581 14.5514 14.3534 14.3562C14.5487 14.161 14.5489 13.8444 14.3537 13.6491L13.2069 12.5013L14.3537 11.3534C14.5489 11.158 14.5487 10.8415 14.3534 10.6463C14.158 10.4511 13.8415 10.4513 13.6463 10.6466L12.5001 11.7939L11.3537 10.6466C11.1585 10.4513 10.8419 10.4511 10.6466 10.6463C10.4513 10.8415 10.4511 11.1581 10.6463 11.3534L11.7933 12.5013L10.6463 13.6494C10.4511 13.8448 10.4513 14.1614 10.6466 14.3565C10.842 14.5517 11.1586 14.5516 11.3537 14.3562L12.5001 13.2087L13.6463 14.3559Z" fill="#7D8198"/>
</svg>
