<svg width="16" height="16" viewBox="0 0 16 16" fill="none" xmlns="http://www.w3.org/2000/svg">
<path d="M8.75 1.75244C8.75 1.33823 8.41421 1.00244 8 1.00244C7.58579 1.00244 7.25 1.33823 7.25 1.75244V7.25008C7.25 7.6643 7.58579 8.00008 8 8.00008C8.41421 8.00008 8.75 7.6643 8.75 7.25008V1.75244Z" fill="#7D8198"/>
<path d="M10.9926 3.03867C10.5997 2.90732 10.1748 3.11929 10.0434 3.51213C9.91208 3.90497 10.1241 4.3299 10.5169 4.46125C11.033 4.6338 11.5304 5.08846 11.9092 5.76269C12.2844 6.43052 12.5 7.24186 12.5 8.00005C12.5 10.4853 10.4853 12.5001 8 12.5001C5.51472 12.5001 3.5 10.4853 3.5 8.00005C3.5 7.24187 3.71555 6.43061 4.09099 5.7629C4.46996 5.0889 4.96794 4.6341 5.48541 4.46139C5.87831 4.33026 6.09052 3.90544 5.95939 3.51253C5.82825 3.11962 5.40343 2.90741 5.01053 3.03855C4.03003 3.36579 3.27902 4.14646 2.7835 5.02773C2.28445 5.91529 2 6.9791 2 8.00005C2 11.3138 4.68629 14.0001 8 14.0001C11.3137 14.0001 14 11.3138 14 8.00005C14 6.97911 13.7156 5.91538 13.217 5.02795C12.7219 4.1469 11.9718 3.36608 10.9926 3.03867Z" fill="#7D8198"/>
</svg>
