<svg width="16" height="16" viewBox="0 0 16 16" fill="none" xmlns="http://www.w3.org/2000/svg">
<path d="M13.2498 13C12.8355 13 12.4998 12.6642 12.4998 12.25L12.4998 3.75C12.4998 3.33579 12.8355 3 13.2498 3C13.664 3 13.9998 3.33579 13.9998 3.75L13.9998 12.25C13.9998 12.6642 13.664 13 13.2498 13Z" fill="#7D8198"/>
<path d="M8.34005 8.75L6.23976 10.7004C5.93624 10.9823 5.91868 11.4568 6.20055 11.7604C6.48241 12.0639 6.95696 12.0814 7.26048 11.7996L10.7601 8.54966C10.9129 8.40775 10.9998 8.20863 10.9998 8.00009C10.9998 7.79155 10.9129 7.59243 10.7601 7.45052L7.2605 4.20044C6.95698 3.91857 6.48243 3.93611 6.20056 4.23963C5.91869 4.54314 5.93623 5.01769 6.23975 5.29957L8.33995 7.25H2.75024C2.33603 7.25 2.00024 7.58579 2.00024 8C2.00024 8.41421 2.33603 8.75 2.75024 8.75H8.34005Z" fill="#7D8198"/>
</svg>
