<svg width="16" height="16" viewBox="0 0 16 16" fill="none" xmlns="http://www.w3.org/2000/svg">
<path d="M14.4652 5.32059C14.8408 6.22752 15.0191 7.19728 14.9959 8.16657C14.5333 7.89955 14.024 7.70448 13.4832 7.59664C13.4405 7.01523 13.3054 6.44044 13.0794 5.89461C12.6161 4.77625 11.7968 3.84199 10.7485 3.23673C9.70012 2.63148 8.48137 2.38905 7.28121 2.54705C6.08106 2.70506 4.96658 3.25466 4.11062 4.11062C3.25466 4.96658 2.70506 6.08106 2.54705 7.28121C2.38905 8.48137 2.63148 9.70012 3.23673 10.7485C3.46927 11.1512 3.75037 11.5202 4.07182 11.8481C4.678 11.056 5.88786 10.0007 7.99992 10.0007C8.05632 10.0007 8.11208 10.0015 8.1672 10.003C7.74283 10.7377 7.5 11.5905 7.5 12.5C7.5 13.4109 7.74361 14.265 8.16923 15.0005C8.1132 15.002 8.05676 15.0027 7.99992 15.0027C7.61056 15.0027 7.24 14.9681 6.89197 14.9098C6.35589 14.824 5.82839 14.6755 5.32058 14.4652C4.98498 14.3262 4.66241 14.162 4.35528 13.9747C4.27549 13.9273 4.20386 13.8826 4.14082 13.8419C4.11135 13.8228 4.08293 13.8026 4.05561 13.7813C3.19217 13.1925 2.46633 12.4141 1.93769 11.4985C1.16734 10.1642 0.858784 8.61295 1.05989 7.08542C1.26099 5.55789 1.96051 4.13941 3.04996 3.04996C4.13941 1.96051 5.55789 1.26099 7.08542 1.05989C8.61296 0.858784 10.1642 1.16734 11.4985 1.93769C12.8327 2.70805 13.8756 3.89715 14.4652 5.32059Z" fill="#7D8198"/>
<path d="M10.5 6.5C10.5 7.30398 10.1205 8.01932 9.53085 8.47664C9.51011 8.49198 9.48949 8.50747 9.46899 8.52312C9.0566 8.82307 8.54897 9 8.00001 9C6.6193 9 5.50001 7.88071 5.50001 6.5C5.50001 5.11929 6.6193 4 8.00001 4C9.38072 4 10.5 5.11929 10.5 6.5Z" fill="#7D8198"/>
<path fill-rule="evenodd" clip-rule="evenodd" d="M12.5 16C14.433 16 16 14.433 16 12.5C16 10.567 14.433 9 12.5 9C10.567 9 9 10.567 9 12.5C9 14.433 10.567 16 12.5 16ZM13 10.5C13 10.2239 12.7761 10 12.5 10C12.2238 10 12 10.2239 12 10.5V12.002H10.5034C10.2272 12.002 10.0034 12.2258 10.0034 12.502C10.0034 12.7781 10.2272 13.002 10.5034 13.002H12V14.5C12 14.7761 12.2238 15 12.5 15C12.7761 15 13 14.7761 13 14.5V13.002H14.5C14.7761 13.002 15 12.7781 15 12.502C15 12.2258 14.7761 12.002 14.5 12.002H13V10.5Z" fill="#7D8198"/>
</svg>
