<svg width="24" height="24" viewBox="0 0 24 24" fill="none" xmlns="http://www.w3.org/2000/svg">
<path d="M12 8.25V3.00073H7.75C6.23122 3.00073 5 4.23195 5 5.75073V16.5911L9.01441 13.1807C9.2434 12.9861 9.56638 12.947 9.83517 13.0813L14.414 15.3687L19 11.8249V10H13.75C12.7835 10 12 9.2165 12 8.25Z" fill="#7D8198"/>
<path d="M19 13.7206L14.9586 16.8435C14.7308 17.0195 14.4224 17.0496 14.1648 16.9209L9.60803 14.6446L5.23337 18.3611C5.66007 19.3268 6.62633 20.0007 7.75 20.0007H16.25C17.7688 20.0007 19 18.7695 19 17.2507V13.7206Z" fill="#7D8198"/>
<path d="M13.5 8.25V3.32231C13.7138 3.43591 13.9133 3.57813 14.0926 3.74662L18.1331 7.5431C18.4217 7.81426 18.6451 8.14136 18.7928 8.5H13.75C13.6119 8.5 13.5 8.38807 13.5 8.25Z" fill="#7D8198"/>
</svg>
