<svg width="24" height="24" viewBox="0 0 24 24" fill="none" xmlns="http://www.w3.org/2000/svg">
<path d="M14 12C16.2091 12 18 10.2091 18 8C18 5.79086 16.2091 4 14 4C11.7909 4 10 5.79086 10 8C10 10.2091 11.7909 12 14 12Z" fill="#7D8198"/>
<path d="M9.31 11.69C8.91 11.88 8.47 12 8 12C6.35 12 5 10.65 5 9C5 7.35 6.35 6 8 6C8.08154 6 8.15846 6.00923 8.2339 6.01829C8.26948 6.02256 8.30475 6.0268 8.34 6.03C8.12 6.65 8 7.31 8 8C8 9.4 8.51 10.67 9.31 11.69Z" fill="#7D8198"/>
<path d="M8.03999 13C7.23999 13.6 6.48999 14.33 5.84999 15.19C5.22999 16.02 4.94999 17.01 5.00999 17.99H4.20999C3.77999 17.99 3.38999 17.78 3.16999 17.42C2.95999 17.07 2.93999 16.65 3.11999 16.28C3.60999 15.29 5.05999 12.99 7.97999 13H8.03999Z" fill="#7D8198"/>
<path d="M13.9959 13C17.3059 13 19.3859 14.84 20.5359 16.39H20.5459C21.0559 17.08 21.1459 17.93 20.7759 18.67C20.3559 19.49 19.4859 20 18.4959 20H9.50588C8.50588 20 7.63588 19.49 7.22588 18.67C6.85588 17.93 6.94588 17.08 7.45588 16.39C8.60588 14.84 10.6859 13 13.9959 13Z" fill="#7D8198"/>
</svg>
