<svg width="24" height="24" viewBox="0 0 24 24" fill="none" xmlns="http://www.w3.org/2000/svg">
<path fill-rule="evenodd" clip-rule="evenodd" d="M4 6.75C4 5.23122 5.23122 4 6.75 4H17.25C18.7688 4 20 5.23122 20 6.75V17.25C20 18.7688 18.7688 20 17.25 20H6.75C5.23122 20 4 18.7688 4 17.25V6.75ZM8.49719 11.25L8.49719 9.55785L14.4393 15.5H12.75C12.3358 15.5 12 15.8358 12 16.25C12 16.6642 12.3358 17 12.75 17H16.25C16.6642 17 17 16.6642 17 16.25V12.75C17 12.3358 16.6642 12 16.25 12C15.8358 12 15.5 12.3358 15.5 12.75V14.4393L9.56066 8.5H11.25C11.6642 8.5 12 8.16421 12 7.75C12 7.33579 11.6642 7 11.25 7H7.74719C7.33298 7 6.99719 7.33579 6.99719 7.75L6.99719 11.25C6.99719 11.6642 7.33298 12 7.74719 12C8.16141 12 8.49719 11.6642 8.49719 11.25Z" fill="#7D8198"/>
</svg>
