<svg width="24" height="24" viewBox="0 0 24 24" fill="none" xmlns="http://www.w3.org/2000/svg">
<path fill-rule="evenodd" clip-rule="evenodd" d="M3 12C3 16.9706 7.02944 21 12 21C16.9706 21 21 16.9706 21 12C21 7.02944 16.9706 3 12 3C7.02944 3 3 7.02944 3 12ZM8.21967 8.21967C8.51256 7.92678 8.98744 7.92678 9.28033 8.21967L12 10.9394L14.7197 8.21979C15.0126 7.9269 15.4874 7.9269 15.7803 8.2198C16.0732 8.51269 16.0732 8.98757 15.7803 9.28046L13.0607 12L15.7803 14.7197C16.0732 15.0126 16.0732 15.4874 15.7803 15.7803C15.4874 16.0732 15.0126 16.0732 14.7197 15.7803L12 13.0607L9.28033 15.7803C8.98743 16.0732 8.51256 16.0732 8.21967 15.7803C7.92677 15.4874 7.92678 15.0126 8.21968 14.7197L10.9394 12L8.21967 9.28033C7.92678 8.98744 7.92678 8.51256 8.21967 8.21967Z" fill="#7D8198"/>
</svg>
