<svg width="24" height="24" viewBox="0 0 24 24" fill="none" xmlns="http://www.w3.org/2000/svg">
<path fill-rule="evenodd" clip-rule="evenodd" d="M12 21C16.9706 21 21 16.9706 21 12C21 7.02944 16.9706 3 12 3C7.02944 3 3 7.02944 3 12C3 16.9706 7.02944 21 12 21ZM10.0043 8C10.5566 8 11.0043 8.44772 11.0043 9V15C11.0043 15.5523 10.5566 16 10.0043 16C9.45199 16 9.00427 15.5523 9.00427 15V9C9.00427 8.44772 9.45199 8 10.0043 8ZM15 9C15 8.44772 14.5523 8 14 8C13.4477 8 13 8.44772 13 9V15C13 15.5523 13.4477 16 14 16C14.5523 16 15 15.5523 15 15V9Z" fill="#7D8198"/>
</svg>
