<svg width="24" height="24" viewBox="0 0 24 24" fill="none" xmlns="http://www.w3.org/2000/svg">
<path fill-rule="evenodd" clip-rule="evenodd" d="M6.75 4.00146C4.67893 4.00146 3 5.6804 3 7.75147V14.2515C3 16.3225 4.67893 18.0015 6.75 18.0015H7V20.4914C7 20.9407 7.53028 21.1684 7.84556 20.8546L10.7119 18.0015H17.25C19.3211 18.0015 21 16.3225 21 14.2515V7.75146C21 5.6804 19.3211 4.00146 17.25 4.00146H6.75ZM11.8238 6.00471C12.2294 5.98195 12.6354 6.04188 13.017 6.18092C13.3987 6.31996 13.7481 6.53523 14.0438 6.81375C14.3133 7.06762 14.5764 7.39517 14.7503 7.79727C15.0417 8.47155 15.09 9.1491 14.8273 9.83631C14.591 10.4546 14.1317 10.9965 13.6189 11.5093C13.2819 11.8464 13.0997 12.0919 13.0093 12.2313C12.9641 12.301 12.9417 12.3444 12.9341 12.3599L12.9333 12.3615C12.7408 12.859 12.1881 13.1202 11.6785 12.9466C11.1557 12.7685 10.8762 12.2004 11.0543 11.6776L11.0546 11.6766L11.055 11.6757L11.0557 11.6737L11.0571 11.6696L11.0601 11.6611L11.0671 11.6422C11.0721 11.6288 11.078 11.6138 11.0848 11.5973C11.0985 11.5643 11.1159 11.5252 11.1379 11.4803C11.1819 11.3904 11.2442 11.2774 11.3314 11.1429C11.5057 10.8741 11.7791 10.5207 12.2047 10.0951C12.6774 9.62237 12.8806 9.32774 12.9592 9.12217C13.0114 8.98548 13.0272 8.85172 12.9145 8.59091C12.8741 8.49765 12.7963 8.38624 12.6725 8.2696C12.5748 8.17761 12.4591 8.10626 12.3324 8.0601C12.2057 8.01394 12.0708 7.994 11.9359 8.00157C11.801 8.00914 11.6693 8.04405 11.5487 8.10404C11.4281 8.16404 11.3213 8.24779 11.2347 8.35C11.1482 8.4522 11.0836 8.57072 11.0448 8.69824C11.023 8.77005 11.011 8.86028 10.9992 9.0624C10.9669 9.61374 10.4937 10.0345 9.94239 10.0022C9.39105 9.96989 8.97029 9.49675 9.0026 8.94541C9.01461 8.74043 9.03362 8.43779 9.13136 8.11637C9.24955 7.7277 9.44602 7.36738 9.70857 7.05739C9.97111 6.74742 10.2942 6.49432 10.6579 6.31339C11.0215 6.13247 11.4183 6.02747 11.8238 6.00471ZM13.002 15C13.002 15.5523 12.5538 16 12.0008 16C11.4479 16 10.9996 15.5523 10.9996 15C10.9996 14.4477 11.4479 14 12.0008 14C12.5538 14 13.002 14.4477 13.002 15Z" fill="#7D8198"/>
</svg>
