<svg width="24" height="24" viewBox="0 0 24 24" fill="none" xmlns="http://www.w3.org/2000/svg">
<path d="M8.37576 13.4446C8.88469 12.9369 9.71759 13.3676 9.65674 14.0339L9.63232 14.1697L9.32648 15.3141C9.18897 15.8306 9.3372 16.3818 9.71439 16.7604L10.5508 17.5989C11.0924 18.1418 10.5667 19.0522 9.82578 18.8546L8.6816 18.5497C8.16494 18.4122 7.61303 18.56 7.23451 18.9377L6.39713 19.7742C5.85438 20.3157 4.9435 19.7898 5.14058 19.0491L5.44641 17.9048C5.58413 17.3879 5.43622 16.8362 5.05851 16.4575L4.22211 15.619C3.68167 15.0761 4.20681 14.1664 4.94712 14.3632L6.0913 14.6681C6.6081 14.806 7.15971 14.6589 7.53839 14.2812L8.37576 13.4446Z" fill="#7D8198"/>
<path d="M16.6039 4.23027C17.3094 3.63568 18.3911 4.2601 18.2288 5.16841L18.2083 5.26027L17.5351 7.78546C17.4204 8.21609 17.5429 8.67581 17.8576 8.99137L19.7033 10.8403C20.4248 11.5641 19.7245 12.7773 18.7369 12.5143L16.2121 11.841C15.7817 11.7264 15.3228 11.85 15.0073 12.1645L13.1577 14.0095C12.4339 14.7317 11.2205 14.031 11.4839 13.043L12.1571 10.5188C12.2718 10.0883 12.1491 9.62843 11.8347 9.31288L9.98896 7.46297C9.26717 6.73904 9.96754 5.52556 10.9553 5.78896L13.4801 6.46325C13.9104 6.57756 14.3696 6.45424 14.6849 6.13979L16.5346 4.29379L16.6039 4.23027Z" fill="#7D8198"/>
</svg>
