<svg width="24" height="24" viewBox="0 0 24 24" fill="none" xmlns="http://www.w3.org/2000/svg">
<path fill-rule="evenodd" clip-rule="evenodd" d="M4.00006 11.9978C4.00006 7.59487 7.59453 4 11.9977 4C16.4003 4 20.0001 7.59423 20.0001 11.9978C20.0001 16.4007 16.4009 20 11.9977 20C10.7042 20 9.4557 19.6821 8.37115 19.1338L5.45718 19.9581L5.45499 19.9587C4.98073 20.0913 4.55832 19.8883 4.31312 19.6166C4.0726 19.3501 3.92698 18.9407 4.04458 18.5135L4.83723 15.5576C4.28878 14.4771 4.00006 13.2893 4.00006 11.9978ZM9.00177 13C9.55405 13 10.0018 12.5523 10.0018 12C10.0018 11.4477 9.55405 11 9.00177 11C8.44949 11 8.00177 11.4477 8.00177 12C8.00177 12.5523 8.44949 13 9.00177 13ZM12.9986 12C12.9986 12.5523 12.5509 13 11.9986 13C11.4463 13 10.9986 12.5523 10.9986 12C10.9986 11.4477 11.4463 11 11.9986 11C12.5509 11 12.9986 11.4477 12.9986 12ZM14.9986 13.0002C15.5509 13.0002 15.9986 12.5525 15.9986 12.0002C15.9986 11.448 15.5509 11.0002 14.9986 11.0002C14.4463 11.0002 13.9986 11.448 13.9986 12.0002C13.9986 12.5525 14.4463 13.0002 14.9986 13.0002Z" fill="#7D8198"/>
</svg>
