<svg width="24" height="24" viewBox="0 0 24 24" fill="none" xmlns="http://www.w3.org/2000/svg">
<path d="M11.0588 4.6626C11.3753 3.77885 12.6251 3.77885 12.9417 4.6626L14.8538 10.0054C15.6037 10.0684 16.2369 10.6093 16.4104 11.353L17.9807 18.0796C18.0746 18.4828 17.8234 18.8868 17.4202 18.981C17.017 19.0748 16.614 18.8235 16.5198 18.4204L14.9504 11.6938C14.9241 11.5808 14.8224 11.5006 14.7063 11.5005H9.29321C9.17721 11.5007 9.07641 11.5808 9.05005 11.6938L7.48071 18.4204C7.38652 18.8236 6.98257 19.0749 6.57935 18.981C6.17628 18.8867 5.92583 18.4828 6.01978 18.0796L7.58911 11.353C7.76263 10.6093 8.39577 10.0685 9.14575 10.0054L11.0588 4.6626ZM13.4084 13.0044C13.6041 13.0385 13.7653 13.1852 13.8118 13.3823L14.9875 18.3833C15.0222 18.5315 14.9862 18.688 14.8909 18.8071C14.7951 18.9263 14.649 18.9969 14.4954 18.9966L12.5022 18.9907C12.2251 18.9897 12.0005 18.7665 12.0002 18.4917V13.4956C12.0004 13.2202 12.2254 12.9968 12.5032 12.9966H13.3215L13.4084 13.0044Z" fill="#7D8198"/>
</svg>
