<svg width="24" height="24" viewBox="0 0 24 24" fill="none" xmlns="http://www.w3.org/2000/svg">
<path fill-rule="evenodd" clip-rule="evenodd" d="M5.54114 5.66672C5.97448 4.65559 6.96871 4 8.06879 4H15.9312C17.0313 4 18.0255 4.65559 18.4589 5.66672L20.7776 11.0772C20.9244 11.4195 21 11.7881 21 12.1605V17.25C21 18.7688 19.7688 20 18.25 20H5.75C4.23122 20 3 18.7688 3 17.25V12.1605C3 11.7881 3.07565 11.4195 3.22235 11.0772L5.54114 5.66672ZM8.06879 5.5C7.56876 5.5 7.11683 5.798 6.91986 6.2576L4.60107 11.6681C4.55557 11.7743 4.52511 11.886 4.51035 12H7.69655C8.52386 12 9.30987 12.3615 9.84827 12.9897C10.9793 14.3092 13.0207 14.3092 14.1517 12.9897C14.6901 12.3615 15.4761 12 16.3035 12H19.4897C19.4749 11.886 19.4444 11.7743 19.3989 11.6681L17.0801 6.2576C16.8832 5.798 16.4312 5.5 15.9312 5.5H8.06879ZM9.49917 16C9.14532 16 8.90405 16.3592 9.03709 16.688L9.06299 16.752C9.3683 17.5064 10.0993 18 10.9113 18H13.0887C13.9007 18 14.6317 17.5064 14.937 16.752L14.9629 16.688C15.096 16.3592 14.8547 16 14.5008 16H9.49917Z" fill="#7D8198"/>
</svg>
