<svg width="24" height="24" viewBox="0 0 24 24" fill="none" xmlns="http://www.w3.org/2000/svg">
<path fill-rule="evenodd" clip-rule="evenodd" d="M4 7.75C4 6.23122 5.23122 5 6.75 5H9.9896C10.6631 5 11.3132 5.24717 11.8166 5.69462L12.9299 6.68426C13.1588 6.88765 13.4543 7 13.7604 7H18.2505C19.7693 7 21.0005 8.23122 21.0005 9.75V16.25C21.0005 17.7688 19.7693 19 18.2505 19H6.75C5.23121 19 4 17.7688 4 16.25V7.75ZM10.7528 12.25C10.0625 12.25 9.50281 11.6904 9.50281 11V10.75C9.50281 10.3358 9.16702 10 8.75281 10C8.33859 10 8.00281 10.3358 8.00281 10.75V11C8.00281 12.5188 9.23402 13.75 10.7528 13.75H14.2978L13.2495 14.6922C12.9414 14.9691 12.9161 15.4433 13.193 15.7513C13.4699 16.0594 13.9441 16.0847 14.2521 15.8078L16.7556 13.5578C16.9139 13.4156 17.0043 13.2128 17.0043 13C17.0043 12.7872 16.9139 12.5844 16.7556 12.4422L14.2521 10.1922C13.9441 9.9153 13.4699 9.94059 13.193 10.2487C12.9161 10.5567 12.9414 11.0309 13.2495 11.3078L14.2978 12.25H10.7528Z" fill="#7D8198"/>
</svg>
