<svg width="24" height="24" viewBox="0 0 24 24" fill="none" xmlns="http://www.w3.org/2000/svg">
<path d="M11.25 4.67553C9.10002 3.62003 6.50082 3.79233 4.5 5.25651C4.18 5.48641 4 5.85623 4 6.24604V17.8505C4 18.8601 5.23 19.3598 5.93 18.6302C7.36 17.1409 9.72 17.1009 11.21 18.5302L11.25 18.5687V4.67553Z" fill="#7D8198"/>
<path d="M12.75 18.5687L12.79 18.5302C14.28 17.1009 16.64 17.1509 18.07 18.6302C18.77 19.3598 20 18.8601 20 17.8505V6.24604C20 5.85623 19.81 5.48641 19.5 5.25651C17.5072 3.79168 14.9076 3.61988 12.75 4.67693V18.5687Z" fill="#7D8198"/>
</svg>
