<svg width="24" height="24" viewBox="0 0 24 24" fill="none" xmlns="http://www.w3.org/2000/svg">
<path d="M6 7C6 6.44772 6.44772 6 7 6H17.0014C17.5537 6 18.0014 6.44772 18.0014 7C18.0014 7.55228 17.5537 8 17.0014 8H7C6.44772 8 6 7.55228 6 7Z" fill="#7D8198"/>
<path d="M6 12C6 11.4477 6.44772 11 7 11H17.0014C17.5537 11 18.0014 11.4477 18.0014 12C18.0014 12.5523 17.5537 13 17.0014 13H7C6.44772 13 6 12.5523 6 12Z" fill="#7D8198"/>
<path d="M7 16C6.44772 16 6 16.4477 6 17C6 17.5523 6.44772 18 7 18H17.0014C17.5537 18 18.0014 17.5523 18.0014 17C18.0014 16.4477 17.5537 16 17.0014 16H7Z" fill="#7D8198"/>
</svg>
