<svg width="24" height="24" viewBox="0 0 24 24" fill="none" xmlns="http://www.w3.org/2000/svg">
<path d="M12.6347 4H9.03839L11.0384 7.00001H14.6347L12.6347 4Z" fill="#7D8198"/>
<path d="M6.72855 4.1408C5.38947 4.51902 4.35465 5.6224 4.07501 7.00001H8.6347L6.72855 4.1408Z" fill="#7D8198"/>
<path fill-rule="evenodd" clip-rule="evenodd" d="M4 9.00001V16.25C4 18.3211 5.67893 20 7.75 20H16.25C18.3211 20 20 18.3211 20 16.25V9.00001H4ZM14.4457 15.3964C15.1848 15.0271 15.1848 13.9729 14.4457 13.6036L11.4512 12.1071C10.7845 11.7739 10 12.2585 10 13.0035L10 15.9965C10 16.7415 10.7845 17.2261 11.4512 16.8929L14.4457 15.3964Z" fill="#7D8198"/>
<path d="M19.925 7.00001C19.5775 5.28833 18.0642 4 16.25 4H15.0384L17.0384 7.00001H19.925Z" fill="#7D8198"/>
</svg>
