<svg width="24" height="24" viewBox="0 0 24 24" fill="none" xmlns="http://www.w3.org/2000/svg">
<path fill-rule="evenodd" clip-rule="evenodd" d="M16.494 8C17.322 8 17.9933 7.32843 17.9933 6.5C17.9933 5.67157 17.322 5 16.494 5C15.6659 5 14.9946 5.67157 14.9946 6.5C14.9946 7.32843 15.6659 8 16.494 8ZM8.64426 8.46315L3.14969 17.4792C2.74359 18.1456 3.22301 18.9998 4.00313 18.9998H10.9774L11.0012 19L20.0008 18.9999C20.7921 18.9999 21.2697 18.1237 20.841 17.4583L16.3357 10.4634C15.9418 9.85183 15.0478 9.85233 14.6546 10.4643L13.0739 12.9247L10.3508 8.46262C9.96099 7.82385 9.03368 7.82414 8.64426 8.46315Z" fill="#F27637"/>
</svg>
