<svg width="24" height="24" viewBox="0 0 24 24" fill="none" xmlns="http://www.w3.org/2000/svg">
<path d="M2.99734 15C2.99734 16.5188 4.22856 17.75 5.74735 17.75H13.2473C14.7661 17.75 15.9973 16.5188 15.9973 15V14.9097L19.9423 16.684C20.1744 16.7884 20.4436 16.768 20.6573 16.6298C20.871 16.4916 21 16.2545 21 16V7.5C21 7.24553 20.871 7.00842 20.6573 6.87023C20.4436 6.73204 20.1744 6.71162 19.9423 6.816L15.9973 8.59031V8.5C15.9973 6.98122 14.7661 5.75 13.2473 5.75H5.74734C4.22856 5.75 2.99734 6.98122 2.99734 8.5V15Z" fill="#7D8198"/>
</svg>
