<svg width="24" height="24" viewBox="0 0 24 24" fill="none" xmlns="http://www.w3.org/2000/svg">
<path fill-rule="evenodd" clip-rule="evenodd" d="M4 6.75C4 5.23122 5.23122 4 6.75 4H17.25C18.7688 4 20 5.23122 20 6.75V17.25C20 18.7688 18.7688 20 17.25 20H6.75C5.23122 20 4 18.7688 4 17.25V6.75ZM7.75132 7C7.3371 7 7.00132 7.33579 7.00132 7.75C7.00132 8.16421 7.3371 8.5 7.75132 8.5H14.2513C14.6656 8.5 15.0013 8.16421 15.0013 7.75C15.0013 7.33579 14.6656 7 14.2513 7H7.75132ZM7 11.75C7 11.3358 7.33579 11 7.75 11H16.25C16.6642 11 17 11.3358 17 11.75C17 12.1642 16.6642 12.5 16.25 12.5H7.75C7.33579 12.5 7 12.1642 7 11.75ZM7.75134 15C7.33713 15 7.00134 15.3358 7.00134 15.75C7.00134 16.1642 7.33713 16.5 7.75134 16.5H14.2513C14.6656 16.5 15.0013 16.1642 15.0013 15.75C15.0013 15.3358 14.6656 15 14.2513 15H7.75134Z" fill="#7D8198"/>
</svg>
