<svg width="24" height="24" viewBox="0 0 24 24" fill="none" xmlns="http://www.w3.org/2000/svg">
<path fill-rule="evenodd" clip-rule="evenodd" d="M6.75 17C5.23122 17 4 15.7688 4 14.25V7.75C4 6.23122 5.23122 5 6.75 5H17.25C18.7688 5 20 6.23122 20 7.75V14.25C20 15.7688 18.7688 17 17.25 17H14V18.5005H15.25C15.6642 18.5005 16 18.8363 16 19.2505C16 19.6647 15.6642 20.0005 15.25 20.0005H8.75C8.33579 20.0005 8 19.6647 8 19.2505C8 18.8363 8.33579 18.5005 8.75 18.5005H10V17H6.75ZM5.5 14.25C5.5 14.9404 6.05964 15.5 6.75 15.5H17.25C17.9404 15.5 18.5 14.9404 18.5 14.25V7.75C18.5 7.05964 17.9404 6.5 17.25 6.5L6.75 6.5C6.05964 6.5 5.5 7.05964 5.5 7.75V14.25Z" fill="#7D8198"/>
</svg>
