<svg width="24" height="24" viewBox="0 0 24 24" fill="none" xmlns="http://www.w3.org/2000/svg">
<path d="M12 4.50391C10.6066 4.50391 9.5 5.55689 9.5 7V8H16.25C17.7688 8 19 9.23122 19 10.75V17.25C19 18.7688 17.7688 20 16.25 20H7.75C6.23122 20 5 18.7688 5 17.25V10.75C5 9.23122 6.23122 8 7.75 8H8V7C8 4.70353 9.80337 3.00391 12 3.00391C13.4099 3.00391 14.708 3.74138 15.4472 4.86304C15.6751 5.20891 15.5795 5.67406 15.2336 5.90199C14.8878 6.12991 14.4226 6.03431 14.1947 5.68844C13.7248 4.97547 12.8908 4.50391 12 4.50391Z" fill="#7D8198"/>
</svg>
