<svg width="24" height="24" viewBox="0 0 24 24" fill="none" xmlns="http://www.w3.org/2000/svg">
<path fill-rule="evenodd" clip-rule="evenodd" d="M4 6.75C4 5.23122 5.23122 4 6.75 4H17.25C18.7688 4 20 5.23122 20 6.75V17.25C20 18.7688 18.7688 20 17.25 20H6.75C5.23122 20 4 18.7688 4 17.25V6.75ZM10.004 8.75C10.004 9.16421 10.3398 9.5 10.754 9.5H13.439L8.21976 14.7175C7.92682 15.0104 7.92674 15.4852 8.21958 15.7782C8.51243 16.0711 8.9873 16.0712 9.28024 15.7783L14.5 10.5603V13.25C14.5 13.6642 14.8358 14 15.25 14C15.6642 14 16 13.6642 16 13.25V8.75C16 8.33579 15.6642 8 15.25 8H10.754C10.3398 8 10.004 8.33579 10.004 8.75Z" fill="#7D8198"/>
</svg>
