<svg width="24" height="24" viewBox="0 0 24 24" fill="none" xmlns="http://www.w3.org/2000/svg">
<path d="M11.75 4C11.3358 4 11 4.33579 11 4.75C11 5.16421 11.3358 5.5 11.75 5.5H13.75L13.75 10.25C13.75 10.6642 14.0858 11 14.5 11C14.9142 11 15.25 10.6642 15.25 10.25L15.25 5.5H17.25C17.6642 5.5 18 5.16421 18 4.75C18 4.33579 17.6642 4 17.25 4H11.75Z" fill="#7D8198"/>
<path d="M6.4999 8C6.58737 8 6.667 8.05042 6.70441 8.12949L7.62699 10.0795L9.81046 10.4345C9.89317 10.4479 9.96167 10.506 9.98849 10.5854C10.0153 10.6647 9.99608 10.7524 9.93849 10.8133L8.42095 12.417L8.75913 14.7401C8.77151 14.8251 8.73468 14.9098 8.66406 14.9587C8.59345 15.0076 8.50123 15.0123 8.42601 14.9708L6.4999 13.9088L4.57379 14.9708C4.49857 15.0123 4.40635 15.0076 4.33573 14.9587C4.26512 14.9098 4.22829 14.8251 4.24066 14.7401L4.57885 12.417L3.0613 10.8133C3.00372 10.7524 2.98448 10.6647 3.0113 10.5854C3.03813 10.506 3.10663 10.4479 3.18933 10.4345L5.37281 10.0795L6.29539 8.12949C6.3328 8.05042 6.41243 8 6.4999 8Z" fill="#7D8198"/>
<path d="M18.8276 15.2303C19.0928 14.9121 19.0499 14.4392 18.7318 14.1739C18.4136 13.9087 17.9407 13.9516 17.6755 14.2698L14.5523 18.0161L13.3647 16.318C13.1273 15.9786 12.6597 15.8959 12.3202 16.1333C11.9808 16.3707 11.8981 16.8383 12.1355 17.1777L13.8854 19.6799C14.0194 19.8713 14.2349 19.9895 14.4683 19.9993C14.7018 20.0092 14.9265 19.9097 15.0761 19.7303L18.8276 15.2303Z" fill="#7D8198"/>
</svg>
