<svg width="24" height="24" viewBox="0 0 24 24" fill="none" xmlns="http://www.w3.org/2000/svg">
<path fill-rule="evenodd" clip-rule="evenodd" d="M11.4693 5.40671C11.6153 4.86443 12.3847 4.86443 12.5307 5.40671L13.2134 7.9426C13.5869 9.32966 14.6703 10.4131 16.0574 10.7866L18.5933 11.4693C19.1356 11.6153 19.1356 12.3847 18.5933 12.5307L16.0574 13.2134C14.6703 13.5869 13.5869 14.6703 13.2134 16.0574L12.5307 18.5933C12.3847 19.1356 11.6153 19.1356 11.4693 18.5933L10.7866 16.0574C10.4131 14.6703 9.32966 13.5869 7.9426 13.2134L5.40671 12.5307C4.86443 12.3847 4.86443 11.6153 5.40671 11.4693L7.9426 10.7866C9.32966 10.4131 10.4131 9.32967 10.7866 7.9426L11.4693 5.40671Z" fill="#7D8198"/>
</svg>
