<svg width="24" height="24" viewBox="0 0 24 24" fill="none" xmlns="http://www.w3.org/2000/svg">
<path fill-rule="evenodd" clip-rule="evenodd" d="M3 12C3 7.02944 7.02944 3 12 3C16.9706 3 21 7.02944 21 12C21 16.9706 16.9706 21 12 21C7.02944 21 3 16.9706 3 12ZM15 11C15.5523 11 16 10.5523 16 10C16 9.44772 15.5523 9 15 9C14.4477 9 14 9.44772 14 10C14 10.5523 14.4477 11 15 11ZM10 10C10 10.5523 9.55228 11 9 11C8.44772 11 8 10.5523 8 10C8 9.44772 8.44772 9 9 9C9.55228 9 10 9.44772 10 10ZM9.46893 13.5571C9.36109 13.1572 8.94947 12.9204 8.54954 13.0282C8.14961 13.1361 7.91281 13.5477 8.02064 13.9476C8.2567 14.8231 8.77467 15.5965 9.49442 16.148C10.2142 16.6995 11.0956 16.9986 12.0024 16.9988C12.9092 16.999 13.7907 16.7004 14.5108 16.1493C15.2308 15.5981 15.7492 14.825 15.9857 13.9496C16.0937 13.5497 15.8571 13.138 15.4572 13.03C15.0573 12.9219 14.6456 13.1585 14.5376 13.5584C14.3871 14.1155 14.0572 14.6074 13.599 14.9582C13.1408 15.3089 12.5798 15.4989 12.0028 15.4988C11.4257 15.4986 10.8648 15.3084 10.4068 14.9574C9.94876 14.6064 9.61914 14.1143 9.46893 13.5571Z" fill="#7D8198"/>
</svg>
