<svg width="24" height="24" viewBox="0 0 24 24" fill="none" xmlns="http://www.w3.org/2000/svg">
<path d="M6.57603 4C5.73696 4 5.01597 4.59555 4.85751 5.41952L3.99213 9.91952C3.78458 10.9988 4.61159 12 5.71064 12H18.2894C19.3884 12 20.2154 10.9988 20.0079 9.91952L19.1425 5.41952C18.984 4.59555 18.2631 4 17.424 4H6.57603Z" fill="#FC856D"/>
<path fill-rule="evenodd" clip-rule="evenodd" d="M4 15.25C4 14.8358 4.33579 14.5 4.75 14.5H19.25C19.6642 14.5 20 14.8358 20 15.25C20 15.6642 19.6642 16 19.25 16H4.75C4.33579 16 4 15.6642 4 15.25Z" fill="#FC856D"/>
<path fill-rule="evenodd" clip-rule="evenodd" d="M4 19.2539C4 18.8397 4.33579 18.5039 4.75 18.5039L19.25 18.5039C19.6642 18.5039 20 18.8397 20 19.2539C20 19.6681 19.6642 20.0039 19.25 20.0039H4.75C4.33579 20.0039 4 19.6681 4 19.2539Z" fill="#FC856D"/>
</svg>
