<svg width="24" height="24" viewBox="0 0 24 24" fill="none" xmlns="http://www.w3.org/2000/svg">
<path fill-rule="evenodd" clip-rule="evenodd" d="M3 7.74561C3 6.22682 4.23122 4.99561 5.75 4.99561H18.25C19.7688 4.99561 21 6.22682 21 7.74561V16.2456C21 17.7644 19.7688 18.9956 18.25 18.9956H5.75C4.23122 18.9956 3 17.7644 3 16.2456V7.74561ZM11.4601 10.1344C11.3223 10.525 10.8939 10.7299 10.5033 10.5921C10.2772 10.5123 10.0353 10.4879 9.79779 10.5209C9.56031 10.5538 9.3342 10.6433 9.13841 10.7816C8.94262 10.92 8.78285 11.1033 8.67249 11.3162C8.56214 11.529 8.50441 11.7652 8.50415 12.005C8.50389 12.2447 8.56111 12.4811 8.67101 12.6941C8.7809 12.9072 8.94027 13.0909 9.13577 13.2297C9.33126 13.3685 9.55718 13.4584 9.79458 13.4919C10.032 13.5254 10.274 13.5015 10.5002 13.4222C10.8911 13.2852 11.3191 13.491 11.4561 13.882C11.593 14.2729 11.3872 14.7008 10.9963 14.8378C10.5438 14.9964 10.0598 15.0442 9.58501 14.9772C9.1102 14.9102 8.65837 14.7303 8.26738 14.4527C7.8764 14.1751 7.55765 13.8079 7.33786 13.3817C7.11807 12.9555 7.00364 12.4829 7.00415 12.0034C7.00467 11.5238 7.12013 11.0514 7.34084 10.6257C7.56155 10.2 7.88109 9.83346 8.27267 9.5567C8.66426 9.27994 9.11647 9.10109 9.59143 9.03512C10.0664 8.96915 10.5502 9.01799 11.0024 9.17755C11.393 9.31538 11.5979 9.74377 11.4601 10.1344ZM16.9572 10.1344C16.8193 10.525 16.391 10.7299 16.0004 10.5921C15.7743 10.5123 15.5323 10.4879 15.2949 10.5209C15.0574 10.5538 14.8313 10.6433 14.6355 10.7816C14.4397 10.92 14.2799 11.1033 14.1696 11.3162C14.0592 11.529 14.0015 11.7652 14.0012 12.005C14.001 12.2447 14.0582 12.4811 14.1681 12.6941C14.278 12.9072 14.4373 13.0909 14.6328 13.2297C14.8283 13.3685 15.0542 13.4584 15.2917 13.4919C15.5291 13.5254 15.771 13.5015 15.9973 13.4222C16.3882 13.2852 16.8161 13.491 16.9531 13.882C17.0901 14.2729 16.8843 14.7008 16.4934 14.8378C16.0408 14.9964 15.5569 15.0442 15.0821 14.9772C14.6073 14.9102 14.1554 14.7303 13.7645 14.4527C13.3735 14.1751 13.0547 13.8079 12.8349 13.3817C12.6151 12.9555 12.5007 12.4829 12.5012 12.0034C12.5017 11.5238 12.6172 11.0514 12.8379 10.6257C13.0586 10.2 13.3782 9.83346 13.7697 9.5567C14.1613 9.27994 14.6135 9.10109 15.0885 9.03512C15.5634 8.96915 16.0473 9.01799 16.4995 9.17755C16.8901 9.31538 17.095 9.74377 16.9572 10.1344Z" fill="#7D8198"/>
</svg>
