<svg width="24" height="24" viewBox="0 0 24 24" fill="none" xmlns="http://www.w3.org/2000/svg">
<path fill-rule="evenodd" clip-rule="evenodd" d="M17 4.75147C17 4.46639 16.8384 4.20596 16.5829 4.07941C16.3275 3.95287 16.0224 3.98209 15.7956 4.15482L11.3509 7.53997C10.9591 7.83839 10.4802 8.00001 9.98765 8.00001H7.75C6.7835 8.00001 6 8.78351 6 9.75V14.2634C6 15.2328 6.78792 16.0174 7.75724 16.0134L9.98355 16.0042C10.4794 16.0022 10.962 16.164 11.3565 16.4645L15.7955 19.8466C16.0222 20.0194 16.3274 20.0486 16.5829 19.9221C16.8384 19.7956 17 19.5351 17 19.25V4.75147Z" fill="#7D8198"/>
</svg>
