<svg width="24" height="24" viewBox="0 0 24 24" fill="none" xmlns="http://www.w3.org/2000/svg">
<path d="M18.9734 18.2369L19.2826 16.2736L19.7794 13.1323L19.9782 11.8452C20.1769 10.58 19.0728 9.4565 17.6374 9.4565H12.2161C11.7634 9.4565 11.5205 9.04203 11.6972 8.67118C12.1719 7.67861 12.448 6.87147 12.6798 5.8789C12.8013 5.34444 12.8896 4.95178 12.8896 4.63547C12.8896 3.99193 12.6357 3.55564 12.3265 3.26114C11.7413 2.71578 10.8691 3.08662 10.3722 3.70834C9.17973 5.20265 6.96042 7.90766 5.8342 8.84569C4.74111 9.76191 4.00134 10.9726 4.00134 12.3142V15.75C4.00134 18.6514 6.65126 20.9965 9.9195 20.9965H15.4512C17.2399 20.9965 18.7526 19.8185 18.9734 18.2369Z" fill="#7D8198"/>
</svg>
