<svg width="24" height="24" viewBox="0 0 24 24" fill="none" xmlns="http://www.w3.org/2000/svg">
<path d="M9.7496 4C8.03095 4 6.7334 5.55886 7.04524 7.24898L7.50718 9.75259C7.64142 10.4801 7.52341 11.2317 7.17266 11.8831L6.08965 13.8944C5.96449 14.1269 5.97075 14.408 6.10611 14.6346C6.24148 14.8612 6.48602 15 6.75 15H11.25V19.25C11.25 19.6642 11.5858 20 12 20C12.4142 20 12.75 19.6642 12.75 19.25L12.75 15H17.25C17.514 15 17.7585 14.8612 17.8939 14.6346C18.0293 14.408 18.0355 14.1269 17.9104 13.8944L16.8282 11.8847C16.477 11.2325 16.3592 10.4799 16.4941 9.75163L16.9575 7.25111C17.2709 5.56037 15.9731 4 14.2536 4H9.7496Z" fill="#7D8198"/>
</svg>
