<svg width="24" height="24" viewBox="0 0 24 24" fill="none" xmlns="http://www.w3.org/2000/svg">
<path fill-rule="evenodd" clip-rule="evenodd" d="M9.54233 5.52034C10.5557 3.49326 13.4484 3.49321 14.4618 5.52026L19.7108 16.0192C20.6249 17.8477 19.2953 19.999 17.2511 19.999H6.75355C4.70933 19.999 3.37972 17.8478 4.29379 16.0193L9.54233 5.52034ZM11.2538 9.74352C11.2538 9.33005 11.589 8.99487 12.0024 8.99487C12.4159 8.99487 12.7511 9.33005 12.7511 9.74352V13.2482C12.7511 13.6617 12.4159 13.9969 12.0024 13.9969C11.589 13.9969 11.2538 13.6617 11.2538 13.2482V9.74352ZM13.0006 15.9973C13.0006 16.5496 12.5537 16.9973 12.0024 16.9973C11.4511 16.9973 11.0042 16.5496 11.0042 15.9973C11.0042 15.445 11.4511 14.9973 12.0024 14.9973C12.5537 14.9973 13.0006 15.445 13.0006 15.9973Z" fill="#7D8198"/>
</svg>
