<svg width="24" height="24" viewBox="0 0 24 24" fill="none" xmlns="http://www.w3.org/2000/svg">
<path fill-rule="evenodd" clip-rule="evenodd" d="M5.75 4C4.7835 4 4 4.7835 4 5.75V7.25159C4 8.19289 4.74318 8.96061 5.67479 9H18.3252C19.2568 8.96061 20 8.19289 20 7.25159V5.75C20 4.7835 19.2165 4 18.25 4H5.75ZM19 10.5H5V16.2476C5 18.3186 6.67893 19.9976 8.75 19.9976H15.25C17.3211 19.9976 19 18.3186 19 16.2476V10.5ZM9 13.75C9 13.3358 9.33579 13 9.75 13H14.25C14.6642 13 15 13.3358 15 13.75C15 14.1642 14.6642 14.5 14.25 14.5H9.75C9.33579 14.5 9 14.1642 9 13.75Z" fill="#7D8198"/>
</svg>
