<svg width="24" height="24" viewBox="0 0 24 24" fill="none" xmlns="http://www.w3.org/2000/svg">
<path fill-rule="evenodd" clip-rule="evenodd" d="M6.60522 4.88857C7.12578 4.32508 7.85805 4.00464 8.62519 4.00464H15.3748C16.1419 4.00464 16.8742 4.32508 17.3948 4.88857L19.27 6.91843C19.7393 7.4265 20 8.0928 20 8.78449V17.2546C20 18.7734 18.7688 20.0046 17.25 20.0046H6.75C5.23122 20.0046 4 18.7734 4 17.2546V8.78449C4 8.0928 4.26066 7.4265 4.73003 6.91843L6.60522 4.88857ZM8.62519 5.50464C8.27649 5.50464 7.94364 5.65029 7.70702 5.90643L5.83183 7.93628C5.81273 7.95696 5.79439 7.97821 5.77682 8H18.2232C18.2056 7.97821 18.1873 7.95696 18.1682 7.93628L16.293 5.90643C16.0564 5.65029 15.7235 5.50464 15.3748 5.50464H8.62519ZM12 10C12.2126 10 12.4152 10.0902 12.5574 10.2483L14.8075 12.7483C15.0846 13.0562 15.0596 13.5304 14.7517 13.8075C14.4439 14.0846 13.9696 14.0596 13.6925 13.7517L12.75 12.7045V17.2452C12.75 17.6594 12.4142 17.9952 12 17.9952C11.5858 17.9952 11.25 17.6594 11.25 17.2452V12.7044L10.3075 13.7517C10.0304 14.0596 9.55617 14.0846 9.24828 13.8075C8.9404 13.5304 8.91544 13.0562 9.19253 12.7483L11.4425 10.2483C11.5847 10.0902 11.7874 10 12 10Z" fill="#7D8198"/>
</svg>
