<svg width="24" height="24" viewBox="0 0 24 24" fill="none" xmlns="http://www.w3.org/2000/svg">
<path fill-rule="evenodd" clip-rule="evenodd" d="M12.5013 2.90052C12.2163 2.64505 11.7839 2.64451 11.499 2.90025L11.4948 2.90395L11.4726 2.92326C11.4518 2.94119 11.4192 2.96897 11.3753 3.0052C11.2874 3.0777 11.1548 3.18381 10.982 3.31237C10.6359 3.56991 10.132 3.91521 9.50827 4.26052C8.25208 4.95595 6.55723 5.62501 4.70834 5.62501C4.29413 5.62501 3.95834 5.9608 3.95834 6.37501V11.4829C3.95834 12.8899 4.2568 14.7506 5.39423 16.6117C6.53556 18.4793 8.48902 20.2933 11.7089 21.6495C11.895 21.728 12.105 21.728 12.2911 21.6495C15.511 20.2933 17.4645 18.4793 18.6058 16.6117C19.7432 14.7506 20.0417 12.8899 20.0417 11.4829V6.37504C20.0417 5.96083 19.7059 5.62501 19.2917 5.62501C17.4428 5.62501 15.7479 4.95595 14.4918 4.26052C13.868 3.91521 13.3642 3.56991 13.018 3.31237C12.8453 3.18381 12.7126 3.0777 12.6247 3.0052C12.5808 2.96897 12.5482 2.94119 12.5274 2.92326L12.5052 2.90395L12.5013 2.90052Z" fill="#5B53FF"/>
</svg>
