<svg width="24" height="24" viewBox="0 0 24 24" fill="none" xmlns="http://www.w3.org/2000/svg">
<path fill-rule="evenodd" clip-rule="evenodd" d="M4 6.75C4 5.23122 5.23122 4 6.75 4H17.25C18.7688 4 20 5.23122 20 6.75V17.25C20 18.7688 18.7688 20 17.25 20H6.75C5.23122 20 4 18.7688 4 17.25V6.75ZM13.996 8.75C13.996 9.16421 13.6602 9.5 13.246 9.5H10.561L15.7802 14.7175C16.0732 15.0104 16.0733 15.4852 15.7804 15.7782C15.4876 16.0711 15.0127 16.0712 14.7198 15.7783L9.5 10.5603V13.25C9.5 13.6642 9.16421 14 8.75 14C8.33579 14 8 13.6642 8 13.25V8.75C8 8.33579 8.33579 8 8.75 8H13.246C13.6602 8 13.996 8.33579 13.996 8.75Z" fill="#7D8198"/>
</svg>
