<svg width="24" height="24" viewBox="0 0 24 24" fill="none" xmlns="http://www.w3.org/2000/svg">
<path d="M17.7829 9.46291C17.685 9.23249 17.4587 9.08332 17.2083 9.08332H14.2892L16.9141 4.60791C17.0275 4.41457 17.0287 4.17541 16.9175 3.98124C16.8058 3.78666 16.5992 3.66666 16.375 3.66666H11.375C11.1471 3.66666 10.9371 3.79082 10.8275 3.99041L6.24415 12.3237C6.1379 12.5171 6.14123 12.7529 6.25373 12.9429C6.36623 13.1333 6.57082 13.25 6.79165 13.25H9.61457L7.04707 19.47C6.93248 19.7479 7.03165 20.0679 7.28332 20.2321C7.38832 20.3 7.50665 20.3333 7.62498 20.3333C7.7904 20.3333 7.95498 20.2675 8.07623 20.1408L17.6596 10.1408C17.8329 9.95999 17.8817 9.69332 17.7829 9.46291Z" fill="#5B53FF"/>
</svg>
