<svg width="24" height="24" viewBox="0 0 24 24" fill="none" xmlns="http://www.w3.org/2000/svg">
<path fill-rule="evenodd" clip-rule="evenodd" d="M12 3C8.53126 3 5 5.73066 5 10C5 11.9661 5.8795 13.2354 6.70113 14.1207C6.90272 14.3379 7.10222 14.5336 7.27857 14.7054L7.3218 14.7475C7.4841 14.9055 7.619 15.0369 7.73449 15.1606C7.94423 15.3852 7.99008 15.486 7.9996 15.5069C8.00078 15.5095 8.0014 15.5109 8.00171 15.5111L8.00177 15.7505C8.00202 16.7168 8.78545 17.5 9.75177 17.5H14.2482C15.2145 17.5 15.998 16.7168 15.9982 15.7505L15.9983 15.5109C15.9986 15.5107 15.9992 15.5094 16.0004 15.5067C16.0099 15.4857 16.0558 15.3846 16.266 15.1591C16.3817 15.0349 16.517 14.9029 16.6798 14.7441L16.7219 14.7031C16.8982 14.531 17.0976 14.3351 17.2991 14.1178C18.1202 13.2321 19 11.9629 19 10C19 5.75608 15.4707 3 12 3ZM12.8289 4.53055C12.4169 4.48695 12.0477 4.78553 12.0041 5.19745C11.9605 5.60936 12.2591 5.97862 12.671 6.02222C13.5459 6.11481 14.3659 6.49329 15.004 7.09905C15.6421 7.7048 16.0626 8.50403 16.2005 9.37297C16.2655 9.78207 16.6498 10.0611 17.0588 9.99613C17.4679 9.9312 17.7469 9.54693 17.682 9.13784C17.4924 7.94304 16.9141 6.8441 16.0367 6.01119C15.1594 5.17828 14.0319 4.65787 12.8289 4.53055Z" fill="#7D8198"/>
<path d="M9.75 19C9.19772 19 8.75422 19.4876 9.1076 19.912C9.26058 20.0958 9.46025 20.2655 9.7019 20.4142C9.71779 20.424 9.73382 20.4337 9.75 20.4432C9.77868 20.4601 9.80781 20.4767 9.83738 20.4929L9.85032 20.5C10.4422 20.8213 11.2061 21 12 21C12.7939 21 13.5578 20.8213 14.1497 20.5L14.1626 20.4929C14.1922 20.4767 14.2213 20.4601 14.25 20.4432C14.2662 20.4337 14.2822 20.424 14.2981 20.4142C14.5397 20.2655 14.7394 20.0958 14.8924 19.912C15.2458 19.4876 14.8023 19 14.25 19H9.75Z" fill="#7D8198"/>
</svg>
