<svg width="24" height="24" viewBox="0 0 24 24" fill="none" xmlns="http://www.w3.org/2000/svg">
<path fill-rule="evenodd" clip-rule="evenodd" d="M21 12C21 16.9706 16.9706 21 12 21C7.02944 21 3 16.9706 3 12C3 7.02944 7.02944 3 12 3C16.9706 3 21 7.02944 21 12ZM14.7516 8.80748C14.4437 9.08457 13.9695 9.0596 13.6924 8.75171L12.75 7.70455L12.75 16.2955L13.6925 15.2483C13.9696 14.9404 14.4438 14.9154 14.7517 15.1925C15.0596 15.4696 15.0845 15.9438 14.8075 16.2517L12.5575 18.7517C12.4152 18.9098 12.2126 19 12 19C11.7874 19 11.5848 18.9098 11.4425 18.7517L9.19252 16.2517C8.91542 15.9438 8.94038 15.4696 9.24826 15.1925C9.55614 14.9154 10.0304 14.9404 10.3075 15.2483L11.25 16.2955L11.25 7.70522L10.3088 8.75158C10.0318 9.05953 9.55755 9.08462 9.24959 8.8076C8.94164 8.53059 8.91656 8.05638 9.19357 7.74842L11.4424 5.24842C11.5846 5.09032 11.7873 5.00002 11.9999 5C12.2126 4.99998 12.4152 5.09022 12.5575 5.24829L14.8074 7.74829C15.0845 8.05618 15.0595 8.5304 14.7516 8.80748Z" fill="#7D8198"/>
</svg>
