<svg width="24" height="24" viewBox="0 0 24 24" fill="none" xmlns="http://www.w3.org/2000/svg">
<path fill-rule="evenodd" clip-rule="evenodd" d="M4 6.75C4 5.23122 5.23122 4 6.75 4H17.25C18.7688 4 20 5.23122 20 6.75V17.25C20 18.7688 18.7688 20 17.25 20H6.75C5.23122 20 4 18.7688 4 17.25V6.75ZM10.004 15.25C10.004 14.8358 10.3398 14.5 10.754 14.5H13.439L8.21976 9.28249C7.92682 8.98965 7.92674 8.51477 8.21958 8.22183C8.51243 7.92889 8.9873 7.92881 9.28024 8.22165L14.5 13.4397V10.75C14.5 10.3358 14.8358 10 15.25 10C15.6642 10 16 10.3358 16 10.75V15.25C16 15.6642 15.6642 16 15.25 16H10.754C10.3398 16 10.004 15.6642 10.004 15.25Z" fill="#7D8198"/>
</svg>
