<svg width="24" height="24" viewBox="0 0 24 24" fill="none" xmlns="http://www.w3.org/2000/svg">
<path fill-rule="evenodd" clip-rule="evenodd" d="M4 6.75C4 5.23122 5.23122 4 6.75 4H17.25C18.7688 4 20 5.23122 20 6.75V17.25C20 18.7688 18.7688 20 17.25 20H6.75C5.23122 20 4 18.7688 4 17.25V6.75ZM11.7997 8.23975C12.0815 8.54332 12.0638 9.01787 11.7603 9.29967L9.65928 11.25H16.25C16.6642 11.25 17 11.5858 17 12C17 12.4142 16.6642 12.75 16.25 12.75H9.65928L11.7603 14.7003C12.0638 14.9821 12.0815 15.4567 11.7997 15.7603C11.5179 16.0638 11.0433 16.0815 10.7397 15.7997L7.23871 12.5497C7.08583 12.4078 6.99896 12.2086 6.99896 12C6.99896 11.7914 7.08583 11.5922 7.23871 11.4503L10.7397 8.20033C11.0433 7.91853 11.5179 7.93617 11.7997 8.23975Z" fill="#7D8198"/>
</svg>
