<svg width="24" height="24" viewBox="0 0 24 24" fill="none" xmlns="http://www.w3.org/2000/svg">
<path d="M14 12C16.2093 12 18 10.2091 18 8C18 5.79086 16.2093 4 14 4C11.7907 4 10 5.79086 10 8C10 10.2091 11.7907 12 14 12Z" fill="#7D8198"/>
<path d="M9.72055 11.45C9.23051 11.79 8.64006 12 8 12C6.34985 12 5 10.65 5 9C5 7.35 6.34985 6 8 6C8.29003 6 8.55044 6.06001 8.82047 6.14001C8.61045 6.73001 8.49044 7.35001 8.49044 8.01001C8.49044 9.31001 8.96048 10.51 9.72055 11.45Z" fill="#7D8198"/>
<path d="M8.80053 13.07C7.71042 13.8 6.86035 14.67 6.25029 15.49C5.69024 16.24 5.44021 17.13 5.51022 18H4.2101C3.78006 18 3.39002 17.79 3.17 17.43C2.95998 17.08 2.93998 16.66 3.12 16.29C3.61004 15.3 5.06973 13.01 8 13C8.29003 13 8.5405 13.03 8.80053 13.07Z" fill="#7D8198"/>
<path d="M14 13C17.3103 13 19.3916 14.84 20.5417 16.39C21.0517 17.08 21.1417 17.93 20.7717 18.67C20.3516 19.49 19.4901 20 18.5 20H9.5C8.49991 20 7.64046 19.49 7.23042 18.67C6.86038 17.93 6.95039 17.08 7.46044 16.39C8.61055 14.84 10.6897 13 14 13Z" fill="#7D8198"/>
</svg>
