<svg width="24" height="24" viewBox="0 0 24 24" fill="none" xmlns="http://www.w3.org/2000/svg">
<path d="M6.0039 5C6.07385 5.00027 6.14214 5.00755 6.208 5.02148C6.2268 5.02546 6.24517 5.03109 6.26366 5.03613C6.28243 5.04125 6.30102 5.04657 6.31933 5.05273C6.32949 5.05615 6.33956 5.05974 6.3496 5.06348C6.3739 5.07255 6.39753 5.08288 6.42089 5.09375C6.43306 5.09939 6.44509 5.10521 6.45702 5.11133C6.47196 5.11902 6.48648 5.12733 6.50097 5.13574C6.51702 5.14502 6.53329 5.15389 6.54882 5.16406C6.5644 5.17431 6.57878 5.18618 6.59374 5.19727C6.66508 5.24992 6.73112 5.31062 6.7871 5.38184L9.53612 8.88184C9.87717 9.31601 9.8021 9.9449 9.36816 10.2861C8.93398 10.6272 8.30509 10.5521 7.96386 10.1182L6.99999 8.89062V15C6.99999 16.1046 7.89543 17 8.99999 17H12C12.5523 17 13 17.4477 13 18C13 18.5523 12.5523 19 12 19H8.99999C6.79086 19 4.99999 17.2091 4.99999 15V8.89062L4.03612 10.1182C3.69482 10.5522 3.06599 10.6273 2.63183 10.2861C2.19778 9.94483 2.12264 9.316 2.46386 8.88184L5.21484 5.38184L5.21679 5.37891C5.36024 5.19825 5.56435 5.06738 5.79882 5.01953C5.812 5.01681 5.82554 5.01586 5.83886 5.01367C5.85826 5.01053 5.87769 5.00689 5.89745 5.00488L5.99999 5H6.0039Z" fill="#7D8198"/>
<path d="M15 5C17.2091 5.00001 19 6.79086 19 9V15.1084L19.9639 13.8818C20.3052 13.4478 20.934 13.3727 21.3682 13.7139C21.8022 14.0552 21.8773 14.684 21.5361 15.1182L18.7851 18.6182L18.71 18.7031C18.5232 18.8919 18.2677 19 17.999 19C17.6923 18.9999 17.4024 18.8593 17.2129 18.6182L14.4639 15.1182C14.1228 14.684 14.1979 14.0551 14.6318 13.7139C15.066 13.3728 15.6949 13.4479 16.0361 13.8818L17 15.1084V9C17 7.89543 16.1046 7.00001 15 7H12C11.4477 7 11 6.55228 11 6C11 5.44772 11.4477 5 12 5H15Z" fill="#7D8198"/>
</svg>
