<svg width="24" height="24" viewBox="0 0 24 24" fill="none" xmlns="http://www.w3.org/2000/svg">
<path fill-rule="evenodd" clip-rule="evenodd" d="M3 6.75C3 5.23122 4.23122 4 5.75 4H18.25C19.7688 4 21 5.23122 21 6.75V16.25C21 17.7688 19.7688 19 18.25 19H9.7604C9.45426 19 9.15876 19.1123 8.92994 19.3157L7.24827 20.8106C7.02753 21.0068 6.71218 21.0552 6.44276 20.9342C6.17333 20.8132 6 20.5453 6 20.25V19.75C6 19.3358 5.66421 19 5.25 19C4.00736 19 3 17.9926 3 16.75V6.75ZM11.745 7.00342C12.0343 6.98689 12.3236 7.03043 12.5952 7.13114C12.8668 7.23183 13.1145 7.38741 13.3235 7.58777C13.5132 7.76961 13.6985 8.00438 13.821 8.29264C14.0251 8.77308 14.0594 9.25745 13.8747 9.74918C13.7087 10.1912 13.3868 10.5766 13.0325 10.9372C12.8276 11.1457 12.7604 11.2768 12.7424 11.3187C12.7098 11.6775 12.4218 11.9706 12.0507 11.998C11.6376 12.0285 11.278 11.7183 11.2475 11.3052L11.2474 11.3039L11.2473 11.3025L11.2471 11.2998L11.2467 11.2942L11.2461 11.2826C11.2458 11.2748 11.2455 11.2666 11.2454 11.2581C11.2451 11.241 11.2454 11.2227 11.2462 11.2031C11.2479 11.1639 11.2522 11.1201 11.2601 11.0719C11.2761 10.9753 11.3064 10.8642 11.3582 10.7408C11.4617 10.494 11.6471 10.2069 11.9626 9.88588C12.2861 9.55663 12.4198 9.35651 12.4705 9.22176C12.5024 9.13676 12.5143 9.05321 12.4404 8.87909C12.4155 8.8206 12.3664 8.7481 12.2855 8.67058C12.224 8.61158 12.1518 8.56652 12.0737 8.53758C11.9957 8.50864 11.913 8.49627 11.8306 8.50098C11.7481 8.50569 11.6671 8.52742 11.5924 8.56522C11.5177 8.60305 11.4507 8.65632 11.3957 8.72234C11.3408 8.78839 11.2992 8.86573 11.274 8.94983C11.2605 8.99521 11.2524 9.05433 11.2442 9.19584C11.2204 9.60937 10.8659 9.9253 10.4523 9.90149C10.0388 9.87769 9.72288 9.52316 9.74668 9.10963C9.75494 8.96616 9.76814 8.75028 9.83682 8.5204C9.91966 8.24317 10.0576 7.98532 10.2427 7.76284C10.4279 7.54033 10.6565 7.3578 10.9149 7.22698C11.1733 7.09614 11.4558 7.01994 11.745 7.00342ZM13.002 14C13.002 14.5523 12.5538 15 12.0008 15C11.4479 15 10.9996 14.5523 10.9996 14C10.9996 13.4477 11.4479 13 12.0008 13C12.5538 13 13.002 13.4477 13.002 14Z" fill="#7D8198"/>
</svg>
