<svg width="24" height="24" viewBox="0 0 24 24" fill="none" xmlns="http://www.w3.org/2000/svg">
<path fill-rule="evenodd" clip-rule="evenodd" d="M12.6579 3C13.2888 3 13.8 3.5112 13.8 4.1421C13.8 4.6614 14.1564 5.1087 14.6415 5.3004C14.7179 5.33088 14.7939 5.36269 14.8692 5.3958C15.348 5.6037 15.915 5.5407 16.284 5.1717C16.4982 4.95769 16.7885 4.83747 17.0913 4.83747C17.3941 4.83747 17.6844 4.95769 17.8986 5.1717L18.8292 6.1023C19.0432 6.31646 19.1634 6.60684 19.1634 6.9096C19.1634 7.21236 19.0432 7.50274 18.8292 7.7169C18.4611 8.0859 18.3981 8.6538 18.6051 9.1317C18.6379 9.20704 18.6694 9.28295 18.6996 9.3594C18.8913 9.8445 19.3377 10.2009 19.8579 10.2009C20.4888 10.2009 21 10.7121 21 11.343V12.6579C21 13.2888 20.4888 13.8 19.8579 13.8C19.3377 13.8 18.8913 14.1564 18.7005 14.6415C18.6699 14.718 18.6384 14.7945 18.6051 14.8692C18.3972 15.348 18.4602 15.915 18.8292 16.284C19.0432 16.4982 19.1634 16.7885 19.1634 17.0913C19.1634 17.3941 19.0432 17.6844 18.8292 17.8986L17.8986 18.8292C17.7925 18.9353 17.6666 19.0195 17.528 19.0769C17.3894 19.1343 17.2409 19.1639 17.0908 19.1639C16.9408 19.1639 16.7923 19.1343 16.6537 19.0769C16.5151 19.0195 16.3892 18.9353 16.2831 18.8292C15.915 18.4611 15.3471 18.3972 14.8692 18.606C14.7945 18.6384 14.718 18.6699 14.6415 18.6996C14.1564 18.8913 13.8 19.3377 13.8 19.8579C13.8 20.4888 13.2888 21 12.6579 21H11.3421C10.7112 21 10.2 20.4888 10.2 19.8579C10.2 19.3377 9.8436 18.8913 9.3585 18.7005C9.282 18.6699 9.2055 18.6384 9.1308 18.6051C8.652 18.3972 8.085 18.4602 7.716 18.8292C7.50184 19.0432 7.21146 19.1634 6.9087 19.1634C6.60594 19.1634 6.31556 19.0432 6.1014 18.8292L5.1708 17.8986C4.95679 17.6844 4.83657 17.3941 4.83657 17.0913C4.83657 16.7885 4.95679 16.4982 5.1708 16.284C5.5389 15.915 5.6019 15.3471 5.394 14.8692L5.38712 14.8529C5.3578 14.7834 5.32788 14.7124 5.2995 14.6415C5.1087 14.1564 4.6623 13.8 4.1421 13.8C3.5112 13.8 3 13.2888 3 12.6579V11.3421C3 10.7112 3.5112 10.2 4.1421 10.2C4.6623 10.2 5.1087 9.8436 5.2995 9.3585C5.32969 9.28206 5.36119 9.20615 5.394 9.1308C5.6028 8.652 5.5398 8.085 5.1708 7.716C4.95679 7.50184 4.83657 7.21146 4.83657 6.9087C4.83657 6.60594 4.95679 6.31556 5.1708 6.1014L6.1014 5.1708C6.31556 4.95679 6.60594 4.83657 6.9087 4.83657C7.21146 4.83657 7.50184 4.95679 7.716 5.1708C8.085 5.5389 8.6529 5.6019 9.1308 5.3949C9.2055 5.3625 9.282 5.3301 9.3585 5.2995C9.8436 5.1087 10.2 4.6623 10.2 4.1421C10.2 3.5112 10.7112 3 11.343 3H12.6579ZM12 9C13.6569 9 15 10.3431 15 12C15 13.6569 13.6569 15 12 15C10.3431 15 9 13.6569 9 12C9 10.3431 10.3431 9 12 9Z" fill="#7D8198"/>
</svg>
