<svg width="24" height="24" viewBox="0 0 24 24" fill="none" xmlns="http://www.w3.org/2000/svg">
<path fill-rule="evenodd" clip-rule="evenodd" d="M4 6.75C4 5.23122 5.23122 4 6.75 4H17.25C18.7688 4 20 5.23122 20 6.75V17.25C20 18.7688 18.7688 20 17.25 20H6.75C5.23122 20 4 18.7688 4 17.25V6.75ZM8.75132 7C8.3371 7 8.00132 7.33579 8.00132 7.75C8.00132 8.16421 8.3371 8.5 8.75132 8.5H15.2513C15.6656 8.5 16.0013 8.16421 16.0013 7.75C16.0013 7.33579 15.6656 7 15.2513 7H8.75132ZM6.75 11C6.33579 11 6 11.3358 6 11.75C6 12.1642 6.33579 12.5 6.75 12.5H17.25C17.6642 12.5 18 12.1642 18 11.75C18 11.3358 17.6642 11 17.25 11H6.75ZM8.00134 15.75C8.00134 15.3358 8.33713 15 8.75134 15H15.2513C15.6656 15 16.0013 15.3358 16.0013 15.75C16.0013 16.1642 15.6656 16.5 15.2513 16.5H8.75134C8.33713 16.5 8.00134 16.1642 8.00134 15.75Z" fill="#7D8198"/>
</svg>
