<svg width="24" height="24" viewBox="0 0 24 24" fill="none" xmlns="http://www.w3.org/2000/svg">
    <path
        d="M9.70833 10.9583H6.375C5.68458 10.9583 5.125 10.3988 5.125 9.70833V6.375C5.125 5.68458 5.68458 5.125 6.375 5.125H9.70833C10.3988 5.125 10.9583 5.68458 10.9583 6.375V9.70833C10.9583 10.3988 10.3988 10.9583 9.70833 10.9583Z"
        stroke="#C1C2D9" stroke-width="1.5" stroke-miterlimit="10" stroke-linecap="round" stroke-linejoin="round" />
    <path
        d="M17.625 10.9583H14.2917C13.6012 10.9583 13.0417 10.3988 13.0417 9.70833V6.375C13.0417 5.68458 13.6012 5.125 14.2917 5.125H17.625C18.3154 5.125 18.875 5.68458 18.875 6.375V9.70833C18.875 10.3988 18.3154 10.9583 17.625 10.9583Z"
        stroke="#C1C2D9" stroke-width="1.5" stroke-miterlimit="10" stroke-linecap="round" stroke-linejoin="round" />
    <path
        d="M9.70833 18.875H6.375C5.68458 18.875 5.125 18.3154 5.125 17.625V14.2917C5.125 13.6013 5.68458 13.0417 6.375 13.0417H9.70833C10.3988 13.0417 10.9583 13.6013 10.9583 14.2917V17.625C10.9583 18.3154 10.3988 18.875 9.70833 18.875Z"
        stroke="#C1C2D9" stroke-width="1.5" stroke-miterlimit="10" stroke-linecap="round" stroke-linejoin="round" />
    <path
        d="M17.625 18.875H14.2917C13.6012 18.875 13.0417 18.3154 13.0417 17.625V14.2917C13.0417 13.6013 13.6012 13.0417 14.2917 13.0417H17.625C18.3154 13.0417 18.875 13.6013 18.875 14.2917V17.625C18.875 18.3154 18.3154 18.875 17.625 18.875Z"
        stroke="#C1C2D9" stroke-width="1.5" stroke-miterlimit="10" stroke-linecap="round" stroke-linejoin="round" />
</svg>
