<svg width="24" height="24" viewBox="0 0 24 24" fill="none" xmlns="http://www.w3.org/2000/svg">
<path d="M12 4.00171C9.79086 4.00171 8 5.79257 8 8.00171C8 10.2108 9.79086 12.0017 12 12.0017C14.2091 12.0017 16 10.2108 16 8.00171C16 5.79257 14.2091 4.00171 12 4.00171Z" fill="#7D8198"/>
<path d="M12 13C8.72814 13 6.649 14.7974 5.45957 16.392C4.86243 17.1926 4.88072 18.132 5.33263 18.8523C5.77006 19.5496 6.58118 20 7.50389 20H16.4961C17.4188 20 18.23 19.5496 18.6674 18.8523C19.1193 18.132 19.1376 17.1926 18.5405 16.392C17.351 14.7974 15.2719 13 12 13Z" fill="#7D8198"/>
</svg>
