<svg width="24" height="24" viewBox="0 0 24 24" fill="none" xmlns="http://www.w3.org/2000/svg">
<path d="M12.0001 8.50013C13.3808 8.50021 14.5001 9.61947 14.5001 11.0001C14.5001 12.3808 13.3807 13.5001 12.0001 13.5001C10.6194 13.5001 9.50017 12.3808 9.50012 11.0001C9.50012 9.61942 10.6194 8.50013 12.0001 8.50013Z" fill="#7D8198"/>
<path fill-rule="evenodd" clip-rule="evenodd" d="M6.3673 5.27064C9.48147 2.24236 14.5413 2.24355 17.6544 5.27357C20.785 8.32087 20.7852 13.2992 17.6349 16.3468L17.6359 16.3478L13.4601 20.4113L13.4523 20.4191L13.4445 20.4259C12.6323 21.1832 11.3358 21.2037 10.5216 20.4113L6.34582 16.3478C3.21441 13.2998 3.21522 8.31822 6.3673 5.27064ZM16.2726 6.70326C13.9286 4.42223 10.09 4.42207 7.74621 6.70326L7.74426 6.70521C5.40189 8.96992 5.40152 12.6528 7.72766 14.9171L11.9034 18.9816C11.9144 18.9923 11.9396 19.0078 11.9835 19.0079C12.0279 19.0079 12.0674 18.9915 12.0939 18.9669L16.255 14.9171L16.257 14.9152C18.5993 12.6506 18.5986 8.96763 16.2726 6.70326Z" fill="#7D8198"/>
</svg>
