<svg width="24" height="24" viewBox="0 0 24 24" fill="none" xmlns="http://www.w3.org/2000/svg">
<path d="M8.71191 15C8.88956 15.0001 9.05401 15.0946 9.14355 15.248L12.0615 20.248C12.256 20.5814 12.0148 21 11.6289 21H9.28613C9.10827 21 8.94311 20.9056 8.85352 20.752L5.93848 15.752C5.74415 15.4187 5.98437 15.0001 6.37012 15H8.71191Z" fill="#7D8198"/>
<path d="M19.0039 3.00293C19.5545 3.00497 20 3.45191 20 4.00293V16C19.9999 16.551 19.5544 16.997 19.0039 16.999H19.001L19 17C18.9967 17 18.9935 16.9991 18.9902 16.999C17.2246 16.9945 16.9063 16.1143 15 14.5938C13.8789 13.6996 12.7581 13.3065 11.9893 13.1338C11.4504 13.0127 11 12.5503 11 11.998V7.99805C11.0001 7.44595 11.4501 6.98538 11.9902 6.87109C12.759 6.70857 13.8795 6.33839 15 5.49805C17 3.9981 17.2263 3.00298 19.0039 3.00293Z" fill="#7D8198"/>
<path d="M8 7C8.55228 7 9 7.44772 9 8V12C8.99993 12.5522 8.55224 13 8 13H6C4.89547 13 4.00007 12.1045 4 11V9C4 7.89543 4.89543 7 6 7H8Z" fill="#7D8198"/>
</svg>
