<svg width="24" height="24" viewBox="0 0 24 24" fill="none" xmlns="http://www.w3.org/2000/svg">
<path fill-rule="evenodd" clip-rule="evenodd" d="M3.61552 9.53847C3.39579 9.61172 3.24373 9.81255 3.23283 10.0439C3.22194 10.2753 3.35445 10.4895 3.56632 10.5831L8.77218 12.8821C8.95414 12.9625 9.16505 12.9404 9.32641 12.8241L13.9158 9.51638L13.9158 9.51632C13.9663 9.47996 13.9981 9.47994 14.0162 9.48217C14.042 9.48536 14.077 9.49992 14.109 9.53186C14.1409 9.5638 14.1555 9.59881 14.1587 9.62465C14.1609 9.64272 14.1609 9.67456 14.1245 9.725L14.1245 9.72504L10.8165 14.3141C10.7002 14.4755 10.6781 14.6864 10.7585 14.8684L13.0575 20.0742C13.1511 20.2861 13.3653 20.4186 13.5967 20.4077C13.828 20.3968 14.0288 20.2448 14.1021 20.025L18.9908 5.3588C19.058 5.15736 19.0056 4.93528 18.8554 4.78514C18.7053 4.635 18.4832 4.58258 18.2818 4.64972L3.61552 9.53847Z" fill="#5B53FF"/>
</svg>
