<svg width="24" height="24" viewBox="0 0 24 24" fill="none" xmlns="http://www.w3.org/2000/svg">
<path fill-rule="evenodd" clip-rule="evenodd" d="M7.75055 8.00269C7.97385 8.00269 8.17436 7.9051 8.31176 7.75024H11.2498V16.5H10.7543C10.34 16.5 10.0043 16.8358 10.0043 17.25C10.0043 17.6642 10.34 18 10.7543 18H13.2543C13.6685 18 14.0043 17.6642 14.0043 17.25C14.0043 16.8358 13.6685 16.5 13.2543 16.5H12.7498V7.75024H15.6882C15.8256 7.9051 16.0261 8.00269 16.2494 8.00269C16.6637 8.00269 16.9994 7.6669 16.9994 7.25269V6.75269C16.9994 6.33847 16.6637 6.00269 16.2494 6.00269C16.0285 6.00269 15.8299 6.09822 15.6926 6.25024L8.30738 6.25024C8.17012 6.09822 7.97149 6.00269 7.75055 6.00269C7.33634 6.00269 7.00055 6.33847 7.00055 6.75269V7.25269C7.00055 7.6669 7.33634 8.00269 7.75055 8.00269Z" fill="#4979FA"/>
</svg>
