<svg width="24" height="24" viewBox="0 0 24 24" fill="none" xmlns="http://www.w3.org/2000/svg">
<path fill-rule="evenodd" clip-rule="evenodd" d="M4 7.75C4 6.23122 5.23122 5 6.75 5H9.9896C10.6631 5 11.3132 5.24717 11.8166 5.69462L12.9299 6.68426C13.1588 6.88765 13.4543 7 13.7604 7H18.2505C19.7693 7 21.0005 8.23122 21.0005 9.75V16.25C21.0005 17.7688 19.7693 19 18.2505 19H6.75C5.23121 19 4 17.7688 4 16.25V7.75ZM11.8141 15.7513C11.5373 16.0594 11.0631 16.0847 10.755 15.8078L8.2515 13.5578C8.09323 13.4156 8.00284 13.2128 8.00284 13C8.00284 12.7872 8.09323 12.5844 8.2515 12.4422L10.755 10.1922C11.0631 9.91531 11.5373 9.94059 11.8141 10.2487C12.091 10.5567 12.0657 11.0309 11.7577 11.3078L10.7093 12.25H14.2543C14.9446 12.25 15.5043 11.6904 15.5043 11V10.75C15.5043 10.3358 15.8401 10 16.2543 10C16.6685 10 17.0043 10.3358 17.0043 10.75V11C17.0043 12.5188 15.7731 13.75 14.2543 13.75H10.7093L11.7577 14.6922C12.0657 14.9691 12.091 15.4433 11.8141 15.7513Z" fill="#7D8198"/>
</svg>
