<svg width="24" height="24" viewBox="0 0 24 24" fill="none" xmlns="http://www.w3.org/2000/svg">
<path d="M18.4951 4.03483C19.3746 3.82787 20.164 4.60925 19.9746 5.48697L19.9756 5.48795L18.4697 13.1403C18.4675 13.1512 18.4645 13.1627 18.4619 13.1735C18.235 14.1006 17.0836 14.426 16.4052 13.7546C16.3883 13.7377 16.3717 13.7202 16.3564 13.7018L14.9668 12.0309L5.22262 19.8376C4.92312 20.0772 4.49055 20.0516 4.22067 19.779C3.95109 19.5063 3.93045 19.0741 4.17282 18.777L12.0244 9.16666L10.3545 7.92545C10.3263 7.90451 10.2993 7.88176 10.2744 7.85709C9.59108 7.18061 9.91429 6.01612 10.8486 5.78971L10.8574 5.78776L18.4951 4.03483Z" fill="#7D8198"/>
</svg>
