<svg width="24" height="24" viewBox="0 0 24 24" fill="none" xmlns="http://www.w3.org/2000/svg">
<path fill-rule="evenodd" clip-rule="evenodd" d="M4 6.75C4 5.23122 5.23122 4 6.75 4L17.25 4C18.7688 4 20 5.23122 20 6.75V17.25C20 18.7688 18.7688 20 17.25 20H6.75C5.23122 20 4 18.7688 4 17.25L4 6.75ZM15.7047 13.765C15.9892 14.0661 16.4638 14.0797 16.765 13.7953C17.0661 13.5108 17.0797 13.0362 16.7953 12.735L12.5451 8.23503C12.4035 8.08501 12.2062 8 11.9999 8C11.7935 8 11.5963 8.08502 11.4546 8.23504L7.20473 12.735C6.92033 13.0362 6.9339 13.5109 7.23504 13.7953C7.53618 14.0797 8.01086 14.0661 8.29527 13.765L11.9999 9.8423L15.7047 13.765Z" fill="#7D8198"/>
</svg>
