<svg width="24" height="24" viewBox="0 0 24 24" fill="none" xmlns="http://www.w3.org/2000/svg">
<path d="M12.7214 3.16968C12.6605 2.94344 12.3395 2.94344 12.2786 3.16968L12.0029 4.19388C11.8966 4.58843 11.5884 4.89663 11.1939 5.00285L10.1697 5.2786C9.94344 5.33951 9.94344 5.66049 10.1697 5.7214L11.1939 5.99715C11.5884 6.10337 11.8966 6.41157 12.0029 6.80612L12.2786 7.83032C12.3395 8.05656 12.6605 8.05656 12.7214 7.83032L12.9971 6.80612C13.1034 6.41157 13.4116 6.10337 13.8061 5.99715L14.8303 5.7214C15.0566 5.66049 15.0566 5.33951 14.8303 5.2786L13.8061 5.00285C13.4116 4.89663 13.1034 4.58843 12.9971 4.19388L12.7214 3.16968Z" fill="#7D8198"/>
<path d="M6.24306 7.19691C6.31375 6.93436 6.68625 6.93436 6.75694 7.19691L7.08446 8.41342C7.2817 9.14604 7.85396 9.7183 8.58658 9.91554L9.80309 10.2431C10.0656 10.3137 10.0656 10.6863 9.80309 10.7569L8.58658 11.0845C7.85396 11.2817 7.2817 11.854 7.08446 12.5866L6.75694 13.8031C6.68625 14.0656 6.31375 14.0656 6.24306 13.8031L5.91554 12.5866C5.7183 11.854 5.14603 11.2817 4.41342 11.0845L3.19691 10.7569C2.93436 10.6863 2.93436 10.3137 3.19691 10.2431L4.41342 9.91554C5.14604 9.7183 5.7183 9.14603 5.91554 8.41342L6.24306 7.19691Z" fill="#7D8198"/>
<path d="M14.2365 10.202C14.309 9.93268 14.691 9.93268 14.7635 10.202L15.5047 12.9547C15.707 13.7061 16.2939 14.293 17.0453 14.4953L19.798 15.2365C20.0673 15.309 20.0673 15.691 19.798 15.7635L17.0453 16.5047C16.2939 16.707 15.707 17.2939 15.5047 18.0453L14.7635 20.798C14.691 21.0673 14.309 21.0673 14.2365 20.798L13.4953 18.0453C13.293 17.2939 12.7061 16.707 11.9547 16.5047L9.20196 15.7635C8.93268 15.691 8.93268 15.309 9.20196 15.2365L11.9547 14.4953C12.7061 14.293 13.293 13.7061 13.4953 12.9547L14.2365 10.202Z" fill="#7D8198"/>
</svg>
