<svg width="24" height="24" viewBox="0 0 24 24" fill="none" xmlns="http://www.w3.org/2000/svg">
<path d="M10.5 7C12.433 7 14 8.56697 14 10.5C14 12.433 12.433 14 10.5 14C8.567 14 7 12.433 7 10.5C7 8.56699 8.567 7.00003 10.5 7Z" fill="#7D8198"/>
<path fill-rule="evenodd" clip-rule="evenodd" d="M10.5 4C14.0899 4 17 6.91015 17 10.5C17 12.0246 16.4727 13.4247 15.5938 14.5332L19.7803 18.7197C20.0732 19.0126 20.0732 19.4874 19.7803 19.7803C19.4874 20.0732 19.0126 20.0732 18.7197 19.7803L14.5332 15.5938C13.4247 16.4727 12.0246 17 10.5 17C6.91015 17 4 14.0899 4 10.5C4 6.91015 6.91015 4 10.5 4ZM10.5 5.5C7.73858 5.5 5.5 7.73858 5.5 10.5C5.5 13.2614 7.73858 15.5 10.5 15.5C13.2614 15.5 15.5 13.2614 15.5 10.5C15.5 7.73858 13.2614 5.5 10.5 5.5Z" fill="#7D8198"/>
</svg>
