<svg width="24" height="24" viewBox="0 0 24 24" fill="none" xmlns="http://www.w3.org/2000/svg">
<path fill-rule="evenodd" clip-rule="evenodd" d="M16 10.5C16 13.5376 13.5376 16 10.5 16C7.46243 16 5 13.5376 5 10.5C5 7.46243 7.46243 5 10.5 5C13.5376 5 16 7.46243 16 10.5ZM16.5855 14.8847C17.4755 13.6515 18 12.137 18 10.5C18 6.35786 14.6421 3 10.5 3C6.35786 3 3 6.35786 3 10.5C3 14.6421 6.35786 18 10.5 18C12.1371 18 13.6518 17.4755 14.885 16.5853L16.5316 19.1365C17.1827 20.1452 18.5984 20.296 19.4473 19.447C20.2962 18.5981 20.1454 17.1824 19.1367 16.5314L16.5855 14.8847Z" fill="#7D8198"/>
</svg>
