<svg width="24" height="24" viewBox="0 0 24 24" fill="none" xmlns="http://www.w3.org/2000/svg">
<path fill-rule="evenodd" clip-rule="evenodd" d="M16.5,17.7c-1.2,1-2.8,1.6-4.5,1.6c-4,0-7.2-3.2-7.2-7.2c0-1.7,0.6-3.3,1.6-4.5l10,10
	C16.4,17.6,16.4,17.7,16.5,17.7z M17.6,16.6c0-0.1-0.1-0.1-0.1-0.2l-10-10c1.2-1,2.8-1.6,4.5-1.6c4,0,7.2,3.2,7.2,7.2
	C19.2,13.8,18.6,15.3,17.6,16.6z M20.9,12.1c0,4.9-4,8.9-8.9,8.9c-4.9,0-8.9-4-8.9-8.9c0-4.9,4-8.9,8.9-8.9
	C16.9,3.2,20.9,7.2,20.9,12.1z" fill="#5B53FF"/>
</svg>
