<svg width="24" height="24" viewBox="0 0 24 24" fill="none" xmlns="http://www.w3.org/2000/svg">
<path fill-rule="evenodd" clip-rule="evenodd" d="M21 12C21 7.02944 16.9706 3 12 3C7.02944 3 3 7.02944 3 12C3 16.9706 7.02944 21 12 21C16.9706 21 21 16.9706 21 12ZM13.1884 7.24852C13.4654 6.94052 13.9396 6.91536 14.2476 7.19232L16.7515 9.4439C16.9096 9.58612 17 9.78882 17 10.0015C17 10.2142 16.9097 10.4169 16.7516 10.5592L14.2477 12.8115C13.9397 13.0885 13.4655 13.0634 13.1885 12.7555C12.9115 12.4475 12.9366 11.9733 13.2445 11.6963L14.2949 10.7515H10.3815C9.34506 10.7515 8.50476 11.5918 8.50476 12.6282C8.50476 13.6791 9.41234 14.5049 10.2516 14.5049C10.6658 14.5049 11.0016 14.8407 11.0016 15.2549C11.0016 15.6691 10.6658 16.0049 10.2516 16.0049C8.55513 16.0049 7.00476 14.4785 7.00476 12.6282C7.00476 10.7633 8.51663 9.25147 10.3815 9.25147H14.2942L13.2446 8.30769C12.9366 8.03073 12.9114 7.55652 13.1884 7.24852Z" fill="#7D8198"/>
</svg>
