<svg width="24" height="24" viewBox="0 0 24 24" fill="none" xmlns="http://www.w3.org/2000/svg">
<path fill-rule="evenodd" clip-rule="evenodd" d="M12 4C12.4142 4 12.75 4.33579 12.75 4.75V6.00195H17.25C18.7688 6.00195 20 7.23317 20 8.75195V15.25C20 16.7688 18.7688 18 17.25 18H12.75V19.25C12.75 19.6642 12.4142 20 12 20C11.5858 20 11.25 19.6642 11.25 19.25V18H6.75C5.23122 18 4 16.7688 4 15.25V8.75195C4 7.23317 5.23122 6.00195 6.75 6.00195H11.25V4.75C11.25 4.33579 11.5858 4 12 4ZM6.75 7.50195H11.25V16.5H6.75C6.05964 16.5 5.5 15.9404 5.5 15.25V8.75195C5.5 8.0616 6.05964 7.50195 6.75 7.50195Z" fill="#7D8198"/>
</svg>
