<svg width="24" height="24" viewBox="0 0 24 24" fill="none" xmlns="http://www.w3.org/2000/svg">
<path fill-rule="evenodd" clip-rule="evenodd" d="M10.0456 7.922L12.5043 5.87839V18.1216L10.0456 16.078C9.0131 15.2198 7.71282 14.75 6.37022 14.75H5C4.7238 14.75 4.5 14.5262 4.5 14.25V9.75C4.5 9.4738 4.7238 9.25 5 9.25H6.37022C7.71282 9.25 9.0131 8.78018 10.0456 7.922ZM14.0043 5.1675C14.0043 4.16124 12.8184 3.6303 12.068 4.29062L9.08682 6.76843C8.32365 7.40275 7.36258 7.75 6.37022 7.75H5C3.89537 7.75 3 8.64537 3 9.75V14.25C3 15.3546 3.89537 16.25 5 16.25H6.37022C7.36258 16.25 8.32365 16.5973 9.08682 17.2316L12.068 19.7094C12.8184 20.3697 14.0043 19.8388 14.0043 18.8325V5.1675ZM17.2973 9.15974C17.1094 8.79061 16.6578 8.64371 16.2886 8.83163C15.9195 9.01955 15.7726 9.47114 15.9605 9.84027C16.3061 10.5192 16.5039 11.2826 16.5039 12.0929C16.5039 12.9032 16.3061 13.6667 15.9605 14.3456C15.7726 14.7147 15.9195 15.1663 16.2886 15.3542C16.6578 15.5421 17.1094 15.3952 17.2973 15.0261C17.745 14.1467 18.0039 13.151 18.0039 12.0929C18.0039 11.0349 17.745 10.0392 17.2973 9.15974Z" fill="#5B53FF"/>
</svg>
