<svg width="24" height="24" viewBox="0 0 24 24" fill="none" xmlns="http://www.w3.org/2000/svg">
<path d="M10.908 8.18491C10.0742 7.67541 9.00366 8.27483 9.00366 9.25123V14.7471C9.00366 15.7235 10.0742 16.3229 10.908 15.8134L15.4053 13.0654C16.2031 12.5779 16.2031 11.4203 15.4053 10.9328L10.908 8.18491Z" fill="#7D8198"/>
<path d="M12.8029 3.00756C12.3908 2.96982 12.0261 3.27392 11.9885 3.68678C11.9508 4.09964 12.2544 4.46491 12.6665 4.50265C14.5345 4.6737 16.2712 5.53804 17.5358 6.92601C18.8003 8.31399 19.5014 10.1254 19.5013 12.0046C19.5013 13.8838 18.8001 15.6951 17.5355 17.083C16.2709 18.4709 14.5341 19.3352 12.6661 19.5061C12.254 19.5439 11.9504 19.9091 11.9881 20.322C12.0257 20.7348 12.3903 21.0389 12.8024 21.0012C15.0427 20.7962 17.1256 19.7597 18.6423 18.0952C20.159 16.4307 20.9999 14.2583 20.9999 12.0046C21 9.75087 20.1592 7.5785 18.6426 5.9139C17.126 4.2493 15.0432 3.2127 12.8029 3.00756Z" fill="#7D8198"/>
<path d="M6.77193 19.3766C6.4342 19.137 6.35427 18.6685 6.5934 18.3301C6.83254 17.9918 7.30018 17.9117 7.63792 18.1513C8.20694 18.5549 8.82925 18.8773 9.48694 19.1091C9.87731 19.2467 10.0824 19.6753 9.94506 20.0664C9.8077 20.4575 9.3799 20.663 8.98954 20.5254C8.20074 20.2473 7.45439 19.8607 6.77193 19.3766Z" fill="#7D8198"/>
<path d="M9.94615 3.94228C9.80886 3.55118 9.38109 3.34564 8.9907 3.48318C7.71743 3.93179 6.56092 4.66107 5.60652 5.6172C4.65211 6.57333 3.92415 7.73193 3.47633 9.00752C3.33903 9.39862 3.54419 9.82717 3.93458 9.96472C4.32496 10.1023 4.75273 9.89673 4.89003 9.50564C5.26342 8.44205 5.87039 7.47602 6.66617 6.6788C7.46195 5.88158 8.42624 5.27352 9.48789 4.89947C9.87828 4.76192 10.0834 4.33337 9.94615 3.94228Z" fill="#7D8198"/>
<path d="M3.00317 12.8277C2.96545 12.4148 3.26896 12.0495 3.68106 12.0117C4.09316 11.9739 4.45781 12.278 4.49552 12.6908C4.59848 13.818 4.95373 14.9075 5.53484 15.8782C5.74768 16.2337 5.63253 16.6948 5.27763 16.9081C4.92274 17.1213 4.4625 17.0059 4.24966 16.6504C3.55271 15.4862 3.12665 14.1795 3.00317 12.8277Z" fill="#7D8198"/>
</svg>
