<svg width="24" height="24" viewBox="0 0 24 24" fill="none" xmlns="http://www.w3.org/2000/svg">
<path d="M13 17C13.5523 17 14 17.4477 14 18C14 18.5523 13.5523 19 13 19H7C6.44772 19 6 18.5523 6 18C6 17.4477 6.44772 17 7 17H13Z" fill="#7D8198"/>
<path d="M15 13C15.5523 13 16 13.4477 16 14C16 14.5523 15.5523 15 15 15H7C6.44772 15 6 14.5523 6 14C6 13.4477 6.44772 13 7 13H15Z" fill="#7D8198"/>
<path d="M17 9C17.5523 9 18 9.44772 18 10C18 10.5523 17.5523 11 17 11H7C6.44772 11 6 10.5523 6 10C6 9.44772 6.44772 9 7 9H17Z" fill="#7D8198"/>
<path d="M19 5C19.5523 5 20 5.44772 20 6C20 6.55228 19.5523 7 19 7H7C6.44772 7 6 6.55228 6 6C6 5.44772 6.44772 5 7 5H19Z" fill="#7D8198"/>
</svg>
