<svg width="24" height="24" viewBox="0 0 24 24" fill="none" xmlns="http://www.w3.org/2000/svg">
<path fill-rule="evenodd" clip-rule="evenodd" d="M18.25 4.99512C19.7687 4.99512 20.9999 6.22645 21 7.74512V16.2451C21 17.7639 19.7688 18.9951 18.25 18.9951H5.75C4.23122 18.9951 3 17.7639 3 16.2451V7.74512C3.00013 6.22645 4.2313 4.99512 5.75 4.99512H18.25ZM7.75 14.5C7.33579 14.5 7 14.8358 7 15.25C7 15.6642 7.33579 16 7.75 16H16.2471C16.6612 15.9999 16.9971 15.6642 16.9971 15.25C16.9971 14.8358 16.6612 14.5001 16.2471 14.5H7.75ZM9 11C8.44772 11 8 11.4477 8 12C8 12.5523 8.44772 13 9 13C9.55228 13 10 12.5523 10 12C10 11.4477 9.55228 11 9 11ZM12 11C11.4477 11 11 11.4477 11 12C11 12.5523 11.4477 13 12 13C12.5523 13 13 12.5523 13 12C13 11.4477 12.5523 11 12 11ZM15 11C14.4477 11 14 11.4477 14 12C14 12.5523 14.4477 13 15 13C15.5523 13 16 12.5523 16 12C16 11.4477 15.5523 11 15 11ZM7.5 8C6.94772 8 6.5 8.44772 6.5 9C6.5 9.55228 6.94772 10 7.5 10C8.05228 10 8.5 9.55228 8.5 9C8.5 8.44772 8.05228 8 7.5 8ZM10.5 8C9.94772 8 9.5 8.44772 9.5 9C9.5 9.55228 9.94772 10 10.5 10C11.0523 10 11.5 9.55228 11.5 9C11.5 8.44772 11.0523 8 10.5 8ZM13.5 8C12.9477 8 12.5 8.44772 12.5 9C12.5 9.55228 12.9477 10 13.5 10C14.0523 10 14.5 9.55228 14.5 9C14.5 8.44772 14.0523 8 13.5 8ZM16.5 8C15.9477 8 15.5 8.44772 15.5 9C15.5 9.55228 15.9477 10 16.5 10C17.0523 10 17.5 9.55228 17.5 9C17.5 8.44772 17.0523 8 16.5 8Z" fill="#7D8198"/>
</svg>
