<svg width="24" height="24" viewBox="0 0 24 24" fill="none" xmlns="http://www.w3.org/2000/svg">
<path fill-rule="evenodd" clip-rule="evenodd" d="M4 6.75C4 5.23122 5.23122 4 6.75 4H17.25C18.7688 4 20 5.23122 20 6.75V17.25C20 18.7688 18.7688 20 17.25 20H6.75C5.23122 20 4 18.7688 4 17.25V6.75ZM13.996 15.25C13.996 14.8358 13.6602 14.5 13.246 14.5H10.561L15.7802 9.28249C16.0732 8.98965 16.0733 8.51477 15.7804 8.22183C15.4876 7.92889 15.0127 7.92881 14.7198 8.22165L9.5 13.4397V10.75C9.5 10.3358 9.16421 10 8.75 10C8.33579 10 8 10.3358 8 10.75V15.25C8 15.6642 8.33579 16 8.75 16H13.246C13.6602 16 13.996 15.6642 13.996 15.25Z" fill="#7D8198"/>
</svg>
