<svg width="24" height="24" viewBox="0 0 24 24" fill="none" xmlns="http://www.w3.org/2000/svg">
<path fill-rule="evenodd" clip-rule="evenodd" d="M12.5043 5.87839L10.0456 7.922C9.87935 8.06019 9.70614 8.18831 9.52693 8.30602L8.43542 7.21451C8.66458 7.0871 8.88277 6.93803 9.08682 6.76843L12.068 4.29062C12.8184 3.6303 14.0043 4.16124 14.0043 5.1675V12.7834L12.5043 11.2834V5.87839ZM4.74445 7.76618L6.22828 9.25H5C4.7238 9.25 4.5 9.4738 4.5 9.75V14.25C4.5 14.5262 4.7238 14.75 5 14.75H6.37022C7.71282 14.75 9.0131 15.2198 10.0456 16.078L12.5043 18.1216V15.5261L13.9176 16.9393C13.9457 16.9674 13.9746 16.9942 14.0043 17.0196V18.8325C14.0043 19.8388 12.8184 20.3697 12.068 19.7094L9.08682 17.2316C8.32365 16.5973 7.36258 16.25 6.37022 16.25H5C3.89537 16.25 3 15.3546 3 14.25V9.75C3 8.73195 3.76051 7.89165 4.74445 7.76618ZM5.59099 5.46967C5.2981 5.17678 4.82322 5.17678 4.53033 5.46967C4.23744 5.76256 4.23744 6.23744 4.53033 6.53033L14.9479 16.9479C15.2408 17.2408 15.7157 17.2408 16.0086 16.9479C16.3015 16.655 16.3015 16.1802 16.0086 15.8873L5.59099 5.46967Z" fill="#5B53FF"/>
</svg>
