<svg width="24" height="24" viewBox="0 0 24 24" fill="none" xmlns="http://www.w3.org/2000/svg">
<path fill-rule="evenodd" clip-rule="evenodd" d="M4 7.75C4 6.23122 5.23122 5 6.75 5H17.25C18.7688 5 20 6.23122 20 7.75V16.25C20 17.7688 18.7688 19 17.25 19H6.75C5.23122 19 4 17.7688 4 16.25V7.75ZM6.75 6.5C6.05964 6.5 5.5 7.05964 5.5 7.75V11.25H11.25V6.5H6.75ZM11.25 12.75H5.5V16.25C5.5 16.9404 6.05964 17.5 6.75 17.5H11.25V12.75ZM12.75 12.75H18.5V16.25C18.5 16.9404 17.9404 17.5 17.25 17.5H12.75V12.75ZM18.5 11.25H12.75V6.5H17.25C17.9404 6.5 18.5 7.05964 18.5 7.75V11.25Z" fill="#21C17B"/>
</svg>
