<svg width="24" height="24" viewBox="0 0 24 24" fill="none" xmlns="http://www.w3.org/2000/svg">
<path d="M10 18C10 18.2626 10.0517 18.5227 10.1522 18.7654C10.2528 19.008 10.4001 19.2285 10.5858 19.4142C10.7715 19.5999 10.992 19.7472 11.2346 19.8478C11.4773 19.9483 11.7374 20 12 20C12.2626 20 12.5227 19.9483 12.7654 19.8478C13.008 19.7472 13.2285 19.5999 13.4142 19.4142C13.5999 19.2285 13.7472 19.008 13.8478 18.7654C13.9483 18.5227 14 18.2626 14 18H10Z" fill="#7D8198"/>
<path fill-rule="evenodd" clip-rule="evenodd" d="M12 3C8.68629 3 6 5.68629 6 9V10.193C5.98121 11.4576 5.77876 12.2525 5.56064 12.7448C5.52163 12.8328 5.48021 12.9224 5.43824 13.0131C5.22493 13.4742 4.99719 13.9664 4.99719 14.4558C4.99719 15.3085 5.68842 15.9998 6.5411 15.9998H17.4514C18.3051 15.9998 18.9972 15.3077 18.9972 14.454C18.9972 13.9661 18.7715 13.475 18.56 13.0147C18.518 12.9233 18.4765 12.833 18.4375 12.7443C18.2101 12.2273 18 11.3769 18 9.99975V9C18 5.68629 15.3137 3 12 3Z" fill="#7D8198"/>
</svg>
