<svg width="24" height="24" viewBox="0 0 24 24" fill="none" xmlns="http://www.w3.org/2000/svg">
<path fill-rule="evenodd" clip-rule="evenodd" d="M4 6.75C4 5.23122 5.23122 4 6.75 4H17.25C18.7688 4 20 5.23122 20 6.75V17.25C20 18.7688 18.7688 20 17.25 20H6.75C5.23122 20 4 18.7688 4 17.25V6.75ZM13.765 8.29525C14.0661 8.01084 14.0797 7.53616 13.7953 7.23503C13.5108 6.93389 13.0362 6.92033 12.735 7.20475L8.23503 11.4549C8.08501 11.5965 8 11.7938 8 12.0001C8 12.2065 8.08502 12.4037 8.23504 12.5454L12.735 16.7953C13.0362 17.0797 13.5109 17.0661 13.7953 16.765C14.0797 16.4638 14.0661 15.9891 13.765 15.7047L9.8423 12.0001L13.765 8.29525Z" fill="#7D8198"/>
</svg>
