<svg width="24" height="24" viewBox="0 0 24 24" fill="none" xmlns="http://www.w3.org/2000/svg">
<path fill-rule="evenodd" clip-rule="evenodd" d="M12 3C9.78988 3 8.00108 4.79134 8 7H6.25C5.55964 7 5 7.55964 5 8.25V17.25C5 19.3211 6.67893 21 8.75 21H15.25C17.3211 21 19 19.3211 19 17.25V8.25C19 7.55964 18.4404 7 17.75 7H16C15.9989 4.79134 14.2101 3 12 3ZM12 4.5C10.6195 4.5 9.50108 5.61856 9.5 7H14.5C14.4989 5.61856 13.3805 4.5 12 4.5ZM9.5 10.998C9.5 12.3804 10.6188 13.5 12 13.5C13.3812 13.5 14.5 12.3804 14.5 10.998V9.75001C14.5 9.33579 14.8358 9 15.25 9C15.6642 9 16 9.33597 16 9.75019V10.998C16 13.2076 14.2108 15 12 15C9.78921 15 8 13.2076 8 10.998V9.75001C8 9.33579 8.33579 9 8.75 9C9.16421 9 9.5 9.33677 9.5 9.75099V10.998Z" fill="#7D8198"/>
</svg>
