<svg width="24" height="24" viewBox="0 0 24 24" fill="none" xmlns="http://www.w3.org/2000/svg">
<path fill-rule="evenodd" clip-rule="evenodd" d="M12 21C12.2055 21 12.4094 20.9931 12.6114 20.9796C12.2896 20.5283 12.0287 20.0305 11.8408 19.4983C9.92305 19.4584 8.18224 18.6986 6.87764 17.4783C7.09625 16.9648 7.43577 16.3393 7.94972 15.7596C8.79287 14.8085 10.0921 14 12 14C12.2092 14 12.4111 14.0097 12.6058 14.0283C13.6932 12.4982 15.48 11.5 17.5 11.5C18.7972 11.5 19.9982 11.9116 20.9796 12.6114C20.9931 12.4094 21 12.2055 21 12C21 7.02944 16.9706 3 12 3C7.02944 3 3 7.02944 3 12C3 15.1113 4.5788 17.8539 6.97896 19.4703C7.28822 19.6786 7.61112 19.8682 7.94604 20.0374C9.16435 20.6531 10.5417 21 12 21ZM12 7C10.3431 7 9 8.34315 9 10C9 11.6569 10.3431 13 12 13C13.6569 13 15 11.6569 15 10C15 8.34315 13.6569 7 12 7Z" fill="#7D8198"/>
<path fill-rule="evenodd" clip-rule="evenodd" d="M17.5 22C19.9853 22 22 19.9853 22 17.5C22 15.0147 19.9853 13 17.5 13C15.0147 13 13 15.0147 13 17.5C13 19.9853 15.0147 22 17.5 22ZM18.1343 15.0005C18.1343 14.6553 17.8545 14.3755 17.5093 14.3755C17.1641 14.3755 16.8843 14.6553 16.8843 15.0005V16.875H15.005C14.6598 16.875 14.38 17.1548 14.38 17.5C14.38 17.8452 14.6598 18.125 15.005 18.125H16.8843V20C16.8843 20.3452 17.1641 20.625 17.5093 20.625C17.8545 20.625 18.1343 20.3452 18.1343 20V18.125H20.0075C20.3527 18.125 20.6325 17.8452 20.6325 17.5C20.6325 17.1548 20.3527 16.875 20.0075 16.875H18.1343V15.0005Z" fill="#7D8198"/>
</svg>
