<svg width="24" height="24" viewBox="0 0 24 24" fill="none" xmlns="http://www.w3.org/2000/svg">
    <path fill-rule="evenodd" clip-rule="evenodd"
        d="M6.25 5.75C6.25 4.23122 7.48122 3 9 3H15C16.5188 3 17.75 4.23122 17.75 5.75V18.25C17.75 19.7688 16.5188 21 15 21H9C7.48122 21 6.25 19.7688 6.25 18.25V5.75ZM9 4.5C8.30964 4.5 7.75 5.05964 7.75 5.75V18.25C7.75 18.9404 8.30964 19.5 9 19.5H15C15.6904 19.5 16.25 18.9404 16.25 18.25V5.75C16.25 5.05964 15.6904 4.5 15 4.5H9Z"
        fill="#C1C2D9" />
</svg>
