<svg width="24" height="24" viewBox="0 0 24 24" fill="none" xmlns="http://www.w3.org/2000/svg">
<path d="M7.71848 13.0445C7.71848 13.2249 7.86724 13.3705 8.06981 13.3705H8.37049V13.0698C8.37049 12.8672 8.21857 12.7185 8.04449 12.7185C7.86091 12.7185 7.71848 12.8609 7.71848 13.0445Z" fill="#7D8198"/>
<path d="M10.5006 13.3705H10.8013C11.0039 13.3705 11.1526 13.2249 11.1526 13.0445C11.1526 12.8609 11.007 12.7185 10.8266 12.7185C10.6525 12.7185 10.5006 12.8672 10.5006 13.0698V13.3705Z" fill="#7D8198"/>
<path d="M9.08264 14.0763V14.7821H9.7853V14.0763H9.08264Z" fill="#7D8198"/>
<path d="M8.37049 15.488H8.06981C7.86724 15.488 7.71848 15.6335 7.71848 15.814C7.71848 15.9975 7.86091 16.14 8.04449 16.14C8.21857 16.14 8.37049 15.9912 8.37049 15.7886V15.488Z" fill="#7D8198"/>
<path d="M11.1526 15.814C11.1526 15.6335 11.0039 15.488 10.8013 15.488H10.5006V15.7886C10.5006 15.9912 10.6525 16.14 10.8266 16.14C11.007 16.14 11.1526 15.9975 11.1526 15.814Z" fill="#7D8198"/>
<path fill-rule="evenodd" clip-rule="evenodd" d="M7.13889 5H16.8611C18.0406 5 19 5.95939 19 7.13889V16.8611C19 18.0406 18.0406 19 16.8611 19H7.13889C5.95939 19 5 18.0406 5 16.8611V7.13889C5 5.95939 5.95939 5 7.13889 5ZM8.37366 14.7821V14.0795L8.04132 14.0763C7.46527 14.07 7 13.6174 7 13.0413C7 12.4716 7.46211 12 8.04449 12C8.61421 12 9.08264 12.4716 9.08264 13.0413V13.3642H9.78846V13.0413C9.78846 12.4716 10.2569 12 10.8266 12C11.4058 12 11.8711 12.4716 11.8711 13.0413C11.8711 13.6174 11.4027 14.07 10.8298 14.0763L10.4943 14.0795V14.7821H10.8298C11.4027 14.7885 11.8711 15.2442 11.8711 15.8171C11.8711 16.39 11.4058 16.8584 10.8266 16.8584C10.2569 16.8584 9.78846 16.3868 9.78846 15.8171V15.4943H9.08264V15.8171C9.08264 16.3868 8.61421 16.8584 8.04449 16.8584C7.46211 16.8584 7 16.39 7 15.8171C7 15.2442 7.46527 14.7885 8.04132 14.7821H8.37366ZM14.0139 16.1748C14.0139 16.5609 13.8018 16.7793 13.4347 16.7793C13.0675 16.7793 12.8523 16.5609 12.8523 16.1748V12.6773C12.8523 12.2912 13.0675 12.0728 13.4347 12.0728C13.8018 12.0728 14.0139 12.2912 14.0139 12.6773V14.051H14.0392L15.5933 12.3292C15.7579 12.1456 15.9035 12.0696 16.0997 12.0696C16.4035 12.0696 16.6473 12.307 16.6473 12.6045C16.6473 12.7755 16.5871 12.9021 16.432 13.0698L15.3401 14.2219L16.508 15.6525C16.6979 15.8868 16.777 16.0608 16.777 16.2223C16.777 16.5388 16.5365 16.7825 16.22 16.7825C15.9763 16.7825 15.8085 16.6907 15.6218 16.4533L14.438 14.9752L14.0139 15.4183V16.1748Z" fill="#7D8198"/>
</svg>
