<svg width="24" height="24" viewBox="0 0 24 24" fill="none" xmlns="http://www.w3.org/2000/svg">
<path d="M14.2195 3.56516C14.1591 3.34091 13.8409 3.34091 13.7806 3.56516L13.4852 4.66215C13.3115 5.30744 12.8074 5.8115 12.1621 5.98523L11.0652 6.28057C10.8409 6.34095 10.8409 6.65911 11.0652 6.71949L12.1622 7.01483C12.8074 7.18856 13.3115 7.69262 13.4852 8.33791L13.7806 9.4349C13.8409 9.65915 14.1591 9.65915 14.2195 9.4349L14.5148 8.33791C14.6886 7.69262 15.1926 7.18856 15.8379 7.01483L16.9349 6.71949C17.1592 6.65911 17.1592 6.34095 16.9349 6.28057L15.8379 5.98523C15.1926 5.8115 14.6886 5.30744 14.5148 4.66215L14.2195 3.56516Z" fill="#7D8198"/>
<path d="M8.43937 8.43934C9.02516 7.85355 9.9749 7.85355 10.5607 8.43934L11.4272 9.30586L9.30589 11.4272L8.43937 10.5607C7.85358 9.97487 7.85358 9.02513 8.43937 8.43934Z" fill="#7D8198"/>
<path d="M17.4433 19.5646L10.3666 12.4878L12.4879 10.3665L19.5646 17.4433C20.1504 18.029 20.1504 18.9788 19.5646 19.5646C18.9788 20.1504 18.0291 20.1504 17.4433 19.5646Z" fill="#7D8198"/>
<path d="M5.36834 3.7391C5.40457 3.60455 5.59547 3.60455 5.63169 3.7391L5.8089 4.39729C5.91314 4.78447 6.21557 5.0869 6.60275 5.19114L7.26094 5.36834C7.39549 5.40457 7.39549 5.59547 7.26094 5.63169L6.60275 5.8089C6.21557 5.91314 5.91314 6.21557 5.8089 6.60275L5.63169 7.26094C5.59547 7.39549 5.40457 7.39549 5.36834 7.26094L5.19114 6.60275C5.0869 6.21557 4.78447 5.91314 4.39729 5.8089L3.7391 5.63169C3.60455 5.59547 3.60455 5.40457 3.7391 5.36834L4.39729 5.19114C4.78447 5.0869 5.0869 4.78447 5.19114 4.39729L5.36834 3.7391Z" fill="#7D8198"/>
<path d="M8.63169 12.7391C8.59547 12.6045 8.40457 12.6045 8.36834 12.7391L8.19114 13.3973C8.0869 13.7845 7.78447 14.0869 7.39729 14.1911L6.7391 14.3683C6.60455 14.4046 6.60455 14.5955 6.7391 14.6317L7.39729 14.8089C7.78447 14.9131 8.0869 15.2156 8.19114 15.6027L8.36834 16.2609C8.40457 16.3955 8.59547 16.3955 8.63169 16.2609L8.8089 15.6027C8.91314 15.2156 9.21557 14.9131 9.60275 14.8089L10.2609 14.6317C10.3955 14.5955 10.3955 14.4046 10.2609 14.3683L9.60275 14.1911C9.21557 14.0869 8.91314 13.7845 8.8089 13.3973L8.63169 12.7391Z" fill="#7D8198"/>
</svg>
