<svg width="24" height="24" viewBox="0 0 24 24" fill="none" xmlns="http://www.w3.org/2000/svg">
<path fill-rule="evenodd" clip-rule="evenodd" d="M12 3C16.9706 3 21 7.02944 21 12C21 16.9706 16.9706 21 12 21C7.02944 21 3 16.9706 3 12C3 7.02944 7.02944 3 12 3ZM8.80748 9.24839C9.08457 9.55628 9.0596 10.0305 8.75171 10.3076L7.70455 11.25L16.2955 11.25L15.2483 10.3075C14.9404 10.0304 14.9154 9.55616 15.1925 9.24827C15.4696 8.94039 15.9438 8.91543 16.2517 9.19252L18.7517 11.4425C18.9098 11.5847 19 11.7874 19 12C19 12.2126 18.9098 12.4152 18.7517 12.5574L16.2517 14.8075C15.9438 15.0846 15.4696 15.0596 15.1925 14.7517C14.9154 14.4438 14.9404 13.9696 15.2483 13.6925L16.2955 12.75L7.70522 12.75L8.75158 13.6912C9.05953 13.9682 9.08462 14.4424 8.8076 14.7504C8.53059 15.0583 8.05638 15.0834 7.74842 14.8064L5.24842 12.5576C5.09032 12.4154 5.00002 12.2127 5 12.0001C4.99998 11.7874 5.09022 11.5847 5.24829 11.4425L7.74829 9.19261C8.05618 8.91553 8.5304 8.9405 8.80748 9.24839Z" fill="#7D8198"/>
</svg>
