<svg width="24" height="24" viewBox="0 0 24 24" fill="none" xmlns="http://www.w3.org/2000/svg">
<path fill-rule="evenodd" clip-rule="evenodd" d="M21 12C21 7.02944 16.9706 3 12 3C7.02944 3 3 7.02944 3 12C3 16.9706 7.02944 21 12 21C16.9706 21 21 16.9706 21 12ZM8.49719 11.25L8.49719 9.55785L14.4393 15.5H12.75C12.3358 15.5 12 15.8358 12 16.25C12 16.6642 12.3358 17 12.75 17H16.25C16.6642 17 17 16.6642 17 16.25V12.75C17 12.3358 16.6642 12 16.25 12C15.8358 12 15.5 12.3358 15.5 12.75V14.4393L9.56066 8.5H11.25C11.6642 8.5 12 8.16421 12 7.75C12 7.33579 11.6642 7 11.25 7H7.74719C7.33298 7 6.99719 7.33579 6.99719 7.75L6.99719 11.25C6.99719 11.6642 7.33298 12 7.74719 12C8.16141 12 8.49719 11.6642 8.49719 11.25Z" fill="#7D8198"/>
</svg>
