<svg width="24" height="24" viewBox="0 0 24 24" fill="none" xmlns="http://www.w3.org/2000/svg">
<path d="M10.29 8.85742L10.4717 8.90234L20.1318 12.0254C21.1968 12.3701 21.3063 13.8333 20.3047 14.333L16.3164 16.3213L14.3281 20.3096C13.8283 21.311 12.3652 21.2016 12.0205 20.1367L8.89746 10.4766L8.85254 10.2949C8.709 9.45611 9.45123 8.71398 10.29 8.85742Z" fill="#51C300"/>
<path d="M6.69727 16.2412C6.99016 15.9483 7.46492 15.9483 7.75781 16.2412C8.05058 16.5341 8.05066 17.0089 7.75781 17.3018L6.69531 18.3643C6.40246 18.6571 5.92766 18.657 5.63477 18.3643C5.34188 18.0714 5.34191 17.5966 5.63477 17.3037L6.69727 16.2412Z" fill="#51C300"/>
<path d="M5.25293 11.25C5.66695 11.2502 6.00293 11.5859 6.00293 12C6.00293 12.4141 5.66695 12.7498 5.25293 12.75H3.75C3.3358 12.75 3 12.4142 3 12C3 11.5858 3.3358 11.25 3.75 11.25H5.25293Z" fill="#51C300"/>
<path d="M5.63086 5.63477C5.92371 5.34222 6.39859 5.34217 6.69141 5.63477L7.75391 6.69824C8.04674 6.99114 8.04678 7.46592 7.75391 7.75879C7.46102 8.05145 6.98619 8.05155 6.69336 7.75879L5.63086 6.69629C5.33797 6.4034 5.33797 5.92766 5.63086 5.63477Z" fill="#51C300"/>
<path d="M17.3018 5.63184C17.5947 5.33894 18.0694 5.33894 18.3623 5.63184C18.6551 5.92474 18.6552 6.39953 18.3623 6.69238L17.2998 7.75488C17.007 8.0477 16.5322 8.04764 16.2393 7.75488C15.9464 7.462 15.9464 6.98723 16.2393 6.69434L17.3018 5.63184Z" fill="#51C300"/>
<path d="M12 3C12.4142 3 12.75 3.33579 12.75 3.75V5.25293C12.75 5.66713 12.4142 6.00293 12 6.00293C11.5858 6.00293 11.25 5.66713 11.25 5.25293V3.75C11.25 3.33579 11.5858 3 12 3Z" fill="#51C300"/>
</svg>
