<svg width="24" height="24" viewBox="0 0 24 24" fill="none" xmlns="http://www.w3.org/2000/svg">
<path d="M16.7735 4.0456C16.4806 3.7527 16.0058 3.7527 15.7129 4.0456L13.7049 6.05352C13.6735 6.04772 13.6406 6.04187 13.6063 6.03601C13.2829 5.98086 12.8293 5.92482 12.2999 5.91974C11.2501 5.90967 9.84272 6.09992 8.57423 6.95955C7.74432 7.52196 7.18844 8.56869 6.79583 9.63759C6.39096 10.7399 6.10612 12.0196 5.90496 13.2171C5.70301 14.4194 5.58134 15.5639 5.51011 16.4061C5.47443 16.8279 5.45127 17.1754 5.43699 17.4183C5.43514 17.4497 5.43344 17.4794 5.43188 17.5073L10.1743 12.7649C9.86587 12.0369 10.0084 11.1632 10.6019 10.5697C11.3829 9.78868 12.6492 9.78868 13.4303 10.5697C14.2113 11.3508 14.2113 12.6171 13.4303 13.3982C12.8368 13.9917 11.963 14.1342 11.2349 13.8256L6.49235 18.5682C6.52034 18.5666 6.55015 18.5649 6.58171 18.5631C6.82465 18.5488 7.17216 18.5256 7.59393 18.49C8.43615 18.4188 9.58077 18.2972 10.7831 18.0953C11.9807 17.8942 13.2604 17.6094 14.3628 17.2046C15.4317 16.812 16.4785 16.2562 17.0409 15.4263C17.9006 14.1577 18.0909 12.7503 18.0808 11.7006C18.0757 11.1712 18.0197 10.7176 17.9646 10.3943C17.9587 10.36 17.9529 10.3271 17.9471 10.2956L19.955 8.2877C20.2479 7.99481 20.2479 7.51993 19.955 7.22704L16.7735 4.0456Z" fill="#8952FD"/>
</svg>
