<svg width="24" height="24" viewBox="0 0 24 24" fill="none" xmlns="http://www.w3.org/2000/svg">
<path fill-rule="evenodd" clip-rule="evenodd" d="M4 6.75C4 5.23122 5.23122 4 6.75 4H17.25C18.7688 4 20 5.23122 20 6.75V17.25C20 18.7688 18.7688 20 17.25 20H6.75C5.23122 20 4 18.7688 4 17.25V6.75ZM14.7003 12.2387L12.75 14.3397L12.75 7.74902C12.75 7.33481 12.4142 6.99902 12 6.99902C11.5858 6.99902 11.25 7.33481 11.25 7.74902L11.25 14.3397L9.29967 12.2387C9.01787 11.9351 8.54332 11.9175 8.23975 12.1993C7.93617 12.4811 7.91853 12.9556 8.20033 13.2592L11.4503 16.7603C11.5922 16.9131 11.7914 17 12 17C12.2086 17 12.4078 16.9131 12.5497 16.7603L15.7997 13.2592C16.0815 12.9556 16.0638 12.4811 15.7603 12.1993C15.4567 11.9175 14.9821 11.9351 14.7003 12.2387Z" fill="#7D8198"/>
</svg>
