<svg width="24" height="24" viewBox="0 0 24 24" fill="none" xmlns="http://www.w3.org/2000/svg">
<path fill-rule="evenodd" clip-rule="evenodd" d="M6 6.2522C6 5.56184 6.55964 5.0022 7.25 5.0022H8.75C9.44036 5.0022 10 5.56184 10 6.2522V17.7522C10 18.4426 9.44036 19.0022 8.75 19.0022H7.25C6.55964 19.0022 6 18.4426 6 17.7522V6.2522ZM14 6.2522C14 5.56184 14.5596 5.0022 15.25 5.0022H16.75C17.4404 5.0022 18 5.56184 18 6.2522V17.7522C18 18.4426 17.4404 19.0022 16.75 19.0022H15.25C14.5596 19.0022 14 18.4426 14 17.7522V6.2522Z" fill="#7D8198"/>
</svg>
