<svg width="24" height="24" viewBox="0 0 24 24" fill="none" xmlns="http://www.w3.org/2000/svg">
<path fill-rule="evenodd" clip-rule="evenodd" d="M12.7544 3.74976C12.7544 3.33554 12.4186 2.99976 12.0044 2.99976C11.5902 2.99976 11.2544 3.33554 11.2544 3.74976V5.24976C11.2544 5.66397 11.5902 5.99976 12.0044 5.99976C12.4186 5.99976 12.7544 5.66397 12.7544 5.24976V3.74976ZM3.00226 11.9998C3.00226 11.5855 3.33804 11.2498 3.75226 11.2498H5.25226C5.66647 11.2498 6.00226 11.5855 6.00226 11.9998C6.00226 12.414 5.66647 12.7498 5.25226 12.7498H3.75226C3.33804 12.7498 3.00226 12.414 3.00226 11.9998ZM18.0013 12C18.0013 11.5858 18.3371 11.25 18.7513 11.25H20.2513C20.6655 11.25 21.0013 11.5858 21.0013 12C21.0013 12.4142 20.6655 12.75 20.2513 12.75H18.7513C18.3371 12.75 18.0013 12.4142 18.0013 12ZM12 17.9971C12.4142 17.9971 12.75 18.3329 12.75 18.7471V20.2471C12.75 20.6613 12.4142 20.9971 12 20.9971C11.5858 20.9971 11.25 20.6613 11.25 20.2471V18.7471C11.25 18.3329 11.5858 17.9971 12 17.9971ZM17.2994 16.2437C17.0065 15.9508 16.5317 15.9508 16.2388 16.2437C15.9459 16.5366 15.9459 17.0115 16.2388 17.3044L17.2994 18.365C17.5923 18.6579 18.0672 18.6579 18.3601 18.365C18.653 18.0721 18.653 17.5973 18.3601 17.3044L17.2994 16.2437ZM5.63486 5.638C5.92776 5.3451 6.40263 5.3451 6.69552 5.638L7.75618 6.69866C8.04908 6.99155 8.04908 7.46642 7.75618 7.75932C7.46329 8.05221 6.98842 8.05221 6.69552 7.75932L5.63486 6.69866C5.34197 6.40576 5.34197 5.93089 5.63486 5.638ZM18.3654 6.69928C18.6583 6.40638 18.6583 5.93151 18.3654 5.63862C18.0725 5.34572 17.5976 5.34572 17.3047 5.63862L16.244 6.69928C15.9511 6.99217 15.9511 7.46704 16.244 7.75994C16.5369 8.05283 17.0118 8.05283 17.3047 7.75994L18.3654 6.69928ZM7.76127 16.2436C8.05416 16.5365 8.05416 17.0114 7.76127 17.3043L6.70061 18.3649C6.40772 18.6578 5.93284 18.6578 5.63995 18.3649C5.34706 18.072 5.34706 17.5971 5.63995 17.3043L6.70061 16.2436C6.9935 15.9507 7.46838 15.9507 7.76127 16.2436ZM12.0115 17C14.773 17 17.0115 14.7614 17.0115 12C17.0115 9.23858 14.773 7 12.0115 7C9.25013 7 7.01155 9.23858 7.01155 12C7.01155 14.7614 9.25013 17 12.0115 17Z" fill="#7D8198"/>
</svg>
