<svg width="24" height="24" viewBox="0 0 24 24" fill="none" xmlns="http://www.w3.org/2000/svg">
<path fill-rule="evenodd" clip-rule="evenodd" d="M12 21C13.4583 21 14.8355 20.6532 16.0538 20.0375C16.3888 19.8682 16.7117 19.6786 17.0211 19.4703C19.4212 17.8539 21 15.1113 21 12C21 7.02944 16.9706 3 12 3C7.02944 3 3 7.02944 3 12C3 15.1113 4.5788 17.8539 6.97896 19.4703C7.28822 19.6786 7.61112 19.8682 7.94604 20.0374C9.16435 20.6531 10.5417 21 12 21ZM6.87764 17.4783C8.21824 18.7323 10.0195 19.5 12 19.5C13.9805 19.5 15.7818 18.7323 17.1224 17.4783C16.9038 16.9648 16.5642 16.3393 16.0503 15.7596C15.2071 14.8085 13.9079 14 12 14C10.0921 14 8.79287 14.8085 7.94972 15.7596C7.43577 16.3393 7.09625 16.9648 6.87764 17.4783ZM12 7C10.3431 7 9 8.34315 9 10C9 11.6569 10.3431 13 12 13C13.6569 13 15 11.6569 15 10C15 8.34315 13.6569 7 12 7Z" fill="#7D8198"/>
</svg>
