<svg width="24" height="24" viewBox="0 0 24 24" fill="none" xmlns="http://www.w3.org/2000/svg">
<path d="M20 7.99866H16.7786L13.9771 4H17.25C18.7688 4 20 5.23122 20 6.75V7.99866Z" fill="#7D8198"/>
<path d="M8.50118 4H12.1456L14.9471 7.99866H11.3045L8.50118 4Z" fill="#7D8198"/>
<path d="M6.78912 4H6.75C5.23122 4 4 5.23122 4 6.75V7.99866H9.4726L6.70877 4.05633L6.78912 4Z" fill="#7D8198"/>
<path fill-rule="evenodd" clip-rule="evenodd" d="M4 17.25V9.49866H20V17.25C20 18.7688 18.7688 20 17.25 20H6.75C5.23122 20 4 18.7688 4 17.25ZM10 12.4916V15.5075C10 15.8794 10.3917 16.1212 10.7242 15.9544L13.7302 14.4464C14.0979 14.262 14.0979 13.7371 13.7302 13.5526L10.7242 12.0447C10.3917 11.8779 10 12.1196 10 12.4916Z" fill="#7D8198"/>
</svg>
