<svg width="24" height="24" viewBox="0 0 24 24" fill="none" xmlns="http://www.w3.org/2000/svg">
<path fill-rule="evenodd" clip-rule="evenodd" d="M4 6.75C4 5.23122 5.23122 4 6.75 4H17.25C18.7688 4 20 5.23122 20 6.75V17.25C20 18.7688 18.7688 20 17.25 20H6.75C5.23122 20 4 18.7688 4 17.25V6.75ZM10.235 15.7047C9.93389 15.9892 9.92033 16.4638 10.2047 16.765C10.4892 17.0661 10.9638 17.0797 11.265 16.7953L15.765 12.5451C15.915 12.4035 16 12.2062 16 11.9999C16 11.7935 15.915 11.5963 15.765 11.4546L11.265 7.20473C10.9638 6.92033 10.4891 6.9339 10.2047 7.23504C9.92033 7.53618 9.9339 8.01086 10.235 8.29527L14.1577 11.9999L10.235 15.7047Z" fill="#7D8198"/>
</svg>
