<svg width="24" height="24" viewBox="0 0 24 24" fill="none" xmlns="http://www.w3.org/2000/svg">
<path fill-rule="evenodd" clip-rule="evenodd" d="M21 12C21 7.02944 16.9706 3 12 3C7.02944 3 3 7.02944 3 12C3 16.9706 7.02944 21 12 21C16.9706 21 21 16.9706 21 12ZM8.23975 11.7997C8.54332 12.0815 9.01787 12.0639 9.29967 11.7603L11.25 9.65934L11.25 16.25C11.25 16.6642 11.5858 17 12 17C12.4142 17 12.75 16.6642 12.75 16.25L12.75 9.65934L14.7003 11.7603C14.9821 12.0639 15.4567 12.0815 15.7603 11.7997C16.0638 11.5179 16.0815 11.0434 15.7997 10.7398L12.5497 7.23877C12.4078 7.08589 12.2086 6.99902 12 6.99902C11.7914 6.99902 11.5922 7.08589 11.4503 7.23877L8.20033 10.7398C7.91853 11.0434 7.93617 11.5179 8.23975 11.7997Z" fill="#7D8198"/>
</svg>
