<svg width="24" height="24" viewBox="0 0 24 24" fill="none" xmlns="http://www.w3.org/2000/svg">
<path fill-rule="evenodd" clip-rule="evenodd" d="M6.73298 7.90781C7.41593 5.64661 9.51436 4 11.9988 4C14.9968 4 17.4346 6.39875 17.4975 9.38169L17.9666 9.45776C20.2921 9.83488 22 11.8453 22 14.2002C22 16.8529 19.8495 19 17.1979 19H7.57709C4.49695 19 2 16.5031 2 13.4229C2 10.5869 4.09499 8.30985 6.73298 7.90781ZM8.29277 12.7071C7.90225 12.3166 7.90225 11.6834 8.29277 11.2929L11.2927 8.2929C11.6833 7.90237 12.3164 7.90237 12.707 8.29289L15.707 11.2929C16.0975 11.6834 16.0975 12.3166 15.707 12.7071C15.3165 13.0976 14.6833 13.0976 14.2928 12.7071L12.9999 11.4142L12.9999 16C12.9999 16.5523 12.5522 17 11.9999 17C11.4476 17 10.9999 16.5523 10.9999 16L10.9999 11.4142L9.70699 12.7071C9.31646 13.0976 8.6833 13.0976 8.29277 12.7071Z" fill="#7D8198"/>
</svg>
