<svg width="24" height="24" viewBox="0 0 24 24" fill="none" xmlns="http://www.w3.org/2000/svg">
<path fill-rule="evenodd" clip-rule="evenodd" d="M4 6.75C4 5.23122 5.23122 4 6.75 4H17.25C18.7688 4 20 5.23122 20 6.75V17.25C20 18.7688 18.7688 20 17.25 20H6.75C5.23122 20 4 18.7688 4 17.25V6.75ZM12.2003 8.23975C11.9185 8.54332 11.9362 9.01787 12.2397 9.29967L14.3407 11.25H7.75C7.33579 11.25 7 11.5858 7 12C7 12.4142 7.33579 12.75 7.75 12.75H14.3407L12.2397 14.7003C11.9362 14.9821 11.9185 15.4567 12.2003 15.7603C12.4821 16.0638 12.9567 16.0815 13.2603 15.7997L16.7613 12.5497C16.9142 12.4078 17.001 12.2086 17.001 12C17.001 11.7914 16.9142 11.5922 16.7613 11.4503L13.2603 8.20033C12.9567 7.91853 12.4821 7.93617 12.2003 8.23975Z" fill="#7D8198"/>
</svg>
