<svg width="24" height="24" viewBox="0 0 24 24" fill="none" xmlns="http://www.w3.org/2000/svg">
<path d="M15.4987 14C15.4987 12.067 13.9317 10.5 11.9987 10.5C10.0657 10.5 8.49872 12.067 8.49872 14C8.49872 15.933 10.0657 17.5 11.9987 17.5C13.9317 17.5 15.4987 15.933 15.4987 14Z" fill="#7D8198"/>
<path fill-rule="evenodd" clip-rule="evenodd" d="M8.74872 3C8.46464 3 8.20494 3.1605 8.0779 3.41459L7.28519 5H5.74872C4.22994 5 2.99872 6.23122 2.99872 7.75V16.25C2.99872 17.7688 4.22994 19 5.74872 19H11.9987H18.2487C19.7675 19 20.9987 17.7688 20.9987 16.25V7.75C20.9987 6.23122 19.7675 5 18.2487 5H16.7122L15.9195 3.41459C15.7925 3.1605 15.5328 3 15.2487 3H8.74872ZM11.9987 19C9.23729 19 6.99872 16.7614 6.99872 14C6.99872 11.2386 9.23729 9 11.9987 9C14.7601 9 16.9987 11.2386 16.9987 14C16.9987 16.7614 14.7601 19 11.9987 19ZM10.7474 6C10.3332 6 9.99744 6.33579 9.99744 6.75C9.99744 7.16421 10.3332 7.5 10.7474 7.5H13.25C13.6642 7.5 14 7.16421 14 6.75C14 6.33579 13.6642 6 13.25 6H10.7474Z" fill="#7D8198"/>
</svg>
