<svg width="24" height="24" viewBox="0 0 24 24" fill="none" xmlns="http://www.w3.org/2000/svg">
<path fill-rule="evenodd" clip-rule="evenodd" d="M15.9711 15.1847C15.9711 14.7614 16.3067 14.3558 16.7333 13.8401C17.478 12.9401 18.5 11.7048 18.5 9.45556C18.5 5.53048 15.234 3.00024 12 3.00024C8.76596 3.00024 5.5 5.50598 5.5 9.45556C5.5 11.7103 6.52279 12.9444 7.26749 13.843C7.69378 14.3573 8.02894 14.7617 8.02894 15.1847C8.02913 15.6352 8.39436 16.0002 8.84484 16.0002H15.1552C15.6056 16.0002 15.9709 15.6352 15.9711 15.1847ZM12.5 5.00024C11.9477 5.00024 11.5 5.44796 11.5 6.00024C11.5 6.55253 11.9477 7.00024 12.5 7.00024C12.9248 7.00024 13.4332 7.2227 13.8554 7.64485C14.2775 8.06701 14.5 8.57548 14.5 9.00024C14.5 9.55253 14.9477 10.0002 15.5 10.0002C16.0523 10.0002 16.5 9.55253 16.5 9.00024C16.5 7.92501 15.9725 6.93348 15.2696 6.23064C14.5668 5.52779 13.5752 5.00024 12.5 5.00024Z" fill="#7D8198"/>
<path d="M14.9951 17.9978C14.9951 18.7928 14.6793 19.5552 14.1172 20.1174C13.555 20.6795 12.7926 20.9954 11.9976 20.9954C11.2026 20.9954 10.4401 20.6795 9.87796 20.1174C9.31581 19.5552 9 18.7928 9 17.9978H14.9951Z" fill="#7D8198"/>
</svg>
