<svg width="24" height="24" viewBox="0 0 24 24" fill="none" xmlns="http://www.w3.org/2000/svg">
<path d="M6.75 4C5.23122 4 4 5.23122 4 6.75V7H20V6.75C20 5.23122 18.7688 4 17.25 4H6.75Z" fill="#7D8198"/>
<path fill-rule="evenodd" clip-rule="evenodd" d="M4 17.25V8.5H20V17.25C20 18.7688 18.7688 20 17.25 20H6.75C5.23122 20 4 18.7688 4 17.25ZM8.5 11C8.22386 11 8 11.2239 8 11.5V12.4951C8 12.7713 8.22386 12.9951 8.5 12.9951H9.5C9.77614 12.9951 10 12.7713 10 12.4951V11.5C10 11.2239 9.77614 11 9.5 11H8.5ZM8 14.498C8 14.2219 8.22386 13.998 8.5 13.998H9.5C9.77614 13.998 10 14.2219 10 14.498V15.4932C10 15.7693 9.77614 15.9932 9.5 15.9932H8.5C8.22386 15.9932 8 15.7693 8 15.4932V14.498ZM11.5 11C11.2239 11 11 11.2239 11 11.5V12.4951C11 12.7713 11.2239 12.9951 11.5 12.9951H12.5C12.7761 12.9951 13 12.7713 13 12.4951V11.5C13 11.2239 12.7761 11 12.5 11H11.5ZM11 14.498C11 14.2219 11.2239 13.998 11.5 13.998H12.5C12.7761 13.998 13 14.2219 13 14.498V15.4932C13 15.7693 12.7761 15.9932 12.5 15.9932H11.5C11.2239 15.9932 11 15.7693 11 15.4932V14.498ZM14.5 11C14.2239 11 14 11.2239 14 11.5V12.4951C14 12.7713 14.2239 12.9951 14.5 12.9951H15.5C15.7761 12.9951 16 12.7713 16 12.4951V11.5C16 11.2239 15.7761 11 15.5 11H14.5Z" fill="#7D8198"/>
</svg>
