<svg width="24" height="24" viewBox="0 0 24 24" fill="none" xmlns="http://www.w3.org/2000/svg">
<path d="M3 4.75C3 4.33579 3.33579 4 3.75 4H20.25C20.6642 4 21 4.33579 21 4.75C21 5.16421 20.6642 5.5 20.25 5.5H3.75C3.33579 5.5 3 5.16421 3 4.75Z" fill="#7D8198"/>
<path fill-rule="evenodd" clip-rule="evenodd" d="M4 8C4 7.44772 4.44772 7 5 7H7C7.55228 7 8 7.44772 8 8V10C8 10.5523 7.55228 11 7 11H5C4.44772 11 4 10.5523 4 10V8ZM5 8H7V10H5V8Z" fill="#7D8198"/>
<path fill-rule="evenodd" clip-rule="evenodd" d="M4 17C4 16.4477 4.44772 16 5 16H7C7.55228 16 8 16.4477 8 17V19C8 19.5523 7.55228 20 7 20H5C4.44772 20 4 19.5523 4 19V17ZM5 17H7V19H5V17Z" fill="#7D8198"/>
<path fill-rule="evenodd" clip-rule="evenodd" d="M11 7C10.4477 7 10 7.44772 10 8V10C10 10.5523 10.4477 11 11 11H13C13.5523 11 14 10.5523 14 10V8C14 7.44772 13.5523 7 13 7H11ZM13 8H11V10H13V8Z" fill="#7D8198"/>
<path fill-rule="evenodd" clip-rule="evenodd" d="M10 17C10 16.4477 10.4477 16 11 16H13C13.5523 16 14 16.4477 14 17V19C14 19.5523 13.5523 20 13 20H11C10.4477 20 10 19.5523 10 19V17ZM11 17H13V19H11V17Z" fill="#7D8198"/>
<path fill-rule="evenodd" clip-rule="evenodd" d="M17 7C16.4477 7 16 7.44772 16 8V10C16 10.5523 16.4477 11 17 11H19C19.5523 11 20 10.5523 20 10V8C20 7.44772 19.5523 7 19 7H17ZM19 8H17V10H19V8Z" fill="#7D8198"/>
<path fill-rule="evenodd" clip-rule="evenodd" d="M16 17C16 16.4477 16.4477 16 17 16H19C19.5523 16 20 16.4477 20 17V19C20 19.5523 19.5523 20 19 20H17C16.4477 20 16 19.5523 16 19V17ZM17 17H19V19H17V17Z" fill="#7D8198"/>
<path fill-rule="evenodd" clip-rule="evenodd" d="M3.75 13C3.33579 13 3 13.3358 3 13.75C3 14.1642 3.33579 14.5 3.75 14.5H20.2499C20.6641 14.5 21 14.1642 21 13.75C21 13.3358 20.6638 13 20.2495 13H3.75ZM20.25 13.75C20.25 14.5 20.2499 14.5 20.2499 14.5L20.25 13.75ZM20.2495 13C20.2495 13 20.25 13 20.25 13.75L20.2495 13Z" fill="#7D8198"/>
</svg>
