<svg width="24" height="24" viewBox="0 0 24 24" fill="none" xmlns="http://www.w3.org/2000/svg">
<path fill-rule="evenodd" clip-rule="evenodd" d="M4 6.75C4 5.23122 5.23122 4 6.75 4L17.25 4C18.7688 4 20 5.23122 20 6.75V17.25C20 18.7688 18.7688 20 17.25 20H6.75C5.23122 20 4 18.7688 4 17.25L4 6.75ZM8.29525 10.235C8.01084 9.93389 7.53616 9.92033 7.23503 10.2047C6.93389 10.4892 6.92033 10.9638 7.20475 11.265L11.4549 15.765C11.5965 15.915 11.7938 16 12.0001 16C12.2065 16 12.4037 15.915 12.5454 15.765L16.7953 11.265C17.0797 10.9638 17.0661 10.4891 16.765 10.2047C16.4638 9.92033 15.9891 9.9339 15.7047 10.235L12.0001 14.1577L8.29525 10.235Z" fill="#7D8198"/>
</svg>
