<svg width="24" height="24" viewBox="0 0 24 24" fill="none" xmlns="http://www.w3.org/2000/svg">
<path d="M12.6707 3.41595C12.5436 3.16195 12.284 3.00153 12 3.00153C11.716 3.00153 11.4563 3.16195 11.3292 3.41595L9.16229 7.74712L4.08869 8.5083C3.81053 8.55003 3.5791 8.7439 3.48926 9.01045C3.39941 9.277 3.46627 9.5714 3.66242 9.77301L7.15793 13.3657L6.36343 18.5268C6.32013 18.8081 6.43978 19.0896 6.67234 19.2537C6.90491 19.4178 7.2103 19.4361 7.46079 19.3009L12 16.8522L16.5391 19.3009C16.7896 19.4361 17.095 19.4178 17.3276 19.2537C17.5602 19.0896 17.6798 18.8081 17.6365 18.5268L16.842 13.3657L20.3375 9.77301C20.5337 9.5714 20.6005 9.277 20.5107 9.01045C20.4208 8.7439 20.1894 8.55003 19.9112 8.5083L14.8376 7.74712L12.6707 3.41595Z" fill="#7D8198"/>
</svg>
