<svg width="24" height="24" viewBox="0 0 24 24" fill="none" xmlns="http://www.w3.org/2000/svg">
<path fill-rule="evenodd" clip-rule="evenodd" d="M4 8.75C4 8.33579 4.33579 8 4.75 8C5.59185 8 6.41391 8.20897 7.16893 8.5792C7.93023 8.95252 8.61304 9.49528 9.1824 10.1693C9.67357 10.7508 10.0732 11.4214 10.368 12.1503C10.5066 11.9432 10.6595 11.7468 10.8259 11.5628C11.2665 11.0756 11.7937 10.6847 12.3796 10.4164C12.9616 10.1499 13.6095 10 14.2537 10C14.6679 10 15.0037 10.3358 15.0037 10.75C15.0037 11.1642 14.6679 11.5 14.2537 11.5C13.8375 11.5 13.4018 11.5981 13.0042 11.7802C12.6104 11.9605 12.2475 12.2272 11.9384 12.569C11.6291 12.9109 11.3802 13.3209 11.2093 13.7771C11.0544 14.1906 11.0082 14.6904 11.0082 15.25C11.0082 15.6255 10.7323 15.9365 10.3721 15.9914C10.3381 15.9966 10.3033 15.9995 10.2679 15.9999L10.2582 16C10.2324 16 10.2067 15.9987 10.1815 15.9961C9.80334 15.9577 9.50822 15.6383 9.50822 15.25C9.50822 14.5087 9.33986 13.7265 9.08469 12.9972C8.83885 12.2946 8.48097 11.6634 8.0365 11.1373C7.59219 10.6113 7.07162 10.2021 6.50851 9.92599C5.93912 9.64678 5.34168 9.5 4.75 9.5C4.33579 9.5 4 9.16421 4 8.75ZM18.5037 12C19.3321 12 20.0037 11.3284 20.0037 10.5C20.0037 9.67157 19.3321 9 18.5037 9C17.6752 9 17.0037 9.67157 17.0037 10.5C17.0037 11.3284 17.6752 12 18.5037 12Z" fill="#8952FD"/>
</svg>
