<svg width="24" height="24" viewBox="0 0 24 24" fill="none" xmlns="http://www.w3.org/2000/svg">
<path fill-rule="evenodd" clip-rule="evenodd" d="M12.5093 3.20072C12.2215 2.93372 11.7758 2.93321 11.4881 3.20045L11.4839 3.20429L11.4618 3.22418C11.4412 3.24264 11.4087 3.27123 11.365 3.30851C11.2777 3.38311 11.1458 3.49226 10.9741 3.62449C10.63 3.8894 10.1294 4.24442 9.50984 4.59934C8.26143 5.31453 6.58082 6.00031 4.75 6.00031C4.55109 6.00031 4.36032 6.07932 4.21967 6.21998C4.07902 6.36063 4 6.5514 4 6.75031V11.2914C4 12.6266 4.29979 14.4032 5.43651 16.1773C6.57646 17.9563 8.52252 19.6769 11.7211 20.9506C11.8993 21.0216 12.0979 21.0216 12.276 20.9506C15.4746 19.6769 17.4207 17.9563 18.5606 16.1773C19.6973 14.4032 19.9971 12.6266 19.9971 11.2914V6.7507C19.9971 6.33649 19.6613 6.00031 19.2471 6.00031C17.4163 6.00031 15.7357 5.31453 14.4873 4.59934C13.8677 4.24442 13.3671 3.8894 13.0231 3.62449C12.8514 3.49226 12.7194 3.38311 12.6321 3.30851C12.5884 3.27123 12.556 3.24264 12.5353 3.22418L12.5132 3.20429L12.5093 3.20072ZM11.9992 9.99846C12.5511 9.99846 12.9985 9.55109 12.9985 8.99923C12.9985 8.44737 12.5511 8 11.9992 8C11.4474 8 11 8.44737 11 8.99923C11 9.55109 11.4474 9.99846 11.9992 9.99846ZM11.25 11.75C11.25 11.3358 11.5858 11 12 11C12.4142 11 12.75 11.3358 12.75 11.75V15.25C12.75 15.6642 12.4142 16 12 16C11.5858 16 11.25 15.6642 11.25 15.25V11.75Z" fill="#7D8198"/>
</svg>
