<svg width="24" height="24" viewBox="0 0 24 24" fill="none" xmlns="http://www.w3.org/2000/svg">
<path fill-rule="evenodd" clip-rule="evenodd" d="M4 6.75C4 5.23122 5.23122 4 6.75 4H17.25C18.7688 4 20 5.23122 20 6.75V17.25C20 18.7688 18.7688 20 17.25 20H6.75C5.23122 20 4 18.7688 4 17.25V6.75ZM15.5028 11.25L15.5028 9.55785L9.56066 15.5H11.25C11.6642 15.5 12 15.8358 12 16.25C12 16.6642 11.6642 17 11.25 17H7.75C7.33579 17 7 16.6642 7 16.25V12.75C7 12.3358 7.33579 12 7.75 12C8.16421 12 8.5 12.3358 8.5 12.75V14.4393L14.4393 8.5H12.75C12.3358 8.5 12 8.16421 12 7.75C12 7.33579 12.3358 7 12.75 7H16.2528C16.667 7 17.0028 7.33579 17.0028 7.75L17.0028 11.25C17.0028 11.6642 16.667 12 16.2528 12C15.8386 12 15.5028 11.6642 15.5028 11.25Z" fill="#7D8198"/>
</svg>
