<svg width="24" height="24" viewBox="0 0 24 24" fill="none" xmlns="http://www.w3.org/2000/svg">
<path fill-rule="evenodd" clip-rule="evenodd" d="M21 12C21 16.9706 16.9706 21 12 21C7.02944 21 3 16.9706 3 12C3 7.02944 7.02944 3 12 3C16.9706 3 21 7.02944 21 12ZM10.004 15.25C10.004 14.8358 10.3398 14.5 10.754 14.5H13.439L8.21976 9.28249C7.92682 8.98965 7.92674 8.51477 8.21958 8.22183C8.51243 7.92889 8.9873 7.92881 9.28024 8.22165L14.5 13.4397V10.75C14.5 10.3358 14.8358 10 15.25 10C15.6642 10 16 10.3358 16 10.75V15.25C16 15.6642 15.6642 16 15.25 16H10.754C10.3398 16 10.004 15.6642 10.004 15.25Z" fill="#7D8198"/>
</svg>
