<svg width="24" height="24" viewBox="0 0 24 24" fill="none" xmlns="http://www.w3.org/2000/svg">
<path d="M11.0327 5.35631C11.5914 4.88435 12.4086 4.88435 12.9673 5.35631L19.3552 10.7523C19.7773 11.1089 20.4082 11.0554 20.7643 10.6328C21.1205 10.2102 21.067 9.57854 20.6449 9.22197L14.2571 3.82594C12.9534 2.72469 11.0466 2.72468 9.74298 3.82594L3.35515 9.22197C2.93304 9.57854 2.87958 10.2102 3.23573 10.6328C3.59188 11.0554 4.22279 11.1089 4.64489 10.7523L11.0327 5.35631Z" fill="#7D8198"/>
<path d="M12.9985 7.97793C12.4215 7.49142 11.5785 7.49143 11.0015 7.97793L4.62479 13.3548C4.14444 13.7598 3.9177 14.3915 4.03065 15.01L4.86213 19.5631C5.01413 20.3954 5.73849 21 6.5836 21H7.43214C8.15911 20.9569 8.79321 20.4305 9.52236 19.6962C9.88396 19.3053 10.2666 18.9321 10.6382 18.5507C10.9997 18.1889 11.4998 17.9946 11.9998 17.9946C12.4723 17.9946 12.9723 18.1889 13.3338 18.5507C13.7179 18.9351 14.1266 19.3053 14.4895 19.7097C15.2131 20.437 15.8438 20.9572 16.5663 21H17.4161C18.2612 21 18.9856 20.3954 19.1376 19.5631L19.9693 15.01C20.0823 14.3915 19.8555 13.7598 19.3752 13.3548L12.9985 7.97793Z" fill="#7D8198"/>
</svg>
