<svg width="24" height="24" viewBox="0 0 24 24" fill="none" xmlns="http://www.w3.org/2000/svg">
<path d="M11.4881 3.20045C11.7758 2.93321 12.2215 2.93372 12.5093 3.20072L12.5132 3.20429L12.5353 3.22418C12.556 3.24264 12.5884 3.27123 12.6321 3.30851C12.7194 3.38311 12.8514 3.49226 13.0231 3.62449C13.3671 3.8894 13.8677 4.24442 14.4873 4.59934C15.7357 5.31453 17.4163 6.00031 19.2471 6.00031C19.6613 6.00031 19.9971 6.33649 19.9971 6.7507V11.2914C19.9971 12.6266 19.6973 14.4032 18.5606 16.1773C17.4207 17.9563 15.4746 19.6769 12.276 20.9506C12.0979 21.0216 11.8993 21.0216 11.7211 20.9506C8.52252 19.6769 6.57646 17.9563 5.43651 16.1773C4.29979 14.4032 4 12.6266 4 11.2914V6.75031C4 6.5514 4.07902 6.36063 4.21967 6.21998C4.36032 6.07932 4.55109 6.00031 4.75 6.00031C6.58082 6.00031 8.26143 5.31453 9.50984 4.59934C10.1294 4.24442 10.63 3.8894 10.9741 3.62449C11.1458 3.49226 11.2777 3.38311 11.365 3.30851C11.4087 3.27123 11.4412 3.24264 11.4618 3.22418L11.4839 3.20429L11.4881 3.20045Z" fill="#7D8198"/>
</svg>
