<svg width="24" height="24" viewBox="0 0 24 24" fill="none" xmlns="http://www.w3.org/2000/svg">
<path fill-rule="evenodd" clip-rule="evenodd" d="M5.03667 5.03065C3.56964 5.42374 2.69904 6.93166 3.09213 8.39869L5.03439 15.6473C5.25022 16.4528 5.80275 17.0782 6.49998 17.4127V10.75C6.49998 8.40279 8.40277 6.5 10.75 6.5H16.042L15.6492 5.03405C15.2561 3.56702 13.7481 2.69641 12.2811 3.0895L5.03667 5.03065ZM7.99998 10.7461C7.99998 9.22731 9.2312 7.99609 10.75 7.99609H18.25C19.7688 7.99609 21 9.22731 21 10.7461V18.2461C21 19.7649 19.7688 20.9961 18.25 20.9961H10.75C9.2312 20.9961 7.99998 19.7649 7.99998 18.2461V10.7461Z" fill="#7D8198"/>
</svg>
