<svg width="24" height="24" viewBox="0 0 24 24" fill="none" xmlns="http://www.w3.org/2000/svg">
<path fill-rule="evenodd" clip-rule="evenodd" d="M4 11.9978C4 7.59487 7.59447 4 11.9977 4C16.4002 4 20 7.59423 20 11.9978C20 16.4007 16.4008 20 11.9977 20C10.7042 20 9.45564 19.6821 8.37109 19.1338L5.45712 19.9581L5.45493 19.9587C4.98066 20.0913 4.55826 19.8883 4.31306 19.6166C4.07254 19.3501 3.92692 18.9407 4.04452 18.5135L4.83716 15.5576C4.28872 14.4771 4 13.2893 4 11.9978ZM12 8C12.4142 8 12.75 8.33579 12.75 8.75V11.25H15.25C15.6642 11.25 16 11.5858 16 12C16 12.4142 15.6642 12.75 15.25 12.75H12.75V15.25C12.75 15.6642 12.4142 16 12 16C11.5858 16 11.25 15.6642 11.25 15.25V12.75H8.75C8.33579 12.75 8 12.4142 8 12C8 11.5858 8.33579 11.25 8.75 11.25H11.25V8.75C11.25 8.33579 11.5858 8 12 8Z" fill="#7D8198"/>
</svg>
