<svg width="24" height="24" viewBox="0 0 24 24" fill="none" xmlns="http://www.w3.org/2000/svg">
<path d="M7.56066 5.43934C6.97487 4.85355 6.02513 4.85355 5.43934 5.43934C4.85355 6.02513 4.85355 6.97487 5.43934 7.56066L9.87868 12L5.43934 16.4393C4.85355 17.0251 4.85355 17.9749 5.43934 18.5607C6.02513 19.1464 6.97487 19.1464 7.56066 18.5607L12 14.1213L16.4393 18.5607C17.0251 19.1464 17.9749 19.1464 18.5607 18.5607C19.1464 17.9749 19.1464 17.0251 18.5607 16.4393L14.1213 12L18.5607 7.56066C19.1464 6.97487 19.1464 6.02513 18.5607 5.43934C17.9749 4.85355 17.0251 4.85355 16.4393 5.43934L12 9.87868L7.56066 5.43934Z" fill="#7D8198"/>
</svg>
