<svg width="24" height="25" viewBox="0 0 24 25" fill="none" xmlns="http://www.w3.org/2000/svg">
<path fill-rule="evenodd" clip-rule="evenodd" d="M18.25 5.48999C19.7688 5.48999 21 6.72121 21 8.23999V16.74C21 18.2588 19.7688 19.49 18.25 19.49H5.75C4.23122 19.49 3 18.2588 3 16.74V8.23999C3 6.72121 4.23122 5.48999 5.75 5.48999H18.25ZM17.25 9.48999C16.8358 9.48999 16.5 9.82578 16.5 10.24V14.74C16.5 15.1542 16.8358 15.49 17.25 15.49C17.6642 15.49 18 15.1542 18 14.74V10.24C18 9.82578 17.6642 9.48999 17.25 9.48999Z" fill="#7D8198"/>
</svg>
