<svg width="24" height="24" viewBox="0 0 24 24" fill="none" xmlns="http://www.w3.org/2000/svg">
<path fill-rule="evenodd" clip-rule="evenodd" d="M3 7.75C3 6.23122 4.23122 5 5.75 5H13.4871C14.1627 5 14.8146 5.24866 15.3186 5.69857L20.0785 9.94803C21.3032 11.0414 21.3033 12.9572 20.0787 14.0507L15.3187 18.3012C14.8147 18.7513 14.1627 19 13.487 19H5.75C4.23122 19 3 17.7688 3 16.25V7.75ZM17 11.9993C17 12.5516 16.5523 12.9993 16 12.9993C15.4477 12.9993 15 12.5516 15 11.9993C15 11.447 15.4477 10.9993 16 10.9993C16.5523 10.9993 17 11.447 17 11.9993Z" fill="#7D8198"/>
</svg>
