<svg width="24" height="24" viewBox="0 0 24 24" fill="none" xmlns="http://www.w3.org/2000/svg">
<path fill-rule="evenodd" clip-rule="evenodd" d="M4 6.75C4 5.23122 5.23122 4 6.75 4H17.25C18.7688 4 20 5.23122 20 6.75V17.25C20 18.7688 18.7688 20 17.25 20H6.75C5.23122 20 4 18.7688 4 17.25V6.75ZM9.75132 7C9.3371 7 9.00132 7.33579 9.00132 7.75C9.00132 8.16421 9.3371 8.5 9.75132 8.5H16.2513C16.6656 8.5 17.0013 8.16421 17.0013 7.75C17.0013 7.33579 16.6656 7 16.2513 7H9.75132ZM7 11.75C7 11.3358 7.33579 11 7.75 11H16.25C16.6642 11 17 11.3358 17 11.75C17 12.1642 16.6642 12.5 16.25 12.5H7.75C7.33579 12.5 7 12.1642 7 11.75ZM9.75134 15C9.33713 15 9.00134 15.3358 9.00134 15.75C9.00134 16.1642 9.33713 16.5 9.75134 16.5H16.2513C16.6656 16.5 17.0013 16.1642 17.0013 15.75C17.0013 15.3358 16.6656 15 16.2513 15H9.75134Z" fill="#7D8198"/>
</svg>
