<svg width="24" height="24" viewBox="0 0 24 24" fill="none" xmlns="http://www.w3.org/2000/svg">
<path fill-rule="evenodd" clip-rule="evenodd" d="M21 12C21 16.9706 16.9706 21 12 21C7.02944 21 3 16.9706 3 12C3 7.02944 7.02944 3 12 3C16.9706 3 21 7.02944 21 12ZM12 11.25C12 11.6642 12.3358 12 12.75 12H16.25C16.6642 12 17 11.6642 17 11.25C17 10.8358 16.6642 10.5 16.25 10.5H14.5607L16.7803 8.28033C17.0732 7.98744 17.0732 7.51256 16.7803 7.21967C16.4874 6.92678 16.0126 6.92678 15.7197 7.21967L13.5 9.43934V7.75C13.5 7.33579 13.1642 7 12.75 7C12.3358 7 12 7.33579 12 7.75V11.25ZM7.21968 15.7197L9.43935 13.5H7.74719C7.33298 13.5 6.99719 13.1642 6.99719 12.75C6.99719 12.3358 7.33298 12 7.74719 12H11.25C11.6642 12 12 12.3358 12 12.75L12 16.25C12 16.6642 11.6642 17 11.25 17C10.8358 17 10.5 16.6642 10.5 16.25L10.5 14.5607L8.28034 16.7803C7.98745 17.0732 7.51257 17.0732 7.21968 16.7803C6.92679 16.4874 6.92679 16.0126 7.21968 15.7197Z" fill="#7D8198"/>
</svg>
