<svg width="24" height="24" viewBox="0 0 24 24" fill="none" xmlns="http://www.w3.org/2000/svg">
<path fill-rule="evenodd" clip-rule="evenodd" d="M12.75 7.75C12.75 7.33579 12.4142 7 12 7C11.5858 7 11.25 7.33579 11.25 7.75V16.25C11.25 16.6642 11.5858 17 12 17C12.4142 17 12.75 16.6642 12.75 16.25V7.75ZM3 9.5C3 8.67157 3.67157 8 4.5 8H8C8.82843 8 9.5 8.67157 9.5 9.5V14.5C9.5 15.3284 8.82843 16 8 16H4.5C3.67157 16 3 15.3284 3 14.5V9.5ZM14.5 9.5C14.5 8.67157 15.1716 8 16 8H19.5C20.3284 8 21 8.67157 21 9.5V14.5C21 15.3284 20.3284 16 19.5 16H16C15.1716 16 14.5 15.3284 14.5 14.5V9.5Z" fill="#5B53FF"/>
</svg>
