<svg width="24" height="24" viewBox="0 0 24 24" fill="none" xmlns="http://www.w3.org/2000/svg">
<path fill-rule="evenodd" clip-rule="evenodd" d="M21 12C21 7.02944 16.9706 3 12 3C7.02944 3 3 7.02944 3 12C3 16.9706 7.02944 21 12 21C16.9706 21 21 16.9706 21 12ZM10.004 8.75C10.004 9.16421 10.3398 9.5 10.754 9.5H13.439L8.21976 14.7175C7.92682 15.0104 7.92674 15.4852 8.21958 15.7782C8.51243 16.0711 8.9873 16.0712 9.28024 15.7783L14.5 10.5603V13.25C14.5 13.6642 14.8358 14 15.25 14C15.6642 14 16 13.6642 16 13.25V8.75C16 8.33579 15.6642 8 15.25 8H10.754C10.3398 8 10.004 8.33579 10.004 8.75Z" fill="#7D8198"/>
</svg>
