<svg width="24" height="24" viewBox="0 0 24 24" fill="none" xmlns="http://www.w3.org/2000/svg">
<path d="M18.9734 5.75602L19.2826 7.71933L19.7794 10.8606L19.9782 12.1477C20.1769 13.413 19.0728 14.5364 17.6374 14.5364H12.2161C11.7634 14.5364 11.5205 14.9509 11.6972 15.3217C12.1719 16.3143 12.448 17.1215 12.6798 18.114C12.8013 18.6485 12.8896 19.0411 12.8896 19.3575C12.8896 20.001 12.6357 20.4373 12.3265 20.7318C11.7413 21.2771 10.8691 20.9063 10.3722 20.2846C9.17973 18.7903 6.96042 16.0853 5.8342 15.1472C4.74111 14.231 4.00134 13.0203 4.00134 11.6787V8.24289C4.00134 5.34154 6.65126 2.99646 9.9195 2.99646H15.4512C17.2399 2.99646 18.7526 4.17445 18.9734 5.75602Z" fill="#7D8198"/>
</svg>
