<svg width="24" height="24" viewBox="0 0 24 24" fill="none" xmlns="http://www.w3.org/2000/svg">
<path d="M18.9637 14.7268C18.7732 14.4766 18.3922 14.3465 18.0814 14.4366C15.4544 15.2272 13.3388 13.9863 12.2459 12.5552C11.153 11.1341 10.5012 8.78239 11.9551 6.47067C12.1356 6.19047 12.1155 5.81018 11.915 5.54999C11.7245 5.2998 11.3435 5.17971 11.0427 5.26978C9.9999 5.58001 9.02731 6.13042 8.22518 6.87097C7.38295 7.65155 6.75127 8.64229 6.38028 9.7331C5.99927 10.8239 5.90903 11.9948 6.08951 13.1256C6.28002 14.2565 6.74124 15.3373 7.44311 16.248C8.14497 17.1586 9.06742 17.8892 10.1102 18.3695C11.0226 18.7798 12.0152 18.99 13.0079 18.99C13.1583 18.99 13.3087 18.99 13.4591 18.97C14.6021 18.8999 15.7251 18.5397 16.7077 17.9292C17.6302 17.3588 18.4223 16.5582 18.9838 15.6375C19.1542 15.3773 19.1342 14.967 18.9436 14.7168L18.9637 14.7268Z" fill="#7D8198"/>
</svg>
