<svg width="24" height="24" viewBox="0 0 24 24" fill="none" xmlns="http://www.w3.org/2000/svg">
<path d="M14.1333 4.80776C12.5223 4.32991 10.7975 4.40679 9.23532 5.02607C7.67319 5.64535 6.3642 6.77117 5.51819 8.22307C4.67217 9.67497 4.33811 11.3689 4.56956 13.0333C4.80101 14.6977 5.58455 16.2361 6.79461 17.4021C8.00466 18.5681 9.57115 19.2941 11.243 19.4637C12.9148 19.6332 14.5952 19.2366 16.0147 18.3373C17.4342 17.4381 18.5107 16.0882 19.0717 14.5042C19.2099 14.1138 19.6385 13.9093 20.029 14.0476C20.4195 14.1858 20.6239 14.6145 20.4856 15.0049C19.8125 16.9057 18.5208 18.5254 16.8174 19.6045C15.1141 20.6835 13.0977 21.1595 11.0916 20.956C9.08551 20.7525 7.2058 19.8814 5.7538 18.4823C4.3018 17.0832 3.36158 15.237 3.08385 13.2399C2.80613 11.2427 3.20698 9.21008 4.22216 7.46788C5.23734 5.72567 6.80805 4.37475 8.68252 3.63164C10.557 2.88854 12.6267 2.79629 14.5598 3.36968C16.0669 3.81668 17.4229 4.64804 18.5 5.77219L18.5 3.75C18.5 3.33579 18.8358 3 19.25 3C19.6642 3 20 3.33578 20 3.75L20 7.25C20 7.44891 19.921 7.63968 19.7803 7.78033C19.6397 7.92098 19.4489 8 19.25 8H15.75C15.3358 8 15 7.66421 15 7.25C15 6.83579 15.3358 6.5 15.75 6.5H17.1019C16.2607 5.71972 15.2464 5.13793 14.1333 4.80776Z" fill="#7D8198"/>
<path d="M9.00366 9.25123C9.00366 8.27483 10.0742 7.67541 10.908 8.18491L15.4053 10.9328C16.2031 11.4203 16.2031 12.5779 15.4053 13.0654L10.908 15.8134C10.0742 16.3229 9.00366 15.7235 9.00366 14.7471V9.25123Z" fill="#7D8198"/>
</svg>
