<svg width="24" height="24" viewBox="0 0 24 24" fill="none" xmlns="http://www.w3.org/2000/svg">
<path fill-rule="evenodd" clip-rule="evenodd" d="M6.75 5C4.67893 5 3 6.67893 3 8.75V16.25C3 18.3211 4.67893 20 6.75 20H17.25C19.3211 20 21 18.3211 21 16.25V8.75C21 6.67893 19.3211 5 17.25 5H6.75ZM7.99695 16C7.99695 15.4477 8.44466 15 8.99695 15H14.9969C15.5492 15 15.9969 15.4477 15.9969 16C15.9969 16.5523 15.5492 17 14.9969 17H8.99695C8.44466 17 7.99695 16.5523 7.99695 16ZM8 13.002C8.55228 13.002 9 12.5542 9 12.002C9 11.4497 8.55228 11.002 8 11.002C7.44772 11.002 7 11.4497 7 12.002C7 12.5542 7.44772 13.002 8 13.002ZM7 9.00415C7 9.55644 6.55228 10.0042 6 10.0042C5.44772 10.0042 5 9.55644 5 9.00415C5 8.45187 5.44772 8.00415 6 8.00415C6.55228 8.00415 7 8.45187 7 9.00415ZM12 13.002C12.5523 13.002 13 12.5542 13 12.002C13 11.4497 12.5523 11.002 12 11.002C11.4477 11.002 11 11.4497 11 12.002C11 12.5542 11.4477 13.002 12 13.002ZM11 9.00415C11 9.55644 10.5523 10.0042 10 10.0042C9.44772 10.0042 9 9.55644 9 9.00415C9 8.45187 9.44772 8.00415 10 8.00415C10.5523 8.00415 11 8.45187 11 9.00415ZM16 13.002C16.5523 13.002 17 12.5542 17 12.002C17 11.4497 16.5523 11.002 16 11.002C15.4477 11.002 15 11.4497 15 12.002C15 12.5542 15.4477 13.002 16 13.002ZM19 9.00415C19 9.55644 18.5523 10.0042 18 10.0042C17.4477 10.0042 17 9.55644 17 9.00415C17 8.45187 17.4477 8.00415 18 8.00415C18.5523 8.00415 19 8.45187 19 9.00415ZM14 10.0042C14.5523 10.0042 15 9.55644 15 9.00415C15 8.45187 14.5523 8.00415 14 8.00415C13.4477 8.00415 13 8.45187 13 9.00415C13 9.55644 13.4477 10.0042 14 10.0042Z" fill="#7D8198"/>
</svg>
