<svg width="24" height="24" viewBox="0 0 24 24" fill="none" xmlns="http://www.w3.org/2000/svg">
<path fill-rule="evenodd" clip-rule="evenodd" d="M12.5043 5.87839L10.0456 7.922C9.0131 8.78018 7.71282 9.25 6.37022 9.25H5C4.7238 9.25 4.5 9.4738 4.5 9.75V14.25C4.5 14.5262 4.7238 14.75 5 14.75H6.37022C7.71282 14.75 9.0131 15.2198 10.0456 16.078L12.5043 18.1216V5.87839ZM12.068 4.29062C12.8184 3.6303 14.0043 4.16124 14.0043 5.1675V18.8325C14.0043 19.8388 12.8184 20.3697 12.068 19.7094L9.08682 17.2316C8.32365 16.5973 7.36258 16.25 6.37022 16.25H5C3.89537 16.25 3 15.3546 3 14.25V9.75C3 8.64537 3.89537 7.75 5 7.75H6.37022C7.36258 7.75 8.32365 7.40275 9.08682 6.76843L12.068 4.29062ZM18.4858 6.82661C18.8326 6.60015 19.2973 6.69772 19.5238 7.04455C20.4539 8.46896 21 10.1702 21 12C21 13.8299 20.4539 15.5311 19.5238 16.9555C19.2973 17.3023 18.8326 17.3999 18.4858 17.1734C18.1389 16.9469 18.0414 16.4822 18.2678 16.1354C19.0452 14.9448 19.5 13.5268 19.5 12C19.5 10.4732 19.0452 9.05523 18.2678 7.86464C18.0414 7.51782 18.1389 7.05308 18.4858 6.82661ZM17.2973 9.15974C17.1094 8.79061 16.6578 8.64371 16.2886 8.83163C15.9195 9.01955 15.7726 9.47114 15.9605 9.84027C16.3061 10.5192 16.5039 11.2826 16.5039 12.0929C16.5039 12.9032 16.3061 13.6667 15.9605 14.3456C15.7726 14.7147 15.9195 15.1663 16.2886 15.3542C16.6578 15.5421 17.1094 15.3952 17.2973 15.0261C17.745 14.1467 18.0039 13.151 18.0039 12.0929C18.0039 11.0349 17.745 10.0392 17.2973 9.15974Z" fill="#5B53FF"/>
</svg>
