<svg width="24" height="24" viewBox="0 0 24 24" fill="none" xmlns="http://www.w3.org/2000/svg">
<path fill-rule="evenodd" clip-rule="evenodd" d="M3.13727 12.2463C3.13727 7.41385 7.05478 3.49634 11.8873 3.49634C16.7198 3.49634 20.6373 7.41385 20.6373 12.2463C20.6373 17.0788 16.7198 20.9963 11.8873 20.9963C7.05478 20.9963 3.13727 17.0788 3.13727 12.2463ZM11.8873 19.4963C13.8602 19.4963 15.649 18.7083 16.9562 17.4298C16.5913 17.0059 16.1553 16.6375 15.6581 16.3317C14.5764 15.6662 13.2679 15.3292 11.8874 15.3292C10.5276 15.3292 9.18743 15.6816 8.1128 16.3471C7.62034 16.6522 7.18798 17.0175 6.8252 17.4365C8.13178 18.711 9.91782 19.4963 11.8873 19.4963ZM11.9215 7.50002C11.0715 7.50002 10.2789 7.81844 9.70559 8.43385C9.12991 9.05186 8.86683 9.88231 8.92781 10.7453C8.98425 11.5444 9.30445 12.3043 9.84198 12.8817C10.394 13.4727 11.1301 13.828 11.9215 13.828C12.7133 13.828 13.4487 13.4735 14 12.8814C14.5368 12.3044 14.8564 11.5449 14.9141 10.7462C14.9754 9.88634 14.71 9.0571 14.1332 8.43742C13.5634 7.82523 12.7702 7.50002 11.9215 7.50002Z" fill="#5B53FF"/>
</svg>
