<svg width="24" height="24" viewBox="0 0 24 24" fill="none" xmlns="http://www.w3.org/2000/svg">
<path fill-rule="evenodd" clip-rule="evenodd" d="M3.99997 11.9995C3.99997 7.58163 7.58181 4 12 4C16.4181 4 20 7.58163 20 11.9995C20 16.4174 16.4181 19.9991 12 19.9991C10.5889 19.9991 9.26483 19.6302 8.1137 18.989L4.54959 19.9835C4.22483 20.0743 3.92602 19.7751 4.01683 19.4508L5.01186 15.8886C4.36927 14.7367 3.99997 13.4118 3.99997 11.9995ZM8.74997 13C9.30225 13 9.74997 12.5523 9.74997 12C9.74997 11.4477 9.30225 11 8.74997 11C8.19768 11 7.74997 11.4477 7.74997 12C7.74997 12.5523 8.19768 13 8.74997 13ZM13 12C13 12.5523 12.5523 13 12 13C11.4477 13 11 12.5523 11 12C11 11.4477 11.4477 11 12 11C12.5523 11 13 11.4477 13 12ZM15.25 13C15.8023 13 16.25 12.5523 16.25 12C16.25 11.4477 15.8023 11 15.25 11C14.6977 11 14.25 11.4477 14.25 12C14.25 12.5523 14.6977 13 15.25 13Z" fill="#C1C2D9"/>
</svg>
