<svg width="24" height="24" viewBox="0 0 24 24" fill="none" xmlns="http://www.w3.org/2000/svg">
<path d="M3 5.75C3 4.23122 4.23122 3 5.75 3H13.25C14.7688 3 16 4.23122 16 5.75V6.25C16 6.66421 15.6642 7 15.25 7C14.8358 7 14.5 6.66421 14.5 6.25V5.75C14.5 5.05964 13.9404 4.5 13.25 4.5H5.75C5.05964 4.5 4.5 5.05964 4.5 5.75V13.25C4.5 13.9404 5.05964 14.5 5.75 14.5H6.25C6.66421 14.5 7 14.8358 7 15.25C7 15.6642 6.66421 16 6.25 16H5.75C4.23122 16 3 14.7688 3 13.25V5.75Z" fill="#7D8198"/>
<path d="M20.25 16C19.8358 16 19.5 15.6642 19.5 15.25V13.75C19.5 13.3358 19.8358 13 20.25 13C20.6642 13 21 13.3358 21 13.75V15.25C21 15.6642 20.6642 16 20.25 16Z" fill="#7D8198"/>
<path d="M8 15.25C8 15.6642 8.33579 16 8.75 16C9.16421 16 9.5 15.6642 9.5 15.25V13.75C9.5 13.3358 9.16421 13 8.75 13C8.33579 13 8 13.3358 8 13.75V15.25Z" fill="#7D8198"/>
<path d="M16 20.25C16 20.6642 15.6642 21 15.25 21H13.75C13.3358 21 13 20.6642 13 20.25C13 19.8358 13.3358 19.5 13.75 19.5H15.25C15.6642 19.5 16 19.8358 16 20.25Z" fill="#7D8198"/>
<path d="M15.2783 9.4834C15.6925 9.4834 16.0283 9.14761 16.0283 8.7334C16.0283 8.31918 15.6925 7.9834 15.2783 7.9834H13.7783C13.3641 7.9834 13.0283 8.31918 13.0283 8.7334C13.0283 9.14761 13.3641 9.4834 13.7783 9.4834H15.2783Z" fill="#7D8198"/>
<path d="M20.25 12C19.8358 12 19.5 11.6642 19.5 11.25V10.75C19.5 10.0596 18.9404 9.5 18.25 9.5H17.7247C17.3105 9.5 16.9747 9.16421 16.9747 8.75C16.9747 8.33579 17.3105 8 17.7247 8H18.25C19.7688 8 21 9.23122 21 10.75V11.25C21 11.6642 20.6642 12 20.25 12Z" fill="#7D8198"/>
<path d="M9.5 11.25C9.5 11.6642 9.16421 12 8.75 12C8.33579 12 8 11.6642 8 11.25V10.75C8 9.23122 9.23122 8 10.75 8H11.2499C11.6641 8 11.9999 8.33579 11.9999 8.75C11.9999 9.16421 11.6641 9.5 11.2499 9.5H10.75C10.0596 9.5 9.5 10.0596 9.5 10.75V11.25Z" fill="#7D8198"/>
<path d="M20.25 17C19.8358 17 19.5 17.3358 19.5 17.75V18.2499C19.5 18.9403 18.9404 19.4999 18.25 19.4999L17.745 19.4999C17.3308 19.4999 16.995 19.8357 16.995 20.2499C16.995 20.6641 17.3308 20.9999 17.745 20.9999L18.25 20.9999C19.7688 20.9999 21 19.7687 21 18.2499V17.75C21 17.3358 20.6642 17 20.25 17Z" fill="#7D8198"/>
<path d="M9.5 17.75C9.5 17.3358 9.16421 17 8.75 17C8.33579 17 8 17.3358 8 17.75V18.2499C8 19.7687 9.23122 20.9999 10.75 20.9999H11.25C11.6642 20.9999 12 20.6641 12 20.2499C12 19.8357 11.6642 19.4999 11.25 19.4999H10.75C10.0596 19.4999 9.5 18.9403 9.5 18.2499V17.75Z" fill="#7D8198"/>
</svg>
