<svg width="24" height="24" viewBox="0 0 24 24" fill="none" xmlns="http://www.w3.org/2000/svg">
<path d="M12.0318 9.87195L14.1436 11.9526L11.0713 15.0249C10.9835 15.113 10.875 15.1798 10.7571 15.2185L8.4498 15.9827C8.32676 16.0232 8.19204 15.9914 8.10021 15.8999C8.00877 15.8085 7.97662 15.6732 8.01744 15.5506L8.78136 13.2426C8.82013 13.1251 8.88695 13.0168 8.97474 12.929L12.0318 9.87195Z" fill="#7D8198"/>
<path d="M13.4696 8.43415L13.0925 8.81126L15.2043 10.8919L15.5659 10.5304C16.1447 9.9515 16.1447 9.01295 15.5658 8.4341C14.9869 7.85528 14.0484 7.8553 13.4696 8.43415Z" fill="#7D8198"/>
<path fill-rule="evenodd" clip-rule="evenodd" d="M12 3C7.02944 3 3 7.02944 3 12C3 16.9706 7.02944 21 12 21C16.9706 21 21 16.9706 21 12C21 7.02944 16.9706 3 12 3ZM4.5 12C4.5 7.85786 7.85786 4.5 12 4.5C16.1421 4.5 19.5 7.85786 19.5 12C19.5 16.1421 16.1421 19.5 12 19.5C7.85786 19.5 4.5 16.1421 4.5 12Z" fill="#7D8198"/>
</svg>
