<svg width="24" height="24" viewBox="0 0 24 24" fill="none" xmlns="http://www.w3.org/2000/svg">
<path d="M11.9962 4.50024C13.3219 4.50024 14.4548 4.87216 14.924 5.09529C15.2981 5.27317 15.7455 5.11412 15.9234 4.74005C16.1013 4.36598 15.9423 3.91853 15.5682 3.74065C14.9202 3.43253 13.5684 3.00024 11.9962 3.00024C7.02565 3.00024 2.99622 7.02968 2.99622 12.0002C2.99622 16.9708 7.02565 21.0002 11.9962 21.0002C13.5748 21.0002 14.6796 20.6345 15.5346 20.2782C15.9169 20.1189 16.0977 19.6798 15.9384 19.2975C15.7791 18.9151 15.34 18.7343 14.9576 18.8936C14.2189 19.2015 13.3155 19.5002 11.9962 19.5002C7.85408 19.5002 4.49622 16.1424 4.49622 12.0002C4.49622 7.85811 7.85408 4.50024 11.9962 4.50024Z" fill="#7D8198"/>
<path d="M18.3384 11.25L16.2361 9.30005C15.9324 9.01837 15.9146 8.54383 16.1963 8.24014C16.478 7.93645 16.9525 7.91861 17.2562 8.20029L20.7599 11.4501C20.9129 11.592 20.9999 11.7913 20.9999 12C20.9999 12.2087 20.913 12.4079 20.7599 12.5499L17.2562 15.7999C16.9525 16.0816 16.478 16.0637 16.1963 15.76C15.9146 15.4564 15.9324 14.9818 16.2361 14.7001L18.3385 12.75H9.74612C9.33191 12.75 8.99612 12.4142 8.99612 12C8.99612 11.5858 9.33191 11.25 9.74612 11.25H18.3384Z" fill="#7D8198"/>
</svg>
