<svg width="24" height="24" viewBox="0 0 24 24" fill="none" xmlns="http://www.w3.org/2000/svg">
<path fill-rule="evenodd" clip-rule="evenodd" d="M4 6.75C4 5.7835 4.7835 5 5.75 5H9.25C10.2165 5 11 5.7835 11 6.75V17.2549C11 18.2214 10.2165 19.0049 9.25 19.0049H5.75C4.7835 19.0049 4 18.2214 4 17.2549V6.75ZM5.75 6.5C5.61193 6.5 5.5 6.61193 5.5 6.75V17.2549C5.5 17.393 5.61193 17.5049 5.75 17.5049H9.25C9.38807 17.5049 9.5 17.393 9.5 17.2549V6.75C9.5 6.61193 9.38807 6.5 9.25 6.5H5.75Z" fill="#7D8198"/>
<path fill-rule="evenodd" clip-rule="evenodd" d="M13 17.25C13 18.2165 13.7835 19 14.75 19H18.2461C19.2126 19 19.9961 18.2165 19.9961 17.25V15.75C19.9961 14.7835 19.2126 14 18.2461 14H14.75C13.7835 14 13 14.7835 13 15.75V17.25ZM14.75 17.5C14.6119 17.5 14.5 17.3881 14.5 17.25V15.75C14.5 15.6119 14.6119 15.5 14.75 15.5H18.2461C18.3842 15.5 18.4961 15.6119 18.4961 15.75V17.25C18.4961 17.3881 18.3842 17.5 18.2461 17.5H14.75Z" fill="#7D8198"/>
<path fill-rule="evenodd" clip-rule="evenodd" d="M14.75 13C13.7835 13 13 12.2165 13 11.25V6.75C13 5.7835 13.7835 5 14.75 5H18.2461C19.2126 5 19.9961 5.7835 19.9961 6.75V11.25C19.9961 12.2165 19.2126 13 18.2461 13H14.75ZM14.5 11.25C14.5 11.3881 14.6119 11.5 14.75 11.5H18.2461C18.3842 11.5 18.4961 11.3881 18.4961 11.25V6.75C18.4961 6.61193 18.3842 6.5 18.2461 6.5H14.75C14.6119 6.5 14.5 6.61193 14.5 6.75V11.25Z" fill="#7D8198"/>
</svg>
