<svg width="24" height="24" viewBox="0 0 24 24" fill="none" xmlns="http://www.w3.org/2000/svg">
<path fill-rule="evenodd" clip-rule="evenodd" d="M4.69782 4.29506C4.94454 3.36149 5.89098 2.80747 6.81174 3.05762L18.7203 6.29286C19.6411 6.54301 20.1875 7.5026 19.9408 8.43616L19.3022 10.8525C19.2409 11.0844 19.1365 11.2928 19 11.4713V16.2475C19 18.3186 17.3211 19.9975 15.25 19.9975H8.75C6.67893 19.9975 5 18.3186 5 16.2475V11.7455C5 11.3313 5.33579 10.9955 5.75 10.9955C6.16421 10.9955 6.5 11.3313 6.5 11.7455V16.2475C6.5 17.4902 7.50736 18.4975 8.75 18.4975H15.25C16.4926 18.4975 17.5 17.4902 17.5 16.2475V12.1445C17.3965 12.1362 17.2922 12.1182 17.1883 12.0899L5.27971 8.85471C4.35895 8.60456 3.81252 7.64497 4.05924 6.71141L4.69782 4.29506ZM6.42884 4.50651C6.2973 4.47078 6.16209 4.54992 6.12685 4.68329L5.48827 7.09964C5.45302 7.233 5.53108 7.37009 5.66262 7.40582L17.5712 10.6411C17.7027 10.6768 17.8379 10.5976 17.8732 10.4643L18.5117 8.04794C18.547 7.91457 18.4689 7.77748 18.3374 7.74175L6.42884 4.50651ZM9.75 13C9.33579 13 9 13.3358 9 13.75C9 14.1642 9.33579 14.5 9.75 14.5H14.25C14.6642 14.5 15 14.1642 15 13.75C15 13.3358 14.6642 13 14.25 13H9.75Z" fill="#7D8198"/>
</svg>
