<svg width="24" height="24" viewBox="0 0 24 24" fill="none" xmlns="http://www.w3.org/2000/svg">
<path d="M11.7396 3.20041C12.0431 2.91856 12.5176 2.93613 12.7995 3.23966C13.0814 3.54319 13.0638 4.01774 12.7602 4.2996L10.6598 6.25H11.9999C15.7239 6.25 18.9999 9.19664 18.9999 13C18.9999 16.7642 15.7642 20 11.9999 20C8.24754 20 5.00098 17.1759 5.00098 12.753C5.00098 12.3388 5.33676 12.003 5.75098 12.003C6.16519 12.003 6.50098 12.3388 6.50098 12.753C6.50098 16.3241 9.05234 18.5 11.9999 18.5C14.9357 18.5 17.4999 15.9358 17.4999 13C17.4999 10.1034 14.976 7.75 11.9999 7.75H10.6598L12.7602 9.70041C13.0638 9.98226 13.0814 10.4568 12.7995 10.7603C12.5176 11.0639 12.0431 11.0814 11.7396 10.7996L8.2396 7.5496C8.08677 7.40769 7.99994 7.20855 7.99994 7C7.99994 6.79145 8.08677 6.59232 8.2396 6.45041L11.7396 3.20041Z" fill="#7D8198"/>
</svg>
