<svg width="24" height="24" viewBox="0 0 24 24" fill="none" xmlns="http://www.w3.org/2000/svg">
<path d="M15.1249 3.00645H10.1127C6.7412 3.00645 4 5.49458 4 8.56226V11.7099C4 13.0789 4.6803 14.4079 5.92084 15.4571C6.62115 16.0566 8.08179 17.7254 9.93261 20.0536C10.3628 20.5932 10.9731 20.9429 11.5633 20.9929C12.0335 21.0229 12.4737 20.863 12.8139 20.5432C13.3041 20.0836 13.5542 19.4541 13.5542 18.7446C13.5542 18.3749 13.4742 17.9852 13.3441 17.4356C13.144 16.5562 12.9139 15.8568 12.5638 15.0774H17.1058C17.9961 15.0774 18.8265 14.7076 19.3768 14.0581C19.877 13.4786 20.0871 12.7591 19.967 12.0197L19.0566 6.16407C18.7965 4.35543 17.1058 2.99646 15.1249 2.99646V3.00645ZM11.6834 19.494C11.6834 19.494 11.6734 19.494 11.6634 19.494C11.5233 19.494 11.2932 19.3641 11.1031 19.1243C9.73252 17.3956 7.90171 15.1673 6.89127 14.3079C5.99087 13.5485 5.50066 12.6192 5.50066 11.6999V8.55227C5.50066 6.31396 7.57157 4.49533 10.1127 4.49533H15.1249C16.3754 4.49533 17.4259 5.30472 17.576 6.37391C17.576 6.37391 17.576 6.37391 17.576 6.38391L18.4964 12.2395C18.5464 12.5293 18.4564 12.829 18.2463 13.0689C17.9761 13.3786 17.566 13.5585 17.1158 13.5585H12.2036C11.7534 13.5585 11.3532 13.7783 11.1231 14.1381C10.893 14.4978 10.873 14.9574 11.0631 15.3472C11.4533 16.1565 11.6934 16.856 11.8935 17.7453C11.9935 18.185 12.0635 18.5148 12.0635 18.7246C12.0635 19.0344 11.9735 19.2642 11.7834 19.4441C11.7534 19.464 11.7334 19.484 11.6934 19.484L11.6834 19.494Z" fill="#7D8198"/>
</svg>
