<svg width="24" height="24" viewBox="0 0 24 24" fill="none" xmlns="http://www.w3.org/2000/svg">
<path fill-rule="evenodd" clip-rule="evenodd" d="M9.5 7C9.5 5.55689 10.6066 4.50391 12 4.50391C12.8908 4.50391 13.7248 4.97547 14.1947 5.68844C14.4226 6.03431 14.8878 6.12991 15.2336 5.90199C15.5795 5.67406 15.6751 5.20891 15.4472 4.86304C14.708 3.74138 13.4099 3.00391 12 3.00391C9.80337 3.00391 8 4.70353 8 7V8H7.75C6.23122 8 5 9.23122 5 10.75V17.25C5 18.7688 6.23122 20 7.75 20H16.25C17.7688 20 19 18.7688 19 17.25V10.75C19 9.23122 17.7688 8 16.25 8H9.5V7ZM6.5 10.75C6.5 10.0596 7.05964 9.5 7.75 9.5H16.25C16.9404 9.5 17.5 10.0596 17.5 10.75V17.25C17.5 17.9404 16.9404 18.5 16.25 18.5H7.75C7.05964 18.5 6.5 17.9404 6.5 17.25V10.75Z" fill="#7D8198"/>
</svg>
