<svg width="24" height="24" viewBox="0 0 24 24" fill="none" xmlns="http://www.w3.org/2000/svg">
<path d="M11.46 10.1344C11.3222 10.525 10.8938 10.7299 10.5032 10.5921C10.2771 10.5123 10.0352 10.4879 9.79768 10.5208C9.5602 10.5538 9.33409 10.6432 9.1383 10.7816C8.94251 10.92 8.78274 11.1033 8.67238 11.3161C8.56203 11.529 8.5043 11.7652 8.50404 12.005C8.50378 12.2447 8.561 12.481 8.67089 12.6941C8.78079 12.9072 8.94016 13.0908 9.13566 13.2296C9.33115 13.3684 9.55706 13.4584 9.79447 13.4919C10.0319 13.5254 10.2738 13.5015 10.5001 13.4222C10.891 13.2852 11.319 13.491 11.4559 13.8819C11.5929 14.2728 11.3871 14.7008 10.9962 14.8378C10.5437 14.9963 10.0597 15.0441 9.5849 14.9771C9.11009 14.9102 8.65826 14.7303 8.26727 14.4527C7.87628 14.1751 7.55754 13.8078 7.33775 13.3817C7.11796 12.9555 7.00352 12.4828 7.00404 12.0033C7.00456 11.5238 7.12001 11.0514 7.34072 10.6257C7.56144 10.2 7.88098 9.83343 8.27256 9.55668C8.66414 9.27992 9.11636 9.10107 9.59132 9.0351C10.0663 8.96913 10.5501 9.01797 11.0023 9.17753C11.3929 9.31536 11.5978 9.74375 11.46 10.1344Z" fill="#7D8198"/>
<path d="M16.0002 10.5921C16.3909 10.7299 16.8192 10.525 16.9571 10.1344C17.0949 9.74375 16.89 9.31536 16.4994 9.17753C16.0472 9.01797 15.5633 8.96913 15.0884 9.0351C14.6134 9.10107 14.1612 9.27992 13.7696 9.55668C13.378 9.83343 13.0585 10.2 12.8378 10.6257C12.6171 11.0514 12.5016 11.5238 12.5011 12.0033C12.5006 12.4828 12.615 12.9555 12.8348 13.3817C13.0546 13.8078 13.3734 14.1751 13.7643 14.4527C14.1553 14.7303 14.6072 14.9102 15.082 14.9771C15.5568 15.0441 16.0407 14.9963 16.4933 14.8378C16.8842 14.7008 17.09 14.2728 16.953 13.8819C16.816 13.491 16.3881 13.2852 15.9972 13.4222C15.7709 13.5015 15.5289 13.5254 15.2915 13.4919C15.0541 13.4584 14.8282 13.3684 14.6327 13.2296C14.4372 13.0908 14.2779 12.9072 14.168 12.6941C14.0581 12.481 14.0009 12.2447 14.0011 12.005C14.0014 11.7652 14.0591 11.529 14.1695 11.3161C14.2798 11.1033 14.4396 10.92 14.6354 10.7816C14.8312 10.6432 15.0573 10.5538 15.2947 10.5208C15.5322 10.4879 15.7741 10.5123 16.0002 10.5921Z" fill="#7D8198"/>
<path fill-rule="evenodd" clip-rule="evenodd" d="M3 7.74561C3 6.22682 4.23122 4.99561 5.75 4.99561H18.25C19.7688 4.99561 21 6.22682 21 7.74561V16.2456C21 17.7644 19.7688 18.9956 18.25 18.9956H5.75C4.23122 18.9956 3 17.7644 3 16.2456V7.74561ZM5.75 6.49561C5.05964 6.49561 4.5 7.05525 4.5 7.74561V16.2456C4.5 16.936 5.05964 17.4956 5.75 17.4956H18.25C18.9404 17.4956 19.5 16.936 19.5 16.2456V7.74561C19.5 7.05525 18.9404 6.49561 18.25 6.49561H5.75Z" fill="#7D8198"/>
</svg>
