<svg width="24" height="24" viewBox="0 0 24 24" fill="none" xmlns="http://www.w3.org/2000/svg">
<path d="M11.9992 9.99846C12.5511 9.99846 12.9985 9.55109 12.9985 8.99923C12.9985 8.44737 12.5511 8 11.9992 8C11.4474 8 11 8.44737 11 8.99923C11 9.55109 11.4474 9.99846 11.9992 9.99846Z" fill="#7D8198"/>
<path d="M12 11C11.5858 11 11.25 11.3358 11.25 11.75V15.25C11.25 15.6642 11.5858 16 12 16C12.4142 16 12.75 15.6642 12.75 15.25V11.75C12.75 11.3358 12.4142 11 12 11Z" fill="#7D8198"/>
<path fill-rule="evenodd" clip-rule="evenodd" d="M12.5093 3.20072C12.2215 2.93372 11.7758 2.93321 11.4881 3.20045L11.4839 3.20429L11.4618 3.22418C11.4412 3.24264 11.4087 3.27123 11.365 3.30851C11.2777 3.38311 11.1458 3.49226 10.9741 3.62449C10.63 3.8894 10.1294 4.24442 9.50984 4.59934C8.26143 5.31453 6.58082 6.00031 4.75 6.00031C4.55109 6.00031 4.36032 6.07932 4.21967 6.21998C4.07902 6.36063 4 6.5514 4 6.75031V11.2914C4 12.6266 4.29979 14.4032 5.43651 16.1773C6.57646 17.9563 8.52252 19.6769 11.7211 20.9506C11.8993 21.0216 12.0979 21.0216 12.276 20.9506C15.4746 19.6769 17.4207 17.9563 18.5606 16.1773C19.6973 14.4032 19.9971 12.6266 19.9971 11.2914V6.7507C19.9971 6.33649 19.6613 6.00031 19.2471 6.00031C17.4163 6.00031 15.7357 5.31453 14.4873 4.59934C13.8677 4.24442 13.3671 3.8894 13.0231 3.62449C12.8514 3.49226 12.7194 3.38311 12.6321 3.30851C12.5884 3.27123 12.556 3.24264 12.5353 3.22418L12.5132 3.20429L12.5093 3.20072ZM18.4971 7.46893C16.6137 7.3123 14.9535 6.5951 13.7417 5.9009C13.0519 5.50573 12.4945 5.11065 12.1079 4.81299C12.0698 4.78365 12.0334 4.75524 11.9986 4.72784C11.9638 4.75524 11.9273 4.78365 11.8892 4.81299C11.5026 5.11065 10.9453 5.50573 10.2555 5.9009C9.04368 6.5951 7.38348 7.3123 5.5 7.46893L5.5 11.2914C5.5 12.4053 5.74945 13.8853 6.69948 15.368C7.61622 16.7987 9.21862 18.2842 11.9986 19.444C14.7785 18.2842 16.3809 16.7987 17.2977 15.368C18.2477 13.8853 18.4971 12.4053 18.4971 11.2914V7.46893Z" fill="#7D8198"/>
</svg>
