<svg width="24" height="24" viewBox="0 0 24 24" fill="none" xmlns="http://www.w3.org/2000/svg">
<path fill-rule="evenodd" clip-rule="evenodd" d="M12 4.25C9.60914 4.25 8.01419 5.80149 7.34789 7.43251C5.30851 7.84314 3.24998 9.54262 3.24998 12.0529C3.24998 14.6545 5.68781 16.75 8.15998 16.75H8.99998C9.4142 16.75 9.74998 16.4142 9.74998 16C9.74998 15.5858 9.4142 15.25 8.99998 15.25H8.15998C6.40816 15.25 4.74998 13.722 4.74998 12.0529C4.74998 10.3345 6.32231 9.01962 7.97943 8.85208C8.28105 8.82159 8.53465 8.61251 8.6221 8.32224C9.01607 7.0146 10.1977 5.75 12 5.75C13.8779 5.75 15.6073 7.27215 15.8616 9.86154C15.8978 10.2306 16.1983 10.5177 16.5685 10.5372C17.1121 10.5658 17.8157 10.7926 18.3687 11.2093C18.9079 11.6155 19.25 12.1548 19.25 12.8294C19.25 14.2497 17.9627 15.25 16.48 15.25H15C14.5858 15.25 14.25 15.5858 14.25 16C14.25 16.4142 14.5858 16.75 15 16.75H16.48C18.5172 16.75 20.75 15.3277 20.75 12.8294C20.75 11.5687 20.0841 10.6236 19.2713 10.0112C18.6648 9.55429 17.9469 9.25631 17.2721 9.12006C16.7542 6.23432 14.6178 4.25 12 4.25ZM11.9999 10.25C11.8201 10.25 11.6551 10.3133 11.5259 10.4188L9.03143 12.4144C8.70799 12.6731 8.65555 13.1451 8.9143 13.4685C9.17306 13.792 9.64503 13.8444 9.96848 13.5857L11.2499 12.5605L11.2499 20C11.2499 20.4142 11.5857 20.75 11.9999 20.75C12.4142 20.75 12.7499 20.4142 12.7499 20V12.5605L14.0314 13.5857C14.3549 13.8444 14.8268 13.792 15.0856 13.4685C15.3444 13.1451 15.2919 12.6731 14.9685 12.4144L12.4722 10.4173C12.3433 10.3127 12.1789 10.25 11.9999 10.25Z" fill="#5B53FF"/>
</svg>
