<svg width="24" height="24" viewBox="0 0 24 24" fill="none" xmlns="http://www.w3.org/2000/svg">
<path d="M5.99976 3.75C5.99976 3.33579 6.33554 3 6.74976 3H17.2502C17.6644 3 18.0002 3.33579 18.0002 3.75C18.0002 4.16421 17.6644 4.5 17.2502 4.5H6.74976C6.33554 4.5 5.99976 4.16421 5.99976 3.75Z" fill="#7D8198"/>
<path d="M4 8.75C4 7.23122 5.23122 6 6.75 6H17.25C18.7688 6 20 7.23122 20 8.75V16.25C20 17.7688 18.7688 19 17.25 19H14.75C14.3358 19 14 18.6642 14 18.25C14 17.8358 14.3358 17.5 14.75 17.5H17.25C17.9404 17.5 18.5 16.9404 18.5 16.25V8.75C18.5 8.05964 17.9404 7.5 17.25 7.5H6.75C6.05964 7.5 5.5 8.05964 5.5 8.75V16.25C5.5 16.9404 6.05964 17.5 6.75 17.5H9.96875C10.6591 17.5 11.2188 16.9404 11.2188 16.25V13.7392L10.3075 14.7517C10.0304 15.0596 9.55617 15.0846 9.24828 14.8075C8.9404 14.5304 8.91544 14.0562 9.19254 13.7483L11.4425 11.2483C11.5848 11.0902 11.7874 11 12 11C12.2126 11 12.4152 11.0902 12.5575 11.2483L14.8075 13.7483C15.0846 14.0562 15.0596 14.5304 14.7517 14.8075C14.4438 15.0846 13.9696 15.0596 13.6925 14.7517L12.7188 13.6697V16.25C12.7188 17.7688 11.4875 19 9.96875 19H6.75C5.23122 19 4 17.7688 4 16.25V8.75Z" fill="#7D8198"/>
</svg>
