<svg width="24" height="24" viewBox="0 0 24 24" fill="none" xmlns="http://www.w3.org/2000/svg">
<path fill-rule="evenodd" clip-rule="evenodd" d="M5.75 5C4.7835 5 4 5.7835 4 6.75V9.25C4 10.2165 4.7835 11 5.75 11H18.25C19.2165 11 20 10.2165 20 9.25V6.75C20 5.7835 19.2165 5 18.25 5H5.75ZM5.5 6.75C5.5 6.61193 5.61193 6.5 5.75 6.5H18.25C18.3881 6.5 18.5 6.61193 18.5 6.75V9.25C18.5 9.38807 18.3881 9.5 18.25 9.5H5.75C5.61193 9.5 5.5 9.38807 5.5 9.25V6.75ZM5.75 13C4.7835 13 4 13.7835 4 14.75V17.25C4 18.2165 4.7835 19 5.75 19H18.25C19.2165 19 20 18.2165 20 17.25V14.75C20 13.7835 19.2165 13 18.25 13H5.75ZM5.5 14.75C5.5 14.6119 5.61193 14.5 5.75 14.5H18.25C18.3881 14.5 18.5 14.6119 18.5 14.75V17.25C18.5 17.3881 18.3881 17.5 18.25 17.5H5.75C5.61193 17.5 5.5 17.3881 5.5 17.25V14.75Z" fill="#7D8198"/>
</svg>
