<svg width="24" height="24" viewBox="0 0 24 24" fill="none" xmlns="http://www.w3.org/2000/svg">
<path fill-rule="evenodd" clip-rule="evenodd" d="M4.85751 5.41952C5.01597 4.59555 5.73696 4 6.57603 4H17.424C18.2631 4 18.984 4.59555 19.1425 5.41952L20.0079 9.91952C20.2154 10.9988 19.3884 12 18.2894 12H5.71064C4.61159 12 3.78458 10.9988 3.99213 9.91952L4.85751 5.41952ZM6.57603 5.5C6.45616 5.5 6.35316 5.58508 6.33052 5.70279L5.46514 10.2028C5.43549 10.357 5.55363 10.5 5.71064 10.5H18.2894C18.4464 10.5 18.5645 10.357 18.5349 10.2028L17.6695 5.70279C17.6469 5.58508 17.5439 5.5 17.424 5.5H6.57603Z" fill="#7D8198"/>
<path fill-rule="evenodd" clip-rule="evenodd" d="M4.00001 15.25C4.00001 14.8358 4.33579 14.5 4.75001 14.5H19.25C19.6642 14.5 20 14.8358 20 15.25C20 15.6642 19.6642 16 19.25 16H4.75001C4.33579 16 4.00001 15.6642 4.00001 15.25Z" fill="#7D8198"/>
<path fill-rule="evenodd" clip-rule="evenodd" d="M4.00001 19.2539C4.00001 18.8397 4.33579 18.5039 4.75001 18.5039L19.25 18.5039C19.6642 18.5039 20 18.8397 20 19.2539C20 19.6681 19.6642 20.0039 19.25 20.0039H4.75001C4.33579 20.0039 4.00001 19.6681 4.00001 19.2539Z" fill="#7D8198"/>
</svg>
