<svg width="24" height="24" viewBox="0 0 24 24" fill="none" xmlns="http://www.w3.org/2000/svg">
<path fill-rule="evenodd" clip-rule="evenodd" d="M11.0649 5.87518L13.0951 5.3449L16.7184 7.49913L14.6882 8.02943L14.6816 8.02548L11.0649 5.87518ZM18.9301 6.92141L18.7421 6.97051C18.7094 6.94235 18.6738 6.91664 18.6354 6.89382L15.1343 4.81223L18.1719 4.01879C18.4391 3.94901 18.7122 4.10902 18.782 4.3762L19.2875 6.31127C19.3573 6.57845 19.1973 6.85162 18.9301 6.92141ZM3.54332 8.35666C3.47353 8.08948 3.63355 7.81632 3.90073 7.74653L4.93476 7.47643L8.55804 9.63066L7.1441 9.99999H8.50113L5.50113 13L5.5 13V17.25C5.5 17.9403 6.05964 18.5 6.75 18.5H17.25C17.9404 18.5 18.5 17.9403 18.5 17.25V13L16.0721 13L19.0721 9.99999H19.5C19.7761 9.99999 20 10.2238 20 10.5V13L20 17.25C20 18.7688 18.7688 20 17.25 20H6.75C5.23121 20 4 18.7688 4 17.25L4 13V10.5C4 10.4238 4.01704 10.3516 4.04753 10.2869L3.54332 8.35666ZM10.5973 9.098L6.974 6.94377L9.02571 6.40785L12.649 8.56208L10.5973 9.098ZM7.62245 13L10.6224 9.99999H12.7885L9.78846 13H7.62245ZM14.9098 9.99999L11.9098 13H13.9508L16.9508 9.99999H14.9098Z" fill="#7D8198"/>
</svg>
