<svg width="24" height="24" viewBox="0 0 24 24" fill="none" xmlns="http://www.w3.org/2000/svg">
<path fill-rule="evenodd" clip-rule="evenodd" d="M11.8964 5.63599C13.7514 3.781 16.7589 3.781 18.6139 5.63599C20.4689 7.49098 20.4689 10.4985 18.6139 12.3535L11.3661 19.6014C10.1945 20.7729 8.295 20.7729 7.12343 19.6014C5.95186 18.4298 5.95186 16.5303 7.12343 15.3587L12.9571 9.52508C13.25 9.23219 13.7248 9.23219 14.0177 9.52508C14.3106 9.81797 14.3106 10.2928 14.0177 10.5857L8.18409 16.4194C7.5983 17.0052 7.5983 17.9549 8.18409 18.5407C8.76988 19.1265 9.71962 19.1265 10.3054 18.5407L17.5533 11.2928C18.8225 10.0236 18.8225 7.96586 17.5533 6.69665C16.2841 5.42745 14.2263 5.42745 12.9571 6.69665L7.65376 12C7.36087 12.2928 6.88599 12.2928 6.5931 12C6.30021 11.7071 6.30021 11.2322 6.5931 10.9393L11.8964 5.63599Z" fill="#7D8198"/>
</svg>
