<svg width="24" height="24" viewBox="0 0 24 24" fill="none" xmlns="http://www.w3.org/2000/svg">
<path d="M12.5425 5.23354C12.401 5.08539 12.2051 5.00154 12.0003 5.00146C11.7955 5.00139 11.5995 5.0851 11.458 5.23314L6.20402 10.7278C5.91776 11.0271 5.92839 11.5019 6.22777 11.7882C6.52715 12.0744 7.0019 12.0638 7.28816 11.7644L11.25 7.62108V18.2545C11.25 18.6687 11.5858 19.0045 12 19.0045C12.4142 19.0045 12.75 18.6687 12.75 18.2545V7.623L16.7076 11.7679C16.9936 12.0675 17.4683 12.0785 17.7679 11.7924C18.0675 11.5064 18.0785 11.0317 17.7924 10.7321L12.5425 5.23354Z" fill="#7D8198"/>
</svg>
