<svg width="24" height="24" viewBox="0 0 24 24" fill="none" xmlns="http://www.w3.org/2000/svg">
<path d="M7.75 8C7.33579 8 7 8.33579 7 8.75C7 9.16421 7.33579 9.5 7.75 9.5H16.2469C16.6611 9.5 16.9969 9.16421 16.9969 8.75C16.9969 8.33579 16.6611 8 16.2469 8H7.75Z" fill="#7D8198"/>
<path fill-rule="evenodd" clip-rule="evenodd" d="M6.75 4.99536C5.23122 4.99536 4 6.22658 4 7.74536V16.2454C4 17.7641 5.23122 18.9954 6.75 18.9954H17.25C18.7688 18.9954 20 17.7641 20 16.2454V7.74536C20 6.22658 18.7688 4.99536 17.25 4.99536H6.75ZM5.5 7.74536C5.5 7.05501 6.05964 6.49536 6.75 6.49536H17.25C17.9404 6.49536 18.5 7.05501 18.5 7.74536V16.2454C18.5 16.9357 17.9404 17.4954 17.25 17.4954H6.75C6.05964 17.4954 5.5 16.9357 5.5 16.2454V7.74536Z" fill="#7D8198"/>
</svg>
