<svg width="24" height="24" viewBox="0 0 24 24" fill="none" xmlns="http://www.w3.org/2000/svg">
<path d="M12 12.9971C13.1046 12.9971 14 12.1016 14 10.9971C14 9.8925 13.1046 8.99707 12 8.99707C10.8954 8.99707 10 9.8925 10 10.9971C10 12.1016 10.8954 12.9971 12 12.9971Z" fill="#7D8198"/>
<path fill-rule="evenodd" clip-rule="evenodd" d="M17.657 5.26199C14.5431 2.2424 9.47708 2.2421 6.36283 5.2611C3.21562 8.29363 3.21583 13.2468 6.34288 16.2792L10.663 20.4686C11.3958 21.1791 12.57 21.1637 13.3063 20.4796L13.3122 20.4741L17.6362 16.281L17.6372 16.2801C20.7845 13.2477 20.784 8.29439 17.657 5.26199ZM7.40615 6.33883C9.93849 3.88315 14.0804 3.88315 16.6128 6.33883C19.1318 8.78163 19.132 12.7577 16.5957 15.2006L16.5938 15.2024L12.2809 19.3848C12.1074 19.5415 11.8449 19.5252 11.7073 19.3917L7.38713 15.2024C4.86814 12.7596 4.86805 8.78369 7.40435 6.34057L7.40615 6.33883Z" fill="#7D8198"/>
</svg>
