<svg width="24" height="24" viewBox="0 0 24 24" fill="none" xmlns="http://www.w3.org/2000/svg">
<path d="M3.22155 4.28204L19.7181 20.7784C20.011 21.0713 20.4859 21.0713 20.7788 20.7784C21.0717 20.4855 21.0717 20.0107 20.7788 19.7178L4.28221 3.22138C3.98931 2.92848 3.51444 2.92849 3.22155 3.22138C2.92865 3.51428 2.92866 3.98915 3.22155 4.28204Z" fill="#7D8198"/>
<path d="M21 11.9999C21 13.5889 20.2588 15.0047 19.1033 15.9206L18.0324 14.8497C18.9208 14.215 19.5 13.1751 19.5 11.9999C19.5 10.0669 17.933 8.49993 16 8.49993H13.9974C13.3345 8.49993 12.7146 8.68423 12.1862 9.00439L11.1036 7.92194C11.9204 7.34132 12.919 6.99993 13.9974 6.99993H16C18.7614 6.99993 21 9.2385 21 11.9999Z" fill="#7D8198"/>
<path d="M3 11.9999C3 10.411 3.74117 8.99516 4.89665 8.07931L5.96762 9.15013C5.07916 9.78488 4.5 10.8248 4.5 11.9999C4.5 13.9329 6.067 15.4999 8 15.4999H9.99731C10.6616 15.4999 11.2827 15.3149 11.8118 14.9935L12.8942 16.0757C12.0769 16.6577 11.0771 16.9999 9.99731 16.9999H8C5.23858 16.9999 3 14.7613 3 11.9999Z" fill="#7D8198"/>
</svg>
