<svg width="24" height="24" viewBox="0 0 24 24" fill="none" xmlns="http://www.w3.org/2000/svg">
<path fill-rule="evenodd" clip-rule="evenodd" d="M9.5 7C9.50108 5.61856 10.6195 4.5 12 4.5C13.3805 4.5 14.4989 5.61856 14.5 7H9.5ZM8 8.5V11.2461C8 11.6603 8.33579 11.9961 8.75 11.9961C9.16421 11.9961 9.5 11.6601 9.5 11.2458V8.5H14.5V11.25C14.5 11.6642 14.8358 12 15.25 12C15.6642 12 16 11.6636 16 11.2494V8.5H17.5V17.25C17.5 18.4926 16.4926 19.5 15.25 19.5H8.75C7.50736 19.5 6.5 18.4926 6.5 17.25V8.5H8ZM8 7C8.00108 4.79134 9.78988 3 12 3C14.2101 3 15.9989 4.79134 16 7H17.75C18.4404 7 19 7.55964 19 8.25V17.25C19 19.3211 17.3211 21 15.25 21H8.75C6.67893 21 5 19.3211 5 17.25V8.25C5 7.55964 5.55964 7 6.25 7H8Z" fill="#7D8198"/>
</svg>
