<svg width="24" height="24" viewBox="0 0 24 24" fill="none" xmlns="http://www.w3.org/2000/svg">
<path fill-rule="evenodd" clip-rule="evenodd" d="M21 12C21 16.9706 16.9706 21 12 21C7.02944 21 3 16.9706 3 12C3 7.02944 7.02944 3 12 3C16.9706 3 21 7.02944 21 12ZM16.3935 18.0791C15.1587 18.973 13.6409 19.5 12 19.5C7.85786 19.5 4.5 16.1421 4.5 12C4.5 10.3591 5.02696 8.84129 5.92088 7.60654L16.3935 18.0791ZM17.5163 17.0814C17.5098 17.0744 17.5031 17.0675 17.4963 17.0607L6.91898 6.48332C8.25516 5.25203 10.0398 4.5 12 4.5C16.1421 4.5 19.5 7.85786 19.5 12C19.5 13.9604 18.7478 15.7452 17.5163 17.0814Z" fill="#7D8198"/>
</svg>
