<svg width="24" height="24" viewBox="0 0 24 24" fill="none" xmlns="http://www.w3.org/2000/svg">
<path d="M15.8809 12.1554C16.1049 11.807 16.004 11.3429 15.6555 11.1189C15.3071 10.895 14.8431 10.9959 14.6191 11.3443L12.9219 13.9847L12.3262 13.2698C12.0611 12.9515 11.5882 12.9085 11.2699 13.1736C10.9517 13.4388 10.9086 13.9117 11.1738 14.2299L12.4238 15.7302C12.5767 15.9137 12.8078 16.0135 13.0462 15.9987C13.2846 15.984 13.5018 15.8566 13.6309 15.6557L15.8809 12.1554Z" fill="#7D8198"/>
<path fill-rule="evenodd" clip-rule="evenodd" d="M4 6.75C4 5.23122 5.23122 4 6.75 4H14.25C15.7688 4 17 5.23122 17 6.75V7H17.25C18.7688 7 20 8.23122 20 9.75V17.25C20 18.7688 18.7688 20 17.25 20H9.75C8.23122 20 7 18.7688 7 17.25V17H6.75C5.23122 17 4 15.7688 4 14.25V6.75ZM15.5 6.75V7H9.75C8.23122 7 7 8.23122 7 9.75V15.5H6.75C6.05964 15.5 5.5 14.9404 5.5 14.25V6.75C5.5 6.05964 6.05964 5.5 6.75 5.5H14.25C14.9404 5.5 15.5 6.05964 15.5 6.75ZM9.75 8.5C9.05964 8.5 8.5 9.05964 8.5 9.75V17.25C8.5 17.9404 9.05964 18.5 9.75 18.5H17.25C17.9404 18.5 18.5 17.9404 18.5 17.25V9.75C18.5 9.05964 17.9404 8.5 17.25 8.5H9.75Z" fill="#7D8198"/>
</svg>
