<svg width="24" height="24" viewBox="0 0 24 24" fill="none" xmlns="http://www.w3.org/2000/svg">
<path fill-rule="evenodd" clip-rule="evenodd" d="M12 3.00415C12.4142 3.00415 12.75 3.33994 12.75 3.75415V5H15.25C16.2165 5 17 5.7835 17 6.75V10.1853L19.426 10.7709C19.6482 10.8245 19.8339 10.9766 19.9302 11.184C20.0265 11.3913 20.023 11.6313 19.9207 11.8357L18.716 14.242L18.4855 15.3968C18.4044 15.803 18.0093 16.0665 17.6031 15.9855C17.1969 15.9044 16.9334 15.5093 17.0145 15.1031L17.2648 13.8495C17.2779 13.7839 17.2997 13.7204 17.3296 13.6606L18.1571 12.0077L12 10.5215L5.84299 12.0077L6.67061 13.6605C6.70059 13.7204 6.72241 13.784 6.73551 13.8497L6.98551 15.1033C7.06651 15.5095 6.80288 15.9045 6.39667 15.9855C5.99045 16.0665 5.59548 15.8029 5.51447 15.3966L5.2842 14.2419L4.07937 11.8358C3.97701 11.6313 3.97348 11.3914 4.0698 11.184C4.16613 10.9766 4.35177 10.8246 4.57402 10.7709L7 10.1853V6.75C7 5.7835 7.7835 5 8.75 5H11.25V3.75415C11.25 3.33994 11.5858 3.00415 12 3.00415ZM8.5 6.75C8.5 6.61193 8.61193 6.5 8.75 6.5H15.25C15.3881 6.5 15.5 6.61193 15.5 6.75V9.82327L12.176 9.02094C12.0603 8.99302 11.9397 8.99302 11.824 9.02094L8.5 9.82327V6.75Z" fill="#7D8198"/>
<path d="M4.35011 17.2995C4.10163 16.9681 3.63154 16.9009 3.30013 17.1494C2.96872 17.3978 2.9015 17.8679 3.14998 18.1993C3.97742 19.3029 4.98676 19.9999 6.18754 19.9999C7.16195 19.9999 8.10276 19.538 9.00249 18.7694C9.93481 19.5514 10.9343 19.9999 11.9975 19.9999C13.0611 19.9999 14.062 19.5511 14.9969 18.7688C15.8968 19.5377 16.8379 19.9999 17.8125 19.9999C19.0133 19.9999 20.0227 19.3029 20.8501 18.1993C21.0986 17.8679 21.0314 17.3978 20.7 17.1494C20.3685 16.9009 19.8985 16.9681 19.65 17.2995C18.9774 18.1965 18.3618 18.4999 17.8125 18.4999C17.2293 18.4999 16.4729 18.1619 15.5305 17.2192C15.2379 16.9265 14.7636 16.9261 14.4705 17.2183C13.5482 18.1378 12.7275 18.4999 11.9975 18.4999C11.2679 18.4999 10.4491 18.1381 9.53046 17.2192C9.3898 17.0785 9.199 16.9994 9.00004 16.9994C8.80109 16.9994 8.61029 17.0785 8.46963 17.2192C7.5272 18.1619 6.77079 18.4999 6.18754 18.4999C5.63833 18.4999 5.02267 18.1965 4.35011 17.2995Z" fill="#7D8198"/>
</svg>
