<svg width="24" height="24" viewBox="0 0 24 24" fill="none" xmlns="http://www.w3.org/2000/svg">
<path d="M15.1249 20.9865H10.1127C6.7412 20.9865 4 18.4983 4 15.4307V12.283C4 10.9141 4.6803 9.58506 5.92084 8.53585C6.62115 7.9363 8.08179 6.26756 9.93261 3.93932C10.3628 3.39972 10.9731 3.04999 11.5633 3.00002C12.0335 2.97005 12.4737 3.12993 12.8139 3.44969C13.3041 3.90934 13.5542 4.53886 13.5542 5.24833C13.5542 5.61805 13.4742 6.00776 13.3441 6.55734C13.144 7.43668 12.9139 8.13615 12.5638 8.91557H17.1058C17.9961 8.91557 18.8265 9.28529 19.3768 9.9348C19.877 10.5144 20.0871 11.2338 19.967 11.9733L19.0566 17.8288C18.7965 19.6375 17.1058 20.9965 15.1249 20.9965V20.9865ZM11.6834 4.4989C11.6834 4.4989 11.6734 4.4989 11.6634 4.4989C11.5233 4.4989 11.2932 4.6288 11.1031 4.86862C9.73252 6.59731 7.90171 8.82563 6.89127 9.68499C5.99087 10.4444 5.50066 11.3737 5.50066 12.293V15.4406C5.50066 17.679 7.57157 19.4976 10.1127 19.4976H15.1249C16.3754 19.4976 17.4259 18.6882 17.576 17.619C17.576 17.619 17.576 17.619 17.576 17.609L18.4964 11.7534C18.5464 11.4636 18.4564 11.1639 18.2463 10.9241C17.9761 10.6143 17.566 10.4344 17.1158 10.4344H12.2036C11.7534 10.4344 11.3532 10.2146 11.1231 9.85486C10.893 9.49513 10.873 9.03548 11.0631 8.64577C11.4533 7.83638 11.6934 7.13691 11.8935 6.24758C11.9935 5.80791 12.0635 5.47816 12.0635 5.26832C12.0635 4.95855 11.9735 4.72872 11.7834 4.54886C11.7534 4.52887 11.7334 4.50889 11.6934 4.50889L11.6834 4.4989Z" fill="#7D8198"/>
</svg>
