<svg width="24" height="24" viewBox="0 0 24 24" fill="none" xmlns="http://www.w3.org/2000/svg">
<path d="M12.5496 3.23966C12.4077 3.08684 12.2085 3 12 3C11.7914 3 11.5923 3.08684 11.4504 3.23966L8.20041 6.73966C7.91856 7.0432 7.93613 7.51775 8.23967 7.7996C8.5432 8.08145 9.01775 8.06387 9.2996 7.76034L11.25 5.65989V14.25C11.25 14.6642 11.5858 15 12 15C12.4142 15 12.75 14.6642 12.75 14.25V5.65991L14.7004 7.76034C14.9823 8.06387 15.4568 8.08145 15.7603 7.79959C16.0639 7.51774 16.0814 7.04319 15.7996 6.73966L12.5496 3.23966Z" fill="#7D8198"/>
<path d="M5 12.75C5 11.2312 6.23122 10 7.75 10H8.25C8.66421 10 9 10.3358 9 10.75C9 11.1642 8.66421 11.5 8.25 11.5H7.75C7.05964 11.5 6.5 12.0596 6.5 12.75V17.25C6.5 17.9404 7.05964 18.5 7.75 18.5H16.25C16.9404 18.5 17.5 17.9404 17.5 17.25V12.75C17.5 12.0596 16.9404 11.5 16.25 11.5H15.75C15.3358 11.5 15 11.1642 15 10.75C15 10.3358 15.3358 10 15.75 10H16.25C17.7688 10 19 11.2312 19 12.75V17.25C19 18.7688 17.7688 20 16.25 20H7.75C6.23122 20 5 18.7688 5 17.25V12.75Z" fill="#7D8198"/>
</svg>
