<svg width="24" height="24" viewBox="0 0 24 24" fill="none" xmlns="http://www.w3.org/2000/svg">
<path opacity="0.25" d="M8 5.5V9H4.5V6.75C4.5 6.05964 5.05964 5.5 5.75 5.5H8Z" fill="#7D8198"/>
<path opacity="0.25" d="M12 13H11.1406L9.75195 11.5312C9.28715 11.0399 8.60639 10.8785 8 11.0508V9H12V13Z" fill="#7D8198"/>
<path opacity="0.25" d="M16 7.08691C15.8435 7.03153 15.6755 7 15.5 7C14.6716 7 14 7.67157 14 8.5C14 8.6755 14.0315 8.84347 14.0869 9H12V5.5H16V7.08691Z" fill="#7D8198"/>
<path opacity="0.25" d="M19.5 13H16.2139L16 12.7861V9.91211C16.4256 9.76137 16.7625 9.42567 16.9131 9H19.5V13Z" fill="#7D8198"/>
<path d="M15.4995 7C16.3279 7 16.9995 7.67157 16.9995 8.5C16.9995 9.32843 16.3279 10 15.4995 10C14.6713 9.99977 13.9995 9.32828 13.9995 8.5C13.9995 7.67172 14.6713 7.00023 15.4995 7Z" fill="#7D8198"/>
<path fill-rule="evenodd" clip-rule="evenodd" d="M18.2495 4C19.7683 4 20.9995 5.23122 20.9995 6.75V17.25C20.9995 18.7688 19.7683 20 18.2495 20H5.74951C4.23093 19.9998 2.99951 18.7686 2.99951 17.25V6.75C2.99951 5.23136 4.23093 4.00023 5.74951 4H18.2495ZM14.6724 13.5732C14.5747 13.4759 14.4164 13.4758 14.3188 13.5732L9.39209 18.5H18.2495C18.62 18.5 18.9513 18.3371 19.1802 18.0811L14.6724 13.5732ZM8.66162 12.5625C8.56488 12.4604 8.40274 12.4582 8.30322 12.5576L4.49951 16.3604V17.25C4.49951 17.9402 5.05935 18.4998 5.74951 18.5H7.271L10.8716 14.8984L8.66162 12.5625ZM5.74951 5.5C5.05935 5.50023 4.49951 6.05979 4.49951 6.75V14.2393L7.24268 11.4961C7.93955 10.7996 9.07432 10.8155 9.75146 11.5312L11.9321 13.8379L13.2583 12.5127C13.9416 11.8295 15.0495 11.8296 15.7329 12.5127L19.4995 16.2793V6.75C19.4995 6.05964 18.9399 5.5 18.2495 5.5H5.74951Z" fill="#7D8198"/>
</svg>
