<svg width="24" height="24" viewBox="0 0 24 24" fill="none" xmlns="http://www.w3.org/2000/svg">
<path d="M11.25 9.70455L10.3075 10.7517C10.0304 11.0596 9.55614 11.0846 9.24826 10.8075C8.94039 10.5303 8.91545 10.0561 9.19255 9.74826L11.4427 7.24826C11.585 7.09023 11.7876 6.99999 12.0002 7C12.2128 7.00001 12.4154 7.09026 12.5577 7.2483L14.8075 9.7483C15.0846 10.0562 15.0596 10.5304 14.7517 10.8075C14.4438 11.0846 13.9696 11.0596 13.6925 10.7517L12.75 9.70439V12.25C12.75 12.6642 12.4142 13 12 13C11.5858 13 11.25 12.6642 11.25 12.25V9.70455Z" fill="#7D8198"/>
<path d="M17 14.75C17 14.3358 16.6642 14 16.25 14H7.75C7.33579 14 7 14.3358 7 14.75V16.25C7 16.6642 7.33579 17 7.75 17H16.25C16.6642 17 17 16.6642 17 16.25V14.75Z" fill="#7D8198"/>
<path fill-rule="evenodd" clip-rule="evenodd" d="M4 6.75C4 5.23122 5.23122 4 6.75 4H17.25C18.7688 4 20 5.23122 20 6.75V17.25C20 18.7688 18.7688 20 17.25 20H6.75C5.23122 20 4 18.7688 4 17.25V6.75ZM6.75 5.5C6.05964 5.5 5.5 6.05964 5.5 6.75V17.25C5.5 17.9404 6.05964 18.5 6.75 18.5H17.25C17.9404 18.5 18.5 17.9404 18.5 17.25V6.75C18.5 6.05964 17.9404 5.5 17.25 5.5H6.75Z" fill="#7D8198"/>
</svg>
