<svg width="24" height="24" viewBox="0 0 24 24" fill="none" xmlns="http://www.w3.org/2000/svg">
<path d="M6 8.5C6 8.22386 6.22386 8 6.5 8H17.5C17.7761 8 18 8.22386 18 8.5V12.5C18 12.7761 17.7761 13 17.5 13H6.5C6.22386 13 6 12.7761 6 12.5V8.5Z" fill="#7D8198"/>
<path d="M6.75 14.5C6.33579 14.5 6 14.8358 6 15.25C6 15.6642 6.33579 16 6.75 16H11.25C11.6642 16 12 15.6642 12 15.25C12 14.8358 11.6642 14.5 11.25 14.5H6.75Z" fill="#7D8198"/>
<path fill-rule="evenodd" clip-rule="evenodd" d="M3 7.75C3 6.23122 4.23122 5 5.75 5H18.25C19.7688 5 21 6.23122 21 7.75V16.25C21 17.7688 19.7688 19 18.25 19H5.75C4.23122 19 3 17.7688 3 16.25V7.75ZM5.75 6.5C5.05964 6.5 4.5 7.05964 4.5 7.75V16.25C4.5 16.9404 5.05964 17.5 5.75 17.5H18.25C18.9404 17.5 19.5 16.9404 19.5 16.25V7.75C19.5 7.05964 18.9404 6.5 18.25 6.5H5.75Z" fill="#7D8198"/>
</svg>
