<svg width="24" height="24" viewBox="0 0 24 24" fill="none" xmlns="http://www.w3.org/2000/svg">
<path fill-rule="evenodd" clip-rule="evenodd" d="M12 3.99902C12.4142 3.99902 12.75 4.33481 12.75 4.74902V13.3401L14.7004 11.2397C14.9823 10.9361 15.4568 10.9186 15.7603 11.2004C16.0639 11.4823 16.0814 11.9568 15.7996 12.2603L12.5496 15.7603C12.4077 15.9132 12.2086 16 12 16C11.7915 16 11.5923 15.9132 11.4504 15.7603L8.20041 12.2603C7.91855 11.9568 7.93613 11.4823 8.23966 11.2004C8.54319 10.9186 9.01774 10.9361 9.29959 11.2397L11.25 13.3401V4.74902C11.25 4.33481 11.5858 3.99902 12 3.99902ZM4.75 15C5.16421 15 5.5 15.3358 5.5 15.75V17.2517C5.5 17.9421 6.05964 18.5017 6.75 18.5017H17.25C17.9404 18.5017 18.5 17.9421 18.5 17.2517V15.75C18.5 15.3358 18.8358 15 19.25 15C19.6642 15 20 15.3358 20 15.75V17.2517C20 18.7705 18.7688 20.0017 17.25 20.0017H6.75C5.23122 20.0017 4 18.7705 4 17.2517V15.75C4 15.3358 4.33579 15 4.75 15Z" fill="#7D8198"/>
</svg>
