<svg width="24" height="24" viewBox="0 0 24 24" fill="none" xmlns="http://www.w3.org/2000/svg">
<path fill-rule="evenodd" clip-rule="evenodd" d="M16.7929 10.3446C17.1213 10.5971 17.5922 10.5355 17.8446 10.2071C18.0971 9.87873 18.0355 9.40786 17.7071 9.15541L12.4572 5.11951C12.1877 4.91232 11.8125 4.91231 11.543 5.1195L6.29288 9.1554C5.96449 9.40785 5.90292 9.87872 6.15537 10.2071C6.40781 10.5355 6.87868 10.5971 7.20707 10.3446L12.0001 6.66011L16.7929 10.3446ZM7.20708 13.6554C6.87869 13.403 6.40782 13.4645 6.15537 13.7929C5.90292 14.1213 5.96448 14.5922 6.29287 14.8446L11.5428 18.8805C11.8123 19.0877 12.1875 19.0877 12.457 18.8805L17.7071 14.8446C18.0355 14.5922 18.0971 14.1213 17.8446 13.7929C17.5922 13.4645 17.1213 13.403 16.7929 13.6554L11.9999 17.3399L7.20708 13.6554Z" fill="#5B53FF"/>
</svg>
