<svg width="24" height="24" viewBox="0 0 24 24" fill="none" xmlns="http://www.w3.org/2000/svg">
<path fill-rule="evenodd" clip-rule="evenodd" d="M7 4.25C6.58579 4.25 6.25 4.58579 6.25 5C6.25 5.41421 6.58579 5.75 7 5.75H17C17.4142 5.75 17.75 5.41421 17.75 5C17.75 4.58579 17.4142 4.25 17 4.25H7ZM6.44369 8.75C5.91032 8.75 5.5 9.17098 5.5 9.66667V17.5833C5.5 18.079 5.91032 18.5 6.44369 18.5H9.22185H10C10.6904 18.5 11.25 17.9404 11.25 17.25V15.3107L10.5303 16.0303C10.2374 16.3232 9.76256 16.3232 9.46967 16.0303C9.17678 15.7374 9.17678 15.2626 9.46967 14.9697L11.4697 12.9697C11.7626 12.6768 12.2374 12.6768 12.5303 12.9697L14.5303 14.9697C14.8232 15.2626 14.8232 15.7374 14.5303 16.0303C14.2374 16.3232 13.7626 16.3232 13.4697 16.0303L12.75 15.3107V17.25C12.75 18.7688 11.5188 20 10 20H9.22185H6.44369C5.10474 20 4 18.9301 4 17.5833V9.66667C4 8.3199 5.10474 7.25 6.44369 7.25H17.5563C18.8953 7.25 20 8.3199 20 9.66667V17.5833C20 18.9301 18.8953 20 17.5563 20H16.0282C15.6139 20 15.2782 19.6642 15.2782 19.25C15.2782 18.8358 15.6139 18.5 16.0282 18.5H17.5563C18.0897 18.5 18.5 18.079 18.5 17.5833V9.66667C18.5 9.17098 18.0897 8.75 17.5563 8.75H6.44369Z" fill="#7D8198"/>
</svg>
