<svg width="24" height="24" viewBox="0 0 24 24" fill="none" xmlns="http://www.w3.org/2000/svg">
<path fill-rule="evenodd" clip-rule="evenodd" d="M15.2602 16.7997C14.9566 17.0815 14.482 17.0638 14.2003 16.7602C13.9185 16.4566 13.9362 15.982 14.2398 15.7003L16.3392 13.752H9.75C7.67893 13.752 6 12.073 6 10.002V7.75C6 7.33579 6.33579 7 6.75 7C7.16421 7 7.5 7.33579 7.5 7.75V10.002C7.5 11.2446 8.50736 12.252 9.75 12.252H16.341L14.2395 10.2994C13.9361 10.0175 13.9186 9.54296 14.2005 9.23951C14.4825 8.93605 14.957 8.91861 15.2605 9.20055L18.7605 12.4524C18.9133 12.5944 19.0001 12.7935 19 13.0021C19 13.2106 18.9131 13.4097 18.7602 13.5516L15.2602 16.7997Z" fill="#7D8198"/>
</svg>
