<svg width="24" height="24" viewBox="0 0 24 24" fill="none" xmlns="http://www.w3.org/2000/svg">
<path fill-rule="evenodd" clip-rule="evenodd" d="M14.75 5C15.1642 5 15.5 5.33579 15.5 5.75V18.25C15.5 18.6642 15.1642 19 14.75 19C14.3358 19 14 18.6642 14 18.25V5.75C14 5.33579 14.3358 5 14.75 5ZM17.75 8.99585C18.1642 8.99585 18.5 9.33164 18.5 9.74585V14.25C18.5 14.6642 18.1642 15 17.75 15C17.3358 15 17 14.6642 17 14.25V9.74585C17 9.33164 17.3358 8.99585 17.75 8.99585ZM5.75049 9C6.1647 9 6.50049 9.33579 6.50049 9.75V14.25C6.50049 14.6642 6.1647 15 5.75049 15C5.33627 15 5.00049 14.6642 5.00049 14.25V9.75C5.00049 9.33579 5.33627 9 5.75049 9ZM9.5 10.748C9.5 10.3338 9.16422 9.99805 8.75 9.99805C8.33579 9.99805 8 10.3338 8 10.748V13.248C8 13.6623 8.33579 13.998 8.75 13.998C9.16422 13.998 9.5 13.6623 9.5 13.248V10.748ZM12.5 8.74927C12.5 8.33505 12.1642 7.99927 11.75 7.99927C11.3358 7.99927 11 8.33505 11 8.74927V15.2507C11 15.6649 11.3358 16.0007 11.75 16.0007C12.1642 16.0007 12.5 15.6649 12.5 15.2507V8.74927Z" fill="#7D8198"/>
</svg>
