<svg width="24" height="24" viewBox="0 0 24 24" fill="none" xmlns="http://www.w3.org/2000/svg">
<path d="M18.7678 12.5425C18.9161 12.4009 19 12.2049 19 11.9999C19 11.7949 18.9161 11.5988 18.7678 11.4573L13.2665 6.20742C12.9668 5.92145 12.4921 5.93255 12.2061 6.23221C11.9201 6.53187 11.9312 7.00662 12.2309 7.29258L16.3778 11.25H5.75C5.33579 11.25 5 11.5858 5 12C5 12.4142 5.33579 12.75 5.75 12.75H16.3776L12.2309 16.7074C11.9312 16.9934 11.9201 17.4681 12.2061 17.7678C12.4921 18.0675 12.9668 18.0785 13.2665 17.7926L18.7678 12.5425Z" fill="#7D8198"/>
</svg>
