<svg width="24" height="24" viewBox="0 0 24 24" fill="none" xmlns="http://www.w3.org/2000/svg">
<path fill-rule="evenodd" clip-rule="evenodd" d="M3 8.74573C3 7.22694 4.23122 5.99573 5.75 5.99573H18.25C19.7688 5.99573 21 7.22694 21 8.74573V15.2457C21 16.7645 19.7688 17.9957 18.25 17.9957H5.75C4.23122 17.9957 3 16.7645 3 15.2457V8.74573ZM5.75 7.49573C5.05964 7.49573 4.5 8.05537 4.5 8.74573V15.2457C4.5 15.9361 5.05964 16.4957 5.75 16.4957H18.25C18.9404 16.4957 19.5 15.9361 19.5 15.2457V8.74573C19.5 8.05537 18.9404 7.49573 18.25 7.49573H5.75Z" fill="#7D8198"/>
</svg>
