<svg width="24" height="24" viewBox="0 0 24 24" fill="none" xmlns="http://www.w3.org/2000/svg">
<path d="M7.75 4C7.33579 4 7 4.33579 7 4.75C7 5.16421 7.33579 5.5 7.75 5.5L16.2459 5.5C16.6601 5.5 16.9959 5.16421 16.9959 4.75C16.9959 4.33579 16.6601 4 16.2459 4H7.75Z" fill="#7D8198"/>
<path d="M12 14C13.1046 14 14 13.1046 14 12C14 10.8954 13.1046 10 12 10C10.8954 10 10 10.8954 10 12C10 13.1046 10.8954 14 12 14Z" fill="#7D8198"/>
<path fill-rule="evenodd" clip-rule="evenodd" d="M4 9.75391C4 8.23512 5.23122 7.00391 6.75 7.00391H17.25C18.7688 7.00391 20 8.23512 20 9.75391V16.25C20 17.7688 18.7688 19 17.25 19H6.75C5.23122 19 4 17.7688 4 16.25V9.75391ZM6.75 8.50391C6.05964 8.50391 5.5 9.06355 5.5 9.75391V16.25C5.5 16.9404 6.05964 17.5 6.75 17.5H7.69209C8.09405 16.6499 9.22765 15.0127 12.0001 15C14.7725 15.0127 15.906 16.6499 16.308 17.5H17.25C17.9404 17.5 18.5 16.9404 18.5 16.25V9.75391C18.5 9.06355 17.9404 8.50391 17.25 8.50391H6.75Z" fill="#7D8198"/>
</svg>
