<svg width="24" height="24" viewBox="0 0 24 24" fill="none" xmlns="http://www.w3.org/2000/svg">
<path fill-rule="evenodd" clip-rule="evenodd" d="M2.99736 15C2.99736 16.5188 4.22858 17.75 5.74736 17.75H13.2474C14.7661 17.75 15.9974 16.5188 15.9974 15V14.9097L19.9424 16.684C20.1744 16.7884 20.4436 16.768 20.6573 16.6298C20.871 16.4916 21 16.2545 21 16V7.5C21 7.24553 20.871 7.00842 20.6573 6.87023C20.4436 6.73204 20.1744 6.71162 19.9424 6.816L15.9974 8.59031V8.5C15.9974 6.98122 14.7661 5.75 13.2474 5.75H5.74736C4.22858 5.75 2.99736 6.98122 2.99736 8.5V15ZM15.9974 10.235V13.265L19.5 14.8403V8.65969L15.9974 10.235ZM14.4974 8.5C14.4974 7.80964 13.9377 7.25 13.2474 7.25L5.74736 7.25C5.057 7.25 4.49736 7.80964 4.49736 8.5L4.49736 15C4.49736 15.6904 5.057 16.25 5.74736 16.25H13.2474C13.9377 16.25 14.4974 15.6904 14.4974 15V8.5Z" fill="#7D8198"/>
</svg>
