<svg width="24" height="24" viewBox="0 0 24 24" fill="none" xmlns="http://www.w3.org/2000/svg">
<path d="M15.7647 10.292C16.0638 10.0054 16.0739 9.53067 15.7873 9.2316C15.5007 8.93252 15.026 8.92239 14.7269 9.20896L10.6543 13.1113L9.35865 11.3118C9.11662 10.9756 8.64791 10.8993 8.31177 11.1413C7.97562 11.3834 7.89932 11.8521 8.14134 12.1882L9.94134 14.6882C10.0682 14.8645 10.2653 14.9771 10.4816 14.9969C10.6978 15.0167 10.9121 14.9418 11.0689 14.7915L15.7647 10.292Z" fill="#7D8198"/>
<path fill-rule="evenodd" clip-rule="evenodd" d="M12 21C16.9706 21 21 16.9706 21 12C21 7.02944 16.9706 3 12 3C7.02944 3 3 7.02944 3 12C3 16.9706 7.02944 21 12 21ZM19.5 12C19.5 16.1421 16.1421 19.5 12 19.5C7.85786 19.5 4.5 16.1421 4.5 12C4.5 7.85786 7.85786 4.5 12 4.5C16.1421 4.5 19.5 7.85786 19.5 12Z" fill="#7D8198"/>
</svg>
