<svg width="24" height="24" viewBox="0 0 24 24" fill="none" xmlns="http://www.w3.org/2000/svg">
<path fill-rule="evenodd" clip-rule="evenodd" d="M3 12C3 7.02944 7.02944 3 12 3C16.9706 3 21 7.02944 21 12C21 16.9706 16.9706 21 12 21C7.02944 21 3 16.9706 3 12ZM11.0174 4.56379C7.66106 5.003 5.00282 7.66132 4.56375 11.0177C5.55282 11.0798 6.52619 11.3049 7.44415 11.6851C8.53608 12.1374 9.52823 12.8003 10.364 13.636C11.1997 14.4718 11.8626 15.4639 12.3149 16.5558C12.6951 17.4738 12.9202 18.4472 12.9823 19.4362C16.3372 18.9974 18.9946 16.3413 19.4356 12.9872C18.4468 12.925 17.4736 12.7 16.5558 12.3198C15.4639 11.8675 14.4718 11.2046 13.636 10.3688C12.8003 9.53312 12.1374 8.54096 11.6851 7.44903C11.3042 6.52957 11.079 5.55453 11.0174 4.56379ZM12.5175 4.51758C12.573 5.32704 12.7595 6.12332 13.0709 6.87501C13.4478 7.78495 14.0003 8.61174 14.6967 9.30818C15.3931 10.0046 16.2199 10.5571 17.1299 10.934C17.8802 11.2448 18.6748 11.4312 19.4827 11.487C19.2307 7.75518 16.2488 4.77188 12.5175 4.51758ZM11.4821 19.4824C7.75268 19.2281 4.77195 16.2473 4.5176 12.5179C5.32538 12.5738 6.11995 12.7602 6.87013 13.0709C7.78007 13.4478 8.60686 14.0003 9.3033 14.6967C9.99974 15.3931 10.5522 16.2199 10.9291 17.1299C11.2398 17.88 11.4262 18.6746 11.4821 19.4824Z" fill="#7D8198"/>
</svg>
