<svg width="24" height="24" viewBox="0 0 24 24" fill="none" xmlns="http://www.w3.org/2000/svg">
<path fill-rule="evenodd" clip-rule="evenodd" d="M12.5574 8.24827C12.4152 8.09024 12.2126 8 12 8C11.7874 8 11.5847 8.09024 11.4425 8.24828L9.19251 10.7483C8.91542 11.0562 8.94038 11.5304 9.24826 11.8075C9.55615 12.0846 10.0304 12.0596 10.3075 11.7517L11.25 10.7045V15.25C11.25 15.6642 11.5858 16 12 16C12.4142 16 12.75 15.6642 12.75 15.25V10.7045L13.6925 11.7517C13.9696 12.0596 14.4438 12.0846 14.7517 11.8075C15.0596 11.5304 15.0845 11.0562 14.8075 10.7483L12.5574 8.24827Z" fill="#7D8198"/>
<path fill-rule="evenodd" clip-rule="evenodd" d="M4.00006 11.9978C4.00006 7.59487 7.59453 4 11.9977 4C16.4003 4 20.0001 7.59423 20.0001 11.9978C20.0001 16.4007 16.4009 20 11.9977 20C10.7042 20 9.4557 19.6821 8.37115 19.1338L5.45718 19.9581L5.45499 19.9587C4.98073 20.0913 4.55832 19.8883 4.31312 19.6166C4.0726 19.3501 3.92698 18.9407 4.04458 18.5135L4.83723 15.5576C4.28878 14.4771 4.00006 13.2893 4.00006 11.9978ZM11.9977 5.5C8.42302 5.5 5.50006 8.42323 5.50006 11.9978C5.50006 13.1461 5.77592 14.1738 6.29317 15.101C6.38823 15.2714 6.41314 15.4722 6.3626 15.6607L5.64227 18.3469L8.25247 17.6085C8.44351 17.5544 8.64818 17.5783 8.82162 17.675C9.75325 18.1939 10.8559 18.5 11.9977 18.5C15.5724 18.5 18.5001 15.5723 18.5001 11.9978C18.5001 8.42387 15.573 5.5 11.9977 5.5Z" fill="#7D8198"/>
</svg>
