<svg width="24" height="24" viewBox="0 0 24 24" fill="none" xmlns="http://www.w3.org/2000/svg">
<path d="M11.25 10.2956V7.75C11.25 7.33579 11.5858 7 12 7C12.4142 7 12.75 7.33579 12.75 7.75V10.2954L13.6925 9.24826C13.9696 8.94038 14.4439 8.91544 14.7517 9.19255C15.0596 9.46965 15.0846 9.94387 14.8074 10.2517L12.5573 12.7517C12.415 12.9098 12.2124 13 11.9998 13C11.7872 13 11.5846 12.9097 11.4423 12.7517L9.1925 10.2517C8.91542 9.94381 8.9404 9.46959 9.24829 9.19251C9.55618 8.91543 10.0304 8.9404 10.3075 9.2483L11.25 10.2956Z" fill="#7D8198"/>
<path d="M17 14.75C17 14.3358 16.6642 14 16.25 14H7.75C7.33579 14 7 14.3358 7 14.75V16.25C7 16.6642 7.33579 17 7.75 17H16.25C16.6642 17 17 16.6642 17 16.25V14.75Z" fill="#7D8198"/>
<path fill-rule="evenodd" clip-rule="evenodd" d="M4 6.75C4 5.23122 5.23122 4 6.75 4H17.25C18.7688 4 20 5.23122 20 6.75V17.25C20 18.7688 18.7688 20 17.25 20H6.75C5.23122 20 4 18.7688 4 17.25V6.75ZM6.75 5.5C6.05964 5.5 5.5 6.05964 5.5 6.75V17.25C5.5 17.9404 6.05964 18.5 6.75 18.5H17.25C17.9404 18.5 18.5 17.9404 18.5 17.25V6.75C18.5 6.05964 17.9404 5.5 17.25 5.5H6.75Z" fill="#7D8198"/>
</svg>
