<svg width="24" height="24" viewBox="0 0 24 24" fill="none" xmlns="http://www.w3.org/2000/svg">
<path d="M12.75 3.75C12.75 3.33579 12.4143 3 12 3C11.5858 3 11.25 3.33579 11.25 3.75V5.25291C11.25 5.66712 11.5858 6.00291 12 6.00291C12.4143 6.00291 12.75 5.66712 12.75 5.25291V3.75Z" fill="#7D8198"/>
<path fill-rule="evenodd" clip-rule="evenodd" d="M10.4716 8.90224C9.50134 8.58856 8.58396 9.50594 8.89763 10.4762L12.0208 20.1361C12.3653 21.2016 13.8292 21.3114 14.3288 20.3093L16.317 16.3216L20.3047 14.3334C21.3068 13.8338 21.197 12.3699 20.1315 12.0254L10.4716 8.90224ZM13.2597 19.092L10.4753 10.4799L19.0874 13.2643L15.5728 15.0165C15.3299 15.1376 15.133 15.3345 15.0119 15.5774L13.2597 19.092Z" fill="#7D8198"/>
<path d="M18.3625 5.6314C18.6554 5.9243 18.6554 6.39917 18.3625 6.69206L17.2998 7.75478C17.0069 8.04767 16.532 8.04767 16.2391 7.75478C15.9463 7.46189 15.9463 6.98701 16.2391 6.69412L17.3019 5.6314C17.5948 5.33851 18.0696 5.33851 18.3625 5.6314Z" fill="#7D8198"/>
<path d="M7.75803 17.3014C8.05092 17.0085 8.05092 16.5337 7.75803 16.2408C7.46514 15.9479 6.99026 15.9479 6.69737 16.2408L5.63465 17.3035C5.34176 17.5964 5.34176 18.0713 5.63465 18.3642C5.92755 18.657 6.40242 18.657 6.69531 18.3642L7.75803 17.3014Z" fill="#7D8198"/>
<path d="M6.00254 12C6.00254 12.4142 5.66675 12.75 5.25254 12.75H3.74963C3.33542 12.75 2.99963 12.4142 2.99963 12C2.99963 11.5858 3.33542 11.25 3.74963 11.25H5.25254C5.66675 11.25 6.00254 11.5858 6.00254 12Z" fill="#7D8198"/>
<path d="M6.69143 5.6352C6.39854 5.3423 5.92366 5.3423 5.63077 5.6352C5.33788 5.92809 5.33788 6.40296 5.63077 6.69586L6.69349 7.75857C6.98638 8.05147 7.46125 8.05147 7.75415 7.75857C8.04704 7.46568 8.04704 6.99081 7.75415 6.69791L6.69143 5.6352Z" fill="#7D8198"/>
</svg>
