<svg width="24" height="24" viewBox="0 0 24 24" fill="none" xmlns="http://www.w3.org/2000/svg">
<path fill-rule="evenodd" clip-rule="evenodd" d="M7.33159 8.5C7.05073 9.09124 6.4481 9.5 5.75 9.5C4.7835 9.5 4 8.7165 4 7.75C4 6.7835 4.7835 6 5.75 6C6.4481 6 7.05073 6.40876 7.33159 7H16.6684C16.9493 6.40876 17.5519 6 18.25 6C19.2165 6 20 6.7835 20 7.75C20 8.7165 19.2165 9.5 18.25 9.5C17.5519 9.5 16.9493 9.09124 16.6684 8.5H13.8745C15.0591 8.82753 16.1245 9.47204 16.9748 10.4047C18.2524 11.8062 19.0013 13.8093 19.0013 16.25C19.0013 16.6642 18.6655 17 18.2513 17C17.837 17 17.5013 16.6642 17.5013 16.25C17.5013 14.1173 16.8509 12.4954 15.8662 11.4152C14.8836 10.3373 13.5254 9.75 12.0006 9.75C9.03205 9.75 6.5 12.1 6.5 16.25C6.5 16.6642 6.16421 17 5.75 17C5.33579 17 5 16.6642 5 16.25C5 12.2117 7.14029 9.33612 10.1404 8.5H7.33159Z" fill="#7D8198"/>
</svg>
