<svg fill="none" height="24" viewBox="0 0 24 24" width="24" xmlns="http://www.w3.org/2000/svg"><g fill="#7d8198"><path d="m12.7706 3.00293.4843.05478c1.1263.15885 2.2136.53064 3.2041 1.09655l.417.25335c.956.61723 1.7879 1.41104 2.4502 2.34081l.2725.40595c.6094.96189 1.0321 2.03237 1.2441 3.15463l.0782.4823c.129.9679.1005 1.9505-.085 2.9091l-.1064.4774c-.2774 1.1077-.7622 2.151-1.4268 3.0754l-.2959.3883c-.7155.8892-1.5918 1.6331-2.582 2.1931l-.4317.2289c-1.0218.5068-2.1291.8143-3.2627.9068l-.4873.0264c-1.1398.0308-2.27398-.1556-3.34177-.5478l-.45313-.1809-.06933-.0343c-.33216-.1849-.47744-.5954-.32422-.9527.15323-.3573.55053-.5346.91308-.4207l.07227.0274.37793.1497c.88977.3268 1.83437.4825 2.78417.4568l.4063-.0215c.9445-.077 1.8672-.333 2.7187-.7552l.3594-.1907c.8255-.4667 1.5569-1.0861 2.1533-1.8273l.2461-.3247c.5538-.7703.9574-1.6398 1.1885-2.5629l.0888-.3981c.1546-.7988.1779-1.6175.0704-2.424l-.0645-.402c-.1767-.93521-.5292-1.82682-1.0371-2.62838l-.2266-.33846c-.5519-.77478-1.2454-1.43615-2.042-1.95051l-.3476-.21128c-.8254-.47155-1.7315-.78125-2.6699-.91363l-.4043-.04598-.0762-.00978c-.3734-.07083-.6397-.41561-.6065-.80309.0334-.38739.3544-.68075.7344-.68669z"/><path d="m5.85358 7.67965c-.23746.33953-.70469.42239-1.04395.18488-.33944-.23778-.42196-.70666-.18457-1.04666zm3.14648-4.19447c.39047-.13826.81891.06673.95703.45779.13801.39118-.0665.82035-.45703.95863-1.4748.52227-2.74999 1.49404-3.64648 2.77805l-.61426-.43138-.61426-.4304c1.07577-1.54065 2.60538-2.706 4.375-3.33269z"/><path d="m3.10358 10.6211c.06265-.41.44519-.69155.85449-.62901.40944.06281.6906.44581.62793.85591-.18079 1.1832-.07655 2.3926.30371 3.5274l.15527.4206c.33426.8297.8138 1.593 1.41602 2.2537l.31152.3218.05274.0568c.24422.2915.23321.7267-.03711 1.0056-.27057.2788-.70497.3027-1.00293.0665l-.05762-.0509-.19043-.1907c-.87177-.901-1.54562-1.9747-1.97949-3.1518l-.08985-.2533c-.45632-1.3616-.58114-2.8129-.36425-4.2326z"/><path d="m14.7852 9.13862c.2997-.23419.7333-.20744 1.002.07337.2865.29958.2766.77528-.0225 1.06231l-4.6953 4.5065c-.1568.1505-.3716.2253-.5879.2054-.2162-.0199-.4132-.1326-.54003-.3091l-1.79981-2.5041.6084-.4383.6084-.4392 1.29494 1.8019 4.0732-3.90889zm-6.47362 1.98568c.33615-.2424.80485-.1655 1.04688.1712l-1.2168.8775c-.24198-.3367-.16617-.8062.16992-1.0487z"/></g></svg>