<svg width="24" height="24" viewBox="0 0 24 24" fill="none" xmlns="http://www.w3.org/2000/svg">
<path d="M12.0374 15.9989H7.12565C7.04251 15.9989 7.00096 15.9541 7.001 15.8646V8.11087C6.99882 8.09594 7.00022 8.08072 7.00509 8.06642C7.00996 8.05211 7.01817 8.03911 7.02905 8.02845C7.03994 8.01778 7.05322 8.00975 7.06782 8.00498C7.08243 8.00022 7.09797 7.99884 7.11321 8.00098H8.63412C8.64598 7.99934 8.65805 8.00043 8.6694 8.00414C8.68075 8.00786 8.69107 8.01411 8.69953 8.0224C8.70799 8.03069 8.71437 8.04079 8.71816 8.05191C8.72196 8.06303 8.72306 8.07486 8.72139 8.08647V14.4604H12.2993C12.3741 14.4604 12.4031 14.497 12.3865 14.5703L12.1621 15.889C12.1616 15.907 12.1568 15.9246 12.1482 15.9405C12.1395 15.9564 12.1272 15.9701 12.1123 15.9806C12.0891 15.9924 12.0635 15.9986 12.0374 15.9989Z" fill="#7D8198"/>
<path d="M14.6304 9.93032H13.2716C13.2595 9.92727 13.2468 9.92735 13.2348 9.93056C13.2228 9.93377 13.2118 9.94001 13.203 9.94864C13.1942 9.95728 13.1878 9.96801 13.1845 9.97979C13.1812 9.99158 13.1812 10.004 13.1843 10.0158C13.212 10.1814 13.2286 10.3487 13.2341 10.5164C13.2423 10.7119 13.2486 10.9093 13.2528 11.1086C13.257 11.3082 13.2591 11.4975 13.2591 11.6764V15.8769C13.2566 15.8935 13.2582 15.9104 13.2636 15.9263C13.269 15.9422 13.2781 15.9566 13.2902 15.9685C13.3023 15.9803 13.3171 15.9893 13.3333 15.9945C13.3495 15.9998 13.3668 16.0014 13.3837 15.999H14.8922C14.9587 15.999 14.9919 15.9624 14.9919 15.8891V12.0183C15.1113 11.8991 15.2531 11.8038 15.4095 11.7375C15.8699 11.5386 16.3722 11.4506 16.8744 11.4811C16.9575 11.4811 16.999 11.4526 16.999 11.3956V9.91812C17.0012 9.9032 16.9998 9.88798 16.9949 9.87367C16.9901 9.85937 16.9819 9.84637 16.971 9.8357C16.9601 9.82504 16.9468 9.81701 16.9322 9.81224C16.9176 9.80747 16.9021 9.80609 16.8868 9.80823C16.4847 9.80096 16.0875 9.8956 15.7337 10.083C15.4187 10.249 15.1377 10.4705 14.9046 10.7362C14.9045 10.6385 14.9004 10.547 14.8922 10.4615C14.8847 10.3814 14.8722 10.3019 14.8548 10.2234C14.8431 10.1636 14.8221 10.1059 14.7924 10.0524C14.7827 10.0176 14.7616 9.9868 14.7323 9.96477C14.7031 9.94273 14.6673 9.93064 14.6304 9.93032Z" fill="#7D8198"/>
<path fill-rule="evenodd" clip-rule="evenodd" d="M4 6.75C4 5.23122 5.23122 4 6.75 4H17.25C18.7688 4 20 5.23122 20 6.75V17.25C20 18.7688 18.7688 20 17.25 20H6.75C5.23122 20 4 18.7688 4 17.25V6.75ZM6.75 5.5C6.05964 5.5 5.5 6.05964 5.5 6.75V17.25C5.5 17.9404 6.05964 18.5 6.75 18.5H17.25C17.9404 18.5 18.5 17.9404 18.5 17.25V6.75C18.5 6.05964 17.9404 5.5 17.25 5.5H6.75Z" fill="#7D8198"/>
</svg>
