<svg width="24" height="24" viewBox="0 0 24 24" fill="none" xmlns="http://www.w3.org/2000/svg">
<path d="M12.75 14.3397V7.74902C12.75 7.33481 12.4142 6.99902 12 6.99902C11.5858 6.99902 11.25 7.33481 11.25 7.74902V14.3397L9.29967 12.2387C9.01786 11.9351 8.54332 11.9175 8.23974 12.1993C7.93617 12.4811 7.91852 12.9556 8.20033 13.2592L11.4503 16.7603C11.5922 16.9131 11.7914 17 12 17C12.2086 17 12.4078 16.9131 12.5497 16.7603L15.7997 13.2592C16.0815 12.9556 16.0638 12.4811 15.7603 12.1993C15.4567 11.9175 14.9821 11.9351 14.7003 12.2387L12.75 14.3397Z" fill="#7D8198"/>
<path fill-rule="evenodd" clip-rule="evenodd" d="M21 12C21 7.02944 16.9706 3 12 3C7.02944 3 3 7.02944 3 12C3 16.9706 7.02944 21 12 21C16.9706 21 21 16.9706 21 12ZM12 4.5C16.1421 4.5 19.5 7.85786 19.5 12C19.5 16.1421 16.1421 19.5 12 19.5C7.85786 19.5 4.5 16.1421 4.5 12C4.5 7.85786 7.85786 4.5 12 4.5Z" fill="#7D8198"/>
</svg>
