<svg width="24" height="24" viewBox="0 0 24 24" fill="none" xmlns="http://www.w3.org/2000/svg">
<path d="M17.2527 9.5C17.6669 9.5 18.0027 9.16421 18.0027 8.75C18.0027 8.33579 17.6669 8 17.2527 8H15.7527C15.3384 8 15.0027 8.33579 15.0027 8.75C15.0027 9.16421 15.3384 9.5 15.7527 9.5H17.2527Z" fill="#7D8198"/>
<path d="M18.0027 11.75C18.0027 12.1642 17.6669 12.5 17.2527 12.5H15.7527C15.3385 12.5 15.0027 12.1642 15.0027 11.75C15.0027 11.3358 15.3385 11 15.7527 11H17.2527C17.6669 11 18.0027 11.3358 18.0027 11.75Z" fill="#7D8198"/>
<path d="M17.2527 15.5C17.6669 15.5 18.0027 15.1642 18.0027 14.75C18.0027 14.3358 17.6669 14 17.2527 14H15.7527C15.3385 14 15.0027 14.3358 15.0027 14.75C15.0027 15.1642 15.3385 15.5 15.7527 15.5H17.2527Z" fill="#7D8198"/>
<path fill-rule="evenodd" clip-rule="evenodd" d="M3 7.75C3 6.23122 4.23122 5 5.75 5H18.25C19.7688 5 21 6.23122 21 7.75V16.25C21 17.7688 19.7688 19 18.25 19H5.75C4.23122 19 3 17.7688 3 16.25V7.75ZM5.75 6.5C5.05964 6.5 4.5 7.05964 4.5 7.75V16.25C4.5 16.9404 5.05964 17.5 5.75 17.5H12L12 6.5H5.75ZM18.25 17.5H13.5L13.5 6.5H18.25C18.9404 6.5 19.5 7.05964 19.5 7.75V16.25C19.5 16.9404 18.9404 17.5 18.25 17.5Z" fill="#7D8198"/>
</svg>
