<svg width="24" height="24" viewBox="0 0 24 24" fill="none" xmlns="http://www.w3.org/2000/svg">
<path d="M13 12.998C13 12.4458 12.5523 11.998 12 11.998C11.4477 11.998 11 12.4458 11 12.998V14.998C11 15.5503 11.4477 15.998 12 15.998C12.5523 15.998 13 15.5503 13 14.998V12.998Z" fill="#7D8198"/>
<path fill-rule="evenodd" clip-rule="evenodd" d="M8 7V8H7.75C6.23122 8 5 9.23122 5 10.75V17.25C5 18.7688 6.23122 20 7.75 20H16.25C17.7688 20 19 18.7688 19 17.25V10.75C19 9.23122 17.7688 8 16.25 8H16V7C16 4.70353 14.1966 3.00391 12 3.00391C9.80337 3.00391 8 4.70353 8 7ZM12 4.50391C10.6066 4.50391 9.5 5.55689 9.5 7V8H14.5V7C14.5 5.55689 13.3934 4.50391 12 4.50391ZM7.75 9.5C7.05964 9.5 6.5 10.0596 6.5 10.75V17.25C6.5 17.9404 7.05964 18.5 7.75 18.5H16.25C16.9404 18.5 17.5 17.9404 17.5 17.25V10.75C17.5 10.0596 16.9404 9.5 16.25 9.5H7.75Z" fill="#7D8198"/>
</svg>
