<svg width="24" height="24" viewBox="0 0 24 24" fill="none" xmlns="http://www.w3.org/2000/svg">
<path d="M11.9976 9.00366C10.3421 9.00366 9 7.65882 9 6H14.9951C14.9951 7.65882 13.653 9.00366 11.9976 9.00366Z" fill="#7D8198"/>
<path fill-rule="evenodd" clip-rule="evenodd" d="M5.75 21C5.33579 21 5 20.6642 5 20.25V18.5C5 15.5483 6.82796 13.0294 9.40961 12C6.82796 10.9706 5 8.45173 5 5.5V3.75C5 3.33579 5.33579 3 5.75 3H18.25C18.6642 3 19 3.33579 19 3.75V5.5C19 8.45173 17.172 10.9706 14.5904 12C17.172 13.0294 19 15.5483 19 18.5V20.25C19 20.6642 18.6642 21 18.25 21H5.75ZM6.5 18.5V19.5H17.5V18.5C17.5 15.9998 15.8287 13.8901 13.5401 13.223C13.2201 13.1298 13 12.8364 13 12.503V11.497C13 11.1636 13.2201 10.8702 13.5401 10.777C15.8287 10.1099 17.5 8.00022 17.5 5.5V4.5H6.5V5.5C6.5 8.00022 8.17133 10.1099 10.4599 10.777C10.7799 10.8702 11 11.1636 11 11.497V12.503C11 12.8364 10.7799 13.1298 10.4599 13.223C8.17133 13.8901 6.5 15.9998 6.5 18.5Z" fill="#7D8198"/>
</svg>
