<svg width="24" height="24" viewBox="0 0 24 24" fill="none" xmlns="http://www.w3.org/2000/svg">
<path fill-rule="evenodd" clip-rule="evenodd" d="M5 5.75C5 5.33579 5.33579 5 5.75 5H10.25C10.6642 5 11 5.33579 11 5.75V8H13V5.75C13 5.33579 13.3358 5 13.75 5H18.25C18.6642 5 19 5.33579 19 5.75V8.10352C20.1543 8.42998 21 9.49122 21 10.75V16.2512C21 17.77 19.7688 19.0012 18.25 19.0012H5.75C4.23122 19.0012 3 17.77 3 16.2512V10.75C3 9.49122 3.84575 8.42998 5 8.10352V5.75ZM18.25 9.5H5.75C5.05964 9.5 4.5 10.0596 4.5 10.75V16.2512C4.5 16.9416 5.05964 17.5012 5.75 17.5012H18.25C18.9404 17.5012 19.5 16.9416 19.5 16.2512V10.75C19.5 10.0596 18.9404 9.5 18.25 9.5ZM17.5 8V6.5H14.5V8H17.5ZM9.5 6.5V8H6.5V6.5H9.5Z" fill="#7D8198"/>
</svg>
