<svg width="24" height="24" viewBox="0 0 24 24" fill="none" xmlns="http://www.w3.org/2000/svg">
<path d="M9.65928 11.25L11.7603 9.29967C12.0638 9.01786 12.0815 8.54332 11.7997 8.23974C11.5179 7.93617 11.0433 7.91852 10.7397 8.20033L7.23871 11.4503C7.08583 11.5922 6.99896 11.7914 6.99896 12C6.99896 12.2086 7.08583 12.4078 7.23871 12.5497L10.7397 15.7997C11.0433 16.0815 11.5179 16.0638 11.7997 15.7603C12.0815 15.4567 12.0638 14.9821 11.7603 14.7003L9.65928 12.75H16.25C16.6642 12.75 17 12.4142 17 12C17 11.5858 16.6642 11.25 16.25 11.25H9.65928Z" fill="#7D8198"/>
<path fill-rule="evenodd" clip-rule="evenodd" d="M21 12C21 16.9706 16.9706 21 12 21C7.02944 21 3 16.9706 3 12C3 7.02944 7.02944 3 12 3C16.9706 3 21 7.02944 21 12ZM12 19.5C16.1421 19.5 19.5 16.1421 19.5 12C19.5 7.85786 16.1421 4.5 12 4.5C7.85786 4.5 4.5 7.85786 4.5 12C4.5 16.1421 7.85786 19.5 12 19.5Z" fill="#7D8198"/>
</svg>
