<svg width="24" height="24" viewBox="0 0 24 24" fill="none" xmlns="http://www.w3.org/2000/svg">
<path d="M12.75 16.3781L16.7114 12.2282C16.9974 11.9286 17.4722 11.9176 17.7718 12.2036C18.0714 12.4896 18.0824 12.9643 17.7964 13.264L12.5425 18.7679C12.401 18.9161 12.205 19 12 19C11.795 19 11.599 18.9161 11.4575 18.7679L6.20748 13.2679C5.92148 12.9682 5.93252 12.4935 6.23214 12.2075C6.53177 11.9215 7.00651 11.9325 7.29252 12.2321L11.25 16.3781V5.75C11.25 5.33579 11.5858 5 12 5C12.4142 5 12.75 5.33579 12.75 5.75V16.3781Z" fill="#7D8198"/>
</svg>
