<svg width="24" height="24" viewBox="0 0 24 24" fill="none" xmlns="http://www.w3.org/2000/svg">
<path d="M7.5 7C8.32843 7 9 7.67157 9 8.5C9 9.32843 8.32843 10 7.5 10C6.67158 9.99999 6 9.32842 6 8.5C6 7.67158 6.67158 7.00001 7.5 7Z" fill="#7D8198"/>
<path fill-rule="evenodd" clip-rule="evenodd" d="M10.25 4C11.7688 4 13 5.23122 13 6.75V17.25C13 18.7688 11.7688 20 10.25 20H5.75C4.23122 20 3 18.7688 3 17.25V6.75C3 5.23122 4.23122 4.00001 5.75 4H10.25ZM7.17676 13.585C7.07917 13.4876 6.92083 13.4876 6.82324 13.585L4.5 15.9082V17.25C4.5 17.9404 5.05965 18.5 5.75 18.5H10.25C10.7484 18.5 11.1762 18.2071 11.377 17.7852L7.17676 13.585ZM5.75 5.5C5.05965 5.50001 4.5 6.05965 4.5 6.75V13.7871L5.7627 12.5244C6.44607 11.8412 7.55393 11.8412 8.2373 12.5244L11.5 15.7871V6.75C11.5 6.05964 10.9404 5.5 10.25 5.5H5.75Z" fill="#7D8198"/>
<path d="M16.25 18.5C16.6642 18.5 17 18.8358 17 19.25C17 19.6642 16.6642 20 16.25 20H14.7549C14.3407 20 14.0049 19.6642 14.0049 19.25C14.0049 18.8358 14.3407 18.5 14.7549 18.5H16.25Z" fill="#7D8198"/>
<path d="M20.2461 16C20.6603 16 20.9961 16.3358 20.9961 16.75V18.25C20.9961 19.2165 20.2126 20 19.2461 20H18.7461C18.3321 19.9998 17.9961 19.6641 17.9961 19.25C17.9961 18.8359 18.3321 18.5002 18.7461 18.5H19.2461C19.3842 18.5 19.4961 18.3881 19.4961 18.25V16.75C19.4961 16.3359 19.8321 16.0002 20.2461 16Z" fill="#7D8198"/>
<path d="M20.2461 10C20.6603 10 20.9961 10.3358 20.9961 10.75V13.25C20.9961 13.6642 20.6603 14 20.2461 14C19.8321 13.9998 19.4961 13.6641 19.4961 13.25V10.75C19.4961 10.3359 19.8321 10.0002 20.2461 10Z" fill="#7D8198"/>
<path d="M19.2461 4C20.2126 4.00001 20.9961 4.78351 20.9961 5.75V7.25C20.9961 7.66421 20.6603 7.99999 20.2461 8C19.8321 7.99977 19.4961 7.66407 19.4961 7.25V5.75C19.4961 5.61194 19.3842 5.50001 19.2461 5.5H18.7461C18.3321 5.49977 17.9961 5.16407 17.9961 4.75C17.9961 4.33593 18.3321 4.00023 18.7461 4H19.2461Z" fill="#7D8198"/>
<path d="M16.25 4C16.6642 4 17 4.33579 17 4.75C17 5.16421 16.6642 5.5 16.25 5.5H14.7549C14.3407 5.5 14.0049 5.16421 14.0049 4.75C14.0049 4.33579 14.3407 4 14.7549 4H16.25Z" fill="#7D8198"/>
</svg>
