<svg width="24" height="25" viewBox="0 0 24 25" fill="none" xmlns="http://www.w3.org/2000/svg">
<path d="M16 11.49C16.5523 11.49 17 11.9377 17 12.49C17 13.0423 16.5523 13.49 16 13.49C15.4477 13.49 15 13.0423 15 12.49C15 11.9377 15.4477 11.49 16 11.49Z" fill="#7D8198"/>
<path fill-rule="evenodd" clip-rule="evenodd" d="M18.25 6.48999C19.7688 6.48999 21 7.72121 21 9.23999V15.74C21 17.2588 19.7688 18.49 18.25 18.49H5.75C4.23122 18.49 3 17.2588 3 15.74V9.23999C3 7.72121 4.23122 6.48999 5.75 6.48999H18.25ZM5.75 7.98999C5.05964 7.98999 4.5 8.54963 4.5 9.23999V15.74C4.5 16.4303 5.05964 16.99 5.75 16.99H18.25C18.9404 16.99 19.5 16.4303 19.5 15.74V9.23999C19.5 8.54963 18.9404 7.98999 18.25 7.98999H5.75Z" fill="#7D8198"/>
</svg>
