<svg width="24" height="24" viewBox="0 0 24 24" fill="none" xmlns="http://www.w3.org/2000/svg">
<path fill-rule="evenodd" clip-rule="evenodd" d="M16.4773 4.22874C16.4773 4.22874 19.5745 8.5829 20.4418 11.6394C16.6912 17.7484 12.1484 20.9582 11.9968 21C11.8417 20.9578 7.0362 17.6939 3.55185 11.6394C4.41916 8.58291 7.51639 4.22874 7.51639 4.22874C7.51639 4.22874 9.45232 4 12.0044 4C14.5565 4 16.4773 4.22874 16.4773 4.22874ZM11.7311 13.6035L10.5781 12.7229C10.5498 12.6997 10.5662 12.6539 10.6027 12.6539H13.3949C13.4315 12.6539 13.4479 12.6997 13.4196 12.7229L12.2666 13.6035L12.5719 14.4965L14.8018 14.8877C14.8214 14.8911 14.8404 14.8792 14.8459 14.8601L16.6394 8.61944L13.993 10.4198L14.1001 12.4085C14.1026 12.4532 14.0399 12.466 14.0247 12.4238L12.9343 9.32385L16.6563 8.04802L14.7441 6.98966L11.9988 7.9262L9.23079 6.98966L7.33701 8.04759L11.0634 9.32385L9.97304 12.4238C9.95783 12.466 9.89509 12.4532 9.89761 12.4085L10.0047 10.4198L7.35831 8.61945L9.15446 14.8597C9.15996 14.8788 9.17899 14.8907 9.19858 14.8872L11.4259 14.4961L11.7311 13.6035ZM10.2156 15.2384L10.6899 16.484H13.3037L13.778 15.2384L11.9966 14.9607L10.2156 15.2384Z" fill="#7D8198"/>
</svg>
