<svg width="24" height="24" viewBox="0 0 24 24" fill="none" xmlns="http://www.w3.org/2000/svg">
<path fill-rule="evenodd" clip-rule="evenodd" d="M17.5027 7.753C17.5027 6.79588 16.4704 6.19412 15.6371 6.66554L8.12773 10.9138C7.28161 11.3924 7.28203 12.611 8.12848 13.0891L15.6378 17.3305C16.4711 17.8012 17.5027 17.1994 17.5027 16.2426V7.753ZM14.8983 5.36058C16.7315 4.32348 19.0027 5.64734 19.0027 7.753V16.25C19.0027 18.3548 16.7331 19.6714 14.8999 18.636L7.39058 14.3946C7.02001 14.1853 6.72315 13.9115 6.5 13.5988V18.2503C6.5 18.6643 6.16421 19 5.75 19C5.33579 19 5 18.6643 5 18.2503V5.75495C5 5.3409 5.33579 5 5.75 5C6.16421 5 6.5 5.3409 6.5 5.75495V10.4037C6.72281 10.0915 7.01912 9.81802 7.38893 9.60881L14.8983 5.36058Z" fill="#7D8198"/>
</svg>
