<svg width="24" height="24" viewBox="0 0 24 24" fill="none" xmlns="http://www.w3.org/2000/svg">
<path fill-rule="evenodd" clip-rule="evenodd" d="M6.75 4C5.23122 4 4 5.23122 4 6.75V17.25C4 18.7688 5.23122 20 6.75 20H17.25C18.7688 20 20 18.7688 20 17.25V6.75C20 5.23122 18.7688 4 17.25 4H6.75ZM7 7C7.55228 7 8 6.55228 8 6C8 5.44772 7.55228 5 7 5C6.44772 5 6 5.44772 6 6C6 6.55228 6.44772 7 7 7ZM6 7.99902C5.72386 7.99902 5.5 8.22288 5.5 8.49902V18C5.5 18.2761 5.72386 18.5 6 18.5H18C18.2761 18.5 18.5 18.2761 18.5 18V8.49902C18.5 8.22288 18.2761 7.99902 18 7.99902H6ZM11 6C11 6.55228 10.5523 7 10 7C9.44772 7 9 6.55228 9 6C9 5.44772 9.44772 5 10 5C10.5523 5 11 5.44772 11 6ZM13 7C13.5523 7 14 6.55228 14 6C14 5.44772 13.5523 5 13 5C12.4477 5 12 5.44772 12 6C12 6.55228 12.4477 7 13 7ZM7.74557 11H14.25C14.6642 11 15 10.6642 15 10.25C15 9.83579 14.6642 9.5 14.25 9.5H7.74557C7.33136 9.5 6.99557 9.83579 6.99557 10.25C6.99557 10.6642 7.33136 11 7.74557 11ZM10.2456 14H7.74557C7.33136 14 6.99557 13.6642 6.99557 13.25C6.99557 12.8358 7.33136 12.5 7.74557 12.5H10.2456C10.6598 12.5 10.9956 12.8358 10.9956 13.25C10.9956 13.6642 10.6598 14 10.2456 14ZM7.74557 15.499C7.33136 15.499 6.99558 15.8348 6.99557 16.249C6.99557 16.6632 7.33136 16.999 7.74557 16.999L16.25 16.999C16.6642 16.999 17 16.6632 17 16.249C17 15.8348 16.6642 15.499 16.25 15.499L7.74557 15.499Z" fill="#7D8198"/>
</svg>
