<svg width="24" height="24" viewBox="0 0 24 24" fill="none" xmlns="http://www.w3.org/2000/svg">
<path fill-rule="evenodd" clip-rule="evenodd" d="M8.75104 4C7.78454 4 7.00104 4.7835 7.00104 5.75V11H4.75C3.7835 11 3 11.7835 3 12.75V18.25C3 19.2165 3.7835 20 4.75 20H11.2477C12.2158 20 12.9999 19.214 12.9977 18.246L12.9925 16H19.251C20.2175 16 21.001 15.2165 21.001 14.25V5.75C21.001 4.7835 20.2175 4 19.251 4H8.75104ZM11.4925 16H8.75104C7.78454 16 7.00104 15.2165 7.00104 14.25V12.5H4.75C4.61193 12.5 4.5 12.6119 4.5 12.75V18.25C4.5 18.3881 4.61193 18.5 4.75 18.5H11.2477C11.386 18.5 11.498 18.3877 11.4977 18.2494L11.4925 16ZM8.50104 5.75C8.50104 5.61193 8.61297 5.5 8.75104 5.5H19.251C19.3891 5.5 19.501 5.61193 19.501 5.75V14.25C19.501 14.3881 19.3891 14.5 19.251 14.5H8.75104C8.61297 14.5 8.50104 14.3881 8.50104 14.25V5.75Z" fill="#7D8198"/>
</svg>
