<svg width="24" height="24" viewBox="0 0 24 24" fill="none" xmlns="http://www.w3.org/2000/svg">
<path d="M9.00006 13C9.55235 13 10.0001 12.5523 10.0001 12C10.0001 11.4477 9.55235 11 9.00006 11C8.44778 11 8.00006 11.4477 8.00006 12C8.00006 12.5523 8.44778 13 9.00006 13Z" fill="#7D8198"/>
<path d="M15.0001 13C15.5523 13 16.0001 12.5523 16.0001 12C16.0001 11.4477 15.5523 11 15.0001 11C14.4478 11 14.0001 11.4477 14.0001 12C14.0001 12.5523 14.4478 13 15.0001 13Z" fill="#7D8198"/>
<path d="M19.7301 12.99C19.5501 11.94 19.1801 10.94 18.6601 10.03C19.9701 8.64004 19.6601 4.92004 19.5201 3.66004C19.4901 3.45004 19.3801 3.26004 19.2101 3.14004C19.0401 3.02004 18.8201 2.97004 18.6201 3.02004C16.6601 3.44004 13.5201 4.33004 12.8701 5.79004C12.3701 5.71004 11.8501 5.70004 11.3401 5.74004C10.6401 4.31004 7.55005 3.44004 5.61005 3.02004C5.41005 2.97004 5.20005 3.02004 5.03005 3.13004C4.86005 3.25004 4.74005 3.43004 4.71005 3.63004C4.51005 4.91004 4.05005 8.69004 5.38005 10.06C5.01005 10.74 4.73005 11.47 4.55005 12.23L4.02005 14.48C3.93005 14.85 4.14005 15.23 4.50005 15.36L7.19005 16.32C7.94005 16.58 8.46006 17.23 8.55006 17.99C8.76006 19.71 10.2501 21 12.0001 21C13.7501 21 15.2401 19.71 15.4501 17.99C15.5501 17.22 16.0701 16.58 16.8101 16.31L19.5001 15.35C19.8401 15.23 20.0501 14.88 19.9901 14.52L19.7301 12.99ZM18.1001 4.68004C18.2301 6.54004 18.0601 8.12004 17.7601 8.76004C17.1501 8.03004 16.4101 7.40004 15.5801 6.89004L15.1701 6.64004C14.9101 6.48004 14.6301 6.34004 14.3501 6.22004C14.8001 5.78004 16.3601 5.14004 18.1001 4.69004V4.68004ZM6.09005 4.68004C7.72005 5.10004 9.20006 5.68004 9.76006 6.10004C9.39006 6.24004 9.03005 6.41004 8.68005 6.62004C7.75005 7.18004 6.93005 7.90004 6.26005 8.74004C6.00005 8.08004 5.89005 6.49004 6.09005 4.68004ZM16.3101 14.9C15.0301 15.36 14.1301 16.47 13.9601 17.8C13.8401 18.77 13.0001 19.49 12.0001 19.49C11.0001 19.49 10.1601 18.76 10.0401 17.8C9.88005 16.47 8.98005 15.35 7.69005 14.9L5.64005 14.17L6.02005 12.57C6.48005 10.64 7.73005 8.93004 9.48005 7.88004C10.9601 6.99004 12.9201 7.00004 14.3901 7.91004L14.8001 8.16004C16.6401 9.29004 17.9001 11.14 18.2601 13.24L18.4201 14.15L16.3301 14.9H16.3101Z" fill="#7D8198"/>
</svg>
