<svg width="24" height="24" viewBox="0 0 24 24" fill="none" xmlns="http://www.w3.org/2000/svg">
<path d="M8 3.75C8 3.33579 8.33579 3 8.75 3H10.25C10.6642 3 11 3.33579 11 3.75C11 4.16421 10.6642 4.5 10.25 4.5L8.75 4.5C8.33579 4.5 8 4.16421 8 3.75Z" fill="#7D8198"/>
<path d="M3.75 9C4.16421 9 4.5 9.33579 4.5 9.75V11.25C4.5 11.6642 4.16421 12 3.75 12C3.33579 12 3 11.6642 3 11.25V9.75C3 9.33579 3.33579 9 3.75 9Z" fill="#7D8198"/>
<path d="M4.5 7.25C4.5 7.66421 4.16421 8 3.75 8C3.33579 8 3 7.66421 3 7.25V5.75008C3 4.2313 4.23121 3.00009 5.74999 3.00008L6.25499 3.00008C6.66921 3.00007 7.005 3.33586 7.005 3.75007C7.005 4.16429 6.66922 4.50007 6.255 4.50008L5.74999 4.50008C5.05964 4.50008 4.5 5.05973 4.5 5.75008V7.25Z" fill="#7D8198"/>
<path d="M15.25 7C14.8358 7 14.5 6.66421 14.5 6.25V5.75008C14.5 5.05972 13.9404 4.50008 13.25 4.50008H12.75C12.3358 4.50008 12 4.16429 12 3.75008C12 3.33586 12.3358 3.00008 12.75 3.00008H13.25C14.7688 3.00008 16 4.23129 16 5.75008V6.25C16 6.66421 15.6642 7 15.25 7Z" fill="#7D8198"/>
<path d="M4.5 14.75C4.5 14.3358 4.16421 14 3.75 14C3.33579 14 3 14.3358 3 14.75V15.5C3 17.0188 4.23122 18.25 5.75 18.25H9.5546L8.19505 19.7455C7.91642 20.052 7.93901 20.5263 8.2455 20.805C8.55199 21.0836 9.02633 21.061 9.30496 20.7545L11.805 18.0045C12.065 17.7184 12.065 17.2816 11.805 16.9955L9.30496 14.2455C9.02633 13.939 8.55199 13.9164 8.2455 14.1951C7.93901 14.4737 7.91642 14.948 8.19505 15.2545L9.55459 16.75H5.75C5.05964 16.75 4.5 16.1904 4.5 15.5V14.75Z" fill="#7D8198"/>
<path d="M10.75 8C9.23122 8 8 9.23122 8 10.75V11.25C8 11.6642 8.33579 12 8.75 12C9.16421 12 9.5 11.6642 9.5 11.25V10.75C9.5 10.0596 10.0596 9.5 10.75 9.5H18.25C18.9404 9.5 19.5 10.0596 19.5 10.75V18.25C19.5 18.9404 18.9404 19.5 18.25 19.5H13.75C13.3358 19.5 13 19.8358 13 20.25C13 20.6642 13.3358 21 13.75 21H18.25C19.7688 21 21 19.7688 21 18.25V10.75C21 9.23122 19.7688 8 18.25 8H10.75Z" fill="#7D8198"/>
</svg>
