<svg width="24" height="24" viewBox="0 0 24 24" fill="none" xmlns="http://www.w3.org/2000/svg">
<path d="M11 8.75C11 8.33579 11.3358 8 11.75 8H15.25C15.6642 8 16 8.33579 16 8.75V11.25C16 11.6642 15.6642 12 15.25 12H11.75C11.3358 12 11 11.6642 11 11.25V8.75Z" fill="#7D8198"/>
<path d="M11.7498 14C11.3355 14 10.9998 14.3358 10.9998 14.75C10.9998 15.1642 11.3355 15.5 11.7498 15.5H15.2498C15.664 15.5 15.9998 15.1642 15.9998 14.75C15.9998 14.3358 15.664 14 15.2498 14H11.7498Z" fill="#7D8198"/>
<path fill-rule="evenodd" clip-rule="evenodd" d="M5.75 4.99512H7.63262C8.13705 4.38717 8.89831 4 9.75 4H17.2471C18.7659 4 19.9971 5.23122 19.9971 6.75V17.25C19.9971 18.7688 18.7659 20 17.2471 20H9.75C8.89561 20 8.13223 19.6104 7.62784 18.9991H5.75C4.23122 18.9991 3 17.7679 3 16.2491V7.74512C3 6.22633 4.23122 4.99512 5.75 4.99512ZM7 6.75C7 6.66406 7.00394 6.57904 7.01166 6.49512H5.75C5.05964 6.49512 4.5 7.05476 4.5 7.74512V16.2491C4.5 16.9395 5.05965 17.4991 5.75 17.4991H7.01113C7.00376 17.4171 7 17.334 7 17.25V6.75ZM9.75 5.5C9.05964 5.5 8.5 6.05964 8.5 6.75V17.25C8.5 17.9404 9.05964 18.5 9.75 18.5H17.2471C17.9374 18.5 18.4971 17.9404 18.4971 17.25V6.75C18.4971 6.05964 17.9374 5.5 17.2471 5.5H9.75Z" fill="#7D8198"/>
</svg>
