<svg width="24" height="24" viewBox="0 0 24 24" fill="none" xmlns="http://www.w3.org/2000/svg">
<path fill-rule="evenodd" clip-rule="evenodd" d="M6.75 4C5.23122 4 4 5.23122 4 6.75V17.25C4 18.7688 5.23122 20 6.75 20H17.25C18.7688 20 20 18.7688 20 17.25V6.75C20 5.23122 18.7688 4 17.25 4H6.75ZM5.5 6.75C5.5 6.05964 6.05964 5.5 6.75 5.5H17.25C17.9404 5.5 18.5 6.05964 18.5 6.75V12H14.75C14.3673 12 14.0461 12.2886 14.0044 12.6686L14.0034 12.6763C14.0021 12.686 13.9995 12.7037 13.9952 12.7282C13.9866 12.7774 13.9714 12.8527 13.9464 12.9452C13.8957 13.1331 13.8089 13.3764 13.6664 13.6132C13.3984 14.0585 12.933 14.5 12 14.5C11.0672 14.5 10.6028 14.0587 10.3357 13.6139C10.1936 13.3772 10.1071 13.134 10.0567 12.9462C10.0319 12.8536 10.0168 12.7783 10.0082 12.7292C10.004 12.7047 10.0014 12.687 10.0001 12.6773L9.99905 12.6692C9.95784 12.2887 9.63656 12 9.25342 12H5.5V6.75ZM5.5 13.5V17.25C5.5 17.9404 6.05964 18.5 6.75 18.5H17.25C17.9404 18.5 18.5 17.9404 18.5 17.25V13.5H15.3469C15.2665 13.757 15.1424 14.0697 14.9515 14.3868C14.4672 15.1915 13.5576 16 12 16C10.4423 16 9.53333 15.1913 9.04979 14.3861C8.85955 14.0693 8.73586 13.7569 8.65581 13.5H5.5Z" fill="#7D8198"/>
</svg>
