<svg width="24" height="24" viewBox="0 0 24 24" fill="none" xmlns="http://www.w3.org/2000/svg">
<path d="M9.21972 13.7197C8.92683 14.0126 8.92683 14.4874 9.21972 14.7803C9.51262 15.0732 9.98749 15.0732 10.2804 14.7803L14.7784 10.2823C15.0713 9.98942 15.0713 9.51455 14.7784 9.22165C14.4855 8.92876 14.0106 8.92876 13.7177 9.22165L9.21972 13.7197Z" fill="#7D8198"/>
<path fill-rule="evenodd" clip-rule="evenodd" d="M12 21C16.9706 21 21 16.9706 21 12C21 7.02944 16.9706 3 12 3C7.02944 3 3 7.02944 3 12C3 16.9706 7.02944 21 12 21ZM19.5 12C19.5 16.1421 16.1421 19.5 12 19.5C7.85786 19.5 4.5 16.1421 4.5 12C4.5 7.85786 7.85786 4.5 12 4.5C16.1421 4.5 19.5 7.85786 19.5 12Z" fill="#7D8198"/>
</svg>
