<svg width="24" height="24" viewBox="0 0 24 24" fill="none" xmlns="http://www.w3.org/2000/svg">
<path fill-rule="evenodd" clip-rule="evenodd" d="M21 12C21 7.02944 16.9706 3 12 3C7.02944 3 3 7.02944 3 12C3 16.9706 7.02944 21 12 21C16.9706 21 21 16.9706 21 12ZM15.2025 18.7839C15.3961 18.5092 15.5629 18.2211 15.7027 17.9482C16.1283 17.1175 16.1083 16.1518 15.8442 15.2566L15.785 15.0563C15.609 14.4596 15.2591 13.9289 14.78 13.532L14.4825 13.2856C14.3029 13.1368 14.0911 13.032 13.8639 12.9796L13.6224 12.9239C13.0842 12.7997 12.703 12.3205 12.703 11.7682C12.703 11.457 12.8253 11.1582 13.0436 10.9364L13.4816 10.4911C13.883 10.0831 14.4313 9.85338 15.0036 9.85338H15.2134C15.4116 9.85338 15.6071 9.9002 15.7838 9.99002L16.2528 10.2284C16.6204 10.4152 17.0698 10.2654 17.2518 9.8954C17.449 9.49449 17.2485 9.01159 16.8254 8.86821L15.8216 8.5281C15.6255 8.46167 15.4109 8.47709 15.2264 8.57089L15.1273 8.62127C14.6611 8.85821 14.109 8.5195 14.109 7.99655C14.109 7.81268 14.1813 7.63617 14.3102 7.5051L14.6401 7.16981C14.7542 7.05381 14.8831 6.95338 15.0235 6.87111L15.1829 6.77769C15.8207 6.40402 16.5746 6.33299 17.1995 6.59485C16.0096 5.44993 14.4425 4.69421 12.703 4.53251V6.99051C12.703 7.43172 12.4552 7.83555 12.0619 8.03545L11.8653 8.13537C11.5269 8.30736 11.1161 8.24035 10.8499 7.96976C10.6862 7.80335 10.4625 7.70963 10.2291 7.70963H10.1033C9.59781 7.70963 9.18802 8.11942 9.18802 8.62493C9.18802 8.94408 9.02178 9.24018 8.74931 9.40636L6.11176 11.015C5.83929 11.1812 5.67305 11.4773 5.67305 11.7964C5.67305 12.3019 6.08284 12.7117 6.58835 12.7117H7.15929C7.55767 12.7117 7.93938 12.8716 8.21877 13.1556L8.84871 13.796C9.51667 14.4749 9.89102 15.3892 9.89102 16.3417V16.4266C9.89102 17.6323 10.4566 18.7566 11.399 19.4763C11.5973 19.492 11.7977 19.5 12 19.5C13.1456 19.5 14.2313 19.2431 15.2025 18.7839Z" fill="#7D8198"/>
</svg>
