<svg width="24" height="24" viewBox="0 0 24 24" fill="none" xmlns="http://www.w3.org/2000/svg">
<path fill-rule="evenodd" clip-rule="evenodd" d="M4.28037 3.21971C3.9875 2.92679 3.51263 2.92676 3.21971 3.21963C2.92679 3.5125 2.92676 3.98737 3.21963 4.28029L19.7171 20.7803C20.01 21.0732 20.4849 21.0733 20.7778 20.7804C21.0707 20.4875 21.0708 20.0127 20.7779 19.7197L4.28037 3.21971ZM4.75 8H4.81761L6.31738 9.5H4.75C4.61193 9.5 4.5 9.61193 4.5 9.75V14.2634C4.5 14.4019 4.61256 14.514 4.75103 14.5134L6.97735 14.5042C7.80376 14.5008 8.60816 14.7705 9.26552 15.2713L12.5 17.7357V15.6836L14 17.1838V19.25C14 19.5351 13.8384 19.7956 13.5829 19.9221C13.3274 20.0486 13.0222 20.0194 12.7955 19.8466L8.35646 16.4645C7.96204 16.164 7.4794 16.0022 6.98355 16.0042L4.75724 16.0134C3.78792 16.0174 3 15.2328 3 14.2634V9.75C3 8.78351 3.7835 8 4.75 8ZM12.5 6.26545V9.31912L14 10.8193V4.75147C14 4.46639 13.8384 4.20596 13.5829 4.07941C13.3275 3.95287 13.0224 3.98209 12.7956 4.15482L9.69648 6.51517L10.7667 7.58556L12.5 6.26545Z" fill="#7D8198"/>
</svg>
