<svg width="24" height="24" viewBox="0 0 24 24" fill="none" xmlns="http://www.w3.org/2000/svg">
<path d="M16.4449 4.06489C16.7154 3.94439 17.0316 3.99441 17.2517 4.19254L19.7517 6.44254C19.9098 6.58477 20 6.7874 20 7.00001C20 7.21263 19.9098 7.41525 19.7517 7.55748L17.2517 9.80748C17.0316 10.0056 16.7154 10.0556 16.4449 9.93514C16.1743 9.81464 16 9.5462 16 9.25001V7.75H7.75C6.50736 7.75 5.5 8.75736 5.5 10V10.25C5.5 10.6642 5.16421 11 4.75 11C4.33579 11 4 10.6642 4 10.25V10C4 7.92893 5.67893 6.25 7.75 6.25H16V4.75001C16 4.45383 16.1743 4.18539 16.4449 4.06489Z" fill="#7D8198"/>
<path d="M18.5 14C18.5 15.2426 17.4926 16.25 16.25 16.25H8V14.75C8 14.4538 7.82569 14.1854 7.55513 14.0649C7.28457 13.9444 6.96843 13.9944 6.74828 14.1925L4.24828 16.4425C4.09024 16.5847 4 16.7874 4 17C4 17.2126 4.09024 17.4152 4.24828 17.5575L6.74828 19.8075C6.96843 20.0056 7.28457 20.0556 7.55513 19.9351C7.82569 19.8146 8 19.5462 8 19.25V17.75H16.25C18.3211 17.75 20 16.0711 20 14V13.75C20 13.3358 19.6642 13 19.25 13C18.8358 13 18.5 13.3358 18.5 13.75V14Z" fill="#7D8198"/>
</svg>
