<svg width="24" height="24" viewBox="0 0 24 24" fill="none" xmlns="http://www.w3.org/2000/svg">
<path fill-rule="evenodd" clip-rule="evenodd" d="M8.00146 8.25C8.00146 7.55964 8.56111 7 9.25146 7H11.7515C12.4418 7 13.0015 7.55964 13.0015 8.25V10.75C13.0015 11.4404 12.4418 12 11.7515 12H9.25146C8.56111 12 8.00146 11.4404 8.00146 10.75V8.25ZM9.50146 8.5V10.5H11.5015V8.5H9.50146Z" fill="#7D8198"/>
<path fill-rule="evenodd" clip-rule="evenodd" d="M17 9.02173V5.75C17 4.23122 15.7688 3 14.25 3H6.75C5.23122 3 4 4.23122 4 5.75V18.2454C4 19.7641 5.23122 20.9954 6.75 20.9954H18.2478C19.7666 20.9954 20.9978 19.7641 20.9978 18.2454V12.1926C20.9978 11.6295 20.7268 11.1007 20.2696 10.7719L18.2718 9.33502C17.8738 9.04874 17.4218 8.95869 17 9.02173ZM6.75 4.5C6.05964 4.5 5.5 5.05964 5.5 5.75V18.2454C5.5 18.9357 6.05964 19.4954 6.75 19.4954H8.00146V14.7461C8.00146 14.3319 8.33725 13.9961 8.75146 13.9961H12.2515C12.6657 13.9961 13.0015 14.3319 13.0015 14.7461V19.4954H15.5V5.75C15.5 5.05964 14.9404 4.5 14.25 4.5H6.75ZM11.5015 19.4954V15.4961H9.50146V19.4954H11.5015ZM17 10.7557V19.4954H18.2478C18.9382 19.4954 19.4978 18.9357 19.4978 18.2454V12.1926C19.4978 12.1122 19.4591 12.0366 19.3938 11.9897L17.396 10.5528C17.2306 10.4338 17 10.552 17 10.7557Z" fill="#7D8198"/>
</svg>
