<svg width="24" height="24" viewBox="0 0 24 24" fill="none" xmlns="http://www.w3.org/2000/svg">
<path fill-rule="evenodd" clip-rule="evenodd" d="M4.00002 11.5V16.25C4.00002 17.7688 5.23123 19 6.75001 19H18.2505C19.7693 19 21.0005 17.7688 21.0005 16.25V9.75C21.0005 8.23122 19.7693 7 18.2505 7H13.7604C13.4543 7 13.1588 6.88765 12.93 6.68426L11.8166 5.69462C11.3132 5.24717 10.6631 5 9.98962 5H6.75002C5.23123 5 4.00002 6.23122 4.00002 7.75V10H3.99812V11.5H4.00002ZM5.50002 7.75C5.50002 7.05964 6.05966 6.5 6.75002 6.5H9.98962C10.2958 6.5 10.5913 6.61235 10.8201 6.81574L11.9334 7.80538C12.4368 8.25283 13.0869 8.5 13.7604 8.5H18.2505C18.9408 8.5 19.5005 9.05964 19.5005 9.75V10H5.50002V7.75ZM5.50002 11.5H19.5005V16.25C19.5005 16.9404 18.9408 17.5 18.2505 17.5H6.75001C6.05966 17.5 5.50002 16.9404 5.50002 16.25V11.5Z" fill="#7D8198"/>
</svg>
