<svg width="24" height="24" viewBox="0 0 24 24" fill="none" xmlns="http://www.w3.org/2000/svg">
<path d="M11.25 3.75C11.25 3.33579 11.5858 3 12 3C16.9704 3 21 7.02956 21 12C21 16.9704 16.9704 21 12 21C7.02956 21 3 16.9704 3 12C3 9.50524 4.09966 7.16529 5.71959 5.54488C6.01244 5.25194 6.48731 5.25187 6.78025 5.54472C7.07319 5.83757 7.07326 6.31244 6.78041 6.60538C5.41518 7.97102 4.5 9.93897 4.5 12C4.5 16.142 7.85798 19.5 12 19.5C16.142 19.5 19.5 16.142 19.5 12C19.5 8.11111 16.5399 4.91335 12.75 4.53703V6.25C12.75 6.66421 12.4142 7 12 7C11.5858 7 11.25 6.66421 11.25 6.25V3.75Z" fill="#7D8198"/>
<path d="M8.21997 8.21547C8.51303 7.92274 8.9879 7.923 9.28063 8.21606L11.2201 10.1578C11.4598 10.0562 11.7233 10 12 10C13.1046 10 14 10.8954 14 12C14 13.1046 13.1046 14 12 14C10.8954 14 10 13.1046 10 12C10 11.7224 10.0566 11.458 10.1588 11.2177L8.21937 9.27612C7.92664 8.98307 7.92691 8.50819 8.21997 8.21547Z" fill="#7D8198"/>
</svg>
