<svg width="24" height="24" viewBox="0 0 24 24" fill="none" xmlns="http://www.w3.org/2000/svg">
<path d="M18.7803 6.28033C19.0732 5.98744 19.0732 5.51256 18.7803 5.21967C18.4874 4.92678 18.0126 4.92678 17.7197 5.21967L14.5 8.43935V5.75008C14.5 5.33586 14.1642 5.00008 13.75 5.00008C13.3358 5.00008 13 5.33586 13 5.75008V10.2501C13 10.6643 13.3358 11.0001 13.75 11.0001H18.25C18.6642 11.0001 19 10.6643 19 10.2501C19 9.83586 18.6642 9.50008 18.25 9.50008H15.5606L18.7803 6.28033Z" fill="#7D8198"/>
<path d="M8.43935 14.5H5.75011C5.3359 14.5 5.00011 14.1642 5.00011 13.75C5.00011 13.3358 5.3359 13 5.75011 13H10.25C10.4489 13 10.6397 13.079 10.7803 13.2197C10.921 13.3603 11 13.5511 11 13.75V18.25C11 18.6642 10.6642 19 10.25 19C9.8358 19 9.50001 18.6642 9.50001 18.25V15.5607L6.28033 18.7804C5.98744 19.0733 5.51257 19.0733 5.21967 18.7804C4.92678 18.4875 4.92678 18.0126 5.21967 17.7197L8.43935 14.5Z" fill="#7D8198"/>
</svg>
