<svg width="24" height="24" viewBox="0 0 24 24" fill="none" xmlns="http://www.w3.org/2000/svg">
<path d="M16.9952 12.6282C16.9952 10.7633 15.4834 9.25146 13.6185 9.25146H9.70584L10.7554 8.30769C11.0634 8.03072 11.0886 7.55652 10.8116 7.24852C10.5346 6.94051 10.0604 6.91535 9.75242 7.19231L7.24852 9.44389C7.09035 9.58612 7.00002 9.78881 7 10.0015C6.99998 10.2142 7.09028 10.4169 7.24842 10.5592L9.75233 12.8115C10.0603 13.0885 10.5345 13.0634 10.8115 12.7555C11.0885 12.4475 11.0634 11.9733 10.7555 11.6963L9.70511 10.7515H13.6185C14.6549 10.7515 15.4952 11.5918 15.4952 12.6282C15.4952 13.6791 14.5877 14.5049 13.7484 14.5049C13.3342 14.5049 12.9984 14.8407 12.9984 15.2549C12.9984 15.6691 13.3342 16.0049 13.7484 16.0049C15.4449 16.0049 16.9952 14.4785 16.9952 12.6282Z" fill="#7D8198"/>
<path fill-rule="evenodd" clip-rule="evenodd" d="M21 12C21 16.9706 16.9706 21 12 21C7.02944 21 3 16.9706 3 12C3 7.02944 7.02944 3 12 3C16.9706 3 21 7.02944 21 12ZM12 19.5C16.1421 19.5 19.5 16.1421 19.5 12C19.5 7.85786 16.1421 4.5 12 4.5C7.85786 4.5 4.5 7.85786 4.5 12C4.5 16.1421 7.85786 19.5 12 19.5Z" fill="#7D8198"/>
</svg>
