<svg width="24" height="24" viewBox="0 0 24 24" fill="none" xmlns="http://www.w3.org/2000/svg">
<path d="M12 15C13.6569 15 15 13.6569 15 12C15 10.3431 13.6569 9 12 9C10.3431 9 9 10.3431 9 12C9 13.6569 10.3431 15 12 15Z" fill="#7D8198"/>
<path fill-rule="evenodd" clip-rule="evenodd" d="M12 6C9.9416 6 8.06908 6.92479 6.6028 7.96773C5.12834 9.0165 3.99231 10.2363 3.39114 10.9419C2.86767 11.5563 2.86767 12.4437 3.39114 13.0581C3.99231 13.7637 5.12834 14.9835 6.6028 16.0323C8.06908 17.0752 9.9416 18 12 18C14.0584 18 15.9309 17.0752 17.3972 16.0323C18.8716 14.9835 20.0077 13.7637 20.6088 13.0581C21.1323 12.4437 21.1323 11.5563 20.6088 10.9419C20.0077 10.2363 18.8716 9.0165 17.3972 7.96774C15.9309 6.92479 14.0584 6 12 6ZM4.53292 11.9147C5.09101 11.2596 6.13633 10.1403 7.47223 9.19006C8.81631 8.23403 10.3831 7.5 12 7.5C13.6168 7.5 15.1837 8.23403 16.5277 9.19006C17.8636 10.1403 18.909 11.2596 19.467 11.9147C19.4935 11.9457 19.5014 11.9755 19.5014 12C19.5014 12.0245 19.4935 12.0543 19.467 12.0853C18.909 12.7404 17.8636 13.8597 16.5277 14.8099C15.1837 15.766 13.6168 16.5 12 16.5C10.3831 16.5 8.81631 15.766 7.47223 14.8099C6.13633 13.8597 5.09101 12.7404 4.53292 12.0853C4.5065 12.0543 4.49854 12.0245 4.49854 12C4.49854 11.9755 4.5065 11.9457 4.53292 11.9147Z" fill="#7D8198"/>
</svg>
