<svg width="24" height="24" viewBox="0 0 24 24" fill="none" xmlns="http://www.w3.org/2000/svg">
<path fill-rule="evenodd" clip-rule="evenodd" d="M8.04171 5.5C7.9955 5.5 7.95837 5.53713 7.95837 5.58333V7.61373V7.96581C7.95842 7.97064 7.95842 7.97546 7.95837 7.98028V11.4914L12 13.4576L16.0417 11.4914V9.39939L7.95837 7.61373L16.0417 9.39931V7.99063C16.0414 7.9792 16.0414 7.96776 16.0417 7.9563V5.58333C16.0417 5.53713 16.0046 5.5 15.9584 5.5H8.04171ZM17.5417 7.54761V5.58333C17.5417 4.7087 16.833 4 15.9584 4H8.04171C7.16708 4 6.45837 4.7087 6.45837 5.58333V7.5471L4.51961 8.69991L4.51956 8.69994C3.91292 9.06062 3.54163 9.71397 3.54163 10.4192V16.7917C3.54163 18.3563 4.81033 19.625 6.37496 19.625H17.625C19.1896 19.625 20.4583 18.3563 20.4583 16.7917V10.4196C20.4583 9.71398 20.0863 9.06096 19.4806 8.70051L19.4804 8.70036L17.5417 7.54761ZM17.5417 9.29275V9.73066L18.7135 9.9895L17.5417 9.29275ZM17.5417 9.73075V10.7616L18.8591 10.1207C18.8203 10.0687 18.7713 10.0239 18.7137 9.98965L17.5417 9.73075ZM18.9583 11.7406L12.3281 14.9661C12.1209 15.0668 11.879 15.0668 11.6719 14.9661L5.04163 11.7406V16.7917C5.04163 17.5279 5.63876 18.125 6.37496 18.125H17.625C18.3612 18.125 18.9583 17.5279 18.9583 16.7917V11.7406ZM5.14049 10.1206L6.45837 10.7617V9.29224L5.28619 9.98923L5.28614 9.98927C5.22846 10.0236 5.17929 10.0684 5.14049 10.1206Z" fill="#5B53FF"/>
</svg>
