<svg width="24" height="24" viewBox="0 0 24 24" fill="none" xmlns="http://www.w3.org/2000/svg">
<path fill-rule="evenodd" clip-rule="evenodd" d="M12 4.5C16.1421 4.5 19.5 7.85786 19.5 12C19.5 16.1421 16.1421 19.5 12 19.5C7.85786 19.5 4.5 16.1421 4.5 12C4.5 7.85787 7.85786 4.5 12 4.5ZM21 12C21 7.02944 16.9706 3 12 3C7.02944 3 3 7.02944 3 12C3 16.9706 7.02944 21 12 21C16.9706 21 21 16.9706 21 12ZM11.3718 7.00476C13.2367 7.00476 14.7485 8.51663 14.7485 10.3815V14.2942L15.6923 13.2446C15.9693 12.9366 16.4435 12.9114 16.7515 13.1884C17.0595 13.4654 17.0846 13.9396 16.8077 14.2476L14.5561 16.7515C14.4139 16.9096 14.2112 17 13.9985 17C13.7858 17 13.5831 16.9097 13.4408 16.7516L11.1885 14.2477C10.9115 13.9397 10.9366 13.4655 11.2445 13.1885C11.5525 12.9115 12.0267 12.9366 12.3037 13.2445L13.2485 14.2949V10.3815C13.2485 9.34506 12.4082 8.50476 11.3718 8.50476C10.3209 8.50476 9.49511 9.41234 9.49511 10.2516C9.49511 10.6658 9.15932 11.0016 8.74511 11.0016C8.3309 11.0016 7.99511 10.6658 7.99511 10.2516C7.99511 8.55513 9.52152 7.00476 11.3718 7.00476Z" fill="#7D8198"/>
</svg>
