<svg width="24" height="25" viewBox="0 0 24 25" fill="none" xmlns="http://www.w3.org/2000/svg">
<path d="M17.25 9.48999C17.6642 9.48999 18 9.82578 18 10.24V14.74C18 15.1542 17.6642 15.49 17.25 15.49C16.8358 15.49 16.5 15.1542 16.5 14.74V10.24C16.5 9.82578 16.8358 9.48999 17.25 9.48999Z" fill="#7D8198"/>
<path fill-rule="evenodd" clip-rule="evenodd" d="M18.25 5.48999C19.7688 5.48999 21 6.72121 21 8.23999V16.74C21 18.2588 19.7688 19.49 18.25 19.49H5.75C4.23122 19.49 3 18.2588 3 16.74V8.23999C3 6.72121 4.23122 5.48999 5.75 5.48999H18.25ZM5.75 6.98999C5.05964 6.98999 4.5 7.54963 4.5 8.23999V16.74C4.5 17.4303 5.05964 17.99 5.75 17.99H18.25C18.9404 17.99 19.5 17.4303 19.5 16.74V8.23999C19.5 7.54963 18.9404 6.98999 18.25 6.98999H5.75Z" fill="#7D8198"/>
</svg>
