<svg width="24" height="24" viewBox="0 0 24 24" fill="none" xmlns="http://www.w3.org/2000/svg">
<path fill-rule="evenodd" clip-rule="evenodd" d="M4 6.75C4 5.23122 5.23122 4 6.75 4H17.25C18.769 4 20 5.23178 20 6.75038V10.2497C20 10.664 19.6642 11 19.25 11C18.8358 11 18.5 10.6642 18.5 10.25V10.0004L16 10V10.25C16 10.6642 15.6642 11 15.25 11C14.8358 11 14.5 10.6642 14.5 10.25V5.5H9.5L9.5 18.5H12.25C12.6642 18.5 13 18.8358 13 19.25C13 19.6642 12.6642 20 12.25 20H6.75C5.23122 20 4 18.7688 4 17.25V6.75ZM16 5.5V8.5H18.5V6.75038C18.5 6.05984 17.9402 5.5 17.25 5.5H16ZM6.75 5.5H8L8 8.5H5.5V6.75C5.5 6.05964 6.05964 5.5 6.75 5.5ZM5.5 15.5V17.25C5.5 17.9404 6.05964 18.5 6.75 18.5H8L8 15.5H5.5ZM8 14L8 10H5.5V14H8Z" fill="#7D8198"/>
<path fill-rule="evenodd" clip-rule="evenodd" d="M16 16V14.8937C16 14.6377 16.0547 14.3856 16.1595 14.1523C16.2642 13.9191 16.4162 13.7107 16.604 13.5375C16.7917 13.3644 17.0119 13.2294 17.2508 13.1382C17.4896 13.0469 17.7441 13.0005 18 13.0005C18.2559 13.0005 18.5104 13.0469 18.7492 13.1382C18.9881 13.2294 19.2083 13.3644 19.396 13.5375C19.5838 13.7107 19.7358 13.9191 19.8405 14.1523C19.9453 14.3856 20 14.6377 20 14.8937V16C20.5523 16 21 16.4477 21 17V20C21 20.5523 20.5523 21 20 21H16C15.4477 21 15 20.5523 15 20V17C15 16.4477 15.4477 16 16 16ZM17.6969 14.3059C17.7917 14.2697 17.8948 14.2505 18 14.2505C18.1052 14.2505 18.2083 14.2697 18.3031 14.3059C18.3979 14.3421 18.4809 14.394 18.5485 14.4564C18.6161 14.5187 18.6667 14.5898 18.7002 14.6644C18.7336 14.7388 18.75 14.8165 18.75 14.8937V16H17.25V14.8937C17.25 14.8165 17.2664 14.7388 17.2998 14.6644C17.3333 14.5898 17.3839 14.5187 17.4515 14.4564C17.5191 14.394 17.6021 14.3421 17.6969 14.3059Z" fill="#7D8198"/>
</svg>
