<svg width="24" height="24" viewBox="0 0 24 24" fill="none" xmlns="http://www.w3.org/2000/svg">
<path d="M15.7996 11.2603C16.0026 11.0417 16.0567 10.7236 15.9375 10.4502C15.8182 10.1768 15.5483 10 15.25 10L8.75163 10C8.45337 10 8.18345 10.1767 8.06419 10.4501C7.94493 10.7235 7.99901 11.0416 8.2019 11.2602L11.4502 14.7602C11.5921 14.9131 11.7913 15 11.9999 15.0001C12.2085 15.0001 12.4076 14.9132 12.5496 14.7604L15.7996 11.2603Z" fill="#7D8198"/>
<path fill-rule="evenodd" clip-rule="evenodd" d="M4 6.75C4 5.23122 5.23122 4 6.75 4H17.25C18.7688 4 20 5.23122 20 6.75V17.25C20 18.7688 18.7688 20 17.25 20H6.75C5.23122 20 4 18.7688 4 17.25V6.75ZM6.75 5.5C6.05964 5.5 5.5 6.05964 5.5 6.75V17.25C5.5 17.9404 6.05964 18.5 6.75 18.5H17.25C17.9404 18.5 18.5 17.9404 18.5 17.25V6.75C18.5 6.05964 17.9404 5.5 17.25 5.5H6.75Z" fill="#7D8198"/>
</svg>
