<svg width="24" height="24" viewBox="0 0 24 24" fill="none" xmlns="http://www.w3.org/2000/svg">
<path fill-rule="evenodd" clip-rule="evenodd" d="M16.7735 4.0456C16.4806 3.7527 16.0058 3.7527 15.7129 4.0456L13.7049 6.05352C13.6735 6.04772 13.6406 6.04187 13.6063 6.03601C13.2829 5.98086 12.8293 5.92482 12.2999 5.91974C11.2501 5.90967 9.84272 6.09992 8.57423 6.95955C7.74432 7.52196 7.18843 8.56869 6.79583 9.63759C6.39096 10.7399 6.10611 12.0196 5.90496 13.2171C5.703 14.4194 5.58134 15.5639 5.5101 16.4061C5.47442 16.8279 5.45126 17.1754 5.43699 17.4183C5.42985 17.5398 5.42492 17.6352 5.42176 17.7008L5.41829 17.7764L5.41743 17.7965L5.41713 17.8041C5.40903 18.0129 5.48843 18.216 5.63621 18.3638C5.78399 18.5116 5.98754 18.591 6.19638 18.5829L6.19797 18.5828L6.20347 18.5826L6.2236 18.5817L6.29917 18.5783C6.36477 18.5751 6.46021 18.5702 6.58171 18.5631C6.82464 18.5488 7.17216 18.5256 7.59393 18.49C8.43614 18.4188 9.58077 18.2972 10.7831 18.0953C11.9807 17.8942 13.2604 17.6094 14.3628 17.2046C15.4317 16.812 16.4785 16.2562 17.0409 15.4263C17.9006 14.1577 18.0909 12.7503 18.0808 11.7006C18.0757 11.1712 18.0197 10.7176 17.9646 10.3943C17.9587 10.36 17.9528 10.3271 17.9471 10.2956L19.955 8.2877C20.2479 7.99481 20.2479 7.51993 19.955 7.22704L16.7735 4.0456ZM6.16655 17.8335C5.41712 17.8044 5.41713 17.8041 5.41713 17.8041L6.16655 17.8335ZM6.19638 18.5829C6.19638 18.5829 6.19557 18.5829 6.16655 17.8335L6.19638 18.5829ZM13.7413 7.5958L13.7426 7.59617C14.0035 7.66934 14.2837 7.59605 14.4754 7.40435L16.2432 5.63659L18.364 7.75737L16.5962 9.52514C16.4043 9.71708 16.3312 9.99835 16.4048 10.2596L16.4088 10.2745C16.4126 10.2894 16.4188 10.3139 16.4265 10.3473C16.4419 10.4141 16.4636 10.5159 16.4859 10.6465C16.5306 10.9085 16.5767 11.2811 16.5809 11.715C16.5893 12.5918 16.4263 13.6594 15.7992 14.5848C15.5157 15.0031 14.8579 15.4248 13.8457 15.7965C12.8669 16.156 11.689 16.4222 10.5347 16.616C9.67122 16.761 8.83486 16.8633 8.12626 16.9344L11.235 13.8257C11.9631 14.1342 12.8368 13.9917 13.4303 13.3982C14.2113 12.6171 14.2113 11.3508 13.4303 10.5697C12.6492 9.78868 11.3829 9.78868 10.6019 10.5697C10.0084 11.1632 9.86585 12.037 10.1743 12.765L7.06573 15.8736C7.13692 15.1651 7.23921 14.3289 7.38423 13.4656C7.57812 12.3113 7.84435 11.1335 8.20385 10.1548C8.57562 9.14261 8.9974 8.48476 9.41572 8.20127C10.341 7.57422 11.4087 7.41126 12.2855 7.41967C12.7194 7.42384 13.092 7.46995 13.354 7.51465C13.4846 7.53693 13.5865 7.55863 13.6533 7.57409C13.6867 7.58181 13.7112 7.58795 13.7261 7.5918L13.7413 7.5958Z" fill="#7D8198"/>
</svg>
