<svg width="24" height="24" viewBox="0 0 24 24" fill="none" xmlns="http://www.w3.org/2000/svg">
<path d="M12.75 3.75C12.75 3.33579 12.4142 3 12 3C11.5858 3 11.25 3.33579 11.25 3.75V5.25291C11.25 5.66712 11.5858 6.00291 12 6.00291C12.4142 6.00291 12.75 5.66712 12.75 5.25291V3.75Z" fill="#7D8198"/>
<path fill-rule="evenodd" clip-rule="evenodd" d="M10.4715 8.90224C9.50127 8.58856 8.5839 9.50594 8.89757 10.4762L12.0207 20.1361C12.3652 21.2016 13.8291 21.3114 14.3288 20.3093L16.3169 16.3216L20.3046 14.3334C21.3068 13.8338 21.1969 12.3699 20.1314 12.0254L10.4715 8.90224ZM13.2596 19.092L10.4752 10.4799L19.0873 13.2643L15.5728 15.0165C15.3298 15.1376 15.1329 15.3345 15.0118 15.5774L13.2596 19.092Z" fill="#7D8198"/>
<path d="M18.3625 5.6314C18.6554 5.9243 18.6554 6.39917 18.3625 6.69206L17.2997 7.75478C17.0069 8.04767 16.532 8.04767 16.2391 7.75478C15.9462 7.46189 15.9462 6.98701 16.2391 6.69412L17.3018 5.6314C17.5947 5.33851 18.0696 5.33851 18.3625 5.6314Z" fill="#7D8198"/>
<path d="M7.75797 17.3014C8.05086 17.0085 8.05086 16.5337 7.75797 16.2408C7.46508 15.9479 6.9902 15.9479 6.69731 16.2408L5.63459 17.3035C5.3417 17.5964 5.3417 18.0713 5.63459 18.3642C5.92749 18.657 6.40236 18.657 6.69525 18.3642L7.75797 17.3014Z" fill="#7D8198"/>
<path d="M6.00248 12C6.00248 12.4142 5.66669 12.75 5.25248 12.75H3.74957C3.33536 12.75 2.99957 12.4142 2.99957 12C2.99957 11.5858 3.33536 11.25 3.74957 11.25H5.25248C5.66669 11.25 6.00248 11.5858 6.00248 12Z" fill="#7D8198"/>
<path d="M6.69137 5.6352C6.39848 5.3423 5.9236 5.3423 5.63071 5.6352C5.33782 5.92809 5.33782 6.40296 5.63071 6.69586L6.69343 7.75857C6.98632 8.05147 7.46119 8.05147 7.75409 7.75857C8.04698 7.46568 8.04698 6.99081 7.75409 6.69791L6.69137 5.6352Z" fill="#7D8198"/>
</svg>
