<svg width="24" height="24" viewBox="0 0 24 24" fill="none" xmlns="http://www.w3.org/2000/svg">
<path d="M11.9988 2.99927C12.2074 2.99923 12.4065 3.08606 12.5485 3.23889L15.7996 6.73963C16.0814 7.04314 16.0639 7.51769 15.7604 7.79956C15.4569 8.08143 14.9823 8.06389 14.7004 7.76037L12.7489 5.65899L12.7489 18.3403L14.7007 16.2411C14.9828 15.9377 15.4574 15.9205 15.7607 16.2025C16.0641 16.4846 16.0813 16.9592 15.7993 17.2625L12.5482 20.759C12.4062 20.9116 12.2072 20.9983 11.9988 20.9983C11.7904 20.9983 11.5913 20.9115 11.4495 20.7588L8.20058 17.2623C7.91862 16.9589 7.93604 16.4843 8.23948 16.2024C8.54292 15.9204 9.01748 15.9378 9.29943 16.2413L11.2489 18.3393L11.2489 5.65994L9.29974 7.76019C9.01797 8.0638 8.54342 8.0815 8.23982 7.79973C7.93621 7.51796 7.9185 7.04342 8.20027 6.73981L11.4492 3.23908C11.5911 3.0862 11.7902 2.9993 11.9988 2.99927Z" fill="#7D8198"/>
</svg>
