<svg width="24" height="25" viewBox="0 0 24 25" fill="none" xmlns="http://www.w3.org/2000/svg">
<path d="M4.75 14.49C5.16421 14.49 5.5 14.8258 5.5 15.24V17.74C5.5 18.4303 6.05964 18.99 6.75 18.99H9.25C9.66421 18.99 10 19.3258 10 19.74C10 20.1542 9.66421 20.49 9.25 20.49H6.75C5.23122 20.49 4 19.2588 4 17.74V15.24C4 14.8258 4.33579 14.49 4.75 14.49Z" fill="#7D8198"/>
<path d="M19.25 14.49C19.6642 14.49 20 14.8258 20 15.24V17.74C20 19.2588 18.7688 20.49 17.25 20.49H14.75C14.3358 20.49 14 20.1542 14 19.74C14 19.3258 14.3358 18.99 14.75 18.99H17.25C17.9404 18.99 18.5 18.4303 18.5 17.74V15.24C18.5 14.8258 18.8358 14.49 19.25 14.49Z" fill="#7D8198"/>
<path d="M9.25 4.48999C9.66421 4.48999 10 4.82578 10 5.23999C10 5.6542 9.66421 5.98999 9.25 5.98999H6.75C6.05964 5.98999 5.5 6.54963 5.5 7.23999V9.73999C5.5 10.1542 5.16421 10.49 4.75 10.49C4.33579 10.49 4 10.1542 4 9.73999V7.23999C4 5.72121 5.23122 4.48999 6.75 4.48999H9.25Z" fill="#7D8198"/>
<path d="M17.25 4.48999C18.7688 4.48999 20 5.72121 20 7.23999V9.73999C20 10.1542 19.6642 10.49 19.25 10.49C18.8358 10.49 18.5 10.1542 18.5 9.73999V7.23999C18.5 6.54963 17.9404 5.98999 17.25 5.98999H14.75C14.3358 5.98999 14 5.6542 14 5.23999C14 4.82578 14.3358 4.48999 14.75 4.48999H17.25Z" fill="#7D8198"/>
</svg>
