<svg width="24" height="24" viewBox="0 0 24 24" fill="none" xmlns="http://www.w3.org/2000/svg">
<path d="M16.2471 14.5C16.6612 14.5001 16.9971 14.8358 16.9971 15.25C16.9971 15.6642 16.6612 15.9999 16.2471 16H7.75C7.33579 16 7 15.6642 7 15.25C7 14.8358 7.33579 14.5 7.75 14.5H16.2471Z" fill="#7D8198"/>
<path d="M9 11C9.55228 11 10 11.4477 10 12C10 12.5523 9.55228 13 9 13C8.44772 13 8 12.5523 8 12C8 11.4477 8.44772 11 9 11Z" fill="#7D8198"/>
<path d="M12 11C12.5523 11 13 11.4477 13 12C13 12.5523 12.5523 13 12 13C11.4477 13 11 12.5523 11 12C11 11.4477 11.4477 11 12 11Z" fill="#7D8198"/>
<path d="M15 11C15.5523 11 16 11.4477 16 12C16 12.5523 15.5523 13 15 13C14.4477 13 14 12.5523 14 12C14 11.4477 14.4477 11 15 11Z" fill="#7D8198"/>
<path d="M7.5 8C8.05228 8 8.5 8.44772 8.5 9C8.5 9.55228 8.05228 10 7.5 10C6.94772 10 6.5 9.55228 6.5 9C6.5 8.44772 6.94772 8 7.5 8Z" fill="#7D8198"/>
<path d="M10.5 8C11.0523 8 11.5 8.44772 11.5 9C11.5 9.55228 11.0523 10 10.5 10C9.94772 10 9.5 9.55228 9.5 9C9.5 8.44772 9.94772 8 10.5 8Z" fill="#7D8198"/>
<path d="M13.5 8C14.0523 8 14.5 8.44772 14.5 9C14.5 9.55228 14.0523 10 13.5 10C12.9477 10 12.5 9.55228 12.5 9C12.5 8.44772 12.9477 8 13.5 8Z" fill="#7D8198"/>
<path d="M16.5 8C17.0523 8 17.5 8.44772 17.5 9C17.5 9.55228 17.0523 10 16.5 10C15.9477 10 15.5 9.55228 15.5 9C15.5 8.44772 15.9477 8 16.5 8Z" fill="#7D8198"/>
<path fill-rule="evenodd" clip-rule="evenodd" d="M18.25 4.99512C19.7687 4.99512 20.9999 6.22645 21 7.74512V16.2451C21 17.7639 19.7688 18.9951 18.25 18.9951H5.75C4.23122 18.9951 3 17.7639 3 16.2451V7.74512C3.00013 6.22645 4.2313 4.99512 5.75 4.99512H18.25ZM5.75 6.49512C5.05973 6.49512 4.50013 7.05487 4.5 7.74512V16.2451C4.5 16.9355 5.05964 17.4951 5.75 17.4951H18.25C18.9404 17.4951 19.5 16.9355 19.5 16.2451V7.74512C19.4999 7.05487 18.9403 6.49512 18.25 6.49512H5.75Z" fill="#7D8198"/>
</svg>
