<svg width="24" height="24" viewBox="0 0 24 24" fill="none" xmlns="http://www.w3.org/2000/svg">
<path d="M14.2954 11.25L13.2483 10.3075C12.9404 10.0304 12.9154 9.55614 13.1925 9.24826C13.4697 8.94039 13.9439 8.91545 14.2517 9.19255L16.7517 11.4427C16.9098 11.585 17 11.7876 17 12.0002C17 12.2128 16.9097 12.4154 16.7517 12.5577L14.2517 14.8075C13.9438 15.0846 13.4696 15.0596 13.1925 14.7517C12.9154 14.4438 12.9404 13.9696 13.2483 13.6925L14.2956 12.75H11.75C11.3358 12.75 11 12.4142 11 12C11 11.5858 11.3358 11.25 11.75 11.25H14.2954Z" fill="#7D8198"/>
<path d="M7.75 7C7.33579 7 7 7.33579 7 7.75V16.25C7 16.6642 7.33579 17 7.75 17H9.25C9.66421 17 10 16.6642 10 16.25V7.75C10 7.33579 9.66421 7 9.25 7H7.75Z" fill="#7D8198"/>
<path fill-rule="evenodd" clip-rule="evenodd" d="M4 6.75C4 5.23122 5.23122 4 6.75 4H17.25C18.7688 4 20 5.23122 20 6.75V17.25C20 18.7688 18.7688 20 17.25 20H6.75C5.23122 20 4 18.7688 4 17.25V6.75ZM6.75 5.5C6.05964 5.5 5.5 6.05964 5.5 6.75V17.25C5.5 17.9404 6.05964 18.5 6.75 18.5H17.25C17.9404 18.5 18.5 17.9404 18.5 17.25V6.75C18.5 6.05964 17.9404 5.5 17.25 5.5H6.75Z" fill="#7D8198"/>
</svg>
