<svg width="24" height="24" viewBox="0 0 24 24" fill="none" xmlns="http://www.w3.org/2000/svg">
<path d="M14.3407 11.25L12.2397 9.29967C11.9362 9.01786 11.9185 8.54332 12.2003 8.23974C12.4821 7.93617 12.9567 7.91852 13.2603 8.20033L16.7613 11.4503C16.9142 11.5922 17.001 11.7914 17.001 12C17.001 12.2086 16.9142 12.4078 16.7613 12.5497L13.2603 15.7997C12.9567 16.0815 12.4821 16.0638 12.2003 15.7603C11.9185 15.4567 11.9362 14.9821 12.2397 14.7003L14.3407 12.75H7.75C7.33579 12.75 7 12.4142 7 12C7 11.5858 7.33579 11.25 7.75 11.25H14.3407Z" fill="#7D8198"/>
<path fill-rule="evenodd" clip-rule="evenodd" d="M3 12C3 16.9706 7.02944 21 12 21C16.9706 21 21 16.9706 21 12C21 7.02944 16.9706 3 12 3C7.02944 3 3 7.02944 3 12ZM12 19.5C7.85786 19.5 4.5 16.1421 4.5 12C4.5 7.85786 7.85786 4.5 12 4.5C16.1421 4.5 19.5 7.85786 19.5 12C19.5 16.1421 16.1421 19.5 12 19.5Z" fill="#7D8198"/>
</svg>
