<svg width="24" height="24" viewBox="0 0 24 24" fill="none" xmlns="http://www.w3.org/2000/svg">
<path d="M17.7197 18.7803C18.0126 19.0732 18.4874 19.0732 18.7803 18.7803C19.0732 18.4874 19.0732 18.0126 18.7803 17.7197L15.5607 14.5L18.2499 14.5C18.6641 14.5 18.9999 14.1642 18.9999 13.75C18.9999 13.3358 18.6641 13 18.2499 13H13.7499C13.3357 13 12.9999 13.3358 12.9999 13.75V18.25C12.9999 18.6642 13.3357 19 13.7499 19C14.1641 19 14.4999 18.6642 14.4999 18.25V15.5606L17.7197 18.7803Z" fill="#7D8198"/>
<path d="M9.5 8.43935V5.75011C9.5 5.3359 9.83579 5.00011 10.25 5.00011C10.6642 5.00011 11 5.3359 11 5.75011L11 10.25C11 10.4489 10.921 10.6397 10.7803 10.7803C10.6397 10.921 10.4489 11 10.25 11H5.75C5.33579 11 5 10.6642 5 10.25C5 9.8358 5.33579 9.50001 5.75 9.50001H8.43935L5.21964 6.28033C4.92675 5.98744 4.92675 5.51257 5.21964 5.21967C5.51253 4.92678 5.9874 4.92678 6.2803 5.21967L9.5 8.43935Z" fill="#7D8198"/>
</svg>
