<svg width="24" height="24" viewBox="0 0 24 24" fill="none" xmlns="http://www.w3.org/2000/svg">
<path fill-rule="evenodd" clip-rule="evenodd" d="M12 3.25C7.16766 3.25 3.24999 7.16738 3.24999 11.9995C3.24999 13.4321 3.59771 14.7834 4.20859 15.9766L3.29464 19.2486L3.29457 19.2488L3.29451 19.249C3.0465 20.136 3.86352 20.9538 4.7512 20.7059L4.75158 20.7058L8.02586 19.7921C9.21823 20.4018 10.5686 20.7491 12 20.7491C16.8323 20.7491 20.75 16.8317 20.75 11.9995C20.75 7.16738 16.8323 3.25 12 3.25ZM4.74999 11.9995C4.74999 7.99589 7.996 4.75 12 4.75C16.004 4.75 19.25 7.99589 19.25 11.9995C19.25 16.0032 16.004 19.2491 12 19.2491C10.7214 19.2491 9.52243 18.9152 8.47871 18.3338C8.30608 18.2376 8.10248 18.2135 7.91214 18.2666L4.89086 19.1096L5.73423 16.0904C5.78746 15.8999 5.76324 15.696 5.66687 15.5232C5.08428 14.4789 4.74999 13.2792 4.74999 11.9995ZM8.74997 13C9.30225 13 9.74997 12.5523 9.74997 12C9.74997 11.4477 9.30225 11 8.74997 11C8.19768 11 7.74997 11.4477 7.74997 12C7.74997 12.5523 8.19768 13 8.74997 13ZM13 12C13 12.5523 12.5523 13 12 13C11.4477 13 11 12.5523 11 12C11 11.4477 11.4477 11 12 11C12.5523 11 13 11.4477 13 12ZM15.25 13C15.8023 13 16.25 12.5523 16.25 12C16.25 11.4477 15.8023 11 15.25 11C14.6977 11 14.25 11.4477 14.25 12C14.25 12.5523 14.6977 13 15.25 13Z" fill="#5B53FF"/>
</svg>
