<svg width="24" height="24" viewBox="0 0 24 24" fill="none" xmlns="http://www.w3.org/2000/svg">
<path fill-rule="evenodd" clip-rule="evenodd" d="M18 7.48483L19.6913 8.52561C20.5046 9.0261 21 9.9127 21 10.8677V17.2501C21 18.7689 19.7688 20.0001 18.25 20.0001H5.75C4.23122 20.0001 3 18.7689 3 17.2501V10.8677C3 9.9127 3.49543 9.0261 4.30873 8.52561L6 7.48483V5.75024C6 4.78334 6.78433 4.00024 7.75042 4.00024H16.25C17.2165 4.00024 18 4.78375 18 5.75024V7.48483ZM7.5 5.75024V11.127L11.3852 13.3358C11.7685 13.5537 12.2381 13.5536 12.6212 13.3356L16.5 11.1286V5.75024C16.5 5.61217 16.3881 5.50024 16.25 5.50024L7.75042 5.50024C7.61194 5.50024 7.5 5.61258 7.5 5.75024ZM6 9.2461V10.2743L5.13154 9.78054L6 9.2461ZM4.5 11.147L4.5 17.2501C4.5 17.9404 5.05964 18.5001 5.75 18.5001H18.25C18.9404 18.5001 19.5 17.9404 19.5 17.2501V11.1474L13.363 14.6393C12.5201 15.1189 11.487 15.1191 10.6439 14.6398L4.5 11.147ZM18.8688 9.78073L18 9.2461V10.2751L18.8688 9.78073Z" fill="#7D8198"/>
</svg>
