<svg width="24" height="24" viewBox="0 0 24 24" fill="none" xmlns="http://www.w3.org/2000/svg">
<path fill-rule="evenodd" clip-rule="evenodd" d="M13.8788 3.09346C12.3413 2.68175 10.7746 3.65005 10.4564 5.20865L10.0916 6.99542L6.57893 6.05483C5.64475 5.80468 4.68453 6.3587 4.43422 7.29227L4.0913 8.57119C3.84099 9.50476 4.39537 10.4643 5.32955 10.7145L5.59151 10.7846C5.55909 10.8606 5.53165 10.9397 5.50968 11.0216L4.06403 16.4133C3.81092 17.3573 4.38054 18.3255 5.32904 18.5635L14.7984 20.9397C16.0794 21.2612 17.2178 20.1162 16.9785 18.8619C16.7551 17.6906 16.5101 16.1411 16.4946 14.9504C16.487 14.3674 16.5373 13.9616 16.6168 13.737L16.7015 13.7596C16.7014 13.7596 16.7015 13.7597 16.7015 13.7596L17.4562 13.9617C18.3904 14.2118 19.3506 13.6578 19.6009 12.7242L19.9438 11.4453C20.1941 10.5118 19.6397 9.55216 18.7055 9.30202L15.2065 8.36505L15.7845 6.63539C16.2887 5.1266 15.4164 3.50517 13.8788 3.09346ZM11.9271 5.50852C12.0724 4.79659 12.7881 4.35429 13.4904 4.54235C14.1927 4.73041 14.5911 5.47104 14.3608 6.16022L13.5302 8.64568C13.4646 8.84182 13.483 9.0563 13.581 9.23843C13.679 9.42057 13.8479 9.55418 14.0478 9.60771L18.3171 10.7509C18.4505 10.7866 18.5297 10.9237 18.494 11.0571L18.151 12.336C18.1153 12.4694 17.9781 12.5485 17.8447 12.5128L5.71804 9.2656C5.58458 9.22987 5.50538 9.09279 5.54114 8.95942L5.88406 7.68049C5.91981 7.54713 6.05699 7.46798 6.19044 7.50372L10.4733 8.65055C10.6731 8.70407 10.8863 8.67274 11.0623 8.56397C11.2382 8.45521 11.3615 8.27865 11.4029 8.07604L11.9271 5.50852ZM15.164 19.4849C15.3398 19.529 15.5461 19.3629 15.5041 19.1427C15.2784 17.9595 15.0111 16.3006 14.9938 14.9699C14.9864 14.4069 15.0213 13.825 15.1654 13.3483L7.26041 11.2316C7.13234 11.1973 6.99673 11.2711 6.95952 11.4098L5.51387 16.8015C5.47771 16.9364 5.55909 17.0747 5.69459 17.1087L7.98596 17.6837C8.25187 16.3536 8.85001 13.828 9.5284 14.0097C9.88453 14.105 9.90777 14.6136 9.94049 15.3294C9.97859 16.1631 10.0295 17.2778 10.6341 18.3482L15.164 19.4849Z" fill="#7D8198"/>
</svg>
