<svg width="24" height="24" viewBox="0 0 24 24" fill="none" xmlns="http://www.w3.org/2000/svg">
<path fill-rule="evenodd" clip-rule="evenodd" d="M6.5 7.753C6.5 6.79588 7.53238 6.19412 8.36566 6.66554L15.875 10.9138C16.7211 11.3924 16.7207 12.611 15.8743 13.0891L8.36492 17.3305C7.53164 17.8012 6.5 17.2067 6.5 16.25V7.753ZM9.10446 5.36058C7.27122 4.32348 5 5.64734 5 7.753V16.25C5 18.3548 7.2696 19.6714 9.10282 18.636L16.6122 14.3946C16.9827 14.1853 17.2796 13.9115 17.5027 13.5988V18.2503C17.5027 18.6643 17.8385 19 18.2527 19C18.667 19 19.0027 18.6643 19.0027 18.2503V5.75495C19.0027 5.3409 18.667 5 18.2527 5C17.8385 5 17.5027 5.3409 17.5027 5.75495V10.4037C17.2799 10.0915 16.9836 9.81802 16.6138 9.60881L9.10446 5.36058Z" fill="#7D8198"/>
</svg>
