<svg fill="none" height="24" viewBox="0 0 24 24" width="24" xmlns="http://www.w3.org/2000/svg"><g fill="#7d8198"><path d="m13.4961 3c.276.00013.5.22394.5.5v2.2002c0 .18454-.1019.35446-.2647.4414l-.9814.52246v13.58594c0 .4142-.3358.75-.75.75s-.75-.3358-.75-.75v-13.58008l-.9893-.52832c-.1627-.0869-.2645-.256-.26461-.44043v-2.20117c0-.27614.22391-.5.50001-.5z"/><path d="m9.38574 15.0039c.37804.0386.67286.3579.67286.7461s-.29482.7075-.67286.7461l-.07715.0039h-3.80957c-.55159 0-.99902.4474-.99902.999.00015.5515.44752.9981.99902.9981h3.80957l.07715.0039c.37792.0385.67266.358.67286.7461 0 .3882-.29485.7075-.67286.7461l-.07715.0039h-3.80957c-1.37993 0-2.49887-1.1182-2.49902-2.4981 0-1.38 1.119-2.499 2.49902-2.499h3.80957z"/><path d="m15.501 15c1.38 0 2.499 1.119 2.499 2.499-.0001 1.3799-1.1191 2.4981-2.499 2.4981h-.6211c-.4142 0-.75-.3358-.75-.75.0002-.414.3359-.75.75-.75h.6211c.5515 0 .9989-.4466.999-.9981 0-.5516-.4474-.999-.999-.999h-.6211c-.4142 0-.75-.3358-.75-.75s.3358-.75.75-.75z"/><path d="m9.12012 8c.41421 0 .75.33579.75.75s-.33579.75-.75.75h-.62012l-.10254.00488c-.50413.05133-.89746.47744-.89746.99512 0 .5177.39333.9438.89746.9951l.10254.0049h.62012c.41421 0 .75.3358.75.75s-.33579.75-.75.75h-.62012l-.25586-.0127c-1.26053-.1281-2.24414-1.193-2.24414-2.4873 0-1.38071 1.11929-2.5 2.5-2.5z"/><path d="m18.5 8c1.3807 0 2.5 1.11929 2.5 2.5 0 1.3807-1.1193 2.5-2.5 2.5h-3.8086l-.0771-.0039c-.3781-.0386-.6729-.3579-.6729-.7461s.2948-.7075.6729-.7461l.0771-.0039h3.8086c.5523 0 1-.4477 1-1 0-.55228-.4477-1-1-1h-3.8086l-.0771-.00391c-.3781-.03856-.6729-.35788-.6729-.74609s.2948-.70753.6729-.74609l.0771-.00391z"/></g></svg>