<svg width="24" height="24" viewBox="0 0 24 24" fill="none" xmlns="http://www.w3.org/2000/svg">
<path d="M17 11C17 12.6569 15.6569 14 14 14C13.1515 14 12.3853 13.6478 11.8396 13.0816C11.3384 12.5613 11.0417 11.8777 11.0041 11.1563C10.9664 10.4349 11.1904 9.72417 11.6347 9.15462C12.1838 8.45187 13.0391 8 14 8C15.6569 8 17 9.34315 17 11Z" fill="#7D8198"/>
<path d="M9.50612 11.2345C9.46634 10.4724 9.62121 9.71812 9.94915 9.04024C9.80344 9.0138 9.65333 9 9.5 9C8.11929 9 7 10.1193 7 11.5C7 12.8807 8.11929 14 9.5 14C9.84717 14 10.1778 13.9292 10.4783 13.8013C9.89703 13.0707 9.55515 12.174 9.50612 11.2345Z" fill="#7D8198"/>
<path fill-rule="evenodd" clip-rule="evenodd" d="M6.75 4C5.23122 4 4 5.23122 4 6.75V17.25C4 18.7688 5.23122 20 6.75 20H17.25C18.7688 20 20 18.7688 20 17.25V6.75C20 5.23122 18.7688 4 17.25 4H6.75ZM5.5 6.75C5.5 6.05964 6.05964 5.5 6.75 5.5H17.25C17.9404 5.5 18.5 6.05964 18.5 6.75V17.25C18.5 17.2521 18.5 17.2543 18.5 17.2564C18.2588 16.8579 17.9343 16.4906 17.5355 16.1716C16.5979 15.4214 15.3261 15 14 15C13.305 15 12.6249 15.1158 12 15.3339C11.309 15.5752 10.6951 15.9383 10.2043 16.3962C9.71044 16.8569 9.35415 17.4015 9.16235 17.9886C9.06933 18.2734 8.8221 18.4646 8.54343 18.5H8.35572C8.30926 18.4941 8.26269 18.4837 8.21653 18.4687C7.82279 18.34 7.60787 17.9166 7.7365 17.5228C8.01425 16.6726 8.51964 15.9164 9.18108 15.2994C9.28492 15.2025 9.39232 15.1093 9.503 15.0198C8.35944 15.1112 7.28427 15.5157 6.46447 16.1716C6.0657 16.4906 5.74125 16.8579 5.50002 17.2564C5.50001 17.2543 5.5 17.2521 5.5 17.25V6.75Z" fill="#7D8198"/>
</svg>
