<svg width="24" height="24" viewBox="0 0 24 24" fill="none" xmlns="http://www.w3.org/2000/svg">
<path fill-rule="evenodd" clip-rule="evenodd" d="M4.8932 17.4998H14.1092L9.49801 9.94372L4.8932 17.4998ZM3.14971 17.4792L8.64428 8.46315C9.0337 7.82414 9.961 7.82385 10.3508 8.46262L15.8531 17.4787C16.2597 18.145 15.7803 18.9998 14.9999 18.9998H4.00315C3.22303 18.9998 2.7436 18.1456 3.14971 17.4792Z" fill="#7D8198"/>
<path fill-rule="evenodd" clip-rule="evenodd" d="M10.9774 18.9999C10.9854 19 10.9933 19.0001 11.0013 19.0001L20.0009 19C20.7921 19 21.2697 18.1238 20.8411 17.4584L16.3357 10.4635C15.9418 9.85194 15.0478 9.85244 14.6547 10.4644L13.0739 12.9248L13.9422 14.3475L15.496 11.929L19.0843 17.5001L15.8657 17.5001C16.2495 18.1632 15.772 18.9998 14.9999 18.9998L10.9774 18.9999Z" fill="#7D8198"/>
<path d="M17.9933 6.5C17.9933 7.32843 17.322 8 16.494 8C15.6659 8 14.9946 7.32843 14.9946 6.5C14.9946 5.67157 15.6659 5 16.494 5C17.322 5 17.9933 5.67157 17.9933 6.5Z" fill="#7D8198"/>
</svg>
