<svg width="24" height="24" viewBox="0 0 24 24" fill="none" xmlns="http://www.w3.org/2000/svg">
<path fill-rule="evenodd" clip-rule="evenodd" d="M9.86097 7.47812C9.64393 7.62918 9.4374 7.79616 9.24318 7.97807C8.58303 8.59636 8.08556 9.36792 7.79482 10.2244C7.50409 11.0809 7.42906 11.9958 7.5764 12.8882C7.72374 13.7806 8.08888 14.6229 8.63949 15.3405C9.19011 16.0581 9.90919 16.6288 10.733 17.0021C11.5569 17.3754 12.4601 17.5397 13.3627 17.4805C14.2652 17.4214 15.1392 17.1406 15.9073 16.6629C16.1359 16.5208 16.3529 16.3626 16.557 16.1898C12.0451 16.2747 8.60661 11.8112 9.86097 7.47812ZM11.024 5.27788C11.7593 5.06116 12.3232 5.8702 11.9389 6.48449C9.31811 10.6746 13.3095 15.8799 18.0501 14.4444C18.7375 14.2362 19.3783 14.9837 18.9767 15.6412C18.4076 16.5729 17.6279 17.3593 16.6994 17.9367C15.7218 18.5446 14.6095 18.902 13.4608 18.9773C12.3121 19.0526 11.1625 18.8435 10.114 18.3684C9.06544 17.8933 8.15024 17.1669 7.44947 16.2536C6.74868 15.3404 6.28395 14.2684 6.09644 13.1326C5.90892 11.9968 6.0044 10.8323 6.37443 9.74224C6.74445 8.65218 7.3776 7.67019 8.21779 6.88327C9.01569 6.13596 9.97691 5.58648 11.024 5.27788Z" fill="#7D8198"/>
</svg>
