<svg width="24" height="24" viewBox="0 0 24 24" fill="none" xmlns="http://www.w3.org/2000/svg">
<path d="M13.5 8.75489C13.5 8.47102 13.3397 8.21148 13.0859 8.08433C12.8321 7.95718 12.5283 7.98422 12.3009 8.15419L10.3009 9.6493C9.96916 9.89731 9.90127 10.3673 10.1493 10.6991C10.3973 11.0308 10.8673 11.0987 11.199 10.8507L12 10.252V15.25C12 15.6642 12.3358 16 12.75 16C13.1642 16 13.5 15.6642 13.5 15.25V8.75489Z" fill="#7D8198"/>
<path fill-rule="evenodd" clip-rule="evenodd" d="M6.75 4C5.23122 4 4 5.23122 4 6.75V17.25C4 18.7688 5.23122 20 6.75 20H17.25C18.7688 20 20 18.7688 20 17.25V6.75C20 5.23122 18.7688 4 17.25 4H6.75ZM5.5 6.75C5.5 6.05964 6.05964 5.5 6.75 5.5H17.25C17.9404 5.5 18.5 6.05964 18.5 6.75V17.25C18.5 17.9404 17.9404 18.5 17.25 18.5H6.75C6.05964 18.5 5.5 17.9404 5.5 17.25V6.75Z" fill="#7D8198"/>
</svg>
