<svg width="24" height="24" viewBox="0 0 24 24" fill="none" xmlns="http://www.w3.org/2000/svg">
<path d="M17 8.24931C17.0004 8.66352 16.6649 8.99962 16.2507 9L14.7507 9.00138C14.3365 9.00176 14.0004 8.66628 14 8.25207C13.9996 7.83786 14.3351 7.50176 14.7493 7.50138L16.2493 7.5C16.6635 7.49962 16.9996 7.8351 17 8.24931Z" fill="#7D8198"/>
<path d="M13.9999 10.75C13.9999 10.3358 14.3357 10 14.7499 10H16.25C16.6642 10 17 10.3358 17 10.75C17 11.1642 16.6642 11.5 16.25 11.5H14.7499C14.3357 11.5 13.9999 11.1642 13.9999 10.75Z" fill="#7D8198"/>
<path d="M14.7499 12.5C14.3357 12.5 13.9999 12.8358 13.9999 13.25C13.9999 13.6642 14.3357 14 14.7499 14H16.25C16.6642 14 17 13.6642 17 13.25C17 12.8358 16.6642 12.5 16.25 12.5H14.7499Z" fill="#7D8198"/>
<path d="M7 15.7532C7.00001 15.3389 7.33581 15.0032 7.75002 15.0032L16.25 15.0034C16.6642 15.0034 17 15.3392 17 15.7534C17 16.1676 16.6642 16.5034 16.25 16.5034L7.74998 16.5032C7.33577 16.5032 6.99999 16.1674 7 15.7532Z" fill="#7D8198"/>
<path d="M7 8.25C7 7.83579 7.33579 7.5 7.75 7.5H12.25C12.6642 7.5 13 7.83579 13 8.25C13 8.66421 12.6642 9 12.25 9H10.75L10.75 13.25C10.75 13.6642 10.4142 14 10 14C9.58579 14 9.25 13.6642 9.25 13.25L9.25 9H7.75C7.33579 9 7 8.66421 7 8.25Z" fill="#7D8198"/>
<path fill-rule="evenodd" clip-rule="evenodd" d="M6.75 4C5.23122 4 4 5.23122 4 6.75V17.25C4 18.7688 5.23122 20 6.75 20H17.25C18.7688 20 20 18.7688 20 17.25V6.75C20 5.23122 18.7688 4 17.25 4H6.75ZM5.5 6.75C5.5 6.05964 6.05964 5.5 6.75 5.5H17.25C17.9404 5.5 18.5 6.05964 18.5 6.75V17.25C18.5 17.9404 17.9404 18.5 17.25 18.5H6.75C6.05964 18.5 5.5 17.9404 5.5 17.25V6.75Z" fill="#7D8198"/>
</svg>
