<svg width="24" height="24" viewBox="0 0 24 24" fill="none" xmlns="http://www.w3.org/2000/svg">
<path d="M9.22923 5.02848C10.7905 4.40798 12.5148 4.32949 14.126 4.80559C15.2419 5.13535 16.2588 5.71796 17.1019 6.5H15.75C15.3358 6.5 15 6.83579 15 7.25C15 7.66421 15.3358 8 15.75 8H19.25C19.4489 8 19.6397 7.92098 19.7803 7.78033C19.921 7.63968 20 7.44891 20 7.25L20 3.75C20 3.33578 19.6642 3 19.25 3C18.8358 3 18.5 3.33579 18.5 3.75L18.5 5.77219C17.4207 4.64578 16.0615 3.81342 14.5511 3.36708C12.6177 2.79578 10.5486 2.88997 8.67522 3.63454C6.80181 4.37912 5.23255 5.73098 4.21886 7.47354C3.20518 9.21609 2.80575 11.2485 3.08458 13.2451C3.3634 15.2416 4.30434 17.0868 5.75663 18.485C7.20892 19.8832 9.0885 20.7534 11.0942 20.9563C13.0999 21.1591 15.1157 20.6828 16.8185 19.6038C18.5214 18.5247 19.8127 16.9052 20.4856 15.0049C20.6239 14.6145 20.4195 14.1858 20.029 14.0476C19.6385 13.9093 19.2099 14.1138 19.0717 14.5042C18.5109 16.0879 17.4347 17.4375 16.0156 18.3367C14.5965 19.236 12.9167 19.6329 11.2452 19.4639C9.57365 19.2948 8.00726 18.5696 6.79697 17.4044C5.58667 16.2392 4.80252 14.7015 4.57016 13.0376C4.3378 11.3737 4.67067 9.67998 5.51544 8.22779C6.36021 6.77559 7.66799 5.64899 9.22923 5.02848Z" fill="#7D8198"/>
<path fill-rule="evenodd" clip-rule="evenodd" d="M9 9.25196C9 8.2758 10.0689 7.67634 10.9018 8.18536L15.4001 10.9344C16.1978 11.4218 16.1977 12.5804 15.3999 13.0677L10.9016 15.8156C10.0687 16.3244 9 15.7249 9 14.7489V9.25196ZM10.5 9.69773V14.3032L14.2688 12.0009L10.5 9.69773Z" fill="#7D8198"/>
</svg>
