<svg width="24" height="24" viewBox="0 0 24 24" fill="none" xmlns="http://www.w3.org/2000/svg">
<path fill-rule="evenodd" clip-rule="evenodd" d="M11.8964 5.63612C13.7514 3.78113 16.7589 3.78113 18.6139 5.63612C19.8474 6.86964 20.2598 8.61247 19.8544 10.1846C19.8305 10.2772 19.8038 10.3693 19.7742 10.4606C19.6467 10.8547 19.2239 11.0708 18.8298 10.9433C18.4357 10.8158 18.2196 10.3929 18.3471 9.99882C18.3673 9.9364 18.3856 9.87347 18.4019 9.81012C18.6802 8.73072 18.3962 7.53967 17.5533 6.69678C16.2841 5.42757 14.2263 5.42757 12.9571 6.69678L7.65376 12.0001C7.36087 12.293 6.88599 12.293 6.5931 12.0001C6.30021 11.7072 6.30021 11.2323 6.5931 10.9394L11.8964 5.63612ZM14.0177 9.5252C14.3106 9.8181 14.3106 10.293 14.0177 10.5859L8.18409 16.4195C7.5983 17.0053 7.5983 17.955 8.18409 18.5408C8.64078 18.9975 9.32023 19.0992 9.87606 18.8415C9.88711 18.8364 9.89811 18.8311 9.90906 18.8257C10.2804 18.6423 10.7302 18.7947 10.9136 19.1661C11.0971 19.5374 10.9447 19.9872 10.5733 20.1706C10.5513 20.1815 10.5291 20.1921 10.5069 20.2024C9.39849 20.7162 8.03931 20.5174 7.12343 19.6015C5.95186 18.4299 5.95186 16.5304 7.12343 15.3588L12.9571 9.5252C13.25 9.23231 13.7248 9.23231 14.0177 9.5252Z" fill="#7D8198"/>
<path fill-rule="evenodd" clip-rule="evenodd" d="M17.2606 13.1835C17.3264 12.9389 17.6735 12.9389 17.7393 13.1835L18.3073 15.2933C18.4911 15.9758 19.0242 16.5089 19.7067 16.6927L21.8165 17.2607C22.0611 17.3266 22.0611 17.6736 21.8165 17.7394L19.7067 18.3075C19.0242 18.4912 18.4911 19.0243 18.3073 19.7068L17.7393 21.8166C17.6735 22.0612 17.3264 22.0612 17.2606 21.8166L16.6926 19.7068C16.5088 19.0243 15.9757 18.4912 15.2932 18.3075L13.1834 17.7394C12.9388 17.6736 12.9388 17.3266 13.1834 17.2607L15.2932 16.6927C15.9757 16.5089 16.5088 15.9758 16.6926 15.2933L17.2606 13.1835Z" fill="#7D8198"/>
</svg>
