<svg width="24" height="24" viewBox="0 0 24 24" fill="none" xmlns="http://www.w3.org/2000/svg">
<path d="M12 17C12.5523 17 13 16.5523 13 16C13 15.4477 12.5523 15 12 15C11.4477 15 11 15.4477 11 16C11 16.5523 11.4477 17 12 17Z" fill="#7D8198"/>
<path fill-rule="evenodd" clip-rule="evenodd" d="M8.75 3C7.23122 3 6 4.23122 6 5.75V18.25C6 19.7688 7.23122 21 8.75 21H15.25C16.7688 21 18 19.7688 18 18.25V5.75C18 4.23122 16.7688 3 15.25 3H8.75ZM7.5 5.75C7.5 5.05964 8.05964 4.5 8.75 4.5H15.25C15.9404 4.5 16.5 5.05964 16.5 5.75V18.25C16.5 18.9404 15.9404 19.5 15.25 19.5H8.75C8.05964 19.5 7.5 18.9404 7.5 18.25V5.75Z" fill="#7D8198"/>
</svg>
