<svg width="24" height="24" viewBox="0 0 24 24" fill="none" xmlns="http://www.w3.org/2000/svg">
<path fill-rule="evenodd" clip-rule="evenodd" d="M14.9999 4.5C12.5146 4.5 10.4999 6.51472 10.4999 9C10.4999 9.29934 10.529 9.59114 10.5844 9.87296C10.6325 10.1181 10.5554 10.3712 10.3787 10.5478L5.4978 15.4287L5.49783 18.4914L7.49988 18.4976V17.25C7.49988 16.8358 7.83566 16.5 8.24988 16.5H9.49988V15.7535C9.49988 15.3393 9.83566 15.0035 10.2499 15.0035H11.4999V13.75C11.4999 13.4871 11.6375 13.2434 11.8627 13.1077C12.0879 12.9719 12.3677 12.964 12.6002 13.0868C13.1584 13.3817 14.1335 13.5 14.9999 13.5C17.4852 13.5 19.4999 11.4853 19.4999 9C19.4999 6.51472 17.4852 4.5 14.9999 4.5ZM10.9999 16.5035V17.25C10.9999 17.6642 10.6641 18 10.2499 18H8.99988V19.25C8.99988 19.4493 8.92054 19.6404 8.77938 19.7812C8.63822 19.9219 8.44685 20.0006 8.24753 20L4.74548 19.989C4.33219 19.9877 3.99783 19.6523 3.99783 19.239L3.9978 15.1181C3.9978 14.9192 4.07682 14.7284 4.21747 14.5877L9.04738 9.75787C9.01602 9.50939 8.99989 9.25642 8.99989 9C8.99989 5.68629 11.6862 3 14.9999 3C18.3136 3 20.9999 5.68629 20.9999 9C20.9999 12.3137 18.3136 15 14.9999 15C14.425 15 13.6908 14.9556 12.9999 14.7998V15.7535C12.9999 16.1677 12.6641 16.5035 12.2499 16.5035H10.9999Z" fill="#7D8198"/>
<path d="M17.0039 8.5C17.0039 9.32843 16.3323 10 15.5039 10C14.6755 10 14.0039 9.32843 14.0039 8.5C14.0039 7.67157 14.6755 7 15.5039 7C16.3323 7 17.0039 7.67157 17.0039 8.5Z" fill="#7D8198"/>
</svg>
