<svg width="24" height="24" viewBox="0 0 24 24" fill="none" xmlns="http://www.w3.org/2000/svg">
<path fill-rule="evenodd" clip-rule="evenodd" d="M16.5829 4.07941C16.8384 4.20596 17 4.46639 17 4.75147V19.25C17 19.5351 16.8384 19.7956 16.5829 19.9221C16.3274 20.0486 16.0222 20.0194 15.7955 19.8466L11.3565 16.4645C10.962 16.164 10.4794 16.0022 9.98355 16.0042L7.75724 16.0134C6.78792 16.0174 6 15.2328 6 14.2634V9.75C6 8.78351 6.7835 8.00001 7.75 8.00001H9.98765C10.4802 8.00001 10.9591 7.83839 11.3509 7.53997L15.7956 4.15482C16.0224 3.98209 16.3275 3.95287 16.5829 4.07941ZM15.5 6.26545L12.2598 8.73328C11.6067 9.23065 10.8085 9.5 9.98765 9.5H7.75C7.61193 9.5 7.5 9.61193 7.5 9.75V14.2634C7.5 14.4019 7.61256 14.514 7.75103 14.5134L9.97735 14.5042C10.8038 14.5008 11.6082 14.7705 12.2655 15.2713L15.5 17.7357V6.26545Z" fill="#7D8198"/>
</svg>
