<svg width="24" height="24" viewBox="0 0 24 24" fill="none" xmlns="http://www.w3.org/2000/svg">
<path fill-rule="evenodd" clip-rule="evenodd" d="M16.5 11C16.797 11.0001 17.0666 11.1755 17.1865 11.4473L20.9365 19.9434C21.1036 20.3222 20.9316 20.7654 20.5527 20.9326C20.1739 21.0997 19.7307 20.9277 19.5635 20.5488L18.2188 17.501H14.7783L13.4316 20.5488C13.2643 20.9277 12.8222 21.0989 12.4434 20.9316C12.0646 20.7642 11.8933 20.3222 12.0605 19.9434L15.8135 11.4473C15.9335 11.1756 16.203 11 16.5 11ZM15.4404 16.001H17.5566L16.499 13.6055L15.4404 16.001Z" fill="#7D8198"/>
<path d="M9.00391 3C9.4179 3.00026 9.75293 3.33595 9.75293 3.75V5.00195H14.25C14.6641 5.00195 14.9998 5.33794 15 5.75195C15 6.16617 14.6642 6.50195 14.25 6.50195H13C12.9992 8.58336 11.6489 10.7023 10.0625 12.25C9.61135 12.6901 9.12803 13.0934 8.63379 13.4502C9.51433 14.5084 10.5287 15.2412 11.4736 15.5371C11.8688 15.6608 12.0893 16.0814 11.9658 16.4766C11.8421 16.8717 11.4215 17.0922 11.0264 16.9688C9.68006 16.5473 8.38639 15.5457 7.34961 14.25C6.48767 14.7003 5.58357 15 4.75 15C4.33579 15 4 14.6642 4 14.25C4 13.8358 4.33579 13.5 4.75 13.5C5.21493 13.5 5.81355 13.3377 6.48828 13.0068C5.75185 11.776 5.21264 10.351 5.00684 8.85156C4.95077 8.44136 5.23822 8.06314 5.64844 8.00684C6.05864 7.95077 6.43686 8.23822 6.49316 8.64844C6.66894 9.92859 7.13286 11.1584 7.76953 12.2256C8.19543 11.9171 8.61771 11.565 9.01562 11.1768C10.4853 9.7429 11.4991 7.98888 11.5 6.50195H3.75C3.33579 6.50195 3 6.16617 3 5.75195C3.00023 5.33794 3.33593 5.00195 3.75 5.00195H8.25293V3.75C8.25293 3.33579 8.58969 3 9.00391 3Z" fill="#7D8198"/>
</svg>
