<svg width="24" height="24" viewBox="0 0 24 24" fill="none" xmlns="http://www.w3.org/2000/svg">
  <path d="M19.37 17.74h-.11c-.44 0-.83-.27-.99-.67L13.56 4.84c-.11-.28.09-.58.39-.58.3 0 .53-.28.53-.63s-.28-.63-.63-.63h-3.79c-.35 0-.63.28-.63.63s.42.63.53.63c.3 0 .5.28.39.58L5.75 17c-.16.4-.55.67-.99.67h-.11c-.35 0-.63.28-.63.63s.28.63.63.63h2.49c.35 0 .63-.28.63-.63s-.28-.63-.63-.63c-.1 0-.16-.06-.19-.1-.03-.04-.06-.12-.03-.21l.86-2.23h7.58l.86 2.23c.03.09 0 .17-.03.21-.03.04-.09.1-.19.1-.35 0-.63.28-.63.63s.28.63.63.63h3.33c.35 0 .63-.28.63-.63s-.28-.63-.63-.63zM8.28 13.95l3.3-8.56 3.3 8.56H8.28z" fill="#7D8198"/>
</svg>
