<svg width="24" height="24" viewBox="0 0 24 24" fill="none" xmlns="http://www.w3.org/2000/svg">
<path d="M6.5 3.75C6.5 3.33579 6.16421 3 5.75 3C5.33579 3 5 3.33579 5 3.75V7.25C5 8.76878 6.23122 10 7.75 10H16.25C17.7688 10 19 8.76878 19 7.25V3.75C19 3.33579 18.6642 3 18.25 3C17.8358 3 17.5 3.33579 17.5 3.75V7.25C17.5 7.94036 16.9404 8.5 16.25 8.5H7.75C7.05964 8.5 6.5 7.94036 6.5 7.25V3.75Z" fill="#7D8198"/>
<path fill-rule="evenodd" clip-rule="evenodd" d="M5 14.7507C5 13.2319 6.23122 12.0007 7.75 12.0007H12.2016C12.9079 12.0007 13.587 12.2724 14.0984 12.7595L18.1467 16.6158C18.6916 17.1349 19 17.8545 19 18.607V20.25C19 20.6642 18.6642 21 18.25 21C17.8358 21 17.5 20.6642 17.5 20.25V19H13.75C12.7835 19 12 18.2165 12 17.25V13.5007H7.75C7.05964 13.5007 6.5 14.0604 6.5 14.7507V20.25C6.5 20.6642 6.16421 21 5.75 21C5.33579 21 5 20.6642 5 20.25V14.7507ZM13.5 14.2612L16.9002 17.5H13.75C13.6119 17.5 13.5 17.3881 13.5 17.25V14.2612Z" fill="#7D8198"/>
</svg>
