<svg width="24" height="24" viewBox="0 0 24 24" fill="none" xmlns="http://www.w3.org/2000/svg">
<path fill-rule="evenodd" clip-rule="evenodd" d="M12 7C10.3431 7 9 8.34315 9 10C9 11.6569 10.3431 13 12 13C13.6569 13 15 11.6569 15 10C15 8.34315 13.6569 7 12 7ZM10.5 10C10.5 9.17157 11.1716 8.5 12 8.5C12.8284 8.5 13.5 9.17157 13.5 10C13.5 10.8284 12.8284 11.5 12 11.5C11.1716 11.5 10.5 10.8284 10.5 10Z" fill="#7D8198"/>
<path fill-rule="evenodd" clip-rule="evenodd" d="M3 12C3 15.1113 4.5788 17.8539 6.97896 19.4703C7.01387 19.4993 7.0507 19.5265 7.08938 19.5517C7.283 19.6779 7.57273 19.8528 7.94596 20.0374C9.16429 20.6531 10.5416 21 12 21C13.4583 21 14.8355 20.6532 16.0538 20.0375C16.4271 19.8528 16.717 19.678 16.9106 19.5517C16.9493 19.5265 16.9861 19.4993 17.0211 19.4703C19.4212 17.8539 21 15.1113 21 12C21 7.02944 16.9706 3 12 3C7.02944 3 3 7.02944 3 12ZM12 19.4995C10.5813 19.4995 9.41047 19.0831 8.64918 18.7117C8.46897 18.6215 8.29289 18.5243 8.12132 18.4205C8.27265 17.9815 8.5628 17.3292 9.07215 16.7546C9.66734 16.0832 10.5737 15.5 12 15.5C13.4263 15.5 14.3327 16.0832 14.9278 16.7546C15.4372 17.3292 15.7274 17.9815 15.8787 18.4205C15.7071 18.5243 15.531 18.6215 15.3508 18.7117C14.5895 19.0831 13.4187 19.4995 12 19.4995ZM7.94972 15.7596C7.43577 16.3393 7.09625 16.9648 6.87764 17.4783C5.41446 16.1096 4.5 14.1616 4.5 12C4.5 7.85786 7.85786 4.5 12 4.5C16.1421 4.5 19.5 7.85786 19.5 12C19.5 14.1616 18.5855 16.1096 17.1224 17.4783C16.9038 16.9648 16.5642 16.3393 16.0503 15.7596C15.2071 14.8085 13.9079 14 12 14C10.0921 14 8.79287 14.8085 7.94972 15.7596Z" fill="#7D8198"/>
</svg>
