<svg width="24" height="24" viewBox="0 0 24 24" fill="none" xmlns="http://www.w3.org/2000/svg">
<path d="M5.75 3C4.23122 3 3 4.23122 3 5.75V6.25C3 6.66421 3.33579 7 3.75 7C4.16421 7 4.5 6.66421 4.5 6.25V5.75C4.5 5.05964 5.05964 4.5 5.75 4.5H6.25C6.66421 4.5 7 4.16421 7 3.75C7 3.33579 6.66421 3 6.25 3H5.75Z" fill="#7D8198"/>
<path d="M21 5.75C21 4.23122 19.7688 3 18.25 3H17.75C17.3358 3 17 3.33579 17 3.75C17 4.16421 17.3358 4.5 17.75 4.5H18.25C18.9404 4.5 19.5 5.05964 19.5 5.75V6.25C19.5 6.66421 19.8358 7 20.25 7C20.6642 7 21 6.66421 21 6.25V5.75Z" fill="#7D8198"/>
<path d="M21 18.25C21 19.7688 19.7688 21 18.25 21H17.75C17.3358 21 17 20.6642 17 20.25C17 19.8358 17.3358 19.5 17.75 19.5H18.25C18.9404 19.5 19.5 18.9404 19.5 18.25V17.75C19.5 17.3358 19.8358 17 20.25 17C20.6642 17 21 17.3358 21 17.75V18.25Z" fill="#7D8198"/>
<path d="M3 18.25C3 19.7688 4.23122 21 5.75 21H6.25C6.66421 21 7 20.6642 7 20.25C7 19.8358 6.66421 19.5 6.25 19.5H5.75C5.05964 19.5 4.5 18.9404 4.5 18.25V17.75C4.5 17.3358 4.16421 17 3.75 17C3.33579 17 3 17.3358 3 17.75V18.25Z" fill="#7D8198"/>
<path d="M17.2495 16C16.8353 16 16.4995 15.6642 16.4995 15.25V13.6405L14.3194 12.1144C14.1189 11.9741 13.9995 11.7447 13.9995 11.5V5.75C13.9995 5.33579 14.3353 5 14.7495 5C15.1637 5 15.4995 5.33579 15.4995 5.75V11.1095L17.6796 12.6356C17.8801 12.7759 17.9995 13.0053 17.9995 13.25V15.25C17.9995 15.6642 17.6637 16 17.2495 16Z" fill="#7D8198"/>
<path d="M7.50244 8.75C7.50244 8.33579 7.16666 8 6.75244 8C6.33823 8 6.00244 8.33579 6.00244 8.75V10.75C6.00244 10.9946 6.12171 11.2238 6.32201 11.3642L8.49951 12.8902V18.25C8.49951 18.6642 8.8353 19 9.24951 19C9.66373 19 9.99951 18.6642 9.99951 18.25V12.5C9.99951 12.2554 9.88025 12.0262 9.67995 11.8858L7.50244 10.3598V8.75Z" fill="#7D8198"/>
<path d="M12 9C12.4142 9 12.75 9.33579 12.75 9.75V18.25C12.75 18.6642 12.4142 19 12 19C11.5858 19 11.25 18.6642 11.25 18.25V9.75C11.25 9.33579 11.5858 9 12 9Z" fill="#7D8198"/>
<path d="M15.5 14.7429C15.496 14.3287 15.1571 13.9961 14.7429 14C14.3287 14.004 13.9961 14.3429 14 14.7571L14.0332 18.257C14.0372 18.6712 14.3761 19.0038 14.7903 18.9999C15.2045 18.996 15.5371 18.657 15.5332 18.2428L15.5 14.7429Z" fill="#7D8198"/>
<path d="M9.24951 5C9.66373 5 9.99951 5.33579 9.99951 5.75V9.25C9.99951 9.66421 9.66373 10 9.24951 10C8.8353 10 8.49951 9.66421 8.49951 9.25V5.75C8.49951 5.33579 8.8353 5 9.24951 5Z" fill="#7D8198"/>
<path d="M12.75 5.75C12.75 5.33579 12.4142 5 12 5C11.5858 5 11.25 5.33579 11.25 5.75V7.25C11.25 7.66421 11.5858 8 12 8C12.4142 8 12.75 7.66421 12.75 7.25V5.75Z" fill="#7D8198"/>
<path d="M17.2498 8C17.664 8.00005 17.9998 8.33588 17.9997 8.7501L17.9995 10.2501C17.9995 10.6643 17.6636 11.0001 17.2494 11C16.8352 10.9999 16.4995 10.6641 16.4995 10.2499L16.4997 8.7499C16.4998 8.33569 16.8356 7.99995 17.2498 8Z" fill="#7D8198"/>
<path d="M7.50244 13.75C7.50244 13.3358 7.16666 13 6.75244 13C6.33823 13 6.00244 13.3358 6.00244 13.75L6.00244 15.25C6.00244 15.6642 6.33823 16 6.75244 16C7.16665 16 7.50244 15.6642 7.50244 15.25L7.50244 13.75Z" fill="#7D8198"/>
</svg>
