<svg width="24" height="24" viewBox="0 0 24 24" fill="none" xmlns="http://www.w3.org/2000/svg">
<path d="M4 13.25C4 14.7688 5.23122 16 6.75 16H7.25C7.66421 16 8 15.6642 8 15.25C8 14.8358 7.66421 14.5 7.25 14.5H6.75C6.05964 14.5 5.5 13.9404 5.5 13.25V6.75C5.5 6.05964 6.05964 5.5 6.75 5.5L17.25 5.5C17.9404 5.5 18.5 6.05964 18.5 6.75V13.25C18.5 13.9404 17.9404 14.5 17.25 14.5H16.75C16.3358 14.5 16 14.8358 16 15.25C16 15.6642 16.3358 16 16.75 16H17.25C18.7688 16 20 14.7688 20 13.25V6.75C20 5.23122 18.7688 4 17.25 4H6.75C5.23122 4 4 5.23122 4 6.75V13.25Z" fill="#7D8198"/>
<path d="M7.07423 19.5806C6.94816 19.3238 6.97909 19.0177 7.15398 18.7914L11.404 13.2914C11.546 13.1076 11.7652 13 11.9975 13C12.2297 13 12.4489 13.1076 12.5909 13.2914L16.8409 18.7914C17.0158 19.0177 17.0467 19.3238 16.9207 19.5806C16.7946 19.8373 16.5335 20 16.2474 20H7.74744C7.46142 20 7.2003 19.8373 7.07423 19.5806Z" fill="#7D8198"/>
</svg>
