<svg width="24" height="24" viewBox="0 0 24 24" fill="none" xmlns="http://www.w3.org/2000/svg">
<path fill-rule="evenodd" clip-rule="evenodd" d="M18.25 11C18.6642 11 19 10.6642 19 10.25C19 9.83579 18.6642 9.5 18.25 9.5H14.4999V5.75C14.4999 5.33579 14.1641 5 13.7499 5C13.3357 5 12.9999 5.33579 12.9999 5.75V10.25C12.9999 10.6642 13.3357 11 13.7499 11H18.25ZM5.75 13C5.33579 13 5 13.3358 5 13.75C5 14.1642 5.33579 14.5 5.75 14.5H9.50007V18.25C9.50007 18.6642 9.83585 19 10.2501 19C10.6643 19 11.0001 18.6642 11.0001 18.25V13.75C11.0001 13.3358 10.6643 13 10.2501 13H5.75Z" fill="#7D8198"/>
</svg>
