<svg width="24" height="24" viewBox="0 0 24 24" fill="none" xmlns="http://www.w3.org/2000/svg">
<path fill-rule="evenodd" clip-rule="evenodd" d="M15.8257 4.36384C15.338 3.87842 14.5497 3.87839 14.062 4.36378L6.91092 11.4811C6.4208 11.9689 6.41984 12.7619 6.90878 13.2509L7.1715 13.5136L5.14437 15.6461C4.84165 15.9646 5.06739 16.4906 5.50676 16.4906H7.79954C7.92593 16.4906 8.04764 16.4427 8.14017 16.3566L9.11092 15.4532L9.27853 15.6208C9.76672 16.1091 10.5583 16.109 11.0464 15.6207L18.1852 8.48009C18.674 7.99112 18.6731 7.19818 18.183 6.71041L15.8257 4.36384ZM13.6034 6.93653L14.9438 5.60249L16.9472 7.59675L15.6102 8.93413L13.6034 6.93653ZM12.5402 7.99468L8.14667 12.3675L10.1624 14.3834L14.5497 9.99494L12.5402 7.99468Z" fill="#7D8198"/>
<path d="M4.97353 18.1682C5.08014 18.0605 5.22539 17.9999 5.37692 17.9999H18C18.5523 17.9999 19 18.4476 19 18.9999C19 19.5522 18.5523 19.9999 18 19.9999H4.59857C4.06543 19.9999 3.79705 19.3565 4.17214 18.9777L4.97353 18.1682Z" fill="#7D8198"/>
</svg>
