<svg width="24" height="24" viewBox="0 0 24 24" fill="none" xmlns="http://www.w3.org/2000/svg">
<path d="M17 11.9993C17 12.5516 16.5523 12.9993 16 12.9993C15.4477 12.9993 15 12.5516 15 11.9993C15 11.447 15.4477 10.9993 16 10.9993C16.5523 10.9993 17 11.447 17 11.9993Z" fill="#7D8198"/>
<path fill-rule="evenodd" clip-rule="evenodd" d="M5.75 5C4.23122 5 3 6.23122 3 7.75V16.25C3 17.7688 4.23122 19 5.75 19H13.487C14.1627 19 14.8147 18.7513 15.3187 18.3012L20.0787 14.0507C21.3033 12.9572 21.3032 11.0414 20.0785 9.94803L15.3186 5.69857C14.8146 5.24866 14.1627 5 13.4871 5H5.75ZM4.5 7.75C4.5 7.05964 5.05964 6.5 5.75 6.5H13.4871C13.7942 6.5 14.0905 6.61303 14.3196 6.81753L19.0795 11.067C19.6362 11.564 19.6363 12.4348 19.0796 12.9318L14.3196 17.1824C14.0905 17.3869 13.7941 17.5 13.487 17.5H5.75C5.05964 17.5 4.5 16.9404 4.5 16.25V7.75Z" fill="#7D8198"/>
</svg>
