<svg width="24" height="24" viewBox="0 0 24 24" fill="none" xmlns="http://www.w3.org/2000/svg">
<path d="M5.75 3C4.23122 3 3 4.23122 3 5.75V6.25C3 6.66421 3.33579 7 3.75 7C4.16421 7 4.5 6.66421 4.5 6.25V5.75C4.5 5.05964 5.05964 4.5 5.75 4.5H6.25C6.66421 4.5 7 4.16421 7 3.75C7 3.33579 6.66421 3 6.25 3H5.75Z" fill="#7D8198"/>
<path d="M21 5.75C21 4.23122 19.7688 3 18.25 3H17.75C17.3358 3 17 3.33579 17 3.75C17 4.16421 17.3358 4.5 17.75 4.5H18.25C18.9404 4.5 19.5 5.05964 19.5 5.75V6.25C19.5 6.66421 19.8358 7 20.25 7C20.6642 7 21 6.66421 21 6.25V5.75Z" fill="#7D8198"/>
<path d="M21 18.25C21 19.7688 19.7688 21 18.25 21H17.75C17.3358 21 17 20.6642 17 20.25C17 19.8358 17.3358 19.5 17.75 19.5H18.25C18.9404 19.5 19.5 18.9404 19.5 18.25V17.75C19.5 17.3358 19.8358 17 20.25 17C20.6642 17 21 17.3358 21 17.75V18.25Z" fill="#7D8198"/>
<path d="M3 18.25C3 19.7688 4.23122 21 5.75 21H6.25C6.66421 21 7 20.6642 7 20.25C7 19.8358 6.66421 19.5 6.25 19.5H5.75C5.05964 19.5 4.5 18.9404 4.5 18.25V17.75C4.5 17.3358 4.16421 17 3.75 17C3.33579 17 3 17.3358 3 17.75V18.25Z" fill="#7D8198"/>
<path fill-rule="evenodd" clip-rule="evenodd" d="M12.0051 7C12.3159 7.0002 12.5944 7.19209 12.7052 7.48246L15.9509 15.9825C16.0987 16.3694 15.9047 16.8029 15.5178 16.9507C15.1308 17.0984 14.6973 16.9045 14.5496 16.5175L13.5883 14L10.412 14L9.44665 16.5184C9.29839 16.9052 8.86467 17.0986 8.47789 16.9503C8.09112 16.8021 7.89777 16.3683 8.04603 15.9816L11.3043 7.48155C11.4155 7.19133 11.6942 6.9998 12.0051 7ZM10.987 12.5L13.0155 12.5L12.0032 9.84893L10.987 12.5Z" fill="#7D8198"/>
</svg>
