<svg width="25" height="24" viewBox="0 0 25 24" fill="none" xmlns="http://www.w3.org/2000/svg">
<path fill-rule="evenodd" clip-rule="evenodd" d="M13.25 4C11.7312 4 10.5 5.23122 10.5 6.75V17.25C10.5 18.7688 11.7312 20 13.25 20H17.75C19.2688 20 20.5 18.7688 20.5 17.25V6.75C20.5 5.23122 19.2688 4 17.75 4H13.25ZM12 6.75C12 6.05964 12.5596 5.5 13.25 5.5H17.75C18.4404 5.5 19 6.05964 19 6.75V17.25C19 17.9404 18.4404 18.5 17.75 18.5H13.25C12.5596 18.5 12 17.9404 12 17.25V6.75Z" fill="#7D8198"/>
<path d="M3.99673 7.0441C3.69876 7.151 3.5 7.43348 3.5 7.75004V16.25C3.5 16.5666 3.69876 16.8491 3.99673 16.956C4.2947 17.0629 4.62771 16.9712 4.82895 16.7268L8.32895 12.4768C8.55702 12.1999 8.55702 11.8002 8.32895 11.5233L4.82895 7.27326C4.62771 7.02889 4.2947 6.9372 3.99673 7.0441Z" fill="#7D8198"/>
</svg>
