<svg width="24" height="25" viewBox="0 0 24 25" fill="none" xmlns="http://www.w3.org/2000/svg">
<path d="M8.6752 4.12502C10.5485 3.38055 12.618 3.28624 14.5512 3.85744C16.0621 4.30399 17.4209 5.13769 18.5004 6.26467V4.24025C18.5004 3.82604 18.8362 3.49025 19.2504 3.49025C19.6645 3.49043 20.0004 3.82615 20.0004 4.24025V7.74025C20.0003 7.93907 19.9212 8.12992 19.7807 8.27053C19.6401 8.41111 19.4492 8.49017 19.2504 8.49025H15.7504C15.3362 8.49025 15.0005 8.15438 15.0004 7.74025C15.0004 7.32604 15.3362 6.99025 15.7504 6.99025H17.102C16.2589 6.20831 15.2422 5.6257 14.1264 5.29592C12.5154 4.81987 10.791 4.89826 9.22989 5.51857C7.66874 6.13904 6.3608 7.26573 5.51602 8.71779C4.67133 10.1699 4.33847 11.8636 4.57071 13.5274C4.80311 15.1911 5.58709 16.7294 6.79727 17.8945C8.00752 19.0596 9.57414 19.7851 11.2455 19.9541C12.9169 20.1231 14.597 19.7264 16.016 18.8272C17.435 17.9279 18.5109 16.5777 19.0717 14.9942C19.21 14.6038 19.6393 14.3999 20.0297 14.5381C20.4197 14.6766 20.6239 15.1049 20.4857 15.4951C19.8128 17.3953 18.5215 19.0147 16.8188 20.0938C15.116 21.1728 13.0997 21.6491 11.0941 21.4463C9.08886 21.2434 7.20933 20.3734 5.75723 18.9756C4.30503 17.5775 3.36424 15.7318 3.08536 13.7354C2.80654 11.7388 3.20551 9.70642 4.21915 7.96388C5.23275 6.22146 6.80198 4.86963 8.6752 4.12502Z" fill="#7D8198"/>
</svg>
