<svg width="24" height="24" viewBox="0 0 24 24" fill="none" xmlns="http://www.w3.org/2000/svg">
<path fill-rule="evenodd" clip-rule="evenodd" d="M5.75 6.5C5.05964 6.5 4.5 7.05964 4.5 7.75V16.25C4.5 16.7518 4.79574 17.1846 5.22245 17.3835C5.24678 17.3529 5.27332 17.3231 5.30211 17.2942L10.2936 12.2844C10.6842 11.8923 11.3191 11.8922 11.7099 12.284L16.7073 17.2938C16.7717 17.3584 16.8248 17.4277 16.8674 17.5H18.2505C18.9408 17.5 19.5005 16.9404 19.5005 16.25V9.75C19.5005 9.05964 18.9408 8.5 18.2505 8.5H12.7604C12.0869 8.5 11.4368 8.25283 10.9334 7.80538L9.82006 6.81574C9.59124 6.61235 9.29574 6.5 8.9896 6.5H5.75ZM14.7943 17.5H7.2145L11.0022 13.6984L14.7943 17.5ZM5.75 19H18.2505C19.7693 19 21.0005 17.7688 21.0005 16.25V9.75C21.0005 8.23122 19.7693 7 18.2505 7H12.7604C12.4543 7 12.1588 6.88765 11.9299 6.68426L10.8166 5.69462C10.3132 5.24717 9.66312 5 8.9896 5H5.75C4.23122 5 3 6.23122 3 7.75V16.25C3 17.7688 4.23121 19 5.75 19ZM14 12C14.5523 12 15 11.5523 15 11C15 10.4477 14.5523 10 14 10C13.4477 10 13 10.4477 13 11C13 11.5523 13.4477 12 14 12Z" fill="#7D8198"/>
</svg>
