<svg width="24" height="24" viewBox="0 0 24 24" fill="none" xmlns="http://www.w3.org/2000/svg">
<path d="M10.7528 12.25C10.0624 12.25 9.50278 11.6904 9.50278 11V10.75C9.50278 10.3358 9.16699 10 8.75278 10C8.33856 10 8.00278 10.3358 8.00278 10.75V11C8.00278 12.5188 9.23399 13.75 10.7528 13.75H14.2978L13.2494 14.6922C12.9413 14.9691 12.9161 15.4433 13.1929 15.7513C13.4698 16.0594 13.944 16.0847 14.2521 15.8078L16.7556 13.5578C16.9138 13.4156 17.0042 13.2128 17.0042 13C17.0042 12.7872 16.9138 12.5844 16.7556 12.4422L14.2521 10.1922C13.944 9.9153 13.4698 9.94059 13.1929 10.2487C12.9161 10.5567 12.9414 11.0309 13.2494 11.3078L14.2978 12.25H10.7528Z" fill="#7D8198"/>
<path fill-rule="evenodd" clip-rule="evenodd" d="M6.75 5C5.23122 5 4 6.23122 4 7.75V16.25C4 17.7688 5.23121 19 6.75 19H18.2505C19.7693 19 21.0005 17.7688 21.0005 16.25V9.75C21.0005 8.23122 19.7693 7 18.2505 7H13.7604C13.4543 7 13.1588 6.88765 12.9299 6.68426L11.8166 5.69462C11.3132 5.24717 10.6631 5 9.9896 5H6.75ZM5.5 7.75C5.5 7.05964 6.05964 6.5 6.75 6.5H9.9896C10.2957 6.5 10.5912 6.61235 10.8201 6.81574L11.9334 7.80538C12.4368 8.25283 13.0869 8.5 13.7604 8.5H18.2505C18.9408 8.5 19.5005 9.05964 19.5005 9.75V16.25C19.5005 16.9404 18.9408 17.5 18.2505 17.5H6.75C6.05964 17.5 5.5 16.9404 5.5 16.25V7.75Z" fill="#7D8198"/>
</svg>
