<svg width="24" height="24" viewBox="0 0 24 24" fill="none" xmlns="http://www.w3.org/2000/svg">
<path d="M14.8075 13.2517C15.0846 12.9438 15.0596 12.4696 14.7517 12.1925C14.4438 11.9154 13.9696 11.9404 13.6925 12.2483L12.0002 14.1286L10.3093 12.2485C10.0323 11.9405 9.55811 11.9154 9.25012 12.1924C8.94214 12.4693 8.91701 12.9435 9.19399 13.2515L11.4423 15.7515C11.5845 15.9096 11.7872 16 11.9998 16C12.2125 16 12.4152 15.9098 12.5575 15.7517L14.8075 13.2517Z" fill="#7D8198"/>
<path d="M14.8075 9.25172C15.0056 9.03157 15.0556 8.71543 14.9351 8.44487C14.8146 8.17431 14.5462 8 14.25 8L9.74999 8C9.4538 8 9.18536 8.17431 9.06486 8.44487C8.94436 8.71543 8.99438 9.03157 9.19252 9.25172L11.4425 11.7517C11.5847 11.9098 11.7874 12 12 12C12.2126 12 12.4152 11.9098 12.5575 11.7517L14.8075 9.25172Z" fill="#7D8198"/>
<path fill-rule="evenodd" clip-rule="evenodd" d="M6.75195 4C5.23317 4 4.00195 5.23122 4.00195 6.75V17.25C4.00195 18.7688 5.23317 20 6.75195 20H17.252C18.7707 20 20.002 18.7688 20.002 17.25V6.75C20.002 5.23122 18.7707 4 17.252 4H6.75195ZM5.50195 6.75C5.50195 6.05964 6.0616 5.5 6.75195 5.5H17.252C17.9423 5.5 18.502 6.05964 18.502 6.75V17.25C18.502 17.9404 17.9423 18.5 17.252 18.5H6.75195C6.0616 18.5 5.50195 17.9404 5.50195 17.25V6.75Z" fill="#7D8198"/>
</svg>
