<svg width="24" height="24" viewBox="0 0 24 24" fill="none" xmlns="http://www.w3.org/2000/svg">
<path d="M12.2615 3.20041C11.9579 2.91856 11.4834 2.93613 11.2015 3.23966C10.9197 3.54319 10.9372 4.01774 11.2408 4.2996L13.3412 6.25H12.0011C8.27713 6.25 5.0011 9.19664 5.0011 13C5.0011 16.7642 8.23687 20 12.0011 20C15.7535 20 19 17.1759 19 12.753C19 12.3388 18.6643 12.003 18.25 12.003C17.8358 12.003 17.5 12.3388 17.5 12.753C17.5 16.3241 14.9487 18.5 12.0011 18.5C9.0653 18.5 6.5011 15.9358 6.5011 13C6.5011 10.1034 9.02503 7.75 12.0011 7.75H13.3412L11.2408 9.70041C10.9372 9.98226 10.9197 10.4568 11.2015 10.7603C11.4834 11.0639 11.9579 11.0814 12.2615 10.7996L15.7614 7.5496C15.9142 7.40769 16.0011 7.20855 16.0011 7C16.0011 6.79145 15.9142 6.59232 15.7614 6.45041L12.2615 3.20041Z" fill="#7D8198"/>
</svg>
