<svg width="24" height="24" viewBox="0 0 24 24" fill="none" xmlns="http://www.w3.org/2000/svg">
<path fill-rule="evenodd" clip-rule="evenodd" d="M13.5829 4.07941C13.8384 4.20596 14 4.46639 14 4.75147V19.25C14 19.5351 13.8384 19.7956 13.5829 19.9221C13.3274 20.0486 13.0222 20.0194 12.7955 19.8466L8.35646 16.4645C7.96204 16.164 7.49585 16.0022 7 16.0042L4.75 16C3.78068 16.004 3 15.2193 3 14.25V9.75C3 8.78351 3.7835 8.00001 4.75 8.00001H7C7.49253 8.00001 7.95911 7.83839 8.35093 7.53997L12.7956 4.15482C13.0224 3.98209 13.3275 3.95287 13.5829 4.07941ZM12.5 6.26545L9.25979 8.73328C8.60674 9.23065 7.82088 9.5 7 9.5H4.75C4.61193 9.5 4.5 9.61193 4.5 9.75V14.2634C4.5 14.4019 4.61256 14.5006 4.75103 14.5L7 14.5042C7.82641 14.5008 8.60816 14.7705 9.26552 15.2713L12.5 17.7357V6.26545Z" fill="#7D8198"/>
<path d="M17.8475 6.13197C18.1652 5.86624 18.6382 5.90841 18.904 6.22615C20.2578 7.84503 20.9997 9.88819 21 11.9986C21.0004 14.1089 20.259 16.1523 18.9056 17.7716C18.64 18.0894 18.167 18.1317 17.8492 17.8661C17.5314 17.6005 17.4891 17.1275 17.7547 16.8096C18.8825 15.4603 19.5003 13.7574 19.5 11.9988C19.4998 10.2401 18.8815 8.5375 17.7533 7.18844C17.4876 6.87069 17.5297 6.3977 17.8475 6.13197Z" fill="#7D8198"/>
<path d="M16.7895 8.38595C16.54 8.0553 16.0697 7.98951 15.7391 8.239C15.4084 8.48849 15.3427 8.95878 15.5921 9.28943C16.18 10.0685 16.4986 11.024 16.5 12C16.5014 12.976 16.1854 13.9195 15.5998 14.7002C15.3512 15.0316 15.4183 15.5017 15.7497 15.7502C16.081 15.9988 16.5511 15.9317 16.7997 15.6003C17.5806 14.5594 18.0018 13.3013 18 12C17.9982 10.6987 17.5733 9.42471 16.7895 8.38595Z" fill="#7D8198"/>
</svg>
