<svg width="24" height="24" viewBox="0 0 24 24" fill="none" xmlns="http://www.w3.org/2000/svg">
<path fill-rule="evenodd" clip-rule="evenodd" d="M3.99658 6.5C3.99658 5.11929 5.11587 4 6.49658 4H8.24881C8.66302 4 8.99881 4.33579 8.99881 4.75C8.99881 5.16421 8.66302 5.5 8.24881 5.5H6.49658C5.9443 5.5 5.49658 5.94771 5.49658 6.5V8.24543C5.49658 8.65964 5.1608 8.99543 4.74658 8.99543C4.33237 8.99543 3.99658 8.65964 3.99658 8.24543V6.5Z" fill="#7D8198"/>
<path fill-rule="evenodd" clip-rule="evenodd" d="M17.5001 4C18.8808 4 20.0001 5.11929 20.0001 6.5V8.25222C20.0001 8.66644 19.6643 9.00222 19.2501 9.00222C18.8358 9.00222 18.5001 8.66644 18.5001 8.25222V6.5C18.5001 5.94771 18.0523 5.5 17.5001 5.5L15.7546 5.5C15.3404 5.5 15.0046 5.16421 15.0046 4.75C15.0046 4.33579 15.3404 4 15.7546 4L17.5001 4Z" fill="#7D8198"/>
<path fill-rule="evenodd" clip-rule="evenodd" d="M20.0001 17.5C20.0001 18.8807 18.8808 20 17.5001 20H15.7478C15.3336 20 14.9978 19.6642 14.9978 19.25C14.9978 18.8358 15.3336 18.5 15.7478 18.5H17.5001C18.0523 18.5 18.5001 18.0523 18.5001 17.5V15.7546C18.5001 15.3404 18.8358 15.0046 19.2501 15.0046C19.6643 15.0046 20.0001 15.3404 20.0001 15.7546V17.5Z" fill="#7D8198"/>
<path fill-rule="evenodd" clip-rule="evenodd" d="M6.50339 20C5.12268 20 4.00339 18.8807 4.00339 17.5L4.00339 15.7478C4.00339 15.3336 4.33917 14.9978 4.75339 14.9978C5.1676 14.9978 5.50339 15.3336 5.50339 15.7478L5.50339 17.5C5.50339 18.0523 5.9511 18.5 6.50339 18.5H8.24882C8.66303 18.5 8.99882 18.8358 8.99882 19.25C8.99882 19.6642 8.66303 20 8.24882 20H6.50339Z" fill="#7D8198"/>
<path fill-rule="evenodd" clip-rule="evenodd" d="M8.25 9C8.66421 9 9 9.33579 9 9.75V11.25C9 11.6642 8.66421 12 8.25 12C7.83579 12 7.5 11.6642 7.5 11.25V9.75C7.5 9.33579 7.83579 9 8.25 9Z" fill="#7D8198"/>
<path fill-rule="evenodd" clip-rule="evenodd" d="M15.7491 9C16.1634 9 16.4991 9.33579 16.4991 9.75V11.25C16.4991 11.6642 16.1634 12 15.7491 12C15.3349 12 14.9991 11.6642 14.9991 11.25V9.75C14.9991 9.33579 15.3349 9 15.7491 9Z" fill="#7D8198"/>
<path fill-rule="evenodd" clip-rule="evenodd" d="M12.2488 9C12.663 9 12.9988 9.33579 12.9988 9.75V12.25C12.9988 13.2165 12.2153 14 11.2488 14H10.7505C10.3363 14 10.0005 13.6642 10.0005 13.25C10.0005 12.8358 10.3363 12.5 10.7505 12.5H11.2488C11.3868 12.5 11.4988 12.3881 11.4988 12.25V9.75C11.4988 9.33579 11.8345 9 12.2488 9Z" fill="#7D8198"/>
<path fill-rule="evenodd" clip-rule="evenodd" d="M14.7971 15.9014C14.0361 16.606 13.0372 16.9974 12.0001 16.9975C10.963 16.9975 9.96414 16.6061 9.20314 15.9015C8.8992 15.6201 8.88094 15.1455 9.16235 14.8416C9.44376 14.5377 9.91829 14.5194 10.2222 14.8008C10.7059 15.2487 11.3409 15.4975 12.0001 15.4975C12.6593 15.4975 13.2942 15.2486 13.778 14.8008C14.0819 14.5193 14.5564 14.5376 14.8378 14.8415C15.1193 15.1454 15.101 15.62 14.7971 15.9014Z" fill="#7D8198"/>
</svg>
