<svg width="24" height="24" viewBox="0 0 24 24" fill="none" xmlns="http://www.w3.org/2000/svg">
<path fill-rule="evenodd" clip-rule="evenodd" d="M20.2495 11.5H5.49904V16.25C5.49904 16.9404 6.05869 17.5 6.74904 17.5H10.249C10.6633 17.5 10.999 17.8358 10.999 18.25C10.999 18.6642 10.6633 19 10.249 19H6.74904C5.23026 19 3.99904 17.7688 3.99904 16.25L3.99811 9.99996L3.99904 7.75C3.99904 6.23122 5.23026 5 6.74904 5H9.98864C10.6622 5 11.3123 5.24717 11.8156 5.69462L12.929 6.68426C13.1578 6.88765 13.4533 7 13.7594 7H18.2495C19.7683 7 20.9995 8.23122 20.9995 9.75V10.75C20.9995 11.1642 20.6637 11.5 20.2495 11.5ZM5.49904 7.75C5.49904 7.05964 6.05869 6.5 6.74904 6.5H9.98864C10.2948 6.5 10.5903 6.61235 10.8191 6.81574L11.9324 7.80538C12.4358 8.25283 13.0859 8.5 13.7594 8.5H18.2495C18.9399 8.5 19.4995 9.05964 19.4995 9.75V9.99996H5.49904V7.75Z" fill="#7D8198"/>
<path fill-rule="evenodd" clip-rule="evenodd" d="M17.5 22C19.9853 22 22 19.9853 22 17.5C22 15.0147 19.9853 13 17.5 13C15.0147 13 13 15.0147 13 17.5C13 19.9853 15.0147 22 17.5 22ZM18.1343 15.0005C18.1343 14.6553 17.8545 14.3755 17.5093 14.3755C17.1641 14.3755 16.8843 14.6553 16.8843 15.0005V16.875H15.005C14.6598 16.875 14.38 17.1548 14.38 17.5C14.38 17.8452 14.6598 18.125 15.005 18.125H16.8843V20C16.8843 20.3452 17.1641 20.625 17.5093 20.625C17.8545 20.625 18.1343 20.3452 18.1343 20V18.125H20.0075C20.3527 18.125 20.6325 17.8452 20.6325 17.5C20.6325 17.1548 20.3527 16.875 20.0075 16.875H18.1343V15.0005Z" fill="#7D8198"/>
</svg>
