<svg width="24" height="24" viewBox="0 0 24 24" fill="none" xmlns="http://www.w3.org/2000/svg">
<path fill-rule="evenodd" clip-rule="evenodd" d="M4 7.75C4 6.23122 5.23122 5 6.75 5H17.25C18.7688 5 20 6.23122 20 7.75V16.25C20 17.7688 18.7688 19 17.25 19H6.75C5.23122 19 4 17.7688 4 16.25V7.75ZM6.75 6.5C6.05964 6.5 5.5 7.05964 5.5 7.75V8.18535L11.4091 11.3553C11.7782 11.5533 12.2218 11.5533 12.5909 11.3553L18.5 8.18535V7.75C18.5 7.05964 17.9404 6.5 17.25 6.5H6.75ZM18.5 9.88756L13.3 12.6771C12.4881 13.1127 11.5119 13.1127 10.7 12.6771L5.5 9.88756V16.25C5.5 16.9404 6.05964 17.5 6.75 17.5H17.25C17.9404 17.5 18.5 16.9404 18.5 16.25V9.88756Z" fill="#7D8198"/>
</svg>
