<svg width="24" height="24" viewBox="0 0 24 24" fill="none" xmlns="http://www.w3.org/2000/svg">
<path d="M18.496 4.03511C19.3756 3.82807 20.165 4.60901 19.9755 5.48677L19.9765 5.48775L18.4706 13.1397C18.4684 13.1508 18.4654 13.1621 18.4628 13.173C18.2361 14.1004 17.0845 14.4259 16.406 13.7542C16.389 13.7373 16.3725 13.7199 16.3572 13.7015L14.9675 12.031L5.22281 19.8373C4.92326 20.077 4.49071 20.0514 4.2208 19.7787C3.95113 19.5059 3.93034 19.0735 4.17295 18.7764L12.0249 9.16672L10.3549 7.92509C10.3267 7.90412 10.2998 7.88144 10.2748 7.85671C9.5915 7.18023 9.91472 6.01603 10.8491 5.78961L10.8579 5.78766L18.496 4.03511ZM11.7788 7.11525L13.5504 8.4321C13.7148 8.55437 13.8221 8.73866 13.8473 8.94204C13.8724 9.14527 13.8137 9.35004 13.6842 9.50864L9.83145 14.2231L14.6051 10.4005L14.7302 10.3195C15.0364 10.1613 15.4212 10.2312 15.6501 10.506L17.1131 12.2654L18.4276 5.58837L11.7788 7.11525Z" fill="#7D8198"/>
</svg>
