<svg width="24" height="24" viewBox="0 0 24 24" fill="none" xmlns="http://www.w3.org/2000/svg">
<path d="M8.99998 7.24998C8.99998 7.66419 8.6642 7.99998 8.24999 7.99998L4.74999 8C4.55107 8 4.36031 7.92098 4.21965 7.78033C4.079 7.63968 3.99998 7.44891 3.99998 7.25L3.99998 3.75C3.99998 3.33579 4.33577 3 4.74998 3C5.1642 3 5.49998 3.33579 5.49998 3.75V5.77511C6.92141 4.29077 8.81268 3.33358 10.8617 3.07232C13.0824 2.78915 15.329 3.34384 17.1628 4.62808C17.5021 4.86569 17.5845 5.33335 17.3469 5.67264C17.1093 6.01192 16.6416 6.09435 16.3023 5.85674C14.7742 4.78654 12.902 4.3243 11.0514 4.56027C9.49237 4.75906 8.04292 5.44132 6.90102 6.49999L8.24998 6.49998C8.66419 6.49998 8.99998 6.83576 8.99998 7.24998Z" fill="#7D8198"/>
<path d="M15.75 16C15.3358 16 15 16.3358 15 16.75C15 17.1643 15.3358 17.5 15.75 17.5L17.099 17.5C15.986 18.5318 14.5788 19.2081 13.059 19.4248C11.1685 19.6945 9.24631 19.2328 7.68446 18.134C7.34568 17.8957 6.87784 17.9771 6.6395 18.3159C6.40116 18.6546 6.48258 19.1225 6.82135 19.3608C8.69557 20.6794 11.0022 21.2334 13.2708 20.9098C15.2727 20.6243 17.112 19.6743 18.5 18.2249V20.25C18.5 20.6642 18.8358 21 19.25 21C19.6642 21 20 20.6642 20 20.25V16.75C20 16.5511 19.921 16.3603 19.7803 16.2197C19.6397 16.079 19.4489 16 19.25 16L15.75 16Z" fill="#7D8198"/>
<path d="M20.5 9.00001C20.5 9.5523 20.0523 10 19.5 10C18.9477 10 18.5 9.5523 18.5 9.00001C18.5 8.44773 18.9477 8.00001 19.5 8.00001C20.0523 8.00001 20.5 8.44773 20.5 9.00001Z" fill="#7D8198"/>
<path d="M4.5 16C5.05228 16 5.5 15.5523 5.5 15C5.5 14.4477 5.05228 14 4.5 14C3.94772 14 3.5 14.4477 3.5 15C3.5 15.5523 3.94772 16 4.5 16Z" fill="#7D8198"/>
<path d="M21 13C21 13.5523 20.5523 14 20 14C19.4477 14 19 13.5523 19 13C19 12.4477 19.4477 12 20 12C20.5523 12 21 12.4477 21 13Z" fill="#7D8198"/>
<path d="M4 12C4.55228 12 5 11.5523 5 11C5 10.4477 4.55228 10 4 10C3.44772 10 3 10.4477 3 11C3 11.5523 3.44772 12 4 12Z" fill="#7D8198"/>
</svg>
