<svg width="24" height="24" viewBox="0 0 24 24" fill="none" xmlns="http://www.w3.org/2000/svg">
<path fill-rule="evenodd" clip-rule="evenodd" d="M5 5.75073C5 4.23195 6.23122 3.00073 7.75 3.00073H12.2095C12.9093 3.00073 13.5827 3.26747 14.0926 3.74662L18.1331 7.5431C18.6863 8.06287 19 8.78816 19 9.54721V17.2507C19 18.7695 17.7688 20.0007 16.25 20.0007H7.75C6.23122 20.0007 5 18.7695 5 17.2507V5.75073ZM7.75 4.50073C7.05964 4.50073 6.5 5.06038 6.5 5.75073V15.3168L9.0144 13.1807C9.24339 12.9862 9.56637 12.9471 9.83516 13.0813L14.414 15.3687L17.5 12.984V10H13.75C12.7835 10 12 9.2165 12 8.25V4.50073H7.75ZM17.5 14.8797L14.9586 16.8435C14.7308 17.0195 14.4223 17.0496 14.1648 16.921L9.60802 14.6446L6.50045 17.2847C6.51843 17.9593 7.07099 18.5007 7.75 18.5007H16.25C16.9404 18.5007 17.5 17.9411 17.5 17.2507V14.8797ZM13.5 5.24804L16.9609 8.5H13.75C13.6119 8.5 13.5 8.38807 13.5 8.25V5.24804Z" fill="#7D8198"/>
</svg>
