<svg width="24" height="24" viewBox="0 0 24 24" fill="none" xmlns="http://www.w3.org/2000/svg">
<path d="M8.08977 7.28663C7.94758 7.10567 7.73018 7 7.50003 7C7.26989 7 7.05248 7.10567 6.91029 7.28663L4.16029 10.7866C3.90438 11.1123 3.96096 11.5838 4.28667 11.8397C4.61237 12.0956 5.08386 12.0391 5.33977 11.7134L6.75 9.91853V16.25C6.75 16.6642 7.08579 17 7.5 17C7.91421 17 8.25 16.6642 8.25 16.25V9.91845L9.66029 11.7134C9.9162 12.0391 10.3877 12.0956 10.7134 11.8397C11.0391 11.5838 11.0957 11.1123 10.8398 10.7866L8.08977 7.28663Z" fill="#7D8198"/>
<path d="M15.9102 16.7134C16.0524 16.8943 16.2698 17 16.5 17C16.7301 17 16.9475 16.8943 17.0897 16.7134L19.8397 13.2134C20.0956 12.8877 20.039 12.4162 19.7133 12.1603C19.3876 11.9044 18.9161 11.9609 18.6602 12.2866L17.25 14.0815L17.25 7.75C17.25 7.33579 16.9142 7 16.5 7C16.0858 7 15.75 7.33579 15.75 7.75L15.75 14.0816L14.3397 12.2866C14.0838 11.9609 13.6123 11.9044 13.2866 12.1603C12.9609 12.4162 12.9043 12.8877 13.1602 13.2134L15.9102 16.7134Z" fill="#7D8198"/>
</svg>
