<svg width="24" height="24" viewBox="0 0 24 24" fill="none" xmlns="http://www.w3.org/2000/svg">
<path fill-rule="evenodd" clip-rule="evenodd" d="M14.1735 5.27198C14.4385 4.95359 14.9114 4.91028 15.2298 5.17524L16.7298 6.42353C16.9009 6.56593 16.9999 6.77698 17 6.99959C17.0001 7.2222 16.9014 7.43336 16.7304 7.57595L15.2304 8.82717C14.9123 9.0925 14.4394 9.04973 14.1741 8.73165C13.9087 8.41357 13.9515 7.94063 14.2696 7.6753L15.0783 7.00069L14.2702 6.32822C13.9519 6.06326 13.9086 5.59036 14.1735 5.27198ZM10.0264 8.05383C9.9643 8.28217 10.011 8.53616 10.1741 8.73165C10.4394 9.04973 10.9123 9.0925 11.2304 8.82717L12.7304 7.57595C12.9014 7.43336 13.0001 7.2222 13 6.99959C12.9999 6.77698 12.9009 6.56593 12.7298 6.42353L11.2298 5.17524C10.9114 4.91028 10.4385 4.95359 10.1735 5.27198C9.90855 5.59036 9.95186 6.06326 10.2702 6.32822L10.3752 6.41555C7.32607 7.04455 5 9.45578 5 13.0001C5 16.866 8.13405 20.0001 12 20.0001C13.948 20.0001 15.688 19.1453 16.9341 17.9698C18.1669 16.8067 19 15.2469 19 13.75C19 13.3358 18.6642 13 18.25 13C17.8358 13 17.5 13.3358 17.5 13.75C17.5 14.7176 16.9339 15.9078 15.9047 16.8787C14.8888 17.8371 13.5037 18.5001 12 18.5001C8.96248 18.5001 6.5 16.0376 6.5 13.0001C6.5 10.5164 7.93855 8.73226 10.0264 8.05383Z" fill="#7D8198"/>
</svg>
