<svg width="24" height="24" viewBox="0 0 24 24" fill="none" xmlns="http://www.w3.org/2000/svg">
<path d="M7.30903 6.75C7.1717 6.90344 6.97212 7 6.75 7C6.33579 7 6 6.66421 6 6.25L6 5.75C6 5.33579 6.33579 5 6.75 5C6.97213 5 7.1717 5.09656 7.30903 5.25L16.69 5.25C16.8273 5.09656 17.0269 5 17.249 5C17.6632 5 17.999 5.33579 17.999 5.75V6.25C17.999 6.66421 17.6632 7 17.249 7C17.0269 7 16.8273 6.90344 16.69 6.75L12.75 6.75V9.24923C12.75 9.66344 12.4142 9.99923 12 9.99923C11.5858 9.99923 11.25 9.66344 11.25 9.24923V6.75L7.30903 6.75Z" fill="#7D8198"/>
<path d="M11.25 13.4963V17.5H9.75C9.33579 17.5 9 17.8358 9 18.25C9 18.6642 9.33579 19 9.75 19H14.25C14.6642 19 15 18.6642 15 18.25C15 17.8358 14.6642 17.5 14.25 17.5H12.75V13.4963H19.25C19.6642 13.4963 20 13.1606 20 12.7463C20 12.3321 19.6642 11.9963 19.25 11.9963H4.75C4.33579 11.9963 4 12.3321 4 12.7463C4 13.1606 4.33579 13.4963 4.75 13.4963H11.25Z" fill="#7D8198"/>
</svg>
