<svg width="24" height="24" viewBox="0 0 24 24" fill="none" xmlns="http://www.w3.org/2000/svg">
<path fill-rule="evenodd" clip-rule="evenodd" d="M10 11.75C10 10.7835 10.7835 10 11.75 10H18.25C19.2165 10 20 10.7835 20 11.75V18.25C20 19.2165 19.2165 20 18.25 20H11.75C10.7835 20 10 19.2165 10 18.25V11.75ZM11.75 11.5C11.6119 11.5 11.5 11.6119 11.5 11.75V18.25C11.5 18.3881 11.6119 18.5 11.75 18.5H18.25C18.3881 18.5 18.5 18.3881 18.5 18.25V11.75C18.5 11.6119 18.3881 11.5 18.25 11.5H11.75Z" fill="#7D8198"/>
<path fill-rule="evenodd" clip-rule="evenodd" d="M7 8.75C7 7.7835 7.7835 7 8.75 7H16.25C16.6642 7 17 7.33579 17 7.75C17 8.16421 16.6642 8.5 16.25 8.5H8.75C8.61193 8.5 8.5 8.61193 8.5 8.75V16.25C8.5 16.6642 8.16421 17 7.75 17C7.33579 17 7 16.6642 7 16.25V8.75Z" fill="#7D8198"/>
<path fill-rule="evenodd" clip-rule="evenodd" d="M4 5.75C4 4.7835 4.7835 4 5.75 4H13.25C13.6642 4 14 4.33579 14 4.75C14 5.16421 13.6642 5.5 13.25 5.5H5.75C5.61193 5.5 5.5 5.61193 5.5 5.75V13.25C5.5 13.6642 5.16421 14 4.75 14C4.33579 14 4 13.6642 4 13.25V5.75Z" fill="#7D8198"/>
</svg>
