<svg width="24" height="24" viewBox="0 0 24 24" fill="none" xmlns="http://www.w3.org/2000/svg">
<path d="M8 10.5C8 10.0858 8.33579 9.75 8.75 9.75H12.25C12.6642 9.75 13 10.0858 13 10.5C13 10.9142 12.6642 11.25 12.25 11.25H8.75C8.33579 11.25 8 10.9142 8 10.5Z" fill="#7D8198"/>
<path fill-rule="evenodd" clip-rule="evenodd" d="M14.5353 15.596C13.4268 16.475 12.0247 17 10.5 17C6.91015 17 4 14.0899 4 10.5C4 6.91015 6.91015 4 10.5 4C14.0899 4 17 6.91015 17 10.5C17 12.0247 16.475 13.4268 15.596 14.5353L19.7803 18.7197C20.0732 19.0126 20.0732 19.4874 19.7803 19.7803C19.4874 20.0732 19.0126 20.0732 18.7197 19.7803L14.5353 15.596ZM10.5 15.5C13.2614 15.5 15.5 13.2614 15.5 10.5C15.5 7.73858 13.2614 5.5 10.5 5.5C7.73858 5.5 5.5 7.73858 5.5 10.5C5.5 13.2614 7.73858 15.5 10.5 15.5Z" fill="#7D8198"/>
</svg>
