<svg width="24" height="24" viewBox="0 0 24 24" fill="none" xmlns="http://www.w3.org/2000/svg">
<path fill-rule="evenodd" clip-rule="evenodd" d="M18.8611 15.6793C18.9508 15.4478 19 15.1961 19 14.933C19 14.2835 18.6795 13.6847 18.4769 13.306L18.4485 13.253C18.4153 13.1905 18.3846 13.1329 18.3554 13.0768C18.1906 12.7598 17.9878 12.1399 17.9878 11.0104L17.9878 10.9934V8.99932C17.9878 5.68599 15.3018 3 11.9884 3C10.3806 3 8.92041 3.63253 7.84326 4.66233L8.90432 5.7233C9.70971 4.96481 10.7948 4.5 11.9884 4.5C14.4733 4.5 16.4878 6.51442 16.4878 8.99932V10.9934L16.4878 11.0104C16.4878 12.314 16.7215 13.1857 17.0244 13.7685C17.0519 13.8214 17.08 13.8744 17.1073 13.9256L18.8611 15.6793ZM7.4891 10.6719L5.9891 9.17203V11.1658C5.97188 12.1974 5.78471 12.7765 5.6306 13.0805C5.60078 13.1394 5.56931 13.1998 5.53505 13.2655L5.50761 13.318C5.3103 13.695 5.00001 14.2878 5.00001 14.9284C5.00001 16.0725 5.92744 16.9999 7.07147 16.9999H13.8176L12.3175 15.4999H7.07147C6.75586 15.4999 6.50001 15.244 6.50001 14.9284C6.50001 14.6942 6.62698 14.4158 6.86521 13.9588L6.86614 13.957C6.8994 13.8932 6.93453 13.8258 6.96854 13.7587C7.24994 13.2035 7.46972 12.3866 7.48901 11.184L7.4891 11.1719V10.6719ZM13.8176 16.9999L13.5 17C13.5 17.197 13.4612 17.392 13.3858 17.574C13.3105 17.756 13.2 17.9214 13.0607 18.0607C12.9214 18.1999 12.756 18.3104 12.574 18.3858C12.3921 18.4612 12.197 18.5 12 18.5C11.803 18.5 11.608 18.4612 11.426 18.3858C11.244 18.3104 11.0786 18.1999 10.9394 18.0607C10.8001 17.9214 10.6896 17.756 10.6142 17.574C10.5388 17.392 10.5 17.197 10.5 17H9.00001C9.00001 17.394 9.07761 17.7841 9.22838 18.1481C9.37914 18.512 9.60012 18.8427 9.87869 19.1213C10.1573 19.3999 10.488 19.6209 10.852 19.7716C11.2159 19.9224 11.606 20 12 20C12.394 20 12.7841 19.9224 13.1481 19.7716C13.512 19.6209 13.8428 19.3999 14.1213 19.1213C14.3999 18.8427 14.6209 18.512 14.7717 18.1481C14.7908 18.1017 14.8088 18.055 14.8256 18.0079L13.8176 16.9999Z" fill="#7D8198"/>
<path fill-rule="evenodd" clip-rule="evenodd" d="M19.7171 20.779L3.22053 4.2826C2.92763 3.98971 2.92763 3.51484 3.22052 3.22194C3.51341 2.92905 3.98829 2.92905 4.28118 3.22194L20.7778 19.7183C21.0707 20.0112 21.0707 20.4861 20.7778 20.779C20.4849 21.0719 20.01 21.0719 19.7171 20.779Z" fill="#7D8198"/>
</svg>
