<svg width="24" height="24" viewBox="0 0 24 24" fill="none" xmlns="http://www.w3.org/2000/svg">
<path fill-rule="evenodd" clip-rule="evenodd" d="M5.75 18H7.10352C7.42998 19.1543 8.49122 20 9.75 20H14.25C15.5088 20 16.57 19.1543 16.8965 18H18.25C19.7688 18 21 16.7688 21 15.25V8.75C21 7.23122 19.7688 6 18.25 6H16.8965C16.57 4.84575 15.5088 4 14.25 4H9.75C8.49122 4 7.42998 4.84575 7.10352 6H5.75C4.23122 6 3 7.23122 3 8.75V15.25C3 16.7688 4.23122 18 5.75 18ZM5.75 7.5H7V16.5H5.75C5.05964 16.5 4.5 15.9404 4.5 15.25V8.75C4.5 8.05964 5.05964 7.5 5.75 7.5ZM17 7.5V16.5H18.25C18.9404 16.5 19.5 15.9404 19.5 15.25V8.75C19.5 8.05964 18.9404 7.5 18.25 7.5H17ZM9.75 5.5C9.05964 5.5 8.5 6.05964 8.5 6.75V17.25C8.5 17.9404 9.05964 18.5 9.75 18.5H14.25C14.9404 18.5 15.5 17.9404 15.5 17.25V6.75C15.5 6.05964 14.9404 5.5 14.25 5.5H9.75Z" fill="#7D8198"/>
</svg>
