<svg width="24" height="24" viewBox="0 0 24 24" fill="none" xmlns="http://www.w3.org/2000/svg">
<path fill-rule="evenodd" clip-rule="evenodd" d="M4.5 12C4.5 10.067 6.067 8.5 8 8.5H8.24775C8.66196 8.5 8.99775 8.16421 8.99775 7.75C8.99775 7.33579 8.66196 7 8.24775 7H8C5.23858 7 3 9.23858 3 12C3 14.7614 5.23858 17 8 17H9.99731C12.7587 17 14.9973 14.7614 14.9973 12V11.75C14.9973 11.3358 14.6615 11 14.2473 11C13.8331 11 13.4973 11.3358 13.4973 11.75V12C13.4973 13.933 11.9303 15.5 9.99731 15.5H8C6.067 15.5 4.5 13.933 4.5 12ZM19.5 12C19.5 13.933 17.933 15.5 16 15.5H15.75C15.3358 15.5 15 15.8358 15 16.25C15 16.6642 15.3358 17 15.75 17H16C18.7614 17 21 14.7614 21 12C21 9.23858 18.7614 7 16 7H13.9974C11.236 7 8.99744 9.23858 8.99744 12V12.25C8.99744 12.6642 9.33322 13 9.74744 13C10.1616 13 10.4974 12.6642 10.4974 12.25V12C10.4974 10.067 12.0644 8.5 13.9974 8.5H16C17.933 8.5 19.5 10.067 19.5 12Z" fill="#7D8198"/>
</svg>
