<svg width="24" height="24" viewBox="0 0 24 24" fill="none" xmlns="http://www.w3.org/2000/svg">
<path fill-rule="evenodd" clip-rule="evenodd" d="M3.54169 6.99825C3.54263 5.89443 4.43764 5 5.54169 5H8.68835C9.19327 5 9.75873 5.12303 10.2317 5.51517L12.0581 7H18.4584C19.5308 7 20.5 7.86392 20.5 9V12.0313C19.4031 10.7885 17.7995 10.0037 16.0125 10L19 10V9C19 8.75525 18.7667 8.5 18.4584 8.5H11.7917H11.5253L11.3186 8.33195L9.28233 6.67653L9.27534 6.67085L9.27538 6.67081C9.14993 6.5663 8.96208 6.5 8.68835 6.5H5.54169C5.26548 6.5 5.04169 6.7238 5.04169 7V7.00313H5.04168L5.02919 10L15.9875 10C14.4707 10.0031 13.086 10.569 12.0313 11.5L5.02293 11.5L5 17L5 17.0012C5.00073 17.2455 5.23377 17.5 5.54169 17.5H10.189C10.326 18.0322 10.5341 18.5357 10.8027 19H5.54169C4.46925 19 3.5 18.1361 3.5 17L3.50001 16.9969L3.54169 7L3.54169 6.99825Z" fill="#5B53FF"/>
<path fill-rule="evenodd" clip-rule="evenodd" d="M15.0208 13.5C15.0208 12.9592 15.4592 12.5209 16 12.5209C16.5408 12.5209 16.9791 12.9592 16.9791 13.5V13.5025V13.5049V13.5073V13.5098V13.5122V13.5147V13.5171V13.5196V13.5221V13.5246V13.5271V13.5296V13.5321V13.5346V13.5371V13.5396V13.5422V13.5447V13.5472V13.5498V13.5523V13.5549V13.5575V13.5601V13.5626V13.5652V13.5678V13.5704V13.573V13.5756V13.5783V13.5809V13.5835V13.5862V13.5888V13.5914V13.5941V13.5968V13.5994V13.6021V13.6048V13.6074V13.6101V13.6128V13.6155V13.6182V13.6209V13.6236V13.6264V13.6291V13.6318V13.6345V13.6373V13.64V13.6428V13.6455V13.6483V13.651V13.6538V13.6566V13.6594V13.6621V13.6649V13.6677V13.6705V13.6733V13.6761V13.6789V13.6817V13.6845V13.6873V13.6902V13.693V13.6958V13.6987V13.7015V13.7043V13.7072V13.71V13.7129V13.7157V13.7186V13.7215V13.7243V13.7272V13.7301V13.7329V13.7358V13.7387V13.7416V13.7445V13.7474V13.7503V13.7532V13.7561V13.759V13.7619V13.7648V13.7677V13.7706V13.7735V13.7764V13.7794V13.7823V13.7852V13.7881V13.7911V13.794V13.7969V13.7999V13.8028V13.8058V13.8087V13.8117V13.8146V13.8176V13.8205V13.8235V13.8264V13.8294V13.8323V13.8353V13.8383V13.8412V13.8442V13.8472V13.8501V13.8531V13.8561V13.859V13.862V13.865V13.868V13.8709V13.8739V13.8769V13.8799V13.8829V13.8858V13.8888V13.8918V13.8948V13.8978V13.9008V13.9038V13.9067V13.9097V13.9127V13.9157V13.9187V13.9217V13.9247V13.9277V13.9306V13.9336V13.9366V13.9396V13.9426V13.9456V13.9486V13.9516V13.9546V13.9575V13.9605V13.9635V13.9665V13.9695V13.9725V13.9755V13.9785V13.9814V13.9844V13.9874V13.9904V13.9934V13.9963V13.9993V14.0023V14.0053V14.0083V14.0112V14.0142V14.0172V14.0201V14.0231V14.0261V14.0291V14.032V14.035V14.0379V14.0409V14.0439V14.0468V14.0498V14.0527V14.0557V14.0586V14.0616V14.0645V14.0675V14.0704V14.0734V14.0763V14.0792V14.0822V14.0851V14.088V14.0909V14.0939V14.0968V14.0997V14.1026V14.1055V14.1085V14.1114V14.1143V14.1172V14.1201V14.123V14.1259V14.1287V14.1316V14.1345V14.1374V14.1403V14.1432V14.146V14.1489V14.1518V14.1546V14.1575V14.1603V14.1632V14.166V14.1689V14.1717V14.1745V14.1774V14.1802V14.183V14.1858V14.1887V14.1915V14.1943V14.1971V14.1999V14.2027V14.2055V14.2083V14.211V14.2138V14.2166V14.2194V14.2221V14.2249V14.2276V14.2304V14.2331V14.2359V14.2386V14.2413V14.2441V14.2468V14.2495V14.2522V14.2549V14.2576V14.2603V14.263V14.2657V14.2684V14.2711V14.2737V14.2764V14.279V14.2817V14.2843V14.287V14.2896V14.2922V14.2949V14.2975V14.3001V14.3027V14.3053V14.3079V14.3105V14.3131V14.3156V14.3182V14.3208V14.3233V14.3259V14.3284V14.3309V14.3335V14.336V14.3385V14.341V14.3435V14.346V14.3485V14.351V14.3535V14.3559V14.3584V14.3609V14.3633V14.3657V14.3682V14.3706V14.373V14.3754V14.3778V14.3802V14.3826V14.385V14.3874V14.3897V14.3921V14.3944V14.3968V14.3991V14.4014V14.4038V14.4061V14.4084V14.4107V14.413V14.4152V14.4175V14.4198V14.422V14.4243V14.4265V14.4287V14.431V14.4332V14.4354V14.4376V14.4397V14.4419V14.4441V14.4463V14.4484V14.4505V14.4527V14.4548V14.4569V14.459V14.4611V14.4632V14.4653V14.4673V14.4694V14.4715V14.4735V14.4755V14.4775V14.4796V14.4816V14.4836V14.4855V14.4875V14.4895V14.4914V14.4934V14.4953V14.4972V14.4991V14.5H15.0208V14.4988V14.4972V14.4956V14.4939V14.4923V14.4906V14.489V14.4873V14.4856V14.4839V14.4822V14.4805V14.4788V14.4771V14.4754V14.4736V14.4719V14.4701V14.4684V14.4666V14.4648V14.463V14.4612V14.4594V14.4576V14.4557V14.4539V14.4521V14.4502V14.4484V14.4465V14.4446V14.4427V14.4408V14.4389V14.437V14.4351V14.4332V14.4312V14.4293V14.4273V14.4254V14.4234V14.4214V14.4194V14.4174V14.4154V14.4134V14.4114V14.4093V14.4073V14.4052V14.4032V14.4011V14.399V14.3969V14.3948V14.3927V14.3906V14.3885V14.3864V14.3842V14.3821V14.3799V14.3778V14.3756V14.3734V14.3712V14.369V14.3668V14.3646V14.3624V14.3602V14.3579V14.3557V14.3534V14.3512V14.3489V14.3466V14.3443V14.342V14.3397V14.3374V14.3351V14.3327V14.3304V14.328V14.3257V14.3233V14.3209V14.3185V14.3162V14.3137V14.3113V14.3089V14.3065V14.3041V14.3016V14.2992V14.2967V14.2942V14.2917V14.2893V14.2868V14.2843V14.2817V14.2792V14.2767V14.2742V14.2716V14.2691V14.2665V14.2639V14.2613V14.2587V14.2561V14.2535V14.2509V14.2483V14.2457V14.243V14.2404V14.2377V14.2351V14.2324V14.2297V14.227V14.2243V14.2216V14.2189V14.2162V14.2134V14.2107V14.2079V14.2052V14.2024V14.1996V14.1969V14.1941V14.1913V14.1885V14.1856V14.1828V14.18V14.1771V14.1743V14.1714V14.1686V14.1657V14.1628V14.1599V14.157V14.1541V14.1512V14.1482V14.1453V14.1424V14.1394V14.1365V14.1335V14.1305V14.1275V14.1245V14.1215V14.1185V14.1155V14.1125V14.1094V14.1064V14.1033V14.1003V14.0972V14.0941V14.091V14.088V14.0849V14.0817V14.0786V14.0755V14.0724V14.0692V14.0661V14.0629V14.0597V14.0566V14.0534V14.0502V14.047V14.0438V14.0405V14.0373V14.0341V14.0308V14.0276V14.0243V14.0211V14.0178V14.0145V14.0112V14.0079V14.0046V14.0013V13.9979V13.9946V13.9913V13.9879V13.9845V13.9812V13.9778V13.9744V13.971V13.9676V13.9642V13.9608V13.9574V13.9539V13.9505V13.947V13.9436V13.9401V13.9366V13.9332V13.9297V13.9262V13.9227V13.9191V13.9156V13.9121V13.9085V13.905V13.9014V13.8979V13.8943V13.8907V13.8871V13.8835V13.8799V13.8763V13.8727V13.869V13.8654V13.8617V13.8581V13.8544V13.8508V13.8471V13.8434V13.8397V13.836V13.8323V13.8285V13.8248V13.8211V13.8173V13.8136V13.8098V13.806V13.8023V13.7985V13.7947V13.7909V13.7871V13.7832V13.7794V13.7756V13.7717V13.7679V13.764V13.7601V13.7563V13.7524V13.7485V13.7446V13.7407V13.7368V13.7328V13.7289V13.7249V13.721V13.717V13.7131V13.7091V13.7051V13.7011V13.6971V13.6931V13.6891V13.6851V13.681V13.677V13.673V13.6689V13.6648V13.6608V13.6567V13.6526V13.6485V13.6444V13.6403V13.6362V13.632V13.6279V13.6238V13.6196V13.6154V13.6113V13.6071V13.6029V13.5987V13.5945V13.5903V13.5861V13.5819V13.5776V13.5734V13.5691V13.5649V13.5606V13.5563V13.5521V13.5478V13.5435V13.5392V13.5348V13.5305V13.5262V13.5219V13.5175V13.5132V13.5088V13.5044V13.5ZM14.2708 14.5V14.4988V14.4972V14.4956V14.4939V14.4923V14.4906V14.489V14.4873V14.4856V14.4839V14.4822V14.4805V14.4788V14.4771V14.4754V14.4736V14.4719V14.4701V14.4684V14.4666V14.4648V14.463V14.4612V14.4594V14.4576V14.4557V14.4539V14.4521V14.4502V14.4484V14.4465V14.4446V14.4427V14.4408V14.4389V14.437V14.4351V14.4332V14.4312V14.4293V14.4273V14.4254V14.4234V14.4214V14.4194V14.4174V14.4154V14.4134V14.4114V14.4093V14.4073V14.4052V14.4032V14.4011V14.399V14.3969V14.3948V14.3927V14.3906V14.3885V14.3864V14.3842V14.3821V14.3799V14.3778V14.3756V14.3734V14.3712V14.369V14.3668V14.3646V14.3624V14.3602V14.3579V14.3557V14.3534V14.3512V14.3489V14.3466V14.3443V14.342V14.3397V14.3374V14.3351V14.3327V14.3304V14.328V14.3257V14.3233V14.3209V14.3185V14.3162V14.3137V14.3113V14.3089V14.3065V14.3041V14.3016V14.2992V14.2967V14.2942V14.2917V14.2893V14.2868V14.2843V14.2817V14.2792V14.2767V14.2742V14.2716V14.2691V14.2665V14.2639V14.2613V14.2587V14.2561V14.2535V14.2509V14.2483V14.2457V14.243V14.2404V14.2377V14.2351V14.2324V14.2297V14.227V14.2243V14.2216V14.2189V14.2162V14.2134V14.2107V14.2079V14.2052V14.2024V14.1996V14.1969V14.1941V14.1913V14.1885V14.1856V14.1828V14.18V14.1771V14.1743V14.1714V14.1686V14.1657V14.1628V14.1599V14.157V14.1541V14.1512V14.1482V14.1453V14.1424V14.1394V14.1365V14.1335V14.1305V14.1275V14.1245V14.1215V14.1185V14.1155V14.1125V14.1094V14.1064V14.1033V14.1003V14.0972V14.0941V14.091V14.088V14.0849V14.0817V14.0786V14.0755V14.0724V14.0692V14.0661V14.0629V14.0597V14.0566V14.0534V14.0502V14.047V14.0438V14.0405V14.0373V14.0341V14.0308V14.0276V14.0243V14.0211V14.0178V14.0145V14.0112V14.0079V14.0046V14.0013V13.9979V13.9946V13.9913V13.9879V13.9845V13.9812V13.9778V13.9744V13.971V13.9676V13.9642V13.9608V13.9574V13.9539V13.9505V13.947V13.9436V13.9401V13.9366V13.9332V13.9297V13.9262V13.9227V13.9191V13.9156V13.9121V13.9085V13.905V13.9014V13.8979V13.8943V13.8907V13.8871V13.8835V13.8799V13.8763V13.8727V13.869V13.8654V13.8617V13.8581V13.8544V13.8508V13.8471V13.8434V13.8397V13.836V13.8323V13.8285V13.8248V13.8211V13.8173V13.8136V13.8098V13.806V13.8023V13.7985V13.7947V13.7909V13.7871V13.7832V13.7794V13.7756V13.7717V13.7679V13.764V13.7601V13.7563V13.7524V13.7485V13.7446V13.7407V13.7368V13.7328V13.7289V13.7249V13.721V13.717V13.7131V13.7091V13.7051V13.7011V13.6971V13.6931V13.6891V13.6851V13.681V13.677V13.673V13.6689V13.6648V13.6608V13.6567V13.6526V13.6485V13.6444V13.6403V13.6362V13.632V13.6279V13.6238V13.6196V13.6154V13.6113V13.6071V13.6029V13.5987V13.5945V13.5903V13.5861V13.5819V13.5776V13.5734V13.5691V13.5649V13.5606V13.5563V13.5521V13.5478V13.5435V13.5392V13.5348V13.5305V13.5262V13.5219V13.5175V13.5132V13.5088V13.5044V13.5C14.2708 12.545 15.045 11.7709 16 11.7709C16.955 11.7709 17.7291 12.545 17.7291 13.5V13.5025V13.5049V13.5073V13.5098V13.5122V13.5147V13.5171V13.5196V13.5221V13.5246V13.5271V13.5296V13.5321V13.5346V13.5371V13.5396V13.5422V13.5447V13.5472V13.5498V13.5523V13.5549V13.5575V13.5601V13.5626V13.5652V13.5678V13.5704V13.573V13.5756V13.5783V13.5809V13.5835V13.5862V13.5888V13.5914V13.5941V13.5968V13.5994V13.6021V13.6048V13.6074V13.6101V13.6128V13.6155V13.6182V13.6209V13.6236V13.6264V13.6291V13.6318V13.6345V13.6373V13.64V13.6428V13.6455V13.6483V13.651V13.6538V13.6566V13.6594V13.6621V13.6649V13.6677V13.6705V13.6733V13.6761V13.6789V13.6817V13.6845V13.6873V13.6902V13.693V13.6958V13.6987V13.7015V13.7043V13.7072V13.71V13.7129V13.7157V13.7186V13.7215V13.7243V13.7272V13.7301V13.7329V13.7358V13.7387V13.7416V13.7445V13.7474V13.7503V13.7532V13.7561V13.759V13.7619V13.7648V13.7677V13.7706V13.7735V13.7764V13.7794V13.7823V13.7852V13.7881V13.7911V13.794V13.7969V13.7999V13.8028V13.8058V13.8087V13.8117V13.8146V13.8176V13.8205V13.8235V13.8264V13.8294V13.8323V13.8353V13.8383V13.8412V13.8442V13.8472V13.8501V13.8531V13.8561V13.859V13.862V13.865V13.868V13.8709V13.8739V13.8769V13.8799V13.8829V13.8858V13.8888V13.8918V13.8948V13.8978V13.9008V13.9038V13.9067V13.9097V13.9127V13.9157V13.9187V13.9217V13.9247V13.9277V13.9306V13.9336V13.9366V13.9396V13.9426V13.9456V13.9486V13.9516V13.9546V13.9575V13.9605V13.9635V13.9665V13.9695V13.9725V13.9755V13.9785V13.9814V13.9844V13.9874V13.9904V13.9934V13.9963V13.9993V14.0023V14.0053V14.0083V14.0112V14.0142V14.0172V14.0201V14.0231V14.0261V14.0291V14.032V14.035V14.0379V14.0409V14.0439V14.0468V14.0498V14.0527V14.0557V14.0586V14.0616V14.0645V14.0675V14.0704V14.0734V14.0763V14.0792V14.0822V14.0851V14.088V14.0909V14.0939V14.0968V14.0997V14.1026V14.1055V14.1085V14.1114V14.1143V14.1172V14.1201V14.123V14.1259V14.1287V14.1316V14.1345V14.1374V14.1403V14.1432V14.146V14.1489V14.1518V14.1546V14.1575V14.1603V14.1632V14.166V14.1689V14.1717V14.1745V14.1774V14.1802V14.183V14.1858V14.1887V14.1915V14.1943V14.1971V14.1999V14.2027V14.2055V14.2083V14.211V14.2138V14.2166V14.2194V14.2221V14.2249V14.2276V14.2304V14.2331V14.2359V14.2386V14.2413V14.2441V14.2468V14.2495V14.2522V14.2549V14.2576V14.2603V14.263V14.2657V14.2684V14.2711V14.2737V14.2764V14.279V14.2817V14.2843V14.287V14.2896V14.2922V14.2949V14.2975V14.3001V14.3027V14.3053V14.3079V14.3105V14.3131V14.3156V14.3182V14.3208V14.3233V14.3259V14.3284V14.3309V14.3335V14.336V14.3385V14.341V14.3435V14.346V14.3485V14.351V14.3535V14.3559V14.3584V14.3609V14.3633V14.3657V14.3682V14.3706V14.373V14.3754V14.3778V14.3802V14.3826V14.385V14.3874V14.3897V14.3921V14.3944V14.3968V14.3991V14.4014V14.4038V14.4061V14.4084V14.4107V14.413V14.4152V14.4175V14.4198V14.422V14.4243V14.4265V14.4287V14.431V14.4332V14.4354V14.4376V14.4397V14.4419V14.4441V14.4463V14.4484V14.4505V14.4527V14.4548V14.4569V14.459V14.4611V14.4632V14.4653V14.4673V14.4694V14.4715V14.4735V14.4755V14.4775V14.4796V14.4816V14.4836V14.4855V14.4875V14.4895V14.4914V14.4934V14.4953V14.4972V14.4991V14.5H18.0208C18.5731 14.5 19.0208 14.9477 19.0208 15.5L19.0208 19C19.0208 19.5524 18.5731 20 18.0208 20H13.9792C13.4268 20 12.9792 19.5524 12.9792 19L12.9792 15.5C12.9792 14.9477 13.4269 14.5 13.9792 14.5H14.2708Z" fill="#5B53FF"/>
</svg>
