<svg width="24" height="24" viewBox="0 0 24 24" fill="none" xmlns="http://www.w3.org/2000/svg">
<path fill-rule="evenodd" clip-rule="evenodd" d="M8 7C8 4.79086 9.79086 3 12 3C14.2091 3 16 4.79086 16 7V12C16 14.2091 14.2091 16 12 16C9.79086 16 8 14.2091 8 12V7ZM12 4.5C10.6193 4.5 9.5 5.61929 9.5 7V12C9.5 13.3807 10.6193 14.5 12 14.5C13.3807 14.5 14.5 13.3807 14.5 12V7C14.5 5.61929 13.3807 4.5 12 4.5Z" fill="#7D8198"/>
<path d="M12.75 18.9603C16.2633 18.5861 19 15.6126 19 12V10.75C19 10.3358 18.6642 10 18.25 10C17.8358 10 17.5 10.3358 17.5 10.75V12C17.5 15.0376 15.0376 17.5 12 17.5C8.96244 17.5 6.5 15.0375 6.5 11.9999V10.75C6.5 10.3358 6.16421 10 5.75 10C5.33579 10 5 10.3358 5 10.75V11.9999C5 15.6126 7.73667 18.5861 11.25 18.9603V20.25C11.25 20.6642 11.5858 21 12 21C12.4142 21 12.75 20.6642 12.75 20.25V18.9603Z" fill="#7D8198"/>
</svg>
