<svg width="24" height="24" viewBox="0 0 24 24" fill="none" xmlns="http://www.w3.org/2000/svg">
<path fill-rule="evenodd" clip-rule="evenodd" d="M19 5.75C19 5.33579 18.6642 5 18.25 5H12.4167C12.0025 5 11.6667 5.33579 11.6667 5.75C11.6667 6.16421 12.0025 6.5 12.4167 6.5L17.5 6.5V11.5833C17.5 11.9975 17.8358 12.3333 18.25 12.3333C18.6642 12.3333 19 11.9975 19 11.5833V5.75ZM5 18.25C5 18.6642 5.33579 19 5.75 19H11.5833C11.9975 19 12.3333 18.6642 12.3333 18.25C12.3333 17.8358 11.9975 17.5 11.5833 17.5H6.5L6.5 12.4167C6.5 12.0025 6.16421 11.6667 5.75 11.6667C5.33579 11.6667 5 12.0025 5 12.4167V18.25Z" fill="#5B53FF"/>
</svg>
