<svg width="24" height="24" viewBox="0 0 24 24" fill="none" xmlns="http://www.w3.org/2000/svg">
<path fill-rule="evenodd" clip-rule="evenodd" d="M11.6358 4.18151C11.9221 3.93514 12.3469 3.94012 12.6274 4.19312L17.7821 8.84332C18.5514 9.45984 19 10.3927 19 11.3796V17.8333C19 18.4775 18.4775 19 17.8333 19H14.4167C13.7725 19 13.25 18.4775 13.25 17.8333V13.6667C13.25 13.6205 13.2129 13.5833 13.1667 13.5833H11.0833C11.0371 13.5833 11 13.6205 11 13.6667V17.8333C11 18.4775 10.4775 19 9.83333 19H6.16667C5.52245 19 5 18.4775 5 17.8333V11.3796C5 10.3896 5.45141 9.45393 6.22518 8.83747L11.6358 4.18151ZM12.1133 5.74953L7.19212 9.98432C7.18394 9.99136 7.17562 9.99822 7.16715 10.0049C6.74584 10.3369 6.5 10.8436 6.5 11.3796V17.5H9.5V13.6667C9.5 12.792 10.2087 12.0833 11.0833 12.0833H13.1667C14.0413 12.0833 14.75 12.792 14.75 13.6667V17.5H17.5V11.3796C17.5 10.8436 17.2542 10.3369 16.8329 10.0049C16.8198 9.99459 16.8071 9.98386 16.7947 9.97272L12.1133 5.74953Z" fill="#5B53FF"/>
</svg>
