<svg width="24" height="24" viewBox="0 0 24 24" fill="none" xmlns="http://www.w3.org/2000/svg">
<path d="M15.25 12.75C15.25 12.3358 14.9142 12 14.5 12C14.0858 12 13.75 12.3358 13.75 12.75V13.75H12.75C12.3358 13.75 12 14.0858 12 14.5C12 14.9142 12.3358 15.25 12.75 15.25H13.75V16.25C13.75 16.6642 14.0858 17 14.5 17C14.9142 17 15.25 16.6642 15.25 16.25V15.25H16.25C16.6642 15.25 17 14.9142 17 14.5C17 14.0858 16.6642 13.75 16.25 13.75H15.25V12.75Z" fill="#7D8198"/>
<path fill-rule="evenodd" clip-rule="evenodd" d="M5.75 3C4.23122 3 3 4.23122 3 5.75V13.25C3 14.7688 4.23122 16 5.75 16H8V18.25C8 19.7688 9.23122 21 10.75 21H18.25C19.7688 21 21 19.7688 21 18.25V10.75C21 9.23122 19.7688 8 18.25 8H16V5.75C16 4.23122 14.7688 3 13.25 3H5.75ZM14.5 8V5.75C14.5 5.05964 13.9404 4.5 13.25 4.5H5.75C5.05964 4.5 4.5 5.05964 4.5 5.75V13.25C4.5 13.9404 5.05964 14.5 5.75 14.5H8V10.75C8 9.23122 9.23122 8 10.75 8H14.5ZM9.5 10.75C9.5 10.0596 10.0596 9.5 10.75 9.5H18.25C18.9404 9.5 19.5 10.0596 19.5 10.75V18.25C19.5 18.9404 18.9404 19.5 18.25 19.5H10.75C10.0596 19.5 9.5 18.9404 9.5 18.25V10.75Z" fill="#7D8198"/>
</svg>
