<svg width="24" height="24" viewBox="0 0 24 24" fill="none" xmlns="http://www.w3.org/2000/svg">
<path d="M10.77 10.3772C10.6929 10.5107 10.6477 10.6603 10.638 10.8142L10.5329 12.4785C10.5063 12.9008 10.9836 13.1633 11.3259 12.9145L12.6459 11.9552C12.7593 11.8728 12.854 11.7675 12.9241 11.6462L16.8358 4.87081C17.181 4.27295 16.9762 3.50846 16.3783 3.16328C15.7804 2.8181 15.0159 3.02295 14.6708 3.62081L10.77 10.3772Z" fill="#7D8198"/>
<path d="M11.0163 6.75001C11.0127 7.16315 10.6732 7.49807 10.2579 7.49807C7.32017 7.49807 5.37622 9.20835 4.74128 11.4473C4.03253 13.9466 4.98598 15.9069 6.7195 17.2995C8.48657 18.7192 11.0292 19.5019 13.2669 19.5019C13.6821 19.5019 14.0159 19.8369 14.0123 20.25C14.0088 20.6631 13.6692 20.9981 13.254 20.9981C10.718 20.9981 7.83277 20.125 5.76861 18.4667C3.67091 16.7814 2.38979 14.2417 3.29416 11.0526C4.11159 8.17003 6.6483 6.00195 10.2708 6.00195C10.6861 6.00195 11.0198 6.33687 11.0163 6.75001Z" fill="#7D8198"/>
<path d="M17.1471 8.31507C17.3944 7.98202 17.8678 7.90672 18.2045 8.14689C19.8705 9.33511 20.713 10.6887 20.9384 12.0231C21.1601 13.3365 20.7677 14.5401 20.133 15.4149C19.214 16.8489 17.4185 17.4894 15.6543 17.6004C13.8555 17.7135 11.8744 17.2976 10.3622 16.3843C10.0077 16.1701 9.89936 15.7125 10.1203 15.3621C10.3413 15.0118 10.8079 14.9014 11.1624 15.1155C12.3785 15.85 14.0431 16.2125 15.5707 16.1164C17.1237 16.0188 18.326 15.4688 18.8634 14.6167L18.8776 14.5942L18.8934 14.5727C19.3286 13.9803 19.5954 13.1651 19.4458 12.279C19.2979 11.4032 18.7266 10.364 17.309 9.35297C16.9723 9.1128 16.8998 8.64812 17.1471 8.31507Z" fill="#7D8198"/>
</svg>
