<svg width="24" height="24" viewBox="0 0 24 24" fill="none" xmlns="http://www.w3.org/2000/svg">
<path d="M3.22057 4.28265L19.7171 20.7791C20.01 21.072 20.4849 21.0719 20.7778 20.7791C21.0707 20.4862 21.0707 20.0113 20.7778 19.7184L4.28122 3.22199C3.98833 2.92909 3.51345 2.9291 3.22056 3.22199C2.92767 3.51489 2.92767 3.98976 3.22057 4.28265Z" fill="#7D8198"/>
<path d="M20.6088 13.0582C20.1554 13.5904 19.3977 14.4151 18.42 15.2383L17.355 14.1734C18.2947 13.3955 19.0302 12.5982 19.467 12.0854C19.4935 12.0544 19.5014 12.0246 19.5014 12C19.5014 11.9755 19.4935 11.9457 19.467 11.9147C18.909 11.2597 17.8636 10.1403 16.5277 9.19011C15.1837 8.23408 13.6168 7.50005 12 7.50005C11.599 7.50005 11.201 7.5452 10.8088 7.6277L9.58813 6.40715C10.3512 6.15401 11.1601 6.00005 12 6.00005C14.0584 6.00005 15.9309 6.92483 17.3972 7.96778C18.8716 9.01655 20.0077 10.2363 20.6088 10.9419C21.1323 11.5563 21.1323 12.4438 20.6088 13.0582Z" fill="#7D8198"/>
<path d="M5.57932 8.76236L6.64427 9.82723C5.70491 10.605 4.9697 11.4021 4.53292 11.9147C4.5065 11.9457 4.49854 11.9755 4.49854 12C4.49854 12.0246 4.5065 12.0544 4.53292 12.0854C5.09101 12.7404 6.13633 13.8598 7.47223 14.81C8.81631 15.766 10.3831 16.5 12 16.5C12.4007 16.5 12.7983 16.455 13.1902 16.3726L14.4109 17.5932C13.6482 17.8462 12.8395 18 12 18C9.9416 18 8.06908 17.0753 6.6028 16.0323C5.12834 14.9835 3.99231 13.7638 3.39114 13.0582C2.86767 12.4438 2.86767 11.5563 3.39114 10.9419C3.84447 10.4098 4.60194 9.58539 5.57932 8.76236Z" fill="#7D8198"/>
<path d="M9.00578 12.1886C9.09921 13.6953 10.3049 14.9009 11.8117 14.9942L9.00578 12.1886Z" fill="#7D8198"/>
<path d="M12.187 9.00578L14.9942 11.8128C14.9014 10.305 13.6948 9.09852 12.187 9.00578Z" fill="#7D8198"/>
</svg>
