<svg width="24" height="24" viewBox="0 0 24 24" fill="none" xmlns="http://www.w3.org/2000/svg">
<path d="M9.22534 9.222C9.51838 8.92926 9.99349 8.92926 10.2865 9.222L12.0072 10.941L13.7279 9.22203C14.021 8.92929 14.4961 8.92929 14.7891 9.22203C15.0822 9.51477 15.0822 9.98941 14.7891 10.2822L13.0684 12.0011L14.7891 13.72C15.0822 14.0128 15.0822 14.4874 14.7891 14.7801C14.4961 15.0729 14.021 15.0729 13.7279 14.7801L12.0072 13.0612L10.2865 14.7802C9.99349 15.0729 9.51838 15.0729 9.22534 14.7802C8.93229 14.4874 8.93229 14.0128 9.22534 13.72L10.946 12.0011L9.22534 10.2821C8.93229 9.98938 8.93229 9.51474 9.22534 9.222Z" fill="#7D8198"/>
<path fill-rule="evenodd" clip-rule="evenodd" d="M9.20384 3.99707C8.47444 3.99707 7.77493 4.28684 7.25919 4.80263L4.80609 7.25599C4.29042 7.77171 4.00073 8.47114 4.00073 9.20044V14.7937C4.00073 15.523 4.29042 16.2224 4.80609 16.7381L7.25919 19.1915C7.77493 19.7073 8.47444 19.9971 9.20384 19.9971H14.7961C15.5255 19.9971 16.225 19.7073 16.7407 19.1915L19.1939 16.7381C19.7095 16.2224 19.9992 15.523 19.9992 14.7937V9.20044C19.9992 8.47114 19.7095 7.77171 19.1939 7.25599L16.7407 4.80263C16.225 4.28684 15.5255 3.99707 14.7961 3.99707H9.20384ZM8.31991 5.86323C8.55433 5.62878 8.8723 5.49707 9.20384 5.49707H14.7961C15.1276 5.49707 15.4456 5.62878 15.68 5.86323L18.1331 8.3166C18.3675 8.55101 18.4992 8.86894 18.4992 9.20044V14.7937C18.4992 15.1252 18.3675 15.4431 18.1331 15.6775L15.68 18.1309C15.4456 18.3654 15.1276 18.4971 14.7961 18.4971H9.20384C8.8723 18.4971 8.55433 18.3654 8.31991 18.1309L5.8668 15.6775C5.63241 15.4431 5.50073 15.1252 5.50073 14.7937V9.20044C5.50073 8.86894 5.63241 8.55102 5.8668 8.3166L8.31991 5.86323Z" fill="#7D8198"/>
</svg>
