<svg width="24" height="24" viewBox="0 0 24 24" fill="none" xmlns="http://www.w3.org/2000/svg">
<path d="M7 7.3C7 7.13431 7.13431 7 7.3 7H7.7C7.86569 7 8 7.13431 8 7.3V7.7C8 7.86569 7.86569 8 7.7 8H7.3C7.13431 8 7 7.86569 7 7.7V7.3Z" fill="#7D8198"/>
<path d="M10 7.3C10 7.13431 10.1343 7 10.3 7H10.7C10.8657 7 11 7.13431 11 7.3V7.7C11 7.86569 10.8657 8 10.7 8H10.3C10.1343 8 10 7.86569 10 7.7V7.3Z" fill="#7D8198"/>
<path d="M13 7.3C13 7.13431 13.1343 7 13.3 7H13.7C13.8657 7 14 7.13431 14 7.3V7.7C14 7.86569 13.8657 8 13.7 8H13.3C13.1343 8 13 7.86569 13 7.7V7.3Z" fill="#7D8198"/>
<path d="M16 7.3C16 7.13431 16.1343 7 16.3 7H16.7C16.8657 7 17 7.13431 17 7.3V7.7C17 7.86569 16.8657 8 16.7 8H16.3C16.1343 8 16 7.86569 16 7.7V7.3Z" fill="#7D8198"/>
<path d="M7 16.3C7 16.1343 7.13431 16 7.3 16H7.7C7.86569 16 8 16.1343 8 16.3V16.7C8 16.8657 7.86569 17 7.7 17H7.3C7.13431 17 7 16.8657 7 16.7V16.3Z" fill="#7D8198"/>
<path d="M10 16.3C10 16.1343 10.1343 16 10.3 16H10.7C10.8657 16 11 16.1343 11 16.3V16.7C11 16.8657 10.8657 17 10.7 17H10.3C10.1343 17 10 16.8657 10 16.7V16.3Z" fill="#7D8198"/>
<path d="M13 16.3C13 16.1343 13.1343 16 13.3 16H13.7C13.8657 16 14 16.1343 14 16.3V16.7C14 16.8657 13.8657 17 13.7 17H13.3C13.1343 17 13 16.8657 13 16.7V16.3Z" fill="#7D8198"/>
<path d="M16 16.3C16 16.1343 16.1343 16 16.3 16H16.7C16.8657 16 17 16.1343 17 16.3V16.7C17 16.8657 16.8657 17 16.7 17H16.3C16.1343 17 16 16.8657 16 16.7V16.3Z" fill="#7D8198"/>
<path fill-rule="evenodd" clip-rule="evenodd" d="M4 6.75C4 5.23122 5.23122 4 6.75 4H17.25C18.7688 4 20 5.23122 20 6.75V17.25C20 18.7688 18.7688 20 17.25 20H6.75C5.23122 20 4 18.7688 4 17.25V6.75ZM6.75 5.5C6.05964 5.5 5.5 6.05964 5.5 6.75V17.25C5.5 17.9404 6.05964 18.5 6.75 18.5H17.25C17.9404 18.5 18.5 17.9404 18.5 17.25V6.75C18.5 6.05964 17.9404 5.5 17.25 5.5H6.75Z" fill="#7D8198"/>
<path d="M10 13.508V10.4921C10 10.1201 10.3917 9.87838 10.7242 10.0452L13.7302 11.5531C14.0979 11.7376 14.0979 12.2624 13.7302 12.4469L10.7242 13.9549C10.3917 14.1217 10 13.8799 10 13.508Z" fill="#7D8198"/>
</svg>
