<svg width="24" height="24" viewBox="0 0 24 24" fill="none" xmlns="http://www.w3.org/2000/svg">
<path d="M9.75 6C9.33579 6 9 6.33579 9 6.75C9 7.16421 9.33579 7.5 9.75 7.5H15.4398L11.2196 11.7218C10.9267 12.0148 10.9268 12.4896 11.2198 12.7825C11.5127 13.0753 11.9876 13.0752 12.2804 12.7823L16.5 8.56108L16.5 14.25C16.5 14.6642 16.8358 15 17.25 15C17.6642 15 18 14.6642 18 14.25L18 6.75C18 6.33578 17.6642 6 17.25 6H9.75Z" fill="#7D8198"/>
<path d="M10 15C10 15.5523 9.55229 16 9 16C8.44772 16 8 15.5523 8 15C8 14.4477 8.44772 14 9 14C9.55229 14 10 14.4477 10 15Z" fill="#7D8198"/>
<path d="M6 18.9966C6.55228 18.9966 7 18.5489 7 17.9966C7 17.4443 6.55228 16.9966 6 16.9966C5.44772 16.9966 5 17.4443 5 17.9966C5 18.5489 5.44772 18.9966 6 18.9966Z" fill="#7D8198"/>
</svg>
