<svg width="24" height="24" viewBox="0 0 24 24" fill="none" xmlns="http://www.w3.org/2000/svg">
<path d="M12 8C12.0857 8 12.164 8.04842 12.2023 8.12507L13.2721 10.2645L15.8086 10.6548C15.8929 10.6677 15.9627 10.727 15.9892 10.808C16.0157 10.889 15.9945 10.9781 15.9342 11.0384L14.1791 12.7934L14.5697 15.3323C14.5827 15.4166 14.5472 15.501 14.4778 15.5506C14.4085 15.6003 14.3171 15.6067 14.2415 15.5672L12 14.3978L9.7585 15.5672C9.68288 15.6067 9.59151 15.6003 9.52215 15.5506C9.4528 15.501 9.41726 15.4166 9.43023 15.3323L9.82082 12.7934L8.06578 11.0384C8.0055 10.9781 7.98422 10.889 8.01075 10.808C8.03727 10.727 8.10709 10.6677 8.19136 10.6548L10.7279 10.2645L11.7976 8.12507C11.8359 8.04842 11.9143 8 12 8Z" fill="#7D8198"/>
<path fill-rule="evenodd" clip-rule="evenodd" d="M6.75 4C5.23122 4 4 5.23122 4 6.75V17.25C4 18.7688 5.23122 20 6.75 20H17.25C18.7688 20 20 18.7688 20 17.25V6.75C20 5.23122 18.7688 4 17.25 4H6.75ZM5.5 6.75C5.5 6.05964 6.05964 5.5 6.75 5.5H17.25C17.9404 5.5 18.5 6.05964 18.5 6.75V17.25C18.5 17.9404 17.9404 18.5 17.25 18.5H6.75C6.05964 18.5 5.5 17.9404 5.5 17.25V6.75Z" fill="#7D8198"/>
</svg>
