<svg width="24" height="24" viewBox="0 0 24 24" fill="none" xmlns="http://www.w3.org/2000/svg">
<path d="M3.22051 4.28253L19.7171 20.7789C20.01 21.0718 20.4849 21.0718 20.7777 20.7789C21.0706 20.486 21.0706 20.0112 20.7777 19.7183L4.28117 3.22186C3.98827 2.92897 3.5134 2.92898 3.22051 3.22187C2.92762 3.51476 2.92762 3.98964 3.22051 4.28253Z" fill="#7D8198"/>
<path d="M20.6573 16.8797C20.5134 16.9727 20.3444 17.0124 20.1785 16.9965L17.2682 14.0865L19.5 15.0902V8.90961L15.9974 10.485V12.8157L14.4974 11.3158V8.76531C14.4974 8.07495 13.9377 7.51531 13.2474 7.51531L10.6965 7.51531L9.19641 6.01531H13.2474C14.7661 6.01531 15.9974 7.24652 15.9974 8.76531V8.84024L19.9424 7.06592C20.1744 6.96154 20.4436 6.98196 20.6573 7.12015C20.871 7.25834 21 7.49546 21 7.74993V16.2499C21 16.5044 20.871 16.7415 20.6573 16.8797Z" fill="#7D8198"/>
<path d="M4.49736 8.76531C4.49736 8.46214 4.60528 8.18419 4.78481 7.96776L3.72201 6.90505C3.27206 7.39468 2.99736 8.04791 2.99736 8.76531V15.2653C2.99736 16.7841 4.22858 18.0153 5.74736 18.0153H13.2474C13.707 18.0153 14.1402 17.9026 14.521 17.7032L13.3303 16.5126C13.3029 16.5144 13.2752 16.5153 13.2474 16.5153H5.74736C5.057 16.5153 4.49736 15.9557 4.49736 15.2653L4.49736 8.76531Z" fill="#7D8198"/>
</svg>
