<svg width="24" height="24" viewBox="0 0 24 24" fill="none" xmlns="http://www.w3.org/2000/svg">
<path fill-rule="evenodd" clip-rule="evenodd" d="M14 5C12.6938 5 11.5825 5.83481 11.1707 7H4.74792C4.33371 7 3.99792 7.33579 3.99792 7.75C3.99792 8.16421 4.33371 8.5 4.74792 8.5H11.0415C11.2795 9.91886 12.5135 11 14 11C15.4865 11 16.7205 9.91886 16.9585 8.5H19.25C19.6642 8.5 20 8.16421 20 7.75C20 7.33579 19.6642 7 19.25 7H16.8293C16.4175 5.83481 15.3062 5 14 5ZM12.5 8C12.5 7.17157 13.1716 6.5 14 6.5C14.8284 6.5 15.5 7.17157 15.5 8C15.5 8.82843 14.8284 9.5 14 9.5C13.1716 9.5 12.5 8.82843 12.5 8Z" fill="#7D8198"/>
<path fill-rule="evenodd" clip-rule="evenodd" d="M12.8279 14.9961C12.415 13.8329 11.3048 13 10 13C8.69524 13 7.58503 13.8329 7.17209 14.9961H4.74794C4.33373 14.9961 3.99794 15.3319 3.99794 15.7461C3.99794 16.1603 4.33373 16.4961 4.74794 16.4961H7.04083C7.27725 17.9169 8.51214 19 10 19C11.4879 19 12.7227 17.9169 12.9592 16.4961H19.2468C19.661 16.4961 19.9968 16.1603 19.9968 15.7461C19.9968 15.3319 19.661 14.9961 19.2468 14.9961H12.8279ZM11.5 16C11.5 15.1716 10.8284 14.5 10 14.5C9.17157 14.5 8.5 15.1716 8.5 16C8.5 16.8284 9.17157 17.5 10 17.5C10.8284 17.5 11.5 16.8284 11.5 16Z" fill="#7D8198"/>
</svg>
