<svg width="24" height="24" viewBox="0 0 24 24" fill="none" xmlns="http://www.w3.org/2000/svg">
<path fill-rule="evenodd" clip-rule="evenodd" d="M6.75 4C5.23122 4 4 5.23122 4 6.75V17.25C4 18.7688 5.23122 20 6.75 20H17.25C18.7688 20 20 18.7688 20 17.25V6.75C20 5.23122 18.7688 4 17.25 4H6.75ZM5.5 6.75C5.5 6.05964 6.05964 5.5 6.75 5.5H17.25C17.9404 5.5 18.5 6.05964 18.5 6.75V17.25C18.5 17.9404 17.9404 18.5 17.25 18.5H6.75C6.05964 18.5 5.5 17.9404 5.5 17.25V6.75ZM10.25 7C9.55964 7 9 7.55964 9 8.25V13.75C9 14.4404 9.55964 15 10.25 15H15.75C16.4404 15 17 14.4404 17 13.75V8.25C17 7.55964 16.4404 7 15.75 7H10.25ZM10.5 13.5V8.5H15.5V13.5H10.5Z" fill="#7D8198"/>
</svg>
