<svg width="24" height="24" viewBox="0 0 24 24" fill="none" xmlns="http://www.w3.org/2000/svg">
<path fill-rule="evenodd" clip-rule="evenodd" d="M9.74672 7C9.33251 7 8.99672 7.33579 8.99672 7.75V16.25C8.99672 16.6642 9.33251 17 9.74672 17C10.1609 17 10.4967 16.6642 10.4967 16.25V14H12.5026C12.5425 14 12.5824 13.9993 12.622 13.998L14.6502 16.7003C14.8988 17.0315 15.3689 17.0985 15.7002 16.8499C16.0315 16.6012 16.0985 16.1311 15.8498 15.7998L14.1793 13.5741C15.2658 12.9808 16 11.8276 16 10.5C16 8.56462 14.4398 7 12.5026 7H9.74672ZM10.4967 8.5V12.5H12.5026C13.6095 12.5 14.5 11.6088 14.5 10.5C14.5 9.39122 13.6095 8.5 12.5026 8.5H10.4967Z" fill="#7D8198"/>
<path fill-rule="evenodd" clip-rule="evenodd" d="M21 12C21 7.02944 16.9706 3 12 3C7.02944 3 3 7.02944 3 12C3 16.9706 7.02944 21 12 21C16.9706 21 21 16.9706 21 12ZM12 4.5C16.1421 4.5 19.5 7.85786 19.5 12C19.5 16.1421 16.1421 19.5 12 19.5C7.85786 19.5 4.5 16.1421 4.5 12C4.5 7.85786 7.85786 4.5 12 4.5Z" fill="#7D8198"/>
</svg>
