<svg width="24" height="24" viewBox="0 0 24 24" fill="none" xmlns="http://www.w3.org/2000/svg">
<path d="M10.9314 5.45148L13.0528 4.89736C13.1122 4.98283 13.1903 5.05727 13.2856 5.11391L16.5848 7.07545L14.5547 7.60571L10.9314 5.45148Z" fill="#7D8198"/>
<path d="M18.9992 6.44479L18.624 6.54278L15.0007 4.38856L16.1677 4.08374C17.5417 3.72482 18.9466 4.54776 19.3055 5.92182C19.3653 6.15083 19.2282 6.38497 18.9992 6.44479Z" fill="#7D8198"/>
<path d="M4.0668 9.90228C3.78892 8.83847 4.21945 7.7562 5.06569 7.15514C5.12027 7.22303 5.1877 7.28248 5.26697 7.32961L8.42455 9.20696L5.38857 9.99998H8.50114L5.50114 13L5.50001 13V16.25C5.50001 17.4926 6.50736 18.5 7.75001 18.5H16.25C17.4926 18.5 18.5 17.4926 18.5 16.25V13L16.0721 13L19.0721 9.99998H19.5C19.7761 9.99998 20 10.2238 20 10.5L20 16.25C20 18.321 18.3211 20 16.25 20H7.75001C5.67894 20 4.00001 18.321 4.00001 16.25L4 10.5C4 10.3411 4.07411 10.1995 4.18965 10.1079C4.13188 10.0543 4.08819 9.98418 4.0668 9.90228Z" fill="#7D8198"/>
<path d="M10.4638 8.67429L6.8405 6.52006L9.04782 5.9435C9.10998 6.06483 9.20596 6.17069 9.33179 6.24551L12.5155 8.13837L10.4638 8.67429Z" fill="#7D8198"/>
<path d="M7.62246 13L10.6225 9.99998H12.7885L9.78847 13H7.62246Z" fill="#7D8198"/>
<path d="M14.9098 9.99998L11.9098 13H13.9508L16.9508 9.99998H14.9098Z" fill="#7D8198"/>
</svg>
