<svg width="24" height="24" viewBox="0 0 24 24" fill="none" xmlns="http://www.w3.org/2000/svg">
<path d="M18 10C19.6569 10 21 8.65685 21 7C21 5.34315 19.6569 4 18 4C16.3431 4 15 5.34315 15 7C15 8.65685 16.3431 10 18 10Z" fill="#7D8198"/>
<path d="M6.75 6.5C6.05964 6.5 5.5 7.05964 5.5 7.75V8.18535L11.4091 11.3553C11.7782 11.5533 12.2218 11.5533 12.5909 11.3553L14.458 10.3537C14.823 10.1579 15.2776 10.2951 15.4734 10.6601C15.6692 11.0251 15.5321 11.4797 15.167 11.6756L13.3 12.6771C12.4881 13.1127 11.5119 13.1127 10.7 12.6771L5.5 9.88756V16.25C5.5 16.9404 6.05964 17.5 6.75 17.5H17.25C17.9404 17.5 18.5 16.9404 18.5 16.25V12.7528C18.5 12.3386 18.8358 12.0028 19.25 12.0028C19.6642 12.0028 20 12.3386 20 12.7528V16.25C20 17.7688 18.7688 19 17.25 19H6.75C5.23122 19 4 17.7688 4 16.25V7.75C4 6.23122 5.23122 5 6.75 5H12.25C12.6642 5 13 5.33579 13 5.75C13 6.16421 12.6642 6.5 12.25 6.5H6.75Z" fill="#7D8198"/>
</svg>
