<svg width="24" height="24" viewBox="0 0 24 24" fill="none" xmlns="http://www.w3.org/2000/svg">
    <path fill-rule="evenodd" clip-rule="evenodd"
        d="M12.75 3.75C12.75 3.33579 12.4142 3 12 3C11.5858 3 11.25 3.33579 11.25 3.75V6H6.92859C4.99559 6 3.42859 7.567 3.42859 9.5V14.5C3.42859 16.433 4.99559 18 6.92859 18H11.25V20.25C11.25 20.6642 11.5858 21 12 21C12.4142 21 12.75 20.6642 12.75 20.25V18H17.0714C19.0044 18 20.5714 16.433 20.5714 14.5V9.5C20.5714 7.567 19.0044 6 17.0714 6H12.75V3.75ZM11.25 7.5H6.92859C5.82402 7.5 4.92859 8.39543 4.92859 9.5V14.5C4.92859 15.6046 5.82402 16.5 6.92859 16.5H11.25V7.5ZM12.75 16.5V7.5H17.0714C18.176 7.5 19.0714 8.39543 19.0714 9.5V14.5C19.0714 15.6046 18.176 16.5 17.0714 16.5H12.75Z"
        fill="#C2C3CC" />
</svg>
