<svg width="24" height="24" viewBox="0 0 24 24" fill="none" xmlns="http://www.w3.org/2000/svg">
<path fill-rule="evenodd" clip-rule="evenodd" d="M8 5.5C7.17157 5.5 6.5 6.17157 6.5 7V17C6.5 17.8284 7.17157 18.5 8 18.5H16C16.8284 18.5 17.5 17.8284 17.5 17V10.75H15.25C13.5931 10.75 12.25 9.40685 12.25 7.75V5.5H8ZM13.75 6.56066L16.4393 9.25H15.25C14.4216 9.25 13.75 8.57843 13.75 7.75V6.56066ZM5 7C5 5.34315 6.34315 4 8 4H13C13.1989 4 13.3897 4.07902 13.5303 4.21967L18.7803 9.46967C18.921 9.61032 19 9.80109 19 10V17C19 18.6569 17.6569 20 16 20H8C6.34315 20 5 18.6569 5 17V7Z" fill="#BCBED2"/>
</svg>
