<svg width="24" height="24" viewBox="0 0 24 24" fill="none" xmlns="http://www.w3.org/2000/svg">
<path d="M5.23363 11.4577C5.08544 11.5993 5.00164 11.7953 5.00171 12.0003C5.00178 12.2052 5.08572 12.4012 5.23401 12.5427L10.7324 17.7881C11.0321 18.074 11.5068 18.0629 11.7927 17.7632C12.0786 17.4634 12.0675 16.9887 11.7678 16.7028L7.6245 12.7501H18.2524C18.6666 12.7501 19.0024 12.4143 19.0024 12.0001C19.0024 11.5859 18.6666 11.2501 18.2524 11.2501H7.62244L11.7681 7.28962C12.0676 7.0035 12.0785 6.52875 11.7924 6.22924C11.5062 5.92973 11.0315 5.91888 10.732 6.20501L5.23363 11.4577Z" fill="#7D8198"/>
</svg>
