<svg width="24" height="24" viewBox="0 0 24 24" fill="none" xmlns="http://www.w3.org/2000/svg">
<path d="M8.75179 11.25C8.33757 11.25 8.00179 11.5858 8.00179 12C8.00179 12.4142 8.33757 12.75 8.75179 12.75H15.2515C15.6657 12.75 16.0015 12.4142 16.0015 12C16.0015 11.5858 15.6657 11.25 15.2515 11.25H8.75179Z" fill="#7D8198"/>
<path fill-rule="evenodd" clip-rule="evenodd" d="M12 21C16.9706 21 21 16.9706 21 12C21 7.02944 16.9706 3 12 3C7.02944 3 3 7.02944 3 12C3 16.9706 7.02944 21 12 21ZM19.5 12C19.5 16.1421 16.1421 19.5 12 19.5C7.85786 19.5 4.5 16.1421 4.5 12C4.5 7.85786 7.85786 4.5 12 4.5C16.1421 4.5 19.5 7.85786 19.5 12Z" fill="#7D8198"/>
</svg>
