<svg width="24" height="24" viewBox="0 0 24 24" fill="none" xmlns="http://www.w3.org/2000/svg">
<path fill-rule="evenodd" clip-rule="evenodd" d="M4 6.75C4 5.23122 5.23122 4 6.75 4H17.25C18.7688 4 20 5.23122 20 6.75V17.25C20 18.7688 18.7688 20 17.25 20H6.75C5.23122 20 4 18.7688 4 17.25V6.75ZM6.75 5.5C6.05964 5.5 5.5 6.05964 5.5 6.75V11.25L7.25391 11.25C7.66812 11.25 8.00391 11.5858 8.00391 12C8.00391 12.4142 7.66812 12.75 7.25391 12.75L5.5 12.75V17.25C5.5 17.9404 6.05964 18.5 6.75 18.5H11.25V16.75C11.25 16.3358 11.5858 16 12 16C12.4142 16 12.75 16.3358 12.75 16.75V18.5H17.25C17.9404 18.5 18.5 17.9404 18.5 17.25V12.75H16.7512C16.3369 12.75 16.0012 12.4142 16.0012 12C16.0012 11.5858 16.3369 11.25 16.7512 11.25L18.5 11.25V6.75C18.5 6.05964 17.9404 5.5 17.25 5.5H12.75V7.25C12.75 7.66421 12.4142 8 12 8C11.5858 8 11.25 7.66421 11.25 7.25V5.5H6.75Z" fill="#7D8198"/>
</svg>
