<svg width="24" height="24" viewBox="0 0 24 24" fill="none" xmlns="http://www.w3.org/2000/svg">
<path d="M9.70455 11.25L10.7517 10.3075C11.0596 10.0304 11.0846 9.55614 10.8075 9.24826C10.5303 8.94039 10.0561 8.91545 9.74826 9.19255L7.24826 11.4427C7.09023 11.585 6.99999 11.7876 7 12.0002C7.00001 12.2128 7.09026 12.4154 7.2483 12.5577L9.7483 14.8075C10.0562 15.0846 10.5304 15.0596 10.8075 14.7517C11.0846 14.4438 11.0596 13.9696 10.7517 13.6925L9.70439 12.75H12.25C12.6642 12.75 13 12.4142 13 12C13 11.5858 12.6642 11.25 12.25 11.25H9.70455Z" fill="#7D8198"/>
<path d="M14.75 7C14.3358 7 14 7.33579 14 7.75V16.25C14 16.6642 14.3358 17 14.75 17H16.25C16.6642 17 17 16.6642 17 16.25V7.75C17 7.33579 16.6642 7 16.25 7H14.75Z" fill="#7D8198"/>
<path fill-rule="evenodd" clip-rule="evenodd" d="M4 6.75C4 5.23122 5.23122 4 6.75 4H17.25C18.7688 4 20 5.23122 20 6.75V17.25C20 18.7688 18.7688 20 17.25 20H6.75C5.23122 20 4 18.7688 4 17.25V6.75ZM6.75 5.5C6.05964 5.5 5.5 6.05964 5.5 6.75V17.25C5.5 17.9404 6.05964 18.5 6.75 18.5H17.25C17.9404 18.5 18.5 17.9404 18.5 17.25V6.75C18.5 6.05964 17.9404 5.5 17.25 5.5H6.75Z" fill="#7D8198"/>
</svg>
