<svg width="24" height="24" viewBox="0 0 24 24" fill="none" xmlns="http://www.w3.org/2000/svg">
<path fill-rule="evenodd" clip-rule="evenodd" d="M4.86832 3.2391C4.90455 3.10455 5.09545 3.10455 5.13167 3.2391L5.30888 3.89729C5.41312 4.28447 5.71555 4.5869 6.10273 4.69114L6.76092 4.86834C6.89547 4.90457 6.89547 5.09547 6.76092 5.13169L6.10273 5.3089C5.71555 5.41314 5.41312 5.71557 5.30888 6.10275L5.13167 6.76094C5.09545 6.89549 4.90455 6.89549 4.86832 6.76094L4.69112 6.10275C4.58688 5.71557 4.28445 5.41314 3.89727 5.3089L3.23908 5.13169C3.10453 5.09547 3.10453 4.90457 3.23908 4.86834L3.89727 4.69114C4.28445 4.5869 4.58688 4.28447 4.69112 3.89729L4.86832 3.2391ZM14.2195 3.56516C14.1591 3.34091 13.8409 3.34091 13.7806 3.56516L13.4852 4.66215C13.3115 5.30744 12.8074 5.8115 12.1621 5.98523L11.0651 6.28057C10.8409 6.34095 10.8409 6.65911 11.0651 6.71949L12.1621 7.01483C12.8074 7.18857 13.3115 7.69262 13.4852 8.33791L13.7806 9.4349C13.8409 9.65915 14.1591 9.65915 14.2195 9.4349L14.5148 8.33791C14.6885 7.69262 15.1926 7.18857 15.8379 7.01483L16.9349 6.71949C17.1591 6.65911 17.1591 6.34095 16.9349 6.28057L15.8379 5.98523C15.1926 5.8115 14.6885 5.30744 14.5148 4.66215L14.2195 3.56516ZM11.3206 9.55873L9.57873 11.3461L8.3648 10.1323C7.8784 9.64187 7.8784 8.85212 8.3648 8.3658C8.60592 8.12472 8.92603 8.00002 9.24615 8.00002C9.56626 8.00002 9.88637 8.12472 10.1316 8.3658L11.3206 9.55873ZM19.6352 19.6342C19.3899 19.8795 19.074 20 18.7539 20C18.4337 20 18.1178 19.8795 17.8725 19.6342L10.4642 12.2272L12.2061 10.4399L19.6352 17.8719C20.1216 18.3582 20.1216 19.1479 19.6352 19.6342ZM8.20592 13.2649L8.08778 12.8261C8.06363 12.7364 7.93637 12.7364 7.91222 12.8261L7.79408 13.2649C7.72459 13.523 7.52296 13.7246 7.26485 13.7941L6.82605 13.9122C6.73635 13.9364 6.73635 14.0637 6.82605 14.0878L7.26485 14.2059C7.52296 14.2754 7.72459 14.4771 7.79408 14.7352L7.91222 15.174C7.93637 15.2637 8.06363 15.2637 8.08778 15.174L8.20592 14.7352C8.27541 14.4771 8.47703 14.2754 8.73515 14.2059L9.17395 14.0878C9.26365 14.0637 9.26365 13.9364 9.17395 13.9122L8.73515 13.7941C8.47703 13.7246 8.27541 13.523 8.20592 13.2649Z" fill="#5B53FF"/>
</svg>
