<svg width="24" height="24" viewBox="0 0 24 24" fill="none" xmlns="http://www.w3.org/2000/svg">
<path fill-rule="evenodd" clip-rule="evenodd" d="M9.75 8C8.86838 8 8.13903 7.34807 8.01772 6.5H7.75C7.05964 6.5 6.5 7.05964 6.5 7.75L6.5 17.25C6.5 17.9404 7.05964 18.5 7.75 18.5H9.25C9.66421 18.5 10 18.8358 10 19.25C10 19.6642 9.66421 20 9.25 20H7.75C6.23122 20 5 18.7688 5 17.25V7.75C5 6.23122 6.23122 5 7.75 5H8V4.75C8 3.7835 8.7835 3 9.75 3H13.25C14.2165 3 15 3.7835 15 4.75V5H15.25C16.7688 5 18 6.23122 18 7.75V8.25C18 8.66421 17.6642 9 17.25 9C16.8358 9 16.5 8.66421 16.5 8.25V7.75C16.5 7.05964 15.9404 6.5 15.25 6.5H14.9823C14.861 7.34807 14.1316 8 13.25 8H9.75ZM9.5 6.25C9.5 6.38807 9.61193 6.5 9.75 6.5H13.25C13.3881 6.5 13.5 6.38807 13.5 6.25V4.75C13.5 4.61193 13.3881 4.5 13.25 4.5L9.75 4.5C9.61193 4.5 9.5 4.61193 9.5 4.75V6.25Z" fill="#7D8198"/>
<path fill-rule="evenodd" clip-rule="evenodd" d="M13.75 11C12.7835 11 12 11.7835 12 12.75V19.25C12 20.2165 12.7835 21 13.75 21H18.25C19.2165 21 20 20.2165 20 19.25V12.75C20 11.7835 19.2165 11 18.25 11H13.75ZM13.5 12.75C13.5 12.6119 13.6119 12.5 13.75 12.5H18.25C18.3881 12.5 18.5 12.6119 18.5 12.75V19.25C18.5 19.3881 18.3881 19.5 18.25 19.5H13.75C13.6119 19.5 13.5 19.3881 13.5 19.25V12.75Z" fill="#7D8198"/>
</svg>
