<svg width="24" height="24" viewBox="0 0 24 24" fill="none" xmlns="http://www.w3.org/2000/svg">
<path d="M5.3112 6.75024C5.17381 6.9051 4.9733 7.00269 4.75 7.00269C4.33579 7.00269 4 6.6669 4 6.25269V5.75269C4 5.33847 4.33579 5.00269 4.75 5.00269C4.97094 5.00269 5.16957 5.09822 5.30683 5.25024L14.6922 5.25024C14.8294 5.09822 15.0281 5.00269 15.249 5.00269C15.6632 5.00269 15.999 5.33847 15.999 5.75269V6.25269C15.999 6.6669 15.6632 7.00269 15.249 7.00269C15.0257 7.00269 14.8252 6.9051 14.6878 6.75024H10.749V17.5H12.25C12.6642 17.5 13 17.8358 13 18.25C13 18.6642 12.6642 19 12.25 19H7.75C7.33579 19 7 18.6642 7 18.25C7 17.8358 7.33579 17.5 7.75 17.5H9.24902V6.75024H5.3112Z" fill="#7D8198"/>
<path d="M17.5 18C17.0858 18 16.75 17.6642 16.75 17.25V15.25H14.75C14.3358 15.25 14 14.9142 14 14.5C14 14.0858 14.3358 13.75 14.75 13.75H16.75V11.75C16.75 11.3358 17.0858 11 17.5 11C17.9142 11 18.25 11.3358 18.25 11.75V13.75H20.25C20.6642 13.75 21 14.0858 21 14.5C21 14.9142 20.6642 15.25 20.25 15.25L18.25 15.25V17.25C18.25 17.6642 17.9142 18 17.5 18Z" fill="#7D8198"/>
</svg>
