<svg width="24" height="24" viewBox="0 0 24 24" fill="none" xmlns="http://www.w3.org/2000/svg">
<path fill-rule="evenodd" clip-rule="evenodd" d="M8.0779 3.41459C8.20494 3.1605 8.46464 3 8.74872 3H15.2487C15.5328 3 15.7925 3.1605 15.9195 3.41459L16.7122 5H18.2487C19.7675 5 20.9987 6.23122 20.9987 7.75V16.25C20.9987 17.7688 19.7675 19 18.2487 19H17.7487C17.3345 19 16.9987 18.6642 16.9987 18.25C16.9987 17.8358 17.3345 17.5 17.7487 17.5H18.2487C18.9391 17.5 19.4987 16.9404 19.4987 16.25V7.75C19.4987 7.05964 18.9391 6.5 18.2487 6.5H16.2487C15.9646 6.5 15.7049 6.3395 15.5779 6.08541L14.7852 4.5H9.21224L8.41954 6.08541C8.29249 6.3395 8.0328 6.5 7.74872 6.5H5.74872C5.05836 6.5 4.49872 7.05964 4.49872 7.75V16.25C4.49872 16.9404 5.05836 17.5 5.74872 17.5H6.24872C6.66293 17.5 6.99872 17.8358 6.99872 18.25C6.99872 18.6642 6.66293 19 6.24872 19H5.74872C4.22994 19 2.99872 17.7688 2.99872 16.25V7.75C2.99872 6.23122 4.22994 5 5.74872 5H7.28519L8.0779 3.41459Z" fill="#7D8198"/>
<path fill-rule="evenodd" clip-rule="evenodd" d="M15.4987 14C15.4987 12.067 13.9317 10.5 11.9987 10.5C10.0657 10.5 8.49872 12.067 8.49872 14C8.49872 15.933 10.0657 17.5 11.9987 17.5C13.9317 17.5 15.4987 15.933 15.4987 14ZM11.9987 9C14.7601 9 16.9987 11.2386 16.9987 14C16.9987 16.7614 14.7601 19 11.9987 19C9.23729 19 6.99872 16.7614 6.99872 14C6.99872 11.2386 9.23729 9 11.9987 9Z" fill="#7D8198"/>
<path fill-rule="evenodd" clip-rule="evenodd" d="M9.99744 6.75C9.99744 6.33579 10.3332 6 10.7474 6H13.25C13.6642 6 14 6.33579 14 6.75C14 7.16421 13.6642 7.5 13.25 7.5H10.7474C10.3332 7.5 9.99744 7.16421 9.99744 6.75Z" fill="#7D8198"/>
</svg>
