<svg width="24" height="24" viewBox="0 0 24 24" fill="none" xmlns="http://www.w3.org/2000/svg">
<path d="M9.75 16.5C9.33579 16.5 9 16.8358 9 17.25C9 17.6642 9.33579 18 9.75 18H14.25C14.6642 18 15 17.6642 15 17.25C15 16.8358 14.6642 16.5 14.25 16.5H9.75Z" fill="#7D8198"/>
<path fill-rule="evenodd" clip-rule="evenodd" d="M7.75 3C6.23122 3 5 4.23122 5 5.75V18.25C5 19.7688 6.23122 21 7.75 21H16.25C17.7688 21 19 19.7688 19 18.25V5.75C19 4.23122 17.7688 3 16.25 3H7.75ZM6.5 5.75C6.5 5.05964 7.05964 4.5 7.75 4.5H16.25C16.9404 4.5 17.5 5.05964 17.5 5.75V18.25C17.5 18.9404 16.9404 19.5 16.25 19.5H7.75C7.05964 19.5 6.5 18.9404 6.5 18.25V5.75Z" fill="#7D8198"/>
</svg>
