<svg width="24" height="24" viewBox="0 0 24 24" fill="none" xmlns="http://www.w3.org/2000/svg">
<path d="M20.7804 3.21966C20.6397 3.07901 20.4489 3 20.25 3L15.75 3.00011C15.3358 3.00012 15 3.33591 15 3.75013C15.0001 4.16434 15.3358 4.50012 15.7501 4.50011L18.4393 4.50004L12.2197 10.7196C11.9268 11.0125 11.9268 11.4874 12.2197 11.7803C12.5126 12.0732 12.9874 12.0732 13.2803 11.7803L19.5001 5.56057L19.5001 8.2499C19.5001 8.66411 19.8359 8.9999 20.2501 8.9999C20.6643 8.99989 21.0001 8.6641 21.0001 8.24989L21 3.74999C21 3.55108 20.921 3.36031 20.7804 3.21966Z" fill="#7D8198"/>
<path d="M6.5 7.74996C6.5 7.05961 7.05964 6.49996 7.75 6.49996H12.25C12.6642 6.49996 13 6.16418 13 5.74996C13 5.33575 12.6642 4.99996 12.25 4.99996H7.75C6.23122 4.99996 5 6.23118 5 7.74996V16.25C5 17.7687 6.23122 19 7.75 19H16.25C17.7688 19 19 17.7687 19 16.25V11.75C19 11.3357 18.6642 11 18.25 11C17.8358 11 17.5 11.3357 17.5 11.75V16.25C17.5 16.9403 16.9404 17.5 16.25 17.5H7.75C7.05964 17.5 6.5 16.9403 6.5 16.25V7.74996Z" fill="#7D8198"/>
</svg>
