<svg width="24" height="24" viewBox="0 0 24 24" fill="none" xmlns="http://www.w3.org/2000/svg">
<path d="M14.25 8.5C14.6643 8.5 15 8.16421 15 7.75C15 7.33579 14.6643 7 14.25 7H9.75C9.33579 7 9 7.33579 9 7.75C9 8.16421 9.33579 8.5 9.75 8.5H14.25Z" fill="#7D8198"/>
<path d="M15 11.75C15 12.1642 14.6643 12.5 14.25 12.5H9.75C9.33579 12.5 9 12.1642 9 11.75C9 11.3358 9.33579 11 9.75 11H14.25C14.6643 11 15 11.3358 15 11.75Z" fill="#7D8198"/>
<path d="M14.25 16.5C14.6643 16.5 15 16.1642 15 15.75C15 15.3358 14.6643 15 14.25 15H9.75C9.33579 15 9 15.3358 9 15.75C9 16.1642 9.33579 16.5 9.75 16.5H14.25Z" fill="#7D8198"/>
<path fill-rule="evenodd" clip-rule="evenodd" d="M7.75 3C6.23122 3 5 4.23122 5 5.75V18.25C5 19.7688 6.23122 21 7.75 21H16.2479C17.7667 21 18.9979 19.7688 18.9979 18.25V5.75C18.9979 4.23122 17.7667 3 16.2479 3H7.75ZM6.5 5.75C6.5 5.05964 7.05964 4.5 7.75 4.5H16.2479C16.9383 4.5 17.4979 5.05964 17.4979 5.75V18.25C17.4979 18.9404 16.9383 19.5 16.2479 19.5H7.75C7.05964 19.5 6.5 18.9404 6.5 18.25V5.75Z" fill="#7D8198"/>
</svg>
