<svg width="24" height="24" viewBox="0 0 24 24" fill="none" xmlns="http://www.w3.org/2000/svg">
<path fill-rule="evenodd" clip-rule="evenodd" d="M12 19.5C16.1421 19.5 19.5 16.1421 19.5 12C19.5 7.85787 16.1421 4.5 12 4.5C7.85786 4.5 4.5 7.85786 4.5 12C4.5 16.1421 7.85786 19.5 12 19.5ZM21 12C21 16.9706 16.9706 21 12 21C7.02944 21 3 16.9706 3 12C3 7.02944 7.02944 3 12 3C16.9706 3 21 7.02944 21 12ZM12.6282 7.00476C10.7633 7.00476 9.25146 8.51663 9.25146 10.3815V14.2942L8.30769 13.2446C8.03072 12.9366 7.55652 12.9114 7.24852 13.1884C6.94051 13.4654 6.91535 13.9396 7.19231 14.2476L9.44389 16.7515C9.58612 16.9096 9.78881 17 10.0015 17C10.2142 17 10.4169 16.9097 10.5592 16.7516L12.8115 14.2477C13.0885 13.9397 13.0634 13.4655 12.7555 13.1885C12.4475 12.9115 11.9733 12.9366 11.6963 13.2445L10.7515 14.2949V10.3815C10.7515 9.34506 11.5918 8.50476 12.6282 8.50476C13.6791 8.50476 14.5049 9.41234 14.5049 10.2516C14.5049 10.6658 14.8407 11.0016 15.2549 11.0016C15.6691 11.0016 16.0049 10.6658 16.0049 10.2516C16.0049 8.55513 14.4785 7.00476 12.6282 7.00476Z" fill="#7D8198"/>
</svg>
