<svg width="24" height="24" viewBox="0 0 24 24" fill="none" xmlns="http://www.w3.org/2000/svg">
<path fill-rule="evenodd" clip-rule="evenodd" d="M7.70702 5.90643C7.94364 5.65029 8.27649 5.50464 8.62519 5.50464H15.3748C15.7235 5.50464 16.0564 5.65029 16.293 5.90643L18.1682 7.93628C18.1873 7.95696 18.2056 7.97821 18.2232 8H5.77682C5.79439 7.97821 5.81273 7.95696 5.83183 7.93628L7.70702 5.90643ZM5.5 9.5V17.2546C5.5 17.945 6.05964 18.5046 6.75 18.5046H17.25C17.9404 18.5046 18.5 17.945 18.5 17.2546V9.5H5.5ZM8.62519 4.00464C7.85805 4.00464 7.12578 4.32508 6.60522 4.88857L4.73003 6.91843C4.26066 7.4265 4 8.0928 4 8.78449V17.2546C4 18.7734 5.23122 20.0046 6.75 20.0046H17.25C18.7688 20.0046 20 18.7734 20 17.2546V8.78449C20 8.0928 19.7393 7.4265 19.27 6.91843L17.3948 4.88857C16.8742 4.32508 16.1419 4.00464 15.3748 4.00464H8.62519ZM15 11.7528C15 12.167 14.6642 12.5028 14.25 12.5028H9.75C9.33579 12.5028 9 12.167 9 11.7528C9 11.3386 9.33579 11.0028 9.75 11.0028H14.25C14.6642 11.0028 15 11.3386 15 11.7528Z" fill="#7D8198"/>
</svg>
