<svg width="24" height="24" viewBox="0 0 24 24" fill="none" xmlns="http://www.w3.org/2000/svg">
<path fill-rule="evenodd" clip-rule="evenodd" d="M10.8952 3.06837C12.184 2.90825 13.492 3.03017 14.7295 3.42572C15.9669 3.82126 17.1042 4.481 18.0636 5.35945C19.0229 6.23788 19.7815 7.31421 20.2875 8.51444C20.7936 9.71467 21.0352 11.0105 20.9959 12.3132C20.9834 12.7272 20.6376 13.0527 20.2236 13.0402C19.8096 13.0277 19.4841 12.682 19.4965 12.2679C19.5294 11.1805 19.3277 10.0988 18.9054 9.09721C18.4831 8.09563 17.8503 7.19799 17.0506 6.46572C16.2509 5.73346 15.3032 5.1839 14.2728 4.8545C13.2423 4.5251 12.1532 4.42361 11.0801 4.55693C10.007 4.69024 8.97513 5.05524 8.05528 5.62706C7.13542 6.19889 6.34928 6.96407 5.75097 7.87031C5.15266 8.77655 4.75642 9.80233 4.58961 10.8773C4.42281 11.9523 4.48942 13.0508 4.78486 14.0973C4.89739 14.496 4.66545 14.9104 4.26682 15.0229C3.86818 15.1354 3.4538 14.9035 3.34127 14.5048C2.98732 13.2509 2.90753 11.935 3.10735 10.6473C3.30717 9.35955 3.78191 8.13029 4.49918 7.04386C5.21646 5.95742 6.15935 5.03945 7.26336 4.35315C8.36738 3.66684 9.60631 3.22849 10.8952 3.06837ZM11.6783 5.64565C12.6645 5.59561 13.6486 5.7763 14.5532 6.17334C14.9325 6.33982 15.105 6.78225 14.9385 7.16153C14.772 7.54082 14.3296 7.71334 13.9503 7.54686C13.2591 7.24347 12.5074 7.10551 11.7543 7.14372C11.0013 7.18193 10.2671 7.39527 9.60972 7.76715C8.95229 8.13903 8.38943 8.65938 7.96568 9.28747C7.54191 9.91558 7.26891 10.6342 7.16838 11.3868C7.11354 11.7973 6.73625 12.0857 6.32569 12.0309C5.91512 11.976 5.62675 11.5987 5.68159 11.1882C5.8127 10.2066 6.16885 9.26875 6.72221 8.44855C7.27559 7.62833 8.01114 6.94806 8.87118 6.46156C9.73124 5.97505 10.6922 5.69568 11.6783 5.64565ZM16.196 8.13155C16.5488 7.91463 17.0107 8.02484 17.2276 8.37772C18.14 9.86197 18.519 11.77 18.614 13.5712C18.7096 15.3842 18.5218 17.173 18.2322 18.4811C18.1427 18.8855 17.7423 19.1408 17.3379 19.0513C16.9335 18.9618 16.6782 18.5613 16.7677 18.1569C17.0289 16.9766 17.2044 15.3234 17.1161 13.6502C17.0272 11.9654 16.6752 10.3433 15.9498 9.16324C15.7329 8.81037 15.8431 8.34846 16.196 8.13155ZM11.9952 8.35279C12.8043 8.35172 13.5901 8.62239 14.2279 9.12116C14.8615 9.61669 15.3127 10.309 15.5116 11.0888C16.3859 14.0814 16.1103 17.4542 14.9436 20.2917C14.7861 20.6748 14.3479 20.8577 13.9648 20.7001C13.5817 20.5426 13.3988 20.1044 13.5563 19.7213C14.6067 17.1666 14.8431 14.1381 14.0683 11.4974L14.064 11.483L14.0604 11.4685C13.9444 11.0054 13.6778 10.5952 13.3038 10.3027C12.9299 10.0103 12.47 9.85216 11.9971 9.85279C11.5243 9.85341 11.0648 10.0128 10.6916 10.3062C10.3184 10.5996 10.0529 11.0105 9.93808 11.4739C9.86589 11.7653 9.88386 12.2025 9.95423 12.762C9.96642 12.8589 9.9788 12.9557 9.99118 13.0524C10.1217 14.0728 10.2516 15.0877 10.1379 16.1215C10.0092 17.2916 9.57736 18.4558 8.6022 19.7695C8.35532 20.1021 7.88555 20.1716 7.55296 19.9247C7.22036 19.6778 7.15088 19.208 7.39776 18.8754C8.23214 17.7514 8.55037 16.835 8.64686 15.9575C8.74011 15.1096 8.6336 14.2706 8.49875 13.2083C8.48797 13.1234 8.47701 13.0371 8.46596 12.9492C8.39627 12.3951 8.33558 11.7045 8.48212 11.1132C8.67701 10.3267 9.12808 9.62745 9.76445 9.12705C10.4009 8.6266 11.186 8.35386 11.9952 8.35279ZM11.5286 11.3351C11.8727 11.1045 12.3386 11.1964 12.5692 11.5405C12.7328 11.7844 12.8137 12.1197 12.8632 12.369C12.9202 12.6566 12.9635 12.9927 12.9962 13.3331C13.0617 14.0155 13.0897 14.7711 13.0884 15.3066C13.0873 15.7208 12.7507 16.0557 12.3365 16.0547C11.9223 16.0537 11.5873 15.717 11.5884 15.3028C11.5896 14.8112 11.5634 14.1049 11.503 13.4765C11.4728 13.1615 11.4353 12.8801 11.3918 12.6609C11.3593 12.4971 11.3316 12.4131 11.3214 12.3821C11.3155 12.3644 11.3154 12.3639 11.3233 12.3757C11.0926 12.0317 11.1846 11.5658 11.5286 11.3351ZM6.59802 13.548C7.01114 13.518 7.37037 13.8286 7.40037 14.2417L7.40046 14.2428C7.40064 14.2452 7.40112 14.2513 7.40199 14.2624L7.41917 14.4792C7.42749 14.5842 7.43674 14.7009 7.43782 14.7173C7.51177 15.8432 7.35867 17.1432 6.3569 18.1061C6.05828 18.3932 5.5835 18.3838 5.29645 18.0852C5.0094 17.7865 5.01879 17.3117 5.31741 17.0247C5.84433 16.5182 6.00405 15.7748 5.94105 14.8157C5.94105 14.8157 5.94083 14.8129 5.94027 14.8058C5.93943 14.795 5.93788 14.7752 5.9356 14.7462L5.90431 14.3503C5.87431 13.9372 6.18489 13.578 6.59802 13.548ZM12.2926 17.5857C12.6972 17.6744 12.9532 18.0744 12.8645 18.479C12.7563 18.9718 12.473 19.4502 12.2041 19.8237C11.9254 20.2106 11.6094 20.5568 11.3606 20.7935C11.0604 21.0789 10.5857 21.067 10.3003 20.7668C10.0148 20.4667 10.0268 19.9919 10.3269 19.7065C10.5156 19.5271 10.7683 19.2506 10.9868 18.9472C11.2149 18.6304 11.3569 18.351 11.3993 18.1575C11.4881 17.753 11.888 17.4969 12.2926 17.5857Z" fill="#7D8198"/>
</svg>
