<svg width="24" height="24" viewBox="0 0 24 24" fill="none" xmlns="http://www.w3.org/2000/svg">
<path fill-rule="evenodd" clip-rule="evenodd" d="M12.75 5.00415C12.3358 5.00415 12 5.34013 12 5.75458C12 6.16903 12.3358 6.5 12.75 6.5H17.5V11.25C17.5 11.6645 17.8358 12 18.25 12C18.6642 12 19 11.6645 19 11.25V5.75458C19 5.34013 18.6642 5.00415 18.25 5.00415H12.75ZM11.25 19.0042C11.6642 19.0042 12 18.6682 12 18.2537C12 17.8393 11.6642 17.5033 11.25 17.5033H6.5V12.7497C6.5 12.3353 6.16421 11.9993 5.75 11.9993C5.33579 11.9993 5 12.3353 5 12.7497V18.2537C5 18.6682 5.33579 19.0042 5.75 19.0042H11.25Z" fill="#7D8198"/>
</svg>
