<svg width="24" height="24" viewBox="0 0 24 24" fill="none" xmlns="http://www.w3.org/2000/svg">
<path fill-rule="evenodd" clip-rule="evenodd" d="M4 6.75C4 5.23122 5.23122 4 6.75 4H17.25C18.7688 4 20 5.23122 20 6.75V17.25C20 18.7688 18.7688 20 17.25 20H6.75C5.23122 20 4 18.7688 4 17.25V6.75ZM6.75 5.5C6.05964 5.5 5.5 6.05964 5.5 6.75V17.25C5.5 17.9404 6.05964 18.5 6.75 18.5H17.25C17.9404 18.5 18.5 17.9404 18.5 17.25V6.75C18.5 6.05964 17.9404 5.5 17.25 5.5H6.75Z" fill="#7D8198"/>
<path fill-rule="evenodd" clip-rule="evenodd" d="M12.3655 7C12.716 7 13 7.284 13 7.6345C13 7.923 13.198 8.1715 13.4675 8.278C13.51 8.29493 13.5521 8.3126 13.594 8.331C13.86 8.4465 14.175 8.4115 14.38 8.2065C14.499 8.08761 14.6603 8.02082 14.8285 8.02082C14.9967 8.02082 15.158 8.08761 15.277 8.2065L15.794 8.7235C15.9129 8.84248 15.9797 9.0038 15.9797 9.172C15.9797 9.3402 15.9129 9.50152 15.794 9.6205C15.5895 9.8255 15.5545 10.141 15.6695 10.4065C15.6877 10.4484 15.7052 10.4905 15.722 10.533C15.8285 10.8025 16.0765 11.0005 16.3655 11.0005C16.716 11.0005 17 11.2845 17 11.635V12.3655C17 12.716 16.716 13 16.3655 13C16.0765 13 15.8285 13.198 15.7225 13.4675C15.7055 13.51 15.688 13.5525 15.6695 13.594C15.554 13.86 15.589 14.175 15.794 14.38C15.9129 14.499 15.9797 14.6603 15.9797 14.8285C15.9797 14.9967 15.9129 15.158 15.794 15.277L15.277 15.794C15.2181 15.8529 15.1481 15.8997 15.0711 15.9316C14.9941 15.9635 14.9116 15.9799 14.8282 15.9799C14.7449 15.9799 14.6624 15.9635 14.5854 15.9316C14.5084 15.8997 14.4384 15.8529 14.3795 15.794C14.175 15.5895 13.8595 15.554 13.594 15.67C13.5525 15.688 13.51 15.7055 13.4675 15.722C13.198 15.8285 13 16.0765 13 16.3655C13 16.716 12.716 17 12.3655 17H11.6345C11.284 17 11 16.716 11 16.3655C11 16.0765 10.802 15.8285 10.5325 15.7225C10.49 15.7055 10.4475 15.688 10.406 15.6695C10.14 15.554 9.825 15.589 9.62 15.794C9.50102 15.9129 9.3397 15.9797 9.1715 15.9797C9.0033 15.9797 8.84198 15.9129 8.723 15.794L8.206 15.277C8.08711 15.158 8.02032 14.9967 8.02032 14.8285C8.02032 14.6603 8.08711 14.499 8.206 14.38C8.4105 14.175 8.4455 13.8595 8.33 13.594L8.32618 13.5849C8.30989 13.5463 8.29327 13.5069 8.2775 13.4675C8.1715 13.198 7.9235 13 7.6345 13C7.284 13 7 12.716 7 12.3655V11.6345C7 11.284 7.284 11 7.6345 11C7.9235 11 8.1715 10.802 8.2775 10.5325C8.29427 10.49 8.31177 10.4479 8.33 10.406C8.446 10.14 8.411 9.825 8.206 9.62C8.08711 9.50102 8.02032 9.3397 8.02032 9.1715C8.02032 9.0033 8.08711 8.84198 8.206 8.723L8.723 8.206C8.84198 8.08711 9.0033 8.02032 9.1715 8.02032C9.3397 8.02032 9.50102 8.08711 9.62 8.206C9.825 8.4105 10.1405 8.4455 10.406 8.3305C10.4475 8.3125 10.49 8.2945 10.5325 8.2775C10.802 8.1715 11 7.9235 11 7.6345C11 7.284 11.284 7 11.635 7H12.3655ZM13.4142 13.4142C13.7893 13.0391 14 12.5304 14 12C14 11.4696 13.7893 10.9609 13.4142 10.5858C13.0391 10.2107 12.5304 10 12 10C11.4696 10 10.9609 10.2107 10.5858 10.5858C10.2107 10.9609 10 11.4696 10 12C10 12.5304 10.2107 13.0391 10.5858 13.4142C10.9609 13.7893 11.4696 14 12 14C12.5304 14 13.0391 13.7893 13.4142 13.4142Z" fill="#7D8198"/>
</svg>
