<svg width="24" height="24" viewBox="0 0 24 24" fill="none" xmlns="http://www.w3.org/2000/svg">
<path d="M10.1313 8.10429C9.77463 7.89369 9.31476 8.01212 9.10417 8.3688C8.89357 8.72548 9.012 9.18535 9.36868 9.39595L13.7758 11.998L9.36822 14.6046C9.01169 14.8154 8.89359 15.2754 9.10443 15.6319C9.31528 15.9884 9.77524 16.1065 10.1318 15.8957L15.6318 12.6431C15.8601 12.508 16.0001 12.2625 16 11.9972C15.9999 11.732 15.8597 11.4865 15.6313 11.3517L10.1313 8.10429Z" fill="#7D8198"/>
<path fill-rule="evenodd" clip-rule="evenodd" d="M6.75 4C5.23122 4 4 5.23122 4 6.75V17.25C4 18.7688 5.23122 20 6.75 20H17.25C18.7688 20 20 18.7688 20 17.25V6.75C20 5.23122 18.7688 4 17.25 4H6.75ZM5.5 6.75C5.5 6.05964 6.05964 5.5 6.75 5.5H17.25C17.9404 5.5 18.5 6.05964 18.5 6.75V17.25C18.5 17.9404 17.9404 18.5 17.25 18.5H6.75C6.05964 18.5 5.5 17.9404 5.5 17.25V6.75Z" fill="#7D8198"/>
</svg>
