<svg width="24" height="24" viewBox="0 0 24 24" fill="none" xmlns="http://www.w3.org/2000/svg">
<path fill-rule="evenodd" clip-rule="evenodd" d="M16 16V14.8937C16 14.6377 16.0547 14.3856 16.1595 14.1523C16.2642 13.9191 16.4162 13.7107 16.604 13.5375C16.7917 13.3644 17.0119 13.2294 17.2508 13.1382C17.4896 13.0469 17.7441 13.0005 18 13.0005C18.2559 13.0005 18.5104 13.0469 18.7492 13.1382C18.9881 13.2294 19.2083 13.3644 19.396 13.5375C19.5838 13.7107 19.7358 13.9191 19.8405 14.1523C19.9453 14.3856 20 14.6377 20 14.8937V16C20.5523 16 21 16.4477 21 17V20C21 20.5523 20.5523 21 20 21H16C15.4477 21 15 20.5523 15 20V17C15 16.4477 15.4477 16 16 16ZM17.6969 14.3059C17.7917 14.2697 17.8948 14.2505 18 14.2505C18.1052 14.2505 18.2083 14.2697 18.3031 14.3059C18.3979 14.3421 18.4809 14.394 18.5485 14.4564C18.6161 14.5187 18.6667 14.5898 18.7002 14.6644C18.7336 14.7388 18.75 14.8165 18.75 14.8937V16H17.25V14.8937C17.25 14.8165 17.2664 14.7388 17.2998 14.6644C17.3333 14.5898 17.3839 14.5187 17.4515 14.4564C17.5191 14.394 17.6021 14.3421 17.6969 14.3059Z" fill="#7D8198"/>
<path fill-rule="evenodd" clip-rule="evenodd" d="M4.01298 16H4V7.75C4 6.23122 5.23122 5 6.75 5H9.9896C10.6631 5 11.3132 5.24717 11.8166 5.69462L12.9299 6.68426C13.1588 6.88765 13.4543 7 13.7604 7H18.2505C19.7693 7 21.0005 8.23122 21.0005 9.75V10.578C21.1482 10.6946 21.2767 10.8208 21.3868 10.9486C21.5828 11.1761 21.7223 11.4096 21.8166 11.608C21.9027 11.7892 21.9744 11.9904 21.9958 12.1602C22.0475 12.5712 21.7562 12.9463 21.3453 12.998C20.9398 13.049 20.5693 12.7662 20.5098 12.364C20.5106 12.3695 20.5108 12.3723 20.5108 12.3723C20.5108 12.3723 20.51 12.3704 20.5088 12.3666C20.5042 12.3528 20.4912 12.3137 20.4619 12.2519C20.4163 12.1561 20.3465 12.0393 20.2503 11.9276C20.0675 11.7153 19.7969 11.5253 19.3743 11.5048L8.30177 11.5048C7.80714 11.5048 7.35903 11.7964 7.15878 12.2487L5.6114 15.7437C5.2455 16.5701 5.85057 17.4998 6.75438 17.4998H12.25C12.6642 17.4998 13 17.8355 13 18.2498C13 18.664 12.6642 18.9998 12.25 18.9998H6.75438C5.0779 18.9998 3.86862 17.5459 4.01298 16ZM5.5 7.75C5.5 7.05964 6.05964 6.5 6.75 6.5H9.9896C10.2957 6.5 10.5912 6.61235 10.8201 6.81574L11.9334 7.80538C12.4368 8.25283 13.0869 8.5 13.7604 8.5H18.2505C18.9408 8.5 19.5005 9.05964 19.5005 9.75V10.0096C19.474 10.0079 19.4473 10.0065 19.4204 10.0054C19.4105 10.005 19.4005 10.0048 19.3906 10.0048L8.30178 10.0048C7.21359 10.0048 6.22774 10.6464 5.7872 11.6415L5.5 12.2901V7.75Z" fill="#7D8198"/>
</svg>
