<svg width="24" height="24" viewBox="0 0 24 24" fill="none" xmlns="http://www.w3.org/2000/svg">
<path d="M7.75 8C7.33579 8 7 8.33578 7 8.75C7 9.16421 7.33578 9.5 7.75 9.5L16.25 9.50005C16.6642 9.50005 17 9.16427 17 8.75005C17 8.33584 16.6642 8.00005 16.25 8.00005L7.75 8Z" fill="#7D8198"/>
<path d="M7 11.75C7 11.3358 7.33579 11 7.75 11L16.25 11C16.6642 11.0001 17 11.3358 17 11.7501C17 12.1643 16.6642 12.5001 16.25 12.5L7.75 12.5C7.33578 12.5 7 12.1642 7 11.75Z" fill="#7D8198"/>
<path d="M7.75146 14C7.33725 14 7.00146 14.3358 7.00146 14.75C7.00146 15.1642 7.33725 15.5 7.75146 15.5H14.2501C14.6643 15.5 15.0001 15.1642 15.0001 14.75C15.0001 14.3358 14.6643 14 14.2501 14H7.75146Z" fill="#7D8198"/>
<path fill-rule="evenodd" clip-rule="evenodd" d="M6.75 4C5.23122 4 4 5.23122 4 6.75V17.25C4 18.7688 5.23122 20 6.75 20H17.25C18.7688 20 20 18.7688 20 17.25V6.75C20 5.23122 18.7688 4 17.25 4H6.75ZM5.5 6.75C5.5 6.05964 6.05964 5.5 6.75 5.5H17.25C17.9404 5.5 18.5 6.05964 18.5 6.75V17.25C18.5 17.9404 17.9404 18.5 17.25 18.5H6.75C6.05964 18.5 5.5 17.9404 5.5 17.25V6.75Z" fill="#7D8198"/>
</svg>
