<svg width="24" height="24" viewBox="0 0 24 24" fill="none" xmlns="http://www.w3.org/2000/svg">
<path fill-rule="evenodd" clip-rule="evenodd" d="M15.25 2.99573C16.7688 2.99573 18 4.22695 18 5.74573L18 18.2457C18 19.7645 16.7688 20.9957 15.25 20.9957H8.75C7.23122 20.9957 6 19.7645 6 18.2457L6 5.74573C6 4.22694 7.23122 2.99573 8.75 2.99573L15.25 2.99573ZM16.5 5.74573C16.5 5.05537 15.9404 4.49573 15.25 4.49573L8.75 4.49573C8.05964 4.49573 7.5 5.05537 7.5 5.74573L7.5 18.2457C7.5 18.9361 8.05964 19.4957 8.75 19.4957H15.25C15.9404 19.4957 16.5 18.9361 16.5 18.2457L16.5 5.74573Z" fill="#7D8198"/>
</svg>
