<svg width="24" height="24" viewBox="0 0 24 24" fill="none" xmlns="http://www.w3.org/2000/svg">
<path d="M12 6C12.5523 6 13 5.55228 13 5C13 4.44772 12.5523 4 12 4C11.4477 4 11 4.44772 11 5C11 5.55228 11.4477 6 12 6Z" fill="#7D8198"/>
<path fill-rule="evenodd" clip-rule="evenodd" d="M12 19C15.0376 19 17.5 16.5376 17.5 13.5C17.5 10.4624 15.0376 8 12 8C8.96243 8 6.5 10.4624 6.5 13.5C6.5 16.5376 8.96243 19 12 19ZM12 17.5C14.2091 17.5 16 15.7091 16 13.5C16 11.2909 14.2091 9.5 12 9.5C9.79086 9.5 8 11.2909 8 13.5C8 14.2036 8.18164 14.8647 8.50059 15.4391L11.7239 12.2194C12.0169 11.9266 12.4918 11.9269 12.7845 12.22C13.0773 12.513 13.077 12.9879 12.7839 13.2806L9.46586 16.595C10.1558 17.1606 11.0383 17.5 12 17.5Z" fill="#7D8198"/>
<path d="M19 19C19.5523 19 20 18.5523 20 18C20 17.4477 19.5523 17 19 17C18.4477 17 18 17.4477 18 18C18 18.5523 18.4477 19 19 19Z" fill="#7D8198"/>
<path d="M6 18C6 18.5523 5.55228 19 5 19C4.44772 19 4 18.5523 4 18C4 17.4477 4.44772 17 5 17C5.55228 17 6 17.4477 6 18Z" fill="#7D8198"/>
<path d="M20 13C20.5523 13 21 12.5523 21 12C21 11.4477 20.5523 11 20 11C19.4477 11 19 11.4477 19 12C19 12.5523 19.4477 13 20 13Z" fill="#7D8198"/>
<path d="M5 12C5 12.5523 4.55228 13 4 13C3.44772 13 3 12.5523 3 12C3 11.4477 3.44772 11 4 11C4.55228 11 5 11.4477 5 12Z" fill="#7D8198"/>
<path d="M7 7C7 7.55228 6.55228 8 6 8C5.44772 8 5 7.55228 5 7C5 6.44772 5.44772 6 6 6C6.55228 6 7 6.44772 7 7Z" fill="#7D8198"/>
<path d="M18 8C18.5523 8 19 7.55228 19 7C19 6.44772 18.5523 6 18 6C17.4477 6 17 6.44772 17 7C17 7.55228 17.4477 8 18 8Z" fill="#7D8198"/>
</svg>
