<svg width="24" height="24" viewBox="0 0 24 24" fill="none" xmlns="http://www.w3.org/2000/svg">
<path fill-rule="evenodd" clip-rule="evenodd" d="M6.75 4C5.23122 4 4 5.23122 4 6.75V17.25C4 18.7683 5.22983 20 6.74907 20H10.25C10.6642 20 11 19.6642 11 19.25C11 18.8358 10.6642 18.5 10.25 18.5H6.74907C6.05917 18.5 5.5 17.9408 5.5 17.25V9.49866H18.5V10.25C18.5 10.6642 18.8358 11 19.25 11C19.6642 11 20 10.6642 20 10.25V6.75C20 5.23122 18.7688 4 17.25 4H6.75ZM18.5 7.99866V6.75C18.5 6.05964 17.9404 5.5 17.25 5.5H15.0292L16.7787 7.99866H18.5ZM13.198 5.5H9.55532L11.3049 7.99866H14.9476L13.198 5.5ZM7.72416 5.5H6.75C6.05964 5.5 5.5 6.05964 5.5 6.75V7.99866H9.47374L7.72416 5.5Z" fill="#7D8198"/>
<path fill-rule="evenodd" clip-rule="evenodd" d="M14.75 13C13.7835 13 13 13.7835 13 14.75V15.2496C13 15.6639 13.3358 15.9996 13.75 15.9996C14.1642 15.9996 14.5 15.6639 14.5 15.2496V14.75C14.5 14.6119 14.6119 14.5 14.75 14.5H15.25C15.6642 14.5 16 14.1642 16 13.75C16 13.3358 15.6642 13 15.25 13H14.75ZM21 14.75C21 13.7835 20.2165 13 19.25 13H18.7503C18.3361 13 18.0003 13.3358 18.0003 13.75C18.0003 14.1642 18.3361 14.5 18.7503 14.5H19.25C19.3881 14.5 19.5 14.6119 19.5 14.75V15.25C19.5 15.6642 19.8358 16 20.25 16C20.6642 16 21 15.6642 21 15.25V14.75ZM21 19.25C21 20.2165 20.2165 21 19.25 21H18.75C18.3358 21 18 20.6642 18 20.25C18 19.8358 18.3358 19.5 18.75 19.5H19.25C19.3881 19.5 19.5 19.3881 19.5 19.25V18.7503C19.5 18.3361 19.8358 18.0003 20.25 18.0003C20.6642 18.0003 21 18.3361 21 18.7503V19.25ZM13 19.25C13 20.2165 13.7835 21 14.75 21H15.2497C15.6639 21 15.9997 20.6642 15.9997 20.25C15.9997 19.8358 15.6639 19.5 15.2497 19.5H14.75C14.6119 19.5 14.5 19.3881 14.5 19.25V18.75C14.5 18.3358 14.1642 18 13.75 18C13.3358 18 13 18.3358 13 18.75V19.25Z" fill="#7D8198"/>
</svg>
