<svg width="24" height="24" viewBox="0 0 24 24" fill="none" xmlns="http://www.w3.org/2000/svg">
<path fill-rule="evenodd" clip-rule="evenodd" d="M11.25 13.2955L11.25 8.75C11.25 8.33579 11.5858 8 12 8C12.4142 8 12.75 8.33579 12.75 8.75V13.2955L13.6925 12.2483C13.9696 11.9404 14.4438 11.9154 14.7517 12.1925C15.0596 12.4696 15.0845 12.9438 14.8075 13.2517L12.5575 15.7517C12.4152 15.9098 12.2126 16 12 16C11.7874 16 11.5848 15.9098 11.4425 15.7517L9.19251 13.2517C8.91542 12.9439 8.94038 12.4696 9.24826 12.1925C9.55614 11.9154 10.0304 11.9404 10.3075 12.2483L11.25 13.2955Z" fill="#7D8198"/>
<path fill-rule="evenodd" clip-rule="evenodd" d="M4.00006 11.9978C4.00006 7.59487 7.59453 4 11.9977 4C16.4003 4 20.0001 7.59423 20.0001 11.9978C20.0001 16.4007 16.4009 20 11.9977 20C10.7042 20 9.4557 19.6821 8.37115 19.1338L5.45718 19.9581L5.45499 19.9587C4.98073 20.0913 4.55832 19.8883 4.31312 19.6166C4.0726 19.3501 3.92698 18.9407 4.04458 18.5135L4.83723 15.5576C4.28878 14.4771 4.00006 13.2893 4.00006 11.9978ZM11.9977 5.5C8.42302 5.5 5.50006 8.42323 5.50006 11.9978C5.50006 13.1461 5.77592 14.1738 6.29317 15.101C6.38823 15.2714 6.41314 15.4722 6.3626 15.6607L5.64227 18.3469L8.25247 17.6085C8.44351 17.5544 8.64818 17.5783 8.82162 17.675C9.75325 18.1939 10.8559 18.5 11.9977 18.5C15.5724 18.5 18.5001 15.5723 18.5001 11.9978C18.5001 8.42387 15.573 5.5 11.9977 5.5Z" fill="#7D8198"/>
</svg>
