<svg width="24" height="24" viewBox="0 0 24 24" fill="none" xmlns="http://www.w3.org/2000/svg">
<path fill-rule="evenodd" clip-rule="evenodd" d="M12.75 4.75C12.75 4.33579 12.4142 4 12 4C11.5858 4 11.25 4.33579 11.25 4.75V6.00195H6.75C5.23122 6.00195 4 7.23317 4 8.75195V15.25C4 16.7688 5.23122 18 6.75 18H11.25V19.25C11.25 19.6642 11.5858 20 12 20C12.4142 20 12.75 19.6642 12.75 19.25V18H17.25C18.7688 18 20 16.7688 20 15.25V8.75195C20 7.23317 18.7688 6.00195 17.25 6.00195H12.75V4.75ZM11.25 7.50195H6.75C6.05964 7.50195 5.5 8.0616 5.5 8.75195V15.25C5.5 15.9404 6.05964 16.5 6.75 16.5H11.25V7.50195ZM12.75 16.5V7.50195H17.25C17.9404 7.50195 18.5 8.0616 18.5 8.75195V15.25C18.5 15.9404 17.9404 16.5 17.25 16.5H12.75Z" fill="#7D8198"/>
</svg>
