<svg width="24" height="24" viewBox="0 0 24 24" fill="none" xmlns="http://www.w3.org/2000/svg">
<path d="M9.75 14.5C9.33579 14.5 9 14.8358 9 15.25C9 15.6642 9.33579 16 9.75 16H14.25C14.6642 16 15 15.6642 15 15.25C15 14.8358 14.6642 14.5 14.25 14.5H9.75Z" fill="#7D8198"/>
<path d="M15.25 13H8.75C8.33579 13 8 12.6642 8 12.25C8 11.8358 8.33579 11.5 8.75 11.5H15.25C15.6642 11.5 16 11.8358 16 12.25C16 12.6642 15.6642 13 15.25 13Z" fill="#7D8198"/>
<path d="M7.75 10H16.25C16.6642 10 17 9.66421 17 9.25C17 8.83579 16.6642 8.5 16.25 8.5H7.75C7.33579 8.5 7 8.83579 7 9.25C7 9.66421 7.33579 10 7.75 10Z" fill="#7D8198"/>
<path fill-rule="evenodd" clip-rule="evenodd" d="M12 21C16.9706 21 21 16.9706 21 12C21 7.02944 16.9706 3 12 3C7.02944 3 3 7.02944 3 12C3 16.9706 7.02944 21 12 21ZM19.5 12C19.5 16.1421 16.1421 19.5 12 19.5C7.85786 19.5 4.5 16.1421 4.5 12C4.5 7.85786 7.85786 4.5 12 4.5C16.1421 4.5 19.5 7.85786 19.5 12Z" fill="#7D8198"/>
</svg>
