<svg width="24" height="24" viewBox="0 0 24 24" fill="none" xmlns="http://www.w3.org/2000/svg">
<path fill-rule="evenodd" clip-rule="evenodd" d="M8.49791 4L8.50501 4.01013H13.9573L13.9718 4L13.9789 4.01013H17.25C18.7688 4.01013 20 5.24062 20 6.75849V10.2564C20 10.6704 19.6642 11.006 19.25 11.006C18.8358 11.006 18.5 10.6704 18.5 10.2564V9.50551H5.5V17.2522C5.5 17.9422 6.05964 18.5015 6.75 18.5015H12.25C12.6642 18.5015 13 18.8371 13 19.251C13 19.665 12.6642 20.0006 12.25 20.0006H6.75C5.23122 20.0006 4 18.7701 4 17.2522V6.75849C4 5.24062 5.23122 4.01013 6.75 4.01013H8.48343L8.49791 4ZM14.9476 8.00641H11.3049L9.55532 5.50924H13.198L14.9476 8.00641ZM16.7787 8.00641L15.0292 5.50924H17.25C17.9404 5.50924 18.5 6.06855 18.5 6.75849V8.00641H16.7787ZM5.5 6.75849V8.00641H9.47374L7.72416 5.50924H6.75C6.05964 5.50924 5.5 6.06855 5.5 6.75849Z" fill="#7D8198"/>
<path fill-rule="evenodd" clip-rule="evenodd" d="M16 14.8973V16.003C15.4477 16.003 15 16.4504 15 17.0024V20.0006C15 20.5526 15.4477 21 16 21H20C20.5523 21 21 20.5526 21 20.0006V17.0024C21 16.4504 20.5523 16.003 20 16.003V14.8973C20 14.6415 19.9453 14.3896 19.8405 14.1564C19.7358 13.9234 19.5838 13.7151 19.396 13.5419C19.2083 13.3689 18.9881 13.2341 18.7492 13.1429C18.5104 13.0517 18.2559 13.0053 18 13.0053C17.7441 13.0053 17.4896 13.0517 17.2508 13.1429C17.0119 13.2341 16.7917 13.3689 16.604 13.5419C16.4162 13.7151 16.2642 13.9234 16.1595 14.1564C16.0547 14.3896 16 14.6415 16 14.8973ZM18 14.2545C17.8948 14.2545 17.7917 14.2737 17.6969 14.3099C17.6021 14.346 17.5191 14.3979 17.4515 14.4603C17.3839 14.5225 17.3333 14.5937 17.2998 14.6682C17.2664 14.7425 17.25 14.8202 17.25 14.8973V16.003H18.75V14.8973C18.75 14.8202 18.7336 14.7425 18.7002 14.6682C18.6667 14.5937 18.6161 14.5225 18.5485 14.4603C18.4809 14.3979 18.3979 14.346 18.3031 14.3099C18.2083 14.2737 18.1052 14.2545 18 14.2545Z" fill="#7D8198"/>
</svg>
