<svg width="24" height="24" viewBox="0 0 24 24" fill="none" xmlns="http://www.w3.org/2000/svg">
<path fill-rule="evenodd" clip-rule="evenodd" d="M12 3.00153C12.284 3.00153 12.5436 3.16195 12.6707 3.41595L14.8376 7.74712L19.9112 8.5083C20.1894 8.55003 20.4208 8.7439 20.5107 9.01045C20.6005 9.277 20.5337 9.5714 20.3375 9.77301L16.842 13.3657L17.6365 18.5268C17.6798 18.8081 17.5602 19.0896 17.3276 19.2537C17.095 19.4178 16.7896 19.4361 16.5391 19.3009L12 16.8522L7.46079 19.3009C7.2103 19.4361 6.90491 19.4178 6.67234 19.2537C6.43978 19.0896 6.32013 18.8081 6.36343 18.5268L7.15793 13.3657L3.66242 9.77301C3.46627 9.5714 3.39941 9.277 3.48926 9.01045C3.5791 8.7439 3.81053 8.55003 4.08869 8.5083L9.16229 7.74712L11.3292 3.41595C11.4563 3.16195 11.716 3.00153 12 3.00153ZM12 5.42774L10.3295 8.76661C10.2202 8.98499 10.0115 9.1365 9.77003 9.17273L5.75698 9.7748L8.4936 12.5875C8.6577 12.7562 8.73312 12.9921 8.69732 13.2247L8.07533 17.2651L11.6439 15.3399C11.8661 15.22 12.1338 15.22 12.3561 15.3399L15.9246 17.2651L15.3026 13.2247C15.2668 12.9921 15.3422 12.7562 15.5063 12.5875L18.243 9.7748L14.2299 9.17273C13.9884 9.1365 13.7797 8.98499 13.6705 8.76661L12 5.42774Z" fill="#7D8198"/>
</svg>
