<svg width="24" height="24" viewBox="0 0 24 24" fill="none" xmlns="http://www.w3.org/2000/svg">
<path d="M6 8.75C6 8.33579 6.33579 8 6.75 8H10.25C10.6642 8 11 8.33579 11 8.75C11 9.16421 10.6642 9.5 10.25 9.5H7.5V12.25C7.5 12.6642 7.16421 13 6.75 13C6.33579 13 6 12.6642 6 12.25V8.75Z" fill="#7D8198"/>
<path d="M18 11.75C18 11.3358 17.6642 11 17.25 11C16.8357 11 16.5 11.3358 16.5 11.75L16.5 14.4999H13.7476C13.3333 14.4999 12.9976 14.8357 12.9976 15.2499C12.9976 15.6641 13.3333 15.9999 13.7476 15.9999H17.2499C17.6642 15.9999 17.9999 15.6641 17.9999 15.2499L18 11.75Z" fill="#7D8198"/>
<path fill-rule="evenodd" clip-rule="evenodd" d="M3 7.75C3 6.23122 4.23122 5 5.75 5H18.25C19.7688 5 21 6.23122 21 7.75V16.25C21 17.7688 19.7688 19 18.25 19H5.75C4.23122 19 3 17.7688 3 16.25V7.75ZM5.75 6.5C5.05964 6.5 4.5 7.05964 4.5 7.75V16.25C4.5 16.9404 5.05964 17.5 5.75 17.5H18.25C18.9404 17.5 19.5 16.9404 19.5 16.25V7.75C19.5 7.05964 18.9404 6.5 18.25 6.5H5.75Z" fill="#7D8198"/>
</svg>
