<svg width="24" height="24" viewBox="0 0 24 24" fill="none" xmlns="http://www.w3.org/2000/svg">
<path fill-rule="evenodd" clip-rule="evenodd" d="M9.5 4C8.25736 4 7.25 5.00736 7.25 6.25V17.75C7.25 18.9926 8.25736 20 9.5 20H14.5C15.7426 20 16.75 18.9926 16.75 17.75V6.25C16.75 5.00736 15.7426 4 14.5 4H9.5ZM8.75 6.25C8.75 5.83579 9.08579 5.5 9.5 5.5H10.2083C10.2083 5.91421 10.5441 6.25 10.9583 6.25H13.0416C13.4559 6.25 13.7916 5.91421 13.7916 5.5H14.5C14.9142 5.5 15.25 5.83579 15.25 6.25V17.75C15.25 18.1642 14.9142 18.5 14.5 18.5H9.5C9.08579 18.5 8.75 18.1642 8.75 17.75V6.25Z" fill="#5B53FF"/>
</svg>
