<svg width="24" height="24" viewBox="0 0 24 24" fill="none" xmlns="http://www.w3.org/2000/svg">
<path d="M11.0584 3.66226C11.3749 2.77827 12.625 2.77827 12.9415 3.66226L14.8543 9.00634C15.6041 9.06959 16.237 9.60892 16.4105 10.3525L17.9802 17.0796C18.0743 17.483 17.8236 17.8863 17.4202 17.9804C17.0168 18.0745 16.6135 17.8238 16.5194 17.4204L14.9497 10.6933C14.9233 10.5802 14.8225 10.5001 14.7063 10.5001H9.29334C9.17715 10.5001 9.07628 10.5802 9.04988 10.6933L7.48031 17.4204C7.38619 17.8238 6.98289 18.0745 6.57951 17.9804C6.17613 17.8863 5.92542 17.483 6.01954 17.0796L7.58911 10.3525C7.76262 9.60883 8.3957 9.06944 9.14559 9.00632L11.0584 3.66226Z" fill="#7D8198"/>
</svg>
