<svg width="24" height="24" viewBox="0 0 24 24" fill="none" xmlns="http://www.w3.org/2000/svg">
<path d="M8.25269 9.5C8.6669 9.5 9.00269 9.16421 9.00269 8.75C9.00269 8.33579 8.6669 8 8.25269 8H6.75265C6.33844 8 6.00265 8.33579 6.00265 8.75C6.00265 9.16421 6.33844 9.5 6.75265 9.5H8.25269Z" fill="#7D8198"/>
<path d="M9.00269 11.75C9.00269 12.1642 8.6669 12.5 8.25269 12.5H6.75269C6.33847 12.5 6.00269 12.1642 6.00269 11.75C6.00269 11.3358 6.33847 11 6.75269 11H8.25269C8.6669 11 9.00269 11.3358 9.00269 11.75Z" fill="#7D8198"/>
<path d="M8.25269 15.5C8.6669 15.5 9.00269 15.1642 9.00269 14.75C9.00269 14.3358 8.6669 14 8.25269 14H6.75269C6.33847 14 6.00269 14.3358 6.00269 14.75C6.00269 15.1642 6.33847 15.5 6.75269 15.5H8.25269Z" fill="#7D8198"/>
<path fill-rule="evenodd" clip-rule="evenodd" d="M3 7.75C3 6.23122 4.23122 5 5.75 5H18.25C19.7688 5 21 6.23122 21 7.75V16.25C21 17.7688 19.7688 19 18.25 19H5.75C4.23122 19 3 17.7688 3 16.25V7.75ZM5.75 6.5C5.05964 6.5 4.5 7.05964 4.5 7.75V16.25C4.5 16.9404 5.05964 17.5 5.75 17.5H10.5L10.5 6.5H5.75ZM18.25 17.5H12L12 6.5H18.25C18.9404 6.5 19.5 7.05964 19.5 7.75V16.25C19.5 16.9404 18.9404 17.5 18.25 17.5Z" fill="#7D8198"/>
</svg>
