<svg width="24" height="24" viewBox="0 0 24 24" fill="none" xmlns="http://www.w3.org/2000/svg">
<path d="M8.3744 13.4507C8.88293 12.9439 9.71392 13.3733 9.6537 14.0388L9.62929 14.1756L9.3246 15.3186C9.18685 15.8354 9.33475 16.3868 9.71229 16.7655L10.5473 17.6037C11.0885 18.1464 10.563 19.0563 9.82265 18.859L8.68007 18.5542C8.1637 18.4165 7.61225 18.5647 7.23378 18.9421L6.39589 19.7773C5.85333 20.3188 4.94354 19.7932 5.14101 19.0524L5.44569 17.9094C5.5832 17.3928 5.43545 16.8411 5.058 16.4626L4.22304 15.6244C3.68185 15.0816 4.20717 14.1715 4.94765 14.3691L6.09022 14.6739C6.60672 14.8115 7.15809 14.6637 7.53651 14.286L8.3744 13.4507Z" fill="#7D8198"/>
<path fill-rule="evenodd" clip-rule="evenodd" d="M16.6039 4.23341C17.3089 3.63891 18.39 4.26322 18.2279 5.17126L18.2074 5.2631L17.5346 7.78748C17.4199 8.21798 17.5423 8.67755 17.8568 8.99301L19.7016 10.8414C20.4232 11.565 19.723 12.7781 18.7357 12.5148L16.2123 11.8417C15.7821 11.7271 15.3235 11.8506 15.0082 12.1651L13.1596 14.0095C12.4362 14.7315 11.2234 14.0311 11.4867 13.0434L12.1596 10.52C12.2742 10.0894 12.1508 9.62988 11.8363 9.31442L9.99257 7.46509C9.27104 6.7414 9.9711 5.52824 10.9584 5.79161L13.4808 6.46569C13.9112 6.58042 14.3706 6.45693 14.6859 6.14233L16.5346 4.29691L16.6039 4.23341ZM15.7455 7.20425C15.0516 7.89674 14.0412 8.16712 13.0941 7.91448L12.3646 7.72007L12.8978 8.25543C13.59 8.94957 13.8613 9.95945 13.6088 10.9068L13.4144 11.6356L13.9486 11.1032C14.6425 10.4107 15.652 10.1403 16.599 10.393L17.3285 10.5864L16.7953 10.052C16.1032 9.35786 15.8328 8.3479 16.0853 7.40062L16.2797 6.67085L15.7455 7.20425Z" fill="#7D8198"/>
</svg>
