<svg width="24" height="24" viewBox="0 0 24 24" fill="none" xmlns="http://www.w3.org/2000/svg">
<path fill-rule="evenodd" clip-rule="evenodd" d="M6.75439 4C5.23611 4 4.0053 5.23122 4.0053 6.75V14.441L4 14.4458L4.0053 14.4516V17.25C4.0053 18.7688 5.23611 20 6.75439 20H17.2509C18.7692 20 20 18.7688 20 17.25V6.75C20 5.23122 18.7692 4 17.2509 4H6.75439ZM8.28889 12.5641L5.5048 15.1032V17.25C5.5048 17.9404 6.06426 18.5 6.75439 18.5H7.68003L10.9683 15.0051L8.63758 12.5757C8.54373 12.4779 8.38904 12.4728 8.28889 12.5641ZM11.9973 13.9113L9.71944 11.5371C9.06251 10.8524 7.97971 10.8162 7.27862 11.4556L5.5048 13.0734V6.75C5.5048 6.05964 6.06426 5.5 6.75439 5.5H17.2509C17.941 5.5 18.5005 6.05964 18.5005 6.75V15.2145L15.7552 12.5226C15.0553 11.8362 13.9284 11.8589 13.2566 12.5729L11.9973 13.9113ZM18.4989 17.3135L14.7055 13.5937C14.6055 13.4957 14.4445 13.4989 14.3486 13.6009L9.73922 18.5H17.2509C17.9198 18.5 18.4659 17.9743 18.4989 17.3135ZM15.5015 10C16.3296 10 17.001 9.32843 17.001 8.5C17.001 7.67157 16.3296 7 15.5015 7C14.6733 7 14.002 7.67157 14.002 8.5C14.002 9.32843 14.6733 10 15.5015 10Z" fill="#7D8198"/>
</svg>
