<svg width="24" height="24" viewBox="0 0 24 24" fill="none" xmlns="http://www.w3.org/2000/svg">
<path fill-rule="evenodd" clip-rule="evenodd" d="M5.5 7.75C5.5 7.05964 6.05964 6.5 6.75 6.5H9.9896C10.2957 6.5 10.5912 6.61235 10.8201 6.81574L11.9334 7.80538C12.4368 8.25283 13.0869 8.5 13.7604 8.5H18.2505C18.9408 8.5 19.5005 9.05964 19.5005 9.75V16.25C19.5005 16.9404 18.9408 17.5 18.2505 17.5H6.75C6.05964 17.5 5.5 16.9404 5.5 16.25V7.75ZM6.75 5C5.23122 5 4 6.23122 4 7.75V16.25C4 17.7688 5.23121 19 6.75 19H18.2505C19.7693 19 21.0005 17.7688 21.0005 16.25V9.75C21.0005 8.23122 19.7693 7 18.2505 7H13.7604C13.4543 7 13.1588 6.88765 12.9299 6.68426L11.8166 5.69462C11.3132 5.24717 10.6631 5 9.9896 5H6.75ZM11.8141 15.7513C11.5372 16.0594 11.063 16.0847 10.7549 15.8078L8.25144 13.5578C8.09317 13.4156 8.00278 13.2128 8.00278 13C8.00278 12.7872 8.09317 12.5844 8.25144 12.4422L10.7549 10.1922C11.063 9.91531 11.5372 9.94059 11.8141 10.2487C12.091 10.5567 12.0657 11.0309 11.7576 11.3078L10.7093 12.25H14.2542C14.9446 12.25 15.5042 11.6904 15.5042 11V10.75C15.5042 10.3358 15.84 10 16.2542 10C16.6685 10 17.0042 10.3358 17.0042 10.75V11C17.0042 12.5188 15.773 13.75 14.2542 13.75H10.7093L11.7576 14.6922C12.0657 14.9691 12.091 15.4433 11.8141 15.7513Z" fill="#7D8198"/>
</svg>
