<svg width="24" height="24" viewBox="0 0 24 24" fill="none" xmlns="http://www.w3.org/2000/svg">
<path fill-rule="evenodd" clip-rule="evenodd" d="M11.9884 3C8.67508 3 5.98909 5.68599 5.98909 8.99932V11.1658C5.97187 12.1974 5.7847 12.7765 5.63059 13.0805C5.60077 13.1394 5.5693 13.1998 5.53504 13.2655L5.5076 13.318C5.31028 13.695 5 14.2878 5 14.9284C5 16.0725 5.92742 16.9999 7.07146 16.9999H16.9331C18.0746 16.9999 19 16.0745 19 14.933C19 14.2835 18.6795 13.6847 18.4769 13.306L18.4485 13.253C18.4152 13.1905 18.3846 13.1329 18.3554 13.0768C18.1906 12.7598 17.9878 12.1399 17.9878 11.0104L17.9877 10.9934V8.99932C17.9877 5.68599 15.3018 3 11.9884 3ZM7.48909 8.99932C7.48909 6.51442 9.50351 4.5 11.9884 4.5C14.4733 4.5 16.4877 6.51442 16.4877 8.99932V10.9934L16.4878 11.0104C16.4878 12.314 16.7215 13.1857 17.0244 13.7685C17.0575 13.8323 17.0916 13.8963 17.124 13.9571L17.1248 13.9584C17.37 14.4186 17.5 14.698 17.5 14.933C17.5 15.2461 17.2462 15.4999 16.9331 15.4999H7.07146C6.75585 15.4999 6.5 15.244 6.5 14.9284C6.5 14.6942 6.62697 14.4158 6.86519 13.9588L6.86613 13.957C6.89939 13.8932 6.93452 13.8258 6.96853 13.7587C7.24992 13.2035 7.4697 12.3866 7.48899 11.184L7.48909 11.1719V8.99932Z" fill="#7D8198"/>
<path d="M12 20C12.394 20 12.7841 19.9224 13.1481 19.7716C13.512 19.6209 13.8427 19.3999 14.1213 19.1213C14.3999 18.8427 14.6209 18.512 14.7716 18.1481C14.9224 17.7841 15 17.394 15 17H13.5C13.5 17.197 13.4612 17.392 13.3858 17.574C13.3104 17.756 13.1999 17.9214 13.0607 18.0607C12.9214 18.1999 12.756 18.3104 12.574 18.3858C12.392 18.4612 12.197 18.5 12 18.5C11.803 18.5 11.608 18.4612 11.426 18.3858C11.244 18.3104 11.0786 18.1999 10.9393 18.0607C10.8001 17.9214 10.6896 17.756 10.6142 17.574C10.5388 17.392 10.5 17.197 10.5 17H9C9 17.394 9.0776 17.7841 9.22836 18.1481C9.37913 18.512 9.6001 18.8427 9.87868 19.1213C10.1573 19.3999 10.488 19.6209 10.8519 19.7716C11.2159 19.9224 11.606 20 12 20Z" fill="#7D8198"/>
</svg>
