<svg width="24" height="24" viewBox="0 0 24 24" fill="none" xmlns="http://www.w3.org/2000/svg">
<path d="M5 6C5 5.44772 5.44772 5 6 5H18.0014C18.5537 5 19.0014 5.44772 19.0014 6C19.0014 6.55228 18.5537 7 18.0014 7H6C5.44772 7 5 6.55228 5 6Z" fill="#7D8198"/>
<path d="M3 12C3 11.4477 3.44772 11 4 11H18.0014C18.5537 11 19.0014 11.4477 19.0014 12C19.0014 12.5523 18.5537 13 18.0014 13H4C3.44772 13 3 12.5523 3 12Z" fill="#7D8198"/>
<path d="M8 17C7.44772 17 7 17.4477 7 18C7 18.5523 7.44772 19 8 19H18.0014C18.5537 19 19.0014 18.5523 19.0014 18C19.0014 17.4477 18.5537 17 18.0014 17H8Z" fill="#7D8198"/>
</svg>
