<svg width="24" height="24" viewBox="0 0 24 24" fill="none" xmlns="http://www.w3.org/2000/svg">
<path d="M3 5.75C3 4.23122 4.23122 3 5.75 3H13.25C14.7688 3 16 4.23122 16 5.75V8H18.25C19.7688 8 21 9.23122 21 10.75V18.25C21 19.7688 19.7688 21 18.25 21H13.75C13.3358 21 13 20.6642 13 20.25C13 19.8358 13.3358 19.5 13.75 19.5H18.25C18.9404 19.5 19.5 18.9404 19.5 18.25V10.75C19.5 10.0596 18.9404 9.5 18.25 9.5H10.75C10.0596 9.5 9.5 10.0596 9.5 10.75V11.25C9.5 11.6642 9.16421 12 8.75 12C8.33579 12 8 11.6642 8 11.25V10.75C8 9.23122 9.23122 8 10.75 8H14.5V5.75C14.5 5.05964 13.9404 4.5 13.25 4.5H5.75C5.05964 4.5 4.5 5.05964 4.5 5.75V10.25C4.5 10.6642 4.16421 11 3.75 11C3.33579 11 3 10.6642 3 10.25V5.75Z" fill="#7D8198"/>
<path d="M3.75 13C4.16421 13 4.5 13.3358 4.5 13.75V15.5C4.5 16.1904 5.05964 16.75 5.75 16.75H9.55346L8.19484 15.2543C7.91634 14.9477 7.93912 14.4733 8.24573 14.1948C8.55234 13.9163 9.02667 13.9391 9.30517 14.2457L11.8031 16.9957C12.0629 17.2817 12.0629 17.7183 11.8031 18.0043L9.30517 20.7543C9.02667 21.0609 8.55234 21.0837 8.24573 20.8052C7.93912 20.5267 7.91634 20.0523 8.19484 19.7457L9.55347 18.25H5.75C4.23122 18.25 3 17.0188 3 15.5V13.75C3 13.3358 3.33579 13 3.75 13Z" fill="#7D8198"/>
</svg>
