<svg width="24" height="24" viewBox="0 0 24 24" fill="none" xmlns="http://www.w3.org/2000/svg">
<path fill-rule="evenodd" clip-rule="evenodd" d="M8 8V7C8 4.70353 9.80337 3.00391 12 3.00391C14.1966 3.00391 16 4.70353 16 7V8H16.25C17.7688 8 19 9.23122 19 10.75V17.25C19 18.7688 17.7688 20 16.25 20H7.75C6.23122 20 5 18.7688 5 17.25V10.75C5 9.23122 6.23122 8 7.75 8H8ZM9.5 7C9.5 5.55689 10.6066 4.50391 12 4.50391C13.3934 4.50391 14.5 5.55689 14.5 7V8H9.5V7ZM6.5 10.75C6.5 10.0596 7.05964 9.5 7.75 9.5H16.25C16.9404 9.5 17.5 10.0596 17.5 10.75V17.25C17.5 17.9404 16.9404 18.5 16.25 18.5H7.75C7.05964 18.5 6.5 17.9404 6.5 17.25V10.75Z" fill="#7D8198"/>
</svg>
