<svg width="24" height="24" viewBox="0 0 24 24" fill="none" xmlns="http://www.w3.org/2000/svg">
<path fill-rule="evenodd" clip-rule="evenodd" d="M11.4424 7.24947C11.5846 7.09135 11.7872 7.00103 11.9998 7.00098C12.2125 7.00092 12.4151 7.09113 12.5574 7.24916L14.8099 9.75111C15.0871 10.0589 15.0622 10.5332 14.7543 10.8103C14.4465 11.0875 13.9723 11.0626 13.6951 10.7547L12.0003 8.87225L10.3077 10.7544C10.0307 11.0624 9.55648 11.0876 9.2485 10.8106C8.94051 10.5336 8.91537 10.0594 9.19235 9.75141L11.4424 7.24947ZM11.4422 16.7548C11.5844 16.913 11.787 17.0034 11.9998 17.0034C12.2125 17.0035 12.4152 16.9132 12.5575 16.7551L14.81 14.2517C15.0871 13.9437 15.0621 13.4695 14.7541 13.1925C14.4462 12.9154 13.972 12.9404 13.695 13.2483L12.0003 15.1318L10.3079 13.2487C10.031 12.9406 9.55679 12.9153 9.24872 13.1922C8.94064 13.4691 8.91536 13.9433 9.19224 14.2513L11.4422 16.7548Z" fill="#7D8198"/>
</svg>
