<svg width="24" height="24" viewBox="0 0 24 24" fill="none" xmlns="http://www.w3.org/2000/svg">
<path fill-rule="evenodd" clip-rule="evenodd" d="M4 6.75076C4 5.22537 5.23332 4.00281 6.75 4.00281H17.25C18.7667 4.00281 20 5.22537 20 6.75076V10.2521C20 10.6663 19.6642 11.0021 19.25 11.0021C18.8358 11.0021 18.5 10.6663 18.5 10.2521V6.75076C18.5 6.058 17.9425 5.50281 17.25 5.50281H12.75V13.5H13.2539C13.6681 13.5 14.0039 13.8358 14.0039 14.25C14.0039 14.6642 13.6681 15 13.2539 15H12.75V19.2528C12.75 19.667 12.4142 20.0028 12 20.0028H6.75C5.23329 20.0028 4 18.7801 4 17.2548V6.75076ZM11.25 5.50281H6.75C6.05754 5.50281 5.5 6.058 5.5 6.75076V9H11.25V5.50281ZM5.5 17.2548V10.5H11.25V18.5028H6.75C6.05757 18.5028 5.5 17.9476 5.5 17.2548Z" fill="#7D8198"/>
<path fill-rule="evenodd" clip-rule="evenodd" d="M16 14.8937V16C15.4477 16 15 16.4477 15 17V20C15 20.5523 15.4477 21 16 21H20C20.5523 21 21 20.5523 21 20V17C21 16.4477 20.5523 16 20 16V14.8937C20 14.6377 19.9453 14.3856 19.8405 14.1523C19.7358 13.9191 19.5838 13.7107 19.396 13.5375C19.2083 13.3644 18.9881 13.2294 18.7492 13.1382C18.5104 13.0469 18.2559 13.0005 18 13.0005C17.7441 13.0005 17.4896 13.0469 17.2508 13.1382C17.0119 13.2294 16.7917 13.3644 16.604 13.5375C16.4162 13.7107 16.2642 13.9191 16.1595 14.1523C16.0547 14.3856 16 14.6377 16 14.8937ZM18 14.2505C17.8948 14.2505 17.7917 14.2697 17.6969 14.3059C17.6021 14.3421 17.5191 14.394 17.4515 14.4564C17.3839 14.5187 17.3333 14.5898 17.2998 14.6644C17.2664 14.7388 17.25 14.8165 17.25 14.8937V16H18.75V14.8937C18.75 14.8165 18.7336 14.7388 18.7002 14.6644C18.6667 14.5898 18.6161 14.5187 18.5485 14.4564C18.4809 14.394 18.3979 14.3421 18.3031 14.3059C18.2083 14.2697 18.1052 14.2505 18 14.2505Z" fill="#7D8198"/>
</svg>
