<svg width="24" height="24" viewBox="0 0 24 24" fill="none" xmlns="http://www.w3.org/2000/svg">
<path fill-rule="evenodd" clip-rule="evenodd" d="M10.3427 5.00463C10.7589 5.05457 11.0558 5.43248 11.0058 5.84869L10.6883 8.49467H14.153L14.4922 5.66782C14.5422 5.2516 14.9201 4.95468 15.3363 5.00463C15.7525 5.05457 16.0494 5.43248 15.9995 5.84869L15.682 8.49467H18.2419C18.6611 8.49467 19.0009 8.8345 19.0009 9.25371C19.0009 9.67291 18.6611 10.0127 18.2419 10.0127H15.4998L15.0228 13.9875H17.2432C17.6624 13.9875 18.0023 14.3274 18.0023 14.7466C18.0023 15.1658 17.6624 15.5056 17.2432 15.5056H14.8407L14.5014 18.3324C14.4515 18.7487 14.0736 19.0456 13.6574 18.9956C13.2412 18.9457 12.9442 18.5678 12.9942 18.1516L13.3117 15.5056H9.84701L9.50778 18.3324C9.45784 18.7487 9.07993 19.0456 8.66372 18.9956C8.2475 18.9457 7.95058 18.5678 8.00052 18.1516L8.31804 15.5056H5.75806C5.33886 15.5056 4.99902 15.1658 4.99902 14.7466C4.99902 14.3274 5.33886 13.9875 5.75806 13.9875H8.50022L8.97719 10.0127H6.75672C6.33751 10.0127 5.99768 9.67291 5.99768 9.25371C5.99768 8.8345 6.33751 8.49467 6.75672 8.49467H9.15936L9.49859 5.66782C9.54854 5.2516 9.92644 4.95468 10.3427 5.00463ZM13.4939 13.9875L13.9708 10.0127H10.5062L10.0292 13.9875H13.4939Z" fill="#7D8198"/>
</svg>
