<svg width="24" height="24" viewBox="0 0 24 24" fill="none" xmlns="http://www.w3.org/2000/svg">
<path fill-rule="evenodd" clip-rule="evenodd" d="M8.19268 7C5.35618 7 3 9.20867 3 12C3 14.7913 5.35618 17 8.19268 17H9.25C9.66421 17 10 16.6642 10 16.25C10 15.8358 9.66421 15.5 9.25 15.5H8.19268C6.1215 15.5 4.5 13.9012 4.5 12C4.5 10.0988 6.1215 8.5 8.19268 8.5H9.25C9.66421 8.5 10 8.16421 10 7.75C10 7.33579 9.66421 7 9.25 7H8.19268ZM14 7.75C14 7.33579 14.3358 7 14.75 7H15.9197C18.672 7 21 9.21128 21 12C21 14.7887 18.672 17 15.9197 17H14.75C14.3358 17 14 16.6642 14 16.25C14 15.8358 14.3358 15.5 14.75 15.5H15.9197C17.8803 15.5 19.5 13.924 19.5 12C19.5 10.076 17.8803 8.5 15.9197 8.5H14.75C14.3358 8.5 14 8.16421 14 7.75ZM8 11.75C8 11.3358 8.33579 11 8.75 11H15.25C15.6642 11 16 11.3358 16 11.75C16 12.1642 15.6642 12.5 15.25 12.5H8.75C8.33579 12.5 8 12.1642 8 11.75Z" fill="#7D8198"/>
</svg>
