<svg width="24" height="24" viewBox="0 0 24 24" fill="none" xmlns="http://www.w3.org/2000/svg">
<path fill-rule="evenodd" clip-rule="evenodd" d="M4.54083 4.05097C4.93652 3.92846 5.35659 4.14991 5.4791 4.54559L6.85827 9H17.1866L18.5432 4.56925C18.6645 4.17319 19.0839 3.95042 19.4799 4.07169C19.876 4.19296 20.0988 4.61234 19.9775 5.0084L18.742 9.0434C20.0274 9.27423 21.0027 10.3982 21.0027 11.75V16.25C21.0027 18.3211 19.3238 20 17.2527 20H6.75275C4.68168 20 3.00275 18.3211 3.00275 16.25V11.75C3.00275 10.3856 3.9964 9.25326 5.29953 9.03717L4.04621 4.98924C3.9237 4.59355 4.14515 4.17348 4.54083 4.05097ZM16.7273 10.5H7.3227L7.52322 11.1476C7.80927 11.3236 8 11.6395 8 12C8 12.5523 7.55228 13 7 13C6.44772 13 6 12.5523 6 12C6 11.8527 6.03184 11.7129 6.089 11.587L5.75245 10.5C5.06223 10.5002 4.50275 11.0597 4.50275 11.75V16.25C4.50275 17.4926 5.51011 18.5 6.75275 18.5H17.2527C18.4954 18.5 19.5027 17.4926 19.5027 16.25V11.75C19.5027 11.0741 18.9662 10.5234 18.2958 10.5007L17.9408 11.6602C17.9791 11.7663 18 11.8807 18 12C18 12.5523 17.5523 13 17 13C16.4477 13 16 12.5523 16 12C16 11.6136 16.2192 11.2784 16.54 11.1119L16.7273 10.5ZM9 12.5C9 12.2239 9.22386 12 9.5 12H14.5C14.7761 12 15 12.2239 15 12.5V13C15 13.2761 14.7761 13.5 14.5 13.5H9.5C9.22386 13.5 9 13.2761 9 13V12.5ZM9 16C9 15.4477 8.55228 15 8 15C7.44772 15 7 15.4477 7 16C7 16.5523 7.44772 17 8 17C8.55228 17 9 16.5523 9 16ZM12 15C12.5523 15 13 15.4477 13 16C13 16.5523 12.5523 17 12 17C11.4477 17 11 16.5523 11 16C11 15.4477 11.4477 15 12 15ZM17 16C17 15.4477 16.5523 15 16 15C15.4477 15 15 15.4477 15 16C15 16.5523 15.4477 17 16 17C16.5523 17 17 16.5523 17 16Z" fill="#7D8198"/>
</svg>
