<svg width="24" height="24" viewBox="0 0 24 24" fill="none" xmlns="http://www.w3.org/2000/svg">
<path d="M4.6659 13.5919C4.57643 13.1875 4.17605 12.9321 3.77161 13.0216C3.36718 13.1111 3.11184 13.5115 3.2013 13.9159C4.1255 18.0939 7.82055 21 12 21C16.9706 21 21 16.9706 21 12C21 7.02944 16.9706 3 12 3C8.86849 3 6.11148 4.5996 4.5 7.02349V5.75C4.5 5.33578 4.16421 5 3.75 5C3.33579 5 3 5.33578 3 5.75V9.24976C3 9.66397 3.33579 9.99975 3.75 9.99975L7.28335 9.99976C7.69756 9.99976 8.03335 9.66397 8.03335 9.24976C8.03335 8.83554 7.69756 8.49976 7.28335 8.49976L5.35097 8.49976C5.37786 8.46625 5.40223 8.42997 5.42364 8.39104C6.70031 6.07009 9.16733 4.5 12 4.5C16.1421 4.5 19.5 7.85786 19.5 12C19.5 16.1421 16.1421 19.5 12 19.5C8.51899 19.5 5.43702 17.0779 4.6659 13.5919Z" fill="#7D8198"/>
<path d="M11.75 7C12.1642 7 12.5 7.33579 12.5 7.75V11.5H15.25C15.6642 11.5 16 11.8358 16 12.25C16 12.6642 15.6642 13 15.25 13H11.75C11.3358 13 11 12.6642 11 12.25V7.75C11 7.33579 11.3358 7 11.75 7Z" fill="#7D8198"/>
</svg>
