<svg width="24" height="24" viewBox="0 0 24 24" fill="none" xmlns="http://www.w3.org/2000/svg">
<path d="M12.7702 5.17524C13.0886 4.91028 13.5615 4.95359 13.8265 5.27198C14.0914 5.59036 14.0481 6.06326 13.7297 6.32822L13.6248 6.41556C16.6739 7.04456 19 9.45579 19 13.0001C19 16.866 15.8659 20.0001 12 20.0001C10.052 20.0001 8.31203 19.1453 7.06595 17.9698C5.83305 16.8067 5 15.2469 5 13.75C5 13.3358 5.33579 13 5.75 13C6.16421 13 6.5 13.3358 6.5 13.75C6.5 14.7176 7.06608 15.9078 8.09525 16.8787C9.11124 17.8371 10.4963 18.5001 12 18.5001C15.0375 18.5001 17.5 16.0376 17.5 13.0001C17.5 10.5164 16.0615 8.73228 13.9736 8.05385C14.0357 8.28218 13.989 8.53616 13.8259 8.73165C13.5606 9.04974 13.0877 9.0925 12.7696 8.82718L11.2696 7.57595C11.0986 7.43336 10.9999 7.2222 11 6.99959C11.0001 6.77698 11.0991 6.56593 11.2702 6.42353L12.7702 5.17524Z" fill="#7D8198"/>
<path d="M9.82649 5.272C9.56153 4.95361 9.08864 4.9103 8.77025 5.17526L7.27025 6.42355C7.09914 6.56595 7.00013 6.777 7 6.99961C6.99987 7.22222 7.09864 7.43338 7.26959 7.57597L8.76959 8.82719C9.08767 9.09252 9.56061 9.04975 9.82594 8.73167C10.0913 8.41359 10.0485 7.94065 9.73042 7.67532L8.92167 7.00071L9.72975 6.32824C10.0481 6.06328 10.0914 5.59038 9.82649 5.272Z" fill="#7D8198"/>
</svg>
