<svg width="24" height="24" viewBox="0 0 24 24" fill="none" xmlns="http://www.w3.org/2000/svg">
<path d="M4 17.25V6.75C4 5.23122 5.23122 4 6.75 4H10.25C10.6642 4 11 4.33579 11 4.75C11 5.16421 10.6642 5.5 10.25 5.5H6.75C6.05964 5.5 5.5 6.05964 5.5 6.75V17.25C5.5 17.9404 6.05964 18.5 6.75 18.5H17.25C17.9404 18.5 18.5 17.9404 18.5 17.25V12.75C18.5 12.3358 18.8358 12 19.25 12C19.6642 12 20 12.3358 20 12.75V17.25C20 18.7688 18.7688 20 17.25 20H6.75C5.23122 20 4 18.7688 4 17.25Z" fill="#7D8198"/>
<path d="M18.1424 3.2238C18.8181 2.65393 19.8542 3.2521 19.6985 4.12218L19.679 4.21031L19.2618 5.77511C19.1518 6.18754 19.2697 6.62722 19.5711 6.92945L20.7157 8.07649C21.407 8.76967 20.7361 9.93161 19.7901 9.67953L18.2244 9.26189C17.812 9.15198 17.3723 9.2698 17.07 9.5712L15.923 10.7157C15.2297 11.407 14.0677 10.7362 14.3199 9.79017L14.7375 8.22456C14.8474 7.81212 14.7297 7.37241 14.4282 7.07022L13.2845 5.92365C12.5929 5.23043 13.2638 4.0683 14.21 4.3206L15.7749 4.73778C16.1874 4.84778 16.627 4.72999 16.9293 4.42847L18.0759 3.28479L18.1424 3.2238ZM17.8405 5.54348C17.2163 6.10239 16.3633 6.33094 15.5432 6.15901C16.1022 6.78316 16.3307 7.6362 16.1588 8.45619C16.783 7.89738 17.6361 7.6688 18.4561 7.84066C17.8972 7.21646 17.6686 6.36346 17.8405 5.54348Z" fill="#7D8198"/>
<path d="M11.1921 10.1127C11.6696 9.77588 12.358 10.2168 12.1965 10.8235L11.9166 11.8745C11.8737 12.0357 11.9196 12.2083 12.0374 12.3264L12.8058 13.0966C13.2781 13.5709 12.8197 14.3645 12.1728 14.1925L11.1217 13.9126C10.9606 13.8696 10.7879 13.9157 10.6698 14.0333L9.89953 14.8017C9.42524 15.2744 8.63047 14.8158 8.80271 14.1687L9.08355 13.1177C9.12638 12.9565 9.07968 12.7838 8.96188 12.6658L8.19439 11.8956C7.72175 11.4213 8.18034 10.6275 8.82741 10.7997L9.87758 11.0796C10.0388 11.1226 10.2122 11.0767 10.3304 10.9588L11.0997 10.1905L11.1921 10.1127Z" fill="#7D8198"/>
</svg>
