<svg width="24" height="24" viewBox="0 0 24 24" fill="none" xmlns="http://www.w3.org/2000/svg">
<path d="M11.2538 9.74352C11.2538 9.33005 11.589 8.99487 12.0024 8.99487C12.4159 8.99487 12.7511 9.33005 12.7511 9.74352V13.2482C12.7511 13.6617 12.4159 13.9969 12.0024 13.9969C11.589 13.9969 11.2538 13.6617 11.2538 13.2482V9.74352Z" fill="#7D8198"/>
<path d="M13.0006 15.9973C13.0006 16.5496 12.5537 16.9973 12.0024 16.9973C11.4511 16.9973 11.0042 16.5496 11.0042 15.9973C11.0042 15.445 11.4511 14.9973 12.0024 14.9973C12.5537 14.9973 13.0006 15.445 13.0006 15.9973Z" fill="#7D8198"/>
<path fill-rule="evenodd" clip-rule="evenodd" d="M14.4618 5.52026C13.4484 3.49321 10.5557 3.49326 9.54233 5.52034L4.29379 16.0193C3.37972 17.8478 4.70933 19.999 6.75355 19.999H17.2511C19.2953 19.999 20.6249 17.8477 19.7108 16.0192L14.4618 5.52026ZM10.884 6.19106C11.3446 5.26966 12.6595 5.26964 13.1201 6.19102L18.3691 16.69C18.7847 17.5211 18.1803 18.499 17.2511 18.499H6.75355C5.82436 18.499 5.21999 17.5212 5.63547 16.69L10.884 6.19106Z" fill="#7D8198"/>
</svg>
