<svg width="24" height="24" viewBox="0 0 24 24" fill="none" xmlns="http://www.w3.org/2000/svg">
<path d="M15.4699 18.6512L16.5728 19.754C14.9383 20.718 13.0382 21.1421 11.1439 20.9612C9.14559 20.7702 7.26843 19.9169 5.81077 18.5367C4.35312 17.1565 3.3986 15.3287 3.09893 13.3438C2.79926 11.3589 3.17164 9.33081 4.15688 7.58182C4.18591 7.53029 4.21542 7.47908 4.24541 7.42821L5.34831 8.53097C4.61403 9.93888 4.34446 11.5457 4.58212 13.1199C4.83186 14.7741 5.62732 16.2973 6.84209 17.4475C8.05686 18.5977 9.62122 19.3089 11.2865 19.468C12.7352 19.6064 14.1879 19.3201 15.4699 18.6512Z" fill="#7D8198"/>
<path d="M8.53655 3.691C8.15266 3.85101 7.78214 4.03666 7.42716 4.24601L8.53007 5.34877C8.72 5.24968 8.91468 5.15848 9.11367 5.07553C10.6578 4.43189 12.3728 4.32283 13.986 4.76569C15.1554 5.08671 16.2226 5.68437 17.1019 6.5H15.75C15.3358 6.5 15 6.83579 15 7.25C15 7.66422 15.3358 8 15.75 8H19.25C19.4489 8 19.6397 7.92099 19.7803 7.78033C19.921 7.63968 20 7.44891 20 7.25L20 3.75C20 3.33579 19.6642 3 19.25 3C18.8358 3.00001 18.5 3.33579 18.5 3.75001L18.5 5.7722C17.3793 4.60255 15.9584 3.75167 14.3831 3.31921C12.4473 2.7878 10.3894 2.91866 8.53655 3.691Z" fill="#7D8198"/>
<path d="M20.4856 15.0049C20.2917 15.5526 20.0464 16.077 19.7546 16.5718L18.6517 15.4691C18.8134 15.1591 18.9539 14.8368 19.0717 14.5042C19.2099 14.1138 19.6385 13.9093 20.029 14.0476C20.4195 14.1858 20.6239 14.6145 20.4856 15.0049Z" fill="#7D8198"/>
<path d="M3.22139 4.28212L19.718 20.7785C20.0109 21.0714 20.4857 21.0714 20.7786 20.7785C21.0715 20.4856 21.0715 20.0108 20.7786 19.7179L4.28205 3.22146C3.98915 2.92856 3.51428 2.92857 3.22139 3.22146C2.9285 3.51436 2.9285 3.98923 3.22139 4.28212Z" fill="#7D8198"/>
</svg>
