<svg width="24" height="24" viewBox="0 0 24 24" fill="none" xmlns="http://www.w3.org/2000/svg">
<path d="M10.14 13.0141L6.94143 12.1135C6.23511 11.9147 5.83714 11.1767 6.06364 10.4861C6.29579 9.78015 7.08396 9.41601 7.7804 9.69365L10.9408 10.9542L10.7327 7.35329C10.6903 6.61875 11.2816 6 12.0261 6H12.0875C12.8312 6 13.4225 6.61805 13.3808 7.35259L13.1713 11.0539L16.2103 9.82967C16.9089 9.54855 17.702 9.91408 17.9327 10.6242L17.9377 10.6389C18.1621 11.3308 17.7606 12.0689 17.0528 12.2642L13.7725 13.1697L15.9387 15.8958C16.3952 16.4699 16.2739 17.3042 15.6734 17.729L15.6275 17.7611C15.0186 18.1915 14.1676 18.0234 13.7732 17.3941L11.8991 14.4064L9.93517 17.4039C9.54285 18.015 8.71587 18.1831 8.11116 17.775C7.49093 17.3565 7.33852 16.4915 7.80422 15.909L10.14 13.0141Z" fill="#7D8198"/>
</svg>
