<svg width="18" height="18" viewBox="0 0 18 18" fill="none" xmlns="http://www.w3.org/2000/svg">
<path d="M5.21958 12.7782C5.51243 13.0711 5.9873 13.0712 6.28024 12.7783L11.5 7.56032V10.25C11.5 10.6642 11.8358 11 12.25 11C12.6642 11 13 10.6642 13 10.25V5.75C13 5.33579 12.6642 5 12.25 5H7.75403C7.33981 5 7.00403 5.33579 7.00403 5.75C7.00403 6.16421 7.33981 6.5 7.75403 6.5H10.439L5.21976 11.7175C4.92682 12.0104 4.92674 12.4852 5.21958 12.7782Z" fill="#7D8198"/>
<path fill-rule="evenodd" clip-rule="evenodd" d="M18 9C18 4.02944 13.9706 0 9 0C4.02944 0 0 4.02944 0 9C0 13.9706 4.02944 18 9 18C13.9706 18 18 13.9706 18 9ZM9 1.5C13.1421 1.5 16.5 4.85786 16.5 9C16.5 13.1421 13.1421 16.5 9 16.5C4.85786 16.5 1.5 13.1421 1.5 9C1.5 4.85786 4.85786 1.5 9 1.5Z" fill="#7D8198"/>
</svg>
