<svg width="24" height="24" viewBox="0 0 24 24" fill="none" xmlns="http://www.w3.org/2000/svg">
<path d="M18.9976 5C18.3477 4.35 17.4878 4 16.568 4H16.558C15.6381 4 14.7783 4.36 14.1284 5.02L5.98965 13.15C5.74969 13.39 5.55972 13.69 5.45974 14.01L4.06995 18.2C3.90998 18.69 4.03996 19.24 4.3999 19.6C4.65986 19.86 5.00981 20 5.36975 20C5.50973 20 5.6597 19.98 5.79968 19.93L9.97902 18.55C10.309 18.44 10.6089 18.26 10.8489 18.02L18.9976 9.86C20.3374 8.52 20.3374 6.35 18.9976 5.01V5ZM9.78905 16.95C9.70907 17.03 9.61908 17.08 9.51909 17.12L5.57972 18.42L6.87951 14.48C6.90951 14.38 6.9695 14.28 7.04948 14.21L13.0585 8.24L15.7881 10.96L9.79905 16.95H9.78905ZM17.9378 8.79L16.8379 9.89L14.1084 7.17L15.1982 6.06C15.5581 5.69 16.0481 5.49 16.568 5.49C17.0879 5.49 17.5678 5.69 17.9378 6.06C18.6876 6.81 18.6876 8.04 17.9378 8.79Z" fill="#7D8198"/>
</svg>
