<svg width="24" height="24" viewBox="0 0 24 24" fill="none" xmlns="http://www.w3.org/2000/svg">
<path fill-rule="evenodd" clip-rule="evenodd" d="M15.2602 7.20026C14.9566 6.9185 14.482 6.93621 14.2003 7.23982C13.9185 7.54344 13.9362 8.01798 14.2398 8.29975L16.3392 10.248H9.75C7.67893 10.248 6 11.927 6 13.998V16.25C6 16.6642 6.33579 17 6.75 17C7.16421 17 7.5 16.6642 7.5 16.25V13.998C7.5 12.7554 8.50736 11.748 9.75 11.748H16.341L14.2395 13.7006C13.9361 13.9825 13.9186 14.457 14.2005 14.7605C14.4825 15.0639 14.957 15.0814 15.2605 14.7995L18.7605 11.5476C18.9133 11.4056 19.0001 11.2065 19 10.9979C19 10.7894 18.9131 10.5903 18.7602 10.4484L15.2602 7.20026Z" fill="#7D8198"/>
</svg>
