<svg width="24" height="24" viewBox="0 0 24 24" fill="none" xmlns="http://www.w3.org/2000/svg">
<path d="M5.21967 5.21967C5.36032 5.07902 5.55109 5 5.75 5L10.25 5C10.6642 5 11 5.33579 11 5.75C11 6.16422 10.6642 6.5 10.25 6.5L7.56072 6.5L17.5 16.4393V13.75C17.5 13.3358 17.8358 13 18.25 13C18.6642 13 19 13.3358 19 13.75V18.25C19 18.4489 18.921 18.6397 18.7803 18.7803C18.6397 18.921 18.4489 19 18.25 19H13.75C13.3358 19 13 18.6642 13 18.25C13 17.8358 13.3358 17.5 13.75 17.5H16.4393L6.5 7.5606V10.25C6.5 10.6642 6.16421 11 5.75 11C5.33579 11 5 10.6642 5 10.25V5.75C5 5.55109 5.07902 5.36032 5.21967 5.21967Z" fill="#7D8198"/>
</svg>
