<svg width="24" height="24" viewBox="0 0 24 24" fill="none" xmlns="http://www.w3.org/2000/svg">
<path fill-rule="evenodd" clip-rule="evenodd" d="M11.4423 10.7539C11.5845 10.9121 11.7873 11.0024 12 11.0024C12.2128 11.0024 12.4155 10.9121 12.5577 10.7539L14.8077 8.25146C15.0847 7.94344 15.0595 7.46924 14.7515 7.19229C14.4435 6.91535 13.9692 6.94054 13.6923 7.24855L12 9.13071L10.3077 7.24855C10.0308 6.94054 9.55657 6.91535 9.24855 7.19229C8.94054 7.46924 8.91535 7.94344 9.19229 8.25146L11.4423 10.7539ZM11.4424 13.2484C11.5847 13.0903 11.7874 13 12 13C12.2127 13 12.4154 13.0903 12.5576 13.2484L14.8076 15.7497C15.0846 16.0576 15.0596 16.5319 14.7516 16.8089C14.4437 17.0859 13.9694 17.0608 13.6924 16.7529L12 14.8715L10.3076 16.7529C10.0306 17.0608 9.5564 17.0859 9.24844 16.8089C8.94049 16.5318 8.91541 16.0576 9.19243 15.7497L11.4424 13.2484Z" fill="#7D8198"/>
</svg>
