<svg width="24" height="24" viewBox="0 0 24 24" fill="none" xmlns="http://www.w3.org/2000/svg">
<path fill-rule="evenodd" clip-rule="evenodd" d="M19.7803 4.21969C19.9766 4.41591 20.0484 4.70445 19.9671 4.96977L15.2171 20.4698C15.1267 20.7648 14.8648 20.9744 14.5571 20.9978C14.2494 21.0213 13.9587 20.854 13.8246 20.5761L10.4383 13.5617L3.42395 10.1754C3.14606 10.0413 2.9787 9.75061 3.00219 9.44293C3.02568 9.13524 3.23522 8.87335 3.53026 8.78294L19.0303 4.03294C19.2956 3.95163 19.5841 4.02347 19.7803 4.21969ZM11.907 13.1537L14.3436 18.2008L17.6503 7.41038L11.907 13.1537ZM16.5896 6.34972L5.79921 9.65647L10.8464 12.093L16.5896 6.34972Z" fill="#7D8198"/>
</svg>
