<svg width="24" height="24" viewBox="0 0 24 24" fill="none" xmlns="http://www.w3.org/2000/svg">
<path d="M16.8315 18.0979C16.4676 17.5499 15.9784 17.082 15.378 16.7128C14.4298 16.1293 13.2611 15.8214 12.0001 15.8214C10.7634 15.8214 9.5633 16.143 8.62053 16.7268C8.02564 17.0954 7.54001 17.5585 7.17725 18.0979M20 12C20 16.4183 16.4183 20 12 20C7.58172 20 4 16.4183 4 12C4 7.58172 7.58172 4 12 4C16.4183 4 20 7.58172 20 12ZM10.4303 8.99112C10.8603 8.5295 11.4549 8.29065 12.0925 8.29065C12.7291 8.29065 13.3241 8.53459 13.7515 8.99379C14.1841 9.45862 14.3832 10.0806 14.3372 10.7256C14.2939 11.3247 14.0542 11.8944 13.6516 12.3272C13.2381 12.7713 12.6864 13.0373 12.0925 13.0373C11.4988 13.0373 10.9467 12.7708 10.5326 12.3274C10.1294 11.8944 9.88925 11.3243 9.84692 10.725C9.80117 10.0776 9.99851 9.45469 10.4303 8.99112Z" stroke="#5B53FF" stroke-width="1.5" stroke-miterlimit="10" stroke-linecap="round" stroke-linejoin="round"/>
</svg>
