<svg width="24" height="24" viewBox="0 0 24 24" fill="none" xmlns="http://www.w3.org/2000/svg">
<path fill-rule="evenodd" clip-rule="evenodd" d="M18.7767 16.7677C19.1354 16.9748 19.5941 16.8519 19.8012 16.4932C20.0083 16.1345 19.8854 15.6758 19.5267 15.4687L18.4429 14.843L18.8176 14.194C19.0237 13.8371 18.7337 13.3981 18.3245 13.4476L16.4245 13.6776L14.253 12.4239C13.9197 12.2315 13.9197 11.7504 14.253 11.5579L16.4106 10.3123L18.3181 10.5404C18.727 10.5893 19.0164 10.1506 18.8105 9.79391L18.435 9.14347L19.5188 8.51773C19.8775 8.31062 20.0004 7.85193 19.7933 7.49321C19.5862 7.13449 19.1275 7.01158 18.7688 7.21869L17.685 7.84443L17.3103 7.19545C17.1042 6.83852 16.579 6.87018 16.4173 7.24929L15.6664 9.00982L13.4951 10.2635C13.1617 10.4559 12.7451 10.2153 12.7451 9.83045V7.33928L13.8965 5.8012C14.1433 5.47153 13.9081 5.00155 13.4962 5.00155L12.7451 5.00156V3.75006C12.7451 3.33585 12.4093 3.00006 11.9951 3.00006C11.5809 3.00006 11.2451 3.33585 11.2451 3.75006V5.00156L10.4958 5.00156C10.0837 5.00156 9.8485 5.4722 10.096 5.80178L11.2451 7.33219L11.2451 9.83964C11.2451 10.2245 10.8284 10.4651 10.4951 10.2727L8.33742 9.02693L7.58117 7.26083C7.41906 6.88226 6.89443 6.851 6.68852 7.20765L6.31297 7.85812L5.22919 7.2324C4.87047 7.02529 4.41178 7.14819 4.20467 7.50691C3.99756 7.86563 4.12047 8.32433 4.47919 8.53143L5.56298 9.15716L5.1883 9.80611C4.98223 10.163 5.27223 10.602 5.68139 10.5525L7.58145 10.3225L9.75293 11.5762C10.0863 11.7687 10.0863 12.2498 9.75293 12.4423L7.59547 13.6879L5.68791 13.4598C5.279 13.4109 4.98962 13.8496 5.19553 14.2062L5.57106 14.8567L4.48725 15.4824C4.12853 15.6895 4.00562 16.1482 4.21273 16.5069C4.41984 16.8656 4.87853 16.9885 5.23725 16.7814L6.32107 16.1557L6.69576 16.8047C6.90183 17.1616 7.42699 17.1299 7.58869 16.7508L8.33958 14.9903L10.5 13.743C10.8333 13.5506 11.25 13.7911 11.25 14.176V16.6608L10.0985 18.1989C9.85173 18.5286 10.087 18.9986 10.4988 18.9986L11.25 18.9986V20.2501C11.25 20.6643 11.5857 21.0001 12 21.0001C12.4142 21.0001 12.75 20.6643 12.75 20.2501L12.75 18.9986L13.4992 18.9986C13.9114 18.9986 14.1465 18.5279 13.8991 18.1983L12.75 16.6679L12.75 14.1542C12.75 13.7693 13.1666 13.5287 13.5 13.7212L15.6685 14.9732L16.4247 16.7393C16.5868 17.1179 17.1115 17.1491 17.3174 16.7925L17.6929 16.142L18.7767 16.7677Z" fill="#7D8198"/>
</svg>
