<svg width="24" height="24" viewBox="0 0 24 24" fill="none" xmlns="http://www.w3.org/2000/svg">
<path d="M12.75 3.74794C12.7488 3.33373 12.4121 2.99887 11.9979 3C11.5837 3.00114 11.2488 3.33785 11.25 3.75206C11.2533 4.96585 11.2516 6.23162 11.25 7.49925L11.25 7.5004C11.2483 8.76705 11.2466 10.0355 11.25 11.2525C11.2511 11.6667 11.5878 12.0016 12.002 12.0005C12.4162 11.9993 12.7511 11.6626 12.75 11.2484C12.7466 10.0346 12.7483 8.76885 12.75 7.50122L12.75 7.49938C12.7516 6.23296 12.7533 4.96472 12.75 3.74794Z" fill="#7D8198"/>
<path d="M8.64744 6.3861C8.99869 6.16657 9.10547 5.70385 8.88594 5.3526C8.6664 5.00135 8.20369 4.89457 7.85244 5.1141C5.6435 6.49469 4.00098 9.27479 4.00098 12.0017C4.00098 16.4189 7.58189 19.9998 11.9992 19.9998C16.4165 19.9998 19.9974 16.4189 19.9974 12.0017C19.9974 9.27726 18.6097 6.75508 16.1627 5.12581C15.8179 4.89626 15.3523 4.98966 15.1227 5.33445C14.8932 5.67923 14.9866 6.14483 15.3314 6.37439C17.3901 7.74512 18.4974 9.81346 18.4974 12.0017C18.4974 15.5905 15.588 18.4998 11.9992 18.4998C8.41032 18.4998 5.50098 15.5905 5.50098 12.0017C5.50098 9.81593 6.85637 7.50551 8.64744 6.3861Z" fill="#7D8198"/>
</svg>
