<svg fill="none" height="24" viewBox="0 0 24 24" width="24" xmlns="http://www.w3.org/2000/svg"><g fill="#7d8198"><path d="m16.5337 20.9989h-4.4206c-.0748 0-.1122-.0419-.1122-.1259v-7.2691c-.002-.014-.0007-.0282.0037-.0416s.0117-.0256.0215-.0356.0218-.0176.0349-.022c.0132-.0045.0272-.0058.0409-.0038h1.3688c.0107-.0015.0215-.0005.0318.003.0102.0035.0195.0093.0271.0171s.0133.0172.0167.0277c.0035.0104.0045.0215.0029.0324v5.9755h3.2201c.0673 0 .0935.0343.0786.103l-.202 1.2363c-.0005.0169-.0048.0334-.0126.0483-.0077.0149-.0188.0278-.0323.0376-.0208.011-.0439.0169-.0673.0171z"/><path d="m17.6444 15.3097h1.2229c.0333.0003.0655.0116.0918.0323.0263.0206.0453.0495.0541.0821.0267.0502.0456.1043.0561.1603.0157.0736.0269.1482.0337.2232.0073.0802.0111.166.0112.2576.2097-.2492.4626-.4568.7461-.6124.3184-.1757.6759-.2644 1.0378-.2576.0138-.002.0277-.0007.0409.0038.0131.0044.0251.012.0349.022s.0171.0221.0215.0356c.0044.0134.0057.0276.0037.0416v1.3852c0 .0534-.0374.0802-.1122.0801-.4519-.0285-.904.0539-1.3183.2404-.1408.0621-.2685.1515-.3759.2633v3.6288c0 .0687-.0299.103-.0897.103h-1.3576c-.0153.0022-.0308.0008-.0454-.0041-.0146-.005-.0279-.0134-.0388-.0245s-.0191-.0246-.024-.0395c-.0048-.015-.0062-.0308-.004-.0464v-3.9378c0-.1678-.0019-.3453-.0056-.5324-.0039-.1869-.0095-.3719-.0169-.5552-.0049-.1572-.0199-.314-.0448-.4693-.0028-.0111-.0028-.0227.0002-.0338.0029-.011.0087-.0211.0166-.0292s.0178-.0139.0286-.0169.0222-.0031.0331-.0002z"/><path clip-rule="evenodd" d="m12 5.5c-1.8237 0-3.32236 1.39538-3.48527 3.17621-.03351.36633-.32777.65429-.69474.67986-1.82927.12747-3.31999 1.65583-3.31999 3.56803 0 1.9749 1.601 3.5759 3.57593 3.5759h1.17493c.41422 0 .75004.3358.75004.75s-.33582.75-.75004.75h-1.17493c-2.80336 0-5.07593-2.2726-5.07593-5.0759 0-2.5039 1.798-4.53961 4.11305-4.98567.48703-2.25178 2.48966-3.93843 4.88695-3.93843 2.7496 0 4.9808 2.2194 4.9999 4.96447l.0506.00657c1.7084.22188 3.0923 1.37316 3.6648 2.90736.0043.0113.0082.0228.0119.0343l.038.119c.1258.3947-.092.8166-.4867.9425-.3946.1258-.8165-.092-.9424-.4867l-.0321-.1007c-.3865-1.0177-1.3085-1.7804-2.4467-1.9283l-.7484-.0972c-.1993-.0258-.3798-.1306-.5012-.2907-.1213-.16011-.1734-.36223-.1444-.56105.0241-.16596.0367-.33606.0367-.50955 0-1.933-1.567-3.5-3.5-3.5z" fill-rule="evenodd"/></g></svg>