<svg width="24" height="24" viewBox="0 0 24 24" fill="none" xmlns="http://www.w3.org/2000/svg">
<path fill-rule="evenodd" clip-rule="evenodd" d="M5.5 7.75C5.5 7.05964 6.05964 6.5 6.75 6.5H9.9896C10.2957 6.5 10.5912 6.61235 10.8201 6.81574L11.9334 7.80538C12.4368 8.25283 13.0869 8.5 13.7604 8.5H18.2505C18.9408 8.5 19.5005 9.05964 19.5005 9.75V10.0158C19.4189 10.0086 19.3361 10.0049 19.2522 10.0049H8.30177C7.21359 10.0049 6.22775 10.6465 5.78721 11.6416L5.5 12.2903V7.75ZM4.013 16H4V7.75C4 6.23122 5.23122 5 6.75 5H9.9896C10.6631 5 11.3132 5.24717 11.8166 5.69462L12.9299 6.68426C13.1588 6.88765 13.4543 7 13.7604 7H18.2505C19.7693 7 21.0005 8.23122 21.0005 9.75V10.6311C21.8061 11.2971 22.2147 12.4058 21.8947 13.5164L20.8874 17.0114C20.5481 18.189 19.4705 18.9999 18.245 18.9999H6.75438C5.07785 18.9999 3.86855 17.5459 4.013 16ZM7.15879 12.2488C7.35903 11.7965 7.80714 11.5049 8.30177 11.5049H19.2522C20.0839 11.5049 20.6836 12.3019 20.4533 13.101L19.4461 16.596C19.2918 17.1313 18.802 17.4999 18.245 17.4999H6.75438C5.85058 17.4999 5.2455 16.5703 5.6114 15.7438L7.15879 12.2488Z" fill="#7D8198"/>
</svg>
