<svg width="24" height="24" viewBox="0 0 24 24" fill="none" xmlns="http://www.w3.org/2000/svg">
<path fill-rule="evenodd" clip-rule="evenodd" d="M4 6.75C4 5.23122 5.23122 4 6.75 4H17.25C18.7688 4 20 5.23122 20 6.75V17.25C20 18.7688 18.7688 20 17.25 20H6.75C5.23122 20 4 18.7688 4 17.25V6.75ZM6.75 5.5C6.05964 5.5 5.5 6.05964 5.5 6.75V17.25C5.5 17.9404 6.05964 18.5 6.75 18.5H17.25C17.9404 18.5 18.5 17.9404 18.5 17.25V6.75C18.5 6.05964 17.9404 5.5 17.25 5.5H6.75ZM8.25 9.99683C8.66421 9.99683 9 10.3326 9 10.7468L9 13.25C9 13.6642 8.66421 14 8.25 14C7.83579 14 7.5 13.6642 7.5 13.25L7.5 10.7468C7.5 10.3326 7.83579 9.99683 8.25 9.99683ZM16.5045 10.7468C16.5045 10.3326 16.1688 9.99683 15.7545 9.99683C15.3403 9.99683 15.0045 10.3326 15.0045 10.7468V13.25C15.0045 13.6642 15.3403 14 15.7545 14C16.1688 14 16.5045 13.6642 16.5045 13.25V10.7468ZM10.75 7.9978C11.1642 7.9978 11.5 8.33359 11.5 8.7478V15.2501C11.5 15.6643 11.1642 16.0001 10.75 16.0001C10.3358 16.0001 10 15.6643 10 15.2501V8.7478C10 8.33359 10.3358 7.9978 10.75 7.9978ZM14 9.75C14 9.33579 13.6642 9 13.25 9C12.8358 9 12.5 9.33579 12.5 9.75V14.2546C12.5 14.6689 12.8358 15.0046 13.25 15.0046C13.6642 15.0046 14 14.6689 14 14.2546V9.75Z" fill="#7D8198"/>
</svg>
