<svg width="24" height="24" viewBox="0 0 24 24" fill="none" xmlns="http://www.w3.org/2000/svg">
<path d="M12.7544 3.74976C12.7544 3.33554 12.4186 2.99976 12.0044 2.99976C11.5902 2.99976 11.2544 3.33554 11.2544 3.74976V5.24976C11.2544 5.66397 11.5902 5.99976 12.0044 5.99976C12.4186 5.99976 12.7544 5.66397 12.7544 5.24976V3.74976Z" fill="#7D8198"/>
<path d="M3.00224 11.9998C3.00224 11.5855 3.33803 11.2498 3.75224 11.2498H5.25224C5.66646 11.2498 6.00224 11.5855 6.00224 11.9998C6.00224 12.414 5.66646 12.7498 5.25224 12.7498H3.75224C3.33803 12.7498 3.00224 12.414 3.00224 11.9998Z" fill="#7D8198"/>
<path d="M18.0013 12C18.0013 11.5858 18.3371 11.25 18.7513 11.25H20.2513C20.6655 11.25 21.0013 11.5858 21.0013 12C21.0013 12.4142 20.6655 12.75 20.2513 12.75H18.7513C18.3371 12.75 18.0013 12.4142 18.0013 12Z" fill="#7D8198"/>
<path d="M12 17.9971C12.4142 17.9971 12.75 18.3329 12.75 18.7471V20.2471C12.75 20.6613 12.4142 20.9971 12 20.9971C11.5858 20.9971 11.25 20.6613 11.25 20.2471V18.7471C11.25 18.3329 11.5858 17.9971 12 17.9971Z" fill="#7D8198"/>
<path d="M17.2994 16.2437C17.0065 15.9508 16.5316 15.9508 16.2388 16.2437C15.9459 16.5366 15.9459 17.0115 16.2388 17.3044L17.2994 18.365C17.5923 18.6579 18.0672 18.6579 18.3601 18.365C18.653 18.0721 18.653 17.5973 18.3601 17.3044L17.2994 16.2437Z" fill="#7D8198"/>
<path d="M5.63485 5.638C5.92774 5.3451 6.40261 5.3451 6.69551 5.638L7.75617 6.69866C8.04906 6.99155 8.04906 7.46642 7.75617 7.75932C7.46327 8.05221 6.9884 8.05221 6.69551 7.75932L5.63485 6.69866C5.34195 6.40576 5.34195 5.93089 5.63485 5.638Z" fill="#7D8198"/>
<path d="M18.3653 6.69928C18.6582 6.40638 18.6582 5.93151 18.3653 5.63862C18.0725 5.34572 17.5976 5.34572 17.3047 5.63862L16.244 6.69928C15.9511 6.99217 15.9511 7.46704 16.244 7.75994C16.5369 8.05283 17.0118 8.05283 17.3047 7.75994L18.3653 6.69928Z" fill="#7D8198"/>
<path d="M7.76126 16.2436C8.05415 16.5365 8.05415 17.0114 7.76126 17.3043L6.7006 18.3649C6.4077 18.6578 5.93283 18.6578 5.63994 18.3649C5.34704 18.072 5.34704 17.5971 5.63994 17.3043L6.7006 16.2436C6.99349 15.9507 7.46836 15.9507 7.76126 16.2436Z" fill="#7D8198"/>
<path fill-rule="evenodd" clip-rule="evenodd" d="M17.0115 12C17.0115 14.7614 14.773 17 12.0115 17C9.25011 17 7.01154 14.7614 7.01154 12C7.01154 9.23858 9.25011 7 12.0115 7C14.773 7 17.0115 9.23858 17.0115 12ZM15.5115 12C15.5115 13.933 13.9445 15.5 12.0115 15.5C10.0785 15.5 8.51154 13.933 8.51154 12C8.51154 10.067 10.0785 8.5 12.0115 8.5C13.9445 8.5 15.5115 10.067 15.5115 12Z" fill="#7D8198"/>
</svg>
