<svg width="24" height="24" viewBox="0 0 24 24" fill="none" xmlns="http://www.w3.org/2000/svg">
<path fill-rule="evenodd" clip-rule="evenodd" d="M18.9736 9.0969C19.1577 9.54149 19.2983 10.0016 19.3941 10.4709H13.5293V4.60606C13.9985 4.70184 14.4587 4.84245 14.9033 5.0266C15.8157 5.40456 16.6448 5.95855 17.3432 6.65693C18.0416 7.35532 18.5956 8.18442 18.9736 9.0969ZM20.0475 11.975C20.6013 11.975 21.056 11.5247 20.9946 10.9743C20.9007 10.1327 20.6886 9.30674 20.3632 8.52127C19.9097 7.4263 19.2449 6.43137 18.4068 5.59331C17.5688 4.75525 16.5739 4.09047 15.4789 3.63691C14.6934 3.31156 13.8675 3.09947 13.0259 3.00557C12.4754 2.94416 12.0251 3.39888 12.0251 3.95271V10.9722C12.0251 11.5261 12.4741 11.975 13.0279 11.975H20.0475ZM9.54636 4.87416C9.93852 4.73726 10.1454 4.30837 10.0085 3.91621C9.87165 3.52405 9.44276 3.31712 9.0506 3.45402C7.60954 3.95707 6.3196 4.8174 5.30142 5.95452C4.28325 7.09165 3.5701 8.46843 3.22868 9.9561C2.88726 11.4438 2.92872 12.9937 3.34918 14.461C3.76964 15.9283 4.55537 17.265 5.63288 18.3461C6.71039 19.4271 8.04448 20.2173 9.51037 20.6426C10.9763 21.0679 12.5261 21.1144 14.0149 20.7779C15.5037 20.4414 16.8828 19.7328 18.0233 18.7184C19.1637 17.704 20.0283 16.4169 20.5361 14.9775C20.6743 14.5858 20.4688 14.1562 20.0771 14.018C19.6854 13.8798 19.2558 14.0853 19.1176 14.4771C18.6945 15.6766 17.974 16.7491 17.0236 17.5945C16.0732 18.4398 14.9239 19.0303 13.6832 19.3108C12.4426 19.5912 11.1511 19.5524 9.9295 19.198C8.70792 18.8435 7.59618 18.1851 6.69825 17.2842C5.80033 16.3833 5.14556 15.2694 4.79517 14.0467C4.44479 12.8239 4.41024 11.5323 4.69476 10.2926C4.97927 9.05283 5.57356 7.90552 6.42204 6.95791C7.27052 6.01031 8.34547 5.29337 9.54636 4.87416Z" fill="#7D8198"/>
</svg>
