<svg width="24" height="24" viewBox="0 0 24 24" fill="none" xmlns="http://www.w3.org/2000/svg">
<path fill-rule="evenodd" clip-rule="evenodd" d="M7.10352 18H5.75C4.23122 18 3 16.7688 3 15.25V8.75C3 7.23122 4.23122 6 5.75 6H7.10352C7.42998 4.84575 8.49122 4 9.75 4H14.25C15.5088 4 16.57 4.84575 16.8965 6H18.25C19.7688 6 21 7.23122 21 8.75V10.25C21 10.6642 20.6642 11 20.25 11C19.8358 11 19.5 10.6642 19.5 10.25V8.75C19.5 8.05964 18.9404 7.5 18.25 7.5H17V10.25C17 10.6642 16.6642 11 16.25 11C15.8358 11 15.5 10.6642 15.5 10.25V6.75C15.5 6.05964 14.9404 5.5 14.25 5.5H9.75C9.05964 5.5 8.5 6.05964 8.5 6.75V17.25C8.5 17.9404 9.05964 18.5 9.75 18.5H10.25C10.6642 18.5 11 18.8358 11 19.25C11 19.6642 10.6642 20 10.25 20H9.75C8.49122 20 7.42998 19.1543 7.10352 18ZM7 7.5H5.75C5.05964 7.5 4.5 8.05964 4.5 8.75V15.25C4.5 15.9404 5.05964 16.5 5.75 16.5H7V7.5Z" fill="#7D8198"/>
<path fill-rule="evenodd" clip-rule="evenodd" d="M17.5 22C19.9853 22 22 19.9853 22 17.5C22 15.0147 19.9853 13 17.5 13C15.0147 13 13 15.0147 13 17.5C13 19.9853 15.0147 22 17.5 22ZM17.7414 14.8966L17.9431 15.6457C18.1284 16.334 18.666 16.8716 19.3543 17.0569L20.1034 17.2586C20.35 17.325 20.35 17.675 20.1034 17.7414L19.3543 17.9431C18.666 18.1284 18.1284 18.666 17.9431 19.3543L17.7414 20.1034C17.675 20.35 17.325 20.35 17.2586 20.1034L17.0569 19.3543C16.8716 18.666 16.334 18.1284 15.6457 17.9431L14.8966 17.7414C14.65 17.675 14.65 17.325 14.8966 17.2586L15.6457 17.0569C16.334 16.8716 16.8716 16.334 17.0569 15.6457L17.2586 14.8966C17.325 14.65 17.675 14.65 17.7414 14.8966Z" fill="#7D8198"/>
</svg>
