<svg width="24" height="24" viewBox="0 0 24 24" fill="none" xmlns="http://www.w3.org/2000/svg">
<path d="M11.9998 4.50024C10.6742 4.50024 9.54126 4.87216 9.07203 5.09529C8.69796 5.27317 8.25051 5.11412 8.07263 4.74005C7.89475 4.36598 8.0538 3.91853 8.42787 3.74065C9.07583 3.43253 10.4277 3.00024 11.9998 3.00024C16.9704 3.00024 20.9998 7.02968 20.9998 12.0002C20.9998 16.9708 16.9704 21.0002 11.9998 21.0002C10.4213 21.0002 9.31645 20.6345 8.46149 20.2782C8.07914 20.1189 7.89833 19.6798 8.05764 19.2975C8.21696 18.9151 8.65606 18.7343 9.03841 18.8936C9.77721 19.2015 10.6806 19.5002 11.9998 19.5002C16.142 19.5002 19.4998 16.1424 19.4998 12.0002C19.4998 7.85811 16.142 4.50024 11.9998 4.50024Z" fill="#7D8198"/>
<path d="M5.65769 11.25L7.75999 9.30005C8.06368 9.01837 8.08153 8.54383 7.79984 8.24014C7.51816 7.93645 7.04362 7.91861 6.73993 8.20029L3.23619 11.4501C3.08318 11.592 2.99622 11.7913 2.99622 12C2.99621 12.2087 3.08317 12.4079 3.23617 12.5499L6.73992 15.7999C7.0436 16.0816 7.51814 16.0637 7.79983 15.76C8.08152 15.4564 8.06369 14.9818 7.76001 14.7001L5.65762 12.75H14.25C14.6642 12.75 15 12.4142 15 12C15 11.5858 14.6642 11.25 14.25 11.25H5.65769Z" fill="#7D8198"/>
</svg>
