<svg width="24" height="24" viewBox="0 0 24 24" fill="none" xmlns="http://www.w3.org/2000/svg">
<path fill-rule="evenodd" clip-rule="evenodd" d="M9.75 5C10.1642 5 10.5 5.33579 10.5 5.75V18.2501C10.5 18.6643 10.1642 19.0001 9.75 19.0001C9.33579 19.0001 9 18.6643 9 18.2501V5.75C9 5.33579 9.33579 5 9.75 5ZM6.5 10.7501C6.5 10.3359 6.16421 10.0001 5.75 10.0001C5.33579 10.0001 5 10.3359 5 10.7501V18.2501C5 18.6643 5.33579 19.0001 5.75 19.0001C6.16421 19.0001 6.5 18.6643 6.5 18.2501L6.5 10.7501ZM18.5 13.7499C18.5 13.3357 18.1642 12.9999 17.75 12.9999C17.3358 12.9999 17 13.3357 17 13.7499V18.2501C17 18.6643 17.3358 19.0001 17.75 19.0001C18.1642 19.0001 18.5 18.6643 18.5 18.2501V13.7499ZM14.5 7.75004C14.5 7.33583 14.1642 7.00004 13.75 7.00004C13.3358 7.00004 13 7.33583 13 7.75004V18.2502C13 18.6644 13.3358 19.0002 13.75 19.0002C14.1642 19.0002 14.5 18.6644 14.5 18.2502V7.75004Z" fill="#7D8198"/>
</svg>
