<svg width="24" height="24" viewBox="0 0 24 24" fill="none" xmlns="http://www.w3.org/2000/svg">
<path fill-rule="evenodd" clip-rule="evenodd" d="M4 6.75C4 5.23122 5.23122 4 6.75 4H17.25C18.7688 4 20 5.23122 20 6.75V9.25C20 9.66421 19.6642 10 19.25 10C18.8358 10 18.5 9.66421 18.5 9.25V6.75C18.5 6.05964 17.9404 5.5 17.25 5.5H12.5V14.25C12.5 14.6642 12.1642 15 11.75 15C11.3358 15 11 14.6642 11 14.25V10.5H5.5V17.25C5.5 17.9404 6.05964 18.5 6.75 18.5H11.25C11.6642 18.5 12 18.8358 12 19.25C12 19.6642 11.6642 20 11.25 20H6.75C5.23122 20 4 18.7688 4 17.25V6.75ZM11 5.5V9H5.5V6.75C5.5 6.05964 6.05964 5.5 6.75 5.5H11Z" fill="#7D8198"/>
<path d="M16.75 12.75V18.4875L15.3026 17.2477C15.0252 16.9401 14.5509 16.9156 14.2433 17.193C13.9357 17.4704 13.9112 17.9447 14.1886 18.2523L16.943 20.7523C17.0853 20.9101 17.2879 21.0001 17.5004 21C17.7128 20.9999 17.9153 20.9097 18.0575 20.7517L20.8075 18.2517C21.0846 17.9438 21.0596 17.4696 20.7517 17.1925C20.4438 16.9154 19.9696 16.9404 19.6925 17.2483L18.25 18.4857V12.75C18.25 12.3358 17.9142 12 17.5 12C17.0858 12 16.75 12.3358 16.75 12.75Z" fill="#7D8198"/>
</svg>
