<svg width="24" height="24" viewBox="0 0 24 24" fill="none" xmlns="http://www.w3.org/2000/svg">
<path fill-rule="evenodd" clip-rule="evenodd" d="M4 6.75C4 5.23122 5.23122 4 6.75 4H17.25C18.7688 4 20 5.23122 20 6.75V17.25C20 18.7688 18.7688 20 17.25 20H6.75C5.23122 20 4 18.7688 4 17.25V6.75ZM8 5.99999C8 6.55228 7.55228 6.99999 7 6.99999C6.44772 6.99999 6 6.55228 6 5.99999C6 5.44771 6.44772 4.99999 7 4.99999C7.55228 4.99999 8 5.44771 8 5.99999ZM5.5 8.49902C5.5 8.22288 5.72386 7.99902 6 7.99902H18C18.2761 7.99902 18.5 8.22288 18.5 8.49902V18C18.5 18.2761 18.2761 18.5 18 18.5H6C5.72386 18.5 5.5 18.2761 5.5 18V8.49902ZM10 6.99999C10.5523 6.99999 11 6.55228 11 5.99999C11 5.44771 10.5523 4.99999 10 4.99999C9.44772 4.99999 9 5.44771 9 5.99999C9 6.55228 9.44772 6.99999 10 6.99999ZM14 5.99999C14 6.55228 13.5523 6.99999 13 6.99999C12.4477 6.99999 12 6.55228 12 5.99999C12 5.44771 12.4477 4.99999 13 4.99999C13.5523 4.99999 14 5.44771 14 5.99999Z" fill="#7D8198"/>
</svg>
