<svg width="24" height="24" viewBox="0 0 24 24" fill="none" xmlns="http://www.w3.org/2000/svg">
<path d="M11.25 9.65934L9.29967 11.7603C9.01786 12.0639 8.54332 12.0815 8.23974 11.7997C7.93617 11.5179 7.91852 11.0434 8.20033 10.7398L11.4503 7.23877C11.5922 7.08589 11.7914 6.99902 12 6.99902C12.2086 6.99902 12.4078 7.08589 12.5497 7.23877L15.7997 10.7398C16.0815 11.0434 16.0638 11.5179 15.7603 11.7997C15.4567 12.0815 14.9821 12.0639 14.7003 11.7603L12.75 9.65934V16.25C12.75 16.6642 12.4142 17 12 17C11.5858 17 11.25 16.6642 11.25 16.25V9.65934Z" fill="#7D8198"/>
<path fill-rule="evenodd" clip-rule="evenodd" d="M21 12C21 7.02944 16.9706 3 12 3C7.02944 3 3 7.02944 3 12C3 16.9706 7.02944 21 12 21C16.9706 21 21 16.9706 21 12ZM12 4.5C16.1421 4.5 19.5 7.85786 19.5 12C19.5 16.1421 16.1421 19.5 12 19.5C7.85786 19.5 4.5 16.1421 4.5 12C4.5 7.85786 7.85786 4.5 12 4.5Z" fill="#7D8198"/>
</svg>
