<svg width="24" height="24" viewBox="0 0 24 24" fill="none" xmlns="http://www.w3.org/2000/svg">
<path d="M17.2673 14.7189C17.2673 14.3047 16.9315 13.9689 16.5173 13.9689H8.01733C7.60312 13.9689 7.26733 14.3047 7.26733 14.7189V16.2189C7.26733 16.6331 7.60312 16.9689 8.01733 16.9689H16.5173C16.9315 16.9689 17.2673 16.6331 17.2673 16.2189V14.7189Z" fill="#7D8198"/>
<path fill-rule="evenodd" clip-rule="evenodd" d="M4 6.75C4 5.23122 5.23122 4 6.75 4H17.25C18.7688 4 20 5.23122 20 6.75V17.25C20 18.7688 18.7688 20 17.25 20H6.75C5.23122 20 4 18.7688 4 17.25V6.75ZM6.75 5.5C6.05964 5.5 5.5 6.05964 5.5 6.75V17.25C5.5 17.9404 6.05964 18.5 6.75 18.5H17.25C17.9404 18.5 18.5 17.9404 18.5 17.25V6.75C18.5 6.05964 17.9404 5.5 17.25 5.5H6.75Z" fill="#7D8198"/>
</svg>
