<svg width="24" height="24" viewBox="0 0 24 24" fill="none" xmlns="http://www.w3.org/2000/svg">
<path fill-rule="evenodd" clip-rule="evenodd" d="M5.03667 5.03444C3.56964 5.42753 2.69904 6.93545 3.09213 8.40248L5.03332 15.6471C5.39057 16.9804 6.66864 17.821 7.99998 17.6682V18.2499C7.99998 19.7687 9.2312 20.9999 10.75 20.9999H18.25C19.7688 20.9999 21 19.7687 21 18.2499V10.7499C21 9.23112 19.7688 7.99991 18.25 7.99991H16.4441L15.6495 5.03705C15.2561 3.57037 13.7484 2.70014 12.2816 3.09317L5.03667 5.03444ZM14.8911 7.99991L14.2007 5.42564C14.0219 4.75897 13.3365 4.36341 12.6698 4.54205L5.4249 6.48332C4.75807 6.662 4.36234 7.34742 4.54102 8.01426L6.48221 15.2589C6.65971 15.9213 7.33731 16.3162 7.99998 16.1462V10.7499C7.99998 9.23112 9.2312 7.99991 10.75 7.99991H14.8911ZM9.49998 10.7499C9.49998 10.0596 10.0596 9.49991 10.75 9.49991H18.25C18.9403 9.49991 19.5 10.0596 19.5 10.7499V18.2499C19.5 18.9403 18.9403 19.4999 18.25 19.4999H10.75C10.0596 19.4999 9.49998 18.9403 9.49998 18.2499V10.7499Z" fill="#7D8198"/>
</svg>
