<svg width="24" height="24" viewBox="0 0 24 24" fill="none" xmlns="http://www.w3.org/2000/svg">
<path d="M9.75 13C9.33579 13 9 13.3358 9 13.75C9 14.1642 9.33579 14.5 9.75 14.5H14.25C14.6642 14.5 15 14.1642 15 13.75C15 13.3358 14.6642 13 14.25 13H9.75Z" fill="#7D8198"/>
<path fill-rule="evenodd" clip-rule="evenodd" d="M4 5.75C4 4.7835 4.7835 4 5.75 4H18.25C19.2165 4 20 4.7835 20 5.75V8.25159C20 8.94969 19.5912 9.55231 19 9.83318V16.2476C19 18.3186 17.3211 19.9976 15.25 19.9976H8.75C6.67893 19.9976 5 18.3186 5 16.2476V9.83318C4.40876 9.55231 4 8.94969 4 8.25159V5.75ZM6.5 10.0016H17.5V16.2476C17.5 17.4902 16.4926 18.4976 15.25 18.4976H8.75C7.50736 18.4976 6.5 17.4902 6.5 16.2476V10.0016ZM5.75 5.5C5.61193 5.5 5.5 5.61193 5.5 5.75V8.25159C5.5 8.38966 5.61193 8.50159 5.75 8.50159H18.25C18.3881 8.50159 18.5 8.38966 18.5 8.25159V5.75C18.5 5.61193 18.3881 5.5 18.25 5.5H5.75Z" fill="#7D8198"/>
</svg>
