<svg width="24" height="25" viewBox="0 0 24 25" fill="none" xmlns="http://www.w3.org/2000/svg">
<path d="M16.25 12.49C16.664 12.4903 17 12.8259 17 13.24V16.74C17 17.154 16.664 17.4897 16.25 17.49H12.748C12.3339 17.49 11.9981 17.1542 11.998 16.74C11.998 16.3258 12.3338 15.99 12.748 15.99H15.5V13.24C15.5 12.8259 15.836 12.4902 16.25 12.49Z" fill="#7D8198"/>
<path d="M11.25 7.48999C11.6642 7.48999 12 7.82578 12 8.23999C12 8.6542 11.6642 8.98999 11.25 8.98999H8.5V11.74C8.5 12.1542 8.16421 12.49 7.75 12.49C7.33579 12.49 7 12.1542 7 11.74V8.23999C7 7.82578 7.33579 7.48999 7.75 7.48999H11.25Z" fill="#7D8198"/>
<path fill-rule="evenodd" clip-rule="evenodd" d="M17.25 4.48999C18.7688 4.48999 20 5.72121 20 7.23999V17.74C20 19.2588 18.7688 20.49 17.25 20.49H6.75C5.23122 20.49 4 19.2588 4 17.74V7.23999C4 5.72121 5.23122 4.48999 6.75 4.48999H17.25ZM6.75 5.98999C6.05964 5.98999 5.5 6.54963 5.5 7.23999V17.74C5.5 18.4303 6.05964 18.99 6.75 18.99H17.25C17.9404 18.99 18.5 18.4303 18.5 17.74V7.23999C18.5 6.54963 17.9404 5.98999 17.25 5.98999H6.75Z" fill="#7D8198"/>
</svg>
