<svg width="24" height="24" viewBox="0 0 24 24" fill="none" xmlns="http://www.w3.org/2000/svg">
<path fill-rule="evenodd" clip-rule="evenodd" d="M20.2505 11.5H5.5V16.25C5.5 16.9404 6.05964 17.5 6.75 17.5H12.25C12.6642 17.5 13 17.8358 13 18.25C13 18.6642 12.6642 19 12.25 19H6.75C5.23122 19 4 17.7688 4 16.25V11.5H3.99811V10H4V7.75C4 6.23122 5.23122 5 6.75 5H9.9896C10.6631 5 11.3132 5.24717 11.8166 5.69462L12.9299 6.68426C13.1588 6.88765 13.4543 7 13.7604 7H18.2505C19.7693 7 21.0005 8.23122 21.0005 9.75V10.75C21.0005 11.1642 20.6647 11.5 20.2505 11.5ZM5.5 7.75C5.5 7.05964 6.05964 6.5 6.75 6.5H9.9896C10.2957 6.5 10.5912 6.61235 10.8201 6.81574L11.9334 7.80538C12.4368 8.25283 13.0869 8.5 13.7604 8.5H18.2505C18.9408 8.5 19.5005 9.05964 19.5005 9.75V10H5.5V7.75Z" fill="#7D8198"/>
<path fill-rule="evenodd" clip-rule="evenodd" d="M16 14.8937V16C15.4477 16 15 16.4477 15 17V20C15 20.5523 15.4477 21 16 21H20C20.5523 21 21 20.5523 21 20V17C21 16.4477 20.5523 16 20 16V14.8937C20 14.6377 19.9453 14.3856 19.8405 14.1523C19.7358 13.9191 19.5838 13.7107 19.396 13.5375C19.2083 13.3644 18.9881 13.2294 18.7492 13.1382C18.5104 13.0469 18.2559 13.0005 18 13.0005C17.7441 13.0005 17.4896 13.0469 17.2508 13.1382C17.0119 13.2294 16.7917 13.3644 16.604 13.5375C16.4162 13.7107 16.2642 13.9191 16.1595 14.1523C16.0547 14.3856 16 14.6377 16 14.8937ZM18 14.2505C17.8948 14.2505 17.7917 14.2697 17.6969 14.3059C17.6021 14.3421 17.5191 14.394 17.4515 14.4564C17.3839 14.5187 17.3333 14.5898 17.2998 14.6644C17.2664 14.7388 17.25 14.8165 17.25 14.8937V16H18.75V14.8937C18.75 14.8165 18.7336 14.7388 18.7002 14.6644C18.6667 14.5898 18.6161 14.5187 18.5485 14.4564C18.4809 14.394 18.3979 14.3421 18.3031 14.3059C18.2083 14.2697 18.1052 14.2505 18 14.2505Z" fill="#7D8198"/>
</svg>
