<svg width="24" height="24" viewBox="0 0 24 24" fill="none" xmlns="http://www.w3.org/2000/svg">
<path d="M5 6C5 5.44772 5.44772 5 6 5H18.0014C18.5537 5 19.0014 5.44772 19.0014 6C19.0014 6.55228 18.5537 7 18.0014 7H6C5.44772 7 5 6.55228 5 6Z" fill="#7D8198"/>
<path d="M4 12C4 11.4477 4.44772 11 5 11H19.0014C19.5537 11 20.0014 11.4477 20.0014 12C20.0014 12.5523 19.5537 13 19.0014 13H5C4.44772 13 4 12.5523 4 12Z" fill="#7D8198"/>
<path d="M7 17C6.44772 17 6 17.4477 6 18C6 18.5523 6.44772 19 7 19H17.0014C17.5537 19 18.0014 18.5523 18.0014 18C18.0014 17.4477 17.5537 17 17.0014 17H7Z" fill="#7D8198"/>
</svg>
