<svg width="24" height="24" viewBox="0 0 24 24" fill="none" xmlns="http://www.w3.org/2000/svg">
<path fill-rule="evenodd" clip-rule="evenodd" d="M3.21967 11.2803C3.07902 11.1397 3 10.9489 3 10.75L3 5.75C3 5.33578 3.33579 5 3.75 4.99999C4.16421 4.99999 4.5 5.33578 4.5 5.74999L4.5 10L7.10269 10C7.42819 8.84425 8.49016 7.99707 9.75 7.99707L18.25 7.99707C19.7688 7.99707 21 9.22829 21 10.7471L21 16.25C21 17.7688 19.7688 19 18.25 19L9.75 19C8.23122 19 7 17.7688 7 16.25L7 11.5L3.75 11.5C3.55109 11.5 3.36032 11.421 3.21967 11.2803ZM9.75 17.5C9.05964 17.5 8.5 16.9404 8.5 16.25L8.5 10.7471C8.5 10.0567 9.05964 9.49707 9.75 9.49707L18.25 9.49707C18.9404 9.49707 19.5 10.0567 19.5 10.7471L19.5 16.25C19.5 16.9404 18.9404 17.5 18.25 17.5L9.75 17.5ZM12 15C12 14.4477 11.5523 14 11 14C10.4477 14 10 14.4477 10 15C10 15.5523 10.4477 16 11 16C11.5523 16 12 15.5523 12 15ZM14 14C14.5523 14 15 14.4477 15 15C15 15.5523 14.5523 16 14 16C13.4477 16 13 15.5523 13 15C13 14.4477 13.4477 14 14 14ZM18 15C18 14.4477 17.5523 14 17 14C16.4477 14 16 14.4477 16 15C16 15.5523 16.4477 16 17 16C17.5523 16 18 15.5523 18 15ZM13.5 11C13.2239 11 13 11.2239 13 11.5L13 12C13 12.2761 13.2239 12.5 13.5 12.5L17.5 12.5C17.7761 12.5 18 12.2761 18 12L18 11.5C18 11.2239 17.7761 11 17.5 11L13.5 11Z" fill="#7D8198"/>
</svg>
