<svg width="24" height="24" viewBox="0 0 24 24" fill="none" xmlns="http://www.w3.org/2000/svg">
<path d="M10 12.4916V15.5075C10 15.8795 10.3917 16.1212 10.7242 15.9544L13.7302 14.4464C14.0979 14.262 14.0979 13.7371 13.7302 13.5526L10.7242 12.0447C10.3917 11.8779 10 12.1196 10 12.4916Z" fill="#7D8198"/>
<path fill-rule="evenodd" clip-rule="evenodd" d="M8.49791 3.98987L8.50501 4.00001H13.9573L13.9718 3.98987L13.9789 4.00001H17.25C18.7688 4.00001 20 5.23122 20 6.75001V17.25C20 18.7688 18.7688 20 17.25 20H6.75C5.23122 20 4 18.7688 4 17.25V6.75001C4 5.23122 5.23122 4.00001 6.75 4.00001H8.48343L8.49791 3.98987ZM14.9476 7.99866H11.3049L9.55532 5.50001H13.198L14.9476 7.99866ZM16.7787 7.99866L15.0292 5.50001H17.25C17.9404 5.50001 18.5 6.05965 18.5 6.75001V7.99866H16.7787ZM5.5 9.49866H18.5V17.25C18.5 17.9404 17.9404 18.5 17.25 18.5H6.75C6.05964 18.5 5.5 17.9404 5.5 17.25V9.49866ZM5.5 6.75001V7.99866H9.47374L7.72416 5.50001H6.75C6.05964 5.50001 5.5 6.05965 5.5 6.75001Z" fill="#7D8198"/>
</svg>
