<svg width="24" height="24" viewBox="0 0 24 24" fill="none" xmlns="http://www.w3.org/2000/svg">
<path fill-rule="evenodd" clip-rule="evenodd" d="M9.75 3C8.23122 3 7 4.23122 7 5.75V6.10352C5.84575 6.42998 5 7.49122 5 8.75V9.10352C3.84575 9.42998 3 10.4912 3 11.75V17.25C3 18.7688 4.23122 20 5.75 20H18.25C19.7688 20 21 18.7688 21 17.25V11.75C21 10.4912 20.1543 9.42998 19 9.10352V8.75C19 7.49122 18.1543 6.42998 17 6.10352V5.75C17 4.23122 15.7688 3 14.25 3H9.75ZM15.5 6V5.75C15.5 5.05964 14.9404 4.5 14.25 4.5H9.75C9.05964 4.5 8.5 5.05964 8.5 5.75V6H15.5ZM17.5 8.75V9H6.5V8.75C6.5 8.05964 7.05964 7.5 7.75 7.5H16.25C16.9404 7.5 17.5 8.05964 17.5 8.75ZM5.75 10.5C5.05964 10.5 4.5 11.0596 4.5 11.75V17.25C4.5 17.9404 5.05964 18.5 5.75 18.5H18.25C18.9404 18.5 19.5 17.9404 19.5 17.25V11.75C19.5 11.0596 18.9404 10.5 18.25 10.5H5.75Z" fill="#7D8198"/>
</svg>
