<svg width="24" height="24" viewBox="0 0 24 24" fill="none" xmlns="http://www.w3.org/2000/svg">
<path d="M5.99976 3.75C5.99976 3.33579 6.33554 3 6.74976 3H17.2502C17.6644 3 18.0002 3.33579 18.0002 3.75C18.0002 4.16421 17.6644 4.5 17.2502 4.5H6.74976C6.33554 4.5 5.99976 4.16421 5.99976 3.75Z" fill="#7D8198"/>
<path d="M4 8.75C4 7.23122 5.23122 6 6.75 6H17.25C18.7688 6 20 7.23122 20 8.75V10.25C20 10.6642 19.6642 11 19.25 11C18.8358 11 18.5 10.6642 18.5 10.25V8.75C18.5 8.05964 17.9404 7.5 17.25 7.5H6.75C6.05964 7.5 5.5 8.05964 5.5 8.75V16.25C5.5 16.9404 6.05964 17.5 6.75 17.5H10.25C10.6642 17.5 11 17.8358 11 18.25C11 18.6642 10.6642 19 10.25 19H6.75C5.23122 19 4 17.7688 4 16.25V8.75Z" fill="#7D8198"/>
<path fill-rule="evenodd" clip-rule="evenodd" d="M17.5 22C19.9853 22 22 19.9853 22 17.5C22 15.0147 19.9853 13 17.5 13C15.0147 13 13 15.0147 13 17.5C13 19.9853 15.0147 22 17.5 22ZM18.1343 15.0005C18.1343 14.6553 17.8545 14.3755 17.5093 14.3755C17.1641 14.3755 16.8843 14.6553 16.8843 15.0005V16.875H15.005C14.6598 16.875 14.38 17.1548 14.38 17.5C14.38 17.8452 14.6598 18.125 15.005 18.125H16.8843V20C16.8843 20.3452 17.1641 20.625 17.5093 20.625C17.8545 20.625 18.1343 20.3452 18.1343 20V18.125H20.0075C20.3527 18.125 20.6325 17.8452 20.6325 17.5C20.6325 17.1548 20.3527 16.875 20.0075 16.875H18.1343V15.0005Z" fill="#7D8198"/>
</svg>
