<svg width="24" height="24" viewBox="0 0 24 24" fill="none" xmlns="http://www.w3.org/2000/svg">
<path d="M18.4933 5.72148C16.9833 4.72019 14.4433 4.47987 12.0133 6.86296C9.58331 4.47987 7.04331 4.72019 5.53331 5.72148C3.45331 7.10328 2.79331 9.94696 4.00331 12.3601C7.03331 18.0475 11.5433 19.8798 11.7333 19.9499C11.8233 19.98 11.9133 20 12.0033 20C12.0933 20 12.1933 19.98 12.2733 19.9499C12.4633 19.8698 16.9733 18.0475 20.0033 12.3601C20.0033 12.3601 20.0033 12.3501 20.0033 12.3401C21.2033 9.94696 20.5433 7.09326 18.4733 5.72148H18.4933ZM18.6933 11.6592C16.3433 16.0549 12.9933 17.9473 12.0133 18.428C11.0333 17.9473 7.67331 16.0549 5.33331 11.6692C4.34331 9.68663 5.10331 7.80418 6.35331 6.97311C6.79331 6.68273 7.33331 6.49248 7.95331 6.49248C8.98331 6.49248 10.2133 7.02317 11.4433 8.45503C11.5833 8.62525 11.7933 8.71537 12.0133 8.71537C12.2333 8.71537 12.4433 8.61524 12.5833 8.45503C14.5433 6.17207 16.4933 6.19209 17.6633 6.97311C18.9133 7.80418 19.6733 9.68663 18.6933 11.6592Z" fill="#7D8198"/>
</svg>
