<svg width="24" height="24" viewBox="0 0 24 24" fill="none" xmlns="http://www.w3.org/2000/svg">
<path d="M19.4682 11.3183C19.5059 11.7308 19.8708 12.0347 20.2833 11.997C20.6958 11.9594 20.9997 11.5945 20.962 11.182C20.8066 9.47887 20.169 7.85532 19.1241 6.50147C18.0792 5.14763 16.6701 4.11956 15.062 3.53767C13.4538 2.95578 11.7132 2.84417 10.0439 3.2159C8.37458 3.58764 6.84576 4.42733 5.63649 5.63663C4.42721 6.84593 3.58756 8.37477 3.21586 10.0441C2.84416 11.7134 2.95581 13.454 3.53774 15.0622C4.11967 16.6703 5.14777 18.0794 6.50164 19.1242C7.8555 20.1691 9.47907 20.8066 11.1822 20.962C11.5947 20.9997 11.9596 20.6958 11.9972 20.2833C12.0349 19.8708 11.731 19.5059 11.3185 19.4682C10.1835 19.3647 9.09091 19.0042 8.12176 18.4186C8.42208 17.5449 9.22987 15.942 11.1392 15.578C11.2125 15.5641 11.2877 15.5518 11.365 15.5414C11.7755 15.486 12.0634 15.1084 12.008 14.6979C11.9527 14.2874 11.575 13.9995 11.1645 14.0548C11.0605 14.0688 10.9585 14.0855 10.8583 14.1046C8.49577 14.5549 7.37268 16.3199 6.8785 17.4781C6.01537 16.6711 5.35256 15.6691 4.94823 14.5518C4.4633 13.2117 4.37026 11.7612 4.68 10.3701C4.98974 8.97902 5.68945 7.70501 6.69716 6.69728C7.70487 5.68955 8.97886 4.98981 10.3699 4.68004C11.761 4.37026 13.2115 4.46327 14.5516 4.94817C15.8917 5.43307 17.0659 6.28979 17.9367 7.41797C18.8074 8.54615 19.3387 9.89909 19.4682 11.3183Z" fill="#7D8198"/>
<path fill-rule="evenodd" clip-rule="evenodd" d="M9 10C9 8.34315 10.3431 7 12 7C13.6569 7 15 8.34315 15 10C15 11.6569 13.6569 13 12 13C10.3431 13 9 11.6569 9 10ZM12 8.5C11.1716 8.5 10.5 9.17157 10.5 10C10.5 10.8284 11.1716 11.5 12 11.5C12.8284 11.5 13.5 10.8284 13.5 10C13.5 9.17157 12.8284 8.5 12 8.5Z" fill="#7D8198"/>
<path fill-rule="evenodd" clip-rule="evenodd" d="M17.5 22C19.9853 22 22 19.9853 22 17.5C22 15.0147 19.9853 13 17.5 13C15.0147 13 13 15.0147 13 17.5C13 19.9853 15.0147 22 17.5 22ZM18.1343 15.0005C18.1343 14.6553 17.8545 14.3755 17.5093 14.3755C17.1641 14.3755 16.8843 14.6553 16.8843 15.0005V16.875H15.005C14.6598 16.875 14.38 17.1548 14.38 17.5C14.38 17.8452 14.6598 18.125 15.005 18.125H16.8843V20C16.8843 20.3452 17.1641 20.625 17.5093 20.625C17.8545 20.625 18.1343 20.3452 18.1343 20V18.125H20.0075C20.3527 18.125 20.6325 17.8452 20.6325 17.5C20.6325 17.1548 20.3527 16.875 20.0075 16.875H18.1343V15.0005Z" fill="#7D8198"/>
</svg>
