<svg width="24" height="24" viewBox="0 0 24 24" fill="none" xmlns="http://www.w3.org/2000/svg">
<path fill-rule="evenodd" clip-rule="evenodd" d="M7.75 3.00073C6.23122 3.00073 5 4.23195 5 5.75073V17.2507C5 18.7695 6.23122 20.0007 7.75 20.0007H16.25C17.7688 20.0007 19 18.7695 19 17.2507V9.54721C19 8.78816 18.6863 8.06287 18.1331 7.5431L14.0926 3.74662C13.5827 3.26747 12.9093 3.00073 12.2095 3.00073H7.75ZM6.5 5.75073C6.5 5.06038 7.05964 4.50073 7.75 4.50073H12V8.25C12 9.2165 12.7835 10 13.75 10H17.5V17.2507C17.5 17.9411 16.9404 18.5007 16.25 18.5007H7.75C7.05964 18.5007 6.5 17.9411 6.5 17.2507V5.75073ZM16.9609 8.5L13.5 5.24804V8.25C13.5 8.38807 13.6119 8.5 13.75 8.5H16.9609Z" fill="#7D8198"/>
</svg>
