<svg width="24" height="24" viewBox="0 0 24 24" fill="none" xmlns="http://www.w3.org/2000/svg">
<path d="M14.3579 6.76886C13.5891 6.20782 12.6454 5.9393 11.6964 6.01154C11.2834 6.04298 10.9741 6.40329 11.0055 6.81631C11.0369 7.22933 11.3972 7.53866 11.8103 7.50722C12.4034 7.46207 12.9932 7.62989 13.4737 7.98054C13.9542 8.33119 14.2939 8.84168 14.4319 9.42032C14.5279 9.82325 14.9324 10.072 15.3353 9.97598C15.7383 9.87993 15.987 9.47544 15.891 9.07251C15.6703 8.14669 15.1267 7.3299 14.3579 6.76886Z" fill="#7D8198"/>
<path fill-rule="evenodd" clip-rule="evenodd" d="M5 10C5 5.73066 8.53126 3 12 3C15.4707 3 19 5.75608 19 10C19 11.9629 18.1202 13.2321 17.2991 14.1178C17.0976 14.3351 16.8982 14.531 16.7219 14.7031L16.6799 14.7441C16.5171 14.9029 16.3817 15.0349 16.266 15.1591C16.0558 15.3846 16.01 15.4857 16.0004 15.5067C15.9992 15.5094 15.9986 15.5107 15.9983 15.5109L15.9982 15.7505C15.998 16.7168 15.2145 17.5 14.2482 17.5H9.75177C8.78545 17.5 8.00202 16.7168 8.00177 15.7505L8.00171 15.5111C8.0014 15.5109 8.00078 15.5095 7.9996 15.5069C7.99008 15.486 7.94423 15.3852 7.73449 15.1606C7.619 15.0369 7.4841 14.9055 7.3218 14.7475L7.27857 14.7054C7.10222 14.5336 6.90272 14.3379 6.70113 14.1207C5.8795 13.2354 5 11.9661 5 10ZM12 4.5C9.24942 4.5 6.5 6.66521 6.5 10C6.5 11.447 7.12136 12.3684 7.80058 13.1003C7.9742 13.2874 8.14992 13.4601 8.32532 13.631L8.37287 13.6773C8.52846 13.8287 8.68953 13.9855 8.83089 14.1369C9.10727 14.4329 9.50162 14.8976 9.50171 15.4998L9.50177 15.7501C9.50181 15.8881 9.61373 16 9.75177 16H14.2482C14.3863 16 14.4982 15.8881 14.4982 15.7501L14.4983 15.5C14.4984 14.8981 14.8923 14.4329 15.1686 14.1364C15.3102 13.9845 15.4716 13.8272 15.6275 13.6752L15.6742 13.6296C15.8497 13.4584 16.0254 13.2853 16.1991 13.098C16.8789 12.3647 17.5 11.4432 17.5 10C17.5 6.68696 14.7486 4.5 12 4.5Z" fill="#7D8198"/>
<path d="M9.74998 19C9.1977 19 8.7542 19.4876 9.10758 19.912C9.26057 20.0958 9.46023 20.2655 9.70189 20.4142C9.71777 20.424 9.7338 20.4337 9.74998 20.4432C9.77866 20.4601 9.80779 20.4767 9.83736 20.4929L9.8503 20.5C10.4422 20.8213 11.2061 21 12 21C12.7938 21 13.5578 20.8213 14.1497 20.5L14.1626 20.4929C14.1922 20.4767 14.2213 20.4601 14.25 20.4432C14.2662 20.4337 14.2822 20.424 14.2981 20.4142C14.5397 20.2655 14.7394 20.0958 14.8924 19.912C15.2458 19.4876 14.8023 19 14.25 19H9.74998Z" fill="#7D8198"/>
</svg>
