<svg width="24" height="24" viewBox="0 0 24 24" fill="none" xmlns="http://www.w3.org/2000/svg">
<path fill-rule="evenodd" clip-rule="evenodd" d="M4 6.75C4 5.23122 5.23122 4 6.75 4H17.25C18.7688 4 20 5.23122 20 6.75V17.25C20 18.7688 18.7688 20 17.25 20H6.75C5.23122 20 4 18.7688 4 17.25V6.75ZM6.75 5.5C6.05964 5.5 5.5 6.05964 5.5 6.75V9H9V5.5H6.75ZM10.5 5.5V9H13.5V5.5H10.5ZM10.5 10.5H13.5V13.5H10.5V10.5ZM9 13.5V10.5H5.5V13.5H9ZM5.5 15H9V18.5H6.75C6.05964 18.5 5.5 17.9404 5.5 17.25V15ZM10.5 15H13.5V18.5H10.5V15ZM15 15V18.5H17.25C17.9404 18.5 18.5 17.9404 18.5 17.25V15H15ZM18.5 13.5V10.5H15V13.5H18.5ZM15 5.5V9H18.5V6.75C18.5 6.05964 17.9404 5.5 17.25 5.5H15Z" fill="#7D8198"/>
</svg>
