<svg width="24" height="24" viewBox="0 0 24 24" fill="none" xmlns="http://www.w3.org/2000/svg">
<path fill-rule="evenodd" clip-rule="evenodd" d="M12 5.5C10.1763 5.5 8.67764 6.89538 8.51473 8.67621C8.48122 9.04254 8.18696 9.3305 7.81999 9.35607C5.99072 9.48354 4.5 11.0119 4.5 12.9241C4.5 14.899 6.101 16.5 8.07593 16.5H16.4666C18.1403 16.5 19.5 15.1372 19.5 13.4602C19.5 11.9376 18.3704 10.6551 16.8573 10.4585L16.1089 10.3613C15.9096 10.3355 15.7291 10.2307 15.6077 10.0706C15.4864 9.91049 15.4343 9.70837 15.4633 9.50955C15.4874 9.34359 15.5 9.17349 15.5 9C15.5 7.067 13.933 5.5 12 5.5ZM7.11305 7.93843C7.60008 5.68665 9.60271 4 12 4C14.7496 4 16.9808 6.2194 16.9999 8.96447L17.0505 8.97104C19.3079 9.26421 21 11.1806 21 13.4602C21 15.9623 18.972 18 16.4666 18H8.07593C5.27257 18 3 15.7274 3 12.9241C3 10.4202 4.798 8.38449 7.11305 7.93843Z" fill="#7D8198"/>
</svg>
