<svg width="24" height="24" viewBox="0 0 24 24" fill="none" xmlns="http://www.w3.org/2000/svg">
<path fill-rule="evenodd" clip-rule="evenodd" d="M7.75252 5C8.16673 5 8.50252 5.33579 8.50252 5.75L8.50252 18.25C8.50252 18.6642 8.16673 19 7.75252 19C7.3383 19 7.00252 18.6642 7.00252 18.25L7.00252 5.75C7.00252 5.33579 7.33831 5 7.75252 5ZM5.5 9.75C5.5 9.33579 5.16421 9 4.75 9C4.33579 9 4 9.33579 4 9.75V14.25C4 14.6642 4.33579 15 4.75 15C5.16421 15 5.5 14.6642 5.5 14.25V9.75ZM20.5 9.75C20.5 9.33579 20.1642 9 19.75 9C19.3358 9 19 9.33579 19 9.75V14.25C19 14.6642 19.3358 15 19.75 15C20.1642 15 20.5 14.6642 20.5 14.25V9.75ZM17.5 5.75C17.5 5.33579 17.1642 5 16.75 5C16.3358 5 16 5.33579 16 5.75V18.25C16 18.6642 16.3358 19 16.75 19C17.1642 19 17.5 18.6642 17.5 18.25V5.75ZM13.75 8C14.1642 8 14.5 8.33579 14.5 8.75V15.25C14.5 15.6642 14.1642 16 13.75 16C13.3358 16 13 15.6642 13 15.25V8.75C13 8.33579 13.3358 8 13.75 8ZM11.5 8.75C11.5 8.33579 11.1642 8 10.75 8C10.3358 8 10 8.33579 10 8.75V15.25C10 15.6642 10.3358 16 10.75 16C11.1642 16 11.5 15.6642 11.5 15.25V8.75Z" fill="#7D8198"/>
</svg>
