<svg width="24" height="24" viewBox="0 0 24 24" fill="none" xmlns="http://www.w3.org/2000/svg">
<path fill-rule="evenodd" clip-rule="evenodd" d="M9.25384 7.00002C9.02809 7.00002 8.91817 6.72348 9.08235 6.56821L11.652 4.13784C11.7486 4.04655 11.8724 4.00108 11.9961 4.00147C12.1195 4.00108 12.2431 4.04627 12.3396 4.13705L14.9244 6.56782C15.0893 6.72291 14.9796 7.00003 14.7534 7.00003L12.75 7.00002V11.25L17.0014 11.25L17.0014 9.24707C17.0014 9.02131 17.278 8.91139 17.4333 9.07557L19.8636 11.6453C19.9549 11.7418 20.0004 11.8656 20 11.9893C20.0004 12.1128 19.9552 12.2363 19.8644 12.3329L17.4336 14.9176C17.2786 15.0825 17.0014 14.9729 17.0014 14.7466L17.0014 12.75L12.75 12.75V17.0014L14.7498 17.0014C14.9755 17.0014 15.0854 17.278 14.9213 17.4333L12.3516 19.8636C12.255 19.9549 12.1312 20.0004 12.0075 20C11.8841 20.0004 11.7605 19.9552 11.664 19.8644L9.07925 17.4336C8.91433 17.2786 9.02397 17.0014 9.25024 17.0014L11.25 17.0014V12.75L6.99856 12.75L6.99855 14.7498C6.99855 14.9755 6.72202 15.0854 6.56674 14.9213L4.13638 12.3516C4.04508 12.255 3.99962 12.1312 4 12.0075C3.99962 11.8841 4.0448 11.7605 4.13559 11.664L6.56635 9.07925C6.72144 8.91433 6.99856 9.02397 6.99856 9.25024L6.99856 11.25L11.25 11.25V7.00002L9.25384 7.00002Z" fill="#7D8198"/>
</svg>
