<svg width="24" height="24" viewBox="0 0 24 24" fill="none" xmlns="http://www.w3.org/2000/svg">
<path d="M10.625 10.1612C9.47741 9.49889 9.12745 7.99275 9.84674 6.74734C10.5371 5.55202 12.0661 5.14247 13.2618 5.83259C13.6205 6.03962 14.0792 5.91676 14.2863 5.55817C14.4934 5.19957 14.3705 4.74104 14.0118 4.534C12.0986 3.42981 9.65227 4.08509 8.54771 5.9976C7.58236 7.66905 7.83908 9.82813 9.31962 11.0716L7.57957 15.0885C7.23734 15.2473 7 15.5939 7 15.9958C7 16.5479 7.44772 16.9955 8 16.9955C8.55228 16.9955 9 16.5479 9 15.9958C9 15.8898 8.98349 15.7876 8.95289 15.6917L10.9382 11.1084C11.0896 10.759 10.9549 10.3516 10.625 10.1612Z" fill="#7D8198"/>
<path d="M12.9693 8.24526C12.9894 8.16636 13 8.08372 13 7.99859C13 7.4465 12.5523 6.99894 12 6.99894C11.4477 6.99894 11 7.4465 11 7.99859C11 8.42174 11.263 8.78349 11.6345 8.92938L14.008 13.5871C14.1891 13.9425 14.6168 14.0939 14.9813 13.9317C16.2427 13.3703 17.7204 13.9374 18.282 15.1983C18.8476 16.4681 18.2675 18.0053 17.015 18.5628C16.6366 18.7312 16.4664 19.1744 16.6349 19.5526C16.8034 19.9309 17.2467 20.101 17.6251 19.9326C19.6521 19.0304 20.5469 16.5969 19.6523 14.5884C18.8531 12.7938 16.894 11.8777 15.0504 12.3293L12.9693 8.24526Z" fill="#7D8198"/>
<path d="M17 15.9958C17 16.5479 16.5523 16.9955 16 16.9955C15.7464 16.9955 15.5148 16.9011 15.3385 16.7456H11.9298C11.5787 18.5956 9.95279 19.9944 8 19.9944C5.79086 19.9944 4 18.2042 4 15.9958C4 15.5818 4.33579 15.2461 4.75 15.2461C5.16421 15.2461 5.5 15.5818 5.5 15.9958C5.5 17.3761 6.61929 18.495 8 18.495C9.38071 18.495 10.5 17.3761 10.5 15.9958C10.5 15.5818 10.8358 15.2461 11.25 15.2461H15.3385C15.5148 15.0905 15.7464 14.9962 16 14.9962C16.5523 14.9962 17 15.4437 17 15.9958Z" fill="#7D8198"/>
</svg>
