<svg width="24" height="24" viewBox="0 0 24 24" fill="none" xmlns="http://www.w3.org/2000/svg">
<path d="M12.75 15H16.25C16.6642 15 17 14.6642 17 14.25C17 13.8358 16.6642 13.5 16.25 13.5H12.75C12.3358 13.5 12 13.8358 12 14.25C12 14.6642 12.3358 15 12.75 15Z" fill="#7D8198"/>
<path fill-rule="evenodd" clip-rule="evenodd" d="M3 7.75366C3 6.23488 4.23122 5.00366 5.75 5.00366H18.25C19.7688 5.00366 21 6.23488 21 7.75366V16.2537C21 17.7724 19.7688 19.0037 18.25 19.0037H5.75C4.23122 19.0037 3 17.7724 3 16.2537V7.75366ZM5.75 6.50366C5.05964 6.50366 4.5 7.06331 4.5 7.75366V9L19.5 9V7.75366C19.5 7.06331 18.9404 6.50366 18.25 6.50366H5.75ZM4.5 16.2537V10.5L19.5 10.5V16.2537C19.5 16.944 18.9404 17.5037 18.25 17.5037H5.75C5.05964 17.5037 4.5 16.944 4.5 16.2537Z" fill="#7D8198"/>
</svg>
