<svg width="24" height="24" viewBox="0 0 24 24" fill="none" xmlns="http://www.w3.org/2000/svg">
<path fill-rule="evenodd" clip-rule="evenodd" d="M12 3C16.9706 3 21 7.02944 21 12C21 16.9706 16.9706 21 12 21C7.02944 21 3 16.9706 3 12C3 7.02944 7.02944 3 12 3ZM15.9902 12.5H19.4836C19.2782 15.6209 17.1637 18.2204 14.297 19.1417C15.2549 17.6484 15.9041 15.2463 15.9902 12.5ZM15.9808 11H19.4339C19.057 8.17138 17.1036 5.84117 14.4861 4.92185C15.3118 6.37725 15.8724 8.54153 15.9808 11ZM9.51395 4.92185C8.68818 6.37725 8.12763 8.54153 8.0192 11H4.56609C4.94296 8.17138 6.89641 5.84117 9.51395 4.92185ZM9.52076 11C9.61253 9.0784 10.0013 7.40911 10.5391 6.21578C11.2202 4.70468 11.8521 4.5 12 4.5C12.1479 4.5 12.7799 4.70468 13.4609 6.21578C13.9987 7.40911 14.3875 9.0784 14.4792 11H9.52076ZM9.51055 12.5H14.4894C14.4207 14.5267 14.0219 16.2894 13.4609 17.5342C12.7799 19.0453 12.1479 19.25 12 19.25C11.8521 19.25 11.2202 19.0453 10.5391 17.5342C9.97806 16.2894 9.57928 14.5267 9.51055 12.5ZM8.00977 12.5H4.5164C4.72182 15.6209 6.83628 18.2204 9.70301 19.1417C8.74511 17.6484 8.09588 15.2463 8.00977 12.5Z" fill="#7D8198"/>
</svg>
