<svg width="24" height="24" viewBox="0 0 24 24" fill="none" xmlns="http://www.w3.org/2000/svg">
<path fill-rule="evenodd" clip-rule="evenodd" d="M14 4.75147C14 4.46639 13.8384 4.20596 13.5829 4.07941C13.3275 3.95287 13.0224 3.98209 12.7956 4.15482L8.35093 7.53997C7.95911 7.83839 7.49253 8.00001 7 8.00001H4.75C3.7835 8.00001 3 8.78351 3 9.75V14.25C3 15.2193 3.78068 16.004 4.75 16L7 16.0042C7.49585 16.0022 7.96204 16.164 8.35646 16.4645L12.7955 19.8466C13.0222 20.0194 13.3274 20.0486 13.5829 19.9221C13.8384 19.7956 14 19.5351 14 19.25V4.75147ZM9.25979 8.73328L12.5 6.26545V17.7357L9.26552 15.2713C8.60816 14.7705 7.82641 14.5008 7 14.5042L4.75103 14.5C4.61256 14.5006 4.5 14.4019 4.5 14.2634V9.75C4.5 9.61193 4.61193 9.5 4.75 9.5H7C7.82088 9.5 8.60674 9.23065 9.25979 8.73328Z" fill="#7D8198"/>
<path d="M16.7895 8.38595C16.54 8.0553 16.0697 7.98951 15.7391 8.239C15.4084 8.48849 15.3427 8.95878 15.5921 9.28943C16.18 10.0685 16.4986 11.024 16.5 12C16.5014 12.976 16.1854 13.9195 15.5998 14.7002C15.3512 15.0316 15.4183 15.5017 15.7497 15.7502C16.081 15.9988 16.5511 15.9317 16.7997 15.6003C17.5806 14.5594 18.0018 13.3013 18 12C17.9982 10.6987 17.5733 9.42471 16.7895 8.38595Z" fill="#7D8198"/>
</svg>
