<svg width="24" height="24" viewBox="0 0 24 24" fill="none" xmlns="http://www.w3.org/2000/svg">
<path d="M12.1554 11.3626C12.6079 10.9624 13.8926 9.75034 13.8926 8.88916C13.8926 7.84392 13.0452 6.99658 12 6.99658C10.9548 6.99658 10.1074 7.84392 10.1074 8.88916C10.1074 9.75034 11.3921 10.9624 11.8446 11.3626C11.9343 11.442 12.0657 11.442 12.1554 11.3626Z" fill="#7D8198"/>
<path d="M13.7478 15.1944C13.002 14.7638 12.5946 13.0452 12.4743 12.4533C12.4504 12.3359 12.5161 12.2221 12.6297 12.1841C13.2025 11.9923 14.8945 11.4858 15.6403 11.9164C16.5455 12.439 16.8557 13.5965 16.3331 14.5017C15.8104 15.4069 14.653 15.717 13.7478 15.1944Z" fill="#7D8198"/>
<path d="M11.3703 12.1841C10.7975 11.9924 9.1054 11.4858 8.3596 11.9164C7.4544 12.439 7.14425 13.5965 7.66687 14.5017C8.18949 15.4069 9.34697 15.7171 10.2522 15.1945C10.998 14.7639 11.4053 13.0452 11.5257 12.4533C11.5495 12.3359 11.4839 12.2222 11.3703 12.1841Z" fill="#7D8198"/>
<path fill-rule="evenodd" clip-rule="evenodd" d="M12 3C7.02944 3 3 7.02944 3 12C3 16.9706 7.02944 21 12 21C16.9706 21 21 16.9706 21 12C21 7.02944 16.9706 3 12 3ZM4.5 12C4.5 7.85786 7.85786 4.5 12 4.5C16.1421 4.5 19.5 7.85786 19.5 12C19.5 16.1421 16.1421 19.5 12 19.5C7.85786 19.5 4.5 16.1421 4.5 12Z" fill="#7D8198"/>
</svg>
