<svg width="24" height="24" viewBox="0 0 24 24" fill="none" xmlns="http://www.w3.org/2000/svg">
<path d="M5.74708 6.49762L15.2313 6.49762C15.5263 6.49762 15.8184 6.55573 16.0909 6.66862C16.3634 6.78152 16.611 6.94699 16.8196 7.15559C17.0282 7.36419 17.1937 7.61183 17.3066 7.88438C17.4194 8.15693 17.4775 8.44905 17.4775 8.74406C17.4775 9.03906 17.4194 9.33118 17.3066 9.60373C17.1937 9.87628 17.0282 10.1239 16.8196 10.3325C16.611 10.5411 16.3634 10.7066 16.0909 10.8195C15.8184 10.9324 15.5263 10.9905 15.2313 10.9905H7.74376C7.25213 10.9905 6.7653 11.0865 6.31109 11.2746C5.85687 11.4628 5.44416 11.7386 5.09652 12.0862C4.74888 12.4339 4.47312 12.8467 4.28498 13.3009C4.09684 13.7552 4 14.242 4 14.7337C4 15.2254 4.09684 15.7122 4.28498 16.1665C4.47312 16.6207 4.74888 17.0335 5.09652 17.3811C5.44416 17.7288 5.85687 18.0046 6.31109 18.1928C6.7653 18.3809 7.25213 18.4778 7.74376 18.4778L16.3833 18.4786L15.4329 19.4291C15.1308 19.7313 15.1308 20.2212 15.4329 20.5234C15.7351 20.8255 16.225 20.8255 16.5271 20.5234L18.7734 18.2769C19.0755 17.9748 19.0755 17.4848 18.7734 17.1827L16.5271 14.9362C16.225 14.634 15.7351 14.634 15.4329 14.9362C15.1308 15.2384 15.1308 15.7283 15.4329 16.0305L16.3833 16.981L7.74376 16.981C7.44878 16.981 7.15669 16.922 6.88416 16.8091C6.61163 16.6962 6.364 16.5308 6.15542 16.3222C5.94684 16.1136 5.78138 15.8659 5.66849 15.5934C5.55561 15.3208 5.49751 15.0287 5.49751 14.7337C5.49751 14.4387 5.55561 14.1466 5.66849 13.874C5.78138 13.6015 5.94684 13.3538 6.15542 13.1452C6.364 12.9366 6.61163 12.7712 6.88416 12.6583C7.15669 12.5454 7.44878 12.4873 7.74376 12.4873L15.2313 12.4881C15.7229 12.4881 16.2097 12.3913 16.664 12.2031C17.1182 12.015 17.5309 11.7392 17.8785 11.3915C18.2262 11.0438 18.5019 10.6311 18.6901 10.1768C18.8782 9.7226 18.975 9.23573 18.975 8.74406C18.975 8.25238 18.8782 7.76552 18.6901 7.31127C18.5019 6.85702 18.2262 6.44428 17.8785 6.09661C17.5309 5.74894 17.1182 5.47316 16.664 5.285C16.2097 5.09684 15.7229 5 15.2313 5H5.74708C5.33356 5 4.99833 5.33526 4.99833 5.74881C4.99833 6.16237 5.33356 6.49762 5.74708 6.49762Z" fill="#7D8198"/>
</svg>
