<svg width="24" height="24" viewBox="0 0 24 24" fill="none" xmlns="http://www.w3.org/2000/svg">
<path d="M12 5.5C10.1768 5.5 8.67772 6.89626 8.51473 8.67939C8.48125 9.04573 8.18701 9.33371 7.82003 9.35931C5.99128 9.48685 4.5 11.0163 4.5 12.9309C4.5 14.655 5.71822 16.0953 7.3396 16.4347C7.35639 16.4382 7.37321 16.4416 7.39007 16.4449C7.79669 16.5238 8.0623 16.9175 7.98333 17.3241C7.90436 17.7307 7.51071 17.9963 7.1041 17.9174C7.0801 17.9127 7.05617 17.9079 7.03231 17.9029C4.72929 17.4209 3 15.3785 3 12.9309C3 10.4258 4.79754 8.38822 7.11294 7.94175C7.59973 5.68849 9.60209 4 12 4C14.7504 4 16.9811 6.2219 16.9999 8.96863L17.0506 8.97522C19.3085 9.2687 21 11.1869 21 13.4675C21 15.857 19.1533 17.8233 16.8057 17.9979C16.3927 18.0287 16.0329 17.7187 16.0022 17.3056C15.9714 16.8926 16.2814 16.5328 16.6944 16.5021C18.2611 16.3855 19.5 15.0697 19.5 13.4675C19.5 11.9428 18.3699 10.6593 16.8572 10.4627L16.1088 10.3654C15.9096 10.3395 15.7291 10.2348 15.6077 10.0747C15.4864 9.91461 15.4343 9.71252 15.4633 9.51373C15.4874 9.34758 15.5 9.17727 15.5 9.00357C15.5 7.06801 13.9324 5.5 12 5.5Z" fill="#7D8198"/>
<path d="M11.25 12.7041L10.3076 13.7517C10.0306 14.0596 9.55634 14.0847 9.2484 13.8076C8.94046 13.5306 8.9154 13.0564 9.19243 12.7485L11.4424 10.2474C11.5847 10.0893 11.7873 9.99902 12 9.99902C12.2127 9.99902 12.4153 10.0893 12.5576 10.2474L14.8076 12.7485C15.0846 13.0564 15.0596 13.5306 14.7516 13.8076C14.4437 14.0847 13.9695 14.0596 13.6924 13.7517L12.75 12.7041V19.25C12.75 19.6642 12.4142 20 12 20C11.5858 20 11.25 19.6642 11.25 19.25V12.7041Z" fill="#7D8198"/>
</svg>
