<svg width="24" height="24" viewBox="0 0 24 24" fill="none" xmlns="http://www.w3.org/2000/svg">
<path fill-rule="evenodd" clip-rule="evenodd" d="M9.7496 4C8.03095 4 6.7334 5.55886 7.04524 7.24898L7.50718 9.75259C7.64142 10.4801 7.52341 11.2317 7.17266 11.8831L6.08965 13.8944C5.96449 14.1269 5.97075 14.408 6.10611 14.6346C6.24148 14.8612 6.48602 15 6.75 15H11.25V19.25C11.25 19.6642 11.5858 20 12 20C12.4142 20 12.75 19.6642 12.75 19.25V15H17.25C17.514 15 17.7585 14.8612 17.8939 14.6346C18.0293 14.408 18.0355 14.1269 17.9104 13.8944L16.8282 11.8847C16.477 11.2325 16.3592 10.4799 16.4941 9.75163L16.9575 7.25111C17.2709 5.56037 15.9731 4 14.2536 4H9.7496ZM8.52034 6.97681C8.3786 6.20857 8.96839 5.5 9.7496 5.5H14.2536C15.0352 5.5 15.6251 6.20926 15.4826 6.97778L15.0192 9.4783C14.822 10.5427 14.9942 11.6426 15.5075 12.5958L15.9943 13.5H8.00566L8.49337 12.5943C9.00601 11.6422 9.17848 10.5438 8.98228 9.48042L8.52034 6.97681Z" fill="#7D8198"/>
</svg>
