<svg width="24" height="24" viewBox="0 0 24 24" fill="none" xmlns="http://www.w3.org/2000/svg">
<path d="M10.8496 13.1164C11.1707 12.9131 11.5999 12.982 11.8398 13.2873C12.0953 13.613 12.0384 14.0843 11.7129 14.3401L9.91797 15.7502H16.25C16.6642 15.7502 17 16.086 17 16.5002C16.9999 16.9143 16.6641 17.2502 16.25 17.2502H9.91797L11.7129 18.6604C12.0384 18.9162 12.0954 19.3875 11.8398 19.7131C11.584 20.0385 11.1127 20.0955 10.7871 19.8401L7.28711 17.0901C7.10621 16.9479 7.00007 16.7303 7 16.5002C7 16.2701 7.10621 16.0526 7.28711 15.9104L10.7871 13.1604L10.8496 13.1164Z" fill="#7D8198"/>
<path d="M12.1602 4.28734C12.416 3.96176 12.8872 3.90479 13.2129 4.16039L16.7129 6.91039C16.8938 7.05258 17 7.27014 17 7.50024C16.9999 7.73028 16.8938 7.94794 16.7129 8.09008L13.2129 10.8401L13.1504 10.884C12.8294 11.0873 12.4 11.0183 12.1602 10.7131C11.9046 10.3875 11.9616 9.91623 12.2871 9.66039L14.082 8.25024H7.75C7.33587 8.25024 7.00014 7.91433 7 7.50024C7 7.08602 7.33579 6.75024 7.75 6.75024H14.082L12.2871 5.34008C11.9616 5.0843 11.9047 4.61303 12.1602 4.28734Z" fill="#7D8198"/>
</svg>
