<svg width="24" height="24" viewBox="0 0 24 24" fill="none" xmlns="http://www.w3.org/2000/svg">
<path fill-rule="evenodd" clip-rule="evenodd" d="M4 6.75C4 5.23122 5.23122 4 6.75 4H17.25C18.7688 4 20 5.23122 20 6.75V10.25C20 10.6642 19.6642 11 19.25 11C18.8358 11 18.5 10.6642 18.5 10.25V9.50574H5.5V17.2504C5.5 17.9412 6.05917 18.5004 6.74907 18.5004H10.25C10.6642 18.5004 11 18.8362 11 19.2504C11 19.6646 10.6642 20.0004 10.25 20.0004H6.74907C5.22983 20.0004 4 18.7688 4 17.2504V6.75ZM18.5 6.75V8.00574H16.7786L15.0229 5.5H17.25C17.9404 5.5 18.5 6.05964 18.5 6.75ZM9.54909 5.5H13.1914L14.947 8.00574H11.3047L9.54909 5.5ZM6.75 5.5H7.71755L9.4732 8.00574H5.5V6.75C5.5 6.05964 6.05964 5.5 6.75 5.5Z" fill="#7D8198"/>
<path d="M13.9973 14.7514C13.9973 14.3372 14.3331 14.0015 14.7473 14.0015L19.2473 14.0014C19.6615 14.0014 19.9973 14.3372 19.9973 14.7514C19.9973 15.1656 19.6615 15.5014 19.2473 15.5014L16.5613 15.5014L20.7818 19.7224C21.0747 20.0153 21.0747 20.4902 20.7818 20.783C20.4888 21.0759 20.014 21.0759 19.7211 20.783L15.4973 16.5588L15.4973 19.2514C15.4973 19.6657 15.1615 20.0014 14.7473 20.0014C14.3331 20.0014 13.9973 19.6656 13.9973 19.2514L13.9973 14.7514Z" fill="#7D8198"/>
</svg>
