<svg width="24" height="24" viewBox="0 0 24 24" fill="none" xmlns="http://www.w3.org/2000/svg">
<path fill-rule="evenodd" clip-rule="evenodd" d="M7.75 5.0022C6.7835 5.0022 6 5.7857 6 6.7522V17.25C6 18.2165 6.7835 19 7.75 19H9.25C10.2165 19 11 18.2165 11 17.25V6.7522C11 5.7857 10.2165 5.0022 9.25 5.0022H7.75ZM7.5 6.7522C7.5 6.61413 7.61193 6.5022 7.75 6.5022H9.25C9.38807 6.5022 9.5 6.61413 9.5 6.7522V17.25C9.5 17.3881 9.38807 17.5 9.25 17.5H7.75C7.61193 17.5 7.5 17.3881 7.5 17.25V6.7522Z" fill="#7D8198"/>
<path fill-rule="evenodd" clip-rule="evenodd" d="M14.75 5.0022C13.7835 5.0022 13 5.7857 13 6.7522V17.25C13 18.2165 13.7835 19 14.75 19H16.25C17.2165 19 18 18.2165 18 17.25V6.7522C18 5.7857 17.2165 5.0022 16.25 5.0022H14.75ZM14.5 6.7522C14.5 6.61413 14.6119 6.5022 14.75 6.5022H16.25C16.3881 6.5022 16.5 6.61413 16.5 6.7522V17.25C16.5 17.3881 16.3881 17.5 16.25 17.5H14.75C14.6119 17.5 14.5 17.3881 14.5 17.25V6.7522Z" fill="#7D8198"/>
</svg>
