<svg width="24" height="24" viewBox="0 0 24 24" fill="none" xmlns="http://www.w3.org/2000/svg">
<path d="M6.75 5C6.33579 5 6 5.33579 6 5.75C6 6.16421 6.33579 6.5 6.75 6.5H19.25C19.6642 6.5 20 6.16421 20 5.75C20 5.33579 19.6642 5 19.25 5H6.75Z" fill="#7D8198"/>
<path d="M6.75 9C6.33579 9 6 9.33579 6 9.75C6 10.1642 6.33579 10.5 6.75 10.5H17.25C17.6642 10.5 18 10.1642 18 9.75C18 9.33579 17.6642 9 17.25 9H6.75Z" fill="#7D8198"/>
<path d="M6 13.75C6 13.3358 6.33579 13 6.75 13H15.25C15.6642 13 16 13.3358 16 13.75C16 14.1642 15.6642 14.5 15.25 14.5H6.75C6.33579 14.5 6 14.1642 6 13.75Z" fill="#7D8198"/>
<path d="M6.75 17C6.33579 17 6 17.3358 6 17.75C6 18.1642 6.33579 18.5 6.75 18.5H13.25C13.6642 18.5 14 18.1642 14 17.75C14 17.3358 13.6642 17 13.25 17H6.75Z" fill="#7D8198"/>
</svg>
