<svg width="24" height="24" viewBox="0 0 24 24" fill="none" xmlns="http://www.w3.org/2000/svg">
<path fill-rule="evenodd" clip-rule="evenodd" d="M6.75 4C5.23122 4 4 5.23122 4 6.75V17.25C4 18.7688 5.23122 20 6.75 20H11.25C12.7688 20 14 18.7688 14 17.25V6.75C14 5.23122 12.7688 4 11.25 4H6.75ZM5.5 6.75C5.5 6.05964 6.05964 5.5 6.75 5.5H11.25C11.9404 5.5 12.5 6.05964 12.5 6.75V17.25C12.5 17.9404 11.9404 18.5 11.25 18.5H6.75C6.05964 18.5 5.5 17.9404 5.5 17.25V6.75Z" fill="#7D8198"/>
<path d="M20.5033 7.0441C20.8012 7.151 21 7.43348 21 7.75004V16.25C21 16.5666 20.8012 16.8491 20.5033 16.956C20.2053 17.0629 19.8723 16.9712 19.6711 16.7268L16.1711 12.4768C15.943 12.1999 15.943 11.8002 16.1711 11.5233L19.6711 7.27326C19.8723 7.02889 20.2053 6.9372 20.5033 7.0441Z" fill="#7D8198"/>
</svg>
