<svg width="24" height="24" viewBox="0 0 24 24" fill="none" xmlns="http://www.w3.org/2000/svg">
<path fill-rule="evenodd" clip-rule="evenodd" d="M3 12C3 7.02944 7.02944 3 12 3C16.9706 3 21 7.02944 21 12C21 16.9706 16.9706 21 12 21C7.02944 21 3 16.9706 3 12ZM12 4.5C10.7359 4.5 9.54486 4.81273 8.5 5.36505V7L15.5 7V5.36505C14.4551 4.81273 13.2641 4.5 12 4.5ZM17 6.40973V9.5L19.0732 9.5C18.6493 8.30052 17.9289 7.24108 17 6.40973ZM17 11L17 13L19.4339 13C19.4775 12.6729 19.5 12.3391 19.5 12C19.5 11.6609 19.4775 11.3271 19.4339 11L17 11ZM17 14.5V17.5903C17.9289 16.7589 18.6493 15.6995 19.0732 14.5L17 14.5ZM15.5 18.635V17L8.5 17V18.635C9.54486 19.1873 10.7359 19.5 12 19.5C13.2641 19.5 14.4551 19.1873 15.5 18.635ZM15.5 15.5L15.5 8.5H8.5L8.5 15.5L15.5 15.5ZM4.92676 9.5C5.35072 8.30052 6.07115 7.24108 7 6.40973L7 9.5L4.92676 9.5ZM4.56609 11C4.5225 11.3271 4.5 11.6609 4.5 12C4.5 12.3391 4.5225 12.6729 4.56609 13L7 13L7 11L4.56609 11ZM7 17.5903C6.07115 16.7589 5.35072 15.6995 4.92676 14.5L7 14.5L7 17.5903Z" fill="#7D8198"/>
</svg>
