<svg width="24" height="24" viewBox="0 0 24 24" fill="none" xmlns="http://www.w3.org/2000/svg">
<path d="M3.00049 11.9998C3.00055 11.7913 3.08736 11.5923 3.24012 11.4504L6.73969 8.20044C7.04321 7.91857 7.51775 7.93612 7.79963 8.23963C8.0815 8.54315 8.06395 9.0177 7.76043 9.29957L5.66022 11.25L18.3399 11.25L16.2397 9.29957C15.9362 9.0177 15.9186 8.54315 16.2005 8.23963C16.4824 7.93612 16.9569 7.91857 17.2604 8.20044L20.76 11.4504C20.9128 11.5923 20.9996 11.7915 20.9996 12C20.9996 12.2085 20.9128 12.4077 20.76 12.5496L17.2604 15.7996C16.9569 16.0814 16.4824 16.0639 16.2005 15.7604C15.9186 15.4569 15.9362 14.9823 16.2397 14.7004L18.3399 12.75L5.65866 12.75L7.76074 14.7043C8.0641 14.9864 8.08138 15.4609 7.79934 15.7643C7.5173 16.0677 7.04274 16.0849 6.73938 15.8029L3.23981 12.5493C3.08714 12.4073 3.00043 12.2083 3.00049 11.9998Z" fill="#7D8198"/>
</svg>
