<svg width="24" height="24" viewBox="0 0 24 24" fill="none" xmlns="http://www.w3.org/2000/svg">
<path d="M19.25 4.00098C20.2165 4.00098 21 4.78448 21 5.75098V18.251C20.9999 19.2174 20.2164 20.001 19.25 20.001H4.75C3.78357 20.001 3.00012 19.2174 3 18.251V5.75098C3 4.78448 3.7835 4.00098 4.75 4.00098H19.25ZM4.5 18.251C4.50012 18.3889 4.612 18.501 4.75 18.501H9.5V13.75C9.5 13.6119 9.38807 13.5 9.25 13.5H4.5V18.251ZM4.75 5.50098C4.61193 5.50098 4.5 5.61291 4.5 5.75098V8.00195H14.25C15.2164 8.00195 15.9998 8.78565 16 9.75195V18.501H19.25C19.388 18.501 19.4999 18.3889 19.5 18.251V5.75098C19.5 5.61291 19.3881 5.50098 19.25 5.50098H4.75ZM4.5 12H9.25C10.2165 12 11 12.7835 11 13.75V18.501H14.5V9.75195C14.4998 9.61407 14.3879 9.50195 14.25 9.50195H4.5V12Z" fill="#7D8198"/>
</svg>
