<svg width="24" height="24" viewBox="0 0 24 24" fill="none" xmlns="http://www.w3.org/2000/svg">
<path d="M11 5.75C11 6.16421 10.6642 6.5 10.25 6.5H8.75C8.33579 6.5 8 6.16421 8 5.75C8 5.33579 8.33579 5 8.75 5H10.25C10.6642 5 11 5.33579 11 5.75Z" fill="#7D8198"/>
<path d="M13 8.74823C13 9.16244 12.6642 9.49823 12.25 9.49823H8.75C8.33578 9.49823 8 9.16244 8 8.74823C8 8.33402 8.33578 7.99823 8.75 7.99823H12.25C12.6642 7.99823 13 8.33402 13 8.74823Z" fill="#7D8198"/>
<path d="M10.25 19C10.6642 19 11 18.6642 11 18.25C11 17.8358 10.6642 17.5 10.25 17.5H8.75C8.33579 17.5 8 17.8358 8 18.25C8 18.6642 8.33579 19 8.75 19H10.25Z" fill="#7D8198"/>
<path d="M13 15.25C13 15.6642 12.6642 16 12.25 16H8.75C8.33578 16 8 15.6642 8 15.25C8 14.8358 8.33578 14.5 8.75 14.5H12.25C12.6642 14.5 13 14.8358 13 15.25Z" fill="#7D8198"/>
<path d="M10.2501 12.7518C10.6643 12.7518 11.0001 12.416 11.0001 12.0018C11.0001 11.5876 10.6643 11.2518 10.2501 11.2518H3.75464C3.34043 11.2518 3.00464 11.5876 3.00464 12.0018C3.00464 12.416 3.34043 12.7518 3.75464 12.7518H10.2501Z" fill="#7D8198"/>
<path d="M18.2941 12.7518L17.2491 13.6926C16.9413 13.9698 16.9164 14.444 17.1936 14.7518C17.4708 15.0597 17.945 15.0845 18.2528 14.8074L20.7518 12.5574C20.9098 12.4152 21 12.2126 21 12.0001C21 11.7875 20.9099 11.585 20.7519 11.4427L18.2538 9.19272C17.946 8.91551 17.4718 8.9403 17.1946 9.24808C16.9173 9.55586 16.9421 10.0301 17.2499 10.3073L18.2986 11.2518H13.7541C13.3399 11.2518 13.0041 11.5876 13.0041 12.0018C13.0041 12.416 13.3399 12.7518 13.7541 12.7518H18.2941Z" fill="#7D8198"/>
<path d="M6.5 8.74823C6.5 9.16244 6.16421 9.49823 5.75 9.49823C5.33578 9.49823 5 9.16244 5 8.74823C5 8.33402 5.33578 7.99823 5.75 7.99823C6.16421 7.99823 6.5 8.33402 6.5 8.74823Z" fill="#7D8198"/>
<path d="M5.75 16.0018C6.16421 16.0018 6.5 15.666 6.5 15.2518C6.5 14.8376 6.16421 14.5018 5.75 14.5018C5.33578 14.5018 5 14.8376 5 15.2518C5 15.666 5.33578 16.0018 5.75 16.0018Z" fill="#7D8198"/>
<path d="M14 5.75C14 6.16421 13.6642 6.5 13.25 6.5C12.8358 6.5 12.5 6.16421 12.5 5.75C12.5 5.33579 12.8358 5 13.25 5C13.6642 5 14 5.33579 14 5.75Z" fill="#7D8198"/>
<path d="M13.25 19C13.6642 19 14 18.6642 14 18.25C14 17.8358 13.6642 17.5 13.25 17.5C12.8358 17.5 12.5 17.8358 12.5 18.25C12.5 18.6642 12.8358 19 13.25 19Z" fill="#7D8198"/>
</svg>
