<svg width="24" height="24" viewBox="0 0 24 24" fill="none" xmlns="http://www.w3.org/2000/svg">
<path d="M11.1406 8.11176C11.3619 8.24836 11.4967 8.48989 11.4967 8.75V12.2499C11.4967 12.6642 11.1609 12.9999 10.7467 12.9999C10.3325 12.9999 9.99668 12.6642 9.99668 12.2499V9.95831C9.6461 10.0809 9.25062 9.92703 9.07966 9.58622C8.89393 9.21598 9.04352 8.76528 9.41376 8.57956L10.4104 8.07962C10.6429 7.96299 10.9192 7.97515 11.1406 8.11176Z" fill="#7D8198"/>
<path fill-rule="evenodd" clip-rule="evenodd" d="M14.5354 15.596C13.4268 16.475 12.0247 17 10.5 17C6.91015 17 4 14.0899 4 10.5C4 6.91015 6.91015 4 10.5 4C14.0899 4 17 6.91015 17 10.5C17 12.0247 16.4751 13.4267 15.596 14.5353L19.7804 18.7197C20.0733 19.0126 20.0733 19.4874 19.7804 19.7803C19.4875 20.0732 19.0126 20.0732 18.7197 19.7803L14.5354 15.596ZM10.5 15.5C13.2614 15.5 15.5 13.2614 15.5 10.5C15.5 7.73858 13.2614 5.5 10.5 5.5C7.73858 5.5 5.5 7.73858 5.5 10.5C5.5 13.2614 7.73858 15.5 10.5 15.5Z" fill="#7D8198"/>
</svg>
