<svg width="24" height="24" viewBox="0 0 24 24" fill="none" xmlns="http://www.w3.org/2000/svg">
<path fill-rule="evenodd" clip-rule="evenodd" d="M12.5108 3.20048C12.223 2.93347 11.7772 2.93296 11.4896 3.2002L11.4854 3.20405L11.4633 3.22394C11.4426 3.2424 11.4102 3.27099 11.3665 3.30827C11.2792 3.38286 11.1472 3.49201 10.9755 3.62425C10.6315 3.88916 10.1309 4.24417 9.51131 4.5991C8.2629 5.31428 6.58228 6.00006 4.75146 6.00006C4.55255 6.00006 4.36179 6.07908 4.22113 6.21973C4.08048 6.36039 4.00146 6.55115 4.00146 6.75006L4.00147 11.2912C4.00147 12.6264 4.30125 14.403 5.43798 16.177C6.57792 17.9561 8.52399 19.6767 11.7226 20.9504C11.9007 21.0213 12.0993 21.0213 12.2775 20.9504C15.4761 19.6767 17.4221 17.9561 18.5621 16.177C19.6988 14.403 19.9986 12.6264 19.9986 11.2912V6.75046C19.9986 6.33624 19.6628 6.00006 19.2486 6.00006C17.4178 6.00006 15.7372 5.31428 14.4888 4.5991C13.8692 4.24417 13.3686 3.88916 13.0245 3.62425C12.8528 3.49201 12.7209 3.38286 12.6336 3.30827C12.5899 3.27099 12.5574 3.2424 12.5368 3.22394L12.5147 3.20405L12.5108 3.20048ZM18.4986 7.46868C16.6151 7.31206 14.9549 6.59486 13.7431 5.90065C13.0533 5.50548 12.496 5.1104 12.1094 4.81274C12.0713 4.78341 12.0348 4.75499 12 4.72759C11.9652 4.75499 11.9288 4.78341 11.8907 4.81274C11.5041 5.1104 10.9467 5.50548 10.2569 5.90065C9.04514 6.59486 7.38494 7.31206 5.50146 7.46868L5.50147 11.2912C5.50147 12.405 5.75091 13.8851 6.70095 15.3678C7.61768 16.7985 9.22009 18.284 12 19.4437C14.78 18.284 16.3824 16.7985 17.2991 15.3678C18.2491 13.8851 18.4986 12.405 18.4986 11.2912V7.46868Z" fill="#7D8198"/>
</svg>
