<svg width="24" height="24" viewBox="0 0 24 24" fill="none" xmlns="http://www.w3.org/2000/svg">
<path fill-rule="evenodd" clip-rule="evenodd" d="M7 8.12798V15.8743C7 15.942 7.02925 15.9721 7.08776 15.9721H8.47731C8.5362 15.9721 8.59694 15.9383 8.58701 15.8667V13.4503L8.64442 13.4503C9.89911 13.4505 11.2853 13.4508 12.0901 12.2909C12.3827 11.8694 12.529 11.3349 12.529 10.6875C12.529 10.3487 12.4704 10.025 12.3607 9.70885C11.8952 8.42094 10.567 8 9.3403 8C8.96229 8 8.58441 8.01129 8.20656 8.02259C7.82877 8.03388 7.45098 8.04517 7.07313 8.04517C7.02194 8.04517 7 8.07528 7 8.12798ZM8.59433 12.0275V9.49807C9.11016 9.42222 9.77662 9.43416 10.2545 9.63357C10.6923 9.80451 10.9495 10.259 10.9346 10.7327C10.9346 11.2885 10.6422 11.7524 10.1082 11.907C9.62452 12.0685 9.09773 12.0645 8.59433 12.0275Z" fill="#7D8198"/>
<path d="M14.8038 9.97657H13.5203C13.4723 9.96382 13.4252 10.0109 13.4379 10.0614C13.5112 10.5504 13.51 11.0567 13.5088 11.5532L13.5085 11.7373V15.8777C13.499 15.9463 13.5587 16.0089 13.6263 15.9989H15.0034C15.0662 15.999 15.0976 15.9626 15.0976 15.8899V12.0767C15.4923 11.6369 16.3381 11.5048 16.8813 11.5434C16.9597 11.5434 16.9991 11.5152 16.9991 11.4586V9.99203C17.0078 9.92942 16.9539 9.87399 16.8931 9.88295C16.5266 9.87564 16.1649 9.96982 15.8458 10.1557C15.5483 10.3205 15.2829 10.5403 15.0628 10.8041C15.0625 10.572 15.0509 10.3127 14.9568 10.0978C14.9381 10.0275 14.8746 9.9772 14.8038 9.97657Z" fill="#7D8198"/>
<path fill-rule="evenodd" clip-rule="evenodd" d="M6.75 4C5.23122 4 4 5.23122 4 6.75V17.25C4 18.7688 5.23122 20 6.75 20H17.25C18.7688 20 20 18.7688 20 17.25V6.75C20 5.23122 18.7688 4 17.25 4H6.75ZM5.5 6.75C5.5 6.05964 6.05964 5.5 6.75 5.5H17.25C17.9404 5.5 18.5 6.05964 18.5 6.75V17.25C18.5 17.9404 17.9404 18.5 17.25 18.5H6.75C6.05964 18.5 5.5 17.9404 5.5 17.25V6.75Z" fill="#7D8198"/>
</svg>
