<svg width="24" height="24" viewBox="0 0 24 24" fill="none" xmlns="http://www.w3.org/2000/svg">
<path fill-rule="evenodd" clip-rule="evenodd" d="M5.5 7.83333C5.5 7.07548 6.09053 6.5 6.77096 6.5H17.229C17.9095 6.5 18.5 7.07548 18.5 7.83333V14.9167C18.5 15.6745 17.9095 16.25 17.229 16.25H12.8338C12.6678 16.25 12.5064 16.3051 12.3751 16.4067L8.73353 19.2221V17C8.73353 16.5858 8.39775 16.25 7.98353 16.25H6.77096C6.09053 16.25 5.5 15.6745 5.5 14.9167V7.83333ZM6.77096 5C5.21944 5 4 6.29036 4 7.83333V14.9167C4 16.4596 5.21944 17.75 6.77096 17.75H7.23353V19.9167C7.23353 20.839 8.29499 21.4569 9.08884 20.8435L9.08898 20.8433L13.09 17.75H17.229C18.7806 17.75 20 16.4596 20 14.9167V7.83333C20 6.29036 18.7806 5 17.229 5H6.77096ZM9.08333 12C9.54375 12 9.91667 11.6271 9.91667 11.1667C9.91667 10.7063 9.54375 10.3333 9.08333 10.3333C8.62292 10.3333 8.25 10.7063 8.25 11.1667C8.25 11.6271 8.62292 12 9.08333 12ZM14.9166 12C15.3771 12 15.75 11.6271 15.75 11.1667C15.75 10.7063 15.3771 10.3333 14.9166 10.3333C14.4562 10.3333 14.0833 10.7063 14.0833 11.1667C14.0833 11.6271 14.4562 12 14.9166 12ZM12.8334 11.1667C12.8334 11.6271 12.4604 12 12 12C11.5396 12 11.1667 11.6271 11.1667 11.1667C11.1667 10.7063 11.5396 10.3333 12 10.3333C12.4604 10.3333 12.8334 10.7063 12.8334 11.1667Z" fill="#5B53FF"/>
</svg>
