<svg width="24" height="24" viewBox="0 0 24 24" fill="none" xmlns="http://www.w3.org/2000/svg">
<path fill-rule="evenodd" clip-rule="evenodd" d="M7 8.03994V15.9623C7 16.0316 7.02925 16.0624 7.08776 16.0624H8.47731C8.5362 16.0624 8.59694 16.0277 8.58701 15.9546V13.4832L8.64442 13.4832C9.89911 13.4835 11.2853 13.4838 12.0901 12.2975C12.3827 11.8664 12.529 11.3197 12.529 10.6576C12.529 10.3112 12.4704 9.98011 12.3607 9.65674C11.8952 8.33957 10.567 7.90906 9.3403 7.90906C8.96229 7.90906 8.58442 7.92061 8.20657 7.93216C7.82878 7.9437 7.45099 7.95525 7.07313 7.95525C7.02194 7.95525 7 7.98605 7 8.03994ZM8.59433 12.0281V9.44117C9.11016 9.3636 9.77662 9.37581 10.2545 9.57975C10.6923 9.75458 10.9495 10.2194 10.9346 10.7038C10.9346 11.2723 10.6422 11.7468 10.1082 11.9049C9.62452 12.07 9.09773 12.0659 8.59433 12.0281Z" fill="#7D8198"/>
<path d="M14.8038 9.93055H13.5203C13.4723 9.91751 13.4252 9.96561 13.4379 10.0173C13.5112 10.5174 13.51 11.0352 13.5088 11.543L13.5085 11.7313V15.9658C13.499 16.0359 13.5587 16.1 13.6263 16.0898H15.0034C15.0662 16.0898 15.0976 16.0526 15.0976 15.9782V12.0784C15.4923 11.6286 16.3381 11.4935 16.8813 11.533C16.9597 11.533 16.9991 11.5041 16.9991 11.4462V9.94636C17.0078 9.88233 16.9539 9.82564 16.8931 9.8348C16.5266 9.82732 16.1649 9.92365 15.8458 10.1137C15.5483 10.2823 15.2829 10.5071 15.0628 10.7768C15.0625 10.5395 15.0509 10.2744 14.9568 10.0545C14.9381 9.98266 14.8746 9.9312 14.8038 9.93055Z" fill="#7D8198"/>
<path fill-rule="evenodd" clip-rule="evenodd" d="M6.75 4C5.23122 4 4 5.23122 4 6.75V17.25C4 18.7688 5.23122 20 6.75 20H17.25C18.7688 20 20 18.7688 20 17.25V6.75C20 5.23122 18.7688 4 17.25 4H6.75ZM5.5 6.75C5.5 6.05964 6.05964 5.5 6.75 5.5H17.25C17.9404 5.5 18.5 6.05964 18.5 6.75V17.25C18.5 17.9404 17.9404 18.5 17.25 18.5H6.75C6.05964 18.5 5.5 17.9404 5.5 17.25V6.75Z" fill="#7D8198"/>
</svg>
