<svg width="24" height="24" viewBox="0 0 24 24" fill="none" xmlns="http://www.w3.org/2000/svg">
<path d="M9 7.75C9 7.33579 9.33579 7 9.75 7H14.25C14.6642 7 15 7.33579 15 7.75V16.25C15 16.6642 14.6642 17 14.25 17H9.75C9.33579 17 9 16.6642 9 16.25V7.75Z" fill="#7D8198"/>
<path fill-rule="evenodd" clip-rule="evenodd" d="M6.75 4C5.23122 4 4 5.23122 4 6.75V17.25C4 18.7688 5.23122 20 6.75 20H17.25C18.7688 20 20 18.7688 20 17.25V6.75C20 5.23122 18.7688 4 17.25 4H6.75ZM5.5 6.75C5.5 6.05964 6.05964 5.5 6.75 5.5H17.25C17.9404 5.5 18.5 6.05964 18.5 6.75V17.25C18.5 17.9404 17.9404 18.5 17.25 18.5H6.75C6.05964 18.5 5.5 17.9404 5.5 17.25V6.75Z" fill="#7D8198"/>
</svg>
