<svg width="24" height="24" viewBox="0 0 24 24" fill="none" xmlns="http://www.w3.org/2000/svg">
<path d="M15.8996 9.12471C16.1066 8.76594 15.9836 8.30728 15.6248 8.10027C15.2661 7.89325 14.8074 8.01628 14.6004 8.37505L11.3156 14.0679L9.25441 12.1948C8.94786 11.9163 8.47353 11.9389 8.19496 12.2455C7.91638 12.552 7.93906 13.0264 8.2456 13.3049L10.9956 15.804C11.1635 15.9566 11.3915 16.025 11.6157 15.99C11.8399 15.9549 12.0362 15.8203 12.1496 15.6238L15.8996 9.12471Z" fill="#7D8198"/>
<path fill-rule="evenodd" clip-rule="evenodd" d="M6.75 4C5.23122 4 4 5.23122 4 6.75V17.25C4 18.7688 5.23122 20 6.75 20H17.25C18.7688 20 20 18.7688 20 17.25V6.75C20 5.23122 18.7688 4 17.25 4H6.75ZM5.5 6.75C5.5 6.05964 6.05964 5.5 6.75 5.5H17.25C17.9404 5.5 18.5 6.05964 18.5 6.75V17.25C18.5 17.9404 17.9404 18.5 17.25 18.5H6.75C6.05964 18.5 5.5 17.9404 5.5 17.25V6.75Z" fill="#7D8198"/>
</svg>
