<svg width="24" height="24" viewBox="0 0 24 24" fill="none" xmlns="http://www.w3.org/2000/svg">
<path d="M5 6C5 5.44772 5.44772 5 6 5H18.0014C18.5537 5 19.0014 5.44772 19.0014 6C19.0014 6.55228 18.5537 7 18.0014 7H6C5.44772 7 5 6.55228 5 6Z" fill="#7D8198"/>
<path d="M5 12C5 11.4477 5.44772 11 6 11H20.0014C20.5537 11 21.0014 11.4477 21.0014 12C21.0014 12.5523 20.5537 13 20.0014 13H6C5.44772 13 5 12.5523 5 12Z" fill="#7D8198"/>
<path d="M6 17C5.44772 17 5 17.4477 5 18C5 18.5523 5.44772 19 6 19H16.0014C16.5537 19 17.0014 18.5523 17.0014 18C17.0014 17.4477 16.5537 17 16.0014 17H6Z" fill="#7D8198"/>
</svg>
