<svg width="24" height="24" viewBox="0 0 24 24" fill="none" xmlns="http://www.w3.org/2000/svg">
<path d="M15.7647 10.292C16.0638 10.0054 16.0739 9.53067 15.7873 9.2316C15.5007 8.93252 15.026 8.92239 14.7269 9.20896L10.6543 13.1113L9.35865 11.3118C9.11662 10.9756 8.64792 10.8993 8.31177 11.1414C7.97562 11.3834 7.89932 11.8521 8.14135 12.1882L9.94135 14.6882C10.0682 14.8645 10.2653 14.9771 10.4816 14.9969C10.6978 15.0167 10.9121 14.9418 11.0689 14.7915L15.7647 10.292Z" fill="#7D8198"/>
<path fill-rule="evenodd" clip-rule="evenodd" d="M17.4273 4C18.8481 4 20 5.15189 20 6.57267V17.4273C20 18.8481 18.8481 20 17.4273 20H6.57267C5.15189 20 4 18.8481 4 17.4273V6.57267C4 5.15189 5.15189 4 6.57267 4H17.4273ZM18.5 6.57267C18.5 5.98031 18.0197 5.5 17.4273 5.5H6.57267C5.98031 5.5 5.5 5.98031 5.5 6.57267V17.4273C5.5 18.0197 5.98031 18.5 6.57267 18.5H17.4273C18.0197 18.5 18.5 18.0197 18.5 17.4273V6.57267Z" fill="#7D8198"/>
</svg>
