<svg width="24" height="24" viewBox="0 0 24 24" fill="none" xmlns="http://www.w3.org/2000/svg">
<path fill-rule="evenodd" clip-rule="evenodd" d="M6.75 4H19.25C19.5266 4 19.7807 4.15224 19.9113 4.39611C20.0418 4.63997 20.0275 4.93588 19.874 5.16603L16.6514 10L19.874 14.834C20.0275 15.0641 20.0418 15.36 19.9113 15.6039C19.7807 15.8478 19.5266 16 19.25 16H7.5V20.2537C7.5 20.6679 7.16421 21.0037 6.75 21.0037C6.33579 21.0037 6 20.6679 6 20.2537V4.75C6 4.33579 6.33579 4 6.75 4ZM7.5 14.5H17.8486L15.126 10.416C14.958 10.1641 14.958 9.8359 15.126 9.58397L17.8486 5.5H7.5V14.5Z" fill="#7D8198"/>
</svg>
