<svg width="24" height="24" viewBox="0 0 24 24" fill="none" xmlns="http://www.w3.org/2000/svg">
<path d="M13.7046 11.25L14.7517 10.3075C15.0596 10.0304 15.0846 9.55614 14.8075 9.24826C14.5303 8.94039 14.0561 8.91545 13.7483 9.19255L11.2483 11.4427C11.0902 11.585 11 11.7876 11 12.0002C11 12.2128 11.0903 12.4154 11.2483 12.5577L13.7483 14.8075C14.0562 15.0846 14.5304 15.0596 14.8075 14.7517C15.0846 14.4438 15.0596 13.9696 14.7517 13.6925L13.7044 12.75H16.25C16.6642 12.75 17 12.4142 17 12C17 11.5858 16.6642 11.25 16.25 11.25H13.7046Z" fill="#7D8198"/>
<path d="M7.75 7C7.33579 7 7 7.33579 7 7.75V16.25C7 16.6642 7.33579 17 7.75 17H9.25C9.66421 17 10 16.6642 10 16.25V7.75C10 7.33579 9.66421 7 9.25 7H7.75Z" fill="#7D8198"/>
<path fill-rule="evenodd" clip-rule="evenodd" d="M4 6.75C4 5.23122 5.23122 4 6.75 4H17.25C18.7688 4 20 5.23122 20 6.75V17.25C20 18.7688 18.7688 20 17.25 20H6.75C5.23122 20 4 18.7688 4 17.25V6.75ZM6.75 5.5C6.05964 5.5 5.5 6.05964 5.5 6.75V17.25C5.5 17.9404 6.05964 18.5 6.75 18.5H17.25C17.9404 18.5 18.5 17.9404 18.5 17.25V6.75C18.5 6.05964 17.9404 5.5 17.25 5.5H6.75Z" fill="#7D8198"/>
</svg>
