<svg width="24" height="24" viewBox="0 0 24 24" fill="none" xmlns="http://www.w3.org/2000/svg">
    <path fill-rule="evenodd" clip-rule="evenodd"
        d="M12.25 18C12.4489 18 12.6397 17.921 12.7803 17.7803L15.2803 15.2803C15.5732 14.9874 15.5732 14.5126 15.2803 14.2197C14.9874 13.9268 14.5126 13.9268 14.2197 14.2197L12.25 16.1893L10.2803 14.2197C9.98744 13.9268 9.51256 13.9268 9.21967 14.2197C8.92678 14.5126 8.92678 14.9874 9.21967 15.2803L11.7197 17.7803C11.8603 17.921 12.0511 18 12.25 18Z"
        fill="#C1C2D9" />
    <path fill-rule="evenodd" clip-rule="evenodd"
        d="M12.25 6C12.4489 6 12.6397 6.07902 12.7803 6.21967L15.2803 8.71967C15.5732 9.01256 15.5732 9.48744 15.2803 9.78033C14.9874 10.0732 14.5126 10.0732 14.2197 9.78033L12.25 7.81066L10.2803 9.78033C9.98744 10.0732 9.51256 10.0732 9.21967 9.78033C8.92678 9.48744 8.92678 9.01256 9.21967 8.71967L11.7197 6.21967C11.8603 6.07902 12.0511 6 12.25 6Z"
        fill="#C1C2D9" />
</svg>
