<svg width="24" height="24" viewBox="0 0 24 24" fill="none" xmlns="http://www.w3.org/2000/svg">
<path fill-rule="evenodd" clip-rule="evenodd" d="M14.9144 3.28148C15.0567 3.10357 15.2722 3 15.5 3H17.25C17.6642 3 18 3.33579 18 3.75C18 4.16421 17.6642 4.5 17.25 4.5H15.8605L15.4235 5.04631C15.7333 5.25574 16.0236 5.49364 16.2903 5.75736C16.8537 6.31451 17.3007 6.97595 17.6056 7.7039C17.7881 8.13972 17.9097 8.65845 17.9817 9.14517C18.091 9.88356 17.6976 10.4868 17.1318 10.7894L16.0127 17.6903C15.7968 19.0217 14.647 20.0001 13.2982 20.0001H10.7018C9.3529 20.0001 8.20315 19.0217 7.98723 17.6903L6.86817 10.7893C6.3024 10.4868 5.90897 9.88353 6.01827 9.14517C6.09032 8.65845 6.21186 8.13972 6.39441 7.7039C6.69933 6.97595 7.14625 6.31451 7.70967 5.75736C8.27308 5.20021 8.94195 4.75825 9.67809 4.45672C10.4142 4.15519 11.2032 4 12 4C12.7015 4 13.397 4.1203 14.0557 4.35486L14.9144 3.28148ZM8.42192 11L9.46789 17.4501C9.56604 18.0554 10.0887 18.5001 10.7018 18.5001H13.2982C13.9113 18.5001 14.4339 18.0554 14.5321 17.4501L15.578 11H8.42192ZM12 5.5C11.4024 5.5 10.8107 5.6164 10.2586 5.84254C9.70646 6.06869 9.20481 6.40016 8.78225 6.81802C8.35969 7.23588 8.0245 7.73196 7.79581 8.27793C7.67749 8.5604 7.58048 8.94802 7.51914 9.36244C7.51619 9.38233 7.51862 9.39453 7.52145 9.40294C7.5247 9.41259 7.53154 9.42567 7.54549 9.44019C7.57469 9.47057 7.62895 9.5 7.70223 9.5H16.2978C16.3711 9.5 16.4253 9.47057 16.4545 9.44019C16.4685 9.42567 16.4753 9.41259 16.4785 9.40294C16.4814 9.39453 16.4838 9.38233 16.4809 9.36244C16.4195 8.94802 16.3225 8.5604 16.2042 8.27792C15.9755 7.73196 15.6403 7.23588 15.2177 6.81802C14.7952 6.40016 14.2935 6.06869 13.7414 5.84254C13.1893 5.6164 12.5976 5.5 12 5.5Z" fill="#7D8198"/>
</svg>
