<svg width="24" height="24" viewBox="0 0 24 24" fill="none" xmlns="http://www.w3.org/2000/svg">
<path d="M5.5 6.75C5.5 6.05964 6.05964 5.5 6.75 5.5H7.25C7.66421 5.5 8 5.16421 8 4.75C8 4.33579 7.66421 4 7.25 4H6.75C5.23122 4 4 5.23122 4 6.75V7.25C4 7.66421 4.33579 8 4.75 8C5.16421 8 5.5 7.66421 5.5 7.25V6.75Z" fill="#7D8198"/>
<path d="M17.25 5.5C17.9404 5.5 18.5 6.05964 18.5 6.75V7.25C18.5 7.66421 18.8358 8 19.25 8C19.6642 8 20 7.66421 20 7.25V6.75C20 5.23122 18.7688 4 17.25 4H16.75C16.3358 4 16 4.33579 16 4.75C16 5.16421 16.3358 5.5 16.75 5.5H17.25Z" fill="#7D8198"/>
<path d="M6.75 18.5C6.05964 18.5 5.5 17.9404 5.5 17.25V16.75C5.5 16.3358 5.16421 16 4.75 16C4.33579 16 4 16.3358 4 16.75V17.25C4 18.7688 5.23122 20 6.75 20H7.25C7.66421 20 8 19.6642 8 19.25C8 18.8358 7.66421 18.5 7.25 18.5H6.75Z" fill="#7D8198"/>
<path d="M17.25 18.5C17.9404 18.5 18.5 17.9404 18.5 17.25V16.75C18.5 16.3358 18.8358 16 19.25 16C19.6642 16 20 16.3358 20 16.75V17.25C20 18.7688 18.7688 20 17.25 20H16.75C16.3358 20 16 19.6642 16 19.25C16 18.8358 16.3358 18.5 16.75 18.5H17.25Z" fill="#7D8198"/>
<path d="M14.0008 4.75C14.0008 5.16421 13.665 5.5 13.2508 5.5L10.7492 5.5C10.335 5.5 9.99919 5.16421 9.99919 4.75C9.99919 4.33579 10.335 4 10.7492 4H13.2508C13.665 4 14.0008 4.33579 14.0008 4.75Z" fill="#7D8198"/>
<path d="M13.2508 20C13.665 20 14.0008 19.6642 14.0008 19.25C14.0008 18.8358 13.665 18.5 13.2508 18.5H10.7492C10.335 18.5 9.99919 18.8358 9.99919 19.25C9.99919 19.6642 10.335 20 10.7492 20H13.2508Z" fill="#7D8198"/>
<path d="M4.75 14.0007C4.33579 14.0007 4 13.6649 4 13.2507V10.7491C4 10.3349 4.33579 9.99912 4.75 9.99912C5.16421 9.99912 5.5 10.3349 5.5 10.7491L5.5 13.2507C5.5 13.6649 5.16421 14.0007 4.75 14.0007Z" fill="#7D8198"/>
<path d="M18.5 13.2507C18.5 13.6649 18.8358 14.0007 19.25 14.0007C19.6642 14.0007 20 13.6649 20 13.2507V10.7491C20 10.3349 19.6642 9.99912 19.25 9.99912C18.8358 9.99912 18.5 10.3349 18.5 10.7491V13.2507Z" fill="#7D8198"/>
</svg>
