<svg width="24" height="24" viewBox="0 0 24 24" fill="none" xmlns="http://www.w3.org/2000/svg">
<path d="M18.2517 5.19254C18.0316 4.99441 17.7154 4.94439 17.4449 5.06489C17.1743 5.18539 17 5.45383 17 5.75001V7.25H15.3889C14.2876 7.25 13.242 7.73409 12.5295 8.57383L10.8335 10.5728L8.49835 7.48709C7.78951 6.55041 6.68273 6 5.50807 6H3.74744C3.33322 6 2.99744 6.33579 2.99744 6.75C2.99744 7.16421 3.33322 7.5 3.74744 7.5H5.50807C6.21287 7.5 6.87694 7.83025 7.30224 8.39225L9.83916 11.7446L7.32672 14.7057C6.89922 15.2095 6.27185 15.5 5.61108 15.5H3.74744C3.33322 15.5 2.99744 15.8358 2.99744 16.25C2.99744 16.6642 3.33322 17 3.74744 17H5.61108C6.71236 17 7.75798 16.5159 8.47048 15.6762L10.7665 12.9701L12.5017 15.2629C13.2105 16.1996 14.3173 16.75 15.4919 16.75H17V18.25C17 18.5462 17.1743 18.8146 17.4449 18.9351C17.7154 19.0556 18.0316 19.0056 18.2517 18.8075L20.7517 16.5575C20.9098 16.4153 21 16.2126 21 16C21 15.7874 20.9098 15.5848 20.7517 15.4425L18.2517 13.1925C18.0316 12.9944 17.7154 12.9444 17.4449 13.0649C17.1743 13.1854 17 13.4538 17 13.75V15.25H15.4919C14.7871 15.25 14.1231 14.9197 13.6978 14.3577L11.7608 11.7982L13.6733 9.5443C14.1008 9.04046 14.7282 8.75 15.3889 8.75H17V10.25C17 10.5462 17.1743 10.8146 17.4449 10.9351C17.7154 11.0556 18.0316 11.0056 18.2517 10.8075L20.7517 8.55748C20.9098 8.41525 21 8.21263 21 8.00001C21 7.7874 20.9098 7.58477 20.7517 7.44254L18.2517 5.19254Z" fill="#7D8198"/>
</svg>
