<svg width="18" height="18" viewBox="0 0 18 18" fill="none" xmlns="http://www.w3.org/2000/svg">
<path d="M12.7804 12.7782C12.4876 13.0711 12.0127 13.0712 11.7198 12.7783L6.5 7.56032V10.25C6.5 10.6642 6.16422 11 5.75 11C5.33579 11 5 10.6642 5 10.25V5.75C5 5.33579 5.33579 5 5.75 5H10.246C10.6602 5 10.996 5.33579 10.996 5.75C10.996 6.16421 10.6602 6.5 10.246 6.5H7.561L12.7802 11.7175C13.0732 12.0104 13.0733 12.4852 12.7804 12.7782Z" fill="#7D8198"/>
<path fill-rule="evenodd" clip-rule="evenodd" d="M18 9C18 13.9706 13.9706 18 9 18C4.02944 18 0 13.9706 0 9C0 4.02944 4.02944 0 9 0C13.9706 0 18 4.02944 18 9ZM9 16.5C13.1421 16.5 16.5 13.1421 16.5 9C16.5 4.85786 13.1421 1.5 9 1.5C4.85786 1.5 1.5 4.85786 1.5 9C1.5 13.1421 4.85786 16.5 9 16.5Z" fill="#7D8198"/>
</svg>
