<svg fill="none" height="24" viewBox="0 0 24 24" width="24" xmlns="http://www.w3.org/2000/svg"><path d="m19 13.4873c0 .6754-.2485 1.3272-.6982 1.8311l-4.25 4.7597c-1.0933 1.2246-3.0091 1.2254-4.10258.001l-4.25-4.7607c-.44997-.5039-.69915-1.1555-.69922-1.8311v-7.7373c0-1.51878 1.23122-2.75 2.75-2.75h8.5c1.5188 0 2.75 1.23122 2.75 2.75zm-11.25-8.9873c-.69036 0-1.25.55964-1.25 1.25v7.7373c.00007.3069.11303.6031.31738.832l4.25102 4.7608.0976.0976c.5071.4563 1.3008.4231 1.7666-.0986l4.25-4.7598c.2044-.229.3174-.5251.3174-.832v-7.7373c0-.69036-.5596-1.25-1.25-1.25z" fill="#7d8198"/></svg>