<svg width="24" height="24" viewBox="0 0 24 24" fill="none" xmlns="http://www.w3.org/2000/svg">
<path fill-rule="evenodd" clip-rule="evenodd" d="M4 6.75C4 5.23122 5.23122 4 6.75 4H17.25C18.7688 4 20 5.23122 20 6.75V17.25C20 18.7688 18.7688 20 17.25 20H6.75C5.23122 20 4 18.7688 4 17.25V6.75ZM6.75 5.5C6.05964 5.5 5.5 6.05964 5.5 6.75V17.25C5.5 17.9404 6.05964 18.5 6.75 18.5H17.25C17.9404 18.5 18.5 17.9404 18.5 17.25V6.75C18.5 6.05964 17.9404 5.5 17.25 5.5H6.75ZM10.2954 11.25L9.24826 10.3075C8.94038 10.0304 8.91544 9.55614 9.19255 9.24826C9.46965 8.94039 9.94387 8.91545 10.2517 9.19255L12.7517 11.4427C12.9098 11.585 13 11.7876 13 12.0002C13 12.2128 12.9097 12.4154 12.7517 12.5577L10.2517 14.8075C9.94381 15.0846 9.46959 15.0596 9.19251 14.7517C8.91543 14.4438 8.9404 13.9696 9.2483 13.6925L10.2956 12.75H7.75C7.33579 12.75 7 12.4142 7 12C7 11.5858 7.33579 11.25 7.75 11.25H10.2954ZM14.75 7C14.3358 7 14 7.33579 14 7.75V16.25C14 16.6642 14.3358 17 14.75 17H16.25C16.6642 17 17 16.6642 17 16.25V7.75C17 7.33579 16.6642 7 16.25 7H14.75Z" fill="#7D8198"/>
</svg>
