<svg width="24" height="24" viewBox="0 0 24 24" fill="none" xmlns="http://www.w3.org/2000/svg">
<path fill-rule="evenodd" clip-rule="evenodd" d="M17.4273 4C18.8481 4 20 5.15189 20 6.57267V17.4273C20 18.8481 18.8481 20 17.4273 20H6.57267C5.15189 20 4 18.8481 4 17.4273V6.57267C4 5.15189 5.15189 4 6.57267 4H17.4273ZM18.5 6.57267C18.5 5.98031 18.0197 5.5 17.4273 5.5H6.57267C5.98031 5.5 5.5 5.98031 5.5 6.57267V17.4273C5.5 18.0197 5.98031 18.5 6.57267 18.5H17.4273C18.0197 18.5 18.5 18.0197 18.5 17.4273V6.57267ZM7 7.83333V16.1667C7 16.6269 7.3731 17 7.83333 17H9.16667C9.6269 17 10 16.6269 10 16.1667V7.83333C10 7.3731 9.6269 7 9.16667 7H7.83333C7.3731 7 7 7.3731 7 7.83333ZM13.6857 11.25L14.9053 10.0303C15.1982 9.73744 15.1982 9.26256 14.9053 8.96967C14.6124 8.67678 14.1376 8.67678 13.8447 8.96967L11.3447 11.4697C11.0518 11.7626 11.0518 12.2374 11.3447 12.5303L13.8447 15.0303C14.1376 15.3232 14.6124 15.3232 14.9053 15.0303C15.1982 14.7374 15.1982 14.2626 14.9053 13.9697L13.6857 12.75H17.125C17.5392 12.75 17.875 12.4142 17.875 12C17.875 11.5858 17.5392 11.25 17.125 11.25H13.6857Z" fill="#5B53FF"/>
</svg>
