<svg width="24" height="24" viewBox="0 0 24 24" fill="none" xmlns="http://www.w3.org/2000/svg">
<path d="M18.25 10.9999C18.6641 10.9999 18.9999 11.3358 19 11.7499V15.2499C19 17.321 17.3211 18.9999 15.25 18.9999H7.91992L9.71387 20.41C10.0393 20.666 10.0956 21.1381 9.83984 21.4638C9.58386 21.7893 9.11174 21.8456 8.78613 21.5897L5.28613 18.8388L5.22266 18.7821C5.08118 18.6421 4.99997 18.4503 5 18.2489C5.00016 18.0189 5.10623 17.8011 5.28711 17.6591L8.78711 14.91C9.11278 14.6546 9.58405 14.7115 9.83984 15.037C10.0954 15.3627 10.0384 15.8339 9.71289 16.0897L7.91797 17.4999H15.25C16.4926 17.4999 17.5 16.4925 17.5 15.2499V11.7499C17.5001 11.3358 17.8359 10.9999 18.25 10.9999Z" fill="#7D8198"/>
<path d="M14.1602 2.53602C14.4161 2.21065 14.8883 2.15426 15.2139 2.41004L18.7139 5.16102L18.7773 5.21766C18.9188 5.35766 19 5.54947 19 5.75086C18.9999 5.9809 18.8938 6.19857 18.7129 6.3407L15.2129 9.08973C14.8872 9.34535 14.416 9.28842 14.1602 8.96277C13.9046 8.63705 13.9615 8.1658 14.2871 7.91004L16.082 6.49988H8.75C7.50744 6.49988 6.50012 7.50735 6.5 8.74988V12.2499C6.49999 12.6641 6.16421 12.9999 5.75 12.9999C5.33579 12.9999 5.00001 12.6641 5 12.2499V8.74988C5.00012 6.67892 6.67901 4.99988 8.75 4.99988H16.0801L14.2861 3.58973C13.9607 3.33373 13.9043 2.86159 14.1602 2.53602Z" fill="#7D8198"/>
</svg>
