<svg width="24" height="24" viewBox="0 0 24 24" fill="none" xmlns="http://www.w3.org/2000/svg">
<path fill-rule="evenodd" clip-rule="evenodd" d="M12 4.00171C9.79086 4.00171 8 5.79257 8 8.00171C8 10.2108 9.79086 12.0017 12 12.0017C14.2091 12.0017 16 10.2108 16 8.00171C16 5.79257 14.2091 4.00171 12 4.00171ZM9.5 8.00171C9.5 6.621 10.6193 5.50171 12 5.50171C13.3807 5.50171 14.5 6.621 14.5 8.00171C14.5 9.38242 13.3807 10.5017 12 10.5017C10.6193 10.5017 9.5 9.38242 9.5 8.00171Z" fill="#7D8198"/>
<path fill-rule="evenodd" clip-rule="evenodd" d="M12 13C8.72814 13 6.649 14.7974 5.45957 16.392C4.86243 17.1926 4.88072 18.132 5.33263 18.8523C5.77006 19.5496 6.58118 20 7.50389 20H16.4961C17.4188 20 18.23 19.5496 18.6674 18.8523C19.1193 18.132 19.1376 17.1926 18.5405 16.392C17.351 14.7974 15.2719 13 12 13ZM6.66192 17.2889C7.67822 15.9264 9.35955 14.5 12 14.5C14.6405 14.5 16.3218 15.9264 17.3381 17.2889C17.5535 17.5777 17.5298 17.8431 17.3967 18.0552C17.2492 18.2903 16.9325 18.5 16.4961 18.5H7.50389C7.06754 18.5 6.75081 18.2903 6.60328 18.0552C6.47024 17.8431 6.44648 17.5777 6.66192 17.2889Z" fill="#7D8198"/>
</svg>
