<svg width="24" height="24" viewBox="0 0 24 24" fill="none" xmlns="http://www.w3.org/2000/svg">
<path d="M17.5 18.25C17.5 18.6642 17.8358 19 18.25 19C18.6642 19 19 18.6642 19 18.25L19 5.75C19 5.33578 18.6642 5 18.25 5C17.8357 5 17.5 5.33579 17.5 5.75L17.5 18.25Z" fill="#7D8198"/>
<path d="M15 11.9999C15 12.2063 14.9149 12.4035 14.7649 12.5452L10.2636 16.7953C9.96241 17.0797 9.48773 17.0661 9.20336 16.7649C8.91899 16.4637 8.93262 15.989 9.23379 15.7047L12.3631 12.75H4.75C4.33579 12.75 4 12.4142 4 12C4 11.5858 4.33579 11.25 4.75 11.25H12.3633L9.23381 8.29534C8.93263 8.01098 8.91899 7.5363 9.20335 7.23512C9.48771 6.93394 9.96239 6.9203 10.2636 7.20466L14.7649 11.4545C14.9149 11.5962 15 11.7935 15 11.9999Z" fill="#7D8198"/>
</svg>
