<svg width="24" height="24" viewBox="0 0 24 24" fill="none" xmlns="http://www.w3.org/2000/svg">
<path d="M3.2214 4.28204L19.718 20.7784C20.0109 21.0713 20.4857 21.0713 20.7786 20.7784C21.0715 20.4855 21.0715 20.0107 20.7786 19.7178L4.28205 3.22138C3.98916 2.92848 3.51428 2.92849 3.22139 3.22138C2.9285 3.51428 2.9285 3.98915 3.2214 4.28204Z" fill="#7D8198"/>
<path d="M21 11.9999C21 13.5888 20.2442 14.9903 19.0849 15.9021L18.014 14.8313C18.9112 14.1935 19.5 13.16 19.5 11.9999C19.5 10.0759 17.8803 8.49993 15.9197 8.49993H12.75C12.3358 8.49993 12 8.16414 12 7.74993C12 7.33571 12.3358 6.99993 12.75 6.99993H15.9197C18.672 6.99993 21 9.21121 21 11.9999Z" fill="#7D8198"/>
<path d="M6.00032 9.18283L4.92886 8.11151C3.75677 9.02319 3 10.418 3 11.9999C3 14.7913 5.35618 16.9999 8.19268 16.9999H11.25C11.6642 16.9999 12 16.6641 12 16.2499C12 15.8357 11.6642 15.4999 11.25 15.4999H8.19268C6.1215 15.4999 4.5 13.9011 4.5 11.9999C4.5 10.8583 5.08468 9.82569 6.00032 9.18283Z" fill="#7D8198"/>
</svg>
