<svg width="24" height="24" viewBox="0 0 24 24" fill="none" xmlns="http://www.w3.org/2000/svg">
<path fill-rule="evenodd" clip-rule="evenodd" d="M7.75 4C7.33579 4 7 4.33579 7 4.75V7H5.75C4.7835 7 4 7.7835 4 8.75V15.25C4 16.2165 4.7835 17 5.75 17H7V19.25C7 19.6642 7.33579 20 7.75 20H16.25C16.6642 20 17 19.6642 17 19.25V17H18.25C19.2165 17 20 16.2165 20 15.25V8.75C20 7.7835 19.2165 7 18.25 7H17V4.75C17 4.33579 16.6642 4 16.25 4H7.75ZM7 13.75V15.5H5.75C5.61193 15.5 5.5 15.3881 5.5 15.25V8.75C5.5 8.61193 5.61193 8.5 5.75 8.5H18.25C18.3881 8.5 18.5 8.61193 18.5 8.75V15.25C18.5 15.3881 18.3881 15.5 18.25 15.5H17V13.75C17 13.3358 16.6642 13 16.25 13H7.75C7.33579 13 7 13.3358 7 13.75ZM15.5 7V5.5H8.5V7H15.5ZM10 16.25C10 15.8358 10.3358 15.5 10.75 15.5H13.25C13.6642 15.5 14 15.8358 14 16.25C14 16.6642 13.6642 17 13.25 17H10.75C10.3358 17 10 16.6642 10 16.25ZM8.5 14.5V18.5H15.5V14.5H8.5ZM16 12C16.5523 12 17 11.5523 17 11C17 10.4477 16.5523 10 16 10C15.4477 10 15 10.4477 15 11C15 11.5523 15.4477 12 16 12Z" fill="#7D8198"/>
</svg>
