<svg width="24" height="24" viewBox="0 0 24 24" fill="none" xmlns="http://www.w3.org/2000/svg">
<path fill-rule="evenodd" clip-rule="evenodd" d="M14 5.50195C12.6193 5.50195 11.5 6.62124 11.5 8.00195C11.5 9.38267 12.6193 10.502 14 10.502C15.3807 10.502 16.5 9.38267 16.5 8.00195C16.5 6.62124 15.3807 5.50195 14 5.50195ZM10 8.00195C10 5.79281 11.7909 4.00195 14 4.00195C16.2091 4.00195 18 5.79281 18 8.00195C18 10.2111 16.2091 12.002 14 12.002C11.7909 12.002 10 10.2111 10 8.00195Z" fill="#7D8198"/>
<path fill-rule="evenodd" clip-rule="evenodd" d="M7.45951 16.392C8.64894 14.7974 10.7281 13 14 13C17.2718 13 19.351 14.7974 20.5404 16.392C21.1375 17.1926 21.1192 18.132 20.6673 18.8523C20.2299 19.5496 19.4188 20 18.4961 20H9.50383C8.58112 20 7.77 19.5496 7.33257 18.8523C6.88066 18.132 6.86237 17.1926 7.45951 16.392ZM14 14.5C11.3595 14.5 9.67816 15.9264 8.66186 17.2889C8.44642 17.5777 8.47018 17.8431 8.60322 18.0552C8.75074 18.2903 9.06748 18.5 9.50383 18.5H18.4961C18.9324 18.5 19.2492 18.2903 19.3967 18.0552C19.5297 17.8431 19.5535 17.5777 19.338 17.2889C18.3217 15.9264 16.6404 14.5 14 14.5Z" fill="#7D8198"/>
<path fill-rule="evenodd" clip-rule="evenodd" d="M7.27662 13.7377C7.413 14.1288 7.20649 14.5564 6.81538 14.6928C5.80722 15.0443 5.13452 15.8283 4.72459 16.5001H4.79425C5.20846 16.5001 5.54425 16.8359 5.54425 17.2501C5.54425 17.6643 5.20846 18.0001 4.79425 18.0001H4.22051C3.40582 18.0001 2.70147 17.162 3.12923 16.292C3.54756 15.4412 4.51384 13.9068 6.3215 13.2764C6.71262 13.1401 7.14024 13.3466 7.27662 13.7377Z" fill="#7D8198"/>
<path fill-rule="evenodd" clip-rule="evenodd" d="M8.62199 6.7113C8.64534 7.12486 8.32901 7.47904 7.91545 7.50238C7.70519 7.51425 7.49978 7.57027 7.3126 7.66678C7.12542 7.76329 6.96065 7.89813 6.82903 8.06254C6.69742 8.22694 6.60189 8.41721 6.54868 8.62098C6.49546 8.82474 6.48575 9.03743 6.52018 9.2452C6.5546 9.45296 6.63239 9.65115 6.74848 9.82686C6.86457 10.0026 7.01636 10.1519 7.19397 10.265C7.37158 10.3782 7.57103 10.4527 7.77934 10.4837C7.98765 10.5147 8.20014 10.5014 8.403 10.4449C8.80198 10.3336 9.21564 10.5668 9.32692 10.9658C9.43821 11.3648 9.20498 11.7784 8.80599 11.8897C8.40028 12.0029 7.97529 12.0293 7.55868 11.9674C7.14206 11.9054 6.74316 11.7564 6.38794 11.5301C6.03272 11.3037 5.72914 11.0051 5.49696 10.6537C5.26478 10.3023 5.1092 9.90592 5.04035 9.49039C4.9715 9.07486 4.99092 8.64949 5.09735 8.24196C5.20378 7.83443 5.39483 7.45388 5.65807 7.12507C5.92131 6.79627 6.25083 6.52658 6.6252 6.33356C6.99957 6.14054 7.41038 6.02851 7.83091 6.00477C8.24446 5.98142 8.59864 6.29775 8.62199 6.7113Z" fill="#7D8198"/>
</svg>
