<svg width="24" height="24" viewBox="0 0 24 24" fill="none" xmlns="http://www.w3.org/2000/svg">
<path d="M11.2476 9.50012L8.75016 9.50065C8.33595 9.50074 8.00009 9.16502 8 8.75081C7.99991 8.33659 8.33563 8.00074 8.74984 8.00065L15.2498 7.99927C15.6641 7.99918 15.9999 8.33489 16 8.74911C16.0001 9.16332 15.6644 9.49918 15.2502 9.49927L12.7476 9.4998L12.7476 15.2501C12.7476 15.6644 12.4118 16.0001 11.9976 16.0001C11.5834 16.0001 11.2476 15.6643 11.2476 15.2501L11.2476 9.50012Z" fill="#7D8198"/>
<path fill-rule="evenodd" clip-rule="evenodd" d="M4 6.75C4 5.23122 5.23122 4 6.75 4H17.25C18.7688 4 20 5.23122 20 6.75V17.25C20 18.7688 18.7688 20 17.25 20H6.75C5.23122 20 4 18.7688 4 17.25V6.75ZM6.75 5.5C6.05964 5.5 5.5 6.05964 5.5 6.75V17.25C5.5 17.9404 6.05964 18.5 6.75 18.5H17.25C17.9404 18.5 18.5 17.9404 18.5 17.25V6.75C18.5 6.05964 17.9404 5.5 17.25 5.5H6.75Z" fill="#7D8198"/>
</svg>
