<svg width="24" height="24" viewBox="0 0 24 24" fill="none" xmlns="http://www.w3.org/2000/svg">
<path fill-rule="evenodd" clip-rule="evenodd" d="M8.73984 7.20026C9.04346 6.9185 9.518 6.93621 9.79976 7.23982C10.0815 7.54344 10.0638 8.01798 9.7602 8.29975L7.6608 10.248H14.25C16.3211 10.248 18 11.927 18 13.998V16.25C18 16.6642 17.6642 17 17.25 17C16.8358 17 16.5 16.6642 16.5 16.25V13.998C16.5 12.7554 15.4927 11.748 14.25 11.748H7.65902L9.76051 13.7006C10.064 13.9825 10.0814 14.457 9.79947 14.7605C9.51753 15.0639 9.04298 15.0814 8.73953 14.7995L5.2395 11.5476C5.08672 11.4056 4.99994 11.2065 5 10.9979C5.00006 10.7894 5.08695 10.5903 5.23982 10.4484L8.73984 7.20026Z" fill="#7D8198"/>
</svg>
