<svg width="24" height="24" viewBox="0 0 24 24" fill="none" xmlns="http://www.w3.org/2000/svg">
<path fill-rule="evenodd" clip-rule="evenodd" d="M12.0024 4C7.58284 4 4 7.58284 4 12.0024C4 16.4219 7.58284 20.0047 12.0024 20.0047C12.9906 20.0047 13.9384 19.8253 14.8138 19.4968C15.2016 19.3513 15.3981 18.919 15.2526 18.5312C15.1071 18.1433 14.6747 17.9469 14.2869 18.0924C13.5773 18.3587 12.8079 18.5047 12.0024 18.5047C8.41126 18.5047 5.5 15.5935 5.5 12.0024C5.5 8.41126 8.41126 5.5 12.0024 5.5C15.5935 5.5 18.5047 8.41126 18.5047 12.0024V12.8082C18.5047 13.7292 17.7583 14.4756 16.8373 14.4756C15.9163 14.4756 15.1698 13.7292 15.1698 12.8082V12.033C15.1699 12.0228 15.1699 12.0127 15.1699 12.0025C15.1699 11.9923 15.1699 11.9821 15.1698 11.972V8.7791C15.1698 8.36488 14.834 8.0291 14.4198 8.0291C14.0113 8.0291 13.6791 8.35567 13.67 8.76198C13.0964 8.30458 12.3883 8.0292 11.5996 8.0292C9.53916 8.0292 8.0292 9.90827 8.0292 12.0025C8.0292 14.0967 9.53916 15.9758 11.5996 15.9758C12.6868 15.9758 13.6207 15.4526 14.2604 14.6506C14.8351 15.4529 15.7751 15.9756 16.8373 15.9756C18.5867 15.9756 20.0047 14.5576 20.0047 12.8082V12.0024C20.0047 7.58284 16.4219 4 12.0024 4ZM13.6698 11.9766V12.0283C13.6579 13.4747 12.6434 14.4758 11.5996 14.4758C10.5495 14.4758 9.5292 13.4627 9.5292 12.0025C9.5292 10.5422 10.5495 9.5292 11.5996 9.5292C12.6434 9.5292 13.6579 10.5303 13.6698 11.9766Z" fill="#7D8198"/>
</svg>
