<svg width="24" height="24" viewBox="0 0 24 24" fill="none" xmlns="http://www.w3.org/2000/svg">
<path d="M18.7803 5.21967C18.921 5.36032 19 5.55109 19 5.75L19 10.25C19 10.6642 18.6642 11 18.25 11C17.8358 11 17.5 10.6642 17.5 10.25L17.5 7.56072L7.56067 17.5L10.2527 17.5C10.6669 17.5 11.0027 17.8358 11.0027 18.25C11.0027 18.6642 10.6669 19 10.2527 19L5.75 19C5.55109 19 5.36032 18.921 5.21967 18.7803C5.07902 18.6397 5 18.4489 5 18.25V13.7467C5 13.3325 5.33579 12.9967 5.75 12.9967C6.16421 12.9967 6.5 13.3325 6.5 13.7467V16.4393L16.4394 6.5H13.75C13.3358 6.5 13 6.16421 13 5.75C13 5.33579 13.3358 5 13.75 5H18.25C18.4489 5 18.6397 5.07902 18.7803 5.21967Z" fill="#7D8198"/>
</svg>
