<svg width="24" height="24" viewBox="0 0 24 24" fill="none" xmlns="http://www.w3.org/2000/svg">
<path fill-rule="evenodd" clip-rule="evenodd" d="M14.9 5.1C17.6 6.2 19.5 8.9 19.5 12C19.5 14 18.7 15.7 17.5 17.1V17C17.5 16 16.7 15.2 15.7 15.2C15.2 15.2 14.8 14.8 14.8 14.3L14.4 12.8C14.4 12.3 14 11.9 13.5 11.9L10.4 11.7C9.9 11.7 9.5 11.3 9.5 10.8C9.5 10.3 9.9 9.9 10.4 9.9C10.9 9.9 11.3 9.5 11.3 9V8.2C11.3 7.7 11.7 7.3 12.2 7.3H13.1C14.1 7.3 14.9 6.5 14.9 5.5V5.1ZM11 19.4V17C10 17 9.5 16.2 9.5 15.2C9.5 14.6 9.3 14.1 9 13.6L8.6 13.1C7.7 11.9 6.6 10.8 5.4 9.9L4.9 9.5C4.6 10.3 4.5 11.1 4.5 12C4.5 15.8 7.3 19 11 19.4ZM21 12C21 7 17 3 12 3C7 3 3 7 3 12C3 17 7 21 12 21C17 21 21 17 21 12Z" fill="#7D8198"/>
</svg>
