<svg width="24" height="24" viewBox="0 0 24 24" fill="none" xmlns="http://www.w3.org/2000/svg">
<path d="M12 9.9572C12.5518 9.9572 12.9992 9.50983 12.9992 8.95797C12.9992 8.40611 12.5518 7.95874 12 7.95874C11.4481 7.95874 11.0007 8.40611 11.0007 8.95797C11.0007 9.50983 11.4481 9.9572 12 9.9572Z" fill="#7D8198"/>
<path d="M12 11C11.5858 11 11.25 11.3358 11.25 11.75V15.25C11.25 15.6642 11.5858 16 12 16C12.4142 16 12.75 15.6642 12.75 15.25V11.75C12.75 11.3358 12.4142 11 12 11Z" fill="#7D8198"/>
<path fill-rule="evenodd" clip-rule="evenodd" d="M21 12C21 16.9706 16.9706 21 12 21C7.02944 21 3 16.9706 3 12C3 7.02944 7.02944 3 12 3C16.9706 3 21 7.02944 21 12ZM12 19.5C16.1421 19.5 19.5 16.1421 19.5 12C19.5 7.85786 16.1421 4.5 12 4.5C7.85786 4.5 4.5 7.85786 4.5 12C4.5 16.1421 7.85786 19.5 12 19.5Z" fill="#7D8198"/>
</svg>
