<svg width="24" height="24" viewBox="0 0 24 24" fill="none" xmlns="http://www.w3.org/2000/svg">
<path fill-rule="evenodd" clip-rule="evenodd" d="M8.99999 7C8.99999 5.34297 10.343 4 12 4C13.657 4 15 5.34297 15 7H13.5C13.5 6.1714 12.8286 5.5 12 5.5C11.1714 5.5 10.5 6.1714 10.5 7H8.99999ZM6.03166 8.5H4.75C4.33579 8.5 4 8.16421 4 7.75C4 7.33579 4.33579 7 4.75 7H19.2489C19.6632 7 19.9989 7.33579 19.9989 7.75C19.9989 8.16421 19.6632 8.5 19.2489 8.5H17.9683L17.3728 17.435C17.2765 18.8796 16.0767 20.0021 14.6289 20.0021H9.37113C7.92334 20.0021 6.72351 18.8796 6.62722 17.435L6.03166 8.5ZM16.465 8.5L15.8761 17.3353C15.8323 17.9919 15.287 18.5021 14.6289 18.5021H9.37113C8.71304 18.5021 8.16766 17.9919 8.1239 17.3353L7.53499 8.5H16.465ZM10.25 10.0007C10.6642 10.0007 11 10.3365 11 10.7507L11 16.25C11 16.6642 10.6642 17 10.25 17C9.83579 17 9.5 16.6642 9.5 16.25L9.5 10.7507C9.5 10.3365 9.83579 10.0007 10.25 10.0007ZM14.5 10.75C14.5 10.3358 14.1642 10 13.75 10C13.3358 10 13 10.3358 13 10.75V16.25C13 16.6642 13.3358 17 13.75 17C14.1642 17 14.5 16.6642 14.5 16.25V10.75Z" fill="#7D8198"/>
</svg>
