<svg width="24" height="24" viewBox="0 0 24 24" fill="none" xmlns="http://www.w3.org/2000/svg">
<path d="M10.0204 17.0762C9.92444 17.4792 10.1733 17.8836 10.5763 17.9795C10.9792 18.0755 11.3836 17.8266 11.4796 17.4236L13.9796 6.92364C14.0755 6.52069 13.8266 6.11626 13.4237 6.02032C13.0207 5.92438 12.6163 6.17326 12.5204 6.57621L10.0204 17.0762Z" fill="#7D8198"/>
<path d="M3 12.0002C2.99999 11.7916 3.08682 11.5925 3.23964 11.4506L6.73964 8.20034C7.04316 7.91848 7.51771 7.93603 7.79958 8.23956C8.08144 8.54308 8.06388 9.01763 7.76036 9.29949L4.85221 12.0001L7.76032 14.7003C8.06386 14.9821 8.08146 15.4567 7.79961 15.7602C7.51777 16.0638 7.04323 16.0814 6.73968 15.7995L3.23968 12.5498C3.08685 12.4079 3.00001 12.2087 3 12.0002Z" fill="#7D8198"/>
<path d="M21 11.9999C21 12.2085 20.9132 12.4076 20.7604 12.5495L17.2604 15.7995C16.9568 16.0814 16.4823 16.0638 16.2004 15.7603C15.9186 15.4567 15.9361 14.9822 16.2397 14.7003L19.1478 11.9999L16.2397 9.29951C15.9361 9.01766 15.9186 8.54311 16.2004 8.23958C16.4823 7.93605 16.9568 7.91847 17.2604 8.20032L20.7604 11.4503C20.9132 11.5922 21 11.7914 21 11.9999Z" fill="#7D8198"/>
</svg>
