<svg width="24" height="24" viewBox="0 0 24 24" fill="none" xmlns="http://www.w3.org/2000/svg">
<path fill-rule="evenodd" clip-rule="evenodd" d="M15 3.75C15 3.33579 14.6642 3 14.25 3C13.8358 3 13.5 3.33579 13.5 3.75V7H9.75C8.23122 7 7 8.23122 7 9.75V18.25C7 19.7688 8.23122 21 9.75 21H14.25C15.7688 21 17 19.7688 17 18.25V9.75C17 8.49122 16.1543 7.42998 15 7.10352V3.75ZM9.75 8.5C9.05964 8.5 8.5 9.05964 8.5 9.75V18.25C8.5 18.9404 9.05964 19.5 9.75 19.5H14.25C14.9404 19.5 15.5 18.9404 15.5 18.25V9.75C15.5 9.05964 14.9404 8.5 14.25 8.5H9.75ZM13 11C13 11.5523 12.5523 12 12 12C11.4477 12 11 11.5523 11 11C11 10.4477 11.4477 10 12 10C12.5523 10 13 10.4477 13 11ZM12 15C12.5523 15 13 14.5523 13 14C13 13.4477 12.5523 13 12 13C11.4477 13 11 13.4477 11 14C11 14.5523 11.4477 15 12 15ZM13 17C13 17.5523 12.5523 18 12 18C11.4477 18 11 17.5523 11 17C11 16.4477 11.4477 16 12 16C12.5523 16 13 16.4477 13 17Z" fill="#7D8198"/>
</svg>
