<svg width="24" height="24" viewBox="0 0 24 24" fill="none" xmlns="http://www.w3.org/2000/svg">
<path fill-rule="evenodd" clip-rule="evenodd" d="M5 5.75073C5 4.23195 6.23122 3.00073 7.75 3.00073H12.2095C12.9093 3.00073 13.5827 3.26747 14.0926 3.74662L18.1331 7.5431C18.6863 8.06287 19 8.78816 19 9.54721V10.25C19 10.6642 18.6642 11 18.25 11C17.8358 11 17.5 10.6642 17.5 10.25V10H13.75C12.7835 10 12 9.2165 12 8.25V4.50073H7.75C7.05964 4.50073 6.5 5.06038 6.5 5.75073V17.2507C6.5 17.9411 7.05964 18.5007 7.75 18.5007H10.25C10.6642 18.5007 11 18.8365 11 19.2507C11 19.6649 10.6642 20.0007 10.25 20.0007H7.75C6.23122 20.0007 5 18.7695 5 17.2507V5.75073ZM13.5 5.24804L16.9609 8.5H13.75C13.6119 8.5 13.5 8.38807 13.5 8.25V5.24804Z" fill="#7D8198"/>
<path fill-rule="evenodd" clip-rule="evenodd" d="M17.5 22C19.9853 22 22 19.9853 22 17.5C22 15.0147 19.9853 13 17.5 13C15.0147 13 13 15.0147 13 17.5C13 19.9853 15.0147 22 17.5 22ZM19.0684 19.8356C19.3201 20.0718 19.7156 20.0593 19.9519 19.8076C20.1881 19.5559 20.1755 19.1603 19.9238 18.9241L18.4124 17.5058L19.9275 16.0859C20.1793 15.8499 20.1921 15.4543 19.9561 15.2025C19.7201 14.9506 19.3245 14.9378 19.0727 15.1739L17.499 16.6487L15.9277 15.1741C15.676 14.9379 15.2805 14.9505 15.0442 15.2022C14.808 15.4539 14.8206 15.8494 15.0723 16.0856L16.5851 17.5052L15.0726 18.9228C14.8208 19.1588 14.8079 19.5543 15.044 19.8062C15.28 20.058 15.6755 20.0709 15.9274 19.8348L17.4985 18.3624L19.0684 19.8356Z" fill="#7D8198"/>
</svg>
