<svg width="24" height="24" viewBox="0 0 24 24" fill="none" xmlns="http://www.w3.org/2000/svg">
<path fill-rule="evenodd" clip-rule="evenodd" d="M8.73984 16.7997C9.04346 17.0815 9.518 17.0638 9.79976 16.7602C10.0815 16.4566 10.0638 15.982 9.7602 15.7003L7.6608 13.752H14.25C16.3211 13.752 18 12.073 18 10.002V7.75C18 7.33579 17.6642 7 17.25 7C16.8358 7 16.5 7.33579 16.5 7.75V10.002C16.5 11.2446 15.4927 12.252 14.25 12.252H7.65902L9.76051 10.2994C10.064 10.0175 10.0814 9.54296 9.79947 9.23951C9.51753 8.93605 9.04298 8.91861 8.73953 9.20055L5.2395 12.4524C5.08672 12.5944 4.99994 12.7935 5 13.0021C5.00006 13.2106 5.08695 13.4097 5.23982 13.5516L8.73984 16.7997Z" fill="#7D8198"/>
</svg>
