<svg width="24" height="24" viewBox="0 0 24 24" fill="none" xmlns="http://www.w3.org/2000/svg">
<path fill-rule="evenodd" clip-rule="evenodd" d="M6 7.75C6 6.23122 7.23122 5 8.75 5H15.25C16.7688 5 18 6.23122 18 7.75V18.25C18 18.5266 17.8478 18.7807 17.6039 18.9113C17.36 19.0418 17.0641 19.0275 16.834 18.874L12 15.6514L7.16603 18.874C6.93588 19.0275 6.63997 19.0418 6.39611 18.9113C6.15224 18.7807 6 18.5266 6 18.25V7.75ZM8.75 6.5C8.05964 6.5 7.5 7.05964 7.5 7.75V16.8486L11.584 14.126C11.8359 13.958 12.1641 13.958 12.416 14.126L16.5 16.8486V7.75C16.5 7.05964 15.9404 6.5 15.25 6.5H8.75Z" fill="#7D8198"/>
</svg>
