<svg width="24" height="24" viewBox="0 0 24 24" fill="none" xmlns="http://www.w3.org/2000/svg">
    <path fill-rule="evenodd" clip-rule="evenodd"
        d="M12.25 10C12.0511 10 11.8603 9.92098 11.7197 9.78033L9.21967 7.28033C8.92678 6.98744 8.92678 6.51256 9.21967 6.21967C9.51256 5.92678 9.98744 5.92678 10.2803 6.21967L12.25 8.18934L14.2197 6.21967C14.5126 5.92678 14.9874 5.92678 15.2803 6.21967C15.5732 6.51256 15.5732 6.98744 15.2803 7.28033L12.7803 9.78033C12.6397 9.92098 12.4489 10 12.25 10Z"
        fill="#C1C2D9" />
    <path fill-rule="evenodd" clip-rule="evenodd"
        d="M12.25 14C12.0511 14 11.8603 14.079 11.7197 14.2197L9.21967 16.7197C8.92678 17.0126 8.92678 17.4874 9.21967 17.7803C9.51256 18.0732 9.98744 18.0732 10.2803 17.7803L12.25 15.8107L14.2197 17.7803C14.5126 18.0732 14.9874 18.0732 15.2803 17.7803C15.5732 17.4874 15.5732 17.0126 15.2803 16.7197L12.7803 14.2197C12.6397 14.079 12.4489 14 12.25 14Z"
        fill="#C1C2D9" />
</svg>
