<svg width="24" height="24" viewBox="0 0 24 24" fill="none" xmlns="http://www.w3.org/2000/svg">
<path d="M12.5575 3.24828C12.4152 3.09024 12.2126 3 12 3C11.7874 3 11.5848 3.09024 11.4425 3.24828L9.19253 5.74828C8.91544 6.05616 8.94039 6.53038 9.24828 6.80747C9.55616 7.08457 10.0304 7.05961 10.3075 6.75172L11.25 5.70447V9.25C11.25 9.66421 11.5858 10 12 10C12.4142 10 12.75 9.66421 12.75 9.25V5.70447L13.6925 6.75172C13.9696 7.05961 14.4438 7.08457 14.7517 6.80747C15.0596 6.53038 15.0846 6.05616 14.8075 5.74828L12.5575 3.24828Z" fill="#7D8198"/>
<path d="M12 21C11.7874 21 11.5848 20.9098 11.4425 20.7517L9.19253 18.2517C8.91544 17.9438 8.94039 17.4696 9.24828 17.1925C9.55616 16.9154 10.0304 16.9404 10.3075 17.2483L11.25 18.2955V14.7481C11.25 14.3339 11.5858 13.9981 12 13.9981C12.4142 13.9981 12.75 14.3339 12.75 14.7481V18.2955L13.6925 17.2483C13.9696 16.9404 14.4438 16.9154 14.7517 17.1925C15.0596 17.4696 15.0846 17.9438 14.8075 18.2517L12.5575 20.7517C12.4152 20.9098 12.2126 21 12 21Z" fill="#7D8198"/>
<path d="M16 4.75C16 4.33579 16.3358 4 16.75 4H18.25C19.2165 4 20 4.7835 20 5.75V18.25C20 19.2165 19.2165 20 18.25 20H16.75C16.3358 20 16 19.6642 16 19.25C16 18.8358 16.3358 18.5 16.75 18.5H18.25C18.3881 18.5 18.5 18.3881 18.5 18.25V5.75C18.5 5.61193 18.3881 5.5 18.25 5.5H16.75C16.3358 5.5 16 5.16421 16 4.75Z" fill="#7D8198"/>
<path d="M7.25 4C7.66421 4 8 4.33579 8 4.75C8 5.16421 7.66421 5.5 7.25 5.5H5.75C5.61193 5.5 5.5 5.61193 5.5 5.75V18.25C5.5 18.3881 5.61193 18.5 5.75 18.5H7.25C7.66421 18.5 8 18.8358 8 19.25C8 19.6642 7.66421 20 7.25 20H5.75C4.7835 20 4 19.2165 4 18.25V5.75C4 4.7835 4.7835 4 5.75 4H7.25Z" fill="#7D8198"/>
</svg>
