<svg width="24" height="24" viewBox="0 0 24 24" fill="none" xmlns="http://www.w3.org/2000/svg">
<path d="M8.75 4C8.33579 4 8 4.33579 8 4.75C8 5.16421 8.33579 5.5 8.75 5.5H15.25C15.6642 5.5 16 5.16421 16 4.75C16 4.33579 15.6642 4 15.25 4H8.75Z" fill="#7D8198"/>
<path d="M5.99878 7.25C5.99878 6.83579 6.33457 6.5 6.74878 6.5H17.25C17.6642 6.5 18 6.83579 18 7.25C18 7.66421 17.6642 8 17.25 8H6.74878C6.33457 8 5.99878 7.66421 5.99878 7.25Z" fill="#7D8198"/>
<path fill-rule="evenodd" clip-rule="evenodd" d="M4 11.75C4 10.2312 5.23122 9 6.75 9H17.25C18.7688 9 20 10.2312 20 11.75V17.25C20 18.7688 18.7688 20 17.25 20H6.75C5.23122 20 4 18.7688 4 17.25V11.75ZM6.75 10.5C6.05964 10.5 5.5 11.0596 5.5 11.75V17.25C5.5 17.9404 6.05964 18.5 6.75 18.5H17.25C17.9404 18.5 18.5 17.9404 18.5 17.25V11.75C18.5 11.0596 17.9404 10.5 17.25 10.5H6.75Z" fill="#7D8198"/>
</svg>
