<svg width="24" height="24" viewBox="0 0 24 24" fill="none" xmlns="http://www.w3.org/2000/svg">
<path fill-rule="evenodd" clip-rule="evenodd" d="M11.3953 21H12.6047C13.5941 21 14.4037 20.1905 14.4037 19.201C14.4037 19.0311 14.5536 18.9012 14.7035 18.8412L14.9334 18.7413C15.0833 18.6813 15.2832 18.6713 15.4031 18.7912C15.573 18.9611 15.7629 19.0911 15.9828 19.181C16.4225 19.3609 16.9223 19.3609 17.362 19.181C17.5819 19.0911 17.7718 18.9611 17.9417 18.7912L18.7912 17.9417C19.131 17.6119 19.3209 17.1421 19.3209 16.6724C19.3209 16.2027 19.121 15.7329 18.7912 15.4031C18.6713 15.2832 18.6813 15.0833 18.7413 14.9434L18.8412 14.7035C18.9012 14.5536 19.0311 14.4037 19.201 14.4037C20.1905 14.4037 21 13.5941 21 12.6047V11.3953C21 10.4059 20.1905 9.59634 19.201 9.59634C19.0311 9.59634 18.8912 9.44642 18.8312 9.2965L18.7413 9.06663C18.6813 8.91671 18.6713 8.71682 18.7912 8.59689C19.131 8.25708 19.3209 7.80733 19.3209 7.3276C19.3209 6.84786 19.131 6.39811 18.7912 6.0583L17.9417 5.20877C17.2721 4.53914 16.0727 4.53914 15.4031 5.20877C15.2732 5.32871 15.0733 5.31871 14.9334 5.25874L14.7035 5.1588C14.5236 5.09883 14.4037 4.94892 14.4037 4.799C14.4037 3.80955 13.5941 3 12.6047 3H11.3953C10.4059 3 9.59634 3.80955 9.59634 4.799C9.59634 4.96891 9.44642 5.09883 9.2965 5.1588L9.06663 5.25874C8.91671 5.31871 8.71682 5.32871 8.59689 5.20877C7.91727 4.53914 6.72793 4.53914 6.0583 5.20877L5.20877 6.0583C4.86896 6.38812 4.67907 6.84786 4.67907 7.3276C4.67907 7.80733 4.86896 8.25708 5.20877 8.59689C5.32871 8.71682 5.31871 8.91671 5.25874 9.06663L5.1588 9.2965C5.10883 9.44642 4.96891 9.59634 4.799 9.59634C3.80955 9.59634 3 10.4059 3 11.3953V12.6047C3 13.5941 3.80955 14.4037 4.799 14.4037C4.9789 14.4037 5.10883 14.5536 5.1688 14.7035L5.25874 14.9334C5.31871 15.0833 5.32871 15.2832 5.20877 15.4031C4.86896 15.7329 4.67907 16.2027 4.67907 16.6724C4.67907 17.1421 4.87896 17.6119 5.20877 17.9417L6.0583 18.7912C6.72793 19.4609 7.91727 19.4708 8.59689 18.7912C8.71682 18.6713 8.91671 18.6813 9.05664 18.7413L9.2965 18.8412C9.44642 18.9012 9.59634 19.0311 9.59634 19.201C9.59634 20.1905 10.4059 21 11.3953 21ZM9.6663 17.372C9.40644 17.2621 9.1266 17.2021 8.85675 17.2021L8.84675 17.2121C8.35702 17.2121 7.88729 17.392 7.53748 17.7418C7.42754 17.8517 7.22765 17.8517 7.11771 17.7418L6.26818 16.8923C6.20822 16.8423 6.17823 16.7624 6.17823 16.6824C6.17823 16.6024 6.20822 16.5225 6.26818 16.4725C6.81788 15.9228 6.9578 15.0933 6.62798 14.3337L6.55802 14.1638C6.25819 13.4042 5.56857 12.9145 4.799 12.9145C4.62909 12.9145 4.49917 12.7746 4.49917 12.6147V11.4053C4.49917 11.2354 4.63909 11.1055 4.799 11.1055C5.56857 11.1055 6.25819 10.6158 6.55802 9.86619L6.63798 9.67629C6.9678 8.92671 6.81788 8.08717 6.27818 7.54747C6.21821 7.4975 6.18823 7.41755 6.18823 7.33759C6.18823 7.25763 6.22821 7.17768 6.27818 7.12771L7.12771 6.27818C7.23765 6.16824 7.43753 6.16824 7.54747 6.27818C8.09717 6.81788 8.92671 6.9578 9.67629 6.63798L9.85619 6.55802C10.6158 6.25819 11.1055 5.56857 11.1055 4.799C11.1055 4.62909 11.2454 4.49917 11.4053 4.49917H12.6147C12.7846 4.49917 12.9145 4.63909 12.9145 4.799C12.9145 5.56857 13.4042 6.25819 14.1538 6.55802L14.3437 6.63798C15.0833 6.9678 15.9228 6.81788 16.4625 6.27818C16.5725 6.16824 16.7723 6.16824 16.8823 6.27818L17.7318 7.12771C17.7918 7.18767 17.8218 7.25763 17.8218 7.33759C17.8218 7.41755 17.7918 7.48751 17.7318 7.54747C17.1921 8.09717 17.0522 8.92671 17.372 9.67629L17.452 9.85619C17.7518 10.6158 18.4414 11.1055 19.211 11.1055C19.3809 11.1055 19.5108 11.2454 19.5108 11.4053V12.6147C19.5108 12.7846 19.3709 12.9145 19.211 12.9145C18.4414 12.9145 17.7518 13.4042 17.462 14.1538L17.382 14.3437C17.0522 15.0833 17.2021 15.9228 17.7418 16.4625C17.8018 16.5225 17.8318 16.5924 17.8318 16.6724C17.8318 16.7524 17.8018 16.8223 17.7418 16.8823L16.8923 17.7318C16.8623 17.7618 16.8323 17.7818 16.7923 17.8018C16.7124 17.8318 16.6324 17.8318 16.5625 17.8018C16.5225 17.7818 16.4925 17.7618 16.4625 17.7318C15.9228 17.1921 15.0833 17.0522 14.3437 17.372L14.1538 17.452C13.3942 17.7518 12.9045 18.4414 12.9045 19.211C12.9045 19.3809 12.7646 19.5108 12.6047 19.5108H11.3953C11.2254 19.5108 11.0955 19.3709 11.0955 19.211C11.0955 18.4414 10.6058 17.7418 9.85619 17.452L9.6663 17.372ZM13.4967 11.9983C13.4967 12.3957 13.3388 12.7768 13.0578 13.0578C12.7768 13.3388 12.3957 13.4967 11.9983 13.4967C11.601 13.4967 11.2198 13.3388 10.9389 13.0578C10.6579 12.7768 10.5 12.3957 10.5 11.9983C10.5 11.601 10.6579 11.2198 10.9389 10.9389C11.2198 10.6579 11.601 10.5 11.9983 10.5C12.3957 10.5 12.7768 10.6579 13.0578 10.9389C13.3388 11.2198 13.4967 11.601 13.4967 11.9983ZM14.9967 11.9983C14.9967 12.7935 14.6808 13.5562 14.1185 14.1185C13.5562 14.6808 12.7935 14.9967 11.9983 14.9967C11.2031 14.9967 10.4405 14.6808 9.87819 14.1185C9.3159 13.5562 9 12.7935 9 11.9983C9 11.2031 9.3159 10.4405 9.87819 9.87819C10.4405 9.3159 11.2031 9 11.9983 9C12.7935 9 13.5562 9.3159 14.1185 9.87819C14.6808 10.4405 14.9967 11.2031 14.9967 11.9983Z" fill="#7D8198"/>
</svg>
