<svg width="24" height="24" viewBox="0 0 24 24" fill="none" xmlns="http://www.w3.org/2000/svg">
<path fill-rule="evenodd" clip-rule="evenodd" d="M4 7.75C4 6.23122 5.23122 5 6.75 5H17.25C18.7688 5 20 6.23122 20 7.75V10.2507C20 10.6649 19.6642 11.0007 19.25 11.0007C18.8358 11.0007 18.5 10.6649 18.5 10.2507V9.88756L13.3 12.6771C12.4881 13.1127 11.5119 13.1127 10.7 12.6771L5.5 9.88756V16.25C5.5 16.9404 6.05964 17.5 6.75 17.5H10.25C10.6642 17.5 11 17.8358 11 18.25C11 18.6642 10.6642 19 10.25 19H6.75C5.23122 19 4 17.7688 4 16.25V7.75ZM18.5 7.75V8.18535L12.5909 11.3553C12.2218 11.5533 11.7782 11.5533 11.4091 11.3553L5.5 8.18535V7.75C5.5 7.05964 6.05964 6.5 6.75 6.5H17.25C17.9404 6.5 18.5 7.05964 18.5 7.75Z" fill="#7D8198"/>
<path fill-rule="evenodd" clip-rule="evenodd" d="M22 17.5C22 19.9853 19.9853 22 17.5 22C15.0147 22 13 19.9853 13 17.5C13 15.0147 15.0147 13 17.5 13C19.9853 13 22 15.0147 22 17.5ZM19.3419 15.4795C19.6294 15.6705 19.7076 16.0584 19.5166 16.3459L17.5205 19.3502C17.4167 19.5065 17.2481 19.6079 17.0613 19.6263C16.8745 19.6447 16.6893 19.5782 16.5569 19.4451L15.1885 18.0699C14.945 17.8252 14.946 17.4295 15.1907 17.186C15.4354 16.9426 15.8311 16.9435 16.0746 17.1882L16.903 18.0208L18.4754 15.6542C18.6664 15.3667 19.0543 15.2885 19.3419 15.4795Z" fill="#7D8198"/>
</svg>
