<svg width="24" height="24" viewBox="0 0 24 24" fill="none" xmlns="http://www.w3.org/2000/svg">
<path fill-rule="evenodd" clip-rule="evenodd" d="M4 6.75C4 5.23122 5.23122 4 6.75 4H17.25C18.7688 4 20 5.23122 20 6.75V17.25C20 18.7688 18.7688 20 17.25 20H6.75C5.23122 20 4 18.7688 4 17.25V6.75ZM6.75 5.5C6.05964 5.5 5.5 6.05964 5.5 6.75V17.25C5.5 17.9404 6.05964 18.5 6.75 18.5H17.25C17.9404 18.5 18.5 17.9404 18.5 17.25V6.75C18.5 6.05964 17.9404 5.5 17.25 5.5H14V7H12V5.5H6.75ZM12 9H10V7H12V9ZM12 9H14V11H12V9ZM10.6553 12.3787C10.711 12.1561 10.9109 12 11.1404 12H12.8596C13.089 12 13.289 12.1561 13.3447 12.3787L14.3447 16.3787C14.4236 16.6943 14.1849 17 13.8596 17H10.1404C9.8151 17 9.57642 16.6943 9.65531 16.3787L10.6553 12.3787ZM13 15C13 15.5523 12.5523 16 12 16C11.4477 16 11 15.5523 11 15C11 14.4477 11.4477 14 12 14C12.5523 14 13 14.4477 13 15Z" fill="#7D8198"/>
</svg>
