<svg width="24" height="24" viewBox="0 0 24 24" fill="none" xmlns="http://www.w3.org/2000/svg">
<path fill-rule="evenodd" clip-rule="evenodd" d="M12.75 6.37668V16.6939C14.5437 15.6503 16.8176 15.766 18.5 17.0203V6.38229C16.7675 5.1804 14.4745 5.18478 12.75 6.37668ZM11.25 16.6941V6.37668C9.52547 5.18478 7.2325 5.1804 5.5 6.38229V17.0212C7.18227 15.7666 9.4562 15.6507 11.25 16.6941ZM12 5.07303C14.2719 3.56516 17.2673 3.61602 19.4959 5.25035C19.8128 5.48272 20 5.85215 20 6.24509V17.8532C20 18.8646 18.7681 19.3609 18.0669 18.632C16.6381 17.1466 14.2755 17.101 12.7904 18.5302L12.5201 18.7904C12.2297 19.0699 11.7703 19.0699 11.4799 18.7904L11.2101 18.5307C9.72486 17.1013 7.36197 17.1471 5.93321 18.6329C5.23211 19.362 4 18.8657 4 17.8542V6.24509C4 5.85215 4.1872 5.48272 4.50407 5.25035C6.73271 3.61602 9.72808 3.56516 12 5.07303Z" fill="#7D8198"/>
</svg>
