<svg width="24" height="24" viewBox="0 0 24 24" fill="none" xmlns="http://www.w3.org/2000/svg">
<path fill-rule="evenodd" clip-rule="evenodd" d="M10 19.25C10 18.8358 10.3358 18.5 10.75 18.5H18.25C18.9404 18.5 19.5 17.9404 19.5 17.25V6.75C19.5 6.05964 18.9404 5.5 18.25 5.5L10.75 5.5C10.3358 5.5 10 5.16421 10 4.75C10 4.33579 10.3358 4 10.75 4H18.25C19.7688 4 21 5.23122 21 6.75V17.25C21 18.7688 19.7688 20 18.25 20H10.75C10.3358 20 10 19.6642 10 19.25ZM3 12C3 11.5858 3.33579 11.25 3.75 11.25H9.34178L7.24364 9.29936C6.94028 9.01733 6.92299 8.54277 7.20502 8.23941C7.48706 7.93604 7.96162 7.91876 8.26498 8.20079L11.7607 11.4507C11.9133 11.5926 12 11.7916 12 12C12 12.2084 11.9133 12.4074 11.7607 12.5493L8.26498 15.7992C7.96162 16.0813 7.48706 16.064 7.20502 15.7606C6.92299 15.4572 6.94028 14.9827 7.24364 14.7007L9.3418 12.75H3.75C3.33579 12.75 3 12.4142 3 12ZM17.9961 12C17.9961 12.5523 17.5483 13 16.9961 13C16.4438 13 15.9961 12.5523 15.9961 12C15.9961 11.4477 16.4438 11 16.9961 11C17.5483 11 17.9961 11.4477 17.9961 12ZM14 13C14.5523 13 15 12.5523 15 12C15 11.4477 14.5523 11 14 11C13.4477 11 13 11.4477 13 12C13 12.5523 13.4477 13 14 13Z" fill="#7D8198"/>
</svg>
