<svg width="24" height="24" viewBox="0 0 24 24" fill="none" xmlns="http://www.w3.org/2000/svg">
<path d="M5.99976 3.75C5.99976 3.33579 6.33554 3 6.74976 3H17.2502C17.6644 3 18.0002 3.33579 18.0002 3.75C18.0002 4.16421 17.6644 4.5 17.2502 4.5H6.74976C6.33554 4.5 5.99976 4.16421 5.99976 3.75Z" fill="#7D8198"/>
<path d="M4 8.75C4 7.23122 5.23122 6 6.75 6H17.25C18.7688 6 20 7.23122 20 8.75V12.25C20 12.6642 19.6642 13 19.25 13C18.8358 13 18.5 12.6642 18.5 12.25V8.75C18.5 8.05964 17.9404 7.5 17.25 7.5H6.75C6.05964 7.5 5.5 8.05964 5.5 8.75V16.25C5.5 16.9404 6.05964 17.5 6.75 17.5H8.25C8.66421 17.5 9 17.8358 9 18.25C9 18.6642 8.66421 19 8.25 19H6.75C5.23122 19 4 17.7688 4 16.25V8.75Z" fill="#7D8198"/>
<path d="M11 17.9977C11 16.2529 12.4296 15 14.0047 15H14.2797C14.6939 15 15.0297 15.3353 15.0297 15.7488C15.0297 16.1624 14.6939 16.4976 14.2797 16.4976H14.0047C13.204 16.4976 12.5 17.133 12.5 17.9977C12.5 18.8643 13.2061 19.5024 14.0047 19.5024H14.2797C14.6939 19.5024 15.0297 19.8376 15.0297 20.2512C15.0297 20.6647 14.6939 21 14.2797 21H14.0047C12.4275 21 11 19.7403 11 17.9977Z" fill="#7D8198"/>
<path d="M14 17.9904C14 17.5768 14.3358 17.2416 14.75 17.2416H17.25C17.6642 17.2416 18 17.5768 18 17.9904C18 18.404 17.6642 18.7392 17.25 18.7392H14.75C14.3358 18.7392 14 18.404 14 17.9904Z" fill="#7D8198"/>
<path d="M21.0017 17.9929C21.0017 16.2495 19.5706 15 17.997 15H17.7532C17.339 15 17.0032 15.3353 17.0032 15.7488C17.0032 16.1624 17.339 16.4976 17.7532 16.4976H17.997C18.7992 16.4976 19.5017 17.1325 19.5017 17.9929C19.5017 18.8554 18.7971 19.4929 17.997 19.4929H17.7532C17.339 19.4929 17.0032 19.8282 17.0032 20.2417C17.0032 20.6553 17.339 20.9906 17.7532 20.9906H17.997C19.5727 20.9906 21.0017 19.7343 21.0017 17.9929Z" fill="#7D8198"/>
</svg>
