<svg width="24" height="24" viewBox="0 0 24 24" fill="none" xmlns="http://www.w3.org/2000/svg">
<path fill-rule="evenodd" clip-rule="evenodd" d="M9 6.75C9 6.33579 9.33579 6 9.75 6H19.25C19.6642 6 20 6.33579 20 6.75C20 7.16421 19.6642 7.5 19.25 7.5H9.75C9.33579 7.5 9 7.16421 9 6.75Z" fill="#7D8198"/>
<path fill-rule="evenodd" clip-rule="evenodd" d="M9 11.75C9 11.3358 9.33579 11 9.75 11H19.25C19.6642 11 20 11.3358 20 11.75C20 12.1642 19.6642 12.5 19.25 12.5H9.75C9.33579 12.5 9 12.1642 9 11.75Z" fill="#7D8198"/>
<path fill-rule="evenodd" clip-rule="evenodd" d="M9 16.75C9 16.3358 9.33579 16 9.75 16H19.25C19.6642 16 20 16.3358 20 16.75C20 17.1642 19.6642 17.5 19.25 17.5H9.75C9.33579 17.5 9 17.1642 9 16.75Z" fill="#7D8198"/>
<path d="M6 7C6 7.55228 5.55228 8 5 8C4.44772 8 4 7.55228 4 7C4 6.44772 4.44772 6 5 6C5.55228 6 6 6.44772 6 7Z" fill="#7D8198"/>
<path d="M6 12C6 12.5523 5.55228 13 5 13C4.44772 13 4 12.5523 4 12C4 11.4477 4.44772 11 5 11C5.55228 11 6 11.4477 6 12Z" fill="#7D8198"/>
<path d="M6 17C6 17.5523 5.55228 18 5 18C4.44772 18 4 17.5523 4 17C4 16.4477 4.44772 16 5 16C5.55228 16 6 16.4477 6 17Z" fill="#7D8198"/>
</svg>
