<svg width="24" height="24" viewBox="0 0 24 24" fill="none" xmlns="http://www.w3.org/2000/svg">
<path fill-rule="evenodd" clip-rule="evenodd" d="M11.1433 4.14378C11.6986 3.95526 12.2942 3.95516 12.8496 4.14352C13.7284 4.44157 15.4097 5.03007 16.8773 5.65106C17.6074 5.95997 18.3102 6.2875 18.8397 6.6005C19.1014 6.75518 19.3518 6.92417 19.5461 7.10428C19.699 7.24604 20 7.55659 20 8.00141V16.0033C20 16.4481 19.699 16.7586 19.5461 16.9004C19.3518 17.0805 19.1014 17.2495 18.8397 17.4042C18.3102 17.7172 17.6074 18.0447 16.8773 18.3536C15.4097 18.9746 13.7284 19.5631 12.8496 19.8611C12.2942 20.0495 11.6986 20.0494 11.1433 19.8609C10.2651 19.5627 8.58549 18.9742 7.11937 18.3533C6.39008 18.0444 5.68806 17.7169 5.15903 17.4039C4.89758 17.2492 4.64748 17.0802 4.45333 16.9001C4.30043 16.7582 3.99997 16.4477 3.99997 16.0033V8.00142C3.99997 7.55693 4.30043 7.24646 4.45333 7.10459C4.64748 6.92445 4.89758 6.75545 5.15903 6.60076C5.68806 6.28777 6.39007 5.96025 7.11937 5.65136C8.58549 5.03041 10.265 4.44192 11.1433 4.14378ZM5.74623 8.00142C5.79854 7.96741 5.85723 7.93101 5.92262 7.89232C6.36447 7.6309 6.99336 7.33422 7.70419 7.03315C9.11833 6.43421 10.7559 5.85986 11.6253 5.56472C11.8682 5.48227 12.1251 5.48223 12.368 5.56461C13.238 5.85966 14.8773 6.43405 16.293 7.03306C17.0046 7.33416 17.6343 7.63091 18.0767 7.89239C18.1421 7.93105 18.2008 7.96743 18.2531 8.00141C18.2008 8.03539 18.1421 8.07178 18.0767 8.11043C17.6343 8.37191 17.0046 8.66866 16.293 8.96976C14.8773 9.56877 13.238 10.1432 12.368 10.4382C12.1251 10.5206 11.8682 10.5206 11.6253 10.4381C10.7559 10.143 9.11833 9.56861 7.70419 8.96968C6.99336 8.66862 6.36447 8.37193 5.92262 8.11052C5.85723 8.07183 5.79854 8.03542 5.74623 8.00142ZM18.5 9.59288C18.0261 9.84646 17.4604 10.1051 16.8773 10.3518C15.4097 10.9728 13.7284 11.5613 12.8496 11.8593C12.8154 11.8709 12.781 11.8818 12.7466 11.892V18.3105C13.6629 17.9943 15.0624 17.4923 16.293 16.9716C17.0046 16.6705 17.6343 16.3737 18.0767 16.1123C18.278 15.9933 18.4159 15.8958 18.5 15.8234V9.59288ZM11.2466 18.3102V11.8918C11.212 11.8816 11.1775 11.8707 11.1433 11.859C10.265 11.5609 8.58549 10.9724 7.11937 10.3515C6.53755 10.105 5.97308 9.84676 5.49997 9.59345V15.8237C5.58385 15.896 5.72154 15.9934 5.92262 16.1123C6.36446 16.3738 6.99335 16.6704 7.70419 16.9715C8.93318 17.492 10.3309 17.994 11.2466 18.3102Z" fill="#7D8198"/>
</svg>
