<svg width="24" height="24" viewBox="0 0 24 24" fill="none" xmlns="http://www.w3.org/2000/svg">
<path d="M9 11C9.55228 11 10 10.5523 10 10C10 9.44772 9.55228 9 9 9C8.44772 9 8 9.44772 8 10C8 10.5523 8.44772 11 9 11Z" fill="#7D8198"/>
<path d="M15 11C15.5523 11 16 10.5523 16 10C16 9.44772 15.5523 9 15 9C14.4477 9 14 9.44772 14 10C14 10.5523 14.4477 11 15 11Z" fill="#7D8198"/>
<path d="M9.46877 13.5571C9.36094 13.1572 8.94932 12.9204 8.54939 13.0282C8.14946 13.1361 7.91266 13.5477 8.02049 13.9476C8.25655 14.8231 8.77451 15.5965 9.49427 16.148C10.214 16.6996 11.0955 16.9986 12.0022 16.9988C12.909 16.999 13.7906 16.7004 14.5106 16.1493C15.2307 15.5981 15.749 14.825 15.9855 13.9496C16.0935 13.5497 15.8569 13.138 15.4571 13.03C15.0572 12.9219 14.6454 13.1585 14.5374 13.5584C14.3869 14.1155 14.0571 14.6074 13.5989 14.9582C13.1407 15.3089 12.5796 15.4989 12.0026 15.4988C11.4256 15.4986 10.8647 15.3084 10.4066 14.9574C9.94861 14.6064 9.61899 14.1143 9.46877 13.5571Z" fill="#7D8198"/>
<path fill-rule="evenodd" clip-rule="evenodd" d="M3 12C3 7.02944 7.02944 3 12 3C16.9706 3 21 7.02944 21 12C21 16.9706 16.9706 21 12 21C7.02944 21 3 16.9706 3 12ZM12 4.5C7.85786 4.5 4.5 7.85786 4.5 12C4.5 16.1421 7.85786 19.5 12 19.5C16.1421 19.5 19.5 16.1421 19.5 12C19.5 7.85786 16.1421 4.5 12 4.5Z" fill="#7D8198"/>
</svg>
