<svg width="24" height="24" viewBox="0 0 24 24" fill="none" xmlns="http://www.w3.org/2000/svg">
<path d="M12 7C10.3431 7 9 8.34315 9 10C9 11.6569 10.3431 13 12 13C13.6569 13 15 11.6569 15 10C15 8.34315 13.6569 7 12 7Z" fill="#7D8198"/>
<path fill-rule="evenodd" clip-rule="evenodd" d="M6.97896 19.4703C4.5788 17.8539 3 15.1113 3 12C3 7.02944 7.02944 3 12 3C16.9706 3 21 7.02944 21 12C21 15.1113 19.4212 17.8539 17.0211 19.4703C16.9862 19.4993 16.9493 19.5265 16.9106 19.5517C16.717 19.678 16.4271 19.8529 16.0538 20.0375C14.8355 20.6532 13.4583 21 12 21C10.5417 21 9.16435 20.6531 7.94604 20.0374C7.57278 19.8528 7.28301 19.6779 7.08938 19.5517C7.0507 19.5265 7.01386 19.4993 6.97896 19.4703ZM6.87764 17.4783C7.09625 16.9648 7.43577 16.3393 7.94972 15.7596C8.79287 14.8085 10.0921 14 12 14C13.9079 14 15.2071 14.8085 16.0503 15.7596C16.5642 16.3393 16.9038 16.9648 17.1224 17.4783C18.5855 16.1096 19.5 14.1616 19.5 12C19.5 7.85786 16.1421 4.5 12 4.5C7.85786 4.5 4.5 7.85786 4.5 12C4.5 14.1616 5.41446 16.1096 6.87764 17.4783Z" fill="#7D8198"/>
</svg>
