<svg width="24" height="24" viewBox="0 0 24 24" fill="none" xmlns="http://www.w3.org/2000/svg">
<path d="M12 14C12.2092 14 12.411 14.0097 12.6058 14.0283C11.9094 15.0082 11.5 16.2063 11.5 17.5C11.5 18.7967 11.9114 19.9974 12.6107 20.9785C12.5492 20.9827 12.4876 20.9863 12.4261 20.9892C12.2863 20.996 12.1442 20.9995 12 20.9995C11.8517 20.9995 11.7058 20.9958 11.5623 20.9886C10.5358 20.9386 9.51844 20.7129 8.55614 20.3143C8.46651 20.2771 8.3776 20.2386 8.28944 20.1987C7.74785 19.9577 7.3388 19.7143 7.08933 19.5517C7.04618 19.5236 7.00531 19.493 6.96687 19.4602C5.84029 18.7001 4.89373 17.6901 4.20642 16.4996C3.21589 14.784 2.81916 12.7895 3.07774 10.8254C3.33631 8.86127 4.23576 7.03738 5.63657 5.63657C7.03738 4.23576 8.86127 3.33631 10.8254 3.07774C12.7895 2.81916 14.784 3.2159 16.4996 4.20642C18.2153 5.19694 19.5561 6.72589 20.3143 8.55614C20.8483 9.84557 21.0722 11.2338 20.9785 12.6107C20.5273 12.2891 20.0297 12.0284 19.4976 11.8406C19.4779 10.9156 19.2871 9.99617 18.9284 9.13017C18.2967 7.60499 17.1793 6.33088 15.7496 5.50546C14.32 4.68003 12.6579 4.34942 11.0212 4.5649C9.38444 4.78038 7.86455 5.52991 6.69723 6.69723C5.52991 7.86455 4.78038 9.38444 4.5649 11.0212C4.34942 12.6579 4.68003 14.32 5.50546 15.7496C5.87772 16.3944 6.34125 16.9757 6.87792 17.4775C7.09654 16.9642 7.43598 16.339 7.94967 15.7596C8.79282 14.8085 10.092 14 12 14Z" fill="#7D8198"/>
<path d="M9.00001 10C9.00001 8.34316 10.3432 7.00001 12 7.00001C13.6569 7.00001 15 8.34316 15 10C15 11.6569 13.6569 13 12 13C10.3432 13 9.00001 11.6569 9.00001 10Z" fill="#7D8198"/>
<path fill-rule="evenodd" clip-rule="evenodd" d="M17.5 22C19.9853 22 22 19.9853 22 17.5C22 15.0147 19.9853 13 17.5 13C15.0147 13 13 15.0147 13 17.5C13 19.9853 15.0147 22 17.5 22ZM18.1343 15.0005C18.1343 14.6553 17.8545 14.3755 17.5093 14.3755C17.1641 14.3755 16.8843 14.6553 16.8843 15.0005V16.875H15.005C14.6598 16.875 14.38 17.1548 14.38 17.5C14.38 17.8452 14.6598 18.125 15.005 18.125H16.8843V20C16.8843 20.3452 17.1641 20.625 17.5093 20.625C17.8545 20.625 18.1343 20.3452 18.1343 20V18.125H20.0075C20.3527 18.125 20.6325 17.8452 20.6325 17.5C20.6325 17.1548 20.3527 16.875 20.0075 16.875H18.1343V15.0005Z" fill="#7D8198"/>
</svg>
