<svg width="28" height="28" viewBox="0 0 28 28" fill="none" xmlns="http://www.w3.org/2000/svg">
<path fill-rule="evenodd" clip-rule="evenodd" d="M4 6.75C4 5.23122 5.23122 4 6.75 4H21.25C22.7688 4 24 5.23122 24 6.75V21.25C24 22.7688 22.7688 24 21.25 24H6.75C5.23122 24 4 22.7688 4 21.25V6.75ZM16.7651 9.29724C17.0647 9.01129 17.0759 8.53654 16.7899 8.23687C16.5039 7.9372 16.0292 7.92608 15.7295 8.21204L10.2322 13.4577C10.084 13.5992 10 13.7952 10 14.0002C9.99996 14.2051 10.0838 14.4012 10.232 14.5427L15.7293 19.7924C16.0289 20.0785 16.5036 20.0675 16.7897 19.768C17.0758 19.4684 17.0648 18.9937 16.7653 18.7076L11.8362 14.0005L16.7651 9.29724Z" fill="#7D8198"/>
</svg>
