<svg width="28" height="28" viewBox="0 0 28 28" fill="none" xmlns="http://www.w3.org/2000/svg">
<path d="M14 4.5C12.0616 4.5 10.5 6.02618 10.5 8V10H19.2462C20.765 10 21.9962 11.2312 21.9962 12.75V21.25C21.9962 22.7688 20.765 24 19.2462 24H8.74622C7.22743 24 5.99622 22.7688 5.99622 21.25V12.75C5.99622 11.2312 7.22743 10 8.74622 10H9V8C9 5.18715 11.2438 3 14 3C16.0346 3 17.7937 4.19195 18.5731 5.95612C18.7405 6.33501 18.5691 6.77785 18.1902 6.94524C17.8113 7.11263 17.3685 6.94117 17.2011 6.56228C16.6593 5.33602 15.4347 4.5 14 4.5Z" fill="#7D8198"/>
</svg>
