<svg width="28" height="28" viewBox="0 0 28 28" fill="none" xmlns="http://www.w3.org/2000/svg">
<path fill-rule="evenodd" clip-rule="evenodd" d="M25 14C25 7.92487 20.0751 3 14 3C7.92487 3 3 7.92487 3 14C3 20.0751 7.92487 25 14 25C20.0751 25 25 20.0751 25 14ZM20 8.75137C20 8.55246 19.921 8.36169 19.7803 8.22104C19.6397 8.08039 19.4489 8.00137 19.25 8.00137H14.75C14.3358 8.00137 14 8.33716 14 8.75137C14 9.16558 14.3358 9.50137 14.75 9.50137H17.4375L9.50186 17.4336V14.7499C9.50186 14.3356 9.16608 13.9999 8.75186 13.9999C8.33765 13.9999 8.00186 14.3356 8.00186 14.7499V19.2499C8.00186 19.4488 8.08088 19.6395 8.22153 19.7802C8.36218 19.9208 8.55295 19.9999 8.75186 19.9999H13.251C13.6652 19.9999 14.001 19.6641 14.001 19.2499C14.001 18.8356 13.6652 18.4999 13.251 18.4999H10.5569L18.5 10.5602V13.2499C18.5 13.6641 18.8358 13.9999 19.25 13.9999C19.6642 13.9999 20 13.6641 20 13.2499V8.75137Z" fill="#7D8198"/>
</svg>
