<svg width="28" height="28" viewBox="0 0 28 28" fill="none" xmlns="http://www.w3.org/2000/svg">
<path fill-rule="evenodd" clip-rule="evenodd" d="M5.75 4C4.7835 4 4 4.7835 4 5.75V9.25C4 10.2165 4.7835 11 5.75 11H22.25C23.2165 11 24 10.2165 24 9.25V5.75C24 4.7835 23.2165 4 22.25 4H5.75ZM23 12.5H5V20.25C5 22.3211 6.67893 24 8.75 24H19.25C21.3211 24 23 22.3211 23 20.25V12.5ZM11 16.75C11 16.3358 11.3358 16 11.75 16H16.25C16.6642 16 17 16.3358 17 16.75C17 17.1642 16.6642 17.5 16.25 17.5H11.75C11.3358 17.5 11 17.1642 11 16.75Z" fill="#7D8198"/>
</svg>
