<svg width="28" height="28" viewBox="0 0 28 28" fill="none" xmlns="http://www.w3.org/2000/svg">
<path fill-rule="evenodd" clip-rule="evenodd" d="M4 6.75C4 5.23122 5.23122 4 6.75 4H21.25C22.7688 4 24 5.23122 24 6.75V21.25C24 22.7688 22.7688 24 21.25 24H6.75C5.23122 24 4 22.7688 4 21.25V6.75ZM9.75 9C9.33579 9 9 9.33579 9 9.75C9 10.1642 9.33579 10.5 9.75 10.5H18.25C18.6642 10.5 19 10.1642 19 9.75C19 9.33579 18.6642 9 18.25 9H9.75ZM20.25 14.5L7.75 14.5C7.33579 14.5001 7 14.1643 7 13.7501C7 13.3358 7.33578 13.0001 7.75 13L20.25 13C20.6642 13 21 13.3358 21 13.75C21 14.1642 20.6642 14.5 20.25 14.5ZM9.75 17C9.33579 17 9 17.3358 9 17.75C9 18.1642 9.33579 18.5 9.75 18.5H18.25C18.6642 18.5 19 18.1642 19 17.75C19 17.3358 18.6642 17 18.25 17H9.75Z" fill="#7D8198"/>
</svg>
