<svg width="28" height="28" viewBox="0 0 28 28" fill="none" xmlns="http://www.w3.org/2000/svg">
<path fill-rule="evenodd" clip-rule="evenodd" d="M25 14C25 7.92487 20.0751 3 14 3C7.92487 3 3 7.92487 3 14C3 20.0751 7.92487 25 14 25C20.0751 25 25 20.0751 25 14ZM18.25 11C17.8358 11 17.5 11.3358 17.5 11.75L17.5 16.4393L10.2803 9.21966C9.98744 8.92677 9.51256 8.92677 9.21967 9.21966C8.92678 9.51255 8.92678 9.98742 9.21967 10.2803L16.4393 17.5L11.75 17.5C11.3358 17.5 11 17.8358 11 18.25C11 18.6642 11.3358 19 11.75 19L18.25 19C18.4489 19 18.6397 18.921 18.7803 18.7803C18.921 18.6397 19 18.4489 19 18.25L19 11.75C19 11.3358 18.6642 11 18.25 11Z" fill="#7D8198"/>
</svg>
