<svg width="28" height="28" viewBox="0 0 28 28" fill="none" xmlns="http://www.w3.org/2000/svg">
<path fill-rule="evenodd" clip-rule="evenodd" d="M14 4C14.4142 4 14.75 4.33579 14.75 4.75V6.99634H21.25C22.7688 6.99634 24 8.22755 24 9.74634V18.2463C24 19.7651 22.7688 20.9963 21.25 20.9963H14.75V23.25C14.75 23.6642 14.4142 24 14 24C13.5858 24 13.25 23.6642 13.25 23.25V20.9963H6.75C5.23122 20.9963 4 19.7651 4 18.2463V9.74634C4 8.22756 5.23122 6.99634 6.75 6.99634H13.25V4.75C13.25 4.33579 13.5858 4 14 4ZM6.75 8.49634H13.25V19.4963H6.75C6.05964 19.4963 5.5 18.9367 5.5 18.2463V9.74634C5.5 9.05598 6.05964 8.49634 6.75 8.49634Z" fill="#7D8198"/>
</svg>
