<svg width="28" height="28" viewBox="0 0 28 28" fill="none" xmlns="http://www.w3.org/2000/svg">
    <path
        d="M11.3263 12.7847H7.43746C6.63197 12.7847 5.97913 12.1318 5.97913 11.3263V7.43746C5.97913 6.63197 6.63197 5.97913 7.43746 5.97913H11.3263C12.1318 5.97913 12.7847 6.63197 12.7847 7.43746V11.3263C12.7847 12.1318 12.1318 12.7847 11.3263 12.7847Z"
        stroke="#C1C2D9" stroke-width="1.5" stroke-miterlimit="10" stroke-linecap="round" stroke-linejoin="round" />
    <path
        d="M20.5626 12.7847H16.6737C15.8682 12.7847 15.2153 12.1318 15.2153 11.3263V7.43746C15.2153 6.63197 15.8682 5.97913 16.6737 5.97913H20.5626C21.368 5.97913 22.0209 6.63197 22.0209 7.43746V11.3263C22.0209 12.1318 21.368 12.7847 20.5626 12.7847Z"
        stroke="#C1C2D9" stroke-width="1.5" stroke-miterlimit="10" stroke-linecap="round" stroke-linejoin="round" />
    <path
        d="M11.3263 22.0209H7.43746C6.63197 22.0209 5.97913 21.368 5.97913 20.5626V16.6737C5.97913 15.8682 6.63197 15.2153 7.43746 15.2153H11.3263C12.1318 15.2153 12.7847 15.8682 12.7847 16.6737V20.5626C12.7847 21.368 12.1318 22.0209 11.3263 22.0209Z"
        stroke="#C1C2D9" stroke-width="1.5" stroke-miterlimit="10" stroke-linecap="round" stroke-linejoin="round" />
    <path
        d="M20.5626 22.0209H16.6737C15.8682 22.0209 15.2153 21.368 15.2153 20.5626V16.6737C15.2153 15.8682 15.8682 15.2153 16.6737 15.2153H20.5626C21.368 15.2153 22.0209 15.8682 22.0209 16.6737V20.5626C22.0209 21.368 21.368 22.0209 20.5626 22.0209Z"
        stroke="#C1C2D9" stroke-width="1.5" stroke-miterlimit="10" stroke-linecap="round" stroke-linejoin="round" />
</svg>
