<svg width="28" height="28" viewBox="0 0 28 28" fill="none" xmlns="http://www.w3.org/2000/svg">
<path d="M17.5011 5C15.0099 5 12.9989 7.01 12.9989 9.5C12.9989 11.99 15.0099 14 17.5011 14C19.9924 14 22.0033 11.99 22.0033 9.5C22.0033 7.01 19.9924 5 17.5011 5Z" fill="#7D8198"/>
<path d="M17.4912 16C13.9995 16 11.7784 17.77 10.4978 19.37H10.4878C9.85744 20.16 9.84744 21.11 10.2977 21.84C10.7279 22.54 11.5483 23 12.4787 23H22.5136C23.4441 23 24.2645 22.54 24.6947 21.83C25.1349 21.1 25.1249 20.15 24.4946 19.36C23.204 17.76 20.9829 16 17.4912 16Z" fill="#7D8198"/>
<path d="M9.32713 18.43C9.85739 17.77 10.5477 17.07 11.4081 16.44C10.7078 16.17 9.91742 16 8.99697 16C6.09554 16 4.31467 17.64 3.3542 19.01C2.88397 19.68 2.90398 20.46 3.28417 21.06C3.65435 21.64 4.31467 22 5.06504 22H8.73684C8.29662 20.81 8.49672 19.47 9.32713 18.43Z" fill="#7D8198"/>
<path d="M11.4982 9.5C11.4982 10.53 11.7683 11.49 12.2285 12.34C11.4982 13.34 10.3276 14 8.99696 14C6.78588 14 4.995 12.21 4.995 10C4.995 7.79 6.78588 6 8.99696 6C10.1575 6 11.198 6.5 11.9284 7.29C11.6483 7.97 11.4982 8.72 11.4982 9.5Z" fill="#7D8198"/>
</svg>
