<svg width="28" height="28" viewBox="0 0 28 28" fill="none" xmlns="http://www.w3.org/2000/svg">
<path fill-rule="evenodd" clip-rule="evenodd" d="M6.02688 5.52016C6.49271 4.58851 7.44493 4 8.48656 4H19.5144C20.556 4 21.5083 4.58851 21.9741 5.52016L24.7102 10.9923C24.9011 11.3742 25.0005 11.7952 25.0005 12.2221V20.25C25.0005 21.7688 23.7693 23 22.2505 23H5.75049C4.23171 23 3.00049 21.7688 3.00049 20.25V12.2221C3.00049 11.7952 3.09989 11.3742 3.29081 10.9923L6.02688 5.52016ZM8.48656 5.5C8.01309 5.5 7.58026 5.7675 7.36852 6.19098L4.63245 11.6631C4.57909 11.7698 4.54146 11.8833 4.52038 12H8.39834C9.51452 12 10.5583 12.5527 11.1855 13.476C12.5226 15.444 15.4229 15.444 16.7599 13.476C17.3871 12.5527 18.4309 12 19.5471 12H23.4806C23.4595 11.8833 23.4219 11.7698 23.3685 11.6631L20.6325 6.19098C20.4207 5.7675 19.9879 5.5 19.5144 5.5H8.48656ZM11.4992 18C11.1453 18 10.904 18.3592 11.0371 18.688L11.063 18.752C11.3683 19.5064 12.0993 20 12.9113 20H15.0887C15.9007 20 16.6317 19.5064 16.937 18.752L16.9629 18.688C17.096 18.3592 16.8547 18 16.5008 18H11.4992Z" fill="#7D8198"/>
</svg>
