<svg width="28" height="28" viewBox="0 0 28 28" fill="none" xmlns="http://www.w3.org/2000/svg">
<path d="M11 21C11 21.394 11.0776 21.7841 11.2284 22.1481C11.3791 22.512 11.6001 22.8427 11.8787 23.1213C12.1573 23.3999 12.488 23.6209 12.8519 23.7716C13.2159 23.9224 13.606 24 14 24C14.394 24 14.7841 23.9224 15.1481 23.7716C15.512 23.6209 15.8427 23.3999 16.1213 23.1213C16.3999 22.8427 16.6209 22.512 16.7716 22.1481C16.9224 21.7841 17 21.394 17 21H11Z" fill="#7D8198"/>
<path fill-rule="evenodd" clip-rule="evenodd" d="M14 3C10.134 3 7 6.13401 7 10V11.9998C7 14.0663 6.30288 15.2613 5.73178 15.8936C5.3395 16.3279 5 16.8697 5 17.4549C5 18.3082 5.69176 19 6.54509 19H21.4549C22.3082 19 23 18.3082 23 17.4549C23 16.8697 22.6605 16.3279 22.2682 15.8936C21.6971 15.2613 21 14.0663 21 11.9998V10C21 6.13401 17.866 3 14 3Z" fill="#7D8198"/>
</svg>
