<svg width="28" height="28" viewBox="0 0 28 28" fill="none" xmlns="http://www.w3.org/2000/svg">
<path d="M6.36834 4.7391C6.40457 4.60455 6.59547 4.60455 6.63169 4.7391L6.8089 5.39729C6.91314 5.78447 7.21557 6.0869 7.60275 6.19114L8.26094 6.36834C8.39549 6.40457 8.39549 6.59547 8.26094 6.63169L7.60275 6.8089C7.21557 6.91314 6.91314 7.21557 6.8089 7.60275L6.63169 8.26094C6.59547 8.39549 6.40457 8.39549 6.36834 8.26094L6.19114 7.60275C6.0869 7.21557 5.78447 6.91314 5.39729 6.8089L4.7391 6.63169C4.60455 6.59547 4.60455 6.40457 4.7391 6.36834L5.39729 6.19114C5.78447 6.0869 6.0869 5.78447 6.19114 5.39729L6.36834 4.7391Z" fill="#7D8198"/>
<path d="M16.2195 5.56516C16.1591 5.34091 15.8409 5.34091 15.7806 5.56516L15.4852 6.66215C15.3115 7.30744 14.8074 7.8115 14.1621 7.98523L13.0652 8.28057C12.8409 8.34095 12.8409 8.65911 13.0652 8.71949L14.1622 9.01483C14.8074 9.18856 15.3115 9.69262 15.4852 10.3379L15.7806 11.4349C15.8409 11.6592 16.1591 11.6592 16.2195 11.4349L16.5148 10.3379C16.6886 9.69262 17.1926 9.18856 17.8379 9.01483L18.9349 8.71949C19.1592 8.65911 19.1592 8.34095 18.9349 8.28057L17.8379 7.98523C17.1926 7.8115 16.6886 7.30744 16.5148 6.66215L16.2195 5.56516Z" fill="#7D8198"/>
<path d="M9.43937 9.43934C10.0252 8.85355 10.9749 8.85355 11.5607 9.43934L12.7803 10.659L10.659 12.7803L9.43937 11.5607C8.85358 10.9749 8.85358 10.0251 9.43937 9.43934Z" fill="#7D8198"/>
<path d="M11.7196 13.8409L13.841 11.7196L22.5607 20.4394C23.1465 21.0252 23.1465 21.9749 22.5607 22.5607C21.9749 23.1465 21.0252 23.1465 20.4394 22.5607L11.7196 13.8409Z" fill="#7D8198"/>
<path d="M9.63169 15.7391C9.59547 15.6045 9.40457 15.6045 9.36834 15.7391L9.19114 16.3973C9.0869 16.7845 8.78447 17.0869 8.39729 17.1911L7.7391 17.3683C7.60455 17.4046 7.60455 17.5955 7.7391 17.6317L8.39729 17.8089C8.78447 17.9131 9.0869 18.2156 9.19114 18.6027L9.36834 19.2609C9.40457 19.3955 9.59547 19.3955 9.63169 19.2609L9.8089 18.6027C9.91314 18.2156 10.2156 17.9131 10.6027 17.8089L11.2609 17.6317C11.3955 17.5955 11.3955 17.4046 11.2609 17.3683L10.6027 17.1911C10.2156 17.0869 9.91314 16.7845 9.8089 16.3973L9.63169 15.7391Z" fill="#7D8198"/>
</svg>
