<svg width="28" height="28" viewBox="0 0 28 28" fill="none" xmlns="http://www.w3.org/2000/svg">
    <path
        d="M20.7468 11.04C20.6325 10.7712 20.3686 10.5972 20.0764 10.5972H16.6707L19.7332 5.37583C19.8655 5.15028 19.8669 4.87125 19.7371 4.64472C19.6068 4.41771 19.3657 4.27771 19.1042 4.27771H13.2709C13.005 4.27771 12.76 4.42257 12.6321 4.65542L7.2849 14.3776C7.16094 14.6032 7.16483 14.8783 7.29608 15.1C7.42733 15.3222 7.66601 15.4583 7.92365 15.4583H11.2171L8.22163 22.7149C8.08795 23.0392 8.20365 23.4125 8.49726 23.604C8.61976 23.6833 8.75781 23.7222 8.89587 23.7222C9.08886 23.7222 9.28087 23.6453 9.42233 23.4976L20.6029 11.8309C20.8051 11.6199 20.862 11.3088 20.7468 11.04Z"
        fill="#BCBED2" />
</svg>
