<svg width="28" height="28" viewBox="0 0 28 28" fill="none" xmlns="http://www.w3.org/2000/svg">
<path d="M22.2953 4.03895C23.2922 3.80384 24.1863 4.69047 23.9681 5.68543L23.9701 5.68641L21.9554 15.9139C21.9533 15.9249 21.9512 15.9364 21.9486 15.9472C21.6922 16.9961 20.3899 17.364 19.6224 16.6044C19.6054 16.5875 19.5889 16.57 19.5736 16.5516L17.5531 14.1259L5.21519 23.8397C4.91544 24.0757 4.48646 24.0494 4.21812 23.7782C3.94984 23.5069 3.92817 23.0774 4.16734 22.7802L13.9554 10.6112L11.5062 8.78992C11.478 8.76894 11.4511 8.74629 11.4261 8.72156C10.6531 7.95638 11.0195 6.63972 12.0765 6.38367L12.0853 6.38172L22.2953 4.03699V4.03895Z" fill="#7D8198"/>
</svg>
