<svg width="28" height="28" viewBox="0 0 28 28" fill="none" xmlns="http://www.w3.org/2000/svg">
<path d="M14.75 3.74976C14.75 3.33554 14.4142 2.99976 14 2.99976C13.5858 2.99976 13.25 3.33554 13.25 3.74976V5.24976C13.25 5.66397 13.5858 5.99976 14 5.99976C14.4142 5.99976 14.75 5.66397 14.75 5.24976V3.74976Z" fill="#7D8198"/>
<path d="M3.00224 13.9976C3.00224 13.5834 3.33803 13.2476 3.75224 13.2476H5.25224C5.66646 13.2476 6.00224 13.5834 6.00224 13.9976C6.00224 14.4118 5.66646 14.7476 5.25224 14.7476H3.75224C3.33803 14.7476 3.00224 14.4118 3.00224 13.9976Z" fill="#7D8198"/>
<path d="M22.0036 13.9976C22.0036 13.5834 22.3394 13.2476 22.7536 13.2476H24.2536C24.6678 13.2476 25.0036 13.5834 25.0036 13.9976C25.0036 14.4118 24.6678 14.7476 24.2536 14.7476H22.7536C22.3394 14.7476 22.0036 14.4118 22.0036 13.9976Z" fill="#7D8198"/>
<path d="M13.25 24.2505V22.7456C13.25 22.3314 13.5858 21.9956 14 21.9956C14.4142 21.9956 14.75 22.3314 14.75 22.7456V24.2505C14.75 24.6647 14.4142 25.0005 14 25.0005C13.5858 25.0005 13.25 24.6647 13.25 24.2505Z" fill="#7D8198"/>
<path d="M20.7234 19.6484C20.4317 19.3543 19.9568 19.3523 19.6626 19.6439C19.3685 19.9355 19.3664 20.4103 19.6581 20.7044L20.7189 21.7741C21.0105 22.0682 21.4854 22.0703 21.7796 21.7787C22.0738 21.4871 22.0759 21.0122 21.7842 20.7181L20.7234 19.6484Z" fill="#7D8198"/>
<path d="M8.35252 8.33976C8.06084 8.63386 7.58591 8.63589 7.29174 8.34428L6.22187 7.28374C5.9277 6.99214 5.92568 6.51732 6.21735 6.22322C6.50903 5.92911 6.98395 5.92709 7.27813 6.21869L8.34799 7.27923C8.64217 7.57084 8.64419 8.04565 8.35252 8.33976Z" fill="#7D8198"/>
<path d="M19.6567 7.28653C19.3646 7.58016 19.3658 8.05498 19.6595 8.34707C19.9532 8.63915 20.4282 8.6379 20.7203 8.34427L21.7811 7.27811C22.0732 6.98448 22.072 6.50967 21.7783 6.21758C21.4846 5.9255 21.0097 5.92675 20.7175 6.22038L19.6567 7.28653Z" fill="#7D8198"/>
<path d="M8.34921 19.6617C8.64122 19.9555 8.63974 20.4303 8.3459 20.7222L7.27849 21.7828C6.98465 22.0747 6.50972 22.0732 6.21771 21.7795C5.9257 21.4857 5.92718 21.0109 6.22101 20.7189L7.28843 19.6584C7.58227 19.3665 8.0572 19.3679 8.34921 19.6617Z" fill="#7D8198"/>
<path d="M20 13.9974C20 17.3104 17.3137 19.996 14 19.996C10.6863 19.996 8 17.3104 8 13.9974C8 10.6845 10.6863 7.99884 14 7.99884C17.3137 7.99884 20 10.6845 20 13.9974Z" fill="#7D8198"/>
</svg>
