<svg width="28" height="28" viewBox="0 0 28 28" fill="none" xmlns="http://www.w3.org/2000/svg">
<path d="M14.6712 3.41538C14.5443 3.16086 14.2844 3 14 3C13.7156 3 13.4557 3.16086 13.3288 3.41538L10.6066 8.87583L4.24705 9.7571C3.96831 9.79573 3.73464 9.98713 3.6419 10.2528C3.54915 10.5185 3.61293 10.8137 3.80708 11.0174L8.20249 15.6292L7.19796 22.1361C7.15458 22.4171 7.27384 22.6985 7.50594 22.8627C7.73805 23.027 8.04308 23.0458 8.29366 22.9114L14 19.8511L19.7063 22.9114C19.9569 23.0458 20.2619 23.027 20.494 22.8627C20.7261 22.6985 20.8454 22.4171 20.802 22.1361L19.7975 15.6292L24.1929 11.0174C24.3871 10.8137 24.4508 10.5185 24.3581 10.2528C24.2653 9.98713 24.0317 9.79572 23.7529 9.7571L17.3934 8.87583L14.6712 3.41538Z" fill="#7D8198"/>
</svg>
