<svg width="28" height="28" viewBox="0 0 28 28" fill="none" xmlns="http://www.w3.org/2000/svg">
<path fill-rule="evenodd" clip-rule="evenodd" d="M25 14C25 20.0751 20.0751 25 14 25C7.92487 25 3 20.0751 3 14C3 7.92487 7.92487 3 14 3C20.0751 3 25 7.92487 25 14ZM18.25 17C17.8358 17 17.5 16.6642 17.5 16.25L17.5 11.5607L10.2803 18.7803C9.98744 19.0732 9.51256 19.0732 9.21967 18.7803C8.92678 18.4874 8.92678 18.0126 9.21967 17.7197L16.4393 10.5L11.75 10.5C11.3358 10.5 11 10.1642 11 9.75002C11 9.33581 11.3358 9.00002 11.75 9.00002L18.25 9C18.4489 9 18.6397 9.07902 18.7803 9.21967C18.921 9.36032 19 9.55109 19 9.75L19 16.25C19 16.6642 18.6642 17 18.25 17Z" fill="#7D8198"/>
</svg>
