<svg width="28" height="28" viewBox="0 0 28 28" fill="none" xmlns="http://www.w3.org/2000/svg">
<path fill-rule="evenodd" clip-rule="evenodd" d="M4 6.75C4 5.23122 5.23122 4 6.75 4H21.25C22.7688 4 24 5.23122 24 6.75V21.25C24 22.7688 22.7688 24 21.25 24H6.75C5.23122 24 4 22.7688 4 21.25V6.75ZM18.765 13.7953C18.4638 14.0797 17.9891 14.0661 17.7047 13.765L14.75 10.6364V19.25C14.75 19.6642 14.4142 20 14 20C13.5858 20 13.25 19.6642 13.25 19.25V10.6365L10.2953 13.765C10.0108 14.0661 9.53617 14.0797 9.23503 13.7953C8.93389 13.5108 8.92033 13.0362 9.20475 12.735L13.4548 8.23503C13.5965 8.08501 13.7937 8 14.0001 8C14.2064 8 14.4037 8.08502 14.5453 8.23504L18.7953 12.735C19.0797 13.0362 19.0661 13.5109 18.765 13.7953Z" fill="#7D8198"/>
</svg>
