<svg width="28" height="28" viewBox="0 0 28 28" fill="none" xmlns="http://www.w3.org/2000/svg">
<path d="M24.0767 8.51948L19.4784 3.92224C19.1855 3.62941 18.7107 3.62944 18.4178 3.92231L15.5763 6.76383C15.4783 6.78194 15.3534 6.80581 15.2067 6.83547C14.8346 6.9107 14.3198 7.02373 13.748 7.17519C12.6317 7.47089 11.1982 7.93809 10.218 8.60797C9.14786 9.3394 8.38417 10.55 7.82799 11.846C7.26589 13.1557 6.87958 14.6387 6.6127 16.0159C6.34504 17.3971 6.19301 18.696 6.10776 19.6479C6.06508 20.1245 6.03898 20.516 6.02352 20.7894C6.02079 20.8377 6.01838 20.8824 6.01628 20.9232L12.1583 14.7812C11.8498 14.0531 11.9923 13.1794 12.5858 12.5858C13.3668 11.8048 14.6332 11.8048 15.4142 12.5858C16.1953 13.3669 16.1953 14.6332 15.4142 15.4143C14.8207 16.0078 13.947 16.1503 13.219 15.8418L7.07695 21.9839C7.11776 21.9817 7.16242 21.9793 7.21075 21.9766C7.48416 21.9612 7.87559 21.9351 8.35226 21.8924C9.30416 21.8071 10.603 21.6551 11.9842 21.3874C13.3615 21.1206 14.8444 20.7342 16.1541 20.1721C17.4501 19.616 18.6607 18.8523 19.3922 17.7821C20.0622 16.8018 20.5289 15.3677 20.8242 14.2511C20.9755 13.6791 21.0883 13.164 21.1634 12.7917C21.193 12.6451 21.2168 12.5201 21.2349 12.4221L24.0768 9.5802C24.2174 9.43954 24.2965 9.24876 24.2965 9.04983C24.2964 8.8509 24.2174 8.66013 24.0767 8.51948Z" fill="#8952FD"/>
</svg>
