<svg width="28" height="28" viewBox="0 0 28 28" fill="none" xmlns="http://www.w3.org/2000/svg">
<path d="M6 8C6.00118 7.44771 6.44984 7 7.00213 7H21.0021C21.5544 7 22.0012 7.44771 22 8C21.9988 8.55228 21.5502 9 20.9979 9H6.99788C6.44559 9 5.99883 8.55228 6 8Z" fill="#7D8198"/>
<path d="M6 14C6.00118 13.4477 6.44984 13 7.00213 13H21.0021C21.5544 13 22.0012 13.4477 22 14C21.9988 14.5523 21.5502 15 20.9979 15H6.99788C6.44559 15 5.99883 14.5523 6 14Z" fill="#7D8198"/>
<path d="M7.00213 19C6.44984 19 6.00118 19.4477 6 20C5.99883 20.5523 6.44559 21 6.99788 21H20.9979C21.5502 21 21.9988 20.5523 22 20C22.0012 19.4477 21.5544 19 21.0021 19H7.00213Z" fill="#7D8198"/>
</svg>
