<svg width="28" height="28" viewBox="0 0 28 28" fill="none" xmlns="http://www.w3.org/2000/svg">
<path fill-rule="evenodd" clip-rule="evenodd" d="M4 6.75C4 5.23122 5.23122 4 6.75 4H21.25C22.7688 4 24 5.23122 24 6.75V21.25C24 22.7688 22.7688 24 21.25 24H6.75C5.23122 24 4 22.7688 4 21.25V6.75ZM15.2 8.7614C15.2 8.3408 14.8592 8 14.4386 8H13.562C13.1408 8 12.8 8.3408 12.8 8.7614C12.8 9.1082 12.5624 9.4058 12.239 9.533C12.188 9.5534 12.137 9.575 12.0872 9.5966C11.7686 9.7346 11.39 9.6926 11.144 9.4472C11.0012 9.30453 10.8076 9.22438 10.6058 9.22438C10.404 9.22438 10.2104 9.30453 10.0676 9.4472L9.4472 10.0676C9.30453 10.2104 9.22438 10.404 9.22438 10.6058C9.22438 10.8076 9.30453 11.0012 9.4472 11.144C9.6932 11.39 9.7352 11.768 9.596 12.0872C9.57413 12.1374 9.55313 12.188 9.533 12.239C9.4058 12.5624 9.1082 12.8 8.7614 12.8C8.3408 12.8 8 13.1408 8 13.5614V14.4386C8 14.8592 8.3408 15.2 8.7614 15.2C9.1082 15.2 9.4058 15.4376 9.533 15.761C9.55192 15.8083 9.57187 15.8556 9.59141 15.9019L9.596 15.9128C9.7346 16.2314 9.6926 16.61 9.4472 16.856C9.30453 16.9988 9.22438 17.1924 9.22438 17.3942C9.22438 17.596 9.30453 17.7896 9.4472 17.9324L10.0676 18.5528C10.2104 18.6955 10.404 18.7756 10.6058 18.7756C10.8076 18.7756 11.0012 18.6955 11.144 18.5528C11.39 18.3068 11.768 18.2648 12.0872 18.4034C12.137 18.4256 12.188 18.4466 12.239 18.467C12.5624 18.5942 12.8 18.8918 12.8 19.2386C12.8 19.6592 13.1408 20 13.5614 20H14.4386C14.8592 20 15.2 19.6592 15.2 19.2386C15.2 18.8918 15.4376 18.5942 15.761 18.4664C15.812 18.4466 15.863 18.4256 15.9128 18.404C16.2314 18.2648 16.61 18.3074 16.8554 18.5528C16.9261 18.6235 17.0101 18.6796 17.1025 18.7179C17.1949 18.7562 17.2939 18.7759 17.3939 18.7759C17.4939 18.7759 17.5929 18.7562 17.6853 18.7179C17.7777 18.6796 17.8617 18.6235 17.9324 18.5528L18.5528 17.9324C18.6955 17.7896 18.7756 17.596 18.7756 17.3942C18.7756 17.1924 18.6955 16.9988 18.5528 16.856C18.3068 16.61 18.2648 16.232 18.4034 15.9128C18.4256 15.863 18.4466 15.812 18.467 15.761C18.5942 15.4376 18.8918 15.2 19.2386 15.2C19.6592 15.2 20 14.8592 20 14.4386V13.562C20 13.1414 19.6592 12.8006 19.2386 12.8006C18.8918 12.8006 18.5942 12.563 18.4664 12.2396C18.4463 12.1886 18.4253 12.138 18.4034 12.0878C18.2654 11.7692 18.3074 11.3906 18.5528 11.1446C18.6955 11.0018 18.7756 10.8082 18.7756 10.6064C18.7756 10.4046 18.6955 10.211 18.5528 10.0682L17.9324 9.4478C17.7896 9.30513 17.596 9.22498 17.3942 9.22498C17.1924 9.22498 16.9988 9.30513 16.856 9.4478C16.61 9.6938 16.232 9.7358 15.9128 9.5972C15.8626 9.57512 15.812 9.55392 15.761 9.5336C15.4376 9.4058 15.2 9.1076 15.2 8.7614ZM16 14C16 14.5304 15.7893 15.0391 15.4142 15.4142C15.0391 15.7893 14.5304 16 14 16C13.4696 16 12.9609 15.7893 12.5858 15.4142C12.2107 15.0391 12 14.5304 12 14C12 13.4696 12.2107 12.9609 12.5858 12.5858C12.9609 12.2107 13.4696 12 14 12C14.5304 12 15.0391 12.2107 15.4142 12.5858C15.7893 12.9609 16 13.4696 16 14Z" fill="#7D8198"/>
</svg>
