<svg width="28" height="28" viewBox="0 0 28 28" fill="none" xmlns="http://www.w3.org/2000/svg">
<path fill-rule="evenodd" clip-rule="evenodd" d="M3 7.75C3 6.23122 4.23122 5 5.75 5H22.25C23.7688 5 25 6.23122 25 7.75V20.25C25 21.7688 23.7688 23 22.25 23H5.75C4.23122 23 3 21.7688 3 20.25V7.75ZM13.4432 11.2966C13.2822 11.6783 12.8424 11.8573 12.4607 11.6964C12.0807 11.5362 11.667 11.4724 11.2564 11.5109C10.8459 11.5493 10.4512 11.6887 10.1076 11.9167C9.76391 12.1446 9.482 12.454 9.28693 12.8174C9.09185 13.1807 8.98968 13.5866 8.9895 13.999C8.98933 14.4113 9.09116 14.8173 9.28593 15.1808C9.4807 15.5443 9.76236 15.8539 10.1058 16.0822C10.4492 16.3104 10.8438 16.4501 11.2544 16.4889C11.6649 16.5277 12.0787 16.4643 12.4588 16.3045C12.8406 16.1439 13.2803 16.3232 13.4409 16.705C13.6015 17.0868 13.4221 17.5265 13.0403 17.6871C12.4321 17.9429 11.7701 18.0443 11.1133 17.9823C10.4564 17.9202 9.8251 17.6966 9.27558 17.3315C8.72607 16.9663 8.27542 16.4708 7.96379 15.8893C7.65216 15.3077 7.48923 14.6581 7.4895 13.9983C7.48978 13.3385 7.65326 12.6891 7.96538 12.1078C8.2775 11.5265 8.72856 11.0314 9.27838 10.6667C9.8282 10.302 10.4597 10.0789 11.1166 10.0174C11.7735 9.95591 12.4355 10.0579 13.0434 10.3142C13.4251 10.4751 13.6041 10.9149 13.4432 11.2966ZM20.4744 11.2966C20.3135 11.6783 19.8736 11.8573 19.492 11.6964C19.112 11.5362 18.6983 11.4724 18.2877 11.5109C17.8771 11.5493 17.4824 11.6887 17.1388 11.9167C16.7952 12.1446 16.5132 12.454 16.3182 12.8174C16.1231 13.1807 16.0209 13.5866 16.0208 13.999C16.0206 14.4113 16.1224 14.8173 16.3172 15.1808C16.512 15.5443 16.7936 15.8539 17.1371 16.0822C17.4805 16.3104 17.8751 16.4501 18.2856 16.4889C18.6961 16.5277 19.1099 16.4643 19.49 16.3045C19.8718 16.1439 20.3115 16.3232 20.4721 16.705C20.6327 17.0868 20.4534 17.5265 20.0716 17.6871C19.4634 17.9429 18.8014 18.0443 18.1445 17.9823C17.4877 17.9202 16.8563 17.6966 16.3068 17.3315C15.7573 16.9663 15.3067 16.4708 14.995 15.8893C14.6834 15.3077 14.5205 14.6581 14.5208 13.9983C14.521 13.3385 14.6845 12.6891 14.9966 12.1078C15.3087 11.5265 15.7598 11.0314 16.3096 10.6667C16.8594 10.302 17.4909 10.0789 18.1479 10.0174C18.8048 9.95591 19.4667 10.0579 20.0747 10.3142C20.4564 10.4751 20.6353 10.9149 20.4744 11.2966Z" fill="#7D8198"/>
</svg>
