<svg width="28" height="28" viewBox="0 0 28 28" fill="none" xmlns="http://www.w3.org/2000/svg">
<path fill-rule="evenodd" clip-rule="evenodd" d="M4 6.75C4 5.23122 5.23122 4 6.75 4H21.25C22.7688 4 24 5.23122 24 6.75V21.25C24 22.7688 22.7688 24 21.25 24H6.75C5.23122 24 4 22.7688 4 21.25V6.75ZM20 8.75146C20 8.55255 19.9209 8.36179 19.7803 8.22113C19.6396 8.08048 19.4489 8.00146 19.25 8.00146H14.75C14.3357 8.00146 14 8.33725 14 8.75146C14 9.16568 14.3357 9.50146 14.75 9.50146H17.4375L9.50183 17.4337V14.75C9.50183 14.3357 9.16604 14 8.75183 14C8.33762 14 8.00183 14.3357 8.00183 14.75V19.25C8.00183 19.4489 8.08085 19.6396 8.2215 19.7803C8.36215 19.9209 8.55292 20 8.75183 20H13.2509C13.6652 20 14.0009 19.6642 14.0009 19.25C14.0009 18.8357 13.6652 18.5 13.2509 18.5H10.5568L18.5 10.5603V13.25C18.5 13.6642 18.8357 14 19.25 14C19.6642 14 20 13.6642 20 13.25V8.75146Z" fill="#7D8198"/>
</svg>
