<svg width="28" height="28" viewBox="0 0 28 28" fill="none" xmlns="http://www.w3.org/2000/svg">
<path d="M11.83 15.1831L8.09833 14.1324C7.27429 13.9005 6.81 13.0395 7.07425 12.2338C7.34509 11.4102 8.26462 10.9853 9.07713 11.3092L12.7643 12.7798L12.5215 8.57884C12.4721 7.72187 13.1619 7 14.0304 7H14.102C14.9697 7 15.6596 7.72106 15.611 8.57802L15.3665 12.8962L18.9121 11.4679C19.7271 11.14 20.6523 11.5664 20.9215 12.3949L20.9273 12.412C21.1891 13.2193 20.7207 14.0803 19.895 14.3082L16.0679 15.3646L18.5951 18.545C19.1278 19.2148 18.9862 20.1882 18.2856 20.6838L18.2321 20.7212C17.5217 21.2234 16.5289 21.0272 16.0687 20.2932L13.8822 16.8075L11.5914 20.3042C11.1337 21.0171 10.1688 21.2133 9.46335 20.7372C8.73974 20.2489 8.56388 19.2378 9.1072 18.5582L11.83 15.1831Z" fill="#7D8198"/>
</svg>
