<svg width="28" height="28" viewBox="0 0 28 28" fill="none" xmlns="http://www.w3.org/2000/svg">
    <path fill-rule="evenodd" clip-rule="evenodd"
        d="M14.5849 3.38397C14.2523 3.08592 13.7478 3.08529 13.4155 3.38365L13.4106 3.38798L13.3847 3.4105C13.3605 3.43142 13.3224 3.46383 13.2712 3.5061C13.1687 3.59068 13.0139 3.71447 12.8123 3.86447C12.4085 4.16493 11.8207 4.56778 11.093 4.97064C9.6274 5.78197 7.65007 6.56255 5.49304 6.56255C5.00979 6.56255 4.61804 6.9543 4.61804 7.43755V13.3968C4.61804 15.0382 4.96624 17.2091 6.29324 19.3804C7.62479 21.5592 9.90383 23.6756 13.6603 25.2578C13.8775 25.3493 14.1224 25.3493 14.3396 25.2578C18.0961 23.6756 20.3752 21.5592 21.7067 19.3804C23.0337 17.2091 23.3819 15.0382 23.3819 13.3968V7.43758C23.3819 6.95433 22.9902 6.56255 22.5069 6.56255C20.3499 6.56255 18.3726 5.78197 16.907 4.97064C16.1793 4.56778 15.5915 4.16493 15.1877 3.86447C14.9861 3.71447 14.8313 3.59068 14.7288 3.5061C14.6776 3.46383 14.6395 3.43142 14.6153 3.4105L14.5894 3.38798L14.5849 3.38397Z"
        fill="#BCBED2" />
</svg>
