<svg width="28" height="28" viewBox="0 0 28 28" fill="none" xmlns="http://www.w3.org/2000/svg">
<path fill-rule="evenodd" clip-rule="evenodd" d="M6 10.8506C6 6.40209 10.0249 3 14 3C17.9751 3 22 6.40209 22 10.8506C22 13.1636 21.1674 14.6694 20.3296 15.6894C20.0033 16.0867 19.6693 16.4168 19.4171 16.6662C19.3568 16.7257 19.3012 16.7808 19.2515 16.8309C19.1234 16.9602 19.0459 17.0456 19 17.1062V17.25C19 18.2165 18.2165 19 17.25 19H10.75C9.7835 19 9 18.2165 9 17.25V17.1062C8.95411 17.0456 8.87665 16.9602 8.74853 16.8309C8.69893 16.7809 8.64348 16.7261 8.58338 16.6666C8.33114 16.4173 7.99675 16.0867 7.67043 15.6894C6.83265 14.6694 6 13.1636 6 10.8506ZM9.02813 17.1467L9.03096 17.1521C9.0311 17.1522 9.03066 17.1509 9.02813 17.1467ZM14.8547 4.55644C14.4441 4.50198 14.0671 4.79069 14.0126 5.20131C13.9582 5.61192 14.2469 5.98895 14.6575 6.04342C15.7485 6.18813 16.7612 6.68874 17.5387 7.46762C18.3162 8.24649 18.815 9.26012 18.9577 10.3513C19.0115 10.7621 19.388 11.0514 19.7987 10.9977C20.2094 10.944 20.4988 10.5675 20.4451 10.1567C20.2595 8.73816 19.611 7.42044 18.6003 6.4079C17.5896 5.39536 16.273 4.74458 14.8547 4.55644Z" fill="#7D8198"/>
<path d="M10.7491 20.5C10.3349 20.5 9.99915 20.8358 9.99915 21.25C9.99915 21.6642 10.3349 22 10.7491 22H17.2531C17.6673 22 18.0031 21.6642 18.0031 21.25C18.0031 20.8358 17.6673 20.5 17.2531 20.5H10.7491Z" fill="#7D8198"/>
<path d="M15.9794 23.8627C16.0823 23.6064 15.8511 23.375 15.575 23.375H12.425C12.1488 23.375 11.9177 23.6064 12.0206 23.8627C12.12 24.1099 12.2944 24.3374 12.5327 24.524C12.9219 24.8288 13.4497 25 14 25C14.5503 25 15.0781 24.8288 15.4672 24.524C15.7056 24.3374 15.88 24.1099 15.9794 23.8627Z" fill="#7D8198"/>
</svg>
