<svg width="28" height="28" viewBox="0 0 28 28" fill="none" xmlns="http://www.w3.org/2000/svg">
<path fill-rule="evenodd" clip-rule="evenodd" d="M24.0038 7.07548C24.0038 5.37702 22.6268 4 20.9283 4H7.07926C5.3808 4 4.00378 5.37702 4.00378 7.07548V20.9245C4.00378 22.623 5.3808 24 7.07926 24H20.9283C22.6268 24 24.0038 22.623 24.0038 20.9245V7.07548ZM18.8119 11.2467C19.0863 10.9364 19.0571 10.4624 18.7467 10.1881C18.4364 9.91375 17.9624 9.94294 17.6881 10.2533L12.4457 16.1838L10.2552 14.1944C9.9486 13.916 9.47427 13.9388 9.1958 14.2454C8.91732 14.552 8.94015 15.0264 9.24678 15.3048L12 17.8052C12.1485 17.9401 12.3449 18.0099 12.5453 17.9989C12.7457 17.9879 12.9333 17.8971 13.0661 17.7467L18.8119 11.2467Z" fill="#7D8198"/>
</svg>
