<svg width="28" height="28" viewBox="0 0 28 28" fill="none" xmlns="http://www.w3.org/2000/svg">
<path fill-rule="evenodd" clip-rule="evenodd" d="M14.003 3C11.593 3 9.56798 4.72346 9.10119 7H6.25C5.55965 7 5 7.55964 5 8.25V20.25C5 22.8734 7.12665 25 9.75 25H18.25C20.8734 25 23 22.8734 23 20.25V8.25C23 7.55965 22.4404 7 21.75 7H18.899C18.4335 4.72429 16.4138 3 14.003 3ZM14.003 4.5C12.4267 4.5 11.0808 5.55909 10.6468 7H17.3537C16.921 5.55843 15.5784 4.5 14.003 4.5ZM10.5 11.9954C10.5 13.9182 12.0787 15.4954 14.003 15.4954C15.9258 15.4954 17.5 13.9196 17.5 11.9954V10.75C17.5 10.3358 17.8358 10 18.25 10C18.6642 10 19 10.336 19 10.7502V11.9954C19 14.7466 16.7556 16.9954 14.003 16.9954C11.2517 16.9954 9 14.748 9 11.9954V10.75C9 10.3358 9.33579 10 9.75 10C10.1642 10 10.5 10.3365 10.5 10.7507V11.9954Z" fill="#7D8198"/>
</svg>
