<svg width="28" height="28" viewBox="0 0 28 28" fill="none" xmlns="http://www.w3.org/2000/svg">
<path fill-rule="evenodd" clip-rule="evenodd" d="M14 25C20.0751 25 25 20.0751 25 14C25 7.92487 20.0751 3 14 3C7.92487 3 3 7.92487 3 14C3 20.0751 7.92487 25 14 25ZM12 9C12.5523 9 13 9.44772 13 10V18C13 18.5523 12.5523 19 12 19C11.4477 19 11 18.5523 11 18V10C11 9.44772 11.4477 9 12 9ZM17 10C17 9.44772 16.5523 9 16 9C15.4477 9 15 9.44772 15 10V18C15 18.5523 15.4477 19 16 19C16.5523 19 17 18.5523 17 18V10Z" fill="#7D8198"/>
</svg>
