<svg width="28" height="28" viewBox="0 0 28 28" fill="none" xmlns="http://www.w3.org/2000/svg">
<path d="M22.0029 7.00293C22.0029 6.45064 21.5552 6.00293 21.0029 6.00293H7.00293C6.45064 6.00293 6.00293 6.45065 6.00293 7.00293V21.0029C6.00293 21.5552 6.45065 22.0029 7.00293 22.0029H21.0029C21.5552 22.0029 22.0029 21.5552 22.0029 21.0029V7.00293ZM24.0029 21.0029C24.0029 22.6598 22.6598 24.0029 21.0029 24.0029H7.00293C5.34608 24.0029 4.00293 22.6598 4.00293 21.0029V7.00293C4.00293 5.34608 5.34608 4.00293 7.00293 4.00293H21.0029C22.6598 4.00293 24.0029 5.34608 24.0029 7.00293V21.0029Z" fill="#7D8198"/>
</svg>
