<svg width="28" height="28" viewBox="0 0 28 28" fill="none" xmlns="http://www.w3.org/2000/svg">
<path d="M3 4.75C3 4.33579 3.33579 4 3.75 4H24.25C24.6642 4 25 4.33579 25 4.75C25 5.16421 24.6642 5.5 24.25 5.5H3.75C3.33579 5.5 3 5.16421 3 4.75Z" fill="#7D8198"/>
<path fill-rule="evenodd" clip-rule="evenodd" d="M4.75 7C3.7835 7 3 7.7835 3 8.75V11.25C3 12.2165 3.7835 13 4.75 13H7.25C8.2165 13 9 12.2165 9 11.25V8.75C9 7.7835 8.2165 7 7.25 7H4.75ZM4.5 8.75C4.5 8.61193 4.61193 8.5 4.75 8.5H7.25C7.38807 8.5 7.5 8.61193 7.5 8.75V11.25C7.5 11.3881 7.38807 11.5 7.25 11.5H4.75C4.61193 11.5 4.5 11.3881 4.5 11.25V8.75Z" fill="#7D8198"/>
<path fill-rule="evenodd" clip-rule="evenodd" d="M4.75 18C3.7835 18 3 18.7835 3 19.75V22.25C3 23.2165 3.7835 24 4.75 24H7.25C8.2165 24 9 23.2165 9 22.25V19.75C9 18.7835 8.2165 18 7.25 18H4.75ZM4.5 19.75C4.5 19.6119 4.61193 19.5 4.75 19.5H7.25C7.38807 19.5 7.5 19.6119 7.5 19.75V22.25C7.5 22.3881 7.38807 22.5 7.25 22.5H4.75C4.61193 22.5 4.5 22.3881 4.5 22.25V19.75Z" fill="#7D8198"/>
<path fill-rule="evenodd" clip-rule="evenodd" d="M11 8.75C11 7.7835 11.7835 7 12.75 7H15.25C16.2165 7 17 7.7835 17 8.75V11.25C17 12.2165 16.2165 13 15.25 13H12.75C11.7835 13 11 12.2165 11 11.25V8.75ZM12.75 8.5C12.6119 8.5 12.5 8.61193 12.5 8.75V11.25C12.5 11.3881 12.6119 11.5 12.75 11.5H15.25C15.3881 11.5 15.5 11.3881 15.5 11.25V8.75C15.5 8.61193 15.3881 8.5 15.25 8.5H12.75Z" fill="#7D8198"/>
<path fill-rule="evenodd" clip-rule="evenodd" d="M12.75 18C11.7835 18 11 18.7835 11 19.75V22.25C11 23.2165 11.7835 24 12.75 24H15.25C16.2165 24 17 23.2165 17 22.25V19.75C17 18.7835 16.2165 18 15.25 18H12.75ZM12.5 19.75C12.5 19.6119 12.6119 19.5 12.75 19.5H15.25C15.3881 19.5 15.5 19.6119 15.5 19.75V22.25C15.5 22.3881 15.3881 22.5 15.25 22.5H12.75C12.6119 22.5 12.5 22.3881 12.5 22.25V19.75Z" fill="#7D8198"/>
<path fill-rule="evenodd" clip-rule="evenodd" d="M19 8.75C19 7.7835 19.7835 7 20.75 7H23.25C24.2165 7 25 7.7835 25 8.75V11.25C25 12.2165 24.2165 13 23.25 13H20.75C19.7835 13 19 12.2165 19 11.25V8.75ZM20.75 8.5C20.6119 8.5 20.5 8.61193 20.5 8.75V11.25C20.5 11.3881 20.6119 11.5 20.75 11.5H23.25C23.3881 11.5 23.5 11.3881 23.5 11.25V8.75C23.5 8.61193 23.3881 8.5 23.25 8.5H20.75Z" fill="#7D8198"/>
<path fill-rule="evenodd" clip-rule="evenodd" d="M20.75 18C19.7835 18 19 18.7835 19 19.75V22.25C19 23.2165 19.7835 24 20.75 24H23.25C24.2165 24 25 23.2165 25 22.25V19.75C25 18.7835 24.2165 18 23.25 18H20.75ZM20.5 19.75C20.5 19.6119 20.6119 19.5 20.75 19.5H23.25C23.3881 19.5 23.5 19.6119 23.5 19.75V22.25C23.5 22.3881 23.3881 22.5 23.25 22.5H20.75C20.6119 22.5 20.5 22.3881 20.5 22.25V19.75Z" fill="#7D8198"/>
<path d="M3.75 15C3.33579 15 3 15.3358 3 15.75C3 16.1642 3.33579 16.5 3.75 16.5H24.25C24.6642 16.5 25 16.1642 25 15.75C25 15.3358 24.6642 15 24.25 15H3.75Z" fill="#7D8198"/>
</svg>
