<svg width="28" height="28" viewBox="0 0 28 28" fill="none" xmlns="http://www.w3.org/2000/svg">
<path fill-rule="evenodd" clip-rule="evenodd" d="M4 7.75C4 6.23122 5.23122 5 6.75 5H21.25C22.7688 5 24 6.23122 24 7.75V20.25C24 21.7688 22.7688 23 21.25 23H6.75C5.23122 23 4 21.7688 4 20.25V7.75ZM6.75 6.5C6.05964 6.5 5.5 7.05964 5.5 7.75V13.25H13.25V6.5H6.75ZM13.25 14.75H5.5V20.25C5.5 20.9404 6.05964 21.5 6.75 21.5H13.25V14.75ZM14.75 14.75H22.5V20.25C22.5 20.9404 21.9404 21.5 21.25 21.5H14.75V14.75ZM22.5 13.25H14.75V6.5H21.25C21.9404 6.5 22.5 7.05964 22.5 7.75V13.25Z" fill="#21C17B"/>
</svg>
