<svg width="28" height="28" viewBox="0 0 28 28" fill="none" xmlns="http://www.w3.org/2000/svg">
<path fill-rule="evenodd" clip-rule="evenodd" d="M6.75 6C5.7835 6 5 6.7835 5 7.75V11.2515C5 12.218 5.7835 13.0015 6.75 13.0015H21.25C22.2165 13.0015 23 12.218 23 11.2515V7.75C23 6.7835 22.2165 6 21.25 6H6.75ZM6.5 7.75C6.5 7.61193 6.61193 7.5 6.75 7.5H21.25C21.3881 7.5 21.5 7.61193 21.5 7.75V11.2515C21.5 11.3895 21.3881 11.5015 21.25 11.5015H6.75C6.61193 11.5015 6.5 11.3895 6.5 11.2515V7.75ZM6.75 15C5.7835 15 5 15.7835 5 16.75V20.25C5 21.2165 5.7835 22 6.75 22H21.25C22.2165 22 23 21.2165 23 20.25V16.75C23 15.7835 22.2165 15 21.25 15H6.75ZM6.5 16.75C6.5 16.6119 6.61193 16.5 6.75 16.5H21.25C21.3881 16.5 21.5 16.6119 21.5 16.75V20.25C21.5 20.3881 21.3881 20.5 21.25 20.5H6.75C6.61193 20.5 6.5 20.3881 6.5 20.25V16.75Z" fill="#FD77F6"/>
</svg>
