<svg width="28" height="28" viewBox="0 0 28 28" fill="none" xmlns="http://www.w3.org/2000/svg">
<path fill-rule="evenodd" clip-rule="evenodd" d="M9.99872 4C9.71484 4 9.45529 4.16028 9.32815 4.41409L8.53558 5.99631H5.74872C4.22994 5.99631 2.99872 7.22752 2.99872 8.74631V19.25C2.99872 20.7688 4.22994 22 5.74872 22H13.9987H22.2487C23.7675 22 24.9987 20.7688 24.9987 19.25V8.75C24.9987 7.23122 23.7675 6 22.2487 6H19.4622L18.6695 4.41459C18.5425 4.1605 18.2828 4 17.9987 4H9.99872ZM13.9987 22C10.685 22 7.99872 19.3137 7.99872 16C7.99872 12.6863 10.685 10 13.9987 10C17.3124 10 19.9987 12.6863 19.9987 16C19.9987 19.3137 17.3124 22 13.9987 22ZM18.4987 16C18.4987 13.5147 16.484 11.5 13.9987 11.5C11.5134 11.5 9.49872 13.5147 9.49872 16C9.49872 18.4853 11.5134 20.5 13.9987 20.5C16.484 20.5 18.4987 18.4853 18.4987 16ZM12.7487 7C12.3345 7 11.9987 7.33579 11.9987 7.75C11.9987 8.16421 12.3345 8.5 12.7487 8.5H15.2487C15.6629 8.5 15.9987 8.16421 15.9987 7.75C15.9987 7.33579 15.6629 7 15.2487 7H12.7487Z" fill="#7D8198"/>
</svg>
