<svg width="28" height="28" viewBox="0 0 28 28" fill="none" xmlns="http://www.w3.org/2000/svg">
<path d="M9.72363 18.0049C9.89538 18.0049 10.0557 18.0925 10.1484 18.2363L14.0078 24.2383C14.221 24.5698 13.9834 25.0028 13.5879 25.0029H10.7715C10.5996 25.0029 10.4394 24.9156 10.3467 24.7715L6.4873 18.7705C6.27411 18.439 6.5118 18.0051 6.90723 18.0049H9.72363Z" fill="#7D8198"/>
<path d="M23 3.00293C23.5522 3.00298 24 3.45068 24 4.00293V19.0088C24 19.561 23.5522 20.0087 23 20.0088H22.5C22.4587 20.0088 22.4179 20.0049 22.3779 20C20.5233 19.9794 20.2203 19.7579 18 18.0049C16.3414 16.6954 14.2052 16.2438 12.9805 16.0879C12.4381 16.0186 12 15.5663 12 15.0195V8.95605C12 8.42225 12.4182 7.97697 12.9463 7.89941C14.1651 7.72094 16.3259 7.24379 18 6.00098C20.2955 4.29677 20.5302 3.17145 22.3135 3.02051C22.3739 3.00912 22.4363 3.00294 22.5 3.00293H23Z" fill="#7D8198"/>
<path d="M9 8.00195C9.55228 8.00195 10 8.44967 10 9.00195V15.0049C9.99986 15.557 9.5522 16.0049 9 16.0049H6.5C5.11938 16.0049 4.00014 14.8855 4 13.5049V10.502C4 9.12124 5.11929 8.00195 6.5 8.00195H9Z" fill="#7D8198"/>
</svg>
