<svg width="28" height="28" viewBox="0 0 28 28" fill="none" xmlns="http://www.w3.org/2000/svg">
<path d="M21.4875 8.98744C22.1709 8.30402 22.1709 7.19598 21.4875 6.51256C20.8041 5.82915 19.696 5.82914 19.0126 6.51256L14 11.5251L8.98749 6.51268C8.30407 5.82926 7.19603 5.82927 6.51262 6.51269C5.8292 7.19611 5.82921 8.30415 6.51263 8.98757L11.5251 14L6.51256 19.0126C5.82915 19.696 5.82914 20.804 6.51256 21.4874C7.19598 22.1709 8.30402 22.1709 8.98744 21.4874L14 16.4749L19.0126 21.4874C19.6961 22.1709 20.8041 22.1709 21.4875 21.4874C22.1709 20.804 22.1709 19.696 21.4875 19.0126L16.4749 14L21.4875 8.98744Z" fill="#7D8198"/>
</svg>
