<svg width="28" height="28" viewBox="0 0 28 28" fill="none" xmlns="http://www.w3.org/2000/svg">
<path d="M6.42801 15.3234C6.2101 15.5412 6.04667 15.8134 5.94861 16.1074C5.85054 16.4014 4.04187 21.8785 4.04187 21.8785C3.94381 22.1833 4.02008 22.5209 4.24888 22.7496C4.41232 22.9129 4.63023 23 4.85904 23C4.94621 23 5.04427 22.9891 5.13143 22.9564L10.9061 21.0509C11.2003 20.9529 11.4727 20.7896 11.6906 20.5718L20.2764 11.9914L15.0029 6.74302L6.42801 15.3234Z" fill="#7D8198"/>
<path d="M22.9132 4.08616C21.464 2.63795 19.1215 2.63795 17.6724 4.08616L16.1688 5.58881L21.4096 10.8263L22.9132 9.32367C24.3623 7.87546 24.3623 5.53437 22.9132 4.08616Z" fill="#7D8198"/>
</svg>
