<svg width="28" height="28" viewBox="0 0 28 28" fill="none" xmlns="http://www.w3.org/2000/svg">
<path fill-rule="evenodd" clip-rule="evenodd" d="M13.7 24.94C13.8 24.98 13.9 25 14 25C14.1 25 14.2 24.98 14.3 24.94C21.87 21.65 23 16.17 23 13.2V7.75C23 7.34 22.66 7 22.25 7C18.2893 7 14.6342 3.32467 14.5415 3.23148L14.54 3.23C14.39 3.08 14.2 3.01 13.99 3C13.79 3 13.59 3.09 13.45 3.24C13.42 3.28 9.94 7 5.75 7C5.34 7 5 7.34 5 7.75V13.19C5 16.17 6.13 21.65 13.7 24.94ZM14.0005 11.0039C14.5528 11.0039 15.0005 10.5562 15.0005 10.0039C15.0005 9.45162 14.5528 9.00391 14.0005 9.00391C13.4482 9.00391 13.0005 9.45162 13.0005 10.0039C13.0005 10.5562 13.4482 11.0039 14.0005 11.0039ZM13.2505 12.75C13.2505 12.3358 13.5863 12 14.0005 12C14.4147 12 14.7505 12.3358 14.7505 12.75V18.25C14.7505 18.6642 14.4147 19 14.0005 19C13.5863 19 13.2505 18.6642 13.2505 18.25V12.75Z" fill="#7D8198"/>
</svg>
