<svg width="28" height="28" viewBox="0 0 28 28" fill="none" xmlns="http://www.w3.org/2000/svg">
<path fill-rule="evenodd" clip-rule="evenodd" d="M25 14C25 7.92487 20.0751 3 14 3C7.92487 3 3 7.92487 3 14C3 20.0751 7.92487 25 14 25C20.0751 25 25 20.0751 25 14ZM14.5504 6.23972C14.4085 6.08688 14.2094 6.00002 14.0008 6C13.7923 5.99998 13.5931 6.08679 13.4512 6.2396L10.2005 9.7396C9.91858 10.0431 9.9361 10.5177 10.2396 10.7995C10.5431 11.0814 11.0177 11.0639 11.2995 10.7604L13.2467 8.66392L13.2467 19.3361L11.2995 17.2396C11.0177 16.9361 10.5431 16.9186 10.2396 17.2005C9.9361 17.4823 9.91858 17.9569 10.2005 18.2604L13.4512 21.7604C13.5931 21.9132 13.7923 22 14.0008 22C14.2094 22 14.4085 21.9131 14.5504 21.7603L17.7997 18.2603C18.0815 17.9567 18.0638 17.4822 17.7603 17.2003C17.4567 16.9185 16.9822 16.9362 16.7004 17.2397L14.7467 19.3441L14.7467 8.65588L16.7004 10.7603C16.9822 11.0638 17.4567 11.0815 17.7603 10.7997C18.0638 10.5178 18.0815 10.0433 17.7997 9.73972L14.5504 6.23972Z" fill="#7D8198"/>
</svg>
