<svg width="28" height="28" viewBox="0 0 28 28" fill="none" xmlns="http://www.w3.org/2000/svg">
<path fill-rule="evenodd" clip-rule="evenodd" d="M11.5369 5.51967C12.5499 3.49165 15.4438 3.49145 16.4571 5.51932L23.7033 20.0208C24.617 21.8493 23.2873 24.0001 21.2433 24.0001H6.75354C4.70972 24.0001 3.38008 21.8496 4.29338 20.0212L11.5369 5.51967ZM13.2456 10.7512C13.2456 10.3363 13.5819 10 13.9968 10C14.4117 10 14.748 10.3363 14.748 10.7512V16.2447C14.748 16.6595 14.4117 16.9959 13.9968 16.9959C13.5819 16.9959 13.2456 16.6595 13.2456 16.2447V10.7512ZM14.9984 19.0038C14.9984 19.5558 14.55 20.0032 13.9968 20.0032C13.4436 20.0032 12.9952 19.5558 12.9952 19.0038C12.9952 18.4518 13.4436 18.0044 13.9968 18.0044C14.55 18.0044 14.9984 18.4518 14.9984 19.0038Z" fill="#7D8198"/>
</svg>
