<svg width="28" height="28" viewBox="0 0 28 28" fill="none" xmlns="http://www.w3.org/2000/svg">
<path fill-rule="evenodd" clip-rule="evenodd" d="M19.5 12.002C19.7943 12.0021 20.0621 12.1743 20.1836 12.4424L24.9336 22.9365C25.1043 23.3137 24.9366 23.7587 24.5596 23.9297C24.1823 24.1004 23.7383 23.9328 23.5674 23.5557L21.7314 19.499H17.2715L15.4365 23.5586C15.266 23.9357 14.8216 24.1036 14.4443 23.9336C14.0669 23.7629 13.8987 23.3178 14.0693 22.9404L18.8174 12.4434L18.8691 12.3467C19.0056 12.1342 19.2425 12.0021 19.5 12.002ZM17.9502 17.999H21.0518L19.5 14.5703L17.9502 17.999Z" fill="#7D8198"/>
<path d="M10 4C10.4142 4 10.75 4.33579 10.75 4.75V6H16.25C16.6642 6 17 6.33579 17 6.75C17 7.16421 16.6642 7.5 16.25 7.5H13.9805C13.818 9.79703 12.5641 12.0762 10.9395 13.7979C10.5397 14.2214 10.1075 14.6179 9.65527 14.9805C10.8693 16.4803 12.3269 17.227 13.4414 17.5254C13.8411 17.6328 14.0787 18.0445 13.9717 18.4443C13.8645 18.8442 13.4526 19.0815 13.0527 18.9746C11.6184 18.5905 9.85234 17.6459 8.42383 15.8438C7.23595 16.5591 5.96556 17 4.74512 17C4.3309 17 3.99512 16.6642 3.99512 16.25C3.99512 15.8358 4.3309 15.5 4.74512 15.5C5.61766 15.5 6.6037 15.1753 7.58105 14.5996C6.85433 13.3445 6.28519 11.7836 6.00586 9.85742C5.94652 9.44756 6.23075 9.06725 6.64062 9.00781C7.05025 8.94885 7.43083 9.23292 7.49023 9.64258C7.73249 11.3129 8.20958 12.6575 8.8125 13.7334C9.16839 13.4411 9.51695 13.1191 9.84863 12.7676C11.2938 11.236 12.3122 9.31524 12.4746 7.5H3.75C3.33579 7.5 3 7.16421 3 6.75C3 6.33579 3.33579 6 3.75 6H9.25V4.75C9.25 4.33579 9.58579 4 10 4Z" fill="#7D8198"/>
</svg>
