<svg width="28" height="28" viewBox="0 0 28 28" fill="none" xmlns="http://www.w3.org/2000/svg">
    <path fill-rule="evenodd" clip-rule="evenodd"
        d="M4.24769 11.2168C4.02796 11.2901 3.8759 11.4909 3.865 11.7223C3.85411 11.9536 3.98662 12.1679 4.19849 12.2614L10.272 14.9436C10.454 15.024 10.6649 15.0019 10.8262 14.8856L16.1805 11.0266L16.1805 11.0266C16.2582 10.9706 16.3189 10.9642 16.3637 10.9698C16.4163 10.9763 16.4759 11.0037 16.5266 11.0544C16.5773 11.1051 16.6047 11.1647 16.6112 11.2173C16.6167 11.2621 16.6104 11.3228 16.5544 11.4004L16.5544 11.4005L12.6951 16.7544C12.5788 16.9158 12.5567 17.1267 12.637 17.3087L15.3192 23.3822C15.4128 23.594 15.6271 23.7266 15.8584 23.7157C16.0898 23.7048 16.2906 23.5527 16.3638 23.333L22.0674 6.22235C22.1345 6.02092 22.0821 5.79884 21.932 5.6487C21.7818 5.49856 21.5597 5.44613 21.3583 5.51328L4.24769 11.2168Z"
        fill="#BCBED2" />
</svg>
