<svg width="28" height="28" viewBox="0 0 28 28" fill="none" xmlns="http://www.w3.org/2000/svg">
<path fill-rule="evenodd" clip-rule="evenodd" d="M4 9.99994V20.25C4 22.3211 5.67893 24 7.75 24H20.25C22.3211 24 24 22.3211 24 20.25V9.99994H4ZM17.3115 17.6133C18.2329 17.1532 18.2328 15.84 17.3115 15.3799L12.8066 13.13C11.9754 12.7149 10.9976 13.3186 10.9976 14.2467L10.9976 18.7464C10.9976 19.6746 11.9755 20.2782 12.8066 19.8632L17.3115 17.6133Z" fill="#7D8198"/>
<path d="M24 7.99994V7.75C24 5.67893 22.3211 4 20.25 4H17.6576L20.5147 7.99994H24Z" fill="#7D8198"/>
<path d="M15.1998 4H9.65758L12.5147 7.99994H18.0569L15.1998 4Z" fill="#7D8198"/>
<path d="M7.22574 4.03636C5.40286 4.29136 4 5.85685 4 7.75V7.99994H10.0569L7.22574 4.03636Z" fill="#7D8198"/>
</svg>
