<svg width="28" height="28" viewBox="0 0 28 28" fill="none" xmlns="http://www.w3.org/2000/svg">
    <path fill-rule="evenodd" clip-rule="evenodd"
        d="M11.4084 9.33871L14.7134 6.59174V21.4084L11.4084 18.6614C10.3759 17.8032 9.07563 17.3334 7.73303 17.3334H5.83333C5.44206 17.3334 5.125 17.0163 5.125 16.6251V11.3751C5.125 10.9838 5.44206 10.6667 5.83333 10.6667H7.73303C9.07563 10.6667 10.3759 10.1969 11.4084 9.33871ZM16.2134 6.0288C16.2134 4.96216 14.9557 4.39955 14.1606 5.10072L10.4496 8.18515C9.68646 8.81946 8.72539 9.16672 7.73303 9.16672H5.83333C4.61363 9.16672 3.625 10.1554 3.625 11.3751V16.6251C3.625 17.8448 4.61363 18.8334 5.83333 18.8334H7.73303C8.72539 18.8334 9.68646 19.1806 10.4496 19.815L14.1606 22.8994C14.9557 23.6005 16.2134 23.0379 16.2134 21.9713V6.0288ZM20.0688 10.7431C19.8808 10.374 19.4293 10.2271 19.0601 10.415C18.691 10.6029 18.5441 11.0545 18.732 11.4237C19.1437 12.2324 19.3796 13.1425 19.3796 14.1085C19.3796 15.0744 19.1437 15.9845 18.732 16.7933C18.5441 17.1624 18.691 17.614 19.0601 17.8019C19.4293 17.9898 19.8808 17.8429 20.0688 17.4738C20.5826 16.4645 20.8796 15.3222 20.8796 14.1085C20.8796 12.8947 20.5826 11.7524 20.0688 10.7431Z"
        fill="#BCBED2" />
</svg>
