<svg width="28" height="28" viewBox="0 0 28 28" fill="none" xmlns="http://www.w3.org/2000/svg">
<path fill-rule="evenodd" clip-rule="evenodd" d="M25 14C25 7.92487 20.0751 3 14 3C7.92487 3 3 7.92487 3 14C3 20.0751 7.92487 25 14 25C20.0751 25 25 20.0751 25 14ZM6.23972 13.4496C6.08688 13.5915 6.00002 13.7906 6 13.9992C5.99998 14.2077 6.08679 14.4069 6.2396 14.5488L9.7396 17.7995C10.0431 18.0814 10.5177 18.0639 10.7995 17.7604C11.0814 17.4569 11.0639 16.9823 10.7604 16.7005L8.66392 14.7533L19.3361 14.7533L17.2396 16.7005C16.9361 16.9823 16.9186 17.4569 17.2005 17.7604C17.4823 18.0639 17.9569 18.0814 18.2604 17.7995L21.7604 14.5488C21.9132 14.4069 22 14.2077 22 13.9992C22 13.7906 21.9131 13.5915 21.7603 13.4496L18.2603 10.2003C17.9567 9.91853 17.4822 9.93615 17.2003 10.2397C16.9185 10.5433 16.9362 11.0178 17.2397 11.2996L19.3441 13.2533L8.65588 13.2533L10.7603 11.2996C11.0638 11.0178 11.0815 10.5433 10.7997 10.2397C10.5178 9.93615 10.0433 9.91853 9.73972 10.2003L6.23972 13.4496Z" fill="#7D8198"/>
</svg>
