<svg width="28" height="28" viewBox="0 0 28 28" fill="none" xmlns="http://www.w3.org/2000/svg">
    <path fill-rule="evenodd" clip-rule="evenodd"
        d="M4.6665 13.9994C4.6665 8.8452 8.84531 4.66663 13.9998 4.66663C19.1544 4.66663 23.3332 8.8452 23.3332 13.9994C23.3332 19.1536 19.1544 23.3322 13.9998 23.3322C12.3536 23.3322 10.8088 22.9019 9.46585 22.1538L5.30773 23.3141C4.92885 23.42 4.58023 23.0709 4.68618 22.6925L5.84704 18.5367C5.09735 17.1928 4.6665 15.647 4.6665 13.9994ZM10.2082 15.1666C10.8525 15.1666 11.3748 14.6443 11.3748 14C11.3748 13.3556 10.8525 12.8333 10.2082 12.8333C9.56384 12.8333 9.0415 13.3556 9.0415 14C9.0415 14.6443 9.56384 15.1666 10.2082 15.1666ZM15.1665 14C15.1665 14.6443 14.6442 15.1666 13.9998 15.1666C13.3555 15.1666 12.8332 14.6443 12.8332 14C12.8332 13.3556 13.3555 12.8333 13.9998 12.8333C14.6442 12.8333 15.1665 13.3556 15.1665 14ZM17.7915 15.1666C18.4358 15.1666 18.9582 14.6443 18.9582 14C18.9582 13.3556 18.4358 12.8333 17.7915 12.8333C17.1472 12.8333 16.6248 13.3556 16.6248 14C16.6248 14.6443 17.1472 15.1666 17.7915 15.1666Z"
        fill="#BCBED2" />
</svg>
