<svg width="28" height="28" viewBox="0 0 28 28" fill="none" xmlns="http://www.w3.org/2000/svg">
<path d="M8.75 3C7.23122 3 6 4.23122 6 5.75V19.1892L9.96967 15.2196C10.1979 14.9913 10.5467 14.9347 10.8354 15.0791L17.3637 18.3433L22 13.9177V11H15.75C14.7835 11 14 10.2165 14 9.25V3H8.75Z" fill="#7D8198"/>
<path d="M22 15.9914L18.0179 19.7925C17.789 20.011 17.4476 20.0623 17.1646 19.9208L10.6481 16.6625L6.00064 21.3099C6.03251 22.801 7.25124 24 8.75 24H19.25C20.7688 24 22 22.7688 22 21.25V15.9914Z" fill="#7D8198"/>
<path d="M21.1945 8.63388C21.4456 8.88496 21.6431 9.17958 21.7797 9.5H15.75C15.6119 9.5 15.5 9.38807 15.5 9.25V3.22028C15.8204 3.35687 16.115 3.55438 16.3661 3.80546L21.1945 8.63388Z" fill="#7D8198"/>
</svg>
