<svg width="28" height="28" viewBox="0 0 28 28" fill="none" xmlns="http://www.w3.org/2000/svg">
<path fill-rule="evenodd" clip-rule="evenodd" d="M14.8041 3C15.5752 3 16.2 3.6248 16.2 4.3959V4.397C16.2 5.0317 16.6356 5.5773 17.2285 5.8116C17.3219 5.84886 17.4147 5.88773 17.5068 5.9282C18.092 6.1823 18.785 6.1053 19.236 5.6543C19.4978 5.39273 19.8527 5.2458 20.2227 5.2458C20.5927 5.2458 20.9476 5.39273 21.2094 5.6543L22.3468 6.7917C22.6084 7.05345 22.7553 7.40836 22.7553 7.7784C22.7553 8.14844 22.6084 8.50335 22.3468 8.7651C21.8969 9.2161 21.8199 9.9102 22.0729 10.4943C22.113 10.5864 22.1515 10.6792 22.1884 10.7726C22.4227 11.3655 22.9683 11.8011 23.6041 11.8011C24.3752 11.8011 25 12.4259 25 13.197V14.8041C25 15.5752 24.3752 16.2 23.6041 16.2C22.9683 16.2 22.4227 16.6356 22.1895 17.2285C22.1521 17.322 22.1136 17.4155 22.0729 17.5068C21.8188 18.092 21.8958 18.785 22.3468 19.236C22.6084 19.4978 22.7553 19.8527 22.7553 20.2227C22.7553 20.5927 22.6084 20.9476 22.3468 21.2094L21.2094 22.3468C21.0798 22.4765 20.9259 22.5794 20.7565 22.6495C20.5871 22.7197 20.4055 22.7558 20.2222 22.7558C20.0388 22.7558 19.8572 22.7197 19.6878 22.6495C19.5184 22.5794 19.3645 22.4765 19.2349 22.3468C18.785 21.8969 18.0909 21.8188 17.5068 22.074C17.4155 22.1136 17.322 22.1521 17.2285 22.1884C16.6356 22.4227 16.2 22.9683 16.2 23.6041C16.2 24.3752 15.5752 25 14.8041 25H13.1959C12.4248 25 11.8 24.3752 11.8 23.6041C11.8 22.9683 11.3644 22.4227 10.7715 22.1895C10.678 22.1521 10.5845 22.1136 10.4932 22.0729C9.908 21.8188 9.215 21.8958 8.764 22.3468C8.50225 22.6084 8.14734 22.7553 7.7773 22.7553C7.40726 22.7553 7.05235 22.6084 6.7906 22.3468L5.6532 21.2094C5.39163 20.9476 5.2447 20.5927 5.2447 20.2227C5.2447 19.8527 5.39163 19.4978 5.6532 19.236C6.1031 18.785 6.1801 18.0909 5.926 17.5068L5.9176 17.4869C5.88176 17.4019 5.84519 17.3152 5.8105 17.2285C5.5773 16.6356 5.0317 16.2 4.3959 16.2C3.6248 16.2 3 15.5752 3 14.8041V13.1959C3 12.4248 3.6248 11.8 4.3959 11.8C5.0317 11.8 5.5773 11.3644 5.8105 10.7715C5.8474 10.6781 5.8859 10.5853 5.926 10.4932C6.1812 9.908 6.1042 9.215 5.6532 8.764C5.39163 8.50225 5.2447 8.14734 5.2447 7.7773C5.2447 7.40726 5.39163 7.05235 5.6532 6.7906L6.7906 5.6532C7.05235 5.39163 7.40726 5.2447 7.7773 5.2447C8.14734 5.2447 8.50225 5.39163 8.764 5.6532C9.215 6.1031 9.9091 6.1801 10.4932 5.9271C10.5845 5.8875 10.678 5.8479 10.7715 5.8105C11.3644 5.5773 11.8 5.0317 11.8 4.3959C11.8 3.6248 12.4248 3 13.197 3H14.8041ZM14 10C16.2091 10 18 11.7909 18 14C18 16.2091 16.2091 18 14 18C11.7909 18 10 16.2091 10 14C10 11.7909 11.7909 10 14 10Z" fill="#7D8198"/>
</svg>
