<svg width="28" height="28" viewBox="0 0 28 28" fill="none" xmlns="http://www.w3.org/2000/svg">
<path fill-rule="evenodd" clip-rule="evenodd" d="M4 21.25C4 22.7688 5.23122 24 6.75 24H21.25C22.7688 24 24 22.7688 24 21.25V6.75C24 5.23122 22.7688 4 21.25 4L6.75 4C5.23122 4 4 5.23122 4 6.75L4 21.25ZM9.29724 16.7651C9.01129 17.0647 8.53654 17.0759 8.23687 16.7899C7.9372 16.5039 7.92608 16.0292 8.21204 15.7295L13.4577 10.2322C13.5992 10.084 13.7952 10 14.0002 10C14.2051 9.99996 14.4012 10.0838 14.5427 10.232L19.7924 15.7293C20.0785 16.0289 20.0675 16.5036 19.768 16.7897C19.4684 17.0758 18.9937 17.0648 18.7076 16.7653L14.0005 11.8362L9.29724 16.7651Z" fill="#7D8198"/>
</svg>
