<svg width="28" height="28" viewBox="0 0 28 28" fill="none" xmlns="http://www.w3.org/2000/svg">
<path fill-rule="evenodd" clip-rule="evenodd" d="M7.26517 22.6979C4.67022 20.6857 3 17.5379 3 14C3 7.92487 7.92487 3 14 3C20.0751 3 25 7.92487 25 14C25 14.3689 24.9818 14.7337 24.9464 15.0933C23.7373 14.0978 22.1884 13.5 20.5 13.5C17.9055 13.5 15.6407 14.9115 14.4316 17.0084C14.2907 17.0029 14.1468 17 14 17C9.7972 17 8.05046 19.3396 7.36945 20.8034C9.0813 22.472 11.4206 23.5 14 23.5C14.0578 23.5 14.1154 23.4995 14.1729 23.4985C14.4204 24.0198 14.7304 24.5056 15.0933 24.9464C14.7337 24.9818 14.3689 25 14 25C11.4628 25 9.12617 24.141 7.26517 22.6979ZM18.0288 11C18.0288 13.2091 16.2251 15 14 15C11.775 15 9.97125 13.2091 9.97125 11C9.97125 8.79086 11.775 7 14 7C16.2251 7 18.0288 8.79086 18.0288 11Z" fill="#7D8198"/>
<path fill-rule="evenodd" clip-rule="evenodd" d="M20.5 26C23.5376 26 26 23.5376 26 20.5C26 17.4624 23.5376 15 20.5 15C17.4624 15 15 17.4624 15 20.5C15 23.5376 17.4624 26 20.5 26ZM21.25 17.25C21.25 16.8358 20.9142 16.5 20.5 16.5C20.0858 16.5 19.75 16.8358 19.75 17.25V19.75H17.2497C16.8355 19.75 16.4997 20.0858 16.4997 20.5C16.4997 20.9142 16.8355 21.25 17.2497 21.25H19.75V23.75C19.75 24.1642 20.0858 24.5 20.5 24.5C20.9142 24.5 21.25 24.1642 21.25 23.75V21.25H23.7497C24.1639 21.25 24.4997 20.9142 24.4997 20.5C24.4997 20.0858 24.1639 19.75 23.7497 19.75H21.25V17.25Z" fill="#7D8198"/>
</svg>
