<svg width="28" height="28" viewBox="0 0 28 28" fill="none" xmlns="http://www.w3.org/2000/svg">
<path d="M13.25 5.04382C10.5133 3.44987 7.01287 3.6781 4.49 5.7514C4.18 6.00119 4 6.38089 4 6.78057V21.6886C4 22.7777 5.26 23.3772 6.11 22.6977C8.13 21.0691 11 20.9791 13.09 22.5079C13.1434 22.5479 13.197 22.5881 13.25 22.6277V5.04382Z" fill="#7D8198"/>
<path d="M14.75 22.6288C14.7698 22.6145 14.7898 22.6002 14.8099 22.5858C14.8592 22.5505 14.9092 22.5146 14.96 22.4779C17.02 20.9691 19.85 21.0691 21.83 22.6877C22.67 23.3772 23.92 22.7777 23.93 21.6985L24 6.78057C24 6.38089 23.82 6.00119 23.51 5.7514C20.9871 3.6781 17.4867 3.45822 14.75 5.04598V22.6288Z" fill="#7D8198"/>
</svg>
