<svg width="28" height="28" viewBox="0 0 28 28" fill="none" xmlns="http://www.w3.org/2000/svg">
<path d="M13.7498 4C13.3355 4 12.9998 4.33579 12.9998 4.75C12.9998 5.16421 13.3355 5.5 13.7498 5.5L16.75 5.5L16.75 12.25C16.75 12.6642 17.0858 13 17.5 13C17.9142 13 18.25 12.6642 18.25 12.25L18.25 5.5L21.25 5.5C21.6642 5.5 22 5.16421 22 4.75C22 4.33579 21.6642 4 21.25 4H13.7498Z" fill="#7D8198"/>
<path d="M22.6925 16.1445C23.027 16.3889 23.0999 16.8581 22.8555 17.1926L18.1055 23.6926C17.98 23.8644 17.7873 23.9748 17.5756 23.9962C17.3639 24.0177 17.153 23.9482 16.9955 23.805L14.2455 21.305C13.939 21.0264 13.9164 20.552 14.1951 20.2455C14.4737 19.9391 14.948 19.9165 15.2545 20.1951L17.3869 22.1337L21.6445 16.3075C21.8889 15.9731 22.3581 15.9001 22.6925 16.1445Z" fill="#7D8198"/>
<path d="M7.99909 9.01221C8.08648 9.01221 8.16606 9.06254 8.20351 9.1415L9.57209 12.0271L12.81 12.5522C12.8928 12.5657 12.9613 12.6238 12.9881 12.7032C13.0149 12.7827 12.9956 12.8704 12.9379 12.9313L10.6907 15.3003L11.191 18.7288C11.2034 18.8137 11.1666 18.8984 11.0961 18.9473C11.0255 18.9963 10.9333 19.001 10.8581 18.9597L7.99909 17.3871L5.14009 18.9597C5.06485 19.001 4.97267 18.9963 4.90211 18.9473C4.83155 18.8984 4.79478 18.8137 4.80718 18.7288L5.3075 15.3003L3.06027 12.9313C3.00257 12.8704 2.98324 12.7827 3.01005 12.7032C3.03687 12.6238 3.10543 12.5657 3.1882 12.5522L6.42609 12.0271L7.79467 9.1415C7.83212 9.06254 7.9117 9.01221 7.99909 9.01221Z" fill="#7D8198"/>
</svg>
