<svg width="28" height="28" viewBox="0 0 28 28" fill="none" xmlns="http://www.w3.org/2000/svg">
    <path fill-rule="evenodd" clip-rule="evenodd"
        d="M14.7134 6.59174L11.4084 9.33871C11.1575 9.54724 10.8908 9.73284 10.6116 9.89433L9.49948 8.78224C9.83881 8.62717 10.1586 8.42703 10.4496 8.18515L14.1606 5.10072C14.9557 4.39955 16.2134 4.96216 16.2134 6.0288V15.4962L14.7134 13.9962V6.59174ZM5.64891 9.17431L7.14132 10.6667H5.83333C5.44206 10.6667 5.125 10.9838 5.125 11.3751V16.6251C5.125 17.0163 5.44206 17.3334 5.83333 17.3334H7.73303C9.07563 17.3334 10.3759 17.8032 11.4084 18.6614L14.7134 21.4084V18.2388L16.2134 19.7388V21.9713C16.2134 23.038 14.9557 23.6006 14.1606 22.8994L10.4496 19.815C9.68646 19.1806 8.72539 18.8334 7.73303 18.8334H5.83333C4.61363 18.8334 3.625 17.8448 3.625 16.6251V11.3751C3.625 10.2175 4.51552 9.268 5.64891 9.17431ZM6.25766 6.46972C5.96476 6.17683 5.48989 6.17683 5.197 6.46972C4.9041 6.76261 4.9041 7.23749 5.197 7.53038L17.5276 19.861C17.8205 20.1539 18.2954 20.1539 18.5883 19.861C18.8812 19.5681 18.8812 19.0933 18.5883 18.8004L6.25766 6.46972Z"
        fill="#BCBED2" />
</svg>
