<svg width="28" height="28" viewBox="0 0 28 28" fill="none" xmlns="http://www.w3.org/2000/svg">
<path fill-rule="evenodd" clip-rule="evenodd" d="M4 6.75C4 5.23122 5.23122 4 6.75 4H21.25C22.7688 4 24 5.23122 24 6.75V21.25C24 22.7688 22.7688 24 21.25 24H6.75C5.23122 24 4 22.7688 4 21.25V6.75ZM19.7845 8.21528C20.0774 8.50817 20.0774 8.98304 19.7845 9.27594L16.5605 12.5H19.2473C19.6615 12.5 19.9973 12.8358 19.9973 13.25C19.9973 13.6642 19.6615 14 19.2473 14H14.75C14.5511 14 14.3603 13.921 14.2197 13.7803C14.079 13.6397 14 13.4489 14 13.25V8.74998C14 8.33576 14.3358 7.99998 14.75 7.99998C15.1642 7.99998 15.5 8.33576 15.5 8.74998V11.4391L18.7239 8.21528C19.0168 7.92238 19.4916 7.92238 19.7845 8.21528ZM13.7803 14.2196C13.921 14.3603 14 14.5511 14 14.75L14 19.25C14 19.6642 13.6642 20 13.25 20C12.8358 20 12.5 19.6642 12.5 19.25L12.5 16.5562L9.27722 19.779C8.98432 20.0719 8.50945 20.0719 8.21656 19.779C7.92366 19.4861 7.92366 19.0112 8.21656 18.7183L11.4349 15.5H8.75484C8.34063 15.5 8.00484 15.1642 8.00484 14.75C8.00484 14.3358 8.34063 14 8.75484 14H13.25C13.4489 14 13.6397 14.079 13.7803 14.2196Z" fill="#7D8198"/>
</svg>
