<svg width="28" height="28" viewBox="0 0 28 28" fill="none" xmlns="http://www.w3.org/2000/svg">
<path fill-rule="evenodd" clip-rule="evenodd" d="M25 14C25 20.0751 20.0751 25 14 25C7.92487 25 3 20.0751 3 14C3 7.92487 7.92487 3 14 3C20.0751 3 25 7.92487 25 14ZM9.75006 16.9973C10.1643 16.9973 10.5001 16.6615 10.5001 16.2473L10.5 11.5579L17.7197 18.7776C18.0126 19.0705 18.4875 19.0705 18.7804 18.7776C19.0732 18.4847 19.0732 18.0099 18.7804 17.717L11.5607 10.4973L16.25 10.4973C16.6642 10.4973 17 10.1615 17 9.74733C17 9.33312 16.6642 8.99733 16.25 8.99733L9.75 8.99731C9.55109 8.99731 9.36032 9.07633 9.21967 9.21699C9.07902 9.35764 9 9.54841 9 9.74732L9.00005 16.2473C9.00006 16.6615 9.33585 16.9973 9.75006 16.9973Z" fill="#7D8198"/>
</svg>
