<svg width="28" height="28" viewBox="0 0 28 28" fill="none" xmlns="http://www.w3.org/2000/svg">
<path d="M21.8378 6.35538L22.187 8.75667L22.7436 12.5945L22.9727 14.1596C23.2019 15.7033 21.9579 17.0754 20.3319 17.0754H14.2319C13.719 17.0754 13.4462 17.5793 13.6535 18.0295C14.1882 19.2409 14.4938 20.2271 14.7557 21.4385C14.8975 22.0924 14.9958 22.5641 14.9958 22.9608C14.9958 23.8184 14.6575 24.3651 14.2755 24.7296C13.6644 25.287 12.7587 24.9118 12.2677 24.2472C10.9582 22.4676 8.36102 19.0051 7.06244 17.8366C5.82934 16.711 5 15.2423 5 13.6021V9.39988C5 5.86226 7.97909 3 11.6566 3H17.8766C19.8954 3 21.5869 4.44721 21.8378 6.3661V6.35538Z" fill="#7D8198"/>
</svg>
