<svg width="28" height="28" viewBox="0 0 28 28" fill="none" xmlns="http://www.w3.org/2000/svg">
<path d="M6.62382 4C5.748 4 5.00704 4.64746 4.88962 5.51537L4.01021 12.0154C3.86813 13.0655 4.68467 14 5.74441 14H22.2556C23.3153 14 24.1319 13.0655 23.9898 12.0154L23.1104 5.51537C22.993 4.64746 22.252 4 21.3762 4H6.62382Z" fill="#FC856D"/>
<path fill-rule="evenodd" clip-rule="evenodd" d="M4 18.25C4 17.8358 4.33579 17.5 4.75 17.5H23.25C23.6642 17.5 24 17.8358 24 18.25C24 18.6642 23.6642 19 23.25 19H4.75C4.33579 19 4 18.6642 4 18.25Z" fill="#FC856D"/>
<path fill-rule="evenodd" clip-rule="evenodd" d="M4 23.25C4 22.8358 4.33579 22.5 4.75 22.5H23.25C23.6642 22.5 24 22.8358 24 23.25C24 23.6642 23.6642 24 23.25 24H4.75C4.33579 24 4 23.6642 4 23.25Z" fill="#FC856D"/>
</svg>
