<svg width="28" height="28" viewBox="0 0 28 28" fill="none" xmlns="http://www.w3.org/2000/svg">
<path fill-rule="evenodd" clip-rule="evenodd" d="M4 6.75C4 5.23122 5.23122 4 6.75 4H21.25C22.7688 4 24 5.23122 24 6.75V21.25C24 22.7688 22.7688 24 21.25 24H6.75C5.23122 24 4 22.7688 4 21.25V6.75ZM8.75 9C8.33579 9 8 9.33579 8 9.75C8 10.1642 8.33579 10.5 8.75 10.5H17.25C17.6642 10.5 18 10.1642 18 9.75C18 9.33579 17.6642 9 17.25 9H8.75ZM19.25 14.5L8.75 14.5C8.33579 14.5001 8 14.1643 8 13.7501C8 13.3358 8.33578 13.0001 8.75 13L19.25 13C19.6642 13 20 13.3358 20 13.75C20 14.1642 19.6642 14.5 19.25 14.5ZM8.75 17C8.33579 17 8 17.3358 8 17.75C8 18.1642 8.33579 18.5 8.75 18.5H17.25C17.6642 18.5 18 18.1642 18 17.75C18 17.3358 17.6642 17 17.25 17H8.75Z" fill="#7D8198"/>
</svg>
