<svg width="28" height="28" viewBox="0 0 28 28" fill="none" xmlns="http://www.w3.org/2000/svg">
<path fill-rule="evenodd" clip-rule="evenodd" d="M19.2149 15.8378C18.8459 16.2364 18.582 16.5214 18.582 16.7632L18.5818 17.9976C18.5817 18.5498 18.134 18.9974 17.5818 18.9974H10.4182C9.86601 18.9974 9.41832 18.5498 9.41822 17.9976L9.41801 16.7632C9.41801 16.5214 9.15413 16.2364 8.78509 15.8378C7.92691 14.911 6.5 13.37 6.5 10.3284C6.5 6.21103 10.2684 3 14 3C17.7316 3 21.5 6.21103 21.5 10.3284C21.5 13.37 20.0731 14.911 19.2149 15.8378ZM15 5C14.4477 5 14 5.44772 14 6C14 6.55228 14.4477 7 15 7C15.4248 7 15.9332 7.22245 16.3554 7.64461C16.7775 8.06676 17 8.57523 17 9C17 9.55228 17.4477 10 18 10C18.5523 10 19 9.55228 19 9C19 7.92477 18.4725 6.93324 17.7696 6.23039C17.0668 5.52755 16.0752 5 15 5Z" fill="#7D8198"/>
<path d="M15.4142 24.5607C15.7893 24.2794 16 23.8978 16 23.5H12C12 23.8978 12.2107 24.2794 12.5858 24.5607C12.9609 24.842 13.4696 25 14 25C14.5304 25 15.0391 24.842 15.4142 24.5607Z" fill="#7D8198"/>
<path d="M10.25 21.25C10.25 20.8358 10.5858 20.5 11 20.5L17 20.5C17.4142 20.5 17.75 20.8358 17.75 21.25C17.75 21.6642 17.4142 22 17 22L11 22C10.5858 22 10.25 21.6642 10.25 21.25Z" fill="#7D8198"/>
</svg>
