<svg width="28" height="28" viewBox="0 0 28 28" fill="none" xmlns="http://www.w3.org/2000/svg">
<path fill-rule="evenodd" clip-rule="evenodd" d="M16.5498 5.23745L12.9234 6.10484L16.3704 8.36498L19.9969 7.49759L16.5498 5.23745ZM22.0013 7.01817L22.3179 6.94244C22.8551 6.81396 23.1861 6.27443 23.0574 5.73737L22.8242 4.76492C22.6955 4.22786 22.1557 3.89663 21.6185 4.0251L18.5542 4.75803L22.0013 7.01817ZM7.08166 7.50207L10.9189 6.58427L14.366 8.84441L10.5287 9.76222L7.08166 7.50207ZM5.07722 7.9815L4.35545 8.15414C3.81831 8.28261 3.48726 8.82214 3.61601 9.3592L3.84915 10.3316C3.86883 10.4138 3.89813 10.4911 3.93555 10.5626V12.9986H3.93359V21.2486C3.93359 22.7674 5.16481 23.9986 6.68359 23.9986H21.1836C22.7024 23.9986 23.9336 22.7674 23.9336 21.2486V12.9986V10.4986C23.9336 10.2225 23.7097 9.99864 23.4336 9.99864H22.1273L19.1273 12.9986H22.4336V21.2486C22.4336 21.939 21.8739 22.4986 21.1836 22.4986H6.68359C5.99324 22.4986 5.43359 21.939 5.43359 21.2486V12.9986H5.43611L7.91143 10.5233L7.91016 10.5234L8.03288 10.4019L8.089 10.3458L8.0897 10.3456L8.32422 10.1133L8.12075 9.97706L5.07722 7.9815ZM11.3479 12.9986H7.55744L10.5574 9.99864H14.3479L11.3479 12.9986ZM13.4693 12.9986L16.4693 9.99864H20.006L17.006 12.9986H13.4693Z" fill="white"/>
</svg>
