<svg width="28" height="28" viewBox="0 0 28 28" fill="none" xmlns="http://www.w3.org/2000/svg">
<path fill-rule="evenodd" clip-rule="evenodd" d="M6.75 19C5.23122 19 4 17.7688 4 16.25V7.75C4 6.23122 5.23122 5 6.75 5H21.25C22.7688 5 24 6.23122 24 7.75V16.25C24 17.7688 22.7688 19 21.25 19H17V21.5H18.25C18.6642 21.5 19 21.8358 19 22.25C19 22.6642 18.6642 23 18.25 23H9.75C9.33579 23 9 22.6642 9 22.25C9 21.8358 9.33579 21.5 9.75 21.5H11V19H6.75ZM5.5 16.25C5.5 16.9404 6.05964 17.5 6.75 17.5H21.25C21.9404 17.5 22.5 16.9404 22.5 16.25V7.75C22.5 7.05964 21.9404 6.5 21.25 6.5L6.75 6.5C6.05964 6.5 5.5 7.05964 5.5 7.75L5.5 16.25Z" fill="#7D8198"/>
</svg>
