<svg width="28" height="28" viewBox="0 0 28 28" fill="none" xmlns="http://www.w3.org/2000/svg">
    <path fill-rule="evenodd" clip-rule="evenodd"
        d="M3.79163 10.2083C3.79163 8.43642 5.22805 7 6.99996 7H21C22.7719 7 24.2083 8.43642 24.2083 10.2083V17.7917C24.2083 19.5636 22.7719 21 21 21H6.99996C5.22805 21 3.79163 19.5636 3.79163 17.7917V10.2083ZM6.99996 8.75C6.19454 8.75 5.54163 9.40292 5.54163 10.2083V17.7917C5.54163 18.5971 6.19454 19.25 6.99996 19.25H21C21.8054 19.25 22.4583 18.5971 22.4583 17.7917V10.2083C22.4583 9.40292 21.8054 8.75 21 8.75H6.99996Z"
        fill="#C1C2D9" />
</svg>
