<svg width="28" height="28" viewBox="0 0 28 28" fill="none" xmlns="http://www.w3.org/2000/svg">
<path fill-rule="evenodd" clip-rule="evenodd" d="M25 14C25 7.92487 20.0751 3 14 3C7.92487 3 3 7.92487 3 14C3 20.0751 7.92487 25 14 25C20.0751 25 25 20.0751 25 14ZM19.7845 8.21524C20.0774 8.50814 20.0774 8.98301 19.7845 9.2759L16.5605 12.4999H19.2473C19.6615 12.4999 19.9973 12.8357 19.9973 13.2499C19.9973 13.6642 19.6615 13.9999 19.2473 13.9999H14.75C14.5511 13.9999 14.3603 13.9209 14.2197 13.7803C14.079 13.6396 14 13.4489 14 13.2499V8.74994C14 8.33573 14.3358 7.99994 14.75 7.99994C15.1642 7.99994 15.5 8.33573 15.5 8.74994V11.4391L18.7239 8.21524C19.0168 7.92235 19.4916 7.92235 19.7845 8.21524ZM13.7803 14.2196C13.921 14.3603 14 14.551 14 14.7499L14 19.2499C14 19.6642 13.6642 19.9999 13.25 19.9999C12.8358 19.9999 12.5 19.6642 12.5 19.2499L12.5 16.5562L9.27722 19.779C8.98432 20.0719 8.50945 20.0719 8.21656 19.779C7.92366 19.4861 7.92366 19.0112 8.21656 18.7183L11.4349 15.4999H8.75484C8.34063 15.4999 8.00484 15.1642 8.00484 14.7499C8.00484 14.3357 8.34063 13.9999 8.75484 13.9999H13.25C13.4489 13.9999 13.6397 14.079 13.7803 14.2196Z" fill="#7D8198"/>
</svg>
