<svg width="28" height="28" viewBox="0 0 28 28" fill="none" xmlns="http://www.w3.org/2000/svg">
<path fill-rule="evenodd" clip-rule="evenodd" d="M19 12C19 15.866 15.866 19 12 19C8.13401 19 5 15.866 5 12C5 8.13401 8.13401 5 12 5C15.866 5 19 8.13401 19 12ZM19.3846 17.1461C20.4028 15.6877 21 13.9136 21 12C21 7.02944 16.9706 3 12 3C7.02944 3 3 7.02944 3 12C3 16.9706 7.02944 21 12 21C13.9147 21 15.6897 20.4021 17.1486 19.3828L19.4968 22.9053C20.3577 24.1966 22.1848 24.3775 23.2823 23.2801C24.3797 22.1827 24.1988 20.3556 22.9074 19.4947L19.3846 17.1461Z" fill="#7D8198"/>
</svg>
