<svg width="28" height="28" viewBox="0 0 28 28" fill="none" xmlns="http://www.w3.org/2000/svg">
<path d="M22.6423 17.7467C22.4522 17.5065 22.0419 17.3764 21.7416 17.4665C18.149 18.5472 15.2769 16.8561 13.7858 14.8948C12.2947 12.9536 11.414 9.74147 13.3955 6.57942C13.5756 6.28923 13.5656 5.91899 13.3554 5.63881C13.1653 5.38865 12.755 5.25856 12.4548 5.34862C11.1138 5.74888 9.86286 6.45934 8.8421 7.40996C7.77131 8.42061 6.9507 9.69144 6.48036 11.0923C6 12.4933 5.87991 14.0042 6.12009 15.4552C6.36027 16.9161 6.96071 18.297 7.86138 19.4778C8.76204 20.6485 9.94292 21.5892 11.2939 22.1995C12.4648 22.7299 13.7357 23.0001 15.0267 23.0001C15.2168 23.0001 15.417 23.0001 15.6071 22.9801C17.0782 22.88 18.5193 22.4197 19.7802 21.6392C20.9711 20.8987 21.9818 19.878 22.7124 18.6873C22.8725 18.4171 22.8525 17.9868 22.6623 17.7467H22.6423Z" fill="#7D8198"/>
</svg>
