<svg width="28" height="28" viewBox="0 0 28 28" fill="none" xmlns="http://www.w3.org/2000/svg">
<path fill-rule="evenodd" clip-rule="evenodd" d="M5.0346 5.55399C3.56757 5.94721 2.69696 7.45562 3.09005 8.92312L5.54883 18.1024C5.9047 19.4309 7.17425 20.2705 8.49998 20.1258V12.7461C8.49998 10.3981 10.4028 8.49469 12.75 8.49469H18.5044L17.5789 5.03959C17.1859 3.57208 15.6779 2.7012 14.2109 3.09442L5.0346 5.55399ZM9.99998 12.7461C9.99998 11.2268 11.2312 9.99517 12.75 9.99517H22.25C23.7688 9.99517 25 11.2268 25 12.7461V22.2491C25 23.7684 23.7688 25 22.25 25H12.75C11.2312 25 9.99998 23.7684 9.99998 22.2491V12.7461Z" fill="#7D8198"/>
</svg>
