<svg width="28" height="28" viewBox="0 0 28 28" fill="none" xmlns="http://www.w3.org/2000/svg">
<path fill-rule="evenodd" clip-rule="evenodd" d="M3 14C3 7.92487 7.92487 3 14 3C20.0751 3 25 7.92487 25 14C25 20.0751 20.0751 25 14 25C7.92487 25 3 20.0751 3 14ZM17.8713 12.7492L15.2312 10.1481L15.8354 9.54397C16.559 8.82033 17.7322 8.8203 18.4559 9.5439C19.1796 10.2675 19.1797 11.4409 18.456 12.1645L17.8713 12.7492ZM9.97449 15.5551C10.023 15.4083 10.1065 15.2729 10.2162 15.1631L14.1705 11.2088L16.8106 13.8099L12.8372 17.7833C12.7275 17.8933 12.5918 17.9769 12.4444 18.0253L9.55999 18.9806C9.40617 19.0312 9.23776 18.9915 9.12296 18.8771C9.00865 18.7628 8.96845 18.5938 9.01948 18.4404L9.97449 15.5551Z" fill="#7D8198"/>
</svg>
