<svg width="28" height="28" viewBox="0 0 28 28" fill="none" xmlns="http://www.w3.org/2000/svg">
    <path fill-rule="evenodd" clip-rule="evenodd"
        d="M14.75 9.04175C14.75 8.62753 14.4142 8.29175 14 8.29175C13.5858 8.29175 13.25 8.62753 13.25 9.04175V18.9584C13.25 19.3726 13.5858 19.7084 14 19.7084C14.4142 19.7084 14.75 19.3726 14.75 18.9584V9.04175ZM3.5 10.8334C3.5 10.005 4.17157 9.33342 5 9.33342H9.58333C10.4118 9.33342 11.0833 10.005 11.0833 10.8334V17.1668C11.0833 17.9952 10.4118 18.6667 9.58333 18.6667H5C4.17157 18.6667 3.5 17.9952 3.5 17.1667V10.8334ZM16.9167 10.8334C16.9167 10.005 17.5882 9.33342 18.4167 9.33342H23C23.8284 9.33342 24.5 10.005 24.5 10.8334V17.1668C24.5 17.9952 23.8284 18.6667 23 18.6667H18.4167C17.5882 18.6667 16.9167 17.9952 16.9167 17.1667V10.8334Z"
        fill="#BCBED2" />
</svg>
