<svg width="28" height="28" viewBox="0 0 28 28" fill="none" xmlns="http://www.w3.org/2000/svg">
<path fill-rule="evenodd" clip-rule="evenodd" d="M3 14C3 7.92487 7.92487 3 14 3C20.0751 3 25 7.92487 25 14C25 20.0751 20.0751 25 14 25C7.92487 25 3 20.0751 3 14ZM17 12C17.5523 12 18 11.5523 18 11C18 10.4477 17.5523 10 17 10C16.4477 10 16 10.4477 16 11C16 11.5523 16.4477 12 17 12ZM12 11C12 11.5523 11.5523 12 11 12C10.4477 12 10 11.5523 10 11C10 10.4477 10.4477 10 11 10C11.5523 10 12 10.4477 12 11ZM10.4744 15.6131C10.3978 15.2061 10.0057 14.9382 9.59863 15.0148C9.19156 15.0914 8.92367 15.4835 9.00028 15.8906C9.2194 17.0549 9.83839 18.106 10.7503 18.8624C11.6621 19.6188 12.8096 20.0328 13.9943 20.033C15.1791 20.0331 16.3266 19.6194 17.2387 18.8632C18.1508 18.1071 18.77 17.0561 18.9895 15.8919C19.0662 15.4848 18.7984 15.0927 18.3913 15.0159C17.9843 14.9392 17.5921 15.207 17.5154 15.6141C17.3607 16.4347 16.9242 17.1755 16.2814 17.7085C15.6385 18.2414 14.8296 18.5331 13.9945 18.533C13.1594 18.5328 12.3506 18.241 11.7079 17.7079C11.0652 17.1747 10.6289 16.4338 10.4744 15.6131Z" fill="#7D8198"/>
</svg>
