<svg width="28" height="28" viewBox="0 0 28 28" fill="none" xmlns="http://www.w3.org/2000/svg">
<path fill-rule="evenodd" clip-rule="evenodd" d="M6.75 5C4.67893 5 3 6.67893 3 8.75V18.25C3 20.3211 4.67893 22 6.75 22H8V24.5019C8 24.9404 8.52496 25.1665 8.84435 24.8656L11.8858 22H21.25C23.3211 22 25 20.3211 25 18.25V8.75C25 6.67893 23.3211 5 21.25 5H6.75ZM14.306 9.52506C14.0854 9.48663 13.859 9.49246 13.641 9.54213C13.423 9.59178 13.2191 9.68396 13.0413 9.81185C12.8637 9.9397 12.7163 10.1003 12.6069 10.2828C12.4976 10.4652 12.4282 10.6661 12.4019 10.8733C12.383 11.0224 12.3867 11.1731 12.4125 11.3207C12.5077 11.8647 12.1438 12.3829 11.5998 12.4781C11.0558 12.5733 10.5376 12.2094 10.4424 11.6654C10.3822 11.3213 10.3737 10.9697 10.4178 10.6217C10.4791 10.1381 10.6406 9.67294 10.8915 9.2545C11.1422 8.83614 11.4767 8.47378 11.8732 8.18847C12.2696 7.90321 12.72 7.70069 13.1968 7.59208C13.6735 7.48349 14.1676 7.47081 14.6493 7.55475C15.1311 7.6387 15.5914 7.81771 16.0023 8.08195C16.4132 8.34623 16.7663 8.69055 17.039 9.09504C17.3118 9.4996 17.498 9.95552 17.5853 10.4351C17.8136 11.6899 17.2962 12.6221 16.7448 13.2752C16.492 13.5747 16.2128 13.8386 15.9926 14.0468L15.9605 14.0771C15.7109 14.3132 15.5636 14.4583 15.473 14.5797L15.4617 14.5946C15.1767 14.9621 15.0683 15.2315 15.0268 15.3709C15.0083 15.4331 15.0021 15.4731 15.0001 15.4887C15.0066 16.0143 14.6017 16.4601 14.0705 16.4975C13.5196 16.5364 13.0415 16.1212 13.0027 15.5703L13.0025 15.5678L13.0023 15.5652L13.002 15.5597L13.0013 15.5482L13.0003 15.5223C12.9998 15.5037 12.9995 15.4827 12.9999 15.4593C13.0005 15.4123 13.0032 15.3559 13.0099 15.2906C13.0233 15.1597 13.0522 14.9947 13.1097 14.801C13.2251 14.4129 13.4508 13.9257 13.8758 13.376C14.0836 13.0994 14.3564 12.8414 14.5699 12.6395L14.589 12.6214C14.8303 12.3932 15.0376 12.1971 15.2167 11.985C15.5556 11.5836 15.6989 11.2399 15.6176 10.7932C15.5802 10.5875 15.5 10.39 15.3807 10.2131C15.2613 10.036 15.1051 9.88287 14.9204 9.76405C14.7355 9.64518 14.5266 9.5635 14.306 9.52506ZM15.0013 18.5C15.0013 19.0523 14.553 19.5 14.0001 19.5C13.4471 19.5 12.9989 19.0523 12.9989 18.5C12.9989 17.9477 13.4471 17.5 14.0001 17.5C14.553 17.5 15.0013 17.9477 15.0013 18.5Z" fill="#7D8198"/>
</svg>
