<svg width="28" height="28" viewBox="0 0 28 28" fill="none" xmlns="http://www.w3.org/2000/svg">
<path d="M13.9985 3C11.237 3 8.99845 5.23858 8.99845 8V14.5C8.99845 17.2614 11.237 19.5 13.9985 19.5C16.7599 19.5 18.9985 17.2614 18.9985 14.5V8C18.9985 5.23858 16.7599 3 13.9985 3Z" fill="#7D8198"/>
<path d="M14.75 22.9685C18.8172 22.5907 22.0011 19.1685 22.0011 15.0026V13.5032C22.0011 13.089 21.6654 12.7532 21.2511 12.7532C20.8369 12.7532 20.5011 13.089 20.5011 13.5032V15.0026C20.5011 18.5928 17.5907 21.5032 14.0006 21.5032C10.4104 21.5032 7.5 18.5928 7.5 15.0026V13.5032C7.5 13.089 7.16421 12.7532 6.75 12.7532C6.33579 12.7532 6 13.089 6 13.5032V15.0026C6 19.1681 9.18336 22.5901 13.25 22.9684V24.25C13.25 24.6642 13.5858 25 14 25C14.4142 25 14.75 24.6642 14.75 24.25V22.9685Z" fill="#7D8198"/>
</svg>
