<svg width="28" height="28" viewBox="0 0 28 28" fill="none" xmlns="http://www.w3.org/2000/svg">
<path fill-rule="evenodd" clip-rule="evenodd" d="M4 21.25C4 22.7688 5.23122 24 6.75 24H21.25C22.7688 24 24 22.7688 24 21.25V6.75C24 5.23122 22.7688 4 21.25 4L6.75 4C5.23122 4 4 5.23122 4 6.75L4 21.25ZM18.7028 11.2349C18.9887 10.9353 19.4635 10.9241 19.7631 11.2101C20.0628 11.4961 20.0739 11.9708 19.788 12.2705L14.5423 17.7678C14.4008 17.916 14.2048 18 13.9998 18C13.7949 18 13.5988 17.9162 13.4573 17.768L8.20759 12.2707C7.92153 11.9711 7.93246 11.4964 8.23203 11.2103C8.53159 10.9242 9.00634 10.9352 9.29241 11.2347L13.9995 16.1638L18.7028 11.2349Z" fill="#7D8198"/>
</svg>
