<svg width="28" height="28" viewBox="0 0 28 28" fill="none" xmlns="http://www.w3.org/2000/svg">
<path d="M6.99821 6.00488C7.31915 6.00488 7.62073 6.15891 7.80876 6.4191L11.0617 10.9207C11.3852 11.3685 11.2846 11.9941 10.8371 12.3177C10.3896 12.641 9.76408 12.5406 9.4406 12.093L8.00017 10.0992V18.0034C8.0003 19.1083 8.89569 20.0041 10.0002 20.0041H15.0002C15.5524 20.0042 16.0002 20.4521 16.0002 21.0045C16 21.5568 15.5523 22.0048 15.0002 22.0049H10.0002C7.79112 22.0049 6.0003 20.2132 6.00017 18.0034V10.0952L4.55876 12.0921C4.23536 12.5398 3.60992 12.6411 3.16228 12.3177C2.7149 11.9943 2.61458 11.3685 2.93767 10.9207L6.18767 6.4191L6.26286 6.32727C6.45085 6.12319 6.71724 6.00499 6.99821 6.00488Z" fill="#7D8198"/>
<path d="M18.0002 6.00488C20.2092 6.00495 22.0002 7.79644 22.0002 10.0063V17.9155L23.4426 15.9177C23.7659 15.4698 24.3913 15.3685 24.839 15.692C25.2864 16.0156 25.3869 16.6413 25.0636 17.089L21.8136 21.5907L21.7384 21.6825C21.5504 21.8865 21.284 22.0048 21.0031 22.0049C20.6822 22.0049 20.3806 21.8508 20.1926 21.5907L16.9396 17.089C16.6161 16.6413 16.7168 16.0157 17.1642 15.692C17.6118 15.3685 18.2372 15.4691 18.5607 15.9167L20.0002 17.9087V10.0063C20.0002 8.90142 19.1047 8.00569 18.0002 8.00562H13.0002C12.448 8.00562 12.0003 7.55762 12.0002 7.00525C12.0002 6.45276 12.4479 6.00488 13.0002 6.00488H18.0002Z" fill="#7D8198"/>
</svg>
