<svg width="28" height="28" viewBox="0 0 28 28" fill="none" xmlns="http://www.w3.org/2000/svg">
<path fill-rule="evenodd" clip-rule="evenodd" d="M9.82779 5.50464C9.4965 5.50464 9.17877 5.63615 8.94439 5.87027L5.8666 8.9447C5.84863 8.96265 5.83126 8.9811 5.8145 9H22.1855C22.1687 8.9811 22.1514 8.96265 22.1334 8.9447L19.0556 5.87027C18.8212 5.63615 18.5035 5.50464 18.1722 5.50464H9.82779ZM7.88431 4.80903C8.39994 4.29396 9.09896 4.00464 9.82779 4.00464H18.1722C18.901 4.00464 19.6001 4.29396 20.1157 4.80903L23.1935 7.88346C23.7099 8.39927 24 9.0992 24 9.82907V21.2546C24 22.7734 22.7688 24.0046 21.25 24.0046H6.75C5.23122 24.0046 4 22.7734 4 21.2546V9.82907C4 9.0992 4.29014 8.39927 4.80652 7.88346L7.88431 4.80903ZM13.9998 10.9534C14.21 10.9533 14.4106 11.0415 14.5527 11.1965L17.8053 14.7431C18.0852 15.0484 18.0647 15.5228 17.7594 15.8028C17.4542 16.0827 16.9797 16.0622 16.6998 15.7569L14.75 13.6309L14.75 21.25C14.75 21.6642 14.4142 22 14 22C13.5858 22 13.25 21.6642 13.25 21.25L13.25 13.6319L11.3029 15.7567C11.0231 16.0621 10.5487 16.0828 10.2433 15.803C9.93791 15.5231 9.9172 15.0487 10.197 14.7433L13.447 11.1967C13.589 11.0417 13.7896 10.9534 13.9998 10.9534Z" fill="#7D8198"/>
</svg>
