<svg width="28" height="28" viewBox="0 0 28 28" fill="none" xmlns="http://www.w3.org/2000/svg">
    <path fill-rule="evenodd" clip-rule="evenodd"
        d="M14.7134 6.59174L11.4084 9.33871C10.3759 10.1969 9.07563 10.6667 7.73303 10.6667H5.83333C5.44206 10.6667 5.125 10.9838 5.125 11.3751V16.6251C5.125 17.0163 5.44206 17.3334 5.83333 17.3334H7.73303C9.07563 17.3334 10.3759 17.8032 11.4084 18.6614L14.7134 21.4084V6.59174ZM14.1606 5.10072C14.9557 4.39955 16.2134 4.96216 16.2134 6.0288V21.9713C16.2134 23.0379 14.9557 23.6005 14.1606 22.8994L10.4496 19.815C9.68646 19.1806 8.72539 18.8334 7.73303 18.8334H5.83333C4.61363 18.8334 3.625 17.8448 3.625 16.6251V11.3751C3.625 10.1554 4.61363 9.16672 5.83333 9.16672H7.73303C8.72539 9.16672 9.68646 8.81946 10.4496 8.18515L14.1606 5.10072ZM21.6351 8.0691C21.9819 7.84263 22.4466 7.9402 22.6731 8.28703C23.7455 9.92936 24.375 11.8905 24.375 14.0001C24.375 16.1096 23.7455 18.0708 22.6731 19.7131C22.4466 20.0599 21.9819 20.1575 21.6351 19.931C21.2882 19.7046 21.1907 19.2398 21.4171 18.893C22.3368 17.4845 22.875 15.8066 22.875 14.0001C22.875 12.1935 22.3368 10.5156 21.4171 9.10713C21.1907 8.7603 21.2882 8.29556 21.6351 8.0691ZM20.0688 10.7431C19.8808 10.374 19.4293 10.2271 19.0601 10.415C18.691 10.6029 18.5441 11.0545 18.732 11.4237C19.1437 12.2324 19.3796 13.1425 19.3796 14.1085C19.3796 15.0744 19.1437 15.9845 18.732 16.7933C18.5441 17.1624 18.691 17.614 19.0601 17.8019C19.4293 17.9898 19.8808 17.8429 20.0688 17.4738C20.5826 16.4645 20.8796 15.3222 20.8796 14.1085C20.8796 12.8947 20.5826 11.7524 20.0688 10.7431Z"
        fill="#BCBED2" />
</svg>
