<svg width="28" height="28" viewBox="0 0 28 28" fill="none" xmlns="http://www.w3.org/2000/svg">
<path d="M10.7324 12.1807C10.5773 11.2813 11.4403 10.4926 12.3496 10.7871L24.1191 14.6113C25.1828 14.957 25.2911 16.4204 24.29 16.9189L19.3584 19.3721L16.9062 24.3066C16.4082 25.3086 14.9452 25.2001 14.5996 24.1357L10.7773 12.3604L10.7324 12.1807Z" fill="#51C300"/>
<path d="M7.99023 18.9453C8.2829 18.6526 8.75812 18.6526 9.05078 18.9453C9.34335 19.238 9.34312 19.713 9.05078 20.0059L7.28223 21.7754C6.98954 22.0682 6.51436 22.0682 6.22168 21.7754C5.92931 21.4825 5.92911 21.0076 6.22168 20.7148L7.99023 18.9453Z" fill="#51C300"/>
<path d="M6.2334 13.2461C6.64702 13.2464 6.98242 13.582 6.98242 13.9961C6.98236 14.4101 6.64698 14.7458 6.2334 14.7461H3.73242C3.31863 14.7461 2.98249 14.4102 2.98242 13.9961C2.98242 13.5819 3.31859 13.2461 3.73242 13.2461H6.2334Z" fill="#51C300"/>
<path d="M20.7051 6.21973C20.9977 5.92718 21.472 5.92731 21.7646 6.21973C22.0573 6.51256 22.0573 6.98744 21.7646 7.28027L19.9961 9.0498C19.7034 9.34258 19.2292 9.34262 18.9365 9.0498C18.6439 8.75697 18.6439 8.28206 18.9365 7.98926L20.7051 6.21973Z" fill="#51C300"/>
<path d="M6.21484 6.21777C6.50752 5.92495 6.98172 5.92497 7.27441 6.21777L9.04297 7.9873C9.33564 8.28014 9.33565 8.75502 9.04297 9.04785C8.75032 9.34029 8.27599 9.34038 7.9834 9.04785L6.21484 7.27832C5.92218 6.98551 5.92222 6.51061 6.21484 6.21777Z" fill="#51C300"/>
<path d="M13.9902 3C14.404 3.00007 14.7393 3.33599 14.7393 3.75V6.25195C14.7391 6.66581 14.4039 7.00091 13.9902 7.00098C13.5765 7.00098 13.2414 6.66585 13.2412 6.25195V3.75C13.2412 3.33595 13.5764 3 13.9902 3Z" fill="#51C300"/>
</svg>
