<svg width="28" height="28" viewBox="0 0 28 28" fill="none" xmlns="http://www.w3.org/2000/svg">
<path d="M14 21C14.5523 21 15 21.4477 15 22C15 22.5523 14.5523 23 14 23H7C6.44772 23 6 22.5523 6 22C6 21.4477 6.44772 21 7 21H14Z" fill="#7D8198"/>
<path d="M17 16C17.5523 16 18 16.4477 18 17C18 17.5523 17.5523 18 17 18H7C6.44772 18 6 17.5523 6 17C6 16.4477 6.44772 16 7 16H17Z" fill="#7D8198"/>
<path d="M20 11C20.5523 11 21 11.4477 21 12C21 12.5523 20.5523 13 20 13H7C6.44772 13 6 12.5523 6 12C6 11.4477 6.44772 11 7 11H20Z" fill="#7D8198"/>
<path d="M23 6C23.5523 6 24 6.44772 24 7C24 7.55228 23.5523 8 23 8H7C6.44772 8 6 7.55228 6 7C6 6.44772 6.44772 6 7 6H23Z" fill="#7D8198"/>
</svg>
