<svg width="28" height="28" viewBox="0 0 28 28" fill="none" xmlns="http://www.w3.org/2000/svg">
<path fill-rule="evenodd" clip-rule="evenodd" d="M25 14C25 20.0751 20.0751 25 14 25C7.92487 25 3 20.0751 3 14C3 7.92487 7.92487 3 14 3C20.0751 3 25 7.92487 25 14ZM18.765 13.7953C18.4638 14.0797 17.9891 14.0661 17.7047 13.765L14.75 10.6364V19.25C14.75 19.6642 14.4142 20 14 20C13.5858 20 13.25 19.6642 13.25 19.25V10.6365L10.2953 13.765C10.0108 14.0661 9.53617 14.0797 9.23503 13.7953C8.93389 13.5108 8.92033 13.0362 9.20475 12.735L13.4548 8.23503C13.5965 8.08501 13.7937 8 14.0001 8C14.2064 8 14.4037 8.08502 14.5453 8.23504L18.7953 12.735C19.0797 13.0362 19.0661 13.5109 18.765 13.7953Z" fill="#7D8198"/>
</svg>
