<svg width="28" height="28" viewBox="0 0 28 28" fill="none" xmlns="http://www.w3.org/2000/svg">
<path fill-rule="evenodd" clip-rule="evenodd" d="M25 14C25 20.0751 20.0751 25 14 25C7.92487 25 3 20.0751 3 14C3 7.92487 7.92487 3 14 3C20.0751 3 25 7.92487 25 14ZM18.8119 11.2467C19.0863 10.9364 19.0571 10.4624 18.7467 10.1881C18.4364 9.91375 17.9624 9.94294 17.6881 10.2533L12.4457 16.1838L10.2552 14.1944C9.9486 13.916 9.47428 13.9388 9.1958 14.2454C8.91733 14.552 8.94016 15.0264 9.24679 15.3048L12 17.8052C12.1485 17.9401 12.345 18.0099 12.5453 17.9989C12.7457 17.9879 12.9333 17.8971 13.0662 17.7467L18.8119 11.2467Z" fill="#7D8198"/>
</svg>
