<svg width="28" height="28" viewBox="0 0 28 28" fill="none" xmlns="http://www.w3.org/2000/svg">
<path fill-rule="evenodd" clip-rule="evenodd" d="M25 14C25 20.0751 20.0751 25 14 25C7.92487 25 3 20.0751 3 14C3 7.92487 7.92487 3 14 3C20.0751 3 25 7.92487 25 14ZM13.7953 9.23504C14.0797 9.53618 14.0661 10.0109 13.765 10.2953L10.6364 13.25H19.25C19.6642 13.25 20 13.5858 20 14C20 14.4142 19.6642 14.75 19.25 14.75H10.6365L13.765 17.7047C14.0661 17.9892 14.0797 18.4638 13.7953 18.765C13.5108 19.0661 13.0362 19.0797 12.735 18.7953L8.23503 14.5452C8.08501 14.4035 8 14.2063 8 13.9999C8 13.7936 8.08502 13.5963 8.23504 13.4547L12.735 9.20474C13.0362 8.92033 13.5109 8.9339 13.7953 9.23504Z" fill="#7D8198"/>
</svg>
