<svg width="28" height="28" viewBox="0 0 28 28" fill="none" xmlns="http://www.w3.org/2000/svg">
<path d="M23.25 5C24.2165 5 25 5.7835 25 6.75V21.25C25 22.2165 24.2165 23 23.25 23H4.75C3.7835 23 3 22.2165 3 21.25V6.75C3 5.7835 3.7835 5 4.75 5H23.25ZM4.5 21.25C4.5 21.3881 4.61193 21.5 4.75 21.5H9.5V16.75C9.5 16.6119 9.38807 16.5 9.25 16.5H4.5V21.25ZM4.75 6.5C4.61193 6.5 4.5 6.61193 4.5 6.75V10.0049H15.25C16.2165 10.0049 17 10.7884 17 11.7549V21.5H23.25C23.3881 21.5 23.5 21.3881 23.5 21.25V6.75C23.5 6.61193 23.3881 6.5 23.25 6.5H4.75ZM4.5 15H9.25C10.2165 15 11 15.7835 11 16.75V21.5H15.5V11.7549C15.5 11.6168 15.3881 11.5049 15.25 11.5049H4.5V15Z" fill="#7D8198"/>
</svg>
