<svg width="28" height="28" viewBox="0 0 28 28" fill="none" xmlns="http://www.w3.org/2000/svg">
<path d="M19.0438 7.99866H23.999V6.75C23.999 5.23122 22.7678 4 21.249 4H16.232L19.0438 7.99866Z" fill="#7D8198"/>
<path d="M14.3983 4H9.87287L12.6765 7.99866H17.2101L14.3983 4Z" fill="#7D8198"/>
<path fill-rule="evenodd" clip-rule="evenodd" d="M6.74902 4H8.0409L10.8445 7.99866H4V9.49866H23.999V21.25C23.999 22.7688 22.7678 24 21.249 24H6.74902C5.23024 24 3.99902 22.7688 3.99902 21.25V6.75C3.99902 5.23122 5.23024 4 6.74902 4ZM11.0057 18.5227V13.5205C11.0057 13.1488 11.3968 12.9071 11.7292 13.0732L16.7365 15.5753C17.1053 15.7595 17.1052 16.2857 16.7364 16.4699L11.7291 18.97C11.3967 19.136 11.0057 18.8942 11.0057 18.5227Z" fill="#7D8198"/>
</svg>
