<svg width="28" height="28" viewBox="0 0 28 28" fill="none" xmlns="http://www.w3.org/2000/svg">
<path d="M8.5 8C9.32843 8 10 8.67157 10 9.5C10 10.3284 9.32843 11 8.5 11C7.67157 11 7 10.3284 7 9.5C7 8.67157 7.67157 8 8.5 8Z" fill="#7D8198"/>
<path fill-rule="evenodd" clip-rule="evenodd" d="M12.25 5C13.7688 5 15 6.23122 15 7.75V20.25C15 21.7688 13.7688 23 12.25 23H5.75C4.23122 23 3 21.7688 3 20.25V7.75C3 6.23122 4.23122 5 5.75 5H12.25ZM8.17676 15.5674C8.0792 15.4703 7.92076 15.4702 7.82324 15.5674L4.5 18.8906V20.25C4.5 20.9404 5.05964 21.5 5.75 21.5H12.25C12.7527 21.5 13.1844 21.2024 13.3828 20.7744L8.17676 15.5674ZM5.75 6.5C5.05964 6.5 4.5 7.05964 4.5 7.75V16.7686L6.76172 14.5068C7.445 13.8236 8.55385 13.8238 9.2373 14.5068L13.5 18.7695V7.75C13.5 7.05964 12.9404 6.5 12.25 6.5H5.75Z" fill="#7D8198"/>
<path d="M19.25 21.5C19.6642 21.5 20 21.8358 20 22.25C20 22.6642 19.6642 23 19.25 23H17.7549C17.3407 23 17.0049 22.6642 17.0049 22.25C17.0049 21.8358 17.3407 21.5 17.7549 21.5H19.25Z" fill="#7D8198"/>
<path d="M24.2461 19C24.6603 19 24.9961 19.3358 24.9961 19.75V21.25C24.9961 22.2165 24.2126 23 23.2461 23H21.7461C21.3321 22.9998 20.9961 22.6641 20.9961 22.25C20.9961 21.8359 21.3321 21.5002 21.7461 21.5H23.2461C23.3842 21.5 23.4961 21.3881 23.4961 21.25V19.75C23.4961 19.3359 23.8321 19.0002 24.2461 19Z" fill="#7D8198"/>
<path d="M24.2461 15C24.6603 15 24.9961 15.3358 24.9961 15.75V17.25C24.9961 17.6642 24.6603 18 24.2461 18C23.8321 17.9998 23.4961 17.6641 23.4961 17.25V15.75C23.4961 15.3359 23.8321 15.0002 24.2461 15Z" fill="#7D8198"/>
<path d="M24.2461 10C24.6603 10 24.9961 10.3358 24.9961 10.75V12.25C24.9961 12.6642 24.6603 13 24.2461 13C23.8321 12.9998 23.4961 12.6641 23.4961 12.25V10.75C23.4961 10.3359 23.8321 10.0002 24.2461 10Z" fill="#7D8198"/>
<path d="M23.2461 5C24.2126 5.00001 24.9961 5.78351 24.9961 6.75V8.25C24.9961 8.66421 24.6603 8.99999 24.2461 9C23.8321 8.99977 23.4961 8.66407 23.4961 8.25V6.75C23.4961 6.61194 23.3842 6.50001 23.2461 6.5H21.7461C21.3321 6.49977 20.9961 6.16407 20.9961 5.75C20.9961 5.33593 21.3321 5.00023 21.7461 5H23.2461Z" fill="#7D8198"/>
<path d="M19.25 5C19.6642 5 20 5.33579 20 5.75C20 6.16421 19.6642 6.5 19.25 6.5H17.7549C17.3407 6.5 17.0049 6.16421 17.0049 5.75C17.0049 5.33579 17.3407 5 17.7549 5H19.25Z" fill="#7D8198"/>
</svg>
