<svg width="28" height="28" viewBox="0 0 28 28" fill="none" xmlns="http://www.w3.org/2000/svg">
<path fill-rule="evenodd" clip-rule="evenodd" d="M4.54345 4.01579C4.94128 3.90045 5.35729 4.12945 5.47264 4.52728L7.05881 9.99805H21.0142L22.5168 4.56774C22.6272 4.16853 23.0404 3.93445 23.4396 4.04492C23.8388 4.15538 24.0729 4.56855 23.9625 4.96776L22.5655 10.0162C23.9349 10.1735 24.9982 11.3366 24.9982 12.748V19.248C24.9982 21.8714 22.8716 23.998 20.2482 23.998H7.7482C5.12485 23.998 2.9982 21.8714 2.9982 19.248V12.748C2.9982 11.3128 4.09764 10.1344 5.50023 10.0091L4.03197 4.94498C3.91662 4.54715 4.14562 4.13114 4.54345 4.01579ZM20.5991 11.498L20.1738 13.0351C19.5011 13.1831 18.9978 13.7828 18.9978 14.5C18.9978 15.3284 19.6693 16 20.4978 16C21.3262 16 21.9978 15.3284 21.9978 14.5C21.9978 14.11 21.8489 13.7547 21.6049 13.4879L22.1555 11.498H22.2482C22.9386 11.498 23.4982 12.0577 23.4982 12.748V19.248C23.4982 21.043 22.0431 22.498 20.2482 22.498H7.7482C5.95327 22.498 4.4982 21.043 4.4982 19.248V12.748C4.4982 12.0577 5.05784 11.498 5.7482 11.498H5.93194L6.48293 13.3985C6.18661 13.6725 6.00108 14.0646 6.00108 14.5C6.00108 15.3284 6.67265 16 7.50108 16C8.3295 16 9.00108 15.3284 9.00108 14.5C9.00108 13.8276 8.55859 13.2585 7.9489 13.068L7.49371 11.498H20.5991ZM11 14.4979C11 14.2218 11.2239 13.9979 11.5 13.9979H16.5C16.7761 13.9979 17 14.2218 17 14.4979V15.4979C17 15.7741 16.7761 15.9979 16.5 15.9979H11.5C11.2239 15.9979 11 15.7741 11 15.4979V14.4979ZM11 19C11 18.4477 10.5523 18 10 18C9.44772 18 9 18.4477 9 19C9 19.5523 9.44772 20 10 20C10.5523 20 11 19.5523 11 19ZM14 18C14.5523 18 15 18.4477 15 19C15 19.5523 14.5523 20 14 20C13.4477 20 13 19.5523 13 19C13 18.4477 13.4477 18 14 18ZM19 19C19 18.4477 18.5523 18 18 18C17.4477 18 17 18.4477 17 19C17 19.5523 17.4477 20 18 20C18.5523 20 19 19.5523 19 19Z" fill="white"/>
</svg>
