<svg width="28" height="28" viewBox="0 0 28 28" fill="none" xmlns="http://www.w3.org/2000/svg">
<path fill-rule="evenodd" clip-rule="evenodd" d="M4 6.75C4 5.23122 5.23122 4 6.75 4H21.25C22.7688 4 24 5.23122 24 6.75V21.25C24 22.7688 22.7688 24 21.25 24H6.75C5.23122 24 4 22.7688 4 21.25V6.75ZM9.75006 11.0027C10.1643 11.0027 10.5001 11.3385 10.5001 11.7527L10.5 16.4421L17.7197 9.22238C18.0126 8.92948 18.4875 8.92948 18.7804 9.22238C19.0732 9.51527 19.0732 9.99014 18.7804 10.283L11.5607 17.5027L16.25 17.5027C16.6642 17.5027 17 17.8385 17 18.2527C17 18.6669 16.6642 19.0027 16.25 19.0027L9.75 19.0027C9.55109 19.0027 9.36032 18.9237 9.21967 18.783C9.07902 18.6424 9 18.4516 9 18.2527L9.00005 11.7527C9.00006 11.3385 9.33585 11.0027 9.75006 11.0027Z" fill="#7D8198"/>
</svg>
