<svg width="28" height="28" viewBox="0 0 28 28" fill="none" xmlns="http://www.w3.org/2000/svg">
<path d="M6.75 4C5.23122 4 4 5.23122 4 6.75V8H24V6.75C24 5.23122 22.7688 4 21.25 4H6.75Z" fill="#7D8198"/>
<path fill-rule="evenodd" clip-rule="evenodd" d="M4 21.25V9.5H24V21.25C24 22.7688 22.7688 24 21.25 24H6.75C5.23122 24 4 22.7688 4 21.25ZM9.50362 13.0024C9.22747 13.0024 9.00362 13.2263 9.00362 13.5024V14.4976C9.00362 14.7737 9.22747 14.9976 9.50362 14.9976H10.5036C10.7798 14.9976 11.0036 14.7737 11.0036 14.4976V13.5024C11.0036 13.2263 10.7798 13.0024 10.5036 13.0024H9.50362ZM9.00362 17.5C9.00362 17.2239 9.22747 17 9.50362 17H10.5036C10.7798 17 11.0036 17.2239 11.0036 17.5V18.4951C11.0036 18.7713 10.7798 18.9951 10.5036 18.9951H9.50362C9.22747 18.9951 9.00362 18.7713 9.00362 18.4951V17.5ZM13.5 17C13.2239 17 13 17.2239 13 17.5V18.4951C13 18.7713 13.2239 18.9951 13.5 18.9951H14.5C14.7761 18.9951 15 18.7713 15 18.4951V17.5C15 17.2239 14.7761 17 14.5 17H13.5ZM13 13.5024C13 13.2263 13.2239 13.0024 13.5 13.0024H14.5C14.7761 13.0024 15 13.2263 15 13.5024V14.4976C15 14.7737 14.7761 14.9976 14.5 14.9976H13.5C13.2239 14.9976 13 14.7737 13 14.4976V13.5024ZM17.496 13.0024C17.2199 13.0024 16.996 13.2263 16.996 13.5024V14.4976C16.996 14.7737 17.2199 14.9976 17.496 14.9976H18.496C18.7721 14.9976 18.996 14.7737 18.996 14.4976V13.5024C18.996 13.2263 18.7721 13.0024 18.496 13.0024H17.496Z" fill="#7D8198"/>
</svg>
