<svg width="28" height="28" viewBox="0 0 28 28" fill="none" xmlns="http://www.w3.org/2000/svg">
<path fill-rule="evenodd" clip-rule="evenodd" d="M4 6.75C4 5.23122 5.23122 4 6.75 4H21.25C22.7688 4 24 5.23122 24 6.75V21.25C24 22.7688 22.7688 24 21.25 24H6.75C5.23122 24 4 22.7688 4 21.25V6.75ZM8.00187 8.75146C8.00187 8.55255 8.08089 8.36179 8.22154 8.22113C8.36219 8.08048 8.55296 8.00146 8.75187 8.00146H13.2519C13.6661 8.00146 14.0019 8.33725 14.0019 8.75146C14.0019 9.16568 13.6661 9.50146 13.2519 9.50146H10.5643L18.5 17.4337V14.75C18.5 14.3357 18.8358 14 19.25 14C19.6642 14 20 14.3357 20 14.75V19.25C20 19.4489 19.921 19.6396 19.7803 19.7803C19.6397 19.9209 19.4489 20 19.25 20H14.7509C14.3367 20 14.0009 19.6642 14.0009 19.25C14.0009 18.8357 14.3367 18.5 14.7509 18.5H17.445L9.50187 10.5603V13.25C9.50187 13.6642 9.16608 14 8.75187 14C8.33766 14 8.00187 13.6642 8.00187 13.25V8.75146Z" fill="#7D8198"/>
</svg>
