<svg width="28" height="28" viewBox="0 0 28 28" fill="none" xmlns="http://www.w3.org/2000/svg">
    <path fill-rule="evenodd" clip-rule="evenodd"
        d="M3.5 6.78125C3.5 4.96907 4.96907 3.5 6.78125 3.5H21.2188C23.0309 3.5 24.5 4.96907 24.5 6.78125V21.2188C24.5 23.0309 23.0309 24.5 21.2188 24.5H6.78125C4.96907 24.5 3.5 23.0309 3.5 21.2188V6.78125ZM6.78125 5.25C5.93556 5.25 5.25 5.93556 5.25 6.78125V21.2188C5.25 22.0644 5.93556 22.75 6.78125 22.75H21.2188C22.0644 22.75 22.75 22.0644 22.75 21.2188V6.78125C22.75 5.93556 22.0644 5.25 21.2188 5.25H6.78125Z"
        fill="#C1C2D9" />
</svg>
