<svg width="28" height="28" viewBox="0 0 28 28" fill="none" xmlns="http://www.w3.org/2000/svg">
<path d="M14.0015 4C11.2269 4 9 6.2354 9 9C9 11.7646 11.2269 14 14.0015 14C16.7762 14 19 11.7646 19 9C19 6.2354 16.7762 4 14.0015 4Z" fill="#7D8198"/>
<path d="M13.999 16C10.191 16 7.57385 17.5333 5.88211 19.173C4.88319 20.1412 4.77583 21.3985 5.34295 22.3978C5.88718 23.3567 7.00103 24 8.29858 24H19.7012C20.9993 24 22.1134 23.3563 22.6575 22.3969C23.2244 21.3971 23.1164 20.1395 22.1166 19.1716C20.4237 17.5325 17.8059 16 13.999 16Z" fill="#7D8198"/>
</svg>
