<svg width="28" height="28" viewBox="0 0 28 28" fill="none" xmlns="http://www.w3.org/2000/svg">
<path d="M13.0852 5.30816C13.623 4.8965 14.37 4.89629 14.908 5.30764L23.3926 11.7945C23.8314 12.13 24.459 12.0462 24.7944 11.6075C25.1298 11.1687 25.0461 10.5411 24.6074 10.2057L16.1228 3.7188C14.8673 2.75898 13.1245 2.75947 11.8696 3.72001L3.39608 10.206C2.95752 10.5417 2.87413 11.1694 3.20982 11.6079C3.54551 12.0465 4.17316 12.1299 4.61172 11.7942L13.0852 5.30816Z" fill="#7D8198"/>
<path d="M14.9434 7.83319C14.3869 7.40623 13.6131 7.40619 13.0565 7.83308L4.68512 14.2544C4.18175 14.6405 3.92677 15.2688 4.01869 15.8965L5.13265 22.5036C5.2585 23.363 5.99563 24.0001 6.86419 24.0001L8.3425 24.0001C9.26053 23.9789 10.0694 23.3463 10.9977 22.4675L12.3215 21.1107C12.7671 20.6653 13.3834 20.426 13.9996 20.426C14.5819 20.426 15.1981 20.6653 15.6437 21.1107L17.0137 22.48L17.016 22.4823C17.9377 23.3534 18.7427 23.979 19.6556 24.0001L21.1355 24.0001C22.0042 24.0001 22.7415 23.3628 22.8671 22.5032L23.9793 15.8962C24.0711 15.2687 23.8161 14.6406 23.313 14.2546L14.9434 7.83319Z" fill="#7D8198"/>
</svg>
