<svg width="28" height="28" viewBox="0 0 28 28" fill="none" xmlns="http://www.w3.org/2000/svg">
<path fill-rule="evenodd" clip-rule="evenodd" d="M3 7.75C3 6.23122 4.23122 5 5.75 5H17.2847C18.1233 5 18.916 5.38265 19.4377 6.03922L24.4034 12.2887C25.1992 13.2903 25.1993 14.7084 24.4035 15.71L19.4378 21.9606C18.9161 22.6173 18.1232 23 17.2846 23H5.75C4.23122 23 3 21.7688 3 20.25V7.75ZM20 14C20 14.5523 19.5523 15 19 15C18.4477 15 18 14.5523 18 14C18 13.4477 18.4477 13 19 13C19.5523 13 20 13.4477 20 14Z" fill="#7D8198"/>
</svg>
