<svg width="28" height="28" viewBox="0 0 28 28" fill="none" xmlns="http://www.w3.org/2000/svg">
<path fill-rule="evenodd" clip-rule="evenodd" d="M7.26517 22.6979C4.67022 20.6857 3 17.5379 3 14C3 7.92487 7.92487 3 14 3C20.0751 3 25 7.92487 25 14C25 17.5329 23.3345 20.6768 20.7458 22.6894C18.883 24.1376 16.5422 25 14 25C11.4628 25 9.12617 24.141 7.26517 22.6979ZM7.36945 20.8034C8.05046 19.3396 9.7972 17 14 17C18.2028 17 19.9495 19.3397 20.6305 20.8034C18.9187 22.472 16.5794 23.5 14 23.5C11.4206 23.5 9.0813 22.472 7.36945 20.8034ZM18.0288 11C18.0288 13.2091 16.2251 15 14 15C11.775 15 9.97125 13.2091 9.97125 11C9.97125 8.79086 11.775 7 14 7C16.2251 7 18.0288 8.79086 18.0288 11Z" fill="#7D8198"/>
</svg>
