<svg width="28" height="28" viewBox="0 0 28 28" fill="none" xmlns="http://www.w3.org/2000/svg">
<path d="M16.1716 14C16.394 14 16.59 14.1471 16.6521 14.3604L18.9763 22.3613C19.0199 22.5121 18.9897 22.6743 18.8953 22.7998C18.8006 22.9254 18.6523 23.0003 18.4949 23L14.4988 22.9922C14.2231 22.9915 13.9998 22.7676 13.9998 22.4922V14.5C13.9998 14.2242 14.2238 14.0001 14.4998 14H16.1716ZM13.0837 4.59766C13.4333 3.79876 14.5662 3.79876 14.9158 4.59766L17.7234 11.0156C18.4077 11.1052 18.9849 11.5923 19.1785 12.2695L21.9705 22.0439C22.0842 22.4422 21.854 22.8568 21.4558 22.9707C21.0576 23.0843 20.6429 22.8542 20.5291 22.4561L17.7361 12.6816C17.7054 12.5745 17.6073 12.5002 17.4958 12.5H10.5037C10.3923 12.5003 10.294 12.5745 10.2634 12.6816L7.47046 22.4561C7.35663 22.8543 6.94194 23.0845 6.5437 22.9707C6.14569 22.8567 5.9153 22.4421 6.02905 22.0439L8.82104 12.2695C9.01441 11.5927 9.59148 11.1057 10.2751 11.0156L13.0837 4.59766Z" fill="#7D8198"/>
</svg>
