<svg width="28" height="28" viewBox="0 0 28 28" fill="none" xmlns="http://www.w3.org/2000/svg">
<path fill-rule="evenodd" clip-rule="evenodd" d="M13.4702 5.40603C13.616 4.86466 14.384 4.86466 14.5298 5.40603L15.6381 9.52269C16.0109 10.9074 17.0926 11.9891 18.4773 12.3619L22.594 13.4702C23.1353 13.616 23.1353 14.384 22.594 14.5298L18.4773 15.6381C17.0926 16.0109 16.0109 17.0926 15.6381 18.4773L14.5298 22.594C14.384 23.1353 13.616 23.1353 13.4702 22.594L12.3619 18.4773C11.9891 17.0926 10.9074 16.0109 9.52269 15.6381L5.40603 14.5298C4.86466 14.384 4.86466 13.616 5.40603 13.4702L9.52269 12.3619C10.9074 11.9891 11.9891 10.9074 12.3619 9.52269L13.4702 5.40603Z" fill="#7D8198"/>
</svg>
