<svg width="28" height="28" viewBox="0 0 28 28" fill="none" xmlns="http://www.w3.org/2000/svg">
<path fill-rule="evenodd" clip-rule="evenodd" d="M7.55499 8.26426C8.61993 5.75856 11.1037 4 14 4C17.6041 4 20.5719 6.72362 20.9576 10.2251L21.1171 10.2535C23.9421 10.7557 26 13.2118 26 16.0811C26 19.35 23.35 22 20.0811 22H8.75C5.02208 22 2 18.9779 2 15.25V14.9107C2 11.5356 4.44917 8.82193 7.55499 8.26426ZM10.2929 13.7071C9.90237 13.3166 9.90237 12.6834 10.2929 12.2929L13.2929 9.2929C13.6834 8.90237 14.3166 8.90237 14.7071 9.29289L17.7071 12.2929C18.0976 12.6834 18.0976 13.3166 17.7071 13.7071C17.3166 14.0976 16.6834 14.0976 16.2929 13.7071L14.9999 12.4141V18C14.9999 18.5523 14.5522 19 13.9999 19C13.4476 19 12.9999 18.5523 12.9999 18V12.4143L11.7071 13.7071C11.3166 14.0976 10.6834 14.0976 10.2929 13.7071Z" fill="#7D8198"/>
</svg>
