<svg width="28" height="28" viewBox="0 0 28 28" fill="none" xmlns="http://www.w3.org/2000/svg">
<path d="M8.49519 15.3429C8.49519 15.5749 8.68645 15.7621 8.94689 15.7621H9.33349V15.3755C9.33349 15.115 9.13816 14.9238 8.91434 14.9238C8.67831 14.9238 8.49519 15.1069 8.49519 15.3429Z" fill="#7D8198"/>
<path d="M12.0722 15.7621H12.4588C12.7193 15.7621 12.9105 15.5749 12.9105 15.3429C12.9105 15.1069 12.7233 14.9238 12.4914 14.9238C12.2675 14.9238 12.0722 15.115 12.0722 15.3755V15.7621Z" fill="#7D8198"/>
<path d="M10.2491 16.6695V17.577H11.1525V16.6695H10.2491Z" fill="#7D8198"/>
<path d="M9.33349 18.4845H8.94689C8.68645 18.4845 8.49519 18.6717 8.49519 18.9037C8.49519 19.1397 8.67831 19.3228 8.91434 19.3228C9.13816 19.3228 9.33349 19.1315 9.33349 18.8711V18.4845Z" fill="#7D8198"/>
<path d="M12.9105 18.9037C12.9105 18.6717 12.7193 18.4845 12.4588 18.4845H12.0722V18.8711C12.0722 19.1315 12.2675 19.3228 12.4914 19.3228C12.7233 19.3228 12.9105 19.1397 12.9105 18.9037Z" fill="#7D8198"/>
<path fill-rule="evenodd" clip-rule="evenodd" d="M7.75 5H20.25C21.7665 5 23 6.2335 23 7.75V20.25C23 21.7665 21.7665 23 20.25 23H7.75C6.2335 23 5 21.7665 5 20.25V7.75C5 6.2335 6.2335 5 7.75 5ZM9.33756 17.577V16.6736L8.91027 16.6695C8.16963 16.6614 7.57143 16.0795 7.57143 15.3388C7.57143 14.6063 8.16556 14 8.91434 14C9.64684 14 10.2491 14.6063 10.2491 15.3388V15.7539H11.1566V15.3388C11.1566 14.6063 11.7589 14 12.4914 14C13.2361 14 13.8343 14.6063 13.8343 15.3388C13.8343 16.0795 13.232 16.6614 12.4954 16.6695L12.0641 16.6736V17.577H12.4954C13.232 17.5852 13.8343 18.1712 13.8343 18.9077C13.8343 19.6443 13.2361 20.2466 12.4914 20.2466C11.7589 20.2466 11.1566 19.6402 11.1566 18.9077V18.4926H10.2491V18.9077C10.2491 19.6402 9.64684 20.2466 8.91434 20.2466C8.16556 20.2466 7.57143 19.6443 7.57143 18.9077C7.57143 18.1712 8.16963 17.5852 8.91027 17.577H9.33756ZM16.5893 19.3676C16.5893 19.864 16.3166 20.1448 15.8446 20.1448C15.3725 20.1448 15.0958 19.864 15.0958 19.3676V14.8709C15.0958 14.3744 15.3725 14.0936 15.8446 14.0936C16.3166 14.0936 16.5893 14.3744 16.5893 14.8709V16.637H16.6218L18.6199 14.4232C18.8315 14.1872 19.0187 14.0895 19.271 14.0895C19.6617 14.0895 19.975 14.3947 19.975 14.7773C19.975 14.997 19.8977 15.1598 19.6983 15.3755L18.2944 16.8567L19.796 18.6961C20.0402 18.9973 20.1419 19.2211 20.1419 19.4286C20.1419 19.8356 19.8326 20.1489 19.4257 20.1489C19.1123 20.1489 18.8966 20.0309 18.6566 19.7257L17.1346 17.8253L16.5893 18.395V19.3676Z" fill="#7D8198"/>
</svg>
