<svg width="28" height="28" viewBox="0 0 28 28" fill="none" xmlns="http://www.w3.org/2000/svg">
    <path fill-rule="evenodd" clip-rule="evenodd"
        d="M7.29163 6.70833C7.29163 4.93642 8.72805 3.5 10.5 3.5H17.5C19.2719 3.5 20.7083 4.93642 20.7083 6.70833V21.2917C20.7083 23.0636 19.2719 24.5 17.5 24.5H10.5C8.72805 24.5 7.29163 23.0636 7.29163 21.2917V6.70833ZM10.5 5.25C9.69454 5.25 9.04163 5.90292 9.04163 6.70833V21.2917C9.04163 22.0971 9.69454 22.75 10.5 22.75H17.5C18.3054 22.75 18.9583 22.0971 18.9583 21.2917V6.70833C18.9583 5.90292 18.3054 5.25 17.5 5.25H10.5Z"
        fill="#C1C2D9" />
</svg>
