<svg width="28" height="28" viewBox="0 0 28 28" fill="none" xmlns="http://www.w3.org/2000/svg">
<path fill-rule="evenodd" clip-rule="evenodd" d="M3 7.75C3 6.23122 4.23122 5 5.75 5H22.25C23.7688 5 25 6.23122 25 7.75V20.25C25 21.7688 23.7688 23 22.25 23H11.2832C11.2369 23 11.1915 23.0129 11.1521 23.0371L8.14559 24.8886C7.91419 25.0311 7.62381 25.0373 7.38656 24.9048C7.14931 24.7722 7.00231 24.5218 7.00231 24.25V23.25C7.00231 23.1119 6.89038 23 6.75231 23H5.75C4.23122 23 3 21.7688 3 20.25V7.75ZM14.227 10.519C14.0548 10.4898 13.8781 10.4943 13.7082 10.532C13.5382 10.5697 13.3802 10.6394 13.2435 10.7353C13.1068 10.831 12.9948 10.9503 12.9123 11.0843C12.8299 11.2181 12.7783 11.3643 12.7589 11.514C12.7485 11.5938 12.7472 11.6742 12.7551 11.7539L12.7566 11.7566L12.7664 11.7726C13.0102 12.0942 12.9561 12.5543 12.6398 12.8095C12.3175 13.0697 11.8453 13.0192 11.5851 12.6969C11.5227 12.6195 11.4658 12.5224 11.4338 12.4648C11.4098 12.4216 11.3393 12.2947 11.3045 12.1659C11.2989 12.1452 11.2942 12.1241 11.2904 12.1029C11.244 11.845 11.2374 11.5813 11.2714 11.3204C11.3186 10.9577 11.4429 10.6098 11.635 10.2979C11.8269 9.9861 12.082 9.71749 12.3827 9.50678C12.6834 9.29613 13.024 9.14728 13.3834 9.06757C13.7427 8.98787 14.1149 8.97859 14.4779 9.04017C14.8408 9.10175 15.1887 9.23322 15.4999 9.42814C15.8112 9.62311 16.0803 9.87803 16.2887 10.1791C16.4973 10.4803 16.6406 10.821 16.7077 11.1805C16.8807 12.1058 16.496 12.8683 16.1051 13.4082C15.9079 13.6807 15.6908 13.9216 15.5098 14.1178L15.4136 14.2219L15.4135 14.2219C15.2697 14.3772 15.1688 14.4862 15.0954 14.5819L15.0867 14.5931C14.87 14.8652 14.7885 15.0634 14.7578 15.1638C14.7449 15.2062 14.7402 15.2338 14.7386 15.2452C14.7425 15.6381 14.44 15.9713 14.0428 16C13.6297 16.03 13.2705 15.7193 13.2406 15.3062L13.2405 15.3042L13.2403 15.3022L13.24 15.298L13.2395 15.2892L13.2387 15.2694C13.2383 15.2552 13.2381 15.2392 13.2384 15.2214C13.2389 15.1858 13.241 15.1431 13.2462 15.0938C13.2566 14.995 13.2789 14.871 13.3232 14.7258C13.412 14.4351 13.5851 14.0721 13.9091 13.6639C14.0291 13.5082 14.1878 13.3373 14.3291 13.1851L14.4073 13.1007C14.5824 12.911 14.7482 12.7246 14.8901 12.5286C15.1775 12.1315 15.2962 11.793 15.2333 11.4561C15.2055 11.3072 15.1457 11.1632 15.0555 11.033C14.9653 10.9028 14.8462 10.7886 14.7038 10.6994C14.5612 10.6102 14.3991 10.5482 14.227 10.519ZM15.0024 18C15.0024 18.5523 14.5541 19 14.0012 19C13.4482 19 13 18.5523 13 18C13 17.4477 13.4482 17 14.0012 17C14.5541 17 15.0024 17.4477 15.0024 18Z" fill="#7D8198"/>
</svg>
