<svg width="28" height="28" viewBox="0 0 28 28" fill="none" xmlns="http://www.w3.org/2000/svg">
<path d="M12.5 7C15.5376 7 18 9.46243 18 12.5C18 15.5376 15.5376 18 12.5 18C9.46243 18 7 15.5376 7 12.5C7 9.46243 9.46243 7 12.5 7Z" fill="#7D8198"/>
<path fill-rule="evenodd" clip-rule="evenodd" d="M12.5 4C17.1944 4 21 7.80558 21 12.5C21 14.5766 20.2535 16.4778 19.0166 17.9541L22.7822 21.7197C23.0748 22.0126 23.0748 22.4874 22.7822 22.7803C22.4894 23.0731 22.0146 23.0729 21.7217 22.7803L17.9561 19.0146C16.4795 20.2526 14.5776 21 12.5 21C7.80558 21 4 17.1944 4 12.5C4 7.80558 7.80558 4 12.5 4ZM12.5 5.5C8.63401 5.5 5.5 8.63401 5.5 12.5C5.5 16.366 8.63401 19.5 12.5 19.5C16.366 19.5 19.5 16.366 19.5 12.5C19.5 8.63401 16.366 5.5 12.5 5.5Z" fill="#7D8198"/>
</svg>
