<svg width="28" height="28" viewBox="0 0 28 28" fill="none" xmlns="http://www.w3.org/2000/svg">
<path fill-rule="evenodd" clip-rule="evenodd" d="M4 6.75C4 5.23122 5.23122 4 6.75 4H21.25C22.7688 4 24 5.23122 24 6.75V21.25C24 22.7688 22.7688 24 21.25 24H6.75C5.23122 24 4 22.7688 4 21.25V6.75ZM10.9973 9.24854C10.9973 8.55818 11.557 7.99854 12.2473 7.99854H18.7499C19.4402 7.99854 19.9999 8.55818 19.9999 9.24854V15.7485C19.9999 16.4389 19.4402 16.9985 18.7499 16.9985H12.2473C11.557 16.9985 10.9973 16.4389 10.9973 15.7485V9.24854Z" fill="#7D8198"/>
</svg>
