<svg width="28" height="28" viewBox="0 0 28 28" fill="none" xmlns="http://www.w3.org/2000/svg">
<path d="M21.8378 21.6446L22.187 19.2433L22.7436 15.4055L22.9727 13.8404C23.2019 12.2967 21.9579 10.9246 20.3319 10.9246H14.2319C13.719 10.9246 13.4462 10.4207 13.6535 9.97048C14.1882 8.75911 14.4938 7.77286 14.7557 6.5615C14.8975 5.90757 14.9958 5.43589 14.9958 5.03925C14.9958 4.18164 14.6575 3.63492 14.2755 3.27044C13.6644 2.71299 12.7587 3.0882 12.2677 3.75284C10.9582 5.53237 8.36102 8.99495 7.06244 10.1634C5.82934 11.289 5 12.7577 5 14.3979V18.6001C5 22.1377 7.97909 25 11.6566 25H17.8766C19.8954 25 21.5869 23.5528 21.8378 21.6339V21.6446Z" fill="#7D8198"/>
</svg>
