<svg width="28" height="28" viewBox="0 0 28 28" fill="none" xmlns="http://www.w3.org/2000/svg">
<path fill-rule="evenodd" clip-rule="evenodd" d="M25 14C25 7.92487 20.0751 3 14 3C7.92487 3 3 7.92487 3 14C3 20.0751 7.92487 25 14 25C20.0751 25 25 20.0751 25 14ZM15.2006 8.23949C15.4825 7.93605 15.9571 7.91862 16.2605 8.20057L19.7624 11.4544C19.9152 11.5964 20.002 11.7956 20.0019 12.0043C20.0018 12.2129 19.9148 12.412 19.7618 12.5539L16.2599 15.8C15.9561 16.0816 15.4816 16.0636 15.2 15.7599C14.9184 15.4561 14.9364 14.9816 15.2402 14.7L17.3395 12.7539H11.8703C10.5613 12.7539 9.50002 13.8152 9.50002 15.1242C9.50002 16.3133 10.3282 17.3167 11.3894 17.5169C11.7964 17.5937 12.0641 17.986 11.9873 18.393C11.9105 18.8 11.5183 19.0677 11.1113 18.9909C9.29464 18.6481 8.00002 16.9858 8.00002 15.1242C8.00002 12.9868 9.73289 11.2539 11.8703 11.2539H17.343L15.2395 9.29944C14.9361 9.01749 14.9186 8.54293 15.2006 8.23949Z" fill="#7D8198"/>
</svg>
