<svg width="28" height="28" viewBox="0 0 28 28" fill="none" xmlns="http://www.w3.org/2000/svg">
<path fill-rule="evenodd" clip-rule="evenodd" d="M4 6.75C4 5.23122 5.23122 4 6.75 4H21.25C22.7688 4 24 5.23122 24 6.75V21.25C24 22.7688 22.7688 24 21.25 24H6.75C5.23122 24 4 22.7688 4 21.25V6.75ZM17.7047 14.235L14.75 17.3635V8.75C14.75 8.33579 14.4142 8 14 8C13.5858 8 13.25 8.33579 13.25 8.75V17.3636L10.2953 14.235C10.0109 13.9339 9.53618 13.9203 9.23504 14.2047C8.9339 14.4891 8.92033 14.9638 9.20474 15.2649L13.4547 19.7649C13.5964 19.9149 13.7936 20 13.9999 20C14.2063 20 14.4035 19.915 14.5452 19.7649L18.7953 15.2649C19.0797 14.9638 19.0661 14.4891 18.765 14.2047C18.4638 13.9203 17.9892 13.9339 17.7047 14.235Z" fill="#7D8198"/>
</svg>
