<svg width="28" height="28" viewBox="0 0 28 28" fill="none" xmlns="http://www.w3.org/2000/svg">
<path d="M14.0048 9.5001C15.6613 9.50031 17.0044 10.8436 17.0048 12.5001C17.0046 14.1567 15.6614 15.4999 14.0048 15.5001C12.3484 15.4997 11.005 14.1566 11.0048 12.5001C11.0052 10.8438 12.3485 9.50055 14.0048 9.5001Z" fill="#7D8198"/>
<path fill-rule="evenodd" clip-rule="evenodd" d="M7.64936 5.44346C11.3708 2.07728 17.1419 2.18934 20.7265 5.78037C24.4276 9.48868 24.4286 15.5349 20.7031 19.2433L15.6181 24.338L15.6122 24.3429C14.7078 25.2107 13.2534 25.2322 12.3505 24.3282L7.27338 19.2413C3.57244 15.5332 3.57117 9.48791 7.29584 5.7794L7.64936 5.44346ZM19.3427 7.17197C16.4071 4.23089 11.6142 4.2309 8.67865 7.17197L8.67768 7.17393L8.6767 7.1749C5.72313 10.1149 5.72239 14.9112 8.65619 17.8507L13.7343 22.9376C13.8566 23.0594 14.0923 23.0777 14.2548 22.9249L19.3203 17.8507L19.3222 17.8478C22.2764 14.908 22.2767 10.1117 19.3427 7.17197Z" fill="#7D8198"/>
</svg>
