<svg width="28" height="28" viewBox="0 0 28 28" fill="none" xmlns="http://www.w3.org/2000/svg">
<path d="M9.05669 16.588C9.56529 16.0808 10.3976 16.5102 10.337 17.1759L10.3125 17.3126L9.90142 18.8497C9.76371 19.3662 9.9116 19.9175 10.2891 20.296L11.4131 21.422C11.9542 21.9645 11.4289 22.8751 10.6885 22.6778L9.15142 22.2667C8.63496 22.129 8.08359 22.277 7.70513 22.6544L6.57915 23.7784C6.03659 24.3197 5.12582 23.7943 5.32329 23.0538L5.73442 21.5167C5.87208 21.0002 5.72416 20.4488 5.34673 20.0704L4.22271 18.9444C3.68145 18.4019 4.20681 17.4911 4.94732 17.6886L6.48442 18.0997C7.00088 18.2373 7.5523 18.0895 7.93071 17.712L9.05669 16.588Z" fill="#7D8198"/>
<path d="M20.1436 4.23349C20.8486 3.63936 21.9296 4.26338 21.7676 5.17099L21.7471 5.26279L20.96 8.21494C20.7534 8.98975 20.9747 9.81616 21.5411 10.3839L23.6993 12.547C24.4201 13.2702 23.7202 14.4823 22.7334 14.2198L19.7813 13.4317C19.0066 13.2251 18.1801 13.4476 17.6124 14.0138L15.4493 16.171C14.7259 16.8927 13.5131 16.1925 13.7764 15.2052L14.5645 12.254C14.771 11.4793 14.5487 10.6517 13.9825 10.0841L11.8252 7.92197C11.1036 7.19855 11.8037 5.98583 12.7911 6.24912L15.7422 7.03622C16.517 7.2427 17.3445 7.02146 17.9122 6.45517L20.0743 4.29697L20.1436 4.23349Z" fill="#7D8198"/>
</svg>
