<svg width="28" height="28" viewBox="0 0 28 28" fill="none" xmlns="http://www.w3.org/2000/svg">
<path fill-rule="evenodd" clip-rule="evenodd" d="M22.25 5.00391C23.7688 5.00391 25 6.23512 25 7.75391V20.25C24.9999 21.7687 23.7687 23 22.25 23H5.75C4.23126 23 3.00007 21.7687 3 20.25V7.75391C3 6.23512 4.23122 5.00391 5.75 5.00391H22.25ZM8.75 17.5C8.33579 17.5 8 17.8358 8 18.25C8 18.6642 8.33579 19 8.75 19H19.25C19.6642 19 20 18.6642 20 18.25C20 17.8358 19.6642 17.5 19.25 17.5H8.75ZM10 13C9.44772 13 9 13.4477 9 14C9 14.5523 9.44772 15 10 15C10.5523 15 11 14.5523 11 14C11 13.4477 10.5523 13 10 13ZM14 13C13.4477 13 13 13.4477 13 14C13 14.5523 13.4477 15 14 15C14.5523 15 15 14.5523 15 14C15 13.4477 14.5523 13 14 13ZM18 13C17.4477 13 17 13.4477 17 14C17 14.5523 17.4477 15 18 15C18.5523 15 19 14.5523 19 14C19 13.4477 18.5523 13 18 13ZM8 9C7.44772 9 7 9.44772 7 10C7 10.5523 7.44772 11 8 11C8.55228 11 9 10.5523 9 10C9 9.44772 8.55228 9 8 9ZM12 9C11.4477 9 11 9.44772 11 10C11 10.5523 11.4477 11 12 11C12.5523 11 13 10.5523 13 10C13 9.44772 12.5523 9 12 9ZM16 9C15.4477 9 15 9.44772 15 10C15 10.5523 15.4477 11 16 11C16.5523 11 17 10.5523 17 10C17 9.44772 16.5523 9 16 9ZM20 9C19.4477 9 19 9.44772 19 10C19 10.5523 19.4477 11 20 11C20.5523 11 21 10.5523 21 10C21 9.44772 20.5523 9 20 9Z" fill="#7D8198"/>
</svg>
