<svg width="28" height="28" viewBox="0 0 28 28" fill="none" xmlns="http://www.w3.org/2000/svg">
    <path fill-rule="evenodd" clip-rule="evenodd"
        d="M3.66016 14.2874C3.66016 8.64953 8.23058 4.0791 13.8685 4.0791C19.5064 4.0791 24.0768 8.64953 24.0768 14.2874C24.0768 19.9253 19.5064 24.4958 13.8685 24.4958C8.23058 24.4958 3.66016 19.9253 3.66016 14.2874ZM13.8685 22.7458C16.1702 22.7458 18.2572 21.8264 19.7822 20.3349C19.3565 19.8402 18.8479 19.4105 18.2678 19.0537C17.0058 18.2773 15.4793 17.8841 13.8686 17.8841C12.2822 17.8841 10.7187 18.2953 9.46494 19.0716C8.89041 19.4276 8.38599 19.8538 7.96274 20.3426C9.48709 21.8296 11.5708 22.7458 13.8685 22.7458ZM13.9085 8.75006C12.9167 8.75006 11.992 9.12155 11.3232 9.83954C10.6516 10.5605 10.3446 11.5294 10.4158 12.5363C10.4816 13.4685 10.8552 14.3551 11.4823 15.0286C12.1263 15.7182 12.9851 16.1327 13.9085 16.1327C14.8322 16.1327 15.6902 15.7191 16.3333 15.0283C16.9596 14.3552 17.3324 13.4691 17.3998 12.5373C17.4713 11.5341 17.1617 10.5667 16.4887 9.84369C15.824 9.12947 14.8986 8.75006 13.9085 8.75006Z"
        fill="#BCBED2" />
</svg>
