<svg width="28" height="28" viewBox="0 0 28 28" fill="none" xmlns="http://www.w3.org/2000/svg">
<path d="M21 5.24793C21 4.24815 19.8668 3.63517 19.031 4.23549C17.9958 4.979 17.1147 5.67567 16.2517 6.36062L16.1533 6.43871C15.3223 7.09832 14.5044 7.74758 13.5601 8.43478C13.0416 8.81217 12.4127 9 11.75 9H9.75444C8.23321 9 7 10.2312 7 11.75V16.25C7 17.7724 8.22515 19.0051 9.75 19L11.75 19.0039C12.4642 19.0015 13.0431 19.2337 13.6121 19.6647L18.9913 23.739C19.8157 24.3634 21 23.7832 21 22.75V5.24793Z" fill="#7D8198"/>
</svg>
