<svg width="28" height="28" viewBox="0 0 28 28" fill="none" xmlns="http://www.w3.org/2000/svg">
<path fill-rule="evenodd" clip-rule="evenodd" d="M4 6.75C4 5.23122 5.23122 4 6.75 4H21.25C22.7688 4 24 5.23122 24 6.75V21.25C24 22.7688 22.7688 24 21.25 24H6.75C5.23122 24 4 22.7688 4 21.25V6.75ZM18.25 17C17.8358 17 17.5 16.6642 17.5 16.25L17.5 11.5607L10.2803 18.7803C9.98744 19.0732 9.51256 19.0732 9.21967 18.7803C8.92678 18.4874 8.92678 18.0126 9.21967 17.7197L16.4393 10.5L11.75 10.5C11.3358 10.5 11 10.1642 11 9.75002C11 9.33581 11.3358 9.00002 11.75 9.00002L18.25 9C18.4489 9 18.6397 9.07902 18.7803 9.21967C18.921 9.36032 19 9.55109 19 9.75L19 16.25C19 16.6642 18.6642 17 18.25 17Z" fill="#7D8198"/>
</svg>
