<svg width="28" height="28" viewBox="0 0 28 28" fill="none" xmlns="http://www.w3.org/2000/svg">
<path fill-rule="evenodd" clip-rule="evenodd" d="M4 6.75C4 5.23122 5.23122 4 6.75 4H21.25C22.7688 4 24 5.23122 24 6.75V21.25C24 22.7688 22.7688 24 21.25 24H6.75C5.23122 24 4 22.7688 4 21.25V6.75ZM14.2047 9.23504C13.9203 9.53618 13.9339 10.0109 14.235 10.2953L17.3636 13.25H8.75C8.33579 13.25 8 13.5858 8 14C8 14.4142 8.33579 14.75 8.75 14.75H17.3635L14.235 17.7047C13.9339 17.9892 13.9203 18.4638 14.2047 18.765C14.4891 19.0661 14.9638 19.0797 15.2649 18.7953L19.7649 14.5452C19.915 14.4035 20 14.2063 20 13.9999C20 13.7936 19.9149 13.5963 19.7649 13.4547L15.2649 9.20474C14.9638 8.92033 14.4891 8.9339 14.2047 9.23504Z" fill="#7D8198"/>
</svg>
