<svg width="28" height="28" viewBox="0 0 28 28" fill="none" xmlns="http://www.w3.org/2000/svg">
<path fill-rule="evenodd" clip-rule="evenodd" d="M19.5 8C20.3284 8 21 7.32843 21 6.5C21 5.67157 20.3284 5 19.5 5C18.6716 5 18 5.67157 18 6.5C18 7.32843 18.6716 8 19.5 8ZM9.62067 9.53386L3.12082 21.5233C2.75959 22.1896 3.24201 22.9999 3.99994 22.9999H12.9834L13.0059 23.0002H23.9941C24.7751 23.0002 25.2547 22.145 24.8474 21.4787L19.3532 12.4897C18.9633 11.8518 18.0367 11.8518 17.6468 12.4897L15.1734 16.5364L11.379 9.53404C11.0008 8.83601 9.99904 8.83591 9.62067 9.53386Z" fill="#F27637"/>
</svg>
