<svg width="28" height="28" viewBox="0 0 28 28" fill="none" xmlns="http://www.w3.org/2000/svg">
<path fill-rule="evenodd" clip-rule="evenodd" d="M4.00018 13.9971C4.00018 8.49391 8.49361 4 13.9972 4C19.5001 4 24.0002 8.49328 24.0002 13.9971C24.0002 19.5004 19.5007 24 13.9972 24C12.3518 24 10.7642 23.5883 9.39198 22.8805L5.59605 23.9543L5.59386 23.955C5.07915 24.0989 4.61766 23.8798 4.34631 23.5791C4.07962 23.2836 3.92075 22.8322 4.04975 22.3646L5.08188 18.5156C4.37363 17.1476 4.00018 15.6407 4.00018 13.9971ZM9.99994 14.9951C10.5522 14.9951 10.9999 14.5474 10.9999 13.9951C10.9999 13.4428 10.5522 12.9951 9.99994 12.9951C9.44765 12.9951 8.99994 13.4428 8.99994 13.9951C8.99994 14.5474 9.44765 14.9951 9.99994 14.9951ZM15.0046 13.9951C15.0046 14.5474 14.5569 14.9951 14.0046 14.9951C13.4523 14.9951 13.0046 14.5474 13.0046 13.9951C13.0046 13.4428 13.4523 12.9951 14.0046 12.9951C14.5569 12.9951 15.0046 13.4428 15.0046 13.9951ZM17.9999 14.9956C18.5522 14.9956 18.9999 14.5479 18.9999 13.9956C18.9999 13.4433 18.5522 12.9956 17.9999 12.9956C17.4477 12.9956 16.9999 13.4433 16.9999 13.9956C16.9999 14.5479 17.4477 14.9956 17.9999 14.9956Z" fill="#7D8198"/>
</svg>
