<svg width="28" height="28" viewBox="0 0 28 28" fill="none" xmlns="http://www.w3.org/2000/svg">
<path d="M6.75 4C5.23122 4 4 5.23122 4 6.75V14H10.2534C10.6462 14 10.9722 14.3029 11.0013 14.6943L11.0014 14.6953L11.003 14.7119C11.0048 14.7288 11.008 14.7571 11.0134 14.795C11.0242 14.8712 11.0435 14.9851 11.0764 15.1238C11.1429 15.4043 11.2612 15.77 11.4657 16.1284C11.8556 16.8119 12.5649 17.5 14 17.5C15.4352 17.5 16.1456 16.8117 16.5363 16.1279C16.7412 15.7694 16.8599 15.4037 16.9266 15.1232C16.9597 14.9844 16.9791 14.8705 16.99 14.7943C16.9954 14.7563 16.9986 14.7281 17.0004 14.7112L17.002 14.6946L17.0022 14.6932C17.0317 14.3023 17.3576 14 17.75 14H24V6.75C24 5.23122 22.7688 4 21.25 4H6.75Z" fill="#7D8198"/>
<path d="M24 15.5H18.3788C18.2879 15.8727 18.1262 16.369 17.8387 16.8721C17.2294 17.9383 16.0648 19 14 19C11.9351 19 10.7712 17.9381 10.1628 16.8716C9.87586 16.3687 9.71463 15.8726 9.62409 15.5H4V21.25C4 22.7688 5.23122 24 6.75 24H21.25C22.7688 24 24 22.7688 24 21.25V15.5Z" fill="#7D8198"/>
</svg>
