<svg width="28" height="28" viewBox="0 0 28 28" fill="none" xmlns="http://www.w3.org/2000/svg">
<path d="M14.7214 3.16968C14.6605 2.94344 14.3395 2.94344 14.2786 3.16968L14.0029 4.19388C13.8966 4.58843 13.5884 4.89663 13.1939 5.00285L12.1697 5.2786C11.9434 5.33951 11.9434 5.66049 12.1697 5.7214L13.1939 5.99715C13.5884 6.10337 13.8966 6.41157 14.0029 6.80612L14.2786 7.83032C14.3395 8.05656 14.6605 8.05656 14.7214 7.83032L14.9971 6.80612C15.1034 6.41157 15.4116 6.10337 15.8061 5.99715L16.8303 5.7214C17.0566 5.66049 17.0566 5.33951 16.8303 5.2786L15.8061 5.00285C15.4116 4.89663 15.1034 4.58843 14.9971 4.19388L14.7214 3.16968Z" fill="#7D8198"/>
<path d="M7.27697 8.17092C7.33833 7.94303 7.66167 7.94302 7.72303 8.17092L8.10531 9.59083C8.27652 10.2267 8.77325 10.7235 9.40917 10.8947L10.8291 11.277C11.057 11.3383 11.057 11.6617 10.8291 11.723L9.40917 12.1053C8.77325 12.2765 8.27652 12.7733 8.10531 13.4092L7.72303 14.8291C7.66167 15.057 7.33833 15.057 7.27697 14.8291L6.89469 13.4092C6.72348 12.7733 6.22675 12.2765 5.59083 12.1053L4.17092 11.723C3.94303 11.6617 3.94302 11.3383 4.17092 11.277L5.59083 10.8947C6.22675 10.7235 6.72348 10.2268 6.89469 9.59083L7.27697 8.17092Z" fill="#7D8198"/>
<path d="M17.2505 11.1912C17.3191 10.9363 17.6809 10.9363 17.7495 11.1912L18.5707 14.2412C18.858 15.3084 19.6916 16.142 20.7588 16.4293L23.8088 17.2505C24.0637 17.3191 24.0637 17.6809 23.8088 17.7495L20.7588 18.5707C19.6916 18.858 18.858 19.6916 18.5707 20.7588L17.7495 23.8088C17.6809 24.0637 17.3191 24.0637 17.2505 23.8088L16.4293 20.7588C16.142 19.6916 15.3084 18.858 14.2412 18.5707L11.1912 17.7495C10.9363 17.6809 10.9363 17.3191 11.1912 17.2505L14.2412 16.4293C15.3084 16.142 16.142 15.3084 16.4293 14.2412L17.2505 11.1912Z" fill="#7D8198"/>
</svg>
