<svg width="28" height="28" viewBox="0 0 28 28" fill="none" xmlns="http://www.w3.org/2000/svg">
<path fill-rule="evenodd" clip-rule="evenodd" d="M4 21.25C4 22.7688 5.23122 24 6.75 24H21.25C22.7688 24 24 22.7688 24 21.25V6.75C24 5.23122 22.7688 4 21.25 4H6.75C5.23122 4 4 5.23122 4 6.75V21.25ZM11.2349 9.29724C10.9353 9.01129 10.9241 8.53654 11.2101 8.23687C11.4961 7.9372 11.9708 7.92608 12.2705 8.21204L17.7678 13.4577C17.916 13.5992 18 13.7952 18 14.0002C18 14.2051 17.9162 14.4012 17.768 14.5427L12.2707 19.7924C11.9711 20.0785 11.4964 20.0675 11.2103 19.768C10.9242 19.4684 10.9352 18.9937 11.2347 18.7076L16.1638 14.0005L11.2349 9.29724Z" fill="#7D8198"/>
</svg>
