<svg width="28" height="28" viewBox="0 0 28 28" fill="none" xmlns="http://www.w3.org/2000/svg">
<path d="M10.5374 6.3055C10.1912 7.13488 9.99998 8.04511 9.99998 9C9.99998 10.5764 10.521 12.031 11.4003 13.2011C10.732 13.7028 9.90144 14 9.00146 14C6.79233 14 5.00146 12.2091 5.00146 10C5.00146 7.79086 6.79233 6 9.00146 6C9.54566 6 10.0645 6.10868 10.5374 6.3055Z" fill="#7D8198"/>
<path d="M10.2736 16.1007C9.49757 16.6506 8.83356 17.2626 8.27525 17.8779C7.16336 19.1033 6.80755 20.6122 7.09563 22.0007H5.46305C4.53882 22.0007 3.72255 21.5467 3.29902 20.8434C2.85502 20.1062 2.88885 19.1578 3.56968 18.4007C4.65946 17.1888 6.40586 16.0007 9.00476 16.0007C9.45271 16.0007 9.87532 16.036 10.2736 16.1007Z" fill="#7D8198"/>
<path d="M12 9C12 6.23858 14.2386 4 17 4C19.7614 4 22 6.23858 22 9C22 11.7614 19.7614 14 17 14C14.2386 14 12 11.7614 12 9Z" fill="#7D8198"/>
<path d="M9.75637 19.2219C11.2488 17.5772 13.5846 16.0007 17.0013 16.0007C20.4193 16.0007 22.7542 17.5783 24.2452 19.2238C25.1596 20.233 25.1949 21.4764 24.6106 22.4437C24.0471 23.3766 22.948 23.9991 21.6817 23.9991H12.3185C11.0515 23.9991 9.95217 23.3761 9.38885 22.4426C8.80476 21.4747 8.84085 20.2308 9.75637 19.2219Z" fill="#7D8198"/>
</svg>
