<svg width="28" height="28" viewBox="0 0 28 28" fill="none" xmlns="http://www.w3.org/2000/svg">
<path fill-rule="evenodd" clip-rule="evenodd" d="M6.75 5.9978C4.67893 5.9978 3 7.67673 3 9.7478V18.2478C3 20.3189 4.67893 21.9978 6.75 21.9978H21.25C23.3211 21.9978 25 20.3189 25 18.2478V9.7478C25 7.67673 23.3211 5.9978 21.25 5.9978H6.75ZM8.99695 18.9956C8.99695 18.4433 9.44466 17.9956 9.99695 17.9956H17.9969C18.5492 17.9956 18.9969 18.4433 18.9969 18.9956C18.9969 19.5479 18.5492 19.9956 17.9969 19.9956H9.99695C9.44466 19.9956 8.99695 19.5479 8.99695 18.9956ZM9.5 15.4978C10.1904 15.4978 10.75 14.9382 10.75 14.2478C10.75 13.5574 10.1904 12.9978 9.5 12.9978C8.80964 12.9978 8.25 13.5574 8.25 14.2478C8.25 14.9382 8.80964 15.4978 9.5 15.4978ZM8.5 10.25C8.5 10.9404 7.94036 11.5 7.25 11.5C6.55964 11.5 6 10.9404 6 10.25C6 9.55964 6.55964 9 7.25 9C7.94036 9 8.5 9.55964 8.5 10.25ZM14.0002 15.4978C14.6906 15.4978 15.2502 14.9382 15.2502 14.2478C15.2502 13.5574 14.6906 12.9978 14.0002 12.9978C13.3099 12.9978 12.7502 13.5574 12.7502 14.2478C12.7502 14.9382 13.3099 15.4978 14.0002 15.4978ZM13 10.25C13 10.9404 12.4404 11.5 11.75 11.5C11.0596 11.5 10.5 10.9404 10.5 10.25C10.5 9.55964 11.0596 9 11.75 9C12.4404 9 13 9.55964 13 10.25ZM18.5 15.4978C19.1904 15.4978 19.75 14.9382 19.75 14.2478C19.75 13.5574 19.1904 12.9978 18.5 12.9978C17.8096 12.9978 17.25 13.5574 17.25 14.2478C17.25 14.9382 17.8096 15.4978 18.5 15.4978ZM22 10.25C22 10.9404 21.4404 11.5 20.75 11.5C20.0596 11.5 19.5 10.9404 19.5 10.25C19.5 9.55964 20.0596 9 20.75 9C21.4404 9 22 9.55964 22 10.25ZM16.25 11.5C16.9404 11.5 17.5 10.9404 17.5 10.25C17.5 9.55964 16.9404 9 16.25 9C15.5596 9 15 9.55964 15 10.25C15 10.9404 15.5596 11.5 16.25 11.5Z" fill="#7D8198"/>
</svg>
