<svg width="28" height="29" viewBox="0 0 28 29" fill="none" xmlns="http://www.w3.org/2000/svg">
<path fill-rule="evenodd" clip-rule="evenodd" d="M21.25 6.48999C22.7688 6.48999 24 7.72121 24 9.23999V19.74C24 21.2588 22.7688 22.49 21.25 22.49H6.75C5.23122 22.49 4 21.2588 4 19.74V9.23999C4 7.72121 5.23122 6.48999 6.75 6.48999H21.25ZM20.25 11.49C19.8358 11.49 19.5 11.8258 19.5 12.24V16.74C19.5 17.1542 19.8358 17.49 20.25 17.49C20.6642 17.49 21 17.1542 21 16.74V12.24C21 11.8258 20.6642 11.49 20.25 11.49Z" fill="#7D8198"/>
</svg>
