<svg width="28" height="28" viewBox="0 0 28 28" fill="none" xmlns="http://www.w3.org/2000/svg">
<path fill-rule="evenodd" clip-rule="evenodd" d="M5.5 6.75C5.5 6.05965 6.05964 5.5 6.75 5.5H8.25C8.66421 5.5 9 5.16421 9 4.75C9 4.33579 8.66421 4 8.25 4H6.75C5.23122 4 4 5.23122 4 6.75V8.25155C4 8.66576 4.33579 9.00155 4.75 9.00155C5.16421 9.00155 5.5 8.66576 5.5 8.25155V6.75ZM22.5 6.75V8.25C22.5 8.66421 22.8358 9 23.25 9C23.6642 9 24 8.66421 24 8.25V6.75C24 5.23122 22.7688 4 21.25 4H19.7484C19.3342 4 18.9984 4.33579 18.9984 4.75C18.9984 5.16421 19.3342 5.5 19.7484 5.5H21.25C21.9404 5.5 22.5 6.05964 22.5 6.75ZM6.75 22.5C6.05964 22.5 5.5 21.9404 5.5 21.25V19.75C5.5 19.3358 5.16421 19 4.75 19C4.33579 19 4 19.3358 4 19.75V21.25C4 22.7688 5.23122 24 6.75 24H8.25C8.66421 24 9 23.6642 9 23.25C9 22.8358 8.66421 22.5 8.25 22.5H6.75ZM22.5 21.25V19.75C22.5 19.3358 22.8358 19 23.25 19C23.6642 19 24 19.3358 24 19.75V21.25C24 22.7688 22.7688 24 21.25 24H19.75C19.3358 24 19 23.6642 19 23.25C19 22.8358 19.3358 22.5 19.75 22.5H21.25C21.9404 22.5 22.5 21.9404 22.5 21.25ZM23.25 17C22.8358 17 22.5 16.6642 22.5 16.25V11.75C22.5 11.3358 22.8358 11 23.25 11C23.6642 11 24 11.3358 24 11.75V16.25C24 16.6642 23.6642 17 23.25 17ZM4 16.25C4 16.6642 4.33579 17 4.75 17C5.16421 17 5.5 16.6642 5.5 16.25V11.75C5.5 11.3358 5.16421 11 4.75 11C4.33579 11 4 11.3358 4 11.75V16.25ZM11 4.75C11 4.33579 11.3358 4 11.75 4H16.25C16.6642 4 17 4.33579 17 4.75C17 5.16421 16.6642 5.5 16.25 5.5L11.75 5.5C11.3358 5.5 11 5.16421 11 4.75ZM11.75 22.5C11.3358 22.5 11 22.8358 11 23.25C11 23.6642 11.3358 24 11.75 24H16.25C16.6642 24 17 23.6642 17 23.25C17 22.8358 16.6642 22.5 16.25 22.5H11.75Z" fill="#7D8198"/>
</svg>
