<svg width="28" height="28" viewBox="0 0 28 28" fill="none" xmlns="http://www.w3.org/2000/svg">
<path d="M8.75 8C8.33579 8 8 8.33579 8 8.75V19.25C8 19.6642 8.33579 20 8.75 20H11.25C11.6642 20 12 19.6642 12 19.25V8.75C12 8.33579 11.6642 8 11.25 8H8.75Z" fill="#7D8198"/>
<path d="M15.6565 13.25L17.7568 11.2996C18.0603 11.0177 18.0779 10.5432 17.796 10.2397C17.5142 9.93613 17.0396 9.91856 16.7361 10.2004L13.2361 13.4506C13.0833 13.5925 12.9965 13.7916 12.9965 14.0002C12.9965 14.2087 13.0833 14.4079 13.2361 14.5498L16.7361 17.7996C17.0397 18.0815 17.5142 18.0639 17.7961 17.7603C18.0779 17.4568 18.0603 16.9822 17.7568 16.7004L15.6563 14.75H20.2465C20.6607 14.75 20.9965 14.4142 20.9965 14C20.9965 13.5858 20.6607 13.25 20.2465 13.25H15.6565Z" fill="#7D8198"/>
<path fill-rule="evenodd" clip-rule="evenodd" d="M4 6.75C4 5.23122 5.23122 4 6.75 4H21.25C22.7688 4 24 5.23122 24 6.75V21.25C24 22.7688 22.7688 24 21.25 24H6.75C5.23122 24 4 22.7688 4 21.25V6.75ZM6.75 5.5C6.05964 5.5 5.5 6.05964 5.5 6.75V21.25C5.5 21.9404 6.05964 22.5 6.75 22.5H21.25C21.9404 22.5 22.5 21.9404 22.5 21.25V6.75C22.5 6.05964 21.9404 5.5 21.25 5.5H6.75Z" fill="#7D8198"/>
</svg>
