<svg width="28" height="28" viewBox="0 0 28 28" fill="none" xmlns="http://www.w3.org/2000/svg">
<path fill-rule="evenodd" clip-rule="evenodd" d="M4 9.75C4 9.33579 4.33579 9 4.75 9C5.90805 9 7.05373 9.26932 8.10202 9.7333C9.15967 10.2014 10.1173 10.8861 10.9217 11.7456C11.726 12.605 12.3615 13.6226 12.7944 14.7391C12.8243 14.8163 12.8535 14.8939 12.8819 14.972C13.1404 14.5566 13.4475 14.1717 13.7976 13.8255C14.3856 13.2442 15.0831 12.7835 15.8501 12.4694C16.6189 12.1545 17.4221 12 18.25 12C18.6642 12 19 12.3358 19 12.75C19 13.1642 18.6642 13.5 18.25 13.5C17.613 13.5 17.0032 13.618 16.4186 13.8575C15.8323 14.0976 15.3002 14.4493 14.8523 14.8922C14.4044 15.335 14.0496 15.8602 13.8077 16.4377C13.5798 16.9818 13.5 17.5816 13.5 18.25C13.5 18.6642 13.1642 19 12.75 19C12.3358 19 12 18.6642 12 18.25C12 17.2499 11.7698 16.2463 11.3958 15.2813C11.0306 14.3394 10.4966 13.4866 9.82648 12.7705C9.15644 12.0546 8.36369 11.4895 7.49492 11.105C6.61679 10.7163 5.6771 10.5 4.75 10.5C4.33579 10.5 4 10.1642 4 9.75ZM22.5 14C23.3284 14 24 13.3284 24 12.5C24 11.6716 23.3284 11 22.5 11C21.6716 11 21 11.6716 21 12.5C21 13.3284 21.6716 14 22.5 14Z" fill="#7D8198"/>
</svg>
