<svg width="28" height="28" viewBox="0 0 28 28" fill="none" xmlns="http://www.w3.org/2000/svg">
<path fill-rule="evenodd" clip-rule="evenodd" d="M8.75 3C7.23122 3 6 4.23122 6 5.75V21.25C6 22.7688 7.23122 24 8.75 24H19.25C20.7688 24 22 22.7688 22 21.25V10.5784C22 9.84908 21.7103 9.14961 21.1945 8.63388L16.3661 3.80546C15.8504 3.28973 15.1509 3 14.4216 3H8.75ZM7.5 5.75C7.5 5.05964 8.05964 4.5 8.75 4.5H14V9.25C14 10.2165 14.7835 11 15.75 11H20.5V21.25C20.5 21.9404 19.9404 22.5 19.25 22.5H8.75C8.05964 22.5 7.5 21.9404 7.5 21.25V5.75ZM19.9393 9.5L15.5 5.06066V9.25C15.5 9.38807 15.6119 9.5 15.75 9.5H19.9393Z" fill="#7D8198"/>
</svg>
