<svg width="28" height="28" viewBox="0 0 28 28" fill="none" xmlns="http://www.w3.org/2000/svg">
<path fill-rule="evenodd" clip-rule="evenodd" d="M16.9144 4.28148C17.0567 4.10357 17.2722 4 17.5 4H20.25C20.6642 4 21 4.33579 21 4.75C21 5.16421 20.6642 5.5 20.25 5.5H17.8605L17.5165 5.93003C18.0549 6.23667 18.5514 6.61306 18.9923 7.05025C19.6479 7.70026 20.168 8.47194 20.5228 9.32122C20.7541 9.87485 20.9045 10.5366 20.9856 11.1565C21.1083 12.0945 20.4305 12.8176 19.6151 12.9702L18.4787 21.6099C18.2989 22.9773 17.1285 24 15.7433 24H12.2409C10.8566 24 9.68658 22.9786 9.5057 21.6121L8.36116 12.9656C7.55638 12.8035 6.89293 12.0854 7.01442 11.1565C7.09549 10.5366 7.24593 9.87484 7.47722 9.32122C7.83203 8.47194 8.35208 7.70026 9.00768 7.05025C9.66328 6.40024 10.4416 5.88463 11.2982 5.53284C12.1548 5.18106 13.0728 5 14 5C14.7094 5 15.4135 5.10601 16.0889 5.31338L16.9144 4.28148ZM9.88356 13L10.9976 21.4163C11.0798 22.0375 11.6117 22.5017 12.2409 22.5017H15.7433C16.3729 22.5017 16.9049 22.0369 16.9867 21.4153L18.0935 13H9.88356ZM11.8771 6.91866C12.5502 6.64226 13.2715 6.5 14 6.5C14.7285 6.5 15.4498 6.64226 16.1229 6.91866C16.7959 7.19506 17.4074 7.60019 17.9225 8.11091C18.4377 8.62163 18.8463 9.22795 19.125 9.89524C19.2897 10.2892 19.4151 10.8128 19.4852 11.3494C19.4897 11.3835 19.4814 11.4104 19.4543 11.4385C19.4232 11.4708 19.368 11.5 19.2952 11.5H8.70483C8.63201 11.5 8.57679 11.4708 8.54566 11.4385C8.51857 11.4104 8.5103 11.3835 8.51476 11.3494C8.58494 10.8128 8.71035 10.2892 8.87496 9.89524C9.15374 9.22795 9.56235 8.62164 10.0775 8.11091C10.5926 7.60019 11.2041 7.19506 11.8771 6.91866Z" fill="#7D8198"/>
</svg>
