<svg width="28" height="28" viewBox="0 0 28 28" fill="none" xmlns="http://www.w3.org/2000/svg">
<path d="M7.75 7C7.97212 7 8.1717 6.90344 8.30903 6.75H13.25V11.2492C13.25 11.6635 13.5858 11.9992 14 11.9992C14.4142 11.9992 14.75 11.6635 14.75 11.2492V6.75H19.69C19.8273 6.90344 20.0269 7 20.249 7C20.6632 7 20.999 6.66421 20.999 6.25V5.75C20.999 5.33579 20.6632 5 20.249 5C20.0269 5 19.8273 5.09656 19.69 5.25L8.30903 5.25C8.1717 5.09656 7.97213 5 7.75 5C7.33579 5 7 5.33579 7 5.75L7 6.25C7 6.66421 7.33579 7 7.75 7Z" fill="#7D8198"/>
<path d="M13.25 21.5V15.5H5.75C5.33579 15.5 5 15.1642 5 14.75C5 14.3358 5.33579 14 5.75 14H22.25C22.6642 14 23 14.3358 23 14.75C23 15.1642 22.6642 15.5 22.25 15.5H14.75V21.5H16.25C16.6642 21.5 17 21.8358 17 22.25C17 22.6642 16.6642 23 16.25 23H11.75C11.3358 23 11 22.6642 11 22.25C11 21.8358 11.3358 21.5 11.75 21.5H13.25Z" fill="#7D8198"/>
</svg>
