<svg width="28" height="28" viewBox="0 0 28 28" fill="none" xmlns="http://www.w3.org/2000/svg">
    <path fill-rule="evenodd" clip-rule="evenodd"
        d="M14.2917 11.6666C14.0596 11.6666 13.837 11.5744 13.6729 11.4103L10.7563 8.49368C10.4146 8.15197 10.4146 7.59795 10.7563 7.25624C11.098 6.91453 11.652 6.91453 11.9937 7.25624L14.2917 9.55419L16.5896 7.25624C16.9313 6.91453 17.4853 6.91453 17.8271 7.25624C18.1688 7.59795 18.1688 8.15197 17.8271 8.49368L14.9104 11.4103C14.7463 11.5744 14.5237 11.6666 14.2917 11.6666Z"
        fill="#C1C2D9" />
    <path fill-rule="evenodd" clip-rule="evenodd"
        d="M14.2917 16.3334C14.0596 16.3334 13.837 16.4256 13.6729 16.5897L10.7563 19.5063C10.4146 19.848 10.4146 20.4021 10.7563 20.7438C11.098 21.0855 11.652 21.0855 11.9937 20.7438L14.2917 18.4458L16.5896 20.7438C16.9313 21.0855 17.4853 21.0855 17.8271 20.7438C18.1688 20.4021 18.1688 19.848 17.8271 19.5063L14.9104 16.5897C14.7463 16.4256 14.5237 16.3334 14.2917 16.3334Z"
        fill="#C1C2D9" />
</svg>
