<svg width="28" height="28" viewBox="0 0 28 28" fill="none" xmlns="http://www.w3.org/2000/svg">
<path fill-rule="evenodd" clip-rule="evenodd" d="M19.25 3C20.7688 3 22 4.23122 22 5.75V22.25C22 23.7688 20.7688 25 19.25 25H8.75C7.23122 25 6 23.7688 6 22.25L6 5.75C6 4.23122 7.23122 3 8.75 3L19.25 3ZM20.5 5.75C20.5 5.05964 19.9404 4.5 19.25 4.5L8.75 4.5C8.05965 4.5 7.5 5.05964 7.5 5.75L7.5 22.25C7.5 22.9404 8.05964 23.5 8.75 23.5H19.25C19.9404 23.5 20.5 22.9404 20.5 22.25L20.5 5.75Z" fill="#7D8198"/>
</svg>
