<svg width="28" height="28" viewBox="0 0 28 28" fill="none" xmlns="http://www.w3.org/2000/svg">
<path d="M17.25 13.75C17.25 13.3358 16.9142 13 16.5 13C16.0858 13 15.75 13.3358 15.75 13.75V15.75H13.75C13.3358 15.75 13 16.0858 13 16.5C13 16.9142 13.3358 17.25 13.75 17.25H15.75V19.25C15.75 19.6642 16.0858 20 16.5 20C16.9142 20 17.25 19.6642 17.25 19.25V17.25H19.25C19.6642 17.25 20 16.9142 20 16.5C20 16.0858 19.6642 15.75 19.25 15.75H17.25V13.75Z" fill="#7D8198"/>
<path fill-rule="evenodd" clip-rule="evenodd" d="M5.75 3C4.23122 3 3 4.23122 3 5.75V17.25C3 18.7688 4.23122 20 5.75 20H8V22.25C8 23.7688 9.23122 25 10.75 25H22.25C23.7688 25 25 23.7688 25 22.25V10.75C25 9.23122 23.7688 8 22.25 8H20V5.75C20 4.23122 18.7688 3 17.25 3H5.75ZM18.5 8V5.75C18.5 5.05964 17.9404 4.5 17.25 4.5H5.75C5.05964 4.5 4.5 5.05964 4.5 5.75V17.25C4.5 17.9404 5.05964 18.5 5.75 18.5H8V10.75C8 9.23122 9.23122 8 10.75 8H18.5ZM9.5 10.75C9.5 10.0596 10.0596 9.5 10.75 9.5H22.25C22.9404 9.5 23.5 10.0596 23.5 10.75V22.25C23.5 22.9404 22.9404 23.5 22.25 23.5H10.75C10.0596 23.5 9.5 22.9404 9.5 22.25V10.75Z" fill="#7D8198"/>
</svg>
