<svg width="28" height="28" viewBox="0 0 28 28" fill="none" xmlns="http://www.w3.org/2000/svg">
<path fill-rule="evenodd" clip-rule="evenodd" d="M3.99902 6.75C3.99902 5.23122 5.23024 4 6.74902 4H21.249C22.7678 4 23.999 5.23122 23.999 6.75V12.253C23.999 12.6672 23.6632 13.003 23.249 13.003C22.8348 13.003 22.499 12.6672 22.499 12.253V9.49866H5.49902V21.25C5.49902 21.9404 6.05867 22.5 6.74902 22.5H12.25C12.6642 22.5 13 22.8358 13 23.25C13 23.6642 12.6642 24 12.25 24H6.74902C5.23024 24 3.99902 22.7688 3.99902 21.25V6.75ZM22.499 6.75V7.99866H19.0452L17.2956 5.5H21.249C21.9394 5.5 22.499 6.05964 22.499 6.75ZM12.6769 7.99866H17.214L15.4644 5.5H10.9273L12.6769 7.99866ZM9.09617 5.5L10.8457 7.99866H5.49902V6.75C5.49902 6.05964 6.05867 5.5 6.74902 5.5H9.09617Z" fill="#7D8198"/>
<path d="M17.7473 17.0014H22.2473C22.6615 17.0014 22.9973 17.3372 22.9973 17.7514C22.9973 18.1656 22.6615 18.5014 22.2473 18.5014L19.5613 18.5014L24.7818 23.7224C25.0747 24.0153 25.0746 24.4902 24.7817 24.783C24.4888 25.0759 24.014 25.0759 23.7211 24.783L18.4973 19.5587L18.4973 22.2514C18.4973 22.6656 18.1615 23.0014 17.7473 23.0014C17.3331 23.0014 16.9973 22.6656 16.9973 22.2514L16.9973 17.7514C16.9973 17.5525 17.0763 17.3617 17.217 17.2211C17.3576 17.0804 17.5484 17.0014 17.7473 17.0014Z" fill="#7D8198"/>
</svg>
