<svg width="28" height="28" viewBox="0 0 28 28" fill="none" xmlns="http://www.w3.org/2000/svg">
<path fill-rule="evenodd" clip-rule="evenodd" d="M4 20.1643V7.75C4 6.23122 5.23122 5 6.75 5H11.3944C11.9374 5 12.4681 5.1607 12.9199 5.46186L14.9122 6.79006C15.1175 6.92695 15.3588 7 15.6056 7H22.25C23.7688 7 25 8.23122 25 9.75V11.6297C25.7932 12.2879 26.2004 13.3762 25.9006 14.4743L24.1258 20.9744C23.7992 22.1704 22.7127 23 21.4729 23H6.75004C5.15851 23 3.9495 21.6718 4 20.1643ZM5.5 7.75C5.5 7.05964 6.05964 6.5 6.75 6.5H11.3944C11.6412 6.5 11.8825 6.57305 12.0878 6.70994L14.0801 8.03814C14.5319 8.3393 15.0626 8.5 15.6056 8.5H22.25C22.9404 8.5 23.5 9.05964 23.5 9.75V11.0113C23.4171 11.0038 23.3329 11 23.2477 11H8.52672C7.28718 11 6.20085 11.8292 5.87403 13.0249L5.5 14.3933V7.75ZM5.5 20.25V20.2116C5.50317 20.1157 5.51756 20.0181 5.54427 19.9204L7.32095 13.4204C7.4695 12.8769 7.96329 12.5 8.52672 12.5H23.2477C24.072 12.5 24.6707 13.284 24.4535 14.0792L22.6788 20.5793C22.5303 21.1229 22.0364 21.5 21.4729 21.5H6.75004C6.04036 21.5 5.49868 20.919 5.5 20.25Z" fill="#7D8198"/>
</svg>
