<svg width="28" height="28" viewBox="0 0 28 28" fill="none" xmlns="http://www.w3.org/2000/svg">
<path d="M14.75 20.3879L19.7094 15.2302C19.9965 14.9316 20.4713 14.9223 20.7698 15.2094C21.0684 15.4965 21.0777 15.9713 20.7906 16.2698L14.5407 22.7698C14.3993 22.9169 14.204 23 14 23C13.796 23 13.6008 22.9169 13.4594 22.7698L7.20938 16.2698C6.92228 15.9713 6.93159 15.4965 7.23017 15.2094C7.52875 14.9223 8.00353 14.9316 8.29062 15.2302L13.25 20.3879V5.75C13.25 5.33579 13.5858 5 14 5C14.4142 5 14.75 5.33579 14.75 5.75V20.3879Z" fill="#7D8198"/>
</svg>
