<svg width="28" height="28" viewBox="0 0 28 28" fill="none" xmlns="http://www.w3.org/2000/svg">
<path fill-rule="evenodd" clip-rule="evenodd" d="M6.75 4H23.25C23.5315 4 23.7892 4.15757 23.9175 4.40807C24.0458 4.65857 24.0231 4.95982 23.8587 5.18823L19.6742 11L23.8587 16.8118C24.0231 17.0402 24.0458 17.3414 23.9175 17.5919C23.7892 17.8424 23.5315 18 23.25 18H7.5V23.25C7.5 23.6642 7.16421 24 6.75 24C6.33579 24 6 23.6642 6 23.25V4.75C6 4.33579 6.33579 4 6.75 4ZM7.5 16.5H21.7858L18.1413 11.4382C17.9529 11.1765 17.9529 10.8235 18.1413 10.5618L21.7858 5.5H7.5V16.5Z" fill="#7D8198"/>
</svg>
