<svg width="28" height="28" viewBox="0 0 28 28" fill="none" xmlns="http://www.w3.org/2000/svg">
<path d="M11.1198 9.09737C10.7594 8.89316 10.3017 9.01975 10.0975 9.38013C9.89328 9.7405 10.0199 10.1982 10.3802 10.4024L16.7288 13.9999L10.3802 17.5974C10.0199 17.8016 9.89328 18.2593 10.0975 18.6196C10.3017 18.98 10.7594 19.1066 11.1198 18.9024L18.6198 14.6524C18.8548 14.5192 19 14.27 19 13.9999C19 13.7298 18.8548 13.4805 18.6198 13.3474L11.1198 9.09737Z" fill="#7D8198"/>
<path fill-rule="evenodd" clip-rule="evenodd" d="M6.75 4C5.23122 4 4 5.23122 4 6.75V21.25C4 22.7688 5.23122 24 6.75 24H21.25C22.7688 24 24 22.7688 24 21.25V6.75C24 5.23122 22.7688 4 21.25 4H6.75ZM5.5 6.75C5.5 6.05964 6.05964 5.5 6.75 5.5H21.25C21.9404 5.5 22.5 6.05964 22.5 6.75V21.25C22.5 21.9404 21.9404 22.5 21.25 22.5H6.75C6.05964 22.5 5.5 21.9404 5.5 21.25V6.75Z" fill="#7D8198"/>
</svg>
