<svg width="28" height="28" viewBox="0 0 28 28" fill="none" xmlns="http://www.w3.org/2000/svg">
    <path fill-rule="evenodd" clip-rule="evenodd"
        d="M20.3318 4.79163C21.9204 4.79163 23.2083 6.07953 23.2083 7.66808V20.3318C23.2083 21.9204 21.9204 23.2083 20.3318 23.2083H7.66808C6.07953 23.2083 4.79163 21.9204 4.79163 20.3318V7.66808C4.79163 6.07953 6.07953 4.79163 7.66808 4.79163H20.3318ZM21.7083 7.66808C21.7083 6.90796 21.092 6.29163 20.3318 6.29163H7.66808C6.90796 6.29163 6.29163 6.90796 6.29163 7.66808V20.3318C6.29163 21.092 6.90796 21.7083 7.66808 21.7083H20.3318C21.092 21.7083 21.7083 21.092 21.7083 20.3318V7.66808ZM8.16663 8.99996V19C8.16663 19.4602 8.53972 19.8333 8.99996 19.8333H10.8333C11.2935 19.8333 11.6666 19.4602 11.6666 19V8.99996C11.6666 8.53972 11.2935 8.16663 10.8333 8.16663H8.99996C8.53972 8.16663 8.16663 8.53972 8.16663 8.99996ZM15.6648 13.25L17.3011 11.6136C17.594 11.3207 17.594 10.8459 17.3011 10.553C17.0082 10.2601 16.5334 10.2601 16.2405 10.553L13.3238 13.4696C13.0309 13.7625 13.0309 14.2374 13.3238 14.5303L16.2405 17.447C16.5334 17.7399 17.0082 17.7399 17.3011 17.447C17.594 17.1541 17.594 16.6792 17.3011 16.3863L15.6648 14.75H19.9791C20.3934 14.75 20.7291 14.4142 20.7291 14C20.7291 13.5857 20.3934 13.25 19.9791 13.25H15.6648Z"
        fill="#BCBED2" />
</svg>
