<svg width="28" height="28" viewBox="0 0 28 28" fill="none" xmlns="http://www.w3.org/2000/svg">
<path d="M17.1169 5.02588C15.1019 4.32602 12.91 4.32467 10.8941 5.02206C8.87824 5.71945 7.15573 7.07498 6.00395 8.87039C4.85217 10.6658 4.33814 12.7966 4.54463 14.9197C4.75113 17.0427 5.66614 19.0345 7.14231 20.5743C8.61849 22.1141 10.5699 23.1123 12.6824 23.4082C14.7949 23.704 16.9455 23.2803 18.7878 22.2053C20.6302 21.1302 22.0572 19.4664 22.839 17.4818C22.9908 17.0964 23.4263 16.907 23.8117 17.0588C24.1971 17.2106 24.3864 17.6461 24.2346 18.0315C23.3294 20.3295 21.6771 22.2561 19.5438 23.5009C17.4105 24.7456 14.9204 25.2362 12.4744 24.8937C10.0283 24.5511 7.76878 23.3953 6.05952 21.6124C4.35026 19.8295 3.29078 17.5232 3.05168 15.0649C2.81258 12.6066 3.40777 10.1393 4.74141 8.06045C6.07506 5.98155 8.06954 4.41199 10.4037 3.60449C12.7379 2.79699 15.2759 2.79855 17.6091 3.60891C19.5299 4.27607 21.2199 5.45946 22.5 7.01783V4.75C22.5 4.33579 22.8358 4 23.25 4C23.6642 4 24 4.33579 24 4.75V9.25C24 9.66421 23.6642 10 23.25 10H18.75C18.3358 10 18 9.66421 18 9.25C18 8.83579 18.3358 8.5 18.75 8.5H21.746C20.6041 6.8918 18.9872 5.67548 17.1169 5.02588Z" fill="#7D8198"/>
<path fill-rule="evenodd" clip-rule="evenodd" d="M12.9018 10.1854C12.0689 9.67634 11 10.2758 11 11.252V16.7489C11 17.7249 12.0687 18.3244 12.9016 17.8156L17.3999 15.0677C18.1977 14.5804 18.1978 13.4218 17.4001 12.9344L12.9018 10.1854ZM12.5 16.3032V11.6977L16.2688 14.0009L12.5 16.3032Z" fill="#7D8198"/>
</svg>
