<svg width="28" height="28" viewBox="0 0 28 28" fill="none" xmlns="http://www.w3.org/2000/svg">
<path d="M9.75 4C9.33579 4 9 4.33579 9 4.75C9 5.16421 9.33579 5.5 9.75 5.5H18.25C18.6642 5.5 19 5.16421 19 4.75C19 4.33579 18.6642 4 18.25 4H9.75Z" fill="#7D8198"/>
<path d="M6 7.25C6 6.83579 6.33579 6.5 6.75 6.5H21.25C21.6642 6.5 22 6.83579 22 7.25C22 7.66421 21.6642 8 21.25 8H6.75C6.33579 8 6 7.66421 6 7.25Z" fill="#7D8198"/>
<path fill-rule="evenodd" clip-rule="evenodd" d="M4 11.75C4 10.2312 5.23122 9 6.75 9H21.25C22.7688 9 24 10.2312 24 11.75V21.25C24 22.7688 22.7688 24 21.25 24H6.75C5.23122 24 4 22.7688 4 21.25V11.75ZM6.75 10.5C6.05964 10.5 5.5 11.0596 5.5 11.75V21.25C5.5 21.9404 6.05964 22.5 6.75 22.5H21.25C21.9404 22.5 22.5 21.9404 22.5 21.25V11.75C22.5 11.0596 21.9404 10.5 21.25 10.5H6.75Z" fill="#7D8198"/>
</svg>
