<svg width="28" height="28" viewBox="0 0 28 28" fill="none" xmlns="http://www.w3.org/2000/svg">
<path fill-rule="evenodd" clip-rule="evenodd" d="M14 2.99658C10.042 2.99658 6.83333 6.20521 6.83333 10.1633V13.828C6.83241 14.5182 6.7385 14.9719 6.62552 15.2641C6.51637 15.5464 6.30261 15.8653 6.01132 16.2899L5.99878 16.3082C5.79056 16.6117 5.54812 16.965 5.36064 17.3288C5.16931 17.7 5 18.1464 5 18.6364C5 19.9399 6.05671 20.9966 7.36023 20.9966H11.0022C11.0024 21.3904 11.0799 21.7804 11.2302 22.1443C11.3808 22.5087 11.6015 22.84 11.8798 23.1191C12.1582 23.3983 12.4888 23.6198 12.8528 23.771C13.2168 23.9222 13.607 24 14.0011 24C14.3952 24 14.7854 23.9222 15.1494 23.771C15.5134 23.6198 15.844 23.3983 16.1224 23.1191C16.4007 22.84 16.6215 22.5087 16.772 22.1443C16.9223 21.7804 16.9998 21.3904 17 20.9966H20.6398C21.9433 20.9966 23 19.9399 23 18.6364C23 18.1464 22.8307 17.7 22.6394 17.3288C22.4519 16.965 22.2094 16.6117 22.0012 16.3082L21.9887 16.2899C21.6974 15.8653 21.4836 15.5464 21.3745 15.2641C21.2609 14.9704 21.1667 14.5137 21.1667 13.8178L21.1667 13.8103V10.1632C21.1667 6.20521 17.958 2.99658 14 2.99658ZM8.33333 10.1633C8.33333 7.03364 10.8704 4.49658 14 4.49658C17.1296 4.49658 19.6667 7.03364 19.6667 10.1632L19.6667 13.8178C19.6667 14.6397 19.7767 15.2912 19.9754 15.805C20.1546 16.2685 20.4686 16.726 20.7261 17.101L20.7518 17.1384C20.9744 17.4629 21.1658 17.7439 21.306 18.016C21.4462 18.2879 21.5 18.4867 21.5 18.6364C21.5 19.1115 21.1149 19.4966 20.6398 19.4966H7.36023C6.88514 19.4966 6.5 19.1115 6.5 18.6364C6.5 18.4867 6.5538 18.2879 6.69396 18.016C6.8342 17.7439 7.02564 17.4629 7.24824 17.1384L7.27392 17.101C7.53137 16.726 7.84538 16.2685 8.02459 15.805C8.22233 15.2936 8.33229 14.6458 8.33333 13.8295L8.33333 10.1633ZM15.5 20.9966H12.5022C12.5024 21.194 12.5413 21.3894 12.6166 21.5716C12.6921 21.7543 12.8027 21.9203 12.9419 22.0599C13.0812 22.1996 13.2465 22.3102 13.4282 22.3857C13.6099 22.4612 13.8045 22.5 14.0011 22.5C14.1977 22.5 14.3923 22.4612 14.574 22.3857C14.7557 22.3102 14.921 22.1996 15.0603 22.0599C15.1995 21.9203 15.3101 21.7543 15.3856 21.5716C15.4609 21.3894 15.4998 21.194 15.5 20.9966Z" fill="#7D8198"/>
</svg>
