<svg width="28" height="28" viewBox="0 0 28 28" fill="none" xmlns="http://www.w3.org/2000/svg">
<path d="M13 9.75C13 9.33579 13.3358 9 13.75 9H19.25C19.6642 9 20 9.33579 20 9.75V13.25C20 13.6642 19.6642 14 19.25 14H13.75C13.3358 14 13 13.6642 13 13.25V9.75Z" fill="#7D8198"/>
<path d="M13.75 16.9995C13.3358 16.9995 13 17.3353 13 17.7495C13 18.1637 13.3358 18.4995 13.75 18.4995H19.25C19.6642 18.4995 20 18.1637 20 17.7495C20 17.3353 19.6642 16.9995 19.25 16.9995H13.75Z" fill="#7D8198"/>
<path fill-rule="evenodd" clip-rule="evenodd" d="M6.75 5H9.62858C10.133 4.38925 10.896 4 11.75 4H21.25C22.7688 4 24 5.23122 24 6.75V21.25C24 22.7688 22.7688 24 21.25 24H11.75C10.896 24 10.133 23.6108 9.62858 23H6.75C5.23122 23 4 21.7688 4 20.25V7.75C4 6.23122 5.23122 5 6.75 5ZM9 6.75C9 6.66573 9.00379 6.58234 9.01121 6.5H6.75C6.05964 6.5 5.5 7.05964 5.5 7.75V20.25C5.5 20.9404 6.05964 21.5 6.75 21.5H9.01121C9.00379 21.4177 9 21.3343 9 21.25V6.75ZM11.75 5.5C11.0596 5.5 10.5 6.05964 10.5 6.75V21.25C10.5 21.9404 11.0596 22.5 11.75 22.5H21.25C21.9404 22.5 22.5 21.9404 22.5 21.25V6.75C22.5 6.05964 21.9404 5.5 21.25 5.5H11.75Z" fill="#7D8198"/>
</svg>
