<svg width="28" height="28" viewBox="0 0 28 28" fill="none" xmlns="http://www.w3.org/2000/svg">
<path fill-rule="evenodd" clip-rule="evenodd" d="M3.22382 12.2803C3.08317 12.1397 3.00415 11.9489 3.00415 11.75L3.00415 5.75C3.00415 5.33579 3.33994 5 3.75415 5C4.16836 5 4.50415 5.33578 4.50415 5.75L4.50415 11L7.00415 11L7.00415 9.75C7.00415 8.23122 8.23537 7 9.75415 7L22.25 7C23.7688 7 25 8.23122 25 9.75L25 18.25C25 19.7688 23.7688 21 22.25 21L9.75415 21C8.23537 21 7.00415 19.7688 7.00415 18.25L7.00415 12.5L3.75415 12.5C3.55524 12.5 3.36447 12.421 3.22382 12.2803ZM9.75415 19.5C9.06379 19.5 8.50415 18.9404 8.50415 18.25L8.50415 9.75C8.50415 9.05964 9.06379 8.5 9.75415 8.5L22.25 8.5C22.9404 8.5 23.5 9.05964 23.5 9.75L23.5 18.25C23.5 18.9404 22.9404 19.5 22.25 19.5L9.75415 19.5ZM13.0042 16C13.0042 15.4477 12.5564 15 12.0042 15C11.4519 15 11.0042 15.4477 11.0042 16C11.0042 16.5523 11.4519 17 12.0042 17C12.5564 17 13.0042 16.5523 13.0042 16ZM16.0042 15C16.5564 15 17.0042 15.4477 17.0042 16C17.0042 16.5523 16.5564 17 16.0042 17C15.4519 17 15.0042 16.5523 15.0042 16C15.0042 15.4477 15.4519 15 16.0042 15ZM21.0042 16C21.0042 15.4477 20.5564 15 20.0042 15C19.4519 15 19.0042 15.4477 19.0042 16C19.0042 16.5523 19.4519 17 20.0042 17C20.5564 17 21.0042 16.5523 21.0042 16ZM15.5033 11C15.2272 11 15.0033 11.2239 15.0033 11.5L15.0033 12.5C15.0033 12.7761 15.2272 13 15.5033 13L20.5021 13C20.7782 13 21.0021 12.7761 21.0021 12.5L21.0021 11.5C21.0021 11.2239 20.7782 11 20.5021 11L15.5033 11Z" fill="#7D8198"/>
</svg>
