<svg width="28" height="28" viewBox="0 0 28 28" fill="none" xmlns="http://www.w3.org/2000/svg">
<path fill-rule="evenodd" clip-rule="evenodd" d="M10.75 7C9.7835 7 9 7.7835 9 8.75V11.25C9 12.2165 9.7835 13 10.75 13H13.2479C14.2144 13 14.9979 12.2165 14.9979 11.25V8.75C14.9979 7.7835 14.2144 7 13.2479 7H10.75ZM10.5 8.75C10.5 8.61193 10.6119 8.5 10.75 8.5H13.2479C13.386 8.5 13.4979 8.61193 13.4979 8.75V11.25C13.4979 11.3881 13.386 11.5 13.2479 11.5H10.75C10.6119 11.5 10.5 11.3881 10.5 11.25V8.75Z" fill="#7D8198"/>
<path fill-rule="evenodd" clip-rule="evenodd" d="M20 9.01828V5.75C20 4.23122 18.7688 3 17.25 3H6.75C5.23122 3 4 4.23122 4 5.75V21.2499C4 22.7687 5.23122 23.9999 6.75 23.9999H22.25C23.7688 23.9999 25 22.7687 25 21.2499V13.2219C25 12.6989 24.7661 12.2033 24.3623 11.8708L21.3623 9.40113C20.9478 9.05993 20.457 8.94962 20 9.01828ZM6.75 4.5C6.05964 4.5 5.5 5.05964 5.5 5.75V21.2499C5.5 21.9402 6.05964 22.4999 6.75 22.4999H9V16.7542C9 16.3399 9.33579 16.0042 9.75 16.0042H14.2479C14.6621 16.0042 14.9979 16.3399 14.9979 16.7542V22.4999H18.5V5.75C18.5 5.05964 17.9404 4.5 17.25 4.5H6.75ZM13.4979 22.4999H10.5V17.5042H13.4979V22.4999ZM20 10.7522V22.4999H22.25C22.9404 22.4999 23.5 21.9402 23.5 21.2499V13.2219C23.5 13.1472 23.4666 13.0764 23.4089 13.0289L20.4089 10.5592C20.2458 10.4249 20 10.5409 20 10.7522Z" fill="#7D8198"/>
</svg>
