<svg width="28" height="28" viewBox="0 0 28 28" fill="none" xmlns="http://www.w3.org/2000/svg">
<path fill-rule="evenodd" clip-rule="evenodd" d="M12.3842 5.01211C12.7917 5.0862 13.062 5.47664 12.9879 5.88417L12.2396 10H17.215L18.0121 5.61584C18.0862 5.20831 18.4766 4.93801 18.8842 5.01211C19.2917 5.0862 19.562 5.47664 19.4879 5.88417L18.7396 10H22.25C22.6642 10 23 10.3358 23 10.75C23 11.1642 22.6642 11.5 22.25 11.5H18.4668L17.5578 16.5H21.25C21.6642 16.5 22 16.8358 22 17.25C22 17.6642 21.6642 18 21.25 18H17.285L16.4879 22.3842C16.4138 22.7917 16.0234 23.062 15.6158 22.9879C15.2083 22.9138 14.938 22.5234 15.0121 22.1158L15.7604 18H10.785L9.9879 22.3842C9.91381 22.7917 9.52337 23.062 9.11584 22.9879C8.7083 22.9138 8.438 22.5234 8.5121 22.1158L9.26043 18H5.75C5.33579 18 5 17.6642 5 17.25C5 16.8358 5.33579 16.5 5.75 16.5H9.53316L10.4422 11.5H6.75C6.33579 11.5 6 11.1642 6 10.75C6 10.3358 6.33579 10 6.75 10H10.715L11.5121 5.61584C11.5862 5.20831 11.9766 4.93801 12.3842 5.01211ZM16.0332 16.5L16.9422 11.5H11.9668L11.0578 16.5H16.0332Z" fill="#7D8198"/>
</svg>
