<svg fill="none" height="28" viewBox="0 0 28 28" width="28" xmlns="http://www.w3.org/2000/svg"><g fill="#7d8198"><path d="m14.8085 3.00098.2911.02542c1.4528.14615 2.8634.58055 4.1484 1.27899l.2549.14374c1.2643.73142 2.3713 1.70808 3.2558 2.87382l.1739.23565c.8521 1.18729 1.4605 2.5334 1.7881 3.9602l.0615.2855c.2699 1.3378.289 2.7141.0566 4.0589l-.0537.2875c-.3066 1.5312-.9345 2.9801-1.8428 4.2496-.9083 1.2696-2.0764 2.3311-3.4257 3.1144-1.2649.7342-2.6623 1.2085-4.1104 1.3953l-.291.0333c-1.4547.1484-2.9234.0046-4.3203-.4215l-.2783-.0889-.0713-.0274c-.3466-.1563-.5252-.5533-.4024-.9221.123-.3688.5041-.5792.875-.4958l.0742.0206.4825.1476c1.1331.3129 2.3159.413 3.4882.2934l.501-.0646c1.1616-.1813 2.2812-.5776 3.3008-1.1694 1.1653-.6765 2.1736-1.5936 2.958-2.69s1.327-2.3474 1.5918-3.6698l.0859-.4977c.1454-.9985.1314-2.0138-.042-3.0078l-.0996-.4947c-.2639-1.15-.739-2.23943-1.3994-3.21317l-.2949-.41069c-.713-.93969-1.5936-1.7369-2.5957-2.35263l-.4365-.25326c-1.0358-.56293-2.1659-.9269-3.3321-1.0756l-.5019-.05085-.0762-.0088c-.3745-.06602-.6457-.4071-.6172-.79497.0286-.38778.3466-.68471.7266-.69523z"/><path d="m11.0507 3.37451c.399-.11116.8127.12278.9239.52215.111.39957-.1225.81384-.5215.92502-1.0965.30551-2.12805.80525-3.04592 1.47456l-.38575.29725c-1.01075.81961-1.84281 1.83845-2.44433 2.99312-.19151.36763-.64451.51039-1.01172.31877-.36723-.19179-.50985-.64531-.31836-1.01303.69651-1.33708 1.65965-2.5173 2.83008-3.46638l.44726-.34321c1.0628-.77502 2.2568-1.35449 3.52634-1.70825z"/><path d="m3.91792 11.9891c.41111.0506.70384.4254.65332.837-.2056 1.6759.03726 3.3768.70508 4.9273l.12988.2874c.67262 1.4292 1.69109 2.6701 2.96484 3.6082.33344.2457.40529.7152.16016 1.0492-.24541.3341-.71516.4061-1.04883.1604-1.47476-1.0861-2.65379-2.5226-3.43262-4.1773l-.15039-.3334c-.77332-1.7954-1.05554-3.765-.81738-5.7056.05061-.4116.42488-.7038.83594-.6532z"/><path d="m17.6885 10.2339c.2743-.31034.7483-.33908 1.0586-.0645.3099.2747.3386.7493.0644 1.0599l-5.7451 6.5084c-.1329.1505-.3212.2413-.5215.2523-.2001.0109-.3965-.0588-.5449-.1936l-2.75295-2.5042c-.30661-.2788-.33017-.7539-.05176-1.0609s.75293-.3295 1.05961-.0509l2.1904 1.9909z"/></g></svg>