<svg width="28" height="28" viewBox="0 0 28 28" fill="none" xmlns="http://www.w3.org/2000/svg">
<path d="M16.5 10.4438L16.5 5.75171C16.5 5.3375 16.1642 5.00171 15.75 5.00171C15.3358 5.00171 15 5.3375 15 5.75171L15 12.2517C15 12.6659 15.3358 13.0017 15.75 13.0017H22.253C22.6672 13.0017 23.003 12.6659 23.003 12.2517C23.003 11.8375 22.6672 11.5017 22.253 11.5017H17.5634L22.7833 6.28205C23.0762 5.98916 23.0762 5.51429 22.7833 5.22139C22.4904 4.92849 22.0155 4.92848 21.7226 5.22137L16.5 10.4438Z" fill="#7D8198"/>
<path d="M11.5 17.5625V22.2517C11.5 22.6659 11.8358 23.0017 12.25 23.0017C12.6642 23.0017 13 22.6659 13 22.2517V15.7517C13 15.3375 12.6642 15.0017 12.25 15.0017H5.75C5.33579 15.0017 5 15.3375 5 15.7517C5 16.1659 5.33579 16.5017 5.75 16.5017H10.4394L5.21969 21.7215C4.9268 22.0143 4.9268 22.4892 5.21969 22.7821C5.51258 23.075 5.98745 23.075 6.28035 22.7821L11.5 17.5625Z" fill="#7D8198"/>
</svg>
