<svg width="28" height="28" viewBox="0 0 28 28" fill="none" xmlns="http://www.w3.org/2000/svg">
<path d="M3.21967 4.28093L23.7205 24.7802C24.0134 25.0731 24.4881 25.0729 24.7808 24.7798C25.0735 24.4867 25.0733 24.0117 24.7804 23.7188L4.27961 3.21955C3.98671 2.92667 3.51198 2.92684 3.21929 3.21993C2.92659 3.51302 2.92676 3.98804 3.21967 4.28093Z" fill="#7D8198"/>
<path d="M24.9982 13.9996C24.9982 16.1233 23.8967 17.9858 22.2346 19.052L21.1399 17.9574C22.5451 17.196 23.4982 15.7103 23.4982 13.9996C23.4982 11.5115 21.4819 9.49995 18.991 9.49995H14.75C14.3358 9.49995 14 9.16416 14 8.74995C14 8.33574 14.3358 7.99995 14.75 7.99995H18.991C22.3075 7.99995 24.9982 10.6802 24.9982 13.9996Z" fill="#7D8198"/>
<path d="M6.86274 10.0451L5.76817 8.95057C4.10524 10.0166 3.00005 11.8766 3.00005 13.9996C3.00005 17.3211 5.70543 19.9998 9.01974 19.9999L13.25 20C13.6642 20 14 19.6642 14 19.25C14.0001 18.8358 13.6643 18.5 13.2501 18.5L9.01978 18.4999C6.52665 18.4999 4.50005 16.4855 4.50005 13.9996C4.50005 12.2922 5.45608 10.8075 6.86274 10.0451Z" fill="#7D8198"/>
</svg>
