<svg width="28" height="28" viewBox="0 0 28 28" fill="none" xmlns="http://www.w3.org/2000/svg">
<path fill-rule="evenodd" clip-rule="evenodd" d="M4 7.75C4 6.23122 5.23122 5 6.75 5H11.3944C11.9374 5 12.4681 5.1607 12.9199 5.46186L14.9122 6.79006C15.1175 6.92695 15.3588 7 15.6056 7H22.25C23.7688 7 25 8.23122 25 9.75V20.25C25 21.7688 23.7688 23 22.25 23H6.75C5.23122 23 4 21.7688 4 20.25V7.75ZM5.5 7.75C5.5 7.05964 6.05964 6.5 6.75 6.5H11.3944C11.6412 6.5 11.8825 6.57305 12.0878 6.70994L14.0801 8.03814C14.5319 8.3393 15.0626 8.5 15.6056 8.5H22.25C22.9404 8.5 23.5 9.05964 23.5 9.75V11H5.5V7.75ZM23.5 12.5V20.25C23.5 20.9404 22.9404 21.5 22.25 21.5H6.75C6.05964 21.5 5.5 20.9404 5.5 20.25V12.5H23.5Z" fill="#7D8198"/>
</svg>
