<svg width="28" height="28" viewBox="0 0 28 28" fill="none" xmlns="http://www.w3.org/2000/svg">
<path fill-rule="evenodd" clip-rule="evenodd" d="M23.5 14C23.5 8.75329 19.2467 4.5 14 4.5C8.75329 4.5 4.5 8.75329 4.5 14C4.5 19.2467 8.7533 23.5 14 23.5C19.2467 23.5 23.5 19.2467 23.5 14ZM14 3C20.0751 3 25 7.92487 25 14C25 20.0751 20.0751 25 14 25C7.92487 25 3 20.0751 3 14C3 7.92487 7.92487 3 14 3ZM9.21967 9.21967C9.51256 8.92678 9.98744 8.92678 10.2803 9.21967L14.0002 12.9396L17.7196 9.2197C18.0125 8.92679 18.4874 8.92676 18.7803 9.21964C19.0732 9.51251 19.0732 9.98739 18.7804 10.2803L15.0609 14.0002L18.7803 17.7197C19.0732 18.0126 19.0732 18.4874 18.7803 18.7803C18.4874 19.0732 18.0126 19.0732 17.7197 18.7803L14.0003 15.061L10.2814 18.7803C9.98854 19.0732 9.51367 19.0732 9.22076 18.7804C8.92784 18.4875 8.92782 18.0126 9.22069 17.7197L12.9396 14.0003L9.21967 10.2803C8.92678 9.98744 8.92678 9.51256 9.21967 9.21967Z" fill="#7D8198"/>
</svg>
