<svg width="28" height="28" viewBox="0 0 28 28" fill="none" xmlns="http://www.w3.org/2000/svg">
<path d="M14.5496 3.23966C14.4077 3.08684 14.2085 3 14 3C13.7914 3 13.5923 3.08684 13.4504 3.23966L10.2004 6.73966C9.91856 7.0432 9.93613 7.51775 10.2397 7.7996C10.5432 8.08145 11.0177 8.06387 11.2996 7.76034L13.25 5.65989V16.2499C13.25 16.6641 13.5858 16.9999 14 16.9999C14.4142 16.9999 14.75 16.6641 14.75 16.2499V5.65991L16.7004 7.76034C16.9823 8.06387 17.4568 8.08145 17.7603 7.79959C18.0639 7.51774 18.0814 7.04319 17.7996 6.73966L14.5496 3.23966Z" fill="#7D8198"/>
<path d="M5 12.75C5 11.2312 6.23122 10 7.75 10H10.25C10.6642 10 11 10.3358 11 10.75C11 11.1642 10.6642 11.5 10.25 11.5H7.75C7.05964 11.5 6.5 12.0596 6.5 12.75V20.25C6.5 20.9404 7.05964 21.5 7.75 21.5H20.25C20.9404 21.5 21.5 20.9404 21.5 20.25V12.75C21.5 12.0596 20.9404 11.5 20.25 11.5H17.75C17.3358 11.5 17 11.1642 17 10.75C17 10.3358 17.3358 10 17.75 10H20.25C21.7688 10 23 11.2312 23 12.75V20.25C23 21.7688 21.7688 23 20.25 23H7.75C6.23122 23 5 21.7688 5 20.25V12.75Z" fill="#7D8198"/>
</svg>
