<svg width="28" height="28" viewBox="0 0 28 28" fill="none" xmlns="http://www.w3.org/2000/svg">
<path d="M3 5.75C3 4.23122 4.23122 3 5.75 3H17.25C18.7688 3 20 4.23122 20 5.75V6C20 6.41421 19.6642 6.75 19.25 6.75C18.8358 6.75 18.5 6.41421 18.5 6V5.75C18.5 5.05964 17.9404 4.5 17.25 4.5H5.75C5.05964 4.5 4.5 5.05964 4.5 5.75V17.25C4.5 17.9404 5.05964 18.5 5.75 18.5H5.99646C6.41067 18.5 6.74646 18.8358 6.74646 19.25C6.74646 19.6642 6.41067 20 5.99646 20H5.75C4.23122 20 3 18.7688 3 17.25V5.75Z" fill="#7D8198"/>
<path d="M8.75 14C9.16421 14 9.5 14.3358 9.5 14.75V18.25C9.5 18.6642 9.16421 19 8.75 19C8.33579 19 8 18.6642 8 18.25V14.75C8 14.3358 8.33579 14 8.75 14Z" fill="#7D8198"/>
<path d="M25 14.75C25 14.3358 24.6642 14 24.25 14C23.8358 14 23.5 14.3358 23.5 14.75V18.25C23.5 18.6642 23.8358 19 24.25 19C24.6642 19 25 18.6642 25 18.25V14.75Z" fill="#7D8198"/>
<path d="M19 8.75C19 9.16421 18.6642 9.5 18.25 9.5H14.75C14.3358 9.5 14 9.16421 14 8.75C14 8.33579 14.3358 8 14.75 8H18.25C18.6642 8 19 8.33579 19 8.75Z" fill="#7D8198"/>
<path d="M18.25 25C18.6642 25 19 24.6642 19 24.25C19 23.8358 18.6642 23.5 18.25 23.5H14.75C14.3358 23.5 14 23.8358 14 24.25C14 24.6642 14.3358 25 14.75 25H18.25Z" fill="#7D8198"/>
<path d="M8.75 21C9.16421 21 9.5 21.3358 9.5 21.75V22.25C9.5 22.9403 10.0596 23.5 10.75 23.5H11.25C11.6642 23.5 12 23.8358 12 24.25C12 24.6642 11.6642 25 11.25 25H10.75C9.23122 25 8 23.7688 8 22.25V21.75C8 21.3358 8.33579 21 8.75 21Z" fill="#7D8198"/>
<path d="M9.5 11.25C9.5 11.6642 9.16421 12 8.75 12C8.33579 12 8 11.6642 8 11.25V10.75C8 9.23123 9.23122 8.00001 10.75 8.00001H11.25C11.6642 8.00001 12 8.33579 12 8.75001C12 9.16422 11.6642 9.50001 11.25 9.50001H10.75C10.0596 9.50001 9.5 10.0597 9.5 10.75V11.25Z" fill="#7D8198"/>
<path d="M24.25 21C23.8358 21 23.5 21.3358 23.5 21.75V22.25C23.5 22.9403 22.9404 23.5 22.25 23.5H21.75C21.3358 23.5 21 23.8358 21 24.25C21 24.6642 21.3358 25 21.75 25H22.25C23.7688 25 25 23.7688 25 22.25V21.75C25 21.3358 24.6642 21 24.25 21Z" fill="#7D8198"/>
<path d="M23.5 11.25C23.5 11.6642 23.8358 12 24.25 12C24.6642 12 25 11.6642 25 11.25V10.75C25 9.23123 23.7688 8.00001 22.25 8.00001H21.75C21.3358 8.00001 21 8.33579 21 8.75001C21 9.16422 21.3358 9.50001 21.75 9.50001H22.25C22.9404 9.50001 23.5 10.0597 23.5 10.75V11.25Z" fill="#7D8198"/>
</svg>
