<svg width="28" height="28" viewBox="0 0 28 28" fill="none" xmlns="http://www.w3.org/2000/svg">
<path d="M21 8.74976C21.0001 9.16398 20.6644 9.49987 20.2502 9.5L16.7502 9.5011C16.336 9.50123 16.0001 9.16555 16 8.75134C15.9999 8.33712 16.3356 8.00123 16.7498 8.0011L20.2498 8C20.664 7.99987 20.9999 8.33555 21 8.74976Z" fill="#7D8198"/>
<path d="M7.75 8C7.33579 8 7 8.33579 7 8.75C7 9.16421 7.33579 9.5 7.75 9.5H9.75L9.75 15.25C9.75 15.6642 10.0858 16 10.5 16C10.9142 16 11.25 15.6642 11.25 15.25L11.25 9.5H13.25C13.6642 9.5 14 9.16421 14 8.75C14 8.33579 13.6642 8 13.25 8H7.75Z" fill="#7D8198"/>
<path d="M16.75 11.501C16.3358 11.501 16 11.8368 16 12.251C16 12.6652 16.3358 13.001 16.75 13.001H20.25C20.6642 13.001 21 12.6652 21 12.251C21 11.8368 20.6642 11.501 20.25 11.501H16.75Z" fill="#7D8198"/>
<path d="M16 15.7485C16 15.3343 16.3358 14.9985 16.75 14.9985H20.25C20.6642 14.9985 21 15.3343 21 15.7485C21 16.1627 20.6642 16.4985 20.25 16.4985H16.75C16.3358 16.4985 16 16.1627 16 15.7485Z" fill="#7D8198"/>
<path d="M7.75 18.5C7.33579 18.5 7 18.8358 7 19.25C7 19.6642 7.33579 20 7.75 20H20.2451C20.6593 20 20.9951 19.6642 20.9951 19.25C20.9951 18.8358 20.6593 18.5 20.2451 18.5H7.75Z" fill="#7D8198"/>
<path fill-rule="evenodd" clip-rule="evenodd" d="M4 6.75C4 5.23122 5.23122 4 6.75 4H21.25C22.7688 4 24 5.23122 24 6.75V21.25C24 22.7688 22.7688 24 21.25 24H6.75C5.23122 24 4 22.7688 4 21.25V6.75ZM6.75 5.5C6.05964 5.5 5.5 6.05964 5.5 6.75V21.25C5.5 21.9404 6.05964 22.5 6.75 22.5H21.25C21.9404 22.5 22.5 21.9404 22.5 21.25V6.75C22.5 6.05964 21.9404 5.5 21.25 5.5H6.75Z" fill="#7D8198"/>
</svg>
