<svg width="28" height="28" viewBox="0 0 28 28" fill="none" xmlns="http://www.w3.org/2000/svg">
<path d="M5.74769 5C5.33402 5 4.99868 5.33536 4.99868 5.74905C4.99868 6.16274 5.33402 6.4981 5.74769 6.4981L18.2313 6.4981V5H5.74769Z" fill="#7D8198"/>
<path d="M7.50167 20.7341C7.89426 20.8967 8.31495 20.9807 8.73986 20.9812V20.9798H20.3824L19.4317 20.029C19.1294 19.7267 19.1294 19.2366 19.4317 18.9344C19.7339 18.6321 20.224 18.6321 20.5263 18.9344L22.7733 21.1815C23.0756 21.4838 23.0756 21.9739 22.7733 22.2761L20.5263 24.5233C20.224 24.8256 19.7339 24.8256 19.4317 24.5233C19.1294 24.221 19.1294 23.7309 19.4317 23.4287L20.3824 22.4779H8.74376V22.4793C8.1208 22.4793 7.50394 22.3566 6.9284 22.1182C6.35286 21.8798 5.82991 21.5303 5.38941 21.0898C4.94892 20.6493 4.59949 20.1263 4.3611 19.5507C4.1227 18.9752 4 18.3583 4 17.7353C4 17.1123 4.1227 16.4954 4.3611 15.9199C4.59949 15.3443 4.94892 14.8213 5.38941 14.3808C5.82991 13.9403 6.35286 13.5908 6.9284 13.3524C7.50394 13.114 8.1208 12.9913 8.74376 12.9913V12.9899H18.2313C18.6575 12.9899 19.0796 12.9059 19.4734 12.7428C19.8672 12.5797 20.225 12.3406 20.5264 12.0392C20.8277 11.7378 21.0668 11.38 21.2299 10.9861C21.3931 10.5923 21.477 10.1703 21.477 9.74399C21.477 9.31774 21.3931 8.89566 21.2299 8.50185C21.0668 8.10804 20.8277 7.75021 20.5264 7.4488C20.225 7.14739 19.8672 6.9083 19.4734 6.74518C19.0796 6.58206 18.6575 6.4981 18.2313 6.4981V5C18.8542 5 19.4711 5.12271 20.0466 5.36111C20.6222 5.59952 21.1451 5.94896 21.5856 6.38948C22.0261 6.83 22.3755 7.35298 22.6139 7.92855C22.8523 8.50411 22.975 9.121 22.975 9.74399C22.975 10.367 22.8523 10.9839 22.6139 11.5594C22.3755 12.135 22.0261 12.658 21.5856 13.0985C21.1451 13.539 20.6222 13.8885 20.0466 14.1269C19.4711 14.3653 18.8542 14.488 18.2313 14.488H8.74376V14.4894C8.31752 14.4894 7.89546 14.5734 7.50167 14.7365C7.10788 14.8996 6.75007 15.1387 6.44868 15.4401C6.14729 15.7415 5.90821 16.0993 5.7451 16.4931C5.58198 16.887 5.49803 17.309 5.49803 17.7353C5.49803 18.1616 5.58198 18.5836 5.7451 18.9774C5.90821 19.3713 6.14729 19.7291 6.44868 20.0305C6.75008 20.3319 7.10788 20.571 7.50167 20.7341Z" fill="#7D8198"/>
</svg>
