<svg width="28" height="28" viewBox="0 0 28 28" fill="none" xmlns="http://www.w3.org/2000/svg">
<path fill-rule="evenodd" clip-rule="evenodd" d="M13.2547 25H14.7553V24.97C15.8859 24.97 16.8063 24.05 16.8063 22.92C16.8063 22.66 16.9964 22.41 17.2765 22.3C17.3265 22.28 17.374 22.26 17.4216 22.24C17.4691 22.22 17.5166 22.2 17.5666 22.18C17.8467 22.06 18.1669 22.1 18.347 22.28C18.5471 22.48 18.7672 22.63 19.0173 22.73C19.5175 22.94 20.0778 22.94 20.588 22.73C20.8381 22.63 21.0582 22.48 21.2483 22.29L22.3088 21.23C22.699 20.84 22.909 20.33 22.909 19.78C22.909 19.23 22.699 18.72 22.3088 18.33C22.1287 18.15 22.0887 17.84 22.2087 17.56C22.2488 17.47 22.2888 17.37 22.3288 17.27C22.4388 16.98 22.689 16.79 22.9491 16.79C24.0796 16.79 25 15.87 25 14.74V13.24C25 12.11 24.0796 11.19 22.9491 11.19C22.689 11.19 22.4388 11 22.3288 10.71C22.2888 10.62 22.2488 10.53 22.2087 10.43C22.0887 10.15 22.1287 9.83 22.3088 9.65C22.699 9.26 22.909 8.74 22.909 8.2C22.909 7.66 22.6889 7.13 22.3088 6.75L21.2483 5.69C20.4679 4.92 19.1273 4.91 18.347 5.69C18.1369 5.9 17.7967 5.89 17.5666 5.79C17.4766 5.75 17.3865 5.71 17.2865 5.67C16.9964 5.56 16.8063 5.31 16.8063 5.05C16.8063 3.92 15.8859 3 14.7553 3H13.2547C12.1241 3 11.2037 3.92 11.2037 5.05C11.2037 5.3 11.0136 5.55 10.7135 5.67L10.4334 5.79C10.1533 5.91 9.83311 5.87 9.65302 5.69C8.88267 4.92 7.53206 4.92 6.75171 5.69L5.69122 6.75C5.31105 7.13 5.09095 7.65 5.09095 8.2C5.09095 8.75 5.30105 9.26 5.69122 9.65C5.87131 9.83 5.91132 10.15 5.79127 10.43C5.77126 10.48 5.75125 10.5275 5.73124 10.575C5.71123 10.6225 5.69122 10.67 5.67121 10.72C5.56116 11.01 5.31105 11.2 5.05093 11.2C3.92042 11.2 3 12.12 3 13.25V14.75C3 15.88 3.92042 16.8 5.05093 16.8C5.31105 16.8 5.56116 17 5.67121 17.29L5.79127 17.57C5.91132 17.85 5.87131 18.17 5.69122 18.35C5.30105 18.74 5.09095 19.25 5.09095 19.8C5.09095 20.35 5.30105 20.86 5.69122 21.25L6.75171 22.31C7.53206 23.09 8.88267 23.08 9.65302 22.31C9.87312 22.1 10.2033 22.11 10.4334 22.21C10.4834 22.23 10.5309 22.25 10.5784 22.27C10.626 22.29 10.6735 22.31 10.7235 22.33C11.0136 22.44 11.2037 22.69 11.2037 22.95C11.2037 24.08 12.1241 25 13.2547 25ZM11.0337 20.84C10.7235 20.7 10.4034 20.64 10.0932 20.64L10.0832 20.63C9.52296 20.63 8.98272 20.84 8.58254 21.24C8.37244 21.45 8.01228 21.45 7.80218 21.24L6.7417 20.18C6.64166 20.07 6.58163 19.94 6.58163 19.79C6.58163 19.64 6.64166 19.51 6.7417 19.4C7.37199 18.77 7.53206 17.82 7.15189 16.95L7.06185 16.72C6.71169 15.85 5.92133 15.29 5.04093 15.29C4.74079 15.29 4.49068 15.04 4.49068 14.74V13.24C4.49068 12.94 4.74079 12.69 5.04093 12.69C5.93133 12.69 6.72169 12.13 7.06185 11.26L7.16189 11.03C7.54206 10.17 7.37199 9.21 6.75171 8.59C6.65166 8.49 6.59163 8.35 6.59163 8.2C6.59163 8.05 6.65166 7.91 6.75171 7.81L7.81219 6.75C8.02228 6.54 8.38245 6.54 8.59254 6.75C9.21282 7.37 10.1733 7.53 11.0337 7.16L11.2638 7.06C12.1342 6.71 12.6944 5.92 12.6944 5.04C12.6944 4.74 12.9445 4.49 13.2447 4.49H14.7453C15.0455 4.49 15.2956 4.74 15.2956 5.04C15.2956 5.92 15.8558 6.71 16.7262 7.06L16.9663 7.16C17.8267 7.54 18.7872 7.37 19.4075 6.75C19.6176 6.54 19.9777 6.54 20.1878 6.75L21.2483 7.81C21.3483 7.91 21.4084 8.05 21.4084 8.2C21.4084 8.35 21.3483 8.49 21.2483 8.59C20.628 9.22 20.4679 10.17 20.8381 11.03L20.9382 11.27C21.2883 12.14 22.0787 12.7 22.9591 12.7C23.2592 12.7 23.5093 12.95 23.5093 13.25V14.75C23.5093 15.05 23.2592 15.3 22.9591 15.3C22.0787 15.3 21.2883 15.86 20.9482 16.73L20.8481 16.97C20.4679 17.83 20.638 18.79 21.2583 19.41C21.3583 19.51 21.4184 19.65 21.4184 19.8C21.4184 19.95 21.3583 20.09 21.2583 20.19L20.1978 21.25C20.1478 21.3 20.0878 21.34 20.0177 21.37C19.8877 21.43 19.7376 21.43 19.5975 21.37C19.5275 21.34 19.4675 21.3 19.4175 21.25C18.7972 20.63 17.8367 20.47 16.9764 20.84C16.8963 20.88 16.8263 20.91 16.7362 20.94C15.8658 21.29 15.3056 22.08 15.3056 22.96C15.3056 23.26 15.0555 23.51 14.7553 23.51H13.2547C12.9545 23.51 12.7044 23.26 12.7044 22.96C12.7044 22.07 12.1442 21.28 11.2738 20.94C11.1937 20.91 11.1137 20.88 11.0337 20.84ZM16.5 14C16.5 14.663 16.2366 15.2989 15.7678 15.7678C15.2989 16.2366 14.663 16.5 14 16.5C13.337 16.5 12.7011 16.2366 12.2322 15.7678C11.7634 15.2989 11.5 14.663 11.5 14C11.5 13.337 11.7634 12.7011 12.2322 12.2322C12.7011 11.7634 13.337 11.5 14 11.5C14.663 11.5 15.2989 11.7634 15.7678 12.2322C16.2366 12.7011 16.5 13.337 16.5 14ZM18 14C18 15.0609 17.5786 16.0783 16.8284 16.8284C16.0783 17.5786 15.0609 18 14 18C12.9391 18 11.9217 17.5786 11.1716 16.8284C10.4214 16.0783 10 15.0609 10 14C10 12.9391 10.4214 11.9217 11.1716 11.1716C11.9217 10.4214 12.9391 10 14 10C15.0609 10 16.0783 10.4214 16.8284 11.1716C17.5786 11.9217 18 12.9391 18 14Z" fill="#7D8198"/>
</svg>
