<svg width="28" height="28" viewBox="0 0 28 28" fill="none" xmlns="http://www.w3.org/2000/svg">
<path fill-rule="evenodd" clip-rule="evenodd" d="M8.16667 4.95833C7.68342 4.95833 7.29167 5.35008 7.29167 5.83333C7.29167 6.31658 7.68342 6.70833 8.16667 6.70833H19.8333C20.3166 6.70833 20.7083 6.31658 20.7083 5.83333C20.7083 5.35008 20.3166 4.95833 19.8333 4.95833H8.16667ZM7.51764 10.2083C6.89538 10.2083 6.41667 10.6995 6.41667 11.2778V20.5139C6.41667 21.0922 6.89538 21.5833 7.51764 21.5833H10.7588H11.6667C12.4721 21.5833 13.125 20.9304 13.125 20.125V17.8624L12.2854 18.7021C11.9437 19.0438 11.3897 19.0438 11.0479 18.7021C10.7062 18.3603 10.7062 17.8063 11.0479 17.4646L13.3813 15.1313C13.723 14.7896 14.277 14.7896 14.6187 15.1313L16.9521 17.4646C17.2938 17.8063 17.2938 18.3603 16.9521 18.7021C16.6103 19.0438 16.0563 19.0438 15.7146 18.7021L14.875 17.8624V20.125C14.875 21.8969 13.4386 23.3333 11.6667 23.3333H10.7588H7.51764C5.95553 23.3333 4.66667 22.0851 4.66667 20.5139V11.2778C4.66667 9.70655 5.95553 8.45833 7.51764 8.45833H20.4824C22.0445 8.45833 23.3333 9.70655 23.3333 11.2778V20.5139C23.3333 22.0851 22.0445 23.3333 20.4824 23.3333H18.6995C18.2163 23.3333 17.8245 22.9416 17.8245 22.4583C17.8245 21.9751 18.2163 21.5833 18.6995 21.5833H20.4824C21.1046 21.5833 21.5833 21.0922 21.5833 20.5139V11.2778C21.5833 10.6995 21.1046 10.2083 20.4824 10.2083H7.51764Z" fill="#7D8198"/>
</svg>
