<svg width="28" height="28" viewBox="0 0 28 28" fill="none" xmlns="http://www.w3.org/2000/svg">
<path fill-rule="evenodd" clip-rule="evenodd" d="M5.75 21H8.10352C8.42998 22.1543 9.49122 23 10.75 23H17.25C18.5088 23 19.57 22.1543 19.8965 21H22.25C23.7688 21 25 19.7688 25 18.25V9.75C25 8.23122 23.7688 7 22.25 7H19.8965C19.57 5.84575 18.5088 5 17.25 5H10.75C9.49122 5 8.42998 5.84575 8.10352 7H5.75C4.23122 7 3 8.23122 3 9.75V18.25C3 19.7688 4.23122 21 5.75 21ZM5.75 8.5H8V19.5H5.75C5.05964 19.5 4.5 18.9404 4.5 18.25V9.75C4.5 9.05964 5.05964 8.5 5.75 8.5ZM20 8.5V19.5H22.25C22.9404 19.5 23.5 18.9404 23.5 18.25V9.75C23.5 9.05964 22.9404 8.5 22.25 8.5H20ZM10.75 6.5C10.0596 6.5 9.5 7.05964 9.5 7.75V20.25C9.5 20.9404 10.0596 21.5 10.75 21.5H17.25C17.9404 21.5 18.5 20.9404 18.5 20.25V7.75C18.5 7.05964 17.9404 6.5 17.25 6.5H10.75Z" fill="#7D8198"/>
</svg>
