<svg width="28" height="28" viewBox="0 0 28 28" fill="none" xmlns="http://www.w3.org/2000/svg">
<path fill-rule="evenodd" clip-rule="evenodd" d="M5.75 10.4955C6.44772 10.4955 7.05007 10.0877 7.33114 9.49776H11.8525C10.2284 9.88933 8.76988 10.7298 7.61848 11.9615C5.97871 13.7156 5 16.2206 5 19.2511C5 19.6653 5.33579 20.0011 5.75 20.0011C6.16421 20.0011 6.5 19.6653 6.5 19.2511C6.5 16.5483 7.36811 14.4258 8.71426 12.9858C10.0599 11.5463 11.9213 10.7462 14 10.7462C16.0853 10.7462 17.9458 11.5248 19.2879 12.9487C20.6302 14.3729 21.5 16.4929 21.5 19.2511C21.5 19.6653 21.8358 20.0011 22.25 20.0011C22.6642 20.0011 23 19.6653 23 19.2511C23 16.1711 22.023 13.6636 20.3794 11.9199C19.2324 10.703 17.7832 9.88254 16.1725 9.49776H20.6689C20.9499 10.0877 21.5523 10.4955 22.25 10.4955C23.2165 10.4955 24 9.71302 24 8.74776C24 7.7825 23.2165 7 22.25 7C21.5523 7 20.9499 7.4078 20.6689 7.99776H7.33114C7.05007 7.4078 6.44772 7 5.75 7C4.7835 7 4 7.7825 4 8.74776C4 9.71302 4.7835 10.4955 5.75 10.4955Z" fill="#7D8198"/>
</svg>
