<svg width="28" height="28" viewBox="0 0 28 28" fill="none" xmlns="http://www.w3.org/2000/svg">
<path fill-rule="evenodd" clip-rule="evenodd" d="M4 20.2812H4.00543C4.01932 21.74 5.20646 23 6.75619 23H15.2473C15.6614 23 15.9971 22.6642 15.9971 22.25C15.9971 21.8358 15.6614 21.5 15.2473 21.5H6.75619C5.9323 21.5 5.33385 20.7165 5.55045 19.9214L7.32115 13.4214C7.46933 12.8774 7.96323 12.5 8.52689 12.5H23.2688C24.08 12.5 24.6691 13.2717 24.4554 14.0544C24.3463 14.454 24.5817 14.8664 24.9812 14.9755C25.3807 15.0846 25.793 14.8491 25.9021 14.4495C26.2013 13.3532 25.791 12.2666 24.9949 11.6142V9.75C24.9949 8.23122 23.764 7 22.2456 7H15.6028C15.356 7 15.1148 6.92695 14.9095 6.79006L12.9177 5.46186C12.4661 5.1607 11.9355 5 11.3927 5H6.74934C5.23092 5 4 6.23122 4 7.75V20.2812ZM6.74934 6.5C6.05915 6.5 5.49964 7.05964 5.49964 7.75V14.4022L5.87426 13.027C6.20027 11.8303 7.28684 11 8.52689 11H23.2688C23.3452 11 23.4208 11.0031 23.4953 11.0091V9.75C23.4953 9.05964 22.9358 8.5 22.2456 8.5H15.6028C15.06 8.5 14.5293 8.3393 14.0777 8.03814L12.0859 6.70994C11.8806 6.57305 11.6394 6.5 11.3927 6.5H6.74934Z" fill="#7D8198"/>
<path fill-rule="evenodd" clip-rule="evenodd" d="M19.0047 17.374V19H19C18.4477 19 18 19.4477 18 20V24C18 24.5523 18.4477 25 19 25H24C24.5523 25 25 24.5523 25 24V20C25 19.4493 24.5548 19.0026 24.0047 19V17.374C24.0047 17.0541 23.9367 16.7389 23.8064 16.4468C23.6761 16.1549 23.4868 15.8935 23.2523 15.6759C23.0179 15.4584 22.7426 15.2885 22.4435 15.1736C22.1444 15.0586 21.8255 15 21.5047 15C21.1839 15 20.865 15.0586 20.5659 15.1736C20.2668 15.2885 19.9915 15.4584 19.7571 15.6759C19.5226 15.8935 19.3333 16.1549 19.203 16.4468C19.0727 16.7389 19.0047 17.0541 19.0047 17.374ZM21.5047 16.5C21.3659 16.5 21.2296 16.5254 21.1041 16.5737C20.9786 16.6219 20.8681 16.6913 20.7774 16.7754C20.6869 16.8594 20.6184 16.956 20.5728 17.0582C20.5273 17.1602 20.5047 17.2673 20.5047 17.374V19H22.5047V17.374C22.5047 17.2673 22.4821 17.1602 22.4366 17.0582C22.391 16.956 22.3225 16.8594 22.232 16.7754C22.1413 16.6913 22.0308 16.6219 21.9053 16.5737C21.7798 16.5254 21.6435 16.5 21.5047 16.5Z" fill="#7D8198"/>
</svg>
