<svg width="28" height="28" viewBox="0 0 28 28" fill="none" xmlns="http://www.w3.org/2000/svg">
<path d="M16.1833 4.99574L12.6016 5.89385L16.1663 8.23114L19.7928 7.36375L16.2173 5.01943C16.2057 5.0118 16.1943 5.00389 16.1833 4.99574Z" fill="#7D8198"/>
<path d="M21.7972 6.88432L22.6103 6.68984C23.0309 6.58925 23.2616 6.13651 23.0959 5.73706C22.5617 4.44925 21.1646 3.74664 19.8124 4.08572L18.1606 4.4999L21.7972 6.88432Z" fill="#7D8198"/>
<path d="M6.83452 7.33999L10.6228 6.39006L14.1619 8.71057L10.3246 9.62837L6.83452 7.33999Z" fill="#7D8198"/>
<path d="M5.03335 7.9527C4.28317 8.4746 3.87108 9.3964 4.02834 10.3365C4.01092 10.3874 4.00147 10.4419 4.00147 10.4987V12.9986H4.00002V19.2486C4.00002 21.872 6.12667 23.9986 8.75002 23.9986H19.25C21.8734 23.9986 24 21.872 24 19.2486L23.9995 10.4987C23.9995 10.2225 23.7757 9.99866 23.4995 9.99866H22.1932L19.1932 12.9987H22.5V19.2486C22.5 21.0435 21.0449 22.4986 19.25 22.4986H8.75002C6.9551 22.4986 5.50002 21.0435 5.50002 19.2486V12.9987H5.50204L7.93437 10.5663L8.35206 10.1367L7.89112 9.82812L7.89295 9.82766L5.03335 7.9527Z" fill="#7D8198"/>
<path d="M11.4139 12.9987H7.62336L10.6234 9.99866H14.4139L11.4139 12.9987Z" fill="#7D8198"/>
<path d="M13.5352 12.9987L16.5352 9.99866H20.0719L17.0719 12.9987H13.5352Z" fill="#7D8198"/>
</svg>
