<svg width="28" height="28" viewBox="0 0 28 28" fill="none" xmlns="http://www.w3.org/2000/svg">
<path fill-rule="evenodd" clip-rule="evenodd" d="M17.265 20.7952C16.9638 21.0796 16.4891 21.066 16.2047 20.7649C15.9203 20.4638 15.9339 19.9891 16.235 19.7047L19.3636 16.7499H10.75C8.67893 16.7499 7 15.071 7 12.9999V9.7478C7 9.33359 7.33579 8.9978 7.75 8.9978C8.16421 8.9978 8.5 9.33359 8.5 9.7478V12.9999C8.5 14.2426 9.50736 15.2499 10.75 15.2499H19.3636L16.235 12.2952C15.9339 12.0108 15.9203 11.5361 16.2047 11.235C16.4891 10.9338 16.9638 10.9203 17.265 11.2047L21.765 15.4547C21.915 15.5963 22 15.7936 22 15.9999C22 16.2063 21.915 16.4035 21.765 16.5452L17.265 20.7952Z" fill="#7D8198"/>
</svg>
