<svg width="28" height="28" viewBox="0 0 28 28" fill="none" xmlns="http://www.w3.org/2000/svg">
<path d="M14.75 17.3635V8.75004C14.75 8.33582 14.4142 8.00004 14 8.00004C13.5858 8.00004 13.25 8.33582 13.25 8.75004V17.3636L10.2953 14.235C10.0109 13.9339 9.53618 13.9203 9.23504 14.2047C8.9339 14.4891 8.92033 14.9638 9.20474 15.265L13.4547 19.765C13.5963 19.915 13.7936 20 13.9999 20C14.2063 20 14.4035 19.915 14.5452 19.765L18.7953 15.265C19.0797 14.9638 19.0661 14.4892 18.765 14.2047C18.4638 13.9203 17.9892 13.9339 17.7047 14.235L14.75 17.3635Z" fill="#7D8198"/>
<path fill-rule="evenodd" clip-rule="evenodd" d="M25 14C25 20.0751 20.0751 25 14 25C7.92487 25 3 20.0751 3 14C3 7.92487 7.92487 3 14 3C20.0751 3 25 7.92487 25 14ZM14 23.5C19.2467 23.5 23.5 19.2467 23.5 14C23.5 8.75329 19.2467 4.5 14 4.5C8.75329 4.5 4.5 8.75329 4.5 14C4.5 19.2467 8.75329 23.5 14 23.5Z" fill="#7D8198"/>
</svg>
