<svg width="28" height="28" viewBox="0 0 28 28" fill="none" xmlns="http://www.w3.org/2000/svg">
<path fill-rule="evenodd" clip-rule="evenodd" d="M11 5.75C11 5.33579 11.3358 5 11.75 5H21.25C22.7688 5 24 6.23122 24 7.75L24 20.25C24 21.7688 22.7688 23 21.25 23H11.75C11.3358 23 11 22.6642 11 22.25C11 21.8358 11.3358 21.5 11.75 21.5H21.25C21.9404 21.5 22.5 20.9404 22.5 20.25L22.5 7.75C22.5 7.05964 21.9404 6.5 21.25 6.5L11.75 6.5C11.3358 6.5 11 6.16421 11 5.75ZM4 14C4 13.5858 4.33579 13.25 4.75 13.25H12.3776L10.2445 11.3041C9.93852 11.0249 9.91676 10.5505 10.1959 10.2445C10.4751 9.93852 10.9495 9.91676 11.2555 10.1959L14.818 13.4459C14.9737 13.588 15.0625 13.7891 15.0625 14C15.0625 14.2109 14.9737 14.412 14.818 14.5541L11.2555 17.8041C10.9495 18.0832 10.4751 18.0615 10.1959 17.7555C9.91676 17.4495 9.93852 16.9751 10.2445 16.6959L12.3776 14.75H4.75C4.33579 14.75 4 14.4142 4 14ZM18.0111 14C18.0111 14.5523 17.5634 15 17.0111 15C16.4588 15 16.0111 14.5523 16.0111 14C16.0111 13.4477 16.4588 13 17.0111 13C17.5634 13 18.0111 13.4477 18.0111 14ZM19.9681 15C20.5204 15 20.9681 14.5523 20.9681 14C20.9681 13.4477 20.5204 13 19.9681 13C19.4158 13 18.9681 13.4477 18.9681 14C18.9681 14.5523 19.4158 15 19.9681 15Z" fill="#7D8198"/>
</svg>
