<svg width="28" height="28" viewBox="0 0 28 28" fill="none" xmlns="http://www.w3.org/2000/svg">
<path fill-rule="evenodd" clip-rule="evenodd" d="M14.75 6.84923V20.833C17.1612 19.4629 20.1686 19.635 22.4307 21.269L22.4984 6.85392C20.2289 5.03869 17.0093 5.04561 14.75 6.84923ZM13.25 20.8383V6.84931C10.99 5.04593 7.76986 5.03944 5.50003 6.85528L5.5 21.2804C7.78735 19.6413 10.8155 19.4687 13.25 20.8383ZM13.9999 5.53319C16.82 3.4181 20.7521 3.47867 23.5128 5.7453C23.8221 5.99929 24.0006 6.37911 23.9987 6.77937L23.9286 21.7099C23.9235 22.7918 22.6656 23.3836 21.8288 22.6979C19.8444 21.0715 17.0173 20.9766 14.9543 22.4843C14.7778 22.6133 14.6069 22.7386 14.4446 22.858C14.1801 23.0526 13.8199 23.0526 13.5555 22.858C13.4048 22.7471 13.2467 22.6312 13.0836 22.512C10.9933 20.9837 8.13061 21.0692 6.10745 22.7023C5.26083 23.3856 3.99999 22.7831 4 21.695L4.00003 6.77425C4.00003 6.37613 4.17837 5.99895 4.48607 5.74631L4.96199 6.32597L4.48607 5.74631C7.247 3.47946 11.1793 3.41856 13.9999 5.53319Z" fill="#7D8198"/>
</svg>
