<svg width="28" height="28" viewBox="0 0 28 28" fill="none" xmlns="http://www.w3.org/2000/svg">
<path d="M9.55487 19.5023L16.2538 19.5023C16.668 19.5023 17.0038 19.8381 17.0038 20.2523C17.0038 20.6665 16.668 21.0023 16.2538 21.0023L7.75 21.0023C7.55109 21.0023 7.36033 20.9233 7.21967 20.7827C7.07902 20.642 7 20.4512 7 20.2523V11.7504C7 11.3361 7.33579 11.0004 7.75 11.0004C8.16421 11.0004 8.5 11.3361 8.5 11.7503L8.5 18.4359L19.72 7.21791C20.0129 6.92505 20.4878 6.92509 20.7806 7.21801C21.0735 7.51093 21.0734 7.9858 20.7805 8.27867L9.55487 19.5023Z" fill="#7D8198"/>
</svg>
