<svg width="28" height="28" viewBox="0 0 28 28" fill="none" xmlns="http://www.w3.org/2000/svg">
<path d="M13.9973 3.00146C14.2036 3.00142 14.4007 3.08641 14.5424 3.23642L18.7938 7.73887C19.0781 8.03997 19.0646 8.51465 18.7637 8.7991C18.4628 9.08355 17.9883 9.07006 17.704 8.76896L14.7471 5.63748L14.7471 22.3644L17.704 19.2338C17.9884 18.9327 18.4628 18.9193 18.7637 19.2038C19.0646 19.4883 19.078 19.963 18.7937 20.264L14.5423 24.7651C14.4007 24.9151 14.2036 25 13.9974 25C13.7912 25 13.5941 24.915 13.4525 24.765L9.2032 20.2639C8.91892 19.9628 8.93245 19.4881 9.23342 19.2037C9.53439 18.9193 10.0088 18.9328 10.2931 19.2339L13.2479 22.3637L13.2479 5.63863L10.2947 8.76874C10.0106 9.06995 9.53613 9.08364 9.23506 8.79932C8.934 8.51499 8.92031 8.04031 9.2045 7.7391L13.4524 3.23665C13.5939 3.08658 13.7911 3.00151 13.9973 3.00146Z" fill="#7D8198"/>
</svg>
