<svg width="28" height="28" viewBox="0 0 28 28" fill="none" xmlns="http://www.w3.org/2000/svg">
<path d="M10.9934 4.98146C11.9121 4.67269 13.0309 4.5 14 4.5C19.2467 4.5 23.5 8.75329 23.5 14C23.5 19.2467 19.2467 23.5 14 23.5C13.0312 23.5 12.0766 23.3672 10.9853 23.0132C10.5913 22.8853 10.1683 23.1011 10.0405 23.4951C9.91265 23.8891 10.1284 24.3121 10.5224 24.44C11.7671 24.8437 12.8781 25 14 25C20.0751 25 25 20.0751 25 14C25 7.92487 20.0751 3 14 3C12.8784 3 11.5974 3.19599 10.5155 3.55962C10.1229 3.69158 9.91155 4.11685 10.0435 4.50948C10.1755 4.90211 10.6007 5.11342 10.9934 4.98146Z" fill="#7D8198"/>
<path d="M3 14.0011C2.99997 13.7947 3.08499 13.5974 3.23503 13.4557L7.73503 9.2057C8.03617 8.92129 8.51085 8.93485 8.79526 9.23599C9.07967 9.53713 9.06611 10.0118 8.76497 10.2962L5.63743 13.25L16.25 13.25C16.6642 13.25 17 13.5858 17 14C17 14.4142 16.6642 14.75 16.25 14.75L5.63611 14.75L8.76483 17.7034C9.06604 17.9877 9.07972 18.4624 8.79539 18.7636C8.51106 19.0648 8.03638 19.0785 7.73517 18.7942L3.23517 14.5463C3.08509 14.4047 3.00003 14.2074 3 14.0011Z" fill="#7D8198"/>
</svg>
