<svg width="22" height="22" viewBox="0 0 22 22" fill="none" xmlns="http://www.w3.org/2000/svg">
<path d="M14.5 8.56067L14.5 13.25C14.5 13.6642 14.8358 14 15.25 14C15.6642 14 16 13.6642 16 13.25L16 6.74998C16 6.55107 15.921 6.3603 15.7803 6.21965C15.6397 6.079 15.4489 5.99998 15.25 5.99998L8.75 6C8.33578 6 8 6.33579 8 6.75C8 7.16422 8.33579 7.5 8.75 7.5L13.4394 7.49999L6.21967 14.7197C5.92678 15.0126 5.92678 15.4874 6.21967 15.7803C6.51256 16.0732 6.98744 16.0732 7.28033 15.7803L14.5 8.56067Z" fill="#7D8198"/>
<path fill-rule="evenodd" clip-rule="evenodd" d="M22 11C22 17.0751 17.0751 22 11 22C4.92487 22 0 17.0751 0 11C0 4.92487 4.92487 0 11 0C17.0751 0 22 4.92487 22 11ZM11 20.5C16.2467 20.5 20.5 16.2467 20.5 11C20.5 5.75329 16.2467 1.5 11 1.5C5.75329 1.5 1.5 5.75329 1.5 11C1.5 16.2467 5.75329 20.5 11 20.5Z" fill="#7D8198"/>
</svg>
