<svg width="28" height="28" viewBox="0 0 28 28" fill="none" xmlns="http://www.w3.org/2000/svg">
<path fill-rule="evenodd" clip-rule="evenodd" d="M3 14C3 7.92487 7.92487 3 14 3C20.0751 3 25 7.92487 25 14C25 20.0751 20.0751 25 14 25C7.92487 25 3 20.0751 3 14ZM14 4.5C12.3719 4.5 10.8394 4.90957 9.5 5.63131V8L18.5 8V5.63131C17.1606 4.90957 15.6281 4.5 14 4.5ZM20 6.63416V11L23.0166 11C22.4414 9.27031 21.3824 7.76154 20 6.63416ZM20 12.5V15.5L23.3822 15.5C23.4598 15.0114 23.5 14.5104 23.5 14C23.5 13.4896 23.4598 12.9886 23.3822 12.5L20 12.5ZM20 17V21.3658C21.3824 20.2385 22.4414 18.7297 23.0166 17L20 17ZM18.5 22.3687V20H9.5V22.3687C10.8394 23.0904 12.3719 23.5 14 23.5C15.6281 23.5 17.1606 23.0904 18.5 22.3687ZM18.5 18.5L18.5 9.5L9.5 9.5L9.5 18.5H18.5ZM4.98341 11C5.55863 9.27031 6.61765 7.76154 8 6.63416L8 11L4.98341 11ZM4.61775 12.5C4.54025 12.9886 4.5 13.4896 4.5 14C4.5 14.5104 4.54025 15.0114 4.61775 15.5L8 15.5V12.5L4.61775 12.5ZM8 21.3658C6.61765 20.2385 5.55863 18.7297 4.98341 17L8 17V21.3658Z" fill="#7D8198"/>
</svg>
