<svg width="28" height="28" viewBox="0 0 28 28" fill="none" xmlns="http://www.w3.org/2000/svg">
    <path
        d="M14.0001 4.66675C8.84556 4.66675 4.66675 8.84532 4.66675 13.9995C4.66675 15.6472 5.09759 17.1929 5.84729 18.5368L4.68642 22.6927C4.58048 23.071 4.92909 23.4201 5.30797 23.3142L9.4661 22.1539C10.8091 22.902 12.3539 23.3323 14.0001 23.3323C19.1546 23.3323 23.3334 19.1538 23.3334 13.9995C23.3334 8.84532 19.1546 4.66675 14.0001 4.66675Z"
        stroke="#BCBED2" stroke-width="1.75" stroke-miterlimit="10" stroke-linejoin="round" />
    <path fill-rule="evenodd" clip-rule="evenodd"
        d="M15.1667 14C15.1667 14.6444 14.6444 15.1667 14.0001 15.1667C13.3557 15.1667 12.8334 14.6444 12.8334 14C12.8334 13.3557 13.3557 12.8334 14.0001 12.8334C14.6444 12.8334 15.1667 13.3557 15.1667 14ZM11.3751 14.0001C11.3751 14.6444 10.8527 15.1667 10.2084 15.1667C9.56408 15.1667 9.04175 14.6444 9.04175 14.0001C9.04175 13.3557 9.56408 12.8334 10.2084 12.8334C10.8527 12.8334 11.3751 13.3557 11.3751 14.0001ZM17.7917 15.1667C18.4361 15.1667 18.9584 14.6444 18.9584 14C18.9584 13.3557 18.4361 12.8334 17.7917 12.8334C17.1474 12.8334 16.6251 13.3557 16.6251 14C16.6251 14.6444 17.1474 15.1667 17.7917 15.1667Z"
        fill="#BCBED2" />
</svg>
