<svg width="28" height="28" viewBox="0 0 28 28" fill="none" xmlns="http://www.w3.org/2000/svg">
<path d="M19.25 17.5C19.6642 17.5 20 17.8358 20 18.25C20 18.6642 19.6642 19 19.25 19H8.75C8.33579 19 8 18.6642 8 18.25C8 17.8358 8.33579 17.5 8.75 17.5H19.25Z" fill="#7D8198"/>
<path d="M10 13C10.5523 13 11 13.4477 11 14C11 14.5523 10.5523 15 10 15C9.44772 15 9 14.5523 9 14C9 13.4477 9.44772 13 10 13Z" fill="#7D8198"/>
<path d="M14 13C14.5523 13 15 13.4477 15 14C15 14.5523 14.5523 15 14 15C13.4477 15 13 14.5523 13 14C13 13.4477 13.4477 13 14 13Z" fill="#7D8198"/>
<path d="M18 13C18.5523 13 19 13.4477 19 14C19 14.5523 18.5523 15 18 15C17.4477 15 17 14.5523 17 14C17 13.4477 17.4477 13 18 13Z" fill="#7D8198"/>
<path d="M8 9C8.55228 9 9 9.44772 9 10C9 10.5523 8.55228 11 8 11C7.44772 11 7 10.5523 7 10C7 9.44772 7.44772 9 8 9Z" fill="#7D8198"/>
<path d="M12 9C12.5523 9 13 9.44772 13 10C13 10.5523 12.5523 11 12 11C11.4477 11 11 10.5523 11 10C11 9.44772 11.4477 9 12 9Z" fill="#7D8198"/>
<path d="M16 9C16.5523 9 17 9.44772 17 10C17 10.5523 16.5523 11 16 11C15.4477 11 15 10.5523 15 10C15 9.44772 15.4477 9 16 9Z" fill="#7D8198"/>
<path d="M20 9C20.5523 9 21 9.44772 21 10C21 10.5523 20.5523 11 20 11C19.4477 11 19 10.5523 19 10C19 9.44772 19.4477 9 20 9Z" fill="#7D8198"/>
<path fill-rule="evenodd" clip-rule="evenodd" d="M22.25 5.00391C23.7688 5.00391 25 6.23512 25 7.75391V20.25C24.9999 21.7687 23.7687 23 22.25 23H5.75C4.23126 23 3.00007 21.7687 3 20.25V7.75391C3 6.23512 4.23122 5.00391 5.75 5.00391H22.25ZM5.75 6.50391C5.05964 6.50391 4.5 7.06355 4.5 7.75391V20.25C4.50007 20.9403 5.05968 21.5 5.75 21.5H22.25C22.9403 21.5 23.4999 20.9403 23.5 20.25V7.75391C23.5 7.06355 22.9404 6.50391 22.25 6.50391H5.75Z" fill="#7D8198"/>
</svg>
