<svg width="28" height="28" viewBox="0 0 28 28" fill="none" xmlns="http://www.w3.org/2000/svg">
<path d="M9.0022 4.75C9.0022 4.33579 9.33798 4 9.7522 4H18.248C18.6622 4 18.998 4.33579 18.998 4.75C18.998 5.16421 18.6622 5.5 18.248 5.5H9.7522C9.33798 5.5 9.0022 5.16421 9.0022 4.75Z" fill="#7D8198"/>
<path d="M14 18C15.3807 18 16.5 16.8807 16.5 15.5C16.5 14.1193 15.3807 13 14 13C12.6193 13 11.5 14.1193 11.5 15.5C11.5 16.8807 12.6193 18 14 18Z" fill="#7D8198"/>
<path fill-rule="evenodd" clip-rule="evenodd" d="M4 12.752C4 11.2332 5.23122 10.002 6.75 10.002H21.25C22.7688 10.002 24 11.2332 24 12.752V21.25C24 22.7688 22.7688 24 21.25 24H6.75C5.23122 24 4 22.7688 4 21.25V12.752ZM6.75 11.502C6.05964 11.502 5.5 12.0616 5.5 12.752V21.25C5.5 21.9404 6.05964 22.5 6.75 22.5H8.18077C8.64188 21.4309 10.1128 19.0178 14.0001 19C17.8874 19.0178 19.3582 21.4309 19.8193 22.5H21.25C21.9404 22.5 22.5 21.9404 22.5 21.25V12.752C22.5 12.0616 21.9404 11.502 21.25 11.502H6.75Z" fill="#7D8198"/>
<path d="M7.7512 7C7.33633 7 7 7.33579 7 7.75C7 8.16421 7.33633 8.5 7.7512 8.5H20.2488C20.6637 8.5 21 8.16421 21 7.75C21 7.33579 20.6637 7 20.2488 7H7.7512Z" fill="#7D8198"/>
</svg>
