<svg width="28" height="28" viewBox="0 0 28 28" fill="none" xmlns="http://www.w3.org/2000/svg">
<path d="M14 8.00171C11.7909 8.00171 10 9.79257 10 12.0017C10 14.2108 11.7909 16.0017 14 16.0017C16.2091 16.0017 18 14.2108 18 12.0017C18 9.79257 16.2091 8.00171 14 8.00171Z" fill="#7D8198"/>
<path fill-rule="evenodd" clip-rule="evenodd" d="M4 6.75C4 5.23122 5.23122 4 6.75 4H21.25C22.7688 4 24 5.23122 24 6.75V21.25C24 22.7688 22.7688 24 21.25 24H6.75C5.23122 24 4 22.7688 4 21.25V6.75ZM20.9876 22.5C20.9845 22.4884 20.9812 22.4768 20.9778 22.4652C20.7535 21.7048 20.2386 20.3522 19.1645 19.1791C18.0704 17.9841 16.4151 17 14 17C11.5849 17 9.9296 17.9841 8.83548 19.1791C7.76138 20.3522 7.2465 21.7048 7.02219 22.4652C7.01876 22.4768 7.01551 22.4884 7.01243 22.5H6.75C6.05964 22.5 5.5 21.9404 5.5 21.25V6.75C5.5 6.05964 6.05964 5.5 6.75 5.5H21.25C21.9404 5.5 22.5 6.05964 22.5 6.75V21.25C22.5 21.9404 21.9404 22.5 21.25 22.5H20.9876Z" fill="#7D8198"/>
</svg>
