<svg width="28" height="28" viewBox="0 0 28 28" fill="none" xmlns="http://www.w3.org/2000/svg">
<path fill-rule="evenodd" clip-rule="evenodd" d="M9.75 3.99951C9.33579 3.99951 9 4.3353 9 4.74951V8H6.75C5.7835 8 5 8.7835 5 9.75V18.25C5 19.2165 5.7835 20 6.75 20H9V23.2515C9 23.6657 9.33579 24.0015 9.75 24.0015H19.25C19.6642 24.0015 20 23.6657 20 23.2515V20H22.25C23.2165 20 24 19.2165 24 18.25V9.75C24 8.7835 23.2165 8 22.25 8H20V4.74951C20 4.3353 19.6642 3.99951 19.25 3.99951H9.75ZM9 16.7466V18.5H6.75C6.61193 18.5 6.5 18.3881 6.5 18.25V9.75C6.5 9.61193 6.61193 9.5 6.75 9.5H22.25C22.3881 9.5 22.5 9.61193 22.5 9.75V18.25C22.5 18.3881 22.3881 18.5 22.25 18.5H20V16.7466C20 16.3324 19.6642 15.9966 19.25 15.9966H9.75C9.33579 15.9966 9 16.3324 9 16.7466ZM18.5 8V5.49951H10.5V8H18.5ZM11.9965 19.25C11.9965 18.8358 12.3323 18.5 12.7465 18.5H16.25C16.6642 18.5 17 18.8358 17 19.25C17 19.6642 16.6642 20 16.25 20H12.7465C12.3323 20 11.9965 19.6642 11.9965 19.25ZM10.5 17.4966V22.5015H18.5V17.4966H10.5ZM20 13C20.5523 13 21 12.5523 21 12C21 11.4477 20.5523 11 20 11C19.4477 11 19 11.4477 19 12C19 12.5523 19.4477 13 20 13Z" fill="#7D8198"/>
</svg>
