<svg width="28" height="28" viewBox="0 0 28 28" fill="none" xmlns="http://www.w3.org/2000/svg">
<path fill-rule="evenodd" clip-rule="evenodd" d="M19.787 4.36483C19.3004 3.87871 18.5133 3.87872 18.0267 4.36485L7.90055 14.4815C7.41219 14.9694 7.4115 15.762 7.89901 16.2507L8.15709 16.5095L5.14228 19.6436C4.83686 19.9611 5.06131 20.4907 5.5013 20.4907H9.26146C9.51306 20.4907 9.75538 20.3954 9.93984 20.2238L10.937 19.2965L11.2606 19.6209C11.7476 20.1091 12.5372 20.1091 13.0241 19.6209L23.1378 9.47996C23.6253 8.9912 23.6245 8.19862 23.1362 7.71075L19.787 4.36483ZM16.8216 7.68648L18.9068 5.60319L21.9031 8.59649L19.8216 10.6836L16.8216 7.68648ZM15.7618 8.74533L9.13369 15.3672L12.1423 18.3835L18.7637 11.7443L15.7618 8.74533Z" fill="#7D8198"/>
<path d="M4.70389 22.2194C4.84258 22.079 5.03154 21.9999 5.22868 21.9999H21.9542C22.5052 21.9999 22.9518 22.4477 22.9518 22.9999C22.9518 23.5522 22.5052 23.9999 21.9542 23.9999H4.76234C4.08897 23.9999 3.74999 23.1853 4.22374 22.7056L4.70389 22.2194Z" fill="#7D8198"/>
</svg>
