<svg width="28" height="28" viewBox="0 0 28 28" fill="none" xmlns="http://www.w3.org/2000/svg">
<path fill-rule="evenodd" clip-rule="evenodd" d="M3 14C3 7.92487 7.92487 3 14 3C20.0751 3 25 7.92487 25 14C25 20.0751 20.0751 25 14 25C7.92487 25 3 20.0751 3 14ZM13.0138 4.55057C8.55468 5.01049 5.01049 8.55468 4.55057 13.0138C5.80701 13.0768 7.04475 13.3549 8.20952 13.8373C9.5441 14.3901 10.7567 15.2004 11.7782 16.2218C12.7996 17.2433 13.6099 18.4559 14.1627 19.7905C14.6451 20.9552 14.9232 22.193 14.9862 23.4494C19.4453 22.9895 22.9895 19.4453 23.4494 14.9862C22.193 14.9232 20.9552 14.6451 19.7905 14.1627C18.4559 13.6099 17.2433 12.7996 16.2218 11.7782C15.2004 10.7567 14.3901 9.5441 13.8373 8.20952C13.3549 7.04475 13.0768 5.80701 13.0138 4.55057ZM14.5139 4.51366C14.5719 5.58566 14.8114 6.64136 15.2231 7.63549C15.7006 8.78808 16.4003 9.83536 17.2825 10.7175C18.1646 11.5997 19.2119 12.2994 20.3645 12.7769C21.3586 13.1886 22.4143 13.4281 23.4863 13.4861C23.2285 8.6485 19.3515 4.77154 14.5139 4.51366ZM13.4861 23.4863C8.6485 23.2285 4.77154 19.3515 4.51366 14.5139C5.58566 14.5719 6.64136 14.8114 7.63549 15.2231C8.78809 15.7006 9.83536 16.4003 10.7175 17.2825C11.5997 18.1646 12.2994 19.2119 12.7769 20.3645C13.1886 21.3586 13.4281 22.4143 13.4861 23.4863Z" fill="#7D8198"/>
</svg>
