<svg width="28" height="28" viewBox="0 0 28 28" fill="none" xmlns="http://www.w3.org/2000/svg">
    <path fill-rule="evenodd" clip-rule="evenodd"
        d="M9.33329 3.91663C9.13438 3.91663 8.94361 3.99564 8.80296 4.1363L4.1363 8.80296C3.99564 8.94361 3.91663 9.13438 3.91663 9.33329V14V18.6666C3.91663 18.8655 3.99564 19.0563 4.1363 19.197L8.80296 23.8636C8.94361 24.0043 9.13438 24.0833 9.33329 24.0833H14H18.6666C18.8655 24.0833 19.0563 24.0043 19.197 23.8636L23.8636 19.197C24.0043 19.0563 24.0833 18.8655 24.0833 18.6666V14V9.33329C24.0833 9.13438 24.0043 8.94361 23.8636 8.80296L19.197 4.1363C19.0563 3.99564 18.8655 3.91663 18.6666 3.91663H14H9.33329ZM5.41663 9.64395L9.64395 5.41663H14H18.356L22.5833 9.64395V14V18.356L18.356 22.5833H14H9.64395L5.41663 18.356V14V9.64395ZM10.6856 10.6856C10.9052 10.4659 11.2614 10.4659 11.4811 10.6856L14 13.2045L16.5189 10.6856C16.7386 10.4659 17.0947 10.4659 17.3144 10.6856C17.5341 10.9052 17.5341 11.2614 17.3144 11.4811L14.7955 14L17.3144 16.5189C17.5341 16.7386 17.5341 17.0947 17.3144 17.3144C17.0947 17.5341 16.7386 17.5341 16.5189 17.3144L14 14.7955L11.4811 17.3144C11.2614 17.5341 10.9052 17.5341 10.6856 17.3144C10.4659 17.0947 10.4659 16.7386 10.6856 16.5189L13.2045 14L10.6856 11.4811C10.4659 11.2614 10.4659 10.9052 10.6856 10.6856Z"
        fill="#BCBED2" />
</svg>
