<svg width="28" height="28" viewBox="0 0 28 28" fill="none" xmlns="http://www.w3.org/2000/svg">
<path fill-rule="evenodd" clip-rule="evenodd" d="M22.7908 19.6092C22.9252 19.3125 23 18.9832 23 18.6364C23 18.1464 22.8307 17.7 22.6393 17.3288C22.4519 16.965 22.2094 16.6117 22.0012 16.3082L21.9887 16.2899C21.6974 15.8653 21.4836 15.5464 21.3745 15.2641C21.2609 14.9704 21.1667 14.5137 21.1667 13.8178L21.1666 13.8103V10.1632C21.1666 6.20521 17.958 2.99658 14 2.99658C11.854 2.99658 9.92831 3.9398 8.61488 5.43428L9.67839 6.4977C10.7178 5.27345 12.2682 4.49658 14 4.49658C17.1296 4.49658 19.6666 7.03364 19.6666 10.1632L19.6667 13.8178C19.6667 14.6397 19.7767 15.2912 19.9754 15.805C20.1546 16.2685 20.4686 16.726 20.7261 17.101L20.7517 17.1384C20.9743 17.4629 21.1658 17.7439 21.306 18.016C21.3435 18.0888 21.3749 18.1563 21.4006 18.2191L22.7908 19.6092ZM8.33331 11.5165L6.83476 10.018C6.8338 10.0663 6.83331 10.1147 6.83331 10.1633V13.828C6.8324 14.5182 6.73848 14.9719 6.62551 15.2641C6.51636 15.5464 6.3026 15.8653 6.01131 16.2899L5.99877 16.3082C5.79056 16.6117 5.54811 16.965 5.36063 17.3288C5.1693 17.7 4.99999 18.1464 4.99999 18.6364C4.99999 19.9399 6.0567 20.9966 7.36022 20.9966H11.0022C11.0024 21.3904 11.0799 21.7804 11.2302 22.1443C11.3807 22.5087 11.6015 22.84 11.8798 23.1191C12.1582 23.3983 12.4888 23.6198 12.8528 23.771C13.2168 23.9222 13.607 24 14.0011 24C14.3952 24 14.7854 23.9222 15.1494 23.771C15.5134 23.6198 15.844 23.3983 16.1223 23.1191C16.4007 22.84 16.6214 22.5087 16.772 22.1443C16.9223 21.7804 16.9998 21.3904 17 20.9966H17.8142L16.3141 19.4966H7.36022C6.88513 19.4966 6.49999 19.1115 6.49999 18.6364C6.49999 18.4867 6.55378 18.2879 6.69395 18.016C6.83418 17.7439 7.02563 17.4629 7.24823 17.1384L7.27391 17.101C7.53136 16.726 7.84537 16.2685 8.02458 15.805C8.22232 15.2936 8.33228 14.6458 8.33331 13.8295L8.33331 11.5165ZM12.5022 20.9966H15.5C15.4998 21.194 15.4609 21.3894 15.3856 21.5716C15.3101 21.7543 15.1995 21.9203 15.0603 22.0599C14.921 22.1996 14.7557 22.3102 14.574 22.3857C14.3923 22.4612 14.1976 22.5 14.0011 22.5C13.8045 22.5 13.6099 22.4612 13.4281 22.3857C13.2464 22.3102 13.0812 22.1996 12.9419 22.0599C12.8026 21.9203 12.692 21.7543 12.6166 21.5716C12.5413 21.3894 12.5024 21.194 12.5022 20.9966Z" fill="#7D8198"/>
<path fill-rule="evenodd" clip-rule="evenodd" d="M23.72 24.7807L3.21918 4.28147C2.92627 3.98858 2.92611 3.51356 3.2188 3.22047C3.5115 2.92738 3.98622 2.92721 4.27912 3.22009L24.7799 23.7194C25.0728 24.0122 25.073 24.4873 24.7803 24.7804C24.4876 25.0734 24.0129 25.0736 23.72 24.7807Z" fill="#7D8198"/>
</svg>
