<svg width="28" height="28" viewBox="0 0 28 28" fill="none" xmlns="http://www.w3.org/2000/svg">
<path d="M9.74896 3C9.33475 3 8.99896 3.33579 8.99896 3.75C8.99896 4.16421 9.33475 4.5 9.74896 4.5L13.249 4.5C13.6632 4.5 13.999 4.16422 13.999 3.75C13.999 3.33579 13.6632 3 13.249 3L9.74896 3Z" fill="#7D8198"/>
<path d="M8 10.75C8 9.23122 9.23122 8 10.75 8H22.25C23.7688 8 25 9.23122 25 10.75V22.25C25 23.7688 23.7688 25 22.25 25H14.75C14.3358 25 14 24.6642 14 24.25C14 23.8358 14.3358 23.5 14.75 23.5H22.25C22.9404 23.5 23.5 22.9404 23.5 22.25V10.75C23.5 10.0596 22.9404 9.5 22.25 9.5H10.75C10.0596 9.5 9.5 10.0596 9.5 10.75V14.25C9.5 14.6642 9.16421 15 8.75 15C8.33579 15 8 14.6642 8 14.25V10.75Z" fill="#7D8198"/>
<path d="M3.75 16C4.16421 16 4.5 16.3358 4.5 16.75V19C4.5 19.6904 5.05964 20.25 5.75 20.25H10.3389L8.2395 18.2994C7.93605 18.0175 7.91862 17.543 8.20056 17.2395C8.4825 16.9361 8.95705 16.9186 9.2605 17.2006L12.7584 20.4506C12.9112 20.5925 12.9979 20.7915 12.9979 21C12.9979 21.2085 12.9112 21.4075 12.7584 21.5494L9.2605 24.7994C8.95705 25.0814 8.4825 25.064 8.20056 24.7605C7.91862 24.4571 7.93605 23.9825 8.2395 23.7006L10.3389 21.75H5.75C4.23122 21.75 3 20.5188 3 19V16.75C3 16.3358 3.33579 16 3.75 16Z" fill="#7D8198"/>
<path d="M3.75 10C4.16421 10 4.5 10.3358 4.5 10.75V13.25C4.5 13.6642 4.16421 14 3.75 14C3.33579 14 3 13.6642 3 13.25V10.75C3 10.3358 3.33579 10 3.75 10Z" fill="#7D8198"/>
<path d="M3.75 8C4.16421 8 4.5 7.66422 4.5 7.25V5.75008C4.5 5.05973 5.05964 4.50009 5.74999 4.50008L6.255 4.50008C6.66922 4.50008 7.005 4.16429 7.005 3.75007C7.005 3.33586 6.66921 3.00008 6.25499 3.00008L5.74999 3.00008C4.23121 3.00009 3 4.23131 3 5.75008V7.25C3 7.66422 3.33579 8 3.75 8Z" fill="#7D8198"/>
<path d="M18.5 6.25C18.5 6.66422 18.8358 7 19.25 7C19.6642 7 20 6.66422 20 6.25V5.75008C20 4.2313 18.7688 3.00008 17.25 3.00008H16.75C16.3358 3.00008 16 3.33587 16 3.75008C16 4.16429 16.3358 4.50008 16.75 4.50008H17.25C17.9404 4.50008 18.5 5.05972 18.5 5.75008V6.25Z" fill="#7D8198"/>
</svg>
