<svg width="28" height="28" viewBox="0 0 28 28" fill="none" xmlns="http://www.w3.org/2000/svg">
<path fill-rule="evenodd" clip-rule="evenodd" d="M10.0006 8C10.0006 5.7911 11.7907 4 14 4C16.209 4 17.9994 5.79034 17.9994 7.99942V8.01588L23.25 8.01587C23.6642 8.01587 24 8.35166 24 8.76587C24 9.18008 23.6642 9.51587 23.25 9.51587L21.9423 9.51587L20.4601 21.5852C20.2907 22.964 19.1197 24 17.7306 24H10.2694C8.88025 24 7.70923 22.964 7.53991 21.5852L6.05771 9.51589L4.75 9.51589C4.33579 9.51589 4 9.1801 4 8.76589C4 8.35167 4.33579 8.01589 4.75 8.01589L10.0006 8.01588V8ZM11.5006 8.01588L16.4994 8.01588V7.99942C16.4994 6.61877 15.3806 5.5 14 5.5C12.6195 5.5 11.5006 6.61918 11.5006 8V8.01588ZM7.56898 9.51588L9.02872 21.4024C9.10569 22.0291 9.63797 22.5 10.2694 22.5H17.7306C18.362 22.5 18.8943 22.0291 18.9713 21.4024L20.431 9.51587L7.56898 9.51588ZM12.25 12C12.6642 12 13 12.3358 13 12.75V19.25C13 19.6642 12.6642 20 12.25 20C11.8358 20 11.5 19.6642 11.5 19.25V12.75C11.5 12.3358 11.8358 12 12.25 12ZM16.5 12.75C16.5 12.3358 16.1642 12 15.75 12C15.3358 12 15 12.3358 15 12.75V19.25C15 19.6642 15.3358 20 15.75 20C16.1642 20 16.5 19.6642 16.5 19.25V12.75Z" fill="#7D8198"/>
</svg>
