<svg width="28" height="28" viewBox="0 0 28 28" fill="none" xmlns="http://www.w3.org/2000/svg">
<path d="M14.0005 11.0039C14.5528 11.0039 15.0005 10.5562 15.0005 10.0039C15.0005 9.45162 14.5528 9.00391 14.0005 9.00391C13.4482 9.00391 13.0005 9.45162 13.0005 10.0039C13.0005 10.5562 13.4482 11.0039 14.0005 11.0039Z" fill="#7D8198"/>
<path d="M14.0005 12C13.5863 12 13.2505 12.3358 13.2505 12.75V18.25C13.2505 18.6642 13.5863 19 14.0005 19C14.4147 19 14.7505 18.6642 14.7505 18.25V12.75C14.7505 12.3358 14.4147 12 14.0005 12Z" fill="#7D8198"/>
<path fill-rule="evenodd" clip-rule="evenodd" d="M14 25C13.9 25 13.8 24.98 13.7 24.94C6.13 21.65 5 16.17 5 13.19V7.75C5 7.34 5.34 7 5.75 7C9.94 7 13.42 3.28 13.45 3.24C13.59 3.09 13.79 3 13.99 3C14.2 3.01 14.39 3.08 14.54 3.23L14.5415 3.23148C14.6342 3.32467 18.2893 7 22.25 7C22.66 7 23 7.34 23 7.75V13.2C23 16.17 21.87 21.65 14.3 24.94C14.2 24.98 14.1 25 14 25ZM6.5 8.46V13.19C6.5 15.76 7.48 20.46 14 23.42C20.52 20.46 21.5 15.75 21.5 13.19V8.46C18.12 8.15 15.19 5.85 14.01 4.79C12.86 5.86 10.01 8.16 6.5 8.46Z" fill="#7D8198"/>
</svg>
