<svg width="28" height="28" viewBox="0 0 28 28" fill="none" xmlns="http://www.w3.org/2000/svg">
<path d="M3.69074 13.9988C4.10365 13.9661 4.46493 14.2743 4.49766 14.6872C4.86954 19.3781 8.78044 23.5 14 23.5C19.227 23.5 23.5 19.2457 23.5 14C23.5 8.75329 19.2467 4.5 14 4.5C10.437 4.5 7.3311 6.46112 5.70454 9.3664C5.67657 9.41636 5.64374 9.46187 5.60696 9.50269L8.25036 9.50269C8.66458 9.50269 9.00036 9.83847 9.00036 10.2527C9.00036 10.6669 8.66458 11.0027 8.25036 11.0027L3.75001 11.0027C3.3358 11.0027 3.00001 10.6669 3.00001 10.2527L3.00001 5.75C3.00001 5.33579 3.3358 5 3.75001 5C4.16422 5 4.50001 5.33579 4.50001 5.75V8.45144C6.40768 5.19188 9.94739 3 14 3C20.0751 3 25 7.92487 25 14C25 20.0761 20.0534 25 14 25C7.93921 25 3.43131 20.2166 3.00235 14.8058C2.96962 14.3928 3.27782 14.0316 3.69074 13.9988Z" fill="#7D8198"/>
<path d="M14.5 8.75C14.5 8.33579 14.1642 8 13.75 8C13.3358 8 13 8.33579 13 8.75V15.2498C13 15.4487 13.079 15.6395 13.2197 15.7802C13.3603 15.9208 13.5511 15.9998 13.75 15.9998L18.25 15.9998C18.6642 15.9998 19 15.664 19 15.2498C19 14.8356 18.6642 14.4998 18.25 14.4998L14.5 14.4998V8.75Z" fill="#7D8198"/>
</svg>
