<svg width="28" height="28" viewBox="0 0 28 28" fill="none" xmlns="http://www.w3.org/2000/svg">
<path fill-rule="evenodd" clip-rule="evenodd" d="M14.75 4.75C14.75 4.33579 14.4142 4 14 4C13.5858 4 13.25 4.33579 13.25 4.75V6.99634H6.75C5.23122 6.99634 4 8.22756 4 9.74634V18.2463C4 19.7651 5.23122 20.9963 6.75 20.9963H13.25V23.25C13.25 23.6642 13.5858 24 14 24C14.4142 24 14.75 23.6642 14.75 23.25V20.9963H21.25C22.7688 20.9963 24 19.7651 24 18.2463V9.74634C24 8.22755 22.7688 6.99634 21.25 6.99634H14.75V4.75ZM13.25 8.49634H6.75C6.05964 8.49634 5.5 9.05598 5.5 9.74634V18.2463C5.5 18.9367 6.05964 19.4963 6.75 19.4963H13.25V8.49634ZM14.75 19.4963V8.49634H21.25C21.9404 8.49634 22.5 9.05598 22.5 9.74634V18.2463C22.5 18.9367 21.9404 19.4963 21.25 19.4963H14.75Z" fill="#7D8198"/>
</svg>
