<svg width="28" height="28" viewBox="0 0 28 28" fill="none" xmlns="http://www.w3.org/2000/svg">
<path d="M14 14C15.1046 14 16 13.1046 16 12C16 10.8954 15.1046 10 14 10C12.8954 10 12 10.8954 12 12C12 13.1046 12.8954 14 14 14Z" fill="#7D8198"/>
<path fill-rule="evenodd" clip-rule="evenodd" d="M20.7272 5.77032C17.0273 2.07685 10.9968 2.07656 7.29656 5.76945C3.57165 9.46411 3.57194 15.4877 7.27272 19.1821L12.4867 24.387C13.3115 25.2104 14.6463 25.1945 15.4788 24.3982L15.4846 24.3927L20.7025 19.1839L20.7033 19.1831C24.4285 15.4885 24.4279 9.46477 20.7272 5.77032ZM8.35543 6.8319C11.47 3.7227 16.5528 3.7227 19.6674 6.83191C22.7809 9.94009 22.7811 15.0105 19.6463 18.1188L19.6445 18.1205L14.4373 23.3188C14.1719 23.5678 13.7721 23.5507 13.5464 23.3254L8.33246 18.1206C5.21899 15.0124 5.21898 9.94207 8.35365 6.83368L8.35543 6.8319Z" fill="#7D8198"/>
</svg>
