<svg width="28" height="28" viewBox="0 0 28 28" fill="none" xmlns="http://www.w3.org/2000/svg">
<path d="M9.97437 15.5551C10.0228 15.4083 10.1064 15.2729 10.2161 15.1631L14.1704 11.2088L16.8105 13.8099L12.8371 17.7833C12.7274 17.8933 12.5917 17.9769 12.4443 18.0253L9.55986 18.9806C9.40605 19.0312 9.23763 18.9915 9.12284 18.8771C9.00852 18.7628 8.96833 18.5938 9.01936 18.4404L9.97437 15.5551Z" fill="#7D8198"/>
<path d="M17.8712 12.7492L15.2311 10.1481L15.8353 9.54397C16.5589 8.82033 17.7321 8.8203 18.4558 9.5439C19.1795 10.2675 19.1795 11.4409 18.4559 12.1645L17.8712 12.7492Z" fill="#7D8198"/>
<path fill-rule="evenodd" clip-rule="evenodd" d="M14 3C7.92487 3 3 7.92487 3 14C3 20.0751 7.92487 25 14 25C20.0751 25 25 20.0751 25 14C25 7.92487 20.0751 3 14 3ZM4.5 14C4.5 8.75329 8.75329 4.5 14 4.5C19.2467 4.5 23.5 8.75329 23.5 14C23.5 19.2467 19.2467 23.5 14 23.5C8.75329 23.5 4.5 19.2467 4.5 14Z" fill="#7D8198"/>
</svg>
