<svg width="28" height="28" viewBox="0 0 28 28" fill="none" xmlns="http://www.w3.org/2000/svg">
<path fill-rule="evenodd" clip-rule="evenodd" d="M8.75055 9C8.97267 9 9.17225 8.90344 9.30958 8.75H13.2498V19.5029H12.7543C12.34 19.5029 12.0043 19.8387 12.0043 20.2529C12.0043 20.6671 12.34 21.0029 12.7543 21.0029H15.2543C15.6685 21.0029 16.0043 20.6671 16.0043 20.2529C16.0043 19.8387 15.6685 19.5029 15.2543 19.5029H14.7498V8.75H18.6904C18.8278 8.90344 19.0273 9 19.2495 9C19.6637 9 19.9995 8.66421 19.9995 8.25V7.75C19.9995 7.33579 19.6637 7 19.2495 7C19.0273 7 18.8278 7.09656 18.6904 7.25L9.30958 7.25C9.17225 7.09656 8.97267 7 8.75055 7C8.33634 7 8.00055 7.33579 8.00055 7.75V8.25C8.00055 8.66421 8.33634 9 8.75055 9Z" fill="#7D8198"/>
</svg>
