<svg width="28" height="28" viewBox="0 0 28 28" fill="none" xmlns="http://www.w3.org/2000/svg">
<path fill-rule="evenodd" clip-rule="evenodd" d="M14.5 6.22175C16.6479 4.07387 20.1303 4.07387 22.2782 6.22175C24.3244 8.26797 24.4212 11.5246 22.5689 13.6861C22.5494 13.7088 22.5296 13.7315 22.5097 13.754C22.2351 14.0641 21.7611 14.0929 21.451 13.8183C21.1409 13.5436 21.1121 13.0696 21.3867 12.7595C21.4013 12.7431 21.4157 12.7266 21.4299 12.71C22.7762 11.139 22.7053 8.77015 21.2176 7.28241C19.6555 5.72032 17.1228 5.72032 15.5607 7.28241L8.66642 14.1767C8.37353 14.4696 7.89865 14.4696 7.60576 14.1767C7.31287 13.8838 7.31287 13.4089 7.60576 13.116L14.5 6.22175ZM16.7981 10.6412C17.091 10.9341 17.091 11.4089 16.7981 11.7018L9.19675 19.3032C8.4157 20.0843 8.4157 21.3506 9.19675 22.1317C9.9778 22.9127 11.2441 22.9127 12.0252 22.1317L12.5997 21.5571L12.7254 21.4315C13.0183 21.1386 13.4931 21.1386 13.786 21.4315C14.0789 21.7243 14.0789 22.1992 13.786 22.4921L13.0858 23.1923C11.719 24.5591 9.50292 24.5592 8.13609 23.1923C6.76925 21.8255 6.76925 19.6094 8.13609 18.2426L15.7375 10.6412C16.0304 10.3483 16.5053 10.3483 16.7981 10.6412Z" fill="#7D8198"/>
<path fill-rule="evenodd" clip-rule="evenodd" d="M20.7605 16.1835C20.8264 15.9387 21.1737 15.9387 21.2396 16.1835L21.9134 18.6861C22.0973 19.3691 22.6308 19.9027 23.3139 20.0866L25.8165 20.7604C26.0612 20.8263 26.0612 21.1736 25.8165 21.2395L23.3139 21.9133C22.6308 22.0972 22.0973 22.6307 21.9134 23.3138L21.2396 25.8163C21.1737 26.0611 20.8264 26.0611 20.7605 25.8163L20.0867 23.3138C19.9028 22.6307 19.3693 22.0972 18.6862 21.9133L16.1836 21.2395C15.9388 21.1736 15.9388 20.8263 16.1836 20.7604L18.6862 20.0866C19.3693 19.9027 19.9028 19.3691 20.0867 18.6861L20.7605 16.1835Z" fill="#7D8198"/>
</svg>
