<svg width="28" height="28" viewBox="0 0 28 28" fill="none" xmlns="http://www.w3.org/2000/svg">
<path fill-rule="evenodd" clip-rule="evenodd" d="M4 8.75C4 7.23122 5.23122 6 6.75 6H21.25C22.7688 6 24 7.23122 24 8.75V12.2512C24 12.6654 23.6642 13.0012 23.25 13.0012C22.8358 13.0012 22.5 12.6654 22.5 12.2512V10.6403L15.3451 14.6525C14.5096 15.121 13.4904 15.121 12.6549 14.6525L5.5 10.6403V19.25C5.5 19.9404 6.05964 20.5 6.75 20.5H12.25C12.6642 20.5 13 20.8358 13 21.25C13 21.6642 12.6642 22 12.25 22H6.75C5.23122 22 4 20.7688 4 19.25V8.75ZM22.5 8.75V8.92051L14.6114 13.3442C14.2316 13.5571 13.7684 13.5571 13.3886 13.3442L5.5 8.92051V8.75C5.5 8.05964 6.05964 7.5 6.75 7.5H21.25C21.9404 7.5 22.5 8.05964 22.5 8.75Z" fill="#7D8198"/>
<path fill-rule="evenodd" clip-rule="evenodd" d="M26 20.5C26 23.5376 23.5376 26 20.5 26C17.4624 26 15 23.5376 15 20.5C15 17.4624 17.4624 15 20.5 15C23.5376 15 26 17.4624 26 20.5ZM23.1749 18.132C23.5162 18.3667 23.6027 18.8336 23.368 19.175L20.618 23.175C20.4868 23.3659 20.2747 23.4854 20.0434 23.4988C19.8121 23.5122 19.5876 23.4179 19.4351 23.2435L17.6883 21.2435C17.4158 20.9315 17.4478 20.4577 17.7597 20.1852C18.0717 19.9127 18.5455 19.9447 18.818 20.2567L19.9293 21.529L22.132 18.3252C22.3666 17.9838 22.8336 17.8974 23.1749 18.132Z" fill="#7D8198"/>
</svg>
