<svg width="28" height="28" viewBox="0 0 28 28" fill="none" xmlns="http://www.w3.org/2000/svg">
<path d="M8.75 9C8.33579 9 8 9.33579 8 9.75C8 10.1642 8.33579 10.5 8.75 10.5H19.25C19.6642 10.5 20 10.1642 20 9.75C20 9.33579 19.6642 9 19.25 9H8.75Z" fill="#7D8198"/>
<path fill-rule="evenodd" clip-rule="evenodd" d="M6.75 5.00403C5.23122 5.00403 4 6.23525 4 7.75403V20.25C4 21.7688 5.23122 23 6.75 23H21.25C22.7688 23 24 21.7688 24 20.25V7.75403C24 6.23525 22.7688 5.00403 21.25 5.00403H6.75ZM5.5 7.75403C5.5 7.06367 6.05964 6.50403 6.75 6.50403H21.25C21.9404 6.50403 22.5 7.06367 22.5 7.75403V20.25C22.5 20.9404 21.9404 21.5 21.25 21.5H6.75C6.05964 21.5 5.5 20.9404 5.5 20.25V7.75403Z" fill="#7D8198"/>
</svg>
