<svg width="28" height="28" viewBox="0 0 28 28" fill="none" xmlns="http://www.w3.org/2000/svg">
<path fill-rule="evenodd" clip-rule="evenodd" d="M10.75 3.00256C9.23122 3.00256 8 4.23378 8 5.75256V6.10608C6.84575 6.43254 6 7.49379 6 8.75256V9.10608C4.84575 9.43254 4 10.4938 4 11.7526V20.25C4 21.7688 5.23122 23 6.75 23H21.25C22.7688 23 24 21.7688 24 20.25V11.7526C24 10.4938 23.1543 9.43254 22 9.10608V8.75256C22 7.49379 21.1543 6.43254 20 6.10608V5.75256C20 4.23378 18.7688 3.00256 17.25 3.00256H10.75ZM18.5 6.00256V5.75256C18.5 5.06221 17.9404 4.50256 17.25 4.50256H10.75C10.0596 4.50256 9.5 5.06221 9.5 5.75256V6.00256H18.5ZM20.5 8.75256V9.00256H7.5V8.75256C7.5 8.06221 8.05964 7.50256 8.75 7.50256H19.25C19.9404 7.50256 20.5 8.06221 20.5 8.75256ZM6.75 10.5026C6.05964 10.5026 5.5 11.0622 5.5 11.7526V20.25C5.5 20.9404 6.05964 21.5 6.75 21.5H21.25C21.9404 21.5 22.5 20.9404 22.5 20.25V11.7526C22.5 11.0622 21.9404 10.5026 21.25 10.5026H6.75Z" fill="#7D8198"/>
</svg>
