<svg width="28" height="28" viewBox="0 0 28 28" fill="none" xmlns="http://www.w3.org/2000/svg">
<path fill-rule="evenodd" clip-rule="evenodd" d="M4 6.75C4 5.23122 5.23122 4 6.75 4H21.25C22.7688 4 24 5.23122 24 6.75V11.25C24 11.6642 23.6642 12 23.25 12C22.8358 12 22.5 11.6642 22.5 11.25V6.75C22.5 6.05964 21.9404 5.5 21.25 5.5H14.5V17.25C14.5 17.6642 14.1642 18 13.75 18C13.3358 18 13 17.6642 13 17.25V11.5H5.5V21.25C5.5 21.9404 6.05964 22.5 6.75 22.5H13.25C13.6642 22.5 14 22.8358 14 23.25C14 23.6642 13.6642 24 13.25 24H6.75C5.23121 24 4 22.7688 4 21.25V6.75ZM13 5.5V10H5.5V6.75C5.5 6.05964 6.05964 5.5 6.75 5.5H13Z" fill="#7D8198"/>
<path d="M23.6602 20.2854L21.7534 22.2569V14.7501C21.7534 14.3359 21.4176 14.0001 21.0034 14.0001C20.5891 14.0001 20.2534 14.3359 20.2534 14.7501V22.2638L18.3399 20.2854C18.084 19.9596 17.6125 19.903 17.2868 20.1588C16.961 20.4147 16.9044 20.8862 17.1602 21.2119L20.4102 24.7133C20.5524 24.8943 20.7698 25 21 25C21.2302 25 21.4477 24.8943 21.5899 24.7133L24.8399 21.2119C25.0957 20.8862 25.039 20.4147 24.7133 20.1588C24.3875 19.903 23.9161 19.9596 23.6602 20.2854Z" fill="#7D8198"/>
</svg>
