<svg width="28" height="28" viewBox="0 0 28 28" fill="none" xmlns="http://www.w3.org/2000/svg">
<path d="M7.74805 7C7.54913 7 7.35837 7.07902 7.21772 7.21967C7.07706 7.36032 6.99805 7.55109 6.99805 7.75L6.99808 16.2538C6.99809 16.668 7.33387 17.0038 7.74809 17.0038C8.1623 17.0038 8.49809 16.668 8.49809 16.2538L8.49806 9.55487L19.7217 20.7805C20.0146 21.0734 20.4895 21.0735 20.7824 20.7806C21.0753 20.4878 21.0753 20.0129 20.7825 19.72L9.5645 8.5L16.25 8.5C16.6642 8.5 17 8.16421 17 7.75C17 7.33579 16.6642 7 16.25 7H7.74805Z" fill="#7D8198"/>
</svg>
