<svg width="28" height="28" viewBox="0 0 28 28" fill="none" xmlns="http://www.w3.org/2000/svg">
<path d="M18.8435 12.2086C19.0183 11.9823 19.0493 11.6762 18.9232 11.4194C18.7971 11.1627 18.536 11 18.25 11L9.74999 11C9.46397 11 9.20285 11.1627 9.07678 11.4194C8.95071 11.6762 8.98164 11.9823 9.15653 12.2086L13.4065 17.7086C13.5486 17.8924 13.7677 18 14 18C14.2323 18 14.4514 17.8924 14.5935 17.7086L18.8435 12.2086Z" fill="#7D8198"/>
<path fill-rule="evenodd" clip-rule="evenodd" d="M4 6.75C4 5.23122 5.23122 4 6.75 4H21.25C22.7688 4 24 5.23122 24 6.75V21.25C24 22.7688 22.7688 24 21.25 24H6.75C5.23122 24 4 22.7688 4 21.25V6.75ZM6.75 5.5C6.05964 5.5 5.5 6.05964 5.5 6.75V21.25C5.5 21.9404 6.05964 22.5 6.75 22.5H21.25C21.9404 22.5 22.5 21.9404 22.5 21.25V6.75C22.5 6.05964 21.9404 5.5 21.25 5.5H6.75Z" fill="#7D8198"/>
</svg>
