<svg width="28" height="28" viewBox="0 0 28 28" fill="none" xmlns="http://www.w3.org/2000/svg">
<path fill-rule="evenodd" clip-rule="evenodd" d="M18 4.5C14.9624 4.5 12.5 6.96243 12.5 10C12.5 10.6224 12.6031 11.2191 12.7925 11.775C12.8837 12.0427 12.8166 12.3389 12.619 12.5411L6.5 18.8022V21.5H9.5004L9.50135 19.7496C9.50157 19.3355 9.83729 19 10.2513 19H12.0008L12 17.7505C11.9999 17.5515 12.0788 17.3606 12.2195 17.2198C12.3602 17.0791 12.551 17 12.75 17H14.5V15.6082C14.5 15.3495 14.6333 15.109 14.8528 14.972C15.0723 14.835 15.3469 14.8208 15.5793 14.9344C16.3149 15.2938 17.1419 15.5 18 15.5C21.0376 15.5 23.5 13.0376 23.5 10C23.5 6.96243 21.0376 4.5 18 4.5ZM11 10C11 6.13401 14.134 3 18 3C21.866 3 25 6.13401 25 10C25 13.866 21.866 17 18 17C17.3084 17 16.6355 16.8955 16 16.7047V17.75C16 18.1642 15.6642 18.5 15.25 18.5H13.5005L13.5013 19.7495C13.5015 19.9485 13.4225 20.1394 13.2818 20.2802C13.1412 20.4209 12.9503 20.5 12.7513 20.5H11.0009L11 22.2504C10.9998 22.6645 10.6641 23 10.25 23H5.75C5.33579 23 5 22.6642 5 22.25V18.4966C5 18.3007 5.07667 18.1125 5.21361 17.9724L11.2364 11.8097C11.0821 11.2318 11 10.625 11 10Z" fill="#7D8198"/>
<path d="M20 9.5C20 10.3284 19.3284 11 18.5 11C17.6716 11 17 10.3284 17 9.5C17 8.67157 17.6716 8 18.5 8C19.3284 8 20 8.67157 20 9.5Z" fill="#7D8198"/>
</svg>
