<svg width="28" height="28" viewBox="0 0 28 28" fill="none" xmlns="http://www.w3.org/2000/svg">
<path d="M10.75 8C10.3358 8 10 8.33579 10 8.75V19.25C10 19.6642 10.3358 20 10.75 20H17.25C17.6642 20 18 19.6642 18 19.25V8.75C18 8.33579 17.6642 8 17.25 8H10.75Z" fill="#7D8198"/>
<path fill-rule="evenodd" clip-rule="evenodd" d="M4 6.75C4 5.23122 5.23122 4 6.75 4H21.25C22.7688 4 24 5.23122 24 6.75V21.25C24 22.7688 22.7688 24 21.25 24H6.75C5.23122 24 4 22.7688 4 21.25V6.75ZM6.75 5.5C6.05964 5.5 5.5 6.05964 5.5 6.75V21.25C5.5 21.9404 6.05964 22.5 6.75 22.5H21.25C21.9404 22.5 22.5 21.9404 22.5 21.25V6.75C22.5 6.05964 21.9404 5.5 21.25 5.5H6.75Z" fill="#7D8198"/>
</svg>
