<svg width="28" height="28" viewBox="0 0 28 28" fill="none" xmlns="http://www.w3.org/2000/svg">
<path d="M9.99994 14.9951C10.5522 14.9951 10.9999 14.5474 10.9999 13.9951C10.9999 13.4428 10.5522 12.9951 9.99994 12.9951C9.44765 12.9951 8.99994 13.4428 8.99994 13.9951C8.99994 14.5474 9.44765 14.9951 9.99994 14.9951Z" fill="#7D8198"/>
<path d="M15.0046 13.9951C15.0046 14.5474 14.5569 14.9951 14.0046 14.9951C13.4523 14.9951 13.0046 14.5474 13.0046 13.9951C13.0046 13.4428 13.4523 12.9951 14.0046 12.9951C14.5569 12.9951 15.0046 13.4428 15.0046 13.9951Z" fill="#7D8198"/>
<path d="M17.9999 14.9956C18.5522 14.9956 18.9999 14.5479 18.9999 13.9956C18.9999 13.4433 18.5522 12.9956 17.9999 12.9956C17.4477 12.9956 16.9999 13.4433 16.9999 13.9956C16.9999 14.5479 17.4477 14.9956 17.9999 14.9956Z" fill="#7D8198"/>
<path fill-rule="evenodd" clip-rule="evenodd" d="M13.9972 4C8.49361 4 4.00018 8.49391 4.00018 13.9971C4.00018 15.6407 4.37363 17.1476 5.08188 18.5156L4.04975 22.3646C3.92075 22.8322 4.07962 23.2836 4.34631 23.5791C4.61766 23.8798 5.07915 24.0989 5.59386 23.955L5.59605 23.9543L9.39198 22.8805C10.7642 23.5883 12.3518 24 13.9972 24C19.5007 24 24.0002 19.5004 24.0002 13.9971C24.0002 8.49328 19.5001 4 13.9972 4ZM5.50018 13.9971C5.50018 9.32228 9.3221 5.5 13.9972 5.5C18.6729 5.5 22.5002 9.32291 22.5002 13.9971C22.5002 18.672 18.6723 22.5 13.9972 22.5C12.504 22.5 11.0626 22.0999 9.84424 21.4212C9.6708 21.3246 9.46613 21.3007 9.2751 21.3547L5.59434 22.396L6.60772 18.6169C6.65826 18.4284 6.63336 18.2277 6.53829 18.0573C5.861 16.8431 5.50018 15.4973 5.50018 13.9971Z" fill="#7D8198"/>
</svg>
