<svg width="28" height="29" viewBox="0 0 28 29" fill="none" xmlns="http://www.w3.org/2000/svg">
<path d="M4.75 17.49C5.16421 17.49 5.5 17.8258 5.5 18.24V21.74C5.5 22.4303 6.05964 22.99 6.75 22.99H10.25C10.6642 22.99 11 23.3258 11 23.74C11 24.1542 10.6642 24.49 10.25 24.49H6.75C5.23122 24.49 4 23.2588 4 21.74V18.24C4 17.8258 4.33579 17.49 4.75 17.49Z" fill="#7D8198"/>
<path d="M23.25 17.49C23.6642 17.49 24 17.8258 24 18.24V21.74C24 23.2588 22.7688 24.49 21.25 24.49H17.75C17.3358 24.49 17 24.1542 17 23.74C17 23.3258 17.3358 22.99 17.75 22.99H21.25C21.9404 22.99 22.5 22.4303 22.5 21.74V18.24C22.5 17.8258 22.8358 17.49 23.25 17.49Z" fill="#7D8198"/>
<path d="M10.25 4.48999C10.6642 4.48999 11 4.82578 11 5.23999C11 5.6542 10.6642 5.98999 10.25 5.98999H6.75C6.05964 5.98999 5.5 6.54964 5.5 7.23999V10.7419C5.49978 11.156 5.16408 11.4919 4.75 11.4919C4.33592 11.4919 4.00022 11.156 4 10.7419V7.23999C4 5.72121 5.23122 4.48999 6.75 4.48999H10.25Z" fill="#7D8198"/>
<path d="M21.25 4.48999C22.7688 4.48999 24 5.72121 24 7.23999V10.74C24 11.1542 23.6642 11.49 23.25 11.49C22.8358 11.49 22.5 11.1542 22.5 10.74V7.23999C22.5 6.54963 21.9404 5.98999 21.25 5.98999H17.748C17.334 5.98981 16.998 5.65409 16.998 5.23999C16.998 4.82589 17.334 4.49017 17.748 4.48999H21.25Z" fill="#7D8198"/>
</svg>
