<svg width="28" height="28" viewBox="0 0 28 28" fill="none" xmlns="http://www.w3.org/2000/svg">
<path fill-rule="evenodd" clip-rule="evenodd" d="M17 5.24793C17 4.24815 15.8617 3.63517 15.0262 4.23549C13.9915 4.979 13.1107 5.67567 12.248 6.36062L12.1497 6.43873C11.319 7.09833 10.5014 7.74759 9.55755 8.43478C9.03921 8.81217 8.41245 9 7.75 9H5.75C4.22936 9 3 10.2312 3 11.75V16.25C3 17.7724 4.22575 19.0051 5.75 19L7.75 19.0039C8.46394 19.0015 9.04076 19.2337 9.60954 19.6647L14.9865 23.739C15.8107 24.3634 17 23.7832 17 22.75V5.24793ZM13.1826 7.5348C13.925 6.94534 14.6624 6.36202 15.4927 5.75162V22.2396L10.5173 18.4696C9.68595 17.8397 8.79346 17.5004 7.75 17.5039L5.75 17.5C5.05716 17.5023 4.50183 16.942 4.50183 16.25V11.75C4.50183 11.0596 5.0588 10.5 5.75 10.5H7.75C8.70908 10.5 9.65021 10.2235 10.4422 9.64692C11.412 8.94084 12.2515 8.27418 13.0781 7.61778L13.1826 7.5348Z" fill="#7D8198"/>
<path d="M20.1925 8.9378C19.9301 8.61706 19.457 8.56952 19.1359 8.83162C18.8148 9.09372 18.7672 9.56621 19.0296 9.88695C19.9795 11.048 20.4983 12.5013 20.4982 14.0007C20.498 15.5001 19.9788 16.9533 19.0286 18.1141C18.7661 18.4348 18.8136 18.9073 19.1347 19.1695C19.4558 19.4316 19.9289 19.3842 20.1914 19.0635C21.3608 17.6348 21.9998 15.8463 22 14.0009C22.0002 12.1555 21.3617 10.3668 20.1925 8.9378Z" fill="#7D8198"/>
</svg>
