<svg width="28" height="28" viewBox="0 0 28 28" fill="none" xmlns="http://www.w3.org/2000/svg">
<path d="M14.2611 3.20451C13.9599 2.9201 13.4853 2.93364 13.2008 3.23477C12.9164 3.53591 12.93 4.01059 13.2311 4.295L16.3598 7.25H13.9961C9.16144 7.25 5 11.1068 5 16.0039C5 20.8637 9.13136 25.0025 13.9961 25.0025C18.8863 25.0025 22.9961 20.6378 22.9961 15.75C22.9961 15.3358 22.6603 15 22.2461 15C21.8319 15 21.4961 15.3358 21.4961 15.75C21.4961 19.8622 18.0059 23.5025 13.9961 23.5025C9.96083 23.5025 6.5 20.0363 6.5 16.0039C6.5 11.9932 9.93075 8.75 13.9961 8.75H16.3597L13.2311 11.7047C12.93 11.9892 12.9164 12.4638 13.2008 12.765C13.4852 13.0661 13.9599 13.0797 14.2611 12.7953L18.7611 8.54526C18.9111 8.40358 18.9961 8.20636 18.9961 8.00001C18.9961 7.79367 18.9111 7.59644 18.7611 7.45476L14.2611 3.20451Z" fill="#7D8198"/>
</svg>
