<svg width="28" height="28" viewBox="0 0 28 28" fill="none" xmlns="http://www.w3.org/2000/svg">
<path d="M21 12C23.2091 12 25 10.2091 25 8C25 5.79086 23.2091 4 21 4C18.7909 4 17 5.79086 17 8C17 10.2091 18.7909 12 21 12Z" fill="#7D8198"/>
<path d="M6.75 7.5C6.05964 7.5 5.5 8.05964 5.5 8.75V8.92051L13.3886 13.3442C13.7684 13.5571 14.2316 13.5571 14.6114 13.3442L16.4457 12.3156C16.807 12.113 17.2641 12.2416 17.4667 12.6029C17.6693 12.9642 17.5406 13.4213 17.1793 13.6239L15.3451 14.6525C14.5096 15.121 13.4904 15.121 12.6549 14.6525L5.5 10.6403V19.25C5.5 19.9404 6.05964 20.5 6.75 20.5H21.25C21.9404 20.5 22.5 19.9404 22.5 19.25V14.7464C22.5 14.3322 22.8358 13.9964 23.25 13.9964C23.6642 13.9964 24 14.3322 24 14.7464V19.25C24 20.7688 22.7688 22 21.25 22H6.75C5.23122 22 4 20.7688 4 19.25V8.75C4 7.23122 5.23122 6 6.75 6H14.25C14.6642 6 15 6.33579 15 6.75C15 7.16421 14.6642 7.5 14.25 7.5H6.75Z" fill="#7D8198"/>
</svg>
