<svg width="28" height="28" viewBox="0 0 28 28" fill="none" xmlns="http://www.w3.org/2000/svg">
<path fill-rule="evenodd" clip-rule="evenodd" d="M10 7.75C10 7.33579 10.3358 7 10.75 7H22.25C22.6642 7 23 7.33579 23 7.75C23 8.16421 22.6642 8.5 22.25 8.5H10.75C10.3358 8.5 10 8.16421 10 7.75Z" fill="#7D8198"/>
<path fill-rule="evenodd" clip-rule="evenodd" d="M10 13.75C10 13.3358 10.3358 13 10.75 13H22.25C22.6642 13 23 13.3358 23 13.75C23 14.1642 22.6642 14.5 22.25 14.5H10.75C10.3358 14.5 10 14.1642 10 13.75Z" fill="#7D8198"/>
<path fill-rule="evenodd" clip-rule="evenodd" d="M10 19.75C10 19.3358 10.3358 19 10.75 19H22.25C22.6642 19 23 19.3358 23 19.75C23 20.1642 22.6642 20.5 22.25 20.5H10.75C10.3358 20.5 10 20.1642 10 19.75Z" fill="#7D8198"/>
<path d="M7 8C7 8.55228 6.55228 9 6 9C5.44772 9 5 8.55228 5 8C5 7.44772 5.44772 7 6 7C6.55228 7 7 7.44772 7 8Z" fill="#7D8198"/>
<path d="M7 14C7 14.5523 6.55228 15 6 15C5.44772 15 5 14.5523 5 14C5 13.4477 5.44772 13 6 13C6.55228 13 7 13.4477 7 14Z" fill="#7D8198"/>
<path d="M7 20C7 20.5523 6.55228 21 6 21C5.44772 21 5 20.5523 5 20C5 19.4477 5.44772 19 6 19C6.55228 19 7 19.4477 7 20Z" fill="#7D8198"/>
</svg>
