<svg width="28" height="28" viewBox="0 0 28 28" fill="none" xmlns="http://www.w3.org/2000/svg">
<path d="M22.2517 6.19254C22.0316 5.99441 21.7154 5.94439 21.4449 6.06489C21.1743 6.18539 21 6.45383 21 6.75001V8.25H18.3582C17.2791 8.25 16.2523 8.71486 15.5403 9.52575L12.6098 12.8633L9.45971 9.27575C8.74772 8.46486 7.72092 8 6.64181 8H4.75C4.33579 8 4 8.33579 4 8.75C4 9.16421 4.33579 9.5 4.75 9.5H6.64181C7.28928 9.5 7.90536 9.77892 8.33255 10.2654L11.6117 14L8.33255 17.7346C7.90536 18.2211 7.28928 18.5 6.64181 18.5H4.75C4.33579 18.5 4 18.8358 4 19.25C4 19.6642 4.33579 20 4.75 20H6.64181C7.72092 20 8.74772 19.5351 9.45971 18.7243L12.6098 15.1367L15.5403 18.4743C16.2523 19.2851 17.2791 19.75 18.3582 19.75H21V21.25C21 21.5462 21.1743 21.8146 21.4449 21.9351C21.7154 22.0556 22.0316 22.0056 22.2517 21.8075L24.7517 19.5575C24.9098 19.4152 25.0001 19.2124 25 18.9997C24.9999 18.787 24.9095 18.5843 24.7512 18.4421L22.2512 16.196C22.031 15.9981 21.715 15.9484 21.4446 16.0689C21.1742 16.1895 21 16.4579 21 16.7539V18.25H18.3582C17.7107 18.25 17.0946 17.9711 16.6674 17.4846L13.6078 14L16.6674 10.5154C17.0946 10.0289 17.7107 9.75 18.3582 9.75H21V11.25C21 11.5462 21.1743 11.8146 21.4449 11.9351C21.7154 12.0556 22.0316 12.0056 22.2517 11.8075L24.7517 9.55748C24.9098 9.41525 25 9.21263 25 9.00001C25 8.7874 24.9098 8.58477 24.7517 8.44254L22.2517 6.19254Z" fill="#7D8198"/>
</svg>
