<svg width="28" height="28" viewBox="0 0 28 28" fill="none" xmlns="http://www.w3.org/2000/svg">
<path d="M20 14C20 14.5523 19.5523 15 19 15C18.4477 15 18 14.5523 18 14C18 13.4477 18.4477 13 19 13C19.5523 13 20 13.4477 20 14Z" fill="#7D8198"/>
<path fill-rule="evenodd" clip-rule="evenodd" d="M5.75 5C4.23122 5 3 6.23122 3 7.75V20.25C3 21.7688 4.23122 23 5.75 23H17.2846C18.1232 23 18.9161 22.6173 19.4378 21.9606L24.4035 15.71C25.1993 14.7084 25.1992 13.2903 24.4034 12.2887L19.4377 6.03922C18.916 5.38265 18.1233 5 17.2847 5H5.75ZM4.5 7.75C4.5 7.05964 5.05964 6.5 5.75 6.5H17.2847C17.6658 6.5 18.0262 6.67393 18.2633 6.97237L23.229 13.2218C23.5907 13.6771 23.5907 14.3217 23.229 14.777L18.2633 21.0275C18.0262 21.326 17.6658 21.5 17.2846 21.5H5.75C5.05964 21.5 4.5 20.9404 4.5 20.25V7.75Z" fill="#7D8198"/>
</svg>
