<svg fill="none" height="28" viewBox="0 0 28 28" width="28" xmlns="http://www.w3.org/2000/svg"><g fill="#7d8198"><path d="m20.0374 24.9988h-4.9118c-.0831 0-.1246-.0467-.1246-.1399v-8.0768c-.0022-.0155-.0008-.0314.0041-.0463s.0131-.0284.024-.0395c.0108-.0111.0241-.0195.0387-.0245s.0302-.0064.0454-.0042h1.5209c.0119-.0017.0239-.0005.0353.0033.0113.0039.0217.0104.0301.0191.0085.0086.0149.0191.0187.0307.0037.0116.0049.0239.0032.036v6.6395h3.5778c.0748 0 .1039.0381.0873.1144l-.2244 1.3737c-.0005.0188-.0053.0371-.0139.0537-.0087.0165-.021.0308-.036.0417-.0231.0123-.0487.0188-.0748.0191z"/><path d="m21.2716 18.6774h1.3588c.0369.0003.0727.0129.1019.0358.0293.023.0504.0551.0601.0914.0297.0557.0507.1157.0624.178.0174.0818.0299.1647.0374.2481.0082.089.0123.1844.0124.2861.2331-.2768.5141-.5075.8291-.6804.3538-.1952.751-.2938 1.1531-.2862.0153-.0022.0308-.0008.0454.0041.0146.005.0279.0134.0388.0245.0108.0111.019.0246.0239.0395s.0063.0308.0041.0463v1.5391c0 .0594-.0416.0891-.1247.089-.5021-.0317-1.0044.0599-1.4648.2671-.1564.0691-.2982.1684-.4176.2926v4.032c0 .0763-.0332.1145-.0997.1144h-1.5085c-.0169.0025-.0342.0009-.0504-.0046s-.031-.0148-.0431-.0271c-.0121-.0124-.0212-.0274-.0266-.044s-.0069-.0342-.0045-.0515v-4.3754c0-.1864-.0021-.3836-.0063-.5914-.0042-.2077-.0105-.4133-.0187-.6169-.0055-.1748-.0221-.349-.0498-.5215-.0031-.0123-.003-.0252.0002-.0375.0033-.0123.0097-.0235.0185-.0325s.0198-.0154.0318-.0188c.012-.0033.0247-.0034.0368-.0002z"/><path clip-rule="evenodd" d="m14 6.5c-2.4554 0-4.49885 1.7707-4.92026 4.105-.0569.3152-.30765.5594-.6242.6081-2.21161.3397-3.95554 2.253-3.95554 4.6171 0 2.579 2.09075 4.6698 4.66981 4.6698h3.12549c.4142 0 .75.3358.75.75s-.3358.75-.75.75h-3.12549c-3.40749 0-6.16981-2.7623-6.16981-6.1698 0-2.9424 2.04219-5.3505 4.71631-5.99867.73684-2.78145 3.27019-4.83153 6.28369-4.83153 3.4701 0 6.3051 2.71927 6.4904 6.1432 2.1025.3741 3.7545 1.927 4.3089 3.915.1113.399-.1219.8126-.5209.9239s-.8127-.122-.9239-.521c-.417-1.4949-1.6893-2.6498-3.2921-2.867l-.4205-.057c-.3862-.0524-.6679-.3917-.6483-.7809.0042-.0848.0064-.1702.0064-.2562 0-2.76142-2.2386-5-5-5z" fill-rule="evenodd"/></g></svg>