<svg width="28" height="28" viewBox="0 0 28 28" fill="none" xmlns="http://www.w3.org/2000/svg">
<path fill-rule="evenodd" clip-rule="evenodd" d="M6.74994 4C5.23116 4 3.99994 5.23122 3.99994 6.75V21.25C3.99994 22.7688 5.23116 24 6.74994 24H21.2499C22.7687 24 23.9999 22.7688 23.9999 21.25V6.75C23.9999 5.23122 22.7687 4 21.2499 4H6.74994ZM7 6.99999C7.55228 6.99999 8 6.55228 8 5.99999C8 5.44771 7.55228 4.99999 7 4.99999C6.44772 4.99999 6 5.44771 6 5.99999C6 6.55228 6.44772 6.99999 7 6.99999ZM6 7.99902C5.72386 7.99902 5.5 8.22288 5.5 8.49902V22C5.5 22.2761 5.72386 22.5 6 22.5H22C22.2761 22.5 22.5 22.2761 22.5 22V8.49902C22.5 8.22288 22.2761 7.99902 22 7.99902H6ZM11 5.99999C11 6.55228 10.5523 6.99999 10 6.99999C9.44772 6.99999 9 6.55228 9 5.99999C9 5.44771 9.44772 4.99999 10 4.99999C10.5523 4.99999 11 5.44771 11 5.99999ZM12.9999 6.99999C13.5522 6.99999 13.9999 6.55228 13.9999 5.99999C13.9999 5.44771 13.5522 4.99999 12.9999 4.99999C12.4477 4.99999 11.9999 5.44771 11.9999 5.99999C11.9999 6.55228 12.4477 6.99999 12.9999 6.99999ZM7.74557 12H17.25C17.6642 12 18 11.6642 18 11.25C18 10.8358 17.6642 10.5 17.25 10.5H7.74557C7.33136 10.5 6.99557 10.8358 6.99557 11.25C6.99557 11.6642 7.33136 12 7.74557 12ZM13.25 16L7.74557 16C7.33136 16 6.99557 15.6642 6.99557 15.25C6.99557 14.8358 7.33136 14.5 7.74557 14.5L13.25 14.5C13.6642 14.5 14 14.8358 14 15.25C14 15.6642 13.6642 16 13.25 16ZM7.74557 20H20.25C20.6642 20 21 19.6642 21 19.25C21 18.8358 20.6642 18.5 20.25 18.5H7.74557C7.33136 18.5 6.99557 18.8358 6.99557 19.25C6.99557 19.6642 7.33136 20 7.74557 20Z" fill="#7D8198"/>
</svg>
