<svg width="28" height="28" viewBox="0 0 28 28" fill="none" xmlns="http://www.w3.org/2000/svg">
<path fill-rule="evenodd" clip-rule="evenodd" d="M6.08345 12.0926L5.30318 11.884C4.36749 11.6338 3.81221 10.6742 4.06292 9.74067L4.52196 8.03144C4.77268 7.09787 5.73445 6.54385 6.67015 6.794L12.4688 8.34421L13.1351 5.19098C13.4623 3.64284 15.0247 2.68581 16.5564 3.09531C18.0882 3.50481 18.9617 5.11305 18.4692 6.61698L17.466 9.68017L22.7023 11.08C23.638 11.3302 24.1932 12.2898 23.9425 13.2233L23.4835 14.9326C23.2328 15.8661 22.271 16.4201 21.3353 16.17L20.1284 15.8474C20.1079 15.8423 20.0931 15.8402 20.0834 15.8393C20.0823 15.8392 20.0813 15.8392 20.0804 15.8391C20.0782 15.8389 20.0762 15.8388 20.0746 15.8388C20.0581 15.8526 20.0059 15.9042 19.9412 16.0473C19.7796 16.4049 19.6759 17.0252 19.6468 17.8565C19.59 19.4848 19.8262 21.5499 20.0291 22.9593C20.2077 24.1999 19.0616 25.2753 17.8123 24.945L5.32132 21.6422C4.38313 21.3941 3.82522 20.433 4.07642 19.4977L6.00153 12.3294C6.02352 12.2475 6.05099 12.1685 6.08345 12.0926ZM14.6062 5.50044C14.7555 4.79403 15.4684 4.35735 16.1673 4.5442C16.8663 4.73105 17.2648 5.46488 17.0401 6.15112L15.7905 9.96679C15.7264 10.1625 15.7458 10.376 15.8442 10.5571C15.9425 10.7381 16.1111 10.8709 16.3105 10.9242L22.3132 12.5289C22.4468 12.5646 22.5261 12.7017 22.4903 12.8351L22.0313 14.5443C21.9955 14.6777 21.8581 14.7568 21.7244 14.7211L20.8016 14.4744C20.8015 14.4744 20.8016 14.4744 20.8016 14.4744L8.14494 11.0907C8.1394 11.0892 8.13386 11.0878 8.12832 11.0863L5.6923 10.4351C5.55863 10.3994 5.4793 10.2623 5.51512 10.1289L5.97415 8.41966C6.00997 8.2863 6.14736 8.20715 6.28103 8.24289L12.8461 9.99799C13.0455 10.0513 13.258 10.0204 13.4339 9.9127C13.6098 9.80495 13.7336 9.62978 13.7762 9.42827L14.6062 5.50044ZM7.7496 12.538C7.62248 12.5075 7.49019 12.5818 7.45372 12.7176L5.52861 19.8859C5.49273 20.0195 5.57243 20.1568 5.70645 20.1922L8.69061 20.9813C9.07844 19.1237 9.89364 15.8078 10.7326 16.0321C11.1831 16.1525 11.1982 16.8483 11.2194 17.8276C11.2435 18.9436 11.2757 20.4278 11.9693 21.8482L18.1974 23.4951C18.3705 23.5408 18.5715 23.3851 18.5409 23.1725C18.3362 21.75 18.0826 19.5739 18.1443 17.8043C18.1746 16.9367 18.2823 16.069 18.5706 15.4309L7.7496 12.538Z" fill="#7D8198"/>
</svg>
