<svg width="28" height="28" viewBox="0 0 28 28" fill="none" xmlns="http://www.w3.org/2000/svg">
<path fill-rule="evenodd" clip-rule="evenodd" d="M11.2538 8.00002C11.0281 8.00002 10.9182 7.72348 11.0823 7.56821L13.652 5.13784C13.7486 5.04655 13.8724 5.00108 13.9961 5.00147C14.1195 5.00108 14.2431 5.04627 14.3396 5.13705L16.9244 7.56782C17.0893 7.72291 16.9796 8.00003 16.7534 8.00003L14.75 8.00002V13.25L20.0014 13.25L20.0014 11.2471C20.0014 11.0213 20.278 10.9114 20.4333 11.0756L22.8636 13.6453C22.9549 13.7418 23.0004 13.8656 23 13.9893C23.0004 14.1128 22.9552 14.2363 22.8644 14.3329L20.4336 16.9176C20.2786 17.0825 20.0014 16.9729 20.0014 16.7466L20.0014 14.75L14.75 14.75V20.0014L16.7498 20.0014C16.9755 20.0014 17.0854 20.278 16.9213 20.4333L14.3516 22.8636C14.255 22.9549 14.1312 23.0004 14.0075 23C13.8841 23.0004 13.7605 22.9552 13.664 22.8644L11.0792 20.4336C10.9143 20.2786 11.024 20.0014 11.2502 20.0014L13.25 20.0014V14.75L7.99856 14.75L7.99855 16.7498C7.99855 16.9755 7.72202 17.0854 7.56674 16.9213L5.13638 14.3516C5.04508 14.255 4.99962 14.1312 5 14.0075C4.99962 13.8841 5.0448 13.7605 5.13559 13.664L7.56635 11.0792C7.72144 10.9143 7.99856 11.024 7.99856 11.2502L7.99856 13.25L13.25 13.25V8.00002L11.2538 8.00002Z" fill="#7D8198"/>
</svg>
