<svg width="28" height="28" viewBox="0 0 28 28" fill="none" xmlns="http://www.w3.org/2000/svg">
<path d="M13.735 3.20451C14.0361 2.9201 14.5108 2.93364 14.7952 3.23477C15.0797 3.53591 15.0661 4.01059 14.765 4.295L11.6363 7.25H14C18.8347 7.25 22.9961 11.1068 22.9961 16.0039C22.9961 20.8637 18.8647 25.0025 14 25.0025C9.10983 25.0025 5 20.6378 5 15.75C5 15.3358 5.33579 15 5.75 15C6.16421 15 6.5 15.3358 6.5 15.75C6.5 19.8622 9.99017 23.5025 14 23.5025C18.0353 23.5025 21.4961 20.0363 21.4961 16.0039C21.4961 11.9932 18.0653 8.75 14 8.75H11.6364L14.765 11.7047C15.0661 11.9892 15.0797 12.4638 14.7953 12.765C14.5109 13.0661 14.0362 13.0797 13.735 12.7953L9.23503 8.54526C9.08502 8.40358 9 8.20636 9 8.00001C9 7.79367 9.08501 7.59644 9.23502 7.45476L13.735 3.20451Z" fill="#7D8198"/>
</svg>
