<svg width="28" height="28" viewBox="0 0 28 28" fill="none" xmlns="http://www.w3.org/2000/svg">
<path fill-rule="evenodd" clip-rule="evenodd" d="M10 12.75C10 11.2312 11.2312 10 12.75 10H21.25C22.7688 10 24 11.2312 24 12.75V21.25C24 22.7688 22.7688 24 21.25 24H12.75C11.2312 24 10 22.7688 10 21.25V12.75ZM12.75 11.5C12.0596 11.5 11.5 12.0596 11.5 12.75V21.25C11.5 21.9404 12.0596 22.5 12.75 22.5H21.25C21.9404 22.5 22.5 21.9404 22.5 21.25V12.75C22.5 12.0596 21.9404 11.5 21.25 11.5H12.75Z" fill="#7D8198"/>
<path fill-rule="evenodd" clip-rule="evenodd" d="M7 9.75C7 8.23122 8.23122 7 9.75 7H20.25C20.6642 7 21 7.33579 21 7.75C21 8.16421 20.6642 8.5 20.25 8.5H9.75C9.05964 8.5 8.5 9.05964 8.5 9.75V20.25C8.5 20.6642 8.16421 21 7.75 21C7.33579 21 7 20.6642 7 20.25V9.75Z" fill="#7D8198"/>
<path fill-rule="evenodd" clip-rule="evenodd" d="M4 6.75C4 5.23122 5.23122 4 6.75 4H17.25C17.6642 4 18 4.33579 18 4.75C18 5.16421 17.6642 5.5 17.25 5.5H6.75C6.05964 5.5 5.5 6.05964 5.5 6.75V17.25C5.5 17.6642 5.16421 18 4.75 18C4.33579 18 4 17.6642 4 17.25V6.75Z" fill="#7D8198"/>
</svg>
