<svg width="28" height="28" viewBox="0 0 28 28" fill="none" xmlns="http://www.w3.org/2000/svg">
<path d="M22.7656 14.5405C22.9125 14.3991 22.9956 14.204 22.9956 14.0001C22.9956 13.7962 22.9125 13.601 22.7656 13.4596L16.27 7.20955C15.9715 6.92236 15.4967 6.9315 15.2095 7.22998C14.9223 7.52846 14.9315 8.00325 15.2299 8.29045L20.3843 13.25H5.74683C5.33261 13.25 4.99683 13.5858 4.99683 14C4.99683 14.4142 5.33261 14.75 5.74683 14.75H20.3844L15.2299 19.7095C14.9315 19.9967 14.9223 20.4715 15.2095 20.77C15.4967 21.0685 15.9715 21.0776 16.27 20.7905L22.7656 14.5405Z" fill="#7D8198"/>
</svg>
