<svg width="28" height="29" viewBox="0 0 28 29" fill="none" xmlns="http://www.w3.org/2000/svg">
<path d="M10.4035 4.09473C12.7376 3.28724 15.2763 3.28926 17.6095 4.09962C19.5308 4.76705 21.2201 5.95169 22.5001 7.51075V5.24024C22.5001 4.82603 22.8359 4.49024 23.2501 4.49024C23.6643 4.4903 24.0001 4.82606 24.0001 5.24024V9.74024C24 10.1543 23.6642 10.4902 23.2501 10.4902H18.7501C18.336 10.4902 18.0003 10.1543 18.0001 9.74024C18.0001 9.32603 18.3359 8.99024 18.7501 8.99024H21.7443C20.6025 7.38236 18.9873 6.16517 17.1173 5.51563C15.1024 4.81581 12.9105 4.81541 10.8947 5.5127C8.87886 6.21007 7.15582 7.56504 6.00404 9.36036C4.85231 11.1557 4.33856 13.2871 4.54506 15.4102C4.75165 17.533 5.66666 19.5248 7.14271 21.0645C8.61886 22.6041 10.5704 23.6026 12.6828 23.8984C14.7951 24.1942 16.9459 23.7703 18.7882 22.6953C20.6304 21.6203 22.0572 19.9562 22.839 17.9717C22.9909 17.5865 23.4264 17.3972 23.8117 17.5488C24.1969 17.7007 24.3862 18.1362 24.2345 18.5215C23.3293 20.8194 21.6773 22.7465 19.5441 23.9912C17.4109 25.2359 14.9206 25.7263 12.4747 25.3838C10.0288 25.0412 7.76894 23.8854 6.0597 22.1025C4.35051 20.3197 3.29104 18.0129 3.05189 15.5547C2.81291 13.0966 3.4079 10.6295 4.74135 8.55079C6.07493 6.472 8.06943 4.90227 10.4035 4.09473Z" fill="#7D8198"/>
</svg>
