<svg width="28" height="28" viewBox="0 0 28 28" fill="none" xmlns="http://www.w3.org/2000/svg">
<path d="M14 5.5C11.5446 5.5 9.50116 7.2707 9.07974 9.60499C9.02285 9.92017 8.77209 10.1644 8.45554 10.2131C6.24393 10.5528 4.5 12.4661 4.5 14.8302C4.5 17.4092 6.59075 19.5 9.16981 19.5H9.25391C9.66812 19.5 10.0039 19.8358 10.0039 20.25C10.0039 20.6642 9.66812 21 9.25391 21H9.16981C5.76232 21 3 18.2377 3 14.8302C3 11.8878 5.04219 9.47974 7.71632 8.83153C8.45315 6.05008 10.9865 4 14 4C17.4701 4 20.3051 6.71926 20.4904 10.1432C23.0885 10.6056 25 12.8682 25 15.529C25 18.5506 22.5506 21 19.5291 21H18.7473C18.333 21 17.9973 20.6642 17.9973 20.25C17.9973 19.8358 18.333 19.5 18.7473 19.5H19.5291C21.7222 19.5 23.5 17.7221 23.5 15.529C23.5 13.5421 22.0314 11.861 20.0624 11.5941L19.6419 11.5371C19.2557 11.4847 18.974 11.1454 18.9936 10.7562C18.9978 10.6714 19 10.586 19 10.5C19 7.73858 16.7614 5.5 14 5.5Z" fill="#7D8198"/>
<path d="M14.75 13.6599L14.75 23.25C14.75 23.6642 14.4142 24 14 24C13.5858 24 13.25 23.6642 13.25 23.25L13.25 13.6599L11.2996 15.7603C11.0177 16.0639 10.5432 16.0814 10.2397 15.7996C9.93612 15.5177 9.91855 15.0432 10.2004 14.7397L13.4505 11.2397C13.5924 11.0868 13.7915 11 14.0001 11C14.2086 11 14.4078 11.0868 14.5497 11.2397L17.7996 14.7397C18.0814 15.0432 18.0639 15.5178 17.7603 15.7996C17.4568 16.0814 16.9822 16.0639 16.7004 15.7603L14.75 13.6599Z" fill="#7D8198"/>
</svg>
