<svg width="28" height="28" viewBox="0 0 28 28" fill="none" xmlns="http://www.w3.org/2000/svg">
<path fill-rule="evenodd" clip-rule="evenodd" d="M3.00224 13.9974C3.00224 13.5833 3.33803 13.2476 3.75224 13.2476H5.25224C5.66646 13.2476 6.00224 13.5833 6.00224 13.9974C6.00224 14.4116 5.66646 14.7473 5.25224 14.7473H3.75224C3.33803 14.7473 3.00224 14.4116 3.00224 13.9974Z" fill="#7D8198"/>
<path fill-rule="evenodd" clip-rule="evenodd" d="M22.0036 13.9974C22.0036 13.5833 22.3394 13.2476 22.7536 13.2476H24.2536C24.6678 13.2476 25.0036 13.5833 25.0036 13.9974C25.0036 14.4116 24.6678 14.7473 24.2536 14.7473H22.7536C22.3394 14.7473 22.0036 14.4116 22.0036 13.9974Z" fill="#7D8198"/>
<path fill-rule="evenodd" clip-rule="evenodd" d="M14 2.99976C14.4142 2.99976 14.75 3.33546 14.75 3.74958V5.24923C14.75 5.66335 14.4142 5.99906 14 5.99906C13.5858 5.99906 13.25 5.66335 13.25 5.24923V3.74958C13.25 3.33546 13.5858 2.99976 14 2.99976Z" fill="#7D8198"/>
<path fill-rule="evenodd" clip-rule="evenodd" d="M13.25 24.2499V22.7454C13.25 22.3313 13.5858 21.9956 14 21.9956C14.4142 21.9956 14.75 22.3313 14.75 22.7454V24.2499C14.75 24.664 14.4142 24.9998 14 24.9998C13.5858 24.9998 13.25 24.664 13.25 24.2499Z" fill="#7D8198"/>
<path fill-rule="evenodd" clip-rule="evenodd" d="M19.6627 19.6437C19.9569 19.3521 20.4317 19.3542 20.7233 19.6483L21.784 20.7178C22.0756 21.0119 22.0736 21.4867 21.7794 21.7782C21.4853 22.0698 21.0104 22.0678 20.7188 21.7737L19.6581 20.7041C19.3665 20.41 19.3685 19.9353 19.6627 19.6437Z" fill="#7D8198"/>
<path fill-rule="evenodd" clip-rule="evenodd" d="M8.35233 8.33934C8.06069 8.63341 7.58582 8.63543 7.29168 8.34386L6.22194 7.28344C5.9278 6.99187 5.92577 6.51711 6.21741 6.22304C6.50906 5.92897 6.98392 5.92695 7.27806 6.21852L8.34781 7.27893C8.64195 7.57051 8.64397 8.04527 8.35233 8.33934Z" fill="#7D8198"/>
<path fill-rule="evenodd" clip-rule="evenodd" d="M19.6598 8.34688C19.3662 8.05483 19.3649 7.58007 19.657 7.28647L20.7177 6.22044C21.0098 5.92685 21.4847 5.92559 21.7784 6.21764C22.072 6.50969 22.0733 6.98446 21.7812 7.27805L20.7205 8.34408C20.4284 8.63768 19.9535 8.63893 19.6598 8.34688Z" fill="#7D8198"/>
<path fill-rule="evenodd" clip-rule="evenodd" d="M8.34927 19.6618C8.64125 19.9555 8.63977 20.4303 8.34597 20.7222L7.27868 21.7826C6.98487 22.0745 6.51 22.073 6.21802 21.7793C5.92604 21.4856 5.92752 21.0108 6.22133 20.7189L7.28862 19.6585C7.58242 19.3666 8.05729 19.368 8.34927 19.6618Z" fill="#7D8198"/>
<path fill-rule="evenodd" clip-rule="evenodd" d="M14 18.4964C16.4853 18.4964 18.5 16.4821 18.5 13.9974C18.5 11.5127 16.4853 9.49849 14 9.49849C11.5147 9.49849 9.5 11.5127 9.5 13.9974C9.5 16.4821 11.5147 18.4964 14 18.4964ZM14 19.996C17.3137 19.996 20 17.3104 20 13.9974C20 10.6845 17.3137 7.99884 14 7.99884C10.6863 7.99884 8 10.6845 8 13.9974C8 17.3104 10.6863 19.996 14 19.996Z" fill="#7D8198"/>
</svg>
