<svg width="28" height="28" viewBox="0 0 28 28" fill="none" xmlns="http://www.w3.org/2000/svg">
<path d="M21.2517 4.19254C21.0316 3.99441 20.7154 3.94439 20.4449 4.06489C20.1743 4.18539 20 4.45383 20 4.75001V6.25H8.75C6.12665 6.25 4 8.37665 4 11V13.25C4 13.6642 4.33579 14 4.75 14C5.16421 14 5.5 13.6642 5.5 13.25V11C5.5 9.20507 6.95507 7.75 8.75 7.75H20V9.25001C20 9.5462 20.1743 9.81464 20.4449 9.93514C20.7154 10.0556 21.0316 10.0056 21.2517 9.80748L23.7517 7.55748C23.9098 7.41525 24 7.21263 24 7.00001C24 6.7874 23.9098 6.58477 23.7517 6.44254L21.2517 4.19254Z" fill="#7D8198"/>
<path d="M7.5616 23.9307C7.29104 24.0512 6.9749 24.0012 6.75475 23.8031L4.25475 21.5531C4.09671 21.4108 4.00647 21.2082 4.00647 20.9956C4.00647 20.783 4.09671 20.5804 4.25475 20.4381L6.75475 18.1881C6.9749 17.99 7.29104 17.94 7.5616 18.0605C7.83216 18.181 8.00647 18.4494 8.00647 18.7456V20.2456H19.25C21.0449 20.2456 22.5 18.7905 22.5 16.9956V14.75C22.5 14.3358 22.8358 14 23.25 14C23.6642 14 24 14.3358 24 14.75V16.9956C24 19.619 21.8734 21.7456 19.25 21.7456H8.00647V23.2456C8.00647 23.5418 7.83216 23.8102 7.5616 23.9307Z" fill="#7D8198"/>
</svg>
