<svg width="28" height="28" viewBox="0 0 28 28" fill="none" xmlns="http://www.w3.org/2000/svg">
<path d="M14.7511 3.75C14.7511 3.33579 14.4153 3 14.0011 3C13.5868 3 13.2511 3.33579 13.2511 3.75V4.99758L11.4944 4.99758C11.0507 4.99758 10.8268 5.53238 11.1381 5.84844L13.2511 7.99366V11.8344C13.2511 12.2193 12.8344 12.4599 12.5011 12.2674L9.16101 10.3391L8.35859 7.46592C8.23945 7.03933 7.66546 6.96684 7.44401 7.35042L6.57914 8.84841L5.49871 8.22463C5.13999 8.01752 4.6813 8.14043 4.47419 8.49914C4.26708 8.85786 4.38999 9.31656 4.74871 9.52366L5.82914 10.1475L4.9508 11.6688C4.72898 12.053 5.08018 12.5143 5.50955 12.4027L8.42382 11.6455L11.75 13.5659C12.0834 13.7583 12.0834 14.2394 11.75 14.4319L8.41011 16.3602L5.52069 15.6185C5.09168 15.5084 4.74191 15.9693 4.96337 16.3528L5.82824 17.8508L4.74781 18.4746C4.38909 18.6817 4.26618 19.1404 4.47329 19.4991C4.68039 19.8579 5.13909 19.9808 5.49781 19.7737L6.57824 19.1499L7.45659 20.6712C7.67841 21.0554 8.25351 20.9819 8.37157 20.5543L9.17292 17.6518L12.499 15.7315C12.8323 15.5391 13.249 15.7796 13.249 16.1645V20.0211L11.162 22.1526C10.8521 22.4691 11.0764 23.0024 11.5193 23.0024L13.249 23.0024V24.25C13.249 24.6642 13.5848 25 13.999 25C14.4132 25 14.749 24.6642 14.749 24.25V23.0024L16.5057 23.0024C16.9493 23.0024 17.1732 22.4676 16.8619 22.1516L14.749 20.0063V16.1656C14.749 15.7807 15.1657 15.5401 15.499 15.7326L18.839 17.6609L19.6415 20.5341C19.7606 20.9607 20.3346 21.0332 20.5561 20.6496L21.4209 19.1516L22.5013 19.7754C22.8601 19.9825 23.3188 19.8596 23.5259 19.5009C23.733 19.1421 23.6101 18.6834 23.2513 18.4763L22.1709 17.8525L23.0493 16.3312C23.2711 15.947 22.9199 15.4857 22.4905 15.5973L19.5762 16.3545L16.25 14.4341C15.9167 14.2417 15.9167 13.7606 16.25 13.5681L19.5899 11.6398L22.4794 12.3815C22.9084 12.4916 23.2581 12.0307 23.0367 11.6472L22.1718 10.1492L23.2523 9.52537C23.611 9.31827 23.7339 8.85957 23.5268 8.50086C23.3197 8.14214 22.861 8.01923 22.5023 8.22634L21.4218 8.85013L20.5435 7.32878C20.3217 6.94459 19.7465 7.01808 19.6285 7.44571L18.8271 10.3482L15.5011 12.2685C15.1677 12.4609 14.7511 12.2204 14.7511 11.8355V7.97886L16.8381 5.84738C17.1479 5.5309 16.9237 4.99757 16.4808 4.99757L14.7511 4.99758V3.75Z" fill="#7D8198"/>
</svg>
