<svg width="28" height="28" viewBox="0 0 28 28" fill="none" xmlns="http://www.w3.org/2000/svg">
<path d="M13.2732 4.52785C14.746 4.41483 16.2249 4.64681 17.5924 5.20538C18.9598 5.76394 20.1782 6.63369 21.1507 7.74554C21.4234 8.05732 21.8972 8.08899 22.209 7.81629C22.5208 7.54359 22.5525 7.06977 22.2798 6.75799C21.1537 5.47059 19.743 4.46351 18.1596 3.81675C16.5762 3.16999 14.8638 2.90138 13.1584 3.03225C11.4531 3.16312 9.80171 3.68986 8.33554 4.57064C7.25457 5.22001 6.29623 6.04864 5.5 7.01798L5.5 4.74997C5.5 4.33576 5.16422 3.99997 4.75 3.99997C4.33579 3.99997 4 4.33576 4 4.74997L4 9.24997C4 9.44888 4.07902 9.63965 4.21967 9.7803C4.36032 9.92095 4.55109 9.99997 4.75 9.99997H9.25004C9.66426 9.99997 10 9.66418 10 9.24997C10 8.83576 9.66426 8.49997 9.25004 8.49997H6.25414C7.01186 7.43284 7.98303 6.53225 9.10798 5.85646C10.3742 5.09579 11.8004 4.64087 13.2732 4.52785Z" fill="#7D8198"/>
<path d="M23.4971 12C24.0494 12 24.4971 11.5523 24.4971 11C24.4971 10.4477 24.0494 10 23.4971 10C22.9448 10 22.4971 10.4477 22.4971 11C22.4971 11.5523 22.9448 12 23.4971 12Z" fill="#7D8198"/>
<path d="M4 14C4.55228 14 5 13.5523 5 13C5 12.4477 4.55228 12 4 12C3.44772 12 3 12.4477 3 13C3 13.5523 3.44772 14 4 14Z" fill="#7D8198"/>
<path d="M5.5 17C5.5 17.5523 5.05228 18 4.5 18C3.94772 18 3.5 17.5523 3.5 17C3.5 16.4477 3.94772 16 4.5 16C5.05228 16 5.5 16.4477 5.5 17Z" fill="#7D8198"/>
<path d="M24 16C24.5523 16 25 15.5523 25 15C25 14.4477 24.5523 14 24 14C23.4477 14 23 14.4477 23 15C23 15.5523 23.4477 16 24 16Z" fill="#7D8198"/>
<path d="M18.0001 18.75C18.0001 18.3358 18.3359 18 18.7501 18L23.2708 18C23.4703 18 23.6616 18.0795 23.8024 18.2209C23.9431 18.3623 24.0217 18.554 24.0208 18.7535L24.0001 23.2535C23.9982 23.6677 23.6608 24.0019 23.2466 24C22.8324 23.9981 22.4982 23.6608 22.5001 23.2466L22.5106 20.9692C21.7127 21.9435 20.7514 22.7762 19.6664 23.4282C18.201 24.3089 16.5506 24.8359 14.846 24.9674C13.1414 25.0989 11.4296 24.8313 9.84656 24.1857C8.26347 23.5402 6.85264 22.5345 5.72605 21.2486C5.4531 20.937 5.4844 20.4632 5.79596 20.1902C6.10752 19.9173 6.58136 19.9486 6.85431 20.2602C7.82728 21.3707 9.04572 22.2393 10.4129 22.7968C11.7801 23.3543 13.2585 23.5854 14.7306 23.4719C16.2028 23.3583 17.6282 22.9032 18.8937 22.1426C20.018 21.4669 20.9886 20.5666 21.7459 19.5H18.7501C18.3359 19.5 18.0001 19.1642 18.0001 18.75Z" fill="#7D8198"/>
</svg>
