<svg width="28" height="28" viewBox="0 0 28 28" fill="none" xmlns="http://www.w3.org/2000/svg">
<path d="M19.9965 17.75C19.9965 17.3358 19.6607 17 19.2465 17L8.74646 17C8.33225 17 7.99646 17.3358 7.99646 17.75L7.99646 20.25C7.99646 20.6642 8.33225 21 8.74646 21H19.2465C19.6607 21 19.9965 20.6642 19.9965 20.25V17.75Z" fill="#7D8198"/>
<path d="M13.25 9.66001L11.2996 11.7604C11.0177 12.0639 10.5432 12.0814 10.2397 11.7996C9.93613 11.5177 9.91856 11.0432 10.2004 10.7396L13.4506 7.23965C13.5925 7.08683 13.7916 6.99999 14.0002 7C14.2087 7.00001 14.4079 7.08685 14.5498 7.23968L17.7996 10.7397C18.0815 11.0432 18.0639 11.5178 17.7603 11.7996C17.4568 12.0815 16.9822 12.0639 16.7004 11.7603L14.75 9.65979V14.25C14.75 14.6642 14.4142 15 14 15C13.5858 15 13.25 14.6642 13.25 14.25V9.66001Z" fill="#7D8198"/>
<path fill-rule="evenodd" clip-rule="evenodd" d="M4 6.75C4 5.23122 5.23122 4 6.75 4H21.25C22.7688 4 24 5.23122 24 6.75V21.25C24 22.7688 22.7688 24 21.25 24H6.75C5.23122 24 4 22.7688 4 21.25V6.75ZM6.75 5.5C6.05964 5.5 5.5 6.05964 5.5 6.75V21.25C5.5 21.9404 6.05964 22.5 6.75 22.5H21.25C21.9404 22.5 22.5 21.9404 22.5 21.25V6.75C22.5 6.05964 21.9404 5.5 21.25 5.5H6.75Z" fill="#7D8198"/>
</svg>
