<svg width="28" height="28" viewBox="0 0 28 28" fill="none" xmlns="http://www.w3.org/2000/svg">
<path d="M14.7564 3.74969C14.7564 3.33565 14.4209 3 14.007 3C13.5932 3 13.2577 3.33565 13.2577 3.74969V6.25157C13.2577 6.66561 13.5932 7.00126 14.007 7.00126C14.4209 7.00126 14.7564 6.66561 14.7564 6.25157V3.74969Z" fill="#7D8198"/>
<path fill-rule="evenodd" clip-rule="evenodd" d="M12.368 10.7873C11.3975 10.4719 10.4791 11.3908 10.7944 12.3617L14.6174 24.1364C14.9629 25.2008 16.4253 25.3088 16.9234 24.3067L19.3757 19.3729L24.3071 16.9193C25.3086 16.421 25.2007 14.9579 24.1369 14.6122L12.368 10.7873ZM15.8538 23.0913L12.3711 12.3648L23.0923 15.8492L18.6333 18.0677C18.3897 18.1889 18.1923 18.3864 18.0711 18.6301L15.8538 23.0913Z" fill="#7D8198"/>
<path d="M6.99927 13.9955C6.99927 14.4095 6.66378 14.7452 6.24995 14.7452H3.74932C3.33548 14.7452 3 14.4095 3 13.9955C3 13.5814 3.33548 13.2458 3.74932 13.2458H6.24995C6.66378 13.2458 6.99927 13.5814 6.99927 13.9955Z" fill="#7D8198"/>
<path d="M9.06739 20.0056C9.36001 19.7128 9.36001 19.2382 9.06739 18.9454C8.77476 18.6526 8.30032 18.6526 8.00769 18.9454L6.23948 20.7145C5.94685 21.0073 5.94685 21.4819 6.23948 21.7747C6.5321 22.0675 7.00655 22.0675 7.29917 21.7747L9.06739 20.0056Z" fill="#7D8198"/>
<path d="M21.7818 6.21992C22.0744 6.51269 22.0744 6.98737 21.7818 7.28014L20.0135 9.04924C19.7209 9.34201 19.2465 9.34201 18.9539 9.04924C18.6612 8.75646 18.6612 8.28179 18.9539 7.98901L20.7221 6.21992C21.0147 5.92715 21.4891 5.92715 21.7818 6.21992Z" fill="#7D8198"/>
<path d="M7.29141 6.21761C6.99878 5.92484 6.52434 5.92484 6.23171 6.21761C5.93908 6.51038 5.93908 6.98506 6.23171 7.27783L7.99992 9.04693C8.29255 9.3397 8.76699 9.3397 9.05962 9.04693C9.35225 8.75416 9.35225 8.27948 9.05962 7.9867L7.29141 6.21761Z" fill="#7D8198"/>
</svg>
