<svg width="28" height="28" viewBox="0 0 28 28" fill="none" xmlns="http://www.w3.org/2000/svg">
<path fill-rule="evenodd" clip-rule="evenodd" d="M6.75 4C5.23122 4 4 5.23122 4 6.75V21.25C4 22.7688 5.23122 24 6.75 24H21.25C22.7688 24 24 22.7688 24 21.25V6.75C24 5.23122 22.7688 4 21.25 4H6.75ZM5.5 6.75C5.5 6.05964 6.05964 5.5 6.75 5.5H21.25C21.9404 5.5 22.5 6.05964 22.5 6.75V17.4924L18.644 14.3879C17.9671 13.8429 16.9928 13.8772 16.3559 14.4685L14.6463 16.0558L11.6826 13.4849C10.9979 12.891 9.97305 12.9181 9.32078 13.5475L5.5 17.2341V6.75ZM13.5406 17.0824L10.6997 14.618C10.6019 14.5332 10.4555 14.537 10.3623 14.627L5.5 19.3185V21.25C5.5 21.9404 6.05964 22.5 6.75 22.5H7.70551L13.5406 17.0824ZM9.91008 22.5H21.25C21.9404 22.5 22.5 21.9404 22.5 21.25V19.4181L17.7034 15.5563C17.6066 15.4784 17.4675 15.4833 17.3765 15.5678L9.91008 22.5ZM18.5 11C19.3284 11 20 10.3284 20 9.5C20 8.67157 19.3284 8 18.5 8C17.6716 8 17 8.67157 17 9.5C17 10.3284 17.6716 11 18.5 11Z" fill="#7D8198"/>
</svg>
