<svg width="28" height="28" viewBox="0 0 28 28" fill="none" xmlns="http://www.w3.org/2000/svg">
    <path fill-rule="evenodd" clip-rule="evenodd"
        d="M14.2916 21C14.5236 21 14.7462 20.9078 14.9103 20.7437L17.827 17.8271C18.1687 17.4853 18.1687 16.9313 17.827 16.5896C17.4853 16.2479 16.9312 16.2479 16.5895 16.5896L14.2916 18.8876L11.9936 16.5896C11.6519 16.2479 11.0979 16.2479 10.7562 16.5896C10.4145 16.9313 10.4145 17.4853 10.7562 17.8271L13.6729 20.7437C13.837 20.9078 14.0595 21 14.2916 21Z"
        fill="#C1C2D9" />
    <path fill-rule="evenodd" clip-rule="evenodd"
        d="M14.2916 7C14.5236 7 14.7462 7.09219 14.9103 7.25628L17.827 10.1729C18.1687 10.5147 18.1687 11.0687 17.827 11.4104C17.4853 11.7521 16.9312 11.7521 16.5895 11.4104L14.2916 9.11244L11.9936 11.4104C11.6519 11.7521 11.0979 11.7521 10.7562 11.4104C10.4145 11.0687 10.4145 10.5147 10.7562 10.1729L13.6729 7.25628C13.837 7.09219 14.0595 7 14.2916 7Z"
        fill="#C1C2D9" />
</svg>
