<svg width="28" height="28" viewBox="0 0 28 28" fill="none" xmlns="http://www.w3.org/2000/svg">
<path d="M14.8824 6.07855C14.4747 6.00545 14.0849 6.27671 14.0118 6.68442C13.9387 7.09213 14.21 7.48191 14.6177 7.55501C15.321 7.68109 15.9688 8.01938 16.4741 8.52442C16.9795 9.02946 17.3182 9.67706 17.4447 10.3802C17.5181 10.7879 17.908 11.0589 18.3157 10.9855C18.7233 10.9122 18.9943 10.5222 18.921 10.1146C18.7402 9.11005 18.2564 8.18491 17.5344 7.46342C16.8125 6.74194 15.8871 6.25868 14.8824 6.07855Z" fill="#7D8198"/>
<path fill-rule="evenodd" clip-rule="evenodd" d="M14 3C10.0249 3 6 6.40209 6 10.8506C6 13.1636 6.83265 14.6694 7.67043 15.6894C7.99675 16.0867 8.33071 16.4169 8.58295 16.6662C8.64304 16.7256 8.69893 16.7809 8.74853 16.8309C8.87665 16.9602 8.95411 17.0456 9 17.1062V17.25C9 18.2165 9.7835 19 10.75 19H17.25C18.2165 19 19 18.2165 19 17.25V17.1062C19.0459 17.0456 19.1234 16.9602 19.2515 16.8309C19.3012 16.7808 19.3568 16.7258 19.417 16.6662C19.6693 16.4169 20.0033 16.0867 20.3296 15.6894C21.1674 14.6694 22 13.1636 22 10.8506C22 6.40209 17.9751 3 14 3ZM7.5 10.8506C7.5 7.32027 10.7607 4.5 14 4.5C17.2393 4.5 20.5 7.32027 20.5 10.8506C20.5 12.7518 19.8326 13.9311 19.1704 14.7374C18.8985 15.0684 18.6338 15.3305 18.385 15.5769C18.3175 15.6437 18.251 15.7095 18.186 15.7751C18.0443 15.918 17.8894 16.0804 17.7694 16.2479C17.6561 16.4058 17.5 16.6671 17.5 17V17.25C17.5 17.3881 17.3881 17.5 17.25 17.5H10.75C10.6119 17.5 10.5 17.3881 10.5 17.25V17C10.5 16.6671 10.3439 16.4058 10.2306 16.2479C10.1106 16.0804 9.95566 15.918 9.81397 15.7751C9.74904 15.7095 9.68277 15.6439 9.61535 15.5772C9.36648 15.3308 9.1015 15.0684 8.82958 14.7374C8.16735 13.9311 7.5 12.7518 7.5 10.8506Z" fill="#7D8198"/>
<path d="M10.7491 20.5C10.3349 20.5 9.99915 20.8358 9.99915 21.25C9.99915 21.6642 10.3349 22 10.7491 22H17.2531C17.6673 22 18.0031 21.6642 18.0031 21.25C18.0031 20.8358 17.6673 20.5 17.2531 20.5H10.7491Z" fill="#7D8198"/>
<path d="M15.9794 23.8627C16.0823 23.6064 15.8511 23.375 15.575 23.375H12.425C12.1489 23.375 11.9177 23.6064 12.0206 23.8627C12.12 24.1099 12.2944 24.3374 12.5328 24.524C12.9219 24.8288 13.4497 25 14 25C14.5503 25 15.0781 24.8288 15.4672 24.524C15.7056 24.3374 15.88 24.1099 15.9794 23.8627Z" fill="#7D8198"/>
</svg>
