<svg width="28" height="28" viewBox="0 0 28 28" fill="none" xmlns="http://www.w3.org/2000/svg">
<path fill-rule="evenodd" clip-rule="evenodd" d="M13.4508 11.756C13.5926 11.9086 13.7916 11.9952 14 11.9952C14.2084 11.9952 14.4074 11.9086 14.5493 11.756L17.7993 8.26071C18.0813 7.95737 18.0641 7.48281 17.7607 7.20075C17.4574 6.9187 16.9828 6.93595 16.7008 7.23929L14 10.1438L11.2993 7.23929C11.0172 6.93595 10.5426 6.9187 10.2393 7.20075C9.93595 7.48281 9.9187 7.95737 10.2008 8.26071L13.4508 11.756ZM13.446 16.2397C13.5878 16.087 13.7868 16.0002 13.9951 16C14.2035 15.9999 14.4026 16.0864 14.5445 16.239L17.7989 19.7343C18.0812 20.0374 18.0642 20.512 17.7611 20.7942C17.4579 21.0765 16.9834 21.0596 16.7011 20.7564L13.9964 17.8514L11.2996 20.7557C11.0177 21.0592 10.5432 21.0768 10.2397 20.7949C9.93613 20.5131 9.91856 20.0385 10.2004 19.735L13.446 16.2397Z" fill="#7D8198"/>
</svg>
