<svg width="28" height="28" viewBox="0 0 28 28" fill="none" xmlns="http://www.w3.org/2000/svg">
<path d="M8.75 8C8.33579 8 8 8.33579 8 8.75V19.25C8 19.6642 8.33579 20 8.75 20H11.25C11.6642 20 12 19.6642 12 19.25V8.75C12 8.33579 11.6642 8 11.25 8H8.75Z" fill="#7D8198"/>
<path d="M18.3364 13.25L16.2361 11.2996C15.9326 11.0177 15.915 10.5432 16.1969 10.2397C16.4787 9.93613 16.9533 9.91856 17.2568 10.2004L20.7568 13.4506C20.9096 13.5925 20.9965 13.7916 20.9965 14.0002C20.9965 14.2087 20.9096 14.4079 20.7568 14.5498L17.2568 17.7996C16.9532 18.0815 16.4787 18.0639 16.1969 17.7603C15.915 17.4568 15.9326 16.9822 16.2361 16.7004L18.3367 14.75H13.7465C13.3322 14.75 12.9965 14.4142 12.9965 14C12.9965 13.5858 13.3322 13.25 13.7465 13.25H18.3364Z" fill="#7D8198"/>
<path fill-rule="evenodd" clip-rule="evenodd" d="M4 6.75C4 5.23122 5.23122 4 6.75 4H21.25C22.7688 4 24 5.23122 24 6.75V21.25C24 22.7688 22.7688 24 21.25 24H6.75C5.23122 24 4 22.7688 4 21.25V6.75ZM6.75 5.5C6.05964 5.5 5.5 6.05964 5.5 6.75V21.25C5.5 21.9404 6.05964 22.5 6.75 22.5H21.25C21.9404 22.5 22.5 21.9404 22.5 21.25V6.75C22.5 6.05964 21.9404 5.5 21.25 5.5H6.75Z" fill="#7D8198"/>
</svg>
