<svg width="28" height="28" viewBox="0 0 28 28" fill="none" xmlns="http://www.w3.org/2000/svg">
    <path
        d="M9.80116 10.2084H18.1988C19.1381 10.2084 19.6923 11.2619 19.1601 12.036L14.9613 18.1434C14.4978 18.8177 13.5022 18.8177 13.0386 18.1434L8.83978 12.036C8.30759 11.2619 8.86179 10.2084 9.80116 10.2084Z"
        fill="#BCBED2" />
    <path fill-rule="evenodd" clip-rule="evenodd"
        d="M9.33329 3.79175C6.27271 3.79175 3.79163 6.27284 3.79163 9.33341V18.6667C3.79163 21.7273 6.27271 24.2084 9.33329 24.2084H18.6666C21.7272 24.2084 24.2083 21.7273 24.2083 18.6667V9.33341C24.2083 6.27284 21.7272 3.79175 18.6666 3.79175H9.33329ZM5.54163 9.33341C5.54163 7.23934 7.23921 5.54175 9.33329 5.54175H18.6666C20.7607 5.54175 22.4583 7.23934 22.4583 9.33341V18.6667C22.4583 20.7608 20.7607 22.4584 18.6666 22.4584H9.33329C7.23921 22.4584 5.54163 20.7608 5.54163 18.6667V9.33341Z"
        fill="#BCBED2" />
</svg>
