<svg width="28" height="28" viewBox="0 0 28 28" fill="none" xmlns="http://www.w3.org/2000/svg">
    <path fill-rule="evenodd" clip-rule="evenodd"
        d="M6.7906 5.52794C6.84821 5.31393 7.15185 5.31393 7.20947 5.52794C7.37527 6.14376 7.8563 6.6248 8.47213 6.7906C8.68614 6.84821 8.68614 7.15185 8.47213 7.20947C7.8563 7.37527 7.37527 7.8563 7.20947 8.47213C7.15185 8.68614 6.84821 8.68614 6.7906 8.47213C6.6248 7.8563 6.14376 7.37527 5.52794 7.20947C5.31393 7.15185 5.31393 6.84821 5.52794 6.7906C6.14376 6.6248 6.6248 6.14376 6.7906 5.52794ZM16.3491 6.04655C16.2531 5.68987 15.747 5.68987 15.651 6.04655C15.3747 7.07293 14.5729 7.87465 13.5466 8.15098C13.1899 8.24701 13.1899 8.75307 13.5466 8.8491C14.5729 9.12544 15.3747 9.92716 15.651 10.9535C15.747 11.3102 16.2531 11.3102 16.3491 10.9535C16.6254 9.92716 17.4272 9.12544 18.4535 8.8491C18.8102 8.75307 18.8102 8.24701 18.4535 8.15098C17.4272 7.87465 16.6254 7.07293 16.3491 6.04655ZM13.2074 11.1519L11.1752 13.2371L9.75897 11.8211C9.1915 11.2489 9.1915 10.3275 9.75897 9.76011C10.0403 9.47885 10.4137 9.33337 10.7872 9.33337C11.1607 9.33337 11.5341 9.47885 11.8203 9.76011L13.2074 11.1519ZM22.9078 22.9066C22.6216 23.1927 22.253 23.3334 21.8795 23.3334C21.5061 23.3334 21.1375 23.1927 20.8513 22.9066L12.2083 14.2651L14.2405 12.1799L22.9078 20.8505C23.4752 21.4179 23.4752 22.3393 22.9078 22.9066ZM10.1397 15.0186C10.1012 14.876 9.89882 14.876 9.86041 15.0186C9.74988 15.4292 9.42919 15.7499 9.01864 15.8604C8.87596 15.8988 8.87596 16.1012 9.01864 16.1397C9.42919 16.2502 9.74988 16.5709 9.86041 16.9814C9.89882 17.1241 10.1012 17.1241 10.1397 16.9814C10.2502 16.5709 10.5709 16.2502 10.9814 16.1397C11.1241 16.1012 11.1241 15.8988 10.9814 15.8604C10.5709 15.7499 10.2502 15.4292 10.1397 15.0186Z"
        fill="#BCBED2" />
</svg>
