<svg width="28" height="28" viewBox="0 0 28 28" fill="none" xmlns="http://www.w3.org/2000/svg">
<path d="M18.8119 11.2467C19.0863 10.9364 19.0571 10.4624 18.7467 10.1881C18.4364 9.91375 17.9624 9.94294 17.6881 10.2533L12.4457 16.1838L10.2552 14.1944C9.9486 13.916 9.47428 13.9388 9.1958 14.2454C8.91733 14.552 8.94016 15.0264 9.24679 15.3048L12 17.8052C12.1485 17.9401 12.345 18.0099 12.5453 17.9989C12.7457 17.9879 12.9333 17.8971 13.0662 17.7467L18.8119 11.2467Z" fill="#7D8198"/>
<path fill-rule="evenodd" clip-rule="evenodd" d="M14 25C20.0751 25 25 20.0751 25 14C25 7.92487 20.0751 3 14 3C7.92487 3 3 7.92487 3 14C3 20.0751 7.92487 25 14 25ZM23.5 14C23.5 19.2467 19.2467 23.5 14 23.5C8.75329 23.5 4.5 19.2467 4.5 14C4.5 8.75329 8.75329 4.5 14 4.5C19.2467 4.5 23.5 8.75329 23.5 14Z" fill="#7D8198"/>
</svg>
