<svg width="28" height="28" viewBox="0 0 28 28" fill="none" xmlns="http://www.w3.org/2000/svg">
<path d="M4.5 14C4.5 11.5147 6.51472 9.5 9 9.5H10.25C10.6642 9.5 11 9.16421 11 8.75C11 8.33579 10.6642 8 10.25 8H9C5.68629 8 3 10.6863 3 14C3 17.3137 5.68629 20 9 20H11C14.3137 20 17 17.3137 17 14V13.75C17 13.3358 16.6642 13 16.25 13C15.8358 13 15.5 13.3358 15.5 13.75V14C15.5 16.4853 13.4853 18.5 11 18.5H9C6.51472 18.5 4.5 16.4853 4.5 14Z" fill="#7D8198"/>
<path d="M23.5 14C23.5 16.4853 21.4853 18.5 19 18.5H17.75C17.3358 18.5 17 18.8358 17 19.25C17 19.6642 17.3358 20 17.75 20H19C22.3137 20 25 17.3137 25 14C25 10.6863 22.3137 8 19 8H17C13.6863 8 11 10.6863 11 14V14.25C11 14.6642 11.3358 15 11.75 15C12.1642 15 12.5 14.6642 12.5 14.25V14C12.5 11.5147 14.5147 9.5 17 9.5H19C21.4853 9.5 23.5 11.5147 23.5 14Z" fill="#7D8198"/>
</svg>
