<svg width="28" height="28" viewBox="0 0 28 28" fill="none" xmlns="http://www.w3.org/2000/svg">
<path fill-rule="evenodd" clip-rule="evenodd" d="M5.0346 5.55398C3.56757 5.94719 2.69696 7.4556 3.09005 8.9231L5.54883 18.1023C5.94192 19.5698 7.44985 20.4407 8.91688 20.0475L9.99998 19.7572V22.2491C9.99998 23.7684 11.2312 25 12.75 25H22.25C23.7688 25 25 23.7684 25 22.2491V12.7461C25 11.2268 23.7688 9.99523 22.25 9.99523H18.9064L17.5789 5.03958C17.1859 3.57208 15.6779 2.7012 14.2109 3.09442L5.0346 5.55398ZM17.3535 9.99523L16.1301 5.42793C15.9514 4.76089 15.266 4.36503 14.5991 4.54377L5.42283 7.00333C4.75599 7.18206 4.36026 7.8677 4.53894 8.53475L6.99772 17.714C7.1764 18.381 7.86182 18.7769 8.52865 18.5981L9.99998 18.2038V12.7461C9.99998 11.2268 11.2312 9.99523 12.75 9.99523H17.3535ZM11.5 12.7461C11.5 12.0555 12.0596 11.4957 12.75 11.4957H22.25C22.9403 11.4957 23.5 12.0555 23.5 12.7461V22.2491C23.5 22.9397 22.9403 23.4995 22.25 23.4995H12.75C12.0596 23.4995 11.5 22.9397 11.5 22.2491V12.7461Z" fill="#7D8198"/>
</svg>
