<svg width="28" height="28" viewBox="0 0 28 28" fill="none" xmlns="http://www.w3.org/2000/svg">
<path d="M24 9C24 8.41971 23.98 7.32166 14.88 4.15008C14.31 3.94997 13.69 3.94997 13.12 4.15008C4.02 7.32166 4 8.41971 4 9V18.9975C4 19.5778 4 20.6683 13.11 23.8499C13.39 23.95 13.69 24 13.99 24C14.29 24 14.59 23.95 14.87 23.8499C23.99 20.6683 24 19.5803 24 19V9ZM13.61 5.56078C13.86 5.47074 14.13 5.47074 14.38 5.56078C18.97 7.16158 21.58 8.3922 22.33 8.9925C21.58 9.5928 18.96 10.8234 14.38 12.4242C14.13 12.5143 13.86 12.5143 13.61 12.4242C9.03 10.8234 6.42 9.5928 5.67 8.9925C6.42 8.3922 9.03 7.16158 13.61 5.56078ZM5.5 18.8674V10.6633C6.73 11.3937 8.98 12.4042 13.12 13.8449C13.17 13.8649 13.21 13.8649 13.26 13.8849V22.3192C8.55 20.6583 5.97 19.3877 5.51 18.8774L5.5 18.8674ZM22.5 18.8674C22.03 19.3877 19.46 20.6483 14.75 22.3092V13.8749C14.75 13.8749 14.83 13.8549 14.87 13.8449C19.01 12.4042 21.26 11.3937 22.49 10.6633V18.8674H22.5Z" fill="#7D8198"/>
</svg>
