<svg width="28" height="28" viewBox="0 0 28 28" fill="none" xmlns="http://www.w3.org/2000/svg">
<path d="M14.5496 3.23624C14.4077 3.08342 14.2086 2.99658 14 2.99658C13.7914 2.99658 13.5923 3.08342 13.4504 3.23624L10.2004 6.73624C9.91855 7.03978 9.93613 7.51432 10.2397 7.79618C10.5432 8.07803 11.0177 8.06045 11.2996 7.75692L13.25 5.65648V10.2501C13.25 10.6643 13.5858 11.0001 14 11.0001C14.4142 11.0001 14.75 10.6643 14.75 10.2501V5.65648L16.7004 7.75692C16.9823 8.06045 17.4568 8.07803 17.7603 7.79618C18.0639 7.51432 18.0814 7.03978 17.7996 6.73624L14.5496 3.23624Z" fill="#7D8198"/>
<path d="M14 25.0002C13.7914 25.0002 13.5923 24.9134 13.4504 24.7606L10.2004 21.2606C9.91855 20.9571 9.93613 20.4825 10.2397 20.2006C10.5432 19.9188 11.0177 19.9364 11.2996 20.2399L13.25 22.3403V17.7501C13.25 17.3359 13.5858 17.0001 14 17.0001C14.4142 17.0001 14.75 17.3359 14.75 17.7501V22.3403L16.7004 20.2399C16.9823 19.9364 17.4568 19.9188 17.7603 20.2006C18.0639 20.4825 18.0814 20.9571 17.7996 21.2606L14.5496 24.7606C14.4077 24.9134 14.2086 25.0002 14 25.0002Z" fill="#7D8198"/>
<path d="M19 4.75C19 4.33579 19.3358 4 19.75 4H22.248C23.2145 4 23.998 4.7835 23.998 5.75V22.2534C23.998 23.2199 23.2145 24.0034 22.248 24.0034H19.75C19.3358 24.0034 19 23.6676 19 23.2534C19 22.8392 19.3358 22.5034 19.75 22.5034H22.248C22.3861 22.5034 22.498 22.3915 22.498 22.2534V5.75C22.498 5.61193 22.3861 5.5 22.248 5.5H19.75C19.3358 5.5 19 5.16421 19 4.75Z" fill="#7D8198"/>
<path d="M8.25 4C8.66421 4 9 4.33579 9 4.75C9 5.16421 8.66421 5.5 8.25 5.5H5.75C5.61193 5.5 5.5 5.61193 5.5 5.75V22.2534C5.5 22.3915 5.61193 22.5034 5.75 22.5034H8.25C8.66421 22.5034 9 22.8392 9 23.2534C9 23.6676 8.66421 24.0034 8.25 24.0034H5.75C4.7835 24.0034 4 23.2199 4 22.2534V5.75C4 4.7835 4.7835 4 5.75 4H8.25Z" fill="#7D8198"/>
</svg>
