<svg width="28" height="28" viewBox="0 0 28 28" fill="none" xmlns="http://www.w3.org/2000/svg">
<path d="M18.9356 22.1172L20.023 23.2045C19.8661 23.3072 19.7063 23.406 19.5437 23.5009C17.4105 24.7456 14.9203 25.2362 12.4743 24.8937C10.0283 24.5511 7.7687 23.3953 6.05945 21.6124C4.35019 19.8295 3.29071 17.5232 3.05161 15.0649C2.8125 12.6066 3.4077 10.1393 4.74134 8.06045C4.75911 8.03275 4.77699 8.00515 4.79499 7.97763L5.88236 9.06493C4.81613 10.8187 4.34547 12.8728 4.54456 14.9197C4.75106 17.0427 5.66606 19.0345 7.14224 20.5743C8.61842 22.1141 10.5699 23.1123 12.6823 23.4082C14.7948 23.704 16.9454 23.2803 18.7878 22.2053C18.8374 22.1763 18.8866 22.147 18.9356 22.1172Z" fill="#7D8198"/>
<path d="M10.4036 3.60449C9.54318 3.90216 8.72889 4.30339 7.97684 4.79552L9.06421 5.88281C9.63834 5.5337 10.2513 5.24442 10.894 5.02206C12.9099 4.32467 15.1018 4.32602 17.1169 5.02588C18.9872 5.67548 20.6041 6.8918 21.7459 8.5H18.7499C18.3357 8.5 17.9999 8.83579 17.9999 9.25C17.9999 9.66421 18.3357 10 18.7499 10H23.2499C23.6642 10 23.9999 9.66421 23.9999 9.25V4.75C23.9999 4.33579 23.6642 4 23.2499 4C22.8357 4 22.4999 4.33579 22.4999 4.75V7.01785C21.2199 5.45947 19.5299 4.27607 17.609 3.60891C15.2758 2.79855 12.7378 2.79699 10.4036 3.60449Z" fill="#7D8198"/>
<path d="M24.2345 18.0315C23.9583 18.7327 23.6126 19.3992 23.2049 20.0224L22.1175 18.9351C22.3975 18.4746 22.6392 17.9886 22.8389 17.4818C22.9907 17.0964 23.4262 16.907 23.8116 17.0588C24.197 17.2106 24.3863 17.6461 24.2345 18.0315Z" fill="#7D8198"/>
<path d="M3.21954 4.28107L23.7204 24.7803C24.0133 25.0732 24.488 25.073 24.7807 24.78C25.0734 24.4869 25.0732 24.0118 24.7803 23.719L4.27949 3.21969C3.98658 2.92681 3.51186 2.92698 3.21917 3.22007C2.92647 3.51316 2.92664 3.98819 3.21954 4.28107Z" fill="#7D8198"/>
</svg>
