<svg fill="none" height="28" viewBox="0 0 28 28" width="28" xmlns="http://www.w3.org/2000/svg"><path d="m22 17.3686-.0146.2839c-.0685.6575-.3725 1.2724-.8614 1.7272l-5.25 4.8839-.2051.1727c-.9832.7516-2.3546.7516-3.3378 0l-.2051-.1727-5.25002-4.8839c-.48884-.4548-.79289-1.0697-.86133-1.7272l-.01465-.2839v-11.62076c0-1.4227 1.08211-2.59243 2.46875-2.7332l.28125-.01464h10.5c1.5188 0 2.75 1.23025 2.75 2.74784zm-13.25-12.86978-.12793.00683c-.63024.06404-1.12207.59554-1.12207 1.24219v11.62076l.00684.1288c.0311.2988.16944.5778.3916.7845l5.24996 4.8849.0928.078c.447.3419 1.0706.3419 1.5176 0l.0928-.078 5.25-4.8849c.2221-.2067.3605-.4857.3916-.7845l.0068-.1288v-11.62076c0-.68981-.5596-1.24902-1.25-1.24902z" fill="#7d8198"/></svg>