<svg width="28" height="28" viewBox="0 0 28 28" fill="none" xmlns="http://www.w3.org/2000/svg">
<path fill-rule="evenodd" clip-rule="evenodd" d="M4 20.25C4 21.7688 5.23122 23 6.75 23H15.25C15.6642 23 16 22.6642 16 22.25C16 21.8358 15.6642 21.5 15.25 21.5H6.75C6.05964 21.5 5.5 20.9404 5.5 20.25V12.5H23.5V13.25C23.5 13.6642 23.8358 14 24.25 14C24.6642 14 25 13.6642 25 13.25V9.75C25 8.23122 23.7688 7 22.25 7H15.6056C15.3588 7 15.1175 6.92695 14.9122 6.79006L12.9199 5.46186C12.4681 5.1607 11.9374 5 11.3944 5H6.75C5.23122 5 4 6.23122 4 7.75V20.25ZM6.75 6.5C6.05964 6.5 5.5 7.05964 5.5 7.75V11H23.5V9.75C23.5 9.05964 22.9404 8.5 22.25 8.5H15.6056C15.0626 8.5 14.5319 8.3393 14.0801 8.03814L12.0878 6.70994C11.8825 6.57305 11.6412 6.5 11.3944 6.5H6.75Z" fill="#7D8198"/>
<path fill-rule="evenodd" clip-rule="evenodd" d="M19.0047 17.374V19H19C18.4477 19 18 19.4477 18 20V24C18 24.5523 18.4477 25 19 25H24C24.5523 25 25 24.5523 25 24V20C25 19.4493 24.5548 19.0026 24.0047 19V17.374C24.0047 17.0541 23.9367 16.7389 23.8064 16.4468C23.6761 16.1549 23.4868 15.8935 23.2523 15.6759C23.0179 15.4584 22.7426 15.2885 22.4435 15.1736C22.1444 15.0586 21.8255 15 21.5047 15C21.1839 15 20.865 15.0586 20.5659 15.1736C20.2668 15.2885 19.9915 15.4584 19.7571 15.6759C19.5226 15.8935 19.3333 16.1549 19.203 16.4468C19.0727 16.7389 19.0047 17.0541 19.0047 17.374ZM21.5047 16.5C21.3659 16.5 21.2296 16.5254 21.1041 16.5737C20.9786 16.6219 20.8681 16.6913 20.7774 16.7754C20.6869 16.8594 20.6184 16.956 20.5728 17.0582C20.5273 17.1602 20.5047 17.2673 20.5047 17.374V19H22.5047V17.374C22.5047 17.2673 22.4821 17.1602 22.4366 17.0582C22.391 16.956 22.3225 16.8594 22.232 16.7754C22.1413 16.6913 22.0308 16.6219 21.9053 16.5737C21.7798 16.5254 21.6435 16.5 21.5047 16.5Z" fill="#7D8198"/>
</svg>
