<svg width="28" height="28" viewBox="0 0 28 28" fill="none" xmlns="http://www.w3.org/2000/svg">
<path fill-rule="evenodd" clip-rule="evenodd" d="M6 5.75C6 4.23122 7.23122 3 8.75 3H14.4216C15.1509 3 15.8504 3.28973 16.3661 3.80546L21.1945 8.63388C21.7103 9.14961 22 9.84908 22 10.5784V21.25C22 22.7688 20.7688 24 19.25 24H8.75C7.23122 24 6 22.7688 6 21.25V5.75ZM8.75 4.5C8.05964 4.5 7.5 5.05964 7.5 5.75V17.6892L9.96967 15.2195C10.1979 14.9913 10.5467 14.9347 10.8354 15.0791L17.3637 18.3433L20.5 15.3495V11H15.75C14.7835 11 14 10.2165 14 9.25V4.5H8.75ZM20.5 17.4232L18.0179 19.7925C17.789 20.011 17.4476 20.0623 17.1646 19.9208L10.6481 16.6625L7.5 19.8105V21.25C7.5 21.9404 8.05964 22.5 8.75 22.5H19.25C19.9404 22.5 20.5 21.9404 20.5 21.25V17.4232ZM15.5 5.06066L19.9393 9.5H15.75C15.6119 9.5 15.5 9.38807 15.5 9.25V5.06066Z" fill="#7D8198"/>
</svg>
