<svg width="28" height="28" viewBox="0 0 28 28" fill="none" xmlns="http://www.w3.org/2000/svg">
<path d="M9.75 11.75C9.33579 11.75 9 12.0858 9 12.5C9 12.9142 9.33579 13.25 9.75 13.25H15.25C15.6642 13.25 16 12.9142 16 12.5C16 12.0858 15.6642 11.75 15.25 11.75H9.75Z" fill="#7D8198"/>
<path fill-rule="evenodd" clip-rule="evenodd" d="M21 12.5C21 14.5768 20.2552 16.4796 19.0181 17.956L22.7818 21.7197C23.0747 22.0126 23.0747 22.4874 22.7818 22.7803C22.4889 23.0732 22.014 23.0732 21.7211 22.7803L17.9576 19.0168C16.481 20.2547 14.5775 21 12.5 21C7.80558 21 4 17.1944 4 12.5C4 7.80558 7.80558 4 12.5 4C17.1944 4 21 7.80558 21 12.5ZM12.5 19.5C16.366 19.5 19.5 16.366 19.5 12.5C19.5 8.63401 16.366 5.5 12.5 5.5C8.63401 5.5 5.5 8.63401 5.5 12.5C5.5 16.366 8.63401 19.5 12.5 19.5Z" fill="#7D8198"/>
</svg>
