<svg width="28" height="28" viewBox="0 0 28 28" fill="none" xmlns="http://www.w3.org/2000/svg">
<path fill-rule="evenodd" clip-rule="evenodd" d="M17.265 7.20474C16.9638 6.92033 16.4891 6.9339 16.2047 7.23503C15.9203 7.53617 15.9339 8.01085 16.235 8.29526L19.3636 11.25H10.75C8.67893 11.25 7 12.9289 7 15V18.2521C7 18.6663 7.33579 19.0021 7.75 19.0021C8.16421 19.0021 8.5 18.6663 8.5 18.2521V15C8.5 13.7574 9.50736 12.75 10.75 12.75H19.3636L16.235 15.7047C15.9339 15.9892 15.9203 16.4638 16.2047 16.765C16.4891 17.0661 16.9638 17.0797 17.265 16.7953L21.765 12.5453C21.915 12.4036 22 12.2063 22 12C22 11.7937 21.915 11.5964 21.765 11.4547L17.265 7.20474Z" fill="#7D8198"/>
</svg>
