<svg width="28" height="28" viewBox="0 0 28 28" fill="none" xmlns="http://www.w3.org/2000/svg">
<path fill-rule="evenodd" clip-rule="evenodd" d="M13.1449 10.5H4.74998C4.33577 10.5 3.99998 10.1642 3.99998 9.75C3.99998 9.33579 4.33577 9 4.74998 9H13.0354C13.278 7.30385 14.7367 6 16.5 6C18.2632 6 19.7219 7.30385 19.9645 9L23.2495 9C23.6637 9 23.9995 9.33579 23.9995 9.75C23.9995 10.1642 23.6637 10.5 23.2495 10.5H19.855C19.4248 11.9457 18.0855 13 16.5 13C14.9145 13 13.5752 11.9457 13.1449 10.5ZM14.5 9.5C14.5 8.39543 15.3954 7.5 16.5 7.5C17.6046 7.5 18.5 8.39543 18.5 9.5C18.5 10.6046 17.6046 11.5 16.5 11.5C15.3954 11.5 14.5 10.6046 14.5 9.5Z" fill="#7D8198"/>
<path fill-rule="evenodd" clip-rule="evenodd" d="M11.5 15C13.2632 15 14.7219 16.3039 14.9645 18H23.25C23.6642 18 24 18.3358 24 18.75C24 19.1642 23.6642 19.5 23.25 19.5H14.855C14.4248 20.9457 13.0855 22 11.5 22C9.91447 22 8.5752 20.9457 8.14492 19.5H4.74792C4.33371 19.5 3.99792 19.1642 3.99792 18.75C3.99792 18.3358 4.33371 18 4.74792 18H8.03543C8.27804 16.3039 9.73675 15 11.5 15ZM13.5 18.5C13.5 17.3954 12.6046 16.5 11.5 16.5C10.3954 16.5 9.49998 17.3954 9.49998 18.5C9.49998 19.6046 10.3954 20.5 11.5 20.5C12.6046 20.5 13.5 19.6046 13.5 18.5Z" fill="#7D8198"/>
</svg>
