<svg width="28" height="28" viewBox="0 0 28 28" fill="none" xmlns="http://www.w3.org/2000/svg">
<path d="M20 12.5C20 14.433 18.433 16 16.5 16C15.5335 16 14.6585 15.6082 14.0251 14.9749C13.4612 14.411 13.1068 13.6714 13.0206 12.8787C12.9343 12.0859 13.1213 11.2875 13.5506 10.6155C14.1726 9.64409 15.2609 9 16.5 9C18.433 9 20 10.567 20 12.5Z" fill="#7D8198"/>
<path d="M11.5294 13.041C11.6301 13.9664 11.9866 14.841 12.5531 15.5694C12.1008 15.8427 11.5706 16 11.0037 16C9.34681 16 8.00366 14.6569 8.00366 13C8.00366 11.3431 9.34681 10 11.0037 10C11.377 10 11.7344 10.0682 12.0641 10.1928C11.6101 11.0656 11.4222 12.0564 11.5294 13.041Z" fill="#7D8198"/>
<path fill-rule="evenodd" clip-rule="evenodd" d="M6.75 4C5.23122 4 4 5.23122 4 6.75V21.25C4 22.7688 5.23122 24 6.75 24H21.25C22.7688 24 24 22.7688 24 21.25V6.75C24 5.23122 22.7688 4 21.25 4H6.75ZM5.5 6.75C5.5 6.05964 6.05964 5.5 6.75 5.5H21.25C21.9404 5.5 22.5 6.05964 22.5 6.75V20.4615C22.1765 19.7897 21.7024 19.1721 21.0962 18.6475C19.8772 17.5926 18.2239 17 16.5 17C15.6334 17 14.7847 17.1498 14 17.4327C12.9787 17.8009 12.0821 18.389 11.396 19.1419C10.6768 19.9312 10.2151 20.8728 10.0589 21.8687C10.0043 22.2171 9.71808 22.4716 9.3817 22.5H9.25595C9.23796 22.4985 9.21991 22.4963 9.2018 22.4935C8.79259 22.4293 8.51287 22.0456 8.57703 21.6364C8.78146 20.3325 9.38249 19.1245 10.2872 18.1316C10.6736 17.7076 11.1094 17.3292 11.5839 17.0005C11.556 17.0002 11.528 17 11.5 17C9.77609 17 8.12279 17.5926 6.90381 18.6475C6.29758 19.1721 5.82347 19.7897 5.5 20.4615V6.75Z" fill="#7D8198"/>
</svg>
