<svg width="28" height="28" viewBox="0 0 28 28" fill="none" xmlns="http://www.w3.org/2000/svg">
<path fill-rule="evenodd" clip-rule="evenodd" d="M14 4.00293C14.4142 4.00293 14.75 4.33872 14.75 4.75293V16.3401L16.7004 14.2397C16.9823 13.9361 17.4568 13.9186 17.7603 14.2004C18.0639 14.4823 18.0814 14.9568 17.7996 15.2603L14.5496 18.7603C14.4077 18.9132 14.2085 19 14 19C13.7914 19 13.5923 18.9132 13.4504 18.7603L10.2004 15.2603C9.91855 14.9568 9.93613 14.4823 10.2397 14.2004C10.5432 13.9186 11.0177 13.9361 11.2996 14.2397L13.25 16.3401V4.75293C13.25 4.33872 13.5858 4.00293 14 4.00293ZM5.75 18C6.16421 18 6.5 18.3358 6.5 18.75V21.25C6.5 21.9404 7.05964 22.5 7.75 22.5H20.25C20.9404 22.5 21.5 21.9404 21.5 21.25V18.75C21.5 18.3358 21.8358 18 22.25 18C22.6642 18 23 18.3358 23 18.75V21.25C23 22.7688 21.7688 24 20.25 24H7.75C6.23122 24 5 22.7688 5 21.25V18.75C5 18.3358 5.33579 18 5.75 18Z" fill="#7D8198"/>
</svg>
