<svg width="28" height="28" viewBox="0 0 28 28" fill="none" xmlns="http://www.w3.org/2000/svg">
<path fill-rule="evenodd" clip-rule="evenodd" d="M14.0015 4C11.2269 4 9 6.2354 9 9C9 11.7646 11.2269 14 14.0015 14C16.7762 14 19 11.7646 19 9C19 6.2354 16.7762 4 14.0015 4ZM10.5 9C10.5 7.06478 12.0593 5.50172 14.0015 5.50172C15.9438 5.50172 17.5 7.06478 17.5 9C17.5 10.9352 15.9438 12.5 14.0015 12.5C12.0593 12.5 10.5 10.9352 10.5 9Z" fill="#7D8198"/>
<path fill-rule="evenodd" clip-rule="evenodd" d="M13.999 16C10.191 16 7.57385 17.5333 5.88211 19.173C4.88319 20.1412 4.77583 21.3985 5.34295 22.3978C5.88718 23.3567 7.00103 24 8.29858 24H19.7012C20.9993 24 22.1134 23.3563 22.6575 22.3969C23.2244 21.3971 23.1164 20.1395 22.1166 19.1716C20.4237 17.5325 17.8059 16 13.999 16ZM6.93302 20.2494C8.3919 18.8355 10.6463 17.5 13.999 17.5C17.3508 17.5 19.6061 18.8348 21.0663 20.2486C21.5757 20.7417 21.5746 21.2536 21.3453 21.6581C21.093 22.103 20.5074 22.4983 19.7012 22.4983H8.29858C7.49279 22.4983 6.90728 22.1033 6.65491 21.6586C6.42545 21.2542 6.42425 20.7426 6.93302 20.2494Z" fill="#7D8198"/>
</svg>
