<svg width="28" height="28" viewBox="0 0 28 28" fill="none" xmlns="http://www.w3.org/2000/svg">
<path d="M12.832 15.127C13.1471 14.9142 13.5785 14.9704 13.8271 15.2686C14.0759 15.567 14.0534 16.0019 13.7871 16.2735L13.7314 16.3252L10.8232 18.749H19.251C19.6652 18.749 20.001 19.0848 20.001 19.499C20.001 19.9133 19.6652 20.249 19.251 20.249H10.8232L13.7314 22.6729C14.0495 22.9381 14.0923 23.4114 13.8271 23.7295C13.5619 24.0475 13.0886 24.0903 12.7705 23.8252L8.27051 20.0752L8.20996 20.0186C8.0766 19.8797 8.00099 19.6937 8.00098 19.499C8.00098 19.2766 8.09969 19.0654 8.27051 18.9229L12.7705 15.1729L12.832 15.127Z" fill="#7D8198"/>
<path d="M14.1748 4.27053C14.44 3.95254 14.9133 3.90982 15.2314 4.17482L19.7314 7.92482L19.792 7.98146C19.9254 8.12033 20.0009 8.30634 20.001 8.501C20.001 8.7235 19.9023 8.93467 19.7314 9.07717L15.2314 12.8272L15.1699 12.8731C14.8548 13.0858 14.4235 13.0297 14.1748 12.7315C13.9262 12.433 13.9486 11.9981 14.2148 11.7266L14.2705 11.6748L17.1787 9.251H8.75098C8.33682 9.25093 8.00098 8.91517 8.00098 8.501C8.00099 8.08683 8.33683 7.75106 8.75098 7.75099H17.1787L14.2705 5.32717C13.9526 5.06194 13.9097 4.58863 14.1748 4.27053Z" fill="#7D8198"/>
</svg>
