<svg width="28" height="28" viewBox="0 0 28 28" fill="none" xmlns="http://www.w3.org/2000/svg">
<path fill-rule="evenodd" clip-rule="evenodd" d="M4 6.75C4 5.7835 4.7835 5 5.75 5H11.25C12.2165 5 13 5.7835 13 6.75V21.25C13 22.2165 12.2165 23 11.25 23H5.75C4.7835 23 4 22.2165 4 21.25V6.75ZM5.75 6.5C5.61193 6.5 5.5 6.61193 5.5 6.75V21.25C5.5 21.3881 5.61193 21.5 5.75 21.5H11.25C11.3881 21.5 11.5 21.3881 11.5 21.25V6.75C11.5 6.61193 11.3881 6.5 11.25 6.5H5.75Z" fill="#7D8198"/>
<path fill-rule="evenodd" clip-rule="evenodd" d="M16 21.25C16 22.2165 16.7835 23 17.75 23H22.25C23.2165 23 24 22.2165 24 21.25V18.75C24 17.7835 23.2165 17 22.25 17H17.75C16.7835 17 16 17.7835 16 18.75V21.25ZM17.75 21.5C17.6119 21.5 17.5 21.3881 17.5 21.25V18.75C17.5 18.6119 17.6119 18.5 17.75 18.5H22.25C22.3881 18.5 22.5 18.6119 22.5 18.75V21.25C22.5 21.3881 22.3881 21.5 22.25 21.5H17.75Z" fill="#7D8198"/>
<path fill-rule="evenodd" clip-rule="evenodd" d="M17.75 15C16.7835 15 16 14.2165 16 13.25V6.75C16 5.7835 16.7835 5 17.75 5H22.25C23.2165 5 24 5.7835 24 6.75V13.25C24 14.2165 23.2165 15 22.25 15H17.75ZM17.5 13.25C17.5 13.3881 17.6119 13.5 17.75 13.5H22.25C22.3881 13.5 22.5 13.3881 22.5 13.25V6.75C22.5 6.61193 22.3881 6.5 22.25 6.5H17.75C17.6119 6.5 17.5 6.61193 17.5 6.75V13.25Z" fill="#7D8198"/>
</svg>
