<svg width="28" height="28" viewBox="0 0 28 28" fill="none" xmlns="http://www.w3.org/2000/svg">
<path fill-rule="evenodd" clip-rule="evenodd" d="M4 6.75C4 5.23122 5.23122 4 6.75 4H21.25C22.7688 4 24 5.23122 24 6.75V21.25C24 22.7688 22.7688 24 21.25 24H6.75C5.23122 24 4 22.7688 4 21.25V6.75ZM6.75 5.5C6.05964 5.5 5.5 6.05964 5.5 6.75V21.25C5.5 21.9404 6.05964 22.5 6.75 22.5H21.25C21.9404 22.5 22.5 21.9404 22.5 21.25V6.75C22.5 6.05964 21.9404 5.5 21.25 5.5H6.75ZM9.75 11.9985C10.1642 11.9985 10.5 12.3343 10.5 12.7485V15.2517C10.5 15.6659 10.1642 16.0017 9.75 16.0017C9.33579 16.0017 9 15.6659 9 15.2517V12.7485C9 12.3343 9.33579 11.9985 9.75 11.9985ZM19.5 12.7485C19.5 12.3343 19.1642 11.9985 18.75 11.9985C18.3358 11.9985 18 12.3343 18 12.7485V15.2517C18 15.6659 18.3358 16.0017 18.75 16.0017C19.1642 16.0017 19.5 15.6659 19.5 15.2517V12.7485ZM12.75 9C13.1642 9 13.5 9.33579 13.5 9.75V18.2517C13.5 18.6659 13.1642 19.0017 12.75 19.0017C12.3358 19.0017 12 18.6659 12 18.2517V9.75C12 9.33579 12.3358 9 12.75 9ZM16.5 11.75C16.5 11.3358 16.1642 11 15.75 11C15.3358 11 15 11.3358 15 11.75V16.25C15 16.6642 15.3358 17 15.75 17C16.1642 17 16.5 16.6642 16.5 16.25V11.75Z" fill="#7D8198"/>
</svg>
