<svg width="28" height="28" viewBox="0 0 28 28" fill="none" xmlns="http://www.w3.org/2000/svg">
<path d="M7 9.5C7 9.22386 7.22386 9 7.5 9H20.5C20.7761 9 21 9.22386 21 9.5V14.5C21 14.7761 20.7761 15 20.5 15H7.5C7.22386 15 7 14.7761 7 14.5V9.5Z" fill="#7D8198"/>
<path d="M7.75 16.5C7.33579 16.5 7 16.8358 7 17.25C7 17.6642 7.33579 18 7.75 18L14.25 18C14.6642 18 15 17.6642 15 17.25C15 16.8358 14.6642 16.5 14.25 16.5L7.75 16.5Z" fill="#7D8198"/>
<path fill-rule="evenodd" clip-rule="evenodd" d="M3 7.75C3 6.23122 4.23122 5 5.75 5H22.25C23.7688 5 25 6.23122 25 7.75V20.25C25 21.7688 23.7688 23 22.25 23H5.75C4.23122 23 3 21.7688 3 20.25V7.75ZM5.75 6.5C5.05964 6.5 4.5 7.05964 4.5 7.75V20.25C4.5 20.9404 5.05964 21.5 5.75 21.5H22.25C22.9404 21.5 23.5 20.9404 23.5 20.25V7.75C23.5 7.05964 22.9404 6.5 22.25 6.5H5.75Z" fill="#7D8198"/>
</svg>
