<svg width="28" height="28" viewBox="0 0 28 28" fill="none" xmlns="http://www.w3.org/2000/svg">
<path fill-rule="evenodd" clip-rule="evenodd" d="M4 6.75C4 5.23122 5.23122 4 6.75 4H21.25C22.7688 4 24 5.23122 24 6.75V21.25C24 22.7688 22.7688 24 21.25 24H6.75C5.23122 24 4 22.7688 4 21.25V6.75ZM6.75 5.5C6.05964 5.5 5.5 6.05964 5.5 6.75V21.25C5.5 21.9404 6.05964 22.5 6.75 22.5H21.25C21.9404 22.5 22.5 21.9404 22.5 21.25V6.75C22.5 6.05964 21.9404 5.5 21.25 5.5H6.75ZM16.75 8C16.3358 8 16 8.33579 16 8.75V19.25C16 19.6642 16.3358 20 16.75 20H19.25C19.6642 20 20 19.6642 20 19.25V8.75C20 8.33579 19.6642 8 19.25 8H16.75ZM12.3364 13.25L10.2361 11.2996C9.93258 11.0177 9.91502 10.5432 10.1969 10.2397C10.4787 9.93613 10.9533 9.91856 11.2568 10.2004L14.7568 13.4506C14.9096 13.5925 14.9965 13.7916 14.9965 14.0002C14.9965 14.2087 14.9096 14.4079 14.7568 14.5498L11.2568 17.7996C10.9532 18.0815 10.4787 18.0639 10.1969 17.7603C9.91501 17.4568 9.9326 16.9822 10.2361 16.7004L12.3367 14.75H7.74646C7.33225 14.75 6.99646 14.4142 6.99646 14C6.99646 13.5858 7.33225 13.25 7.74646 13.25H12.3364Z" fill="#7D8198"/>
</svg>
