<svg width="28" height="28" viewBox="0 0 28 28" fill="none" xmlns="http://www.w3.org/2000/svg">
<path fill-rule="evenodd" clip-rule="evenodd" d="M4 6.75C4 5.23122 5.23122 4 6.75 4H13.25C14.7688 4 16 5.23122 16 6.75V21.25C16 22.7688 14.7688 24 13.25 24H6.75C5.23122 24 4 22.7688 4 21.25V6.75ZM6.75 5.5C6.05964 5.5 5.5 6.05964 5.5 6.75V21.25C5.5 21.9404 6.05964 22.5 6.75 22.5H13.25C13.9404 22.5 14.5 21.9404 14.5 21.25V6.75C14.5 6.05964 13.9404 5.5 13.25 5.5H6.75Z" fill="#7D8198"/>
<path d="M25 8.75004C25 8.43618 24.8046 8.15551 24.5102 8.04662C24.2158 7.93773 23.8848 8.02364 23.6806 8.26194L19.1806 13.5119C18.9398 13.7928 18.9398 14.2073 19.1806 14.4881L23.6806 19.7381C23.8848 19.9764 24.2158 20.0623 24.5102 19.9535C24.8046 19.8446 25 19.5639 25 19.25V8.75004Z" fill="#7D8198"/>
</svg>
