<svg width="28" height="28" viewBox="0 0 28 28" fill="none" xmlns="http://www.w3.org/2000/svg">
<path fill-rule="evenodd" clip-rule="evenodd" d="M14.75 16.3401L16.7004 14.2397C16.9822 13.9361 17.4568 13.9186 17.7603 14.2004C18.0639 14.4823 18.0814 14.9568 17.7996 15.2603L14.5496 18.7603C14.4077 18.9132 14.2085 19 14 19C13.7914 19 13.5923 18.9132 13.4504 18.7603L10.2004 15.2603C9.91854 14.9568 9.93611 14.4823 10.2396 14.2004C10.5432 13.9186 11.0177 13.9361 11.2996 14.2397L13.25 16.3401V9.75C13.25 9.33579 13.5858 9 14 9C14.4142 9 14.75 9.33579 14.75 9.75V16.3401Z" fill="#7D8198"/>
<path fill-rule="evenodd" clip-rule="evenodd" d="M4.00018 13.9971C4.00018 8.49391 8.49361 4 13.9972 4C19.5001 4 24.0002 8.49328 24.0002 13.9971C24.0002 19.5004 19.5007 24 13.9972 24C12.3518 24 10.7642 23.5883 9.39198 22.8805L5.59605 23.9543L5.59386 23.955C5.07915 24.0989 4.61766 23.8798 4.34631 23.5791C4.07962 23.2836 3.92075 22.8322 4.04975 22.3646L5.08188 18.5156C4.37363 17.1476 4.00018 15.6407 4.00018 13.9971ZM13.9972 5.5C9.3221 5.5 5.50018 9.32228 5.50018 13.9971C5.50018 15.4973 5.861 16.8431 6.53829 18.0573C6.63336 18.2277 6.65826 18.4284 6.60772 18.6169L5.59434 22.396L9.2751 21.3547C9.46613 21.3007 9.6708 21.3246 9.84424 21.4212C11.0626 22.0999 12.504 22.5 13.9972 22.5C18.6723 22.5 22.5002 18.672 22.5002 13.9971C22.5002 9.32291 18.6729 5.5 13.9972 5.5Z" fill="#7D8198"/>
</svg>
