<svg width="28" height="28" viewBox="0 0 28 28" fill="none" xmlns="http://www.w3.org/2000/svg">
<path d="M8 15.1242C8 12.9868 9.73287 11.2539 11.8703 11.2539H17.343L15.2395 9.29943C14.936 9.01748 14.9186 8.54293 15.2006 8.23949C15.4825 7.93604 15.9571 7.91862 16.2605 8.20057L19.7624 11.4544C19.9152 11.5964 20.002 11.7956 20.0019 12.0043C20.0017 12.2129 19.9147 12.412 19.7617 12.5539L16.2599 15.8C15.9561 16.0816 15.4816 16.0636 15.2 15.7599C14.9184 15.4561 14.9364 14.9816 15.2401 14.7L17.3395 12.7539H11.8703C10.5613 12.7539 9.5 13.8152 9.5 15.1242C9.5 16.3133 10.3282 17.3167 11.3894 17.5169C11.7964 17.5937 12.0641 17.9859 11.9873 18.393C11.9105 18.8 11.5183 19.0677 11.1112 18.9909C9.29462 18.6481 8 16.9858 8 15.1242Z" fill="#7D8198"/>
<path fill-rule="evenodd" clip-rule="evenodd" d="M3 14C3 20.0751 7.92487 25 14 25C20.0751 25 25 20.0751 25 14C25 7.92487 20.0751 3 14 3C7.92487 3 3 7.92487 3 14ZM14 23.5C8.75329 23.5 4.5 19.2467 4.5 14C4.5 8.75329 8.75329 4.5 14 4.5C19.2467 4.5 23.5 8.75329 23.5 14C23.5 19.2467 19.2467 23.5 14 23.5Z" fill="#7D8198"/>
</svg>
