<svg width="28" height="28" viewBox="0 0 28 28" fill="none" xmlns="http://www.w3.org/2000/svg">
<path fill-rule="evenodd" clip-rule="evenodd" d="M4 6.75C4 5.23122 5.23122 4 6.75 4H21.25C22.7688 4 24 5.23122 24 6.75V21.25C24 22.7688 22.7688 24 21.25 24H6.75C5.23122 24 4 22.7688 4 21.25V6.75ZM6.75 5.5C6.05964 5.5 5.5 6.05964 5.5 6.75V10H10L10 5.5H6.75ZM11.5 5.5L11.5 10H16.5V5.5H11.5ZM11.5 11.5H16.5V16.5H11.5V11.5ZM10 16.5V11.5H5.5V16.5H10ZM5.5 18H10V22.5H6.75C6.05964 22.5 5.5 21.9404 5.5 21.25V18ZM11.5 18H16.5V22.5H11.5V18ZM18 18V22.5H21.25C21.9404 22.5 22.5 21.9404 22.5 21.25V18H18ZM22.5 16.5V11.5H18V16.5H22.5ZM18 5.5V10H22.5V6.75C22.5 6.05964 21.9404 5.5 21.25 5.5H18Z" fill="#7D8198"/>
</svg>
