<svg width="28" height="28" viewBox="0 0 28 28" fill="none" xmlns="http://www.w3.org/2000/svg">
<path d="M8.75 14.5L19.25 14.5C19.6642 14.5 20 14.1642 20 13.75C20 13.3358 19.6642 13 19.25 13L8.75 13C8.33578 13.0001 8 13.3358 8 13.7501C8 14.1643 8.33579 14.5001 8.75 14.5Z" fill="#7D8198"/>
<path d="M19.25 10.5L8.75 10.5C8.33579 10.5001 8 10.1643 8 9.75005C8 9.33584 8.33578 9.00005 8.75 9.00005L19.25 9C19.6642 9 20 9.33578 20 9.75C20 10.1642 19.6642 10.5 19.25 10.5Z" fill="#7D8198"/>
<path d="M8.75 17C8.33579 17 8 17.3358 8 17.75C8 18.1642 8.33579 18.5 8.75 18.5H17.25C17.6642 18.5 18 18.1642 18 17.75C18 17.3358 17.6642 17 17.25 17H8.75Z" fill="#7D8198"/>
<path fill-rule="evenodd" clip-rule="evenodd" d="M6.75 4C5.23122 4 4 5.23122 4 6.75V21.25C4 22.7688 5.23122 24 6.75 24H21.25C22.7688 24 24 22.7688 24 21.25V6.75C24 5.23122 22.7688 4 21.25 4H6.75ZM5.5 6.75C5.5 6.05964 6.05964 5.5 6.75 5.5H21.25C21.9404 5.5 22.5 6.05964 22.5 6.75V21.25C22.5 21.9404 21.9404 22.5 21.25 22.5H6.75C6.05964 22.5 5.5 21.9404 5.5 21.25V6.75Z" fill="#7D8198"/>
</svg>
