<svg width="28" height="28" viewBox="0 0 28 28" fill="none" xmlns="http://www.w3.org/2000/svg">
<path fill-rule="evenodd" clip-rule="evenodd" d="M18 4.75C18 4.33579 18.3358 4 18.75 4L20.75 4C22.5449 4 24 5.45507 24 7.25V9.25C24 9.66421 23.6642 10 23.25 10C22.8358 10 22.5 9.66421 22.5 9.25V7.25C22.5 6.2835 21.7165 5.5 20.75 5.5H18.75C18.3358 5.5 18 5.16421 18 4.75ZM4 7.25C4 5.45508 5.45507 4 7.25 4H9.25C9.66421 4 10 4.33579 10 4.75C10 5.16421 9.66421 5.5 9.25 5.5H7.25C6.2835 5.5 5.5 6.2835 5.5 7.25V9.25C5.5 9.66421 5.16421 10 4.75 10C4.33579 10 4 9.66421 4 9.25V7.25ZM9.75 11C10.1642 11 10.5 11.3358 10.5 11.75V13.2522C10.5 13.6664 10.1642 14.0022 9.75 14.0022C9.33579 14.0022 9 13.6664 9 13.2522V11.75C9 11.3358 9.33579 11 9.75 11ZM14.2454 11C14.6596 10.9998 14.9955 11.3354 14.9957 11.7496L14.9974 15.2492C14.9978 16.216 14.2142 17 13.2474 17H12.75C12.3358 17 12 16.6642 12 16.25C12 15.8358 12.3358 15.5 12.75 15.5H13.2474C13.3855 15.5 13.4974 15.388 13.4974 15.2499L13.4957 11.7504C13.4955 11.3361 13.8311 11.0002 14.2454 11ZM18.2511 11C18.6653 11 19.0011 11.3358 19.0011 11.75V13.2522C19.0011 13.6664 18.6653 14.0022 18.2511 14.0022C17.8369 14.0022 17.5011 13.6664 17.5011 13.2522V11.75C17.5011 11.3358 17.8369 11 18.2511 11ZM10.0572 17.9528C10.3843 17.6987 10.8555 17.7578 11.1096 18.0849C11.4518 18.5254 11.8901 18.8818 12.3911 19.127C12.892 19.3722 13.4423 19.4997 14 19.4997C14.5576 19.4997 15.1079 19.3722 15.6089 19.1271C16.1098 18.8819 16.5481 18.5254 16.8904 18.085C17.1445 17.7579 17.6157 17.6987 17.9428 17.9529C18.2699 18.207 18.329 18.6782 18.0749 19.0053C17.5924 19.6262 16.9745 20.1287 16.2683 20.4743C15.5621 20.82 14.7862 20.9997 14 20.9997C13.2137 20.9997 12.4378 20.82 11.7316 20.4743C11.0254 20.1286 10.4075 19.6261 9.92509 19.0052C9.67096 18.6781 9.73011 18.2069 10.0572 17.9528ZM4.75 18C5.16421 18 5.5 18.3358 5.5 18.75V20.75C5.5 21.7165 6.2835 22.5 7.25 22.5H9.25C9.66421 22.5 10 22.8358 10 23.25C10 23.6642 9.66421 24 9.25 24H7.25C5.45508 24 4 22.5449 4 20.75L4 18.75C4 18.3358 4.33579 18 4.75 18ZM23.25 18C23.6642 18 24 18.3358 24 18.75V20.75C24 22.5449 22.5449 24 20.75 24H18.75C18.3358 24 18 23.6642 18 23.25C18 22.8358 18.3358 22.5 18.75 22.5H20.75C21.7165 22.5 22.5 21.7165 22.5 20.75V18.75C22.5 18.3358 22.8358 18 23.25 18Z" fill="#7D8198"/>
</svg>
