<svg width="28" height="28" viewBox="0 0 28 28" fill="none" xmlns="http://www.w3.org/2000/svg">
<path d="M14.1752 13.3914C14.752 12.7721 16.5551 10.7414 16.5551 9.55597C16.5551 8.14489 15.4111 7.00098 14.0001 7.00098C12.589 7.00098 11.4451 8.14489 11.4451 9.55597C11.4451 10.7414 13.2482 12.7721 13.8249 13.3914C13.9204 13.4939 14.0797 13.4939 14.1752 13.3914Z" fill="#7D8198"/>
<path d="M16.5711 18.4347C15.5445 17.842 14.6873 15.2651 14.4394 14.456C14.3984 14.3221 14.478 14.1841 14.6146 14.1527C15.4392 13.9628 18.0995 13.4167 19.1261 14.0094C20.3481 14.7149 20.7668 16.2775 20.0612 17.4996C19.3557 18.7216 17.7931 19.1403 16.5711 18.4347Z" fill="#7D8198"/>
<path d="M13.3853 14.1526C12.5606 13.9627 9.90039 13.4166 8.87379 14.0093C7.65176 14.7148 7.23306 16.2774 7.9386 17.4995C8.64414 18.7215 10.2067 19.1402 11.4288 18.4347C12.4554 17.842 13.3125 15.265 13.5604 14.4559C13.6015 14.322 13.5218 14.184 13.3853 14.1526Z" fill="#7D8198"/>
<path fill-rule="evenodd" clip-rule="evenodd" d="M14 3C7.92487 3 3 7.92487 3 14C3 20.0751 7.92487 25 14 25C20.0751 25 25 20.0751 25 14C25 7.92487 20.0751 3 14 3ZM4.5 14C4.5 8.75329 8.75329 4.5 14 4.5C19.2467 4.5 23.5 8.75329 23.5 14C23.5 19.2467 19.2467 23.5 14 23.5C8.75329 23.5 4.5 19.2467 4.5 14Z" fill="#7D8198"/>
</svg>
