<svg width="28" height="28" viewBox="0 0 28 28" fill="none" xmlns="http://www.w3.org/2000/svg">
<path fill-rule="evenodd" clip-rule="evenodd" d="M4.83975 21.4999H16.1569L10.4997 11.0598L4.83975 21.4999ZM3.12082 21.5233L9.62067 9.53386C9.99904 8.83591 11.0008 8.83601 11.379 9.53404L17.8758 21.5235C18.2368 22.1898 17.7544 22.9999 16.9965 22.9999H3.99994C3.24201 22.9999 2.75959 22.1896 3.12082 21.5233Z" fill="#7D8198"/>
<path fill-rule="evenodd" clip-rule="evenodd" d="M12.9834 22.9999C12.9909 23.0001 12.9983 23.0001 13.0059 23.0001H23.9941C24.7751 23.0001 25.2546 22.145 24.8474 21.4786L19.3532 12.4897C18.9633 11.8517 18.0367 11.8517 17.6467 12.4897L15.1734 16.5364L15.9995 18.061L18.5 13.97L23.1025 21.5001H17.8631L17.8758 21.5235C18.2368 22.1898 17.7544 22.9999 16.9965 22.9999L12.9834 22.9999Z" fill="#7D8198"/>
<path d="M21 6.5C21 7.32843 20.3284 8 19.5 8C18.6716 8 18 7.32843 18 6.5C18 5.67157 18.6716 5 19.5 5C20.3284 5 21 5.67157 21 6.5Z" fill="#7D8198"/>
</svg>
