<svg width="28" height="28" viewBox="0 0 28 28" fill="none" xmlns="http://www.w3.org/2000/svg">
<path d="M14 20C14.5523 20 15 19.5523 15 19C15 18.4477 14.5523 18 14 18C13.4477 18 13 18.4477 13 19C13 19.5523 13.4477 20 14 20Z" fill="#7D8198"/>
<path fill-rule="evenodd" clip-rule="evenodd" d="M9.74997 4C8.23119 4 6.99997 5.23122 6.99997 6.75V21.25C6.99997 22.7688 8.23119 24 9.74997 24H18.25C19.7688 24 21 22.7688 21 21.25V6.75C21 5.23122 19.7688 4 18.25 4H9.74997ZM8.49997 6.75C8.49997 6.05964 9.05961 5.5 9.74997 5.5H18.25C18.9403 5.5 19.5 6.05964 19.5 6.75V21.25C19.5 21.9404 18.9403 22.5 18.25 22.5H9.74997C9.05961 22.5 8.49997 21.9404 8.49997 21.25V6.75Z" fill="#7D8198"/>
</svg>
