<svg width="28" height="28" viewBox="0 0 28 28" fill="none" xmlns="http://www.w3.org/2000/svg">
<path d="M23.6487 15.26C23.4202 13.93 22.9321 12.66 22.2363 11.52C23.9706 9.95998 23.5656 5.22998 23.3786 3.65998C23.3579 3.44998 23.2333 3.25998 23.0567 3.13998C22.8802 3.01998 22.6517 2.96998 22.4336 3.01998C20.3981 3.44998 15.8806 4.59998 15.2056 6.47998C14.4994 6.35998 13.7621 6.33998 13.0455 6.40998C12.2874 4.56998 7.85295 3.43998 5.83824 3.01998C5.63054 2.97998 5.41246 3.01998 5.23591 3.12998C5.05936 3.23998 4.93474 3.42998 4.90359 3.62998C4.64396 5.21998 4.05201 10.02 5.7967 11.55C5.29822 12.42 4.92436 13.35 4.69589 14.32L4.02086 17.12C3.92739 17.49 4.14548 17.87 4.51934 18L7.93603 19.19C8.94338 19.54 9.65995 20.4 9.78457 21.42C10.0442 23.46 11.8512 25 14.0009 25C16.1506 25 17.9576 23.46 18.2173 21.42C18.3419 20.4 19.0584 19.54 20.0658 19.19L23.4825 18C23.8356 17.88 24.0433 17.53 23.9914 17.17L23.659 15.26H23.6487ZM21.904 4.67998C22.0909 7.02998 21.904 9.48998 21.3328 10.27C20.5331 9.30998 19.5673 8.46998 18.4561 7.79998L17.9369 7.48998C17.5422 7.24998 17.1164 7.04998 16.6907 6.88998C16.8984 6.36998 19.0896 5.36998 21.904 4.67998ZM6.32634 4.67998C8.91223 5.30998 10.9789 6.19998 11.4773 6.74998C10.9165 6.92998 10.3661 7.16998 9.84688 7.46998C8.60067 8.19998 7.52063 9.15998 6.65866 10.27C6.12903 9.47998 6.04595 7.02998 6.32634 4.67998ZM19.5362 17.78C17.968 18.32 16.8672 19.65 16.6699 21.24C16.5037 22.53 15.3614 23.5 14.0009 23.5C12.6405 23.5 11.4981 22.53 11.332 21.24C11.1346 19.65 10.0338 18.33 8.46567 17.78L5.70324 16.82L6.22249 14.67C6.81444 12.22 8.43451 10.06 10.7088 8.72998C12.6405 7.59998 15.2056 7.60998 17.1268 8.75998L17.6461 9.06998C20.0346 10.5 21.6651 12.85 22.122 15.51L22.3505 16.8L19.5465 17.78H19.5362Z" fill="#7D8198"/>
<path d="M11.0001 16.0004C11.5523 16.0004 12.0001 15.5527 12.0001 15.0004C12.0001 14.4481 11.5523 14.0004 11.0001 14.0004C10.4478 14.0004 10.0001 14.4481 10.0001 15.0004C10.0001 15.5527 10.4478 16.0004 11.0001 16.0004Z" fill="#7D8198"/>
<path d="M17.0001 16.0004C17.5523 16.0004 18.0001 15.5527 18.0001 15.0004C18.0001 14.4481 17.5523 14.0004 17.0001 14.0004C16.4478 14.0004 16.0001 14.4481 16.0001 15.0004C16.0001 15.5527 16.4478 16.0004 17.0001 16.0004Z" fill="#7D8198"/>
</svg>
