<svg width="28" height="28" viewBox="0 0 28 28" fill="none" xmlns="http://www.w3.org/2000/svg">
<path fill-rule="evenodd" clip-rule="evenodd" d="M6.75 4C5.23122 4 4 5.23122 4 6.75V21.25C4 22.7688 5.23122 24 6.75 24H21.25C22.7688 24 24 22.7688 24 21.25V6.75C24 5.23122 22.7688 4 21.25 4H6.75ZM5.5 6.75C5.5 6.05964 6.05964 5.5 6.75 5.5H21.25C21.9404 5.5 22.5 6.05964 22.5 6.75V14H17.75C17.3576 14 17.0317 14.3023 17.0022 14.6932L17.002 14.6946L17.0004 14.7112C16.9986 14.7281 16.9954 14.7563 16.99 14.7943C16.9791 14.8705 16.9597 14.9844 16.9266 15.1232C16.8599 15.4037 16.7412 15.7694 16.5363 16.1279C16.1456 16.8117 15.4352 17.5 14 17.5C12.5649 17.5 11.8556 16.8119 11.4657 16.1284C11.2612 15.77 11.1429 15.4043 11.0764 15.1238C11.0435 14.9851 11.0242 14.8712 11.0134 14.795C11.008 14.7571 11.0048 14.7288 11.003 14.7119L11.0014 14.6953L11.0013 14.6943C10.9722 14.3029 10.6462 14 10.2534 14H5.5V6.75ZM5.5 15.5V21.25C5.5 21.9404 6.05964 22.5 6.75 22.5H21.25C21.9404 22.5 22.5 21.9404 22.5 21.25V15.5H18.3788C18.2879 15.8727 18.1262 16.369 17.8387 16.8721C17.2294 17.9383 16.0648 19 14 19C11.9351 19 10.7712 17.9381 10.1628 16.8716C9.87586 16.3687 9.71463 15.8726 9.62409 15.5H5.5Z" fill="#7D8198"/>
</svg>
