<svg width="28" height="28" viewBox="0 0 28 28" fill="none" xmlns="http://www.w3.org/2000/svg">
<path d="M17.3636 13.25L14.235 10.2953C13.9338 10.0109 13.9203 9.53618 14.2047 9.23504C14.4891 8.9339 14.9638 8.92033 15.2649 9.20474L19.7649 13.4547C19.9149 13.5963 19.9999 13.7936 19.9999 13.9999C19.9999 14.2063 19.9149 14.4035 19.7649 14.5452L15.2649 18.7953C14.9638 19.0797 14.4891 19.0661 14.2047 18.765C13.9203 18.4638 13.9338 17.9892 14.235 17.7047L17.3635 14.75H8.74997C8.33576 14.75 7.99997 14.4142 7.99997 14C7.99997 13.5858 8.33576 13.25 8.74997 13.25H17.3636Z" fill="#7D8198"/>
<path fill-rule="evenodd" clip-rule="evenodd" d="M25 14C25 20.0751 20.0751 25 14 25C7.92487 25 3 20.0751 3 14C3 7.92487 7.92487 3 14 3C20.0751 3 25 7.92487 25 14ZM14 23.5C19.2467 23.5 23.5 19.2467 23.5 14C23.5 8.75329 19.2467 4.5 14 4.5C8.75329 4.5 4.5 8.75329 4.5 14C4.5 19.2467 8.75329 23.5 14 23.5Z" fill="#7D8198"/>
</svg>
