<svg width="28" height="28" viewBox="0 0 28 28" fill="none" xmlns="http://www.w3.org/2000/svg">
<path fill-rule="evenodd" clip-rule="evenodd" d="M8 9.15997V18.8428C8 18.9275 8.0351 18.9652 8.10531 18.9652H9.77278C9.84343 18.9652 9.91633 18.9228 9.90442 18.8334V15.8128L9.9733 15.8128C11.4789 15.8132 13.1423 15.8135 14.1082 14.3637C14.4592 13.8367 14.6347 13.1686 14.6347 12.3594C14.6347 11.9359 14.5645 11.5313 14.4329 11.1361C13.8742 9.52618 12.2804 9 10.8084 9C10.3548 9 9.90132 9.01412 9.44792 9.02823C8.99456 9.04235 8.54119 9.05646 8.08776 9.05646C8.02633 9.05646 8 9.0941 8 9.15997ZM9.91319 14.0343V10.8726C10.5322 10.7778 11.3319 10.7927 11.9054 11.042C12.4307 11.2556 12.7394 11.8237 12.7216 12.4158C12.7216 13.1107 12.3706 13.6905 11.7298 13.8838C11.1494 14.0856 10.5173 14.0806 9.91319 14.0343Z" fill="#7D8198"/>
<path d="M17.3645 11.4707H15.8244C15.7667 11.4548 15.7103 11.5136 15.7255 11.5768C15.8134 12.188 15.812 12.8209 15.8106 13.4415C15.8104 13.5182 15.8103 13.5953 15.8103 13.6716V18.8472C15.7988 18.9328 15.8704 19.0112 15.9516 18.9987H17.6041C17.6794 18.9987 17.7171 18.9532 17.7171 18.8623V14.0958C18.1908 13.5462 19.2057 13.381 19.8576 13.4292C19.9516 13.4292 19.9989 13.394 19.9989 13.3232V11.49C20.0093 11.4118 19.9447 11.3425 19.8717 11.3537C19.4319 11.3445 18.9978 11.4623 18.615 11.6946C18.258 11.9006 17.9395 12.1753 17.6754 12.5051C17.675 12.215 17.6611 11.8909 17.5482 11.6222C17.5257 11.5344 17.4495 11.4715 17.3645 11.4707Z" fill="#7D8198"/>
<path fill-rule="evenodd" clip-rule="evenodd" d="M7.75 4C5.67893 4 4 5.67893 4 7.75V20.25C4 22.3211 5.67893 24 7.75 24H20.25C22.3211 24 24 22.3211 24 20.25V7.75C24 5.67893 22.3211 4 20.25 4H7.75ZM5.5 7.75C5.5 6.50736 6.50736 5.5 7.75 5.5H20.25C21.4926 5.5 22.5 6.50736 22.5 7.75V20.25C22.5 21.4926 21.4926 22.5 20.25 22.5H7.75C6.50736 22.5 5.5 21.4926 5.5 20.25V7.75Z" fill="#7D8198"/>
</svg>
