<svg width="28" height="28" viewBox="0 0 28 28" fill="none" xmlns="http://www.w3.org/2000/svg">
<path fill-rule="evenodd" clip-rule="evenodd" d="M8.5 5.75C8.5 5.33579 8.16421 5 7.75 5C7.33579 5 7 5.33579 7 5.75V22.25C7 22.6642 7.33579 23 7.75 23C8.16421 23 8.5 22.6642 8.5 22.25V5.75ZM4.74954 11C5.16376 11 5.49954 11.3358 5.49954 11.75V16.25C5.49954 16.6642 5.16376 17 4.74954 17C4.33533 17 3.99954 16.6642 3.99954 16.25V11.75C3.99954 11.3358 4.33533 11 4.74954 11ZM22.75 11C23.1642 11 23.5 11.3358 23.5 11.75V16.2492C23.5 16.6635 23.1642 16.9992 22.75 16.9992C22.3358 16.9992 22 16.6635 22 16.2492V11.75C22 11.3358 22.3358 11 22.75 11ZM19.75 5C20.1642 5 20.5 5.33579 20.5 5.75V22.25C20.5 22.6642 20.1642 23 19.75 23C19.3358 23 19 22.6642 19 22.25V5.75C19 5.33579 19.3358 5 19.75 5ZM14.5 12.75C14.5 12.3358 14.1642 12 13.75 12C13.3358 12 13 12.3358 13 12.75V15.25C13 15.6642 13.3358 16 13.75 16C14.1642 16 14.5 15.6642 14.5 15.25V12.75ZM10.75 9C11.1642 9 11.5 9.33579 11.5 9.75V18.2471C11.5 18.6613 11.1642 18.9971 10.75 18.9971C10.3358 18.9971 10 18.6613 10 18.2471V9.75C10 9.33579 10.3358 9 10.75 9ZM17.5 9.75C17.5 9.33579 17.1642 9 16.75 9C16.3358 9 16 9.33579 16 9.75V18.25C16 18.6642 16.3358 19 16.75 19C17.1642 19 17.5 18.6642 17.5 18.25V9.75Z" fill="#7D8198"/>
</svg>
