<svg width="28" height="28" viewBox="0 0 28 28" fill="none" xmlns="http://www.w3.org/2000/svg">
<path d="M16 8.74585C16 8.46486 15.8429 8.20744 15.5931 8.07891C15.3432 7.95038 15.0424 7.97231 14.8138 8.13572L11.3138 10.6378C10.9769 10.8787 10.899 11.3471 11.1399 11.6841C11.3808 12.0211 11.8492 12.099 12.1862 11.8581L14.5 10.204V19.25C14.5 19.6642 14.8358 20 15.25 20C15.6642 20 16 19.6642 16 19.25V8.74585Z" fill="#7D8198"/>
<path fill-rule="evenodd" clip-rule="evenodd" d="M6.75 4C5.23122 4 4 5.23122 4 6.75V21.25C4 22.7688 5.23122 24 6.75 24H21.25C22.7688 24 24 22.7688 24 21.25V6.75C24 5.23122 22.7688 4 21.25 4H6.75ZM5.5 6.75C5.5 6.05964 6.05964 5.5 6.75 5.5H21.25C21.9404 5.5 22.5 6.05964 22.5 6.75V21.25C22.5 21.9404 21.9404 22.5 21.25 22.5H6.75C6.05964 22.5 5.5 21.9404 5.5 21.25V6.75Z" fill="#7D8198"/>
</svg>
