<svg fill="none" height="28" viewBox="0 0 28 28" width="28" xmlns="http://www.w3.org/2000/svg"><g fill="#7d8198"><path d="m15.502 3.00488c.276.00011.5.22393.5.5v2.19629c-.0001.18479-.1026.35458-.2657.44141l-.9863.52441v17.58301c0 .4142-.3358.75-.75.75-.4141-.0001-.75-.3359-.75-.75v-17.58398l-.9834-.52344c-.1629-.0869-.2646-.25676-.2646-.44141v-2.19629c0-.27614.2238-.5.5-.5z"/><path d="m11.3428 17.0039c.3783.0383.6738.3577.6738.7461s-.2955.7078-.6738.7461l-.0762.0039h-4.7666c-.55228 0-1 .4477-1 1s.44772 1 1 1h4.7666l.0762.0039c.3783.0383.6738.3577.6738.7461s-.2955.7078-.6738.7461l-.0762.0039h-4.7666c-1.38071 0-2.5-1.1193-2.5-2.5s1.11929-2.5 2.5-2.5h4.7666z"/><path d="m18.5 17c1.3807 0 2.5 1.1193 2.5 2.5s-1.1193 2.5-2.5 2.5h-1.6895c-.414-.0002-.75-.3359-.75-.75s.336-.7498.75-.75h1.6895c.5523 0 1-.4477 1-1s-.4477-1-1-1h-1.6895c-.414-.0002-.75-.3359-.75-.75s.336-.7498.75-.75z"/><path d="m11.0938 10c.414.0002.75.3359.75.75-.0001.4141-.336.7498-.75.75h-1.5938c-.55228 0-1 .4477-1 1s.44772 1 1 1h1.5938c.414.0002.7499.3359.75.75-.0001.4141-.336.7498-.75.75h-1.5938c-1.38071 0-2.5-1.1193-2.5-2.5s1.11929-2.5 2.5-2.5z"/><path d="m21.5 10c1.3807 0 2.5 1.1193 2.5 2.5s-1.1193 2.5-2.5 2.5h-4.8623l-.0772-.0039c-.378-.0385-.6728-.3579-.6728-.7461s.2948-.7076.6728-.7461l.0772-.0039h4.8623c.5523 0 1-.4477 1-1s-.4477-1-1-1h-4.8623l-.0772-.0039c-.378-.0385-.6728-.3579-.6728-.7461s.2948-.7076.6728-.7461l.0772-.0039z"/></g></svg>