<svg width="28" height="28" viewBox="0 0 28 28" fill="none" xmlns="http://www.w3.org/2000/svg">
<path fill-rule="evenodd" clip-rule="evenodd" d="M15.0242 4.23549C15.8596 3.63517 17 4.24815 17 5.24793V22.75C17 23.7832 15.8086 24.3634 14.9845 23.739L9.60845 19.6647C9.03975 19.2337 8.46382 19.0015 7.75 19.0039L5.75 19C4.22601 19.0051 3 17.7724 3 16.25V11.75C3 10.2312 4.22962 9 5.75 9H7.75C8.41234 9 9.0382 8.81217 9.55647 8.43478C10.5002 7.74759 11.3176 7.09833 12.1481 6.43873L12.2465 6.36062C13.109 5.67567 13.9897 4.979 15.0242 4.23549ZM15.4906 5.75162C14.6604 6.36202 13.9232 6.94534 13.1809 7.5348L13.0764 7.61777C12.25 8.27416 11.4106 8.94084 10.441 9.64692C9.64911 10.2235 8.70892 10.5 7.75 10.5H5.75C5.05892 10.5 4.50158 11.0596 4.50158 11.75V16.25C4.50158 16.942 5.05728 17.5023 5.75 17.5L7.75 17.5039C8.79328 17.5004 9.68484 17.8397 10.516 18.4696L15.4906 22.2396V5.75162Z" fill="#7D8198"/>
<path d="M21.2328 6.70251C21.5455 6.43047 22.0197 6.46314 22.2921 6.77549C24.0364 8.77609 24.9981 11.347 25 14C25.0019 16.653 24.044 19.2094 22.3026 21.2125C22.0307 21.5253 21.5565 21.5586 21.2434 21.287C20.9304 21.0154 20.897 20.5417 21.1688 20.229C22.6728 18.499 23.5001 16.2912 23.4984 14C23.4967 11.7088 22.6662 9.48845 21.1598 7.76066C20.8874 7.44831 20.9201 6.97456 21.2328 6.70251Z" fill="#7D8198"/>
<path d="M20.1897 8.9378C19.9273 8.61706 19.4543 8.56952 19.1332 8.83162C18.8121 9.09372 18.7646 9.56621 19.0269 9.88695C19.9767 11.048 20.4954 12.5013 20.4953 14.0007C20.4951 15.5001 19.976 16.9533 19.026 18.1141C18.7635 18.4348 18.811 18.9073 19.132 19.1695C19.453 19.4316 19.926 19.3842 20.1885 19.0635C21.3578 17.6348 21.9966 15.8463 21.9968 14.0009C21.9971 12.1555 21.3586 10.3668 20.1897 8.9378Z" fill="#7D8198"/>
</svg>
