<svg width="28" height="28" viewBox="0 0 28 28" fill="none" xmlns="http://www.w3.org/2000/svg">
<path d="M14.75 17H19.25C19.6642 17 20 16.6642 20 16.25C20 15.8358 19.6642 15.5 19.25 15.5H14.75C14.3358 15.5 14 15.8358 14 16.25C14 16.6642 14.3358 17 14.75 17Z" fill="#7D8198"/>
<path fill-rule="evenodd" clip-rule="evenodd" d="M3 8.75C3 7.23122 4.23122 6 5.75 6H22.25C23.7688 6 25 7.23122 25 8.75V19.25C25 20.7688 23.7688 22 22.25 22H5.75C4.23122 22 3 20.7688 3 19.25V8.75ZM5.75 7.5C5.05964 7.5 4.5 8.05964 4.5 8.75V11L23.5 11V8.75C23.5 8.05964 22.9404 7.5 22.25 7.5H5.75ZM4.5 19.25V12.5L23.5 12.5V19.25C23.5 19.9404 22.9404 20.5 22.25 20.5H5.75C5.05964 20.5 4.5 19.9404 4.5 19.25Z" fill="#7D8198"/>
</svg>
