<svg width="28" height="28" viewBox="0 0 28 28" fill="none" xmlns="http://www.w3.org/2000/svg">
<path d="M3.0022 14C3.00219 13.7937 3.08717 13.5965 3.23715 13.4549L7.73602 9.20487C8.03716 8.92039 8.51195 8.93383 8.7965 9.2349C9.08105 9.53597 9.0676 10.0107 8.76646 10.2951L5.63857 13.25L22.3649 13.25L19.235 10.2953C18.9338 10.0109 18.9202 9.53626 19.2046 9.23509C19.489 8.93392 19.9638 8.92031 20.2651 9.20469L24.7671 13.4547C24.9171 13.5964 25.0022 13.7936 25.0022 14C25.0022 14.2064 24.9171 14.4036 24.7671 14.5453L20.2651 18.7953C19.9638 19.0797 19.489 19.0661 19.2046 18.7649C18.9202 18.4637 18.9338 17.9891 19.235 17.7047L22.3649 14.75H5.63875L8.76643 17.7043C9.06758 17.9887 9.08106 18.4634 8.79653 18.7645C8.512 19.0656 8.03721 19.0791 7.73605 18.7946L3.23719 14.5452C3.0872 14.4035 3.0022 14.2063 3.0022 14Z" fill="#7D8198"/>
</svg>
