<svg width="28" height="28" viewBox="0 0 28 28" fill="none" xmlns="http://www.w3.org/2000/svg">
<path d="M24.7804 3.21967C24.6397 3.07901 24.4489 3 24.25 3L18.75 3.00005C18.3358 3.00005 18 3.33584 18 3.75006C18.0001 4.16427 18.3358 4.50005 18.7501 4.50005L22.4393 4.50002L14.2197 12.7197C13.9268 13.0125 13.9268 13.4874 14.2197 13.7803C14.5126 14.0732 14.9874 14.0732 15.2803 13.7803L23.5001 5.56062L23.5001 9.24994C23.5001 9.66416 23.8359 9.99994 24.2501 9.99994C24.6643 9.99994 25.0001 9.66415 25.0001 9.24993L25 3.75C25 3.55108 24.921 3.36032 24.7804 3.21967Z" fill="#7D8198"/>
<path d="M6.5 7.74512C6.5 7.05476 7.05964 6.49512 7.75 6.49512H14.25C14.6642 6.49512 15 6.15933 15 5.74512C15 5.3309 14.6642 4.99512 14.25 4.99512H7.75C6.23122 4.99512 5 6.22633 5 7.74512V20.2499C5 21.7687 6.23122 22.9999 7.75 22.9999H20.2548C21.7735 22.9999 23.0048 21.7687 23.0048 20.2499V13.75C23.0048 13.3358 22.669 13 22.2548 13C21.8405 13 21.5048 13.3358 21.5048 13.75V20.2499C21.5048 20.9402 20.9451 21.4999 20.2548 21.4999H7.75C7.05964 21.4999 6.5 20.9402 6.5 20.2499V7.74512Z" fill="#7D8198"/>
</svg>
