<svg width="28" height="28" viewBox="0 0 28 28" fill="none" xmlns="http://www.w3.org/2000/svg">
<path d="M3.21979 4.28093L23.7206 24.7802C24.0135 25.0731 24.4882 25.0729 24.7809 24.7798C25.0736 24.4867 25.0735 24.0117 24.7806 23.7188L4.27973 3.21955C3.98683 2.92667 3.51211 2.92684 3.21941 3.21993C2.92672 3.51302 2.92688 3.98804 3.21979 4.28093Z" fill="#7D8198"/>
<path d="M25 13.9999C25 16.1219 23.8985 17.9867 22.236 19.0534L21.1413 17.9588C22.5461 17.1974 23.5 15.7101 23.5 13.9999C23.5 11.5147 21.4853 9.49995 19 9.49995H17C15.8037 9.49995 14.7163 9.96683 13.9103 10.7283L12.8493 9.6674C13.927 8.63457 15.3894 7.99995 17 7.99995H19C22.3138 7.99995 25 10.6862 25 13.9999Z" fill="#7D8198"/>
<path d="M3.00005 13.9999C3.00005 11.878 4.10161 10.0133 5.76409 8.94649L6.85876 10.0411C5.45398 10.8025 4.50005 12.2898 4.50005 13.9999C4.50005 16.4852 6.51477 18.4999 9.00005 18.4999H11C12.1964 18.4999 13.2838 18.0331 14.0898 17.2716L15.1508 18.3325C14.0731 19.3653 12.6107 20 11 20H9.00005C5.68634 20 3.00005 17.3137 3.00005 13.9999Z" fill="#7D8198"/>
</svg>
