<svg width="28" height="28" viewBox="0 0 28 28" fill="none" xmlns="http://www.w3.org/2000/svg">
<path d="M9.75 13.25C9.33579 13.25 9 13.5858 9 14C9 14.4142 9.33579 14.75 9.75 14.75H18.25C18.6642 14.75 19 14.4142 19 14C19 13.5858 18.6642 13.25 18.25 13.25H9.75Z" fill="#7D8198"/>
<path fill-rule="evenodd" clip-rule="evenodd" d="M14 25C20.0751 25 25 20.0751 25 14C25 7.92487 20.0751 3 14 3C7.92487 3 3 7.92487 3 14C3 20.0751 7.92487 25 14 25ZM23.5 14C23.5 19.2467 19.2467 23.5 14 23.5C8.75329 23.5 4.5 19.2467 4.5 14C4.5 8.75329 8.75329 4.5 14 4.5C19.2467 4.5 23.5 8.75329 23.5 14Z" fill="#7D8198"/>
</svg>
