<svg width="28" height="28" viewBox="0 0 28 28" fill="none" xmlns="http://www.w3.org/2000/svg">
<path fill-rule="evenodd" clip-rule="evenodd" d="M8.10352 21H5.75C4.23122 21 3 19.7688 3 18.25V9.75C3 8.23122 4.23122 7 5.75 7H8.10352C8.42998 5.84575 9.49122 5 10.75 5H17.25C18.5088 5 19.57 5.84575 19.8965 7H22.25C23.7688 7 25 8.23122 25 9.75V12.2529C25 12.6671 24.6642 13.0029 24.25 13.0029C23.8358 13.0029 23.5 12.6671 23.5 12.2529V9.75C23.5 9.05964 22.9404 8.5 22.25 8.5H20V12.25C20 12.6642 19.6642 13 19.25 13C18.8358 13 18.5 12.6642 18.5 12.25V7.75C18.5 7.05964 17.9404 6.5 17.25 6.5H10.75C10.0596 6.5 9.5 7.05964 9.5 7.75V20.25C9.5 20.9404 10.0596 21.5 10.75 21.5H12.2458C12.66 21.5 12.9958 21.8358 12.9958 22.25C12.9958 22.6642 12.66 23 12.2458 23H10.75C9.49122 23 8.42998 22.1543 8.10352 21ZM8 8.5H5.75C5.05964 8.5 4.5 9.05964 4.5 9.75V18.25C4.5 18.9404 5.05964 19.5 5.75 19.5H8V8.5Z" fill="#7D8198"/>
<path fill-rule="evenodd" clip-rule="evenodd" d="M20.5 26C23.5376 26 26 23.5376 26 20.5C26 17.4624 23.5376 15 20.5 15C17.4624 15 15 17.4624 15 20.5C15 23.5376 17.4624 26 20.5 26ZM20.7414 16.8966L21.1552 18.4335C21.3405 19.1218 21.8782 19.6595 22.5665 19.8448L24.1034 20.2586C24.35 20.325 24.35 20.675 24.1034 20.7414L22.5665 21.1552C21.8782 21.3405 21.3405 21.8782 21.1552 22.5665L20.7414 24.1034C20.675 24.35 20.325 24.35 20.2586 24.1034L19.8448 22.5665C19.6595 21.8782 19.1218 21.3405 18.4335 21.1552L16.8966 20.7414C16.65 20.675 16.65 20.325 16.8966 20.2586L18.4335 19.8448C19.1218 19.6595 19.6595 19.1218 19.8448 18.4335L20.2586 16.8966C20.325 16.65 20.675 16.65 20.7414 16.8966Z" fill="#7D8198"/>
</svg>
