<svg width="28" height="28" viewBox="0 0 28 28" fill="none" xmlns="http://www.w3.org/2000/svg">
<path d="M18.4453 19.5023L11.7463 19.5023C11.3321 19.5023 10.9963 19.8381 10.9963 20.2523C10.9963 20.6665 11.3321 21.0023 11.7463 21.0023L20.2501 21.0023C20.449 21.0023 20.6398 20.9233 20.7805 20.7827C20.9211 20.642 21.0001 20.4512 21.0001 20.2523L21.0001 11.7504C21.0001 11.3361 20.6643 11.0004 20.2501 11.0004C19.8359 11.0004 19.5001 11.3361 19.5001 11.7503L19.5001 18.4359L8.28016 7.21791C7.98724 6.92505 7.51237 6.92509 7.2195 7.21801C6.92663 7.51093 6.92668 7.9858 7.2196 8.27867L18.4453 19.5023Z" fill="#7D8198"/>
</svg>
