<svg width="28" height="28" viewBox="0 0 28 28" fill="none" xmlns="http://www.w3.org/2000/svg">
<path fill-rule="evenodd" clip-rule="evenodd" d="M7.75 5C6.7835 5 6 5.7835 6 6.75V21.25C6 22.2165 6.7835 23 7.75 23H10.25C11.2165 23 12 22.2165 12 21.25V6.75C12 5.7835 11.2165 5 10.25 5H7.75ZM7.5 6.75C7.5 6.61193 7.61193 6.5 7.75 6.5H10.25C10.3881 6.5 10.5 6.61193 10.5 6.75V21.25C10.5 21.3881 10.3881 21.5 10.25 21.5H7.75C7.61193 21.5 7.5 21.3881 7.5 21.25V6.75Z" fill="#7D8198"/>
<path fill-rule="evenodd" clip-rule="evenodd" d="M17.75 5C16.7835 5 16 5.7835 16 6.75V21.25C16 22.2165 16.7835 23 17.75 23H20.2469C21.2134 23 21.9969 22.2165 21.9969 21.25V6.75C21.9969 5.7835 21.2134 5 20.2469 5H17.75ZM17.5 6.75C17.5 6.61193 17.6119 6.5 17.75 6.5H20.2469C20.385 6.5 20.4969 6.61193 20.4969 6.75V21.25C20.4969 21.3881 20.385 21.5 20.2469 21.5H17.75C17.6119 21.5 17.5 21.3881 17.5 21.25V6.75Z" fill="#7D8198"/>
</svg>
