<svg width="28" height="28" viewBox="0 0 28 28" fill="none" xmlns="http://www.w3.org/2000/svg">
<path fill-rule="evenodd" clip-rule="evenodd" d="M24.0767 8.51936L19.4784 3.92212C19.1855 3.62929 18.7107 3.62932 18.4178 3.92218L15.5763 6.7637C15.4783 6.78181 15.3534 6.80569 15.2067 6.83535C14.8346 6.91058 14.3198 7.02361 13.748 7.17507C12.6317 7.47077 11.1982 7.93797 10.218 8.60785C9.14785 9.33928 8.38417 10.5499 7.82798 11.8459C7.26588 13.1556 6.87957 14.6386 6.61269 16.0158C6.34503 17.397 6.193 18.6959 6.10776 19.6478C6.06507 20.1244 6.03898 20.5159 6.02351 20.7893C6.01578 20.926 6.0107 21.0333 6.00753 21.1072C6.00595 21.1441 6.00484 21.1727 6.00412 21.1924L6.00331 21.2152L6.00311 21.2215L6.00305 21.2233C6.00304 21.2235 6.00302 21.2243 6.75266 21.2473L6.00305 21.2233C5.99669 21.4301 6.07602 21.6314 6.22233 21.7777C6.36864 21.924 6.5689 22.0033 6.77571 21.997L6.75266 21.2473C6.77571 21.997 6.7755 21.997 6.77571 21.997L6.77854 21.9969L6.78483 21.9967L6.80764 21.9959C6.82733 21.9952 6.85589 21.9941 6.89282 21.9925C6.96666 21.9893 7.074 21.9842 7.21074 21.9765C7.48416 21.961 7.87558 21.9349 8.35225 21.8922C9.30416 21.807 10.603 21.655 11.9842 21.3873C13.3614 21.1204 14.8444 20.7341 16.1541 20.172C17.4501 19.6158 18.6607 18.8522 19.3922 17.782C20.0621 16.8017 20.5289 15.3676 20.8242 14.2509C20.9755 13.679 21.0883 13.1639 21.1634 12.7916C21.193 12.6449 21.2168 12.52 21.2348 12.422L24.0768 9.58008C24.2174 9.43942 24.2965 9.24863 24.2964 9.04971C24.2964 8.85078 24.2174 8.66 24.0767 8.51936ZM16.0593 8.20141L16.0605 8.20122C16.2155 8.17587 16.3589 8.10245 16.47 7.99134L18.9482 5.51311L22.4857 9.04981L20.0071 11.5285C19.8959 11.6397 19.8224 11.783 19.7971 11.9382L19.7969 11.9395L19.7959 11.9457L19.7913 11.9729C19.7871 11.9973 19.7807 12.0343 19.772 12.0825C19.7547 12.1789 19.7283 12.3199 19.693 12.495C19.6222 12.8459 19.5159 13.331 19.3741 13.8675C19.0831 14.9677 18.6677 16.1836 18.1538 16.9356C17.6568 17.6627 16.7507 18.2837 15.5626 18.7936C14.3882 19.2976 13.0196 19.6588 11.6989 19.9147C10.6042 20.1268 9.55871 20.2636 8.70971 20.351L13.2189 15.8417C13.947 16.1502 14.8207 16.0077 15.4142 15.4142C16.1953 14.6332 16.1953 13.3668 15.4142 12.5858C14.6332 11.8047 13.3668 11.8047 12.5858 12.5858C11.9923 13.1793 11.8498 14.053 12.1583 14.7811L7.64905 19.2903C7.73639 18.4413 7.87317 17.3958 8.08529 16.3012C8.34123 14.9804 8.70241 13.6118 9.2064 12.4374C9.71632 11.2493 10.3373 10.3432 11.0644 9.84624C11.8165 9.33222 13.0322 8.9164 14.1321 8.62506C14.6684 8.483 15.1533 8.3765 15.504 8.30559C15.6791 8.27019 15.82 8.2438 15.9164 8.22639C15.9645 8.21769 16.0015 8.21124 16.026 8.20704L16.0531 8.20244L16.0593 8.20141Z" fill="#7D8198"/>
</svg>
