<svg width="28" height="28" viewBox="0 0 28 28" fill="none" xmlns="http://www.w3.org/2000/svg">
<path fill-rule="evenodd" clip-rule="evenodd" d="M15.75 5C15.3358 5 15 5.33579 15 5.75C15 6.16421 15.3358 6.5 15.75 6.5H21.5V12.25C21.5 12.6642 21.8358 13 22.25 13C22.6642 13 23 12.6642 23 12.25V5.75C23 5.33579 22.6642 5 22.25 5H15.75ZM12.25 23C12.6642 23 13 22.6642 13 22.25C13 21.8358 12.6642 21.5 12.25 21.5H6.5V15.75C6.5 15.3358 6.16421 15 5.75 15C5.33579 15 5 15.3358 5 15.75V22.25C5 22.6642 5.33579 23 5.75 23H12.25Z" fill="#7D8198"/>
</svg>
