<svg width="28" height="28" viewBox="0 0 28 28" fill="none" xmlns="http://www.w3.org/2000/svg">
<path fill-rule="evenodd" clip-rule="evenodd" d="M14 23.5C19.2467 23.5 23.5 19.2467 23.5 14C23.5 8.7533 19.2467 4.5 14 4.5C8.7533 4.5 4.5 8.7533 4.5 14C4.5 19.2467 8.75329 23.5 14 23.5ZM25 14C25 20.0751 20.0751 25 14 25C7.92487 25 3 20.0751 3 14C3 7.92487 7.92487 3 14 3C20.0751 3 25 7.92487 25 14ZM15.1242 8C12.9868 8 11.2539 9.73287 11.2539 11.8703V17.343L9.29943 15.2395C9.01748 14.936 8.54293 14.9186 8.23949 15.2006C7.93604 15.4825 7.91862 15.9571 8.20057 16.2605L11.4544 19.7624C11.5964 19.9152 11.7956 20.002 12.0043 20.0019C12.2129 20.0017 12.412 19.9147 12.5539 19.7617L15.8 16.2599C16.0816 15.9561 16.0636 15.4816 15.7599 15.2C15.4561 14.9184 14.9816 14.9364 14.7 15.2401L12.7539 17.3395V11.8703C12.7539 10.5613 13.8152 9.5 15.1242 9.5C16.3133 9.5 17.3167 10.3282 17.5169 11.3894C17.5937 11.7964 17.9859 12.0641 18.393 11.9873C18.8 11.9105 19.0677 11.5183 18.9909 11.1112C18.6481 9.29462 16.9858 8 15.1242 8Z" fill="#7D8198"/>
</svg>
