<svg width="28" height="28" viewBox="0 0 28 28" fill="none" xmlns="http://www.w3.org/2000/svg">
<path fill-rule="evenodd" clip-rule="evenodd" d="M9 10V8C9 5.18715 11.2438 3 14 3C16.7562 3 19 5.18715 19 8V10H19.2462C20.765 10 21.9962 11.2312 21.9962 12.75V21.25C21.9962 22.7688 20.765 24 19.2462 24H8.74622C7.22743 24 5.99622 22.7688 5.99622 21.25V12.75C5.99622 11.2312 7.22743 10 8.74622 10H9ZM10.5 8C10.5 6.02618 12.0616 4.5 14 4.5C15.9384 4.5 17.5 6.02618 17.5 8V10H10.5V8ZM7.49622 12.75C7.49622 12.0596 8.05586 11.5 8.74622 11.5H19.2462C19.9366 11.5 20.4962 12.0596 20.4962 12.75V21.25C20.4962 21.9404 19.9366 22.5 19.2462 22.5H8.74622C8.05586 22.5 7.49622 21.9404 7.49622 21.25V12.75Z" fill="#7D8198"/>
</svg>
