<svg width="28" height="28" viewBox="0 0 28 28" fill="none" xmlns="http://www.w3.org/2000/svg">
<path fill-rule="evenodd" clip-rule="evenodd" d="M10.5 6.25C10.5 7.2165 11.2835 8 12.25 8H15.75C16.7165 8 17.5 7.2165 17.5 6.25V5.5H19.2451C19.9355 5.5 20.4951 6.05964 20.4951 6.75V9.25C20.4951 9.66421 20.8309 10 21.2451 10C21.6593 10 21.9951 9.66421 21.9951 9.25V6.75C21.9951 5.23122 20.7639 4 19.2451 4L17.5 4C17.445 4 17.3913 4.00593 17.3396 4.01718C17.0624 3.4167 16.4548 3 15.75 3H12.25C11.5519 3 10.9493 3.40876 10.6684 4L8.75 4C7.23122 4 6 5.23122 6 6.75V21.25C6 22.7688 7.23122 24 8.75 24H11.25C11.6642 24 12 23.6642 12 23.25C12 22.8358 11.6642 22.5 11.25 22.5H8.75C8.05964 22.5 7.5 21.9404 7.5 21.25L7.5 6.75C7.5 6.05964 8.05964 5.5 8.75 5.5H10.5V6.25ZM12.25 6.5C12.1119 6.5 12 6.38807 12 6.25V4.75C12 4.61193 12.1119 4.5 12.25 4.5L15.75 4.5C15.8881 4.5 16 4.61193 16 4.75V6.25C16 6.38807 15.8881 6.5 15.75 6.5H12.25Z" fill="#7D8198"/>
<path fill-rule="evenodd" clip-rule="evenodd" d="M14 13.75C14 12.7835 14.7835 12 15.75 12H22.25C23.2165 12 24 12.7835 24 13.75V23.25C24 24.2165 23.2165 25 22.25 25H15.75C14.7835 25 14 24.2165 14 23.25V13.75ZM15.75 13.5C15.6119 13.5 15.5 13.6119 15.5 13.75V23.25C15.5 23.3881 15.6119 23.5 15.75 23.5H22.25C22.3881 23.5 22.5 23.3881 22.5 23.25V13.75C22.5 13.6119 22.3881 13.5 22.25 13.5H15.75Z" fill="#7D8198"/>
</svg>
