<svg width="28" height="28" viewBox="0 0 28 28" fill="none" xmlns="http://www.w3.org/2000/svg">
<path fill-rule="evenodd" clip-rule="evenodd" d="M11.2917 7.47421C10.7809 7.76476 10.304 8.1154 9.87185 8.52017C8.97111 9.3638 8.29232 10.4166 7.89563 11.5852C7.49893 12.7538 7.39656 14.0023 7.5976 15.2199C7.79863 16.4375 8.29686 17.5868 9.04815 18.5659C9.79943 19.545 10.7806 20.3237 11.9047 20.833C13.0288 21.3424 14.2612 21.5666 15.4927 21.4859C16.7242 21.4052 17.9167 21.022 18.9648 20.3703C19.4702 20.056 19.9345 19.6839 20.3489 19.2631C14.0094 19.8591 9.06531 13.4385 11.2917 7.47421ZM12.4562 5.36026C13.2086 5.13851 13.7863 5.96622 13.3927 6.59558C9.81253 12.3194 15.2655 19.426 21.7375 17.4661C22.4419 17.2528 23.0972 18.0185 22.6863 18.6912C21.9542 19.8897 20.9513 20.9014 19.7569 21.6441C18.4994 22.4261 17.0684 22.8858 15.5908 22.9827C14.1132 23.0795 12.6345 22.8105 11.2857 22.1993C9.93684 21.5882 8.75957 20.6538 7.85812 19.479C6.95666 18.3042 6.35885 16.9253 6.11763 15.4642C5.87642 14.0032 5.99924 12.5053 6.47523 11.103C6.95122 9.70082 7.76568 8.43763 8.84646 7.42537C9.87284 6.46406 11.1093 5.75723 12.4562 5.36026Z" fill="#7D8198"/>
</svg>
