<svg width="28" height="28" viewBox="0 0 28 28" fill="none" xmlns="http://www.w3.org/2000/svg">
<path d="M9.05688 16.5848C9.5654 16.078 10.3974 16.5074 10.3372 17.1729L10.3127 17.3097L9.9016 18.8472C9.7639 19.3638 9.91183 19.9153 10.2893 20.2939L11.4133 21.4202C11.9545 21.9629 11.4291 22.8738 10.6887 22.6764L9.1516 22.2652C8.63526 22.1275 8.08377 22.2756 7.70531 22.653L6.57934 23.7774C6.03678 24.3188 5.12601 23.7932 5.32348 23.0525L5.73461 21.515C5.8721 20.9984 5.72432 20.4467 5.34692 20.0683L4.22289 18.942C3.68175 18.3992 4.20703 17.4882 4.9475 17.6857L6.48461 18.097C7.00108 18.2347 7.55248 18.0868 7.9309 17.7092L9.05688 16.5848Z" fill="#7D8198"/>
<path fill-rule="evenodd" clip-rule="evenodd" d="M20.1555 4.2336C20.8606 3.63877 21.942 4.26315 21.7795 5.17137L21.759 5.26319L20.9709 8.2162C20.7645 8.99114 20.9867 9.81799 21.553 10.3858L23.7102 12.5485C24.4319 13.2721 23.7317 14.4852 22.7444 14.2218L19.7932 13.4345C19.0184 13.2278 18.191 13.4492 17.6233 14.0157L15.4612 16.1746C14.7378 16.8964 13.5251 16.196 13.7883 15.2085L14.5754 12.2555C14.7821 11.4804 14.5607 10.6538 13.9944 10.0859L11.8362 7.92217C11.1152 7.1986 11.8151 5.98597 12.802 6.24883L15.7541 7.03715C16.5288 7.24379 17.3554 7.02221 17.9231 6.45592L20.0862 4.29709L20.1555 4.2336ZM18.9827 7.51775C18.0365 8.46182 16.6587 8.83124 15.3674 8.48678L14.2092 8.17712L15.0559 9.026C15.9998 9.97248 16.369 11.3505 16.0247 12.6423L15.7161 13.8008L16.5647 12.9539C17.5109 12.0098 18.8886 11.6404 20.1799 11.9849L21.3372 12.2936L20.4914 11.4457C19.5476 10.4992 19.1784 9.12109 19.5227 7.82937L19.8313 6.66985L18.9827 7.51775Z" fill="#7D8198"/>
</svg>
