<svg width="28" height="28" viewBox="0 0 28 28" fill="none" xmlns="http://www.w3.org/2000/svg">
<path fill-rule="evenodd" clip-rule="evenodd" d="M9.82779 5.50464C9.4965 5.50464 9.17877 5.63615 8.94439 5.87027L5.8666 8.9447C5.84863 8.96265 5.83126 8.9811 5.8145 9H22.1855C22.1687 8.9811 22.1514 8.96265 22.1334 8.9447L19.0556 5.87027C18.8212 5.63615 18.5035 5.50464 18.1722 5.50464H9.82779ZM5.5 21.2546V10.5H22.5V21.2546C22.5 21.945 21.9404 22.5046 21.25 22.5046H6.75C6.05964 22.5046 5.5 21.945 5.5 21.2546ZM7.88431 4.80903C8.39994 4.29396 9.09896 4.00464 9.82779 4.00464H18.1722C18.901 4.00464 19.6001 4.29396 20.1157 4.80903L23.1935 7.88346C23.7099 8.39927 24 9.0992 24 9.82907V21.2546C24 22.7734 22.7688 24.0046 21.25 24.0046H6.75C5.23122 24.0046 4 22.7734 4 21.2546V9.82907C4 9.0992 4.29014 8.39927 4.80652 7.88346L7.88431 4.80903ZM17.25 14.5C17.6642 14.5 18 14.1642 18 13.75C18 13.3358 17.6642 13 17.25 13H10.75C10.3358 13 10 13.3358 10 13.75C10 14.1642 10.3358 14.5 10.75 14.5H17.25Z" fill="#7D8198"/>
</svg>
