<svg width="28" height="29" viewBox="0 0 28 29" fill="none" xmlns="http://www.w3.org/2000/svg">
<path d="M19 13.49C19.5523 13.49 20 13.9377 20 14.49C20 15.0423 19.5523 15.49 19 15.49C18.4477 15.49 18 15.0423 18 14.49C18 13.9377 18.4477 13.49 19 13.49Z" fill="#7D8198"/>
<path fill-rule="evenodd" clip-rule="evenodd" d="M21.25 7.48999C22.7688 7.49001 24 8.72122 24 10.24V18.74C24 20.2588 22.7688 21.49 21.25 21.49H6.75C5.23122 21.49 4 20.2588 4 18.74V10.24C4 8.72121 5.23122 7.48999 6.75 7.48999H21.25ZM6.75 8.98999C6.05964 8.98999 5.5 9.54963 5.5 10.24V18.74C5.5 19.4303 6.05964 19.99 6.75 19.99H21.25C21.9403 19.99 22.5 19.4303 22.5 18.74V10.24C22.5 9.54964 21.9403 8.99001 21.25 8.98999H6.75Z" fill="#7D8198"/>
</svg>
