<svg width="28" height="28" viewBox="0 0 28 28" fill="none" xmlns="http://www.w3.org/2000/svg">
<path d="M6 7C6.00118 6.44771 6.44984 6 7.00213 6H21.0021C21.5544 6 22.0012 6.44771 22 7C21.9988 7.55228 21.5502 8 20.9979 8H6.99788C6.44559 8 5.99883 7.55228 6 7Z" fill="#7D8198"/>
<path d="M4 14C4.00118 13.4477 4.44984 13 5.00213 13H23.0021C23.5544 13 24.0012 13.4477 24 14C23.9988 14.5523 23.5502 15 22.9979 15H4.99788C4.44559 15 3.99883 14.5523 4 14Z" fill="#7D8198"/>
<path d="M8.00213 20C7.44984 20 7.00118 20.4477 7 21C6.99883 21.5523 7.44559 22 7.99788 22H19.9979C20.5502 22 20.9988 21.5523 21 21C21.0012 20.4477 20.5544 20 20.0021 20H8.00213Z" fill="#7D8198"/>
</svg>
