<svg width="28" height="28" viewBox="0 0 28 28" fill="none" xmlns="http://www.w3.org/2000/svg">
<path d="M4.28061 3.22C3.98772 2.92711 3.51271 2.92698 3.21966 3.21971C2.92661 3.51244 2.92648 3.98719 3.21937 4.28008L23.7194 24.7801C24.0123 25.073 24.4873 25.0731 24.7803 24.7804C25.0734 24.4876 25.0735 24.0129 24.7806 23.72L4.28061 3.22Z" fill="#7D8198"/>
<path d="M3 9.75021C3 8.78152 3.50085 7.9298 4.25773 7.43992L5.37519 8.55737C4.86795 8.7166 4.5 9.19043 4.5 9.75021L4.5 18.2502C4.5 18.9406 5.05964 19.5002 5.75 19.5002L16.25 19.5002C16.2722 19.5002 16.2943 19.4996 16.3163 19.4985L17.512 20.6942C17.134 20.8897 16.7049 21.0002 16.25 21.0002L5.75 21.0002C4.23121 21.0002 3 19.769 3 18.2502V9.75021Z" fill="#7D8198"/>
<path fill-rule="evenodd" clip-rule="evenodd" d="M17.5 14.3182L22.291 19.1093L23.9146 19.921C24.1471 20.0373 24.4232 20.0249 24.6443 19.8882C24.8654 19.7515 25 19.5101 25 19.2502V8.75021C25 8.4859 24.8609 8.2411 24.6338 8.10584C24.4067 7.97059 24.1252 7.96485 23.8928 8.09074L19 10.741V9.75021C19 8.23142 17.7688 7.00021 16.25 7.00021H10.182L11.682 8.50021H16.25C16.9404 8.50021 17.5 9.05985 17.5 9.75021V14.3182ZM19 12.4469V15.7867L23.5 18.0367V10.0094L19 12.4469Z" fill="#7D8198"/>
</svg>
