<svg width="28" height="28" viewBox="0 0 28 28" fill="none" xmlns="http://www.w3.org/2000/svg">
<path d="M14 11C11.7909 11 9.99999 9.20907 9.99999 7H18C18 9.20907 16.2091 11 14 11Z" fill="#7D8198"/>
<path fill-rule="evenodd" clip-rule="evenodd" d="M5.74716 25C5.33295 25 4.99716 24.6642 4.99716 24.25V22.0758C4.99716 18.4118 7.05938 15.3771 10.5 14.1967V13.8033C7.05938 12.6229 4.99716 9.58823 4.99716 5.92424V3.75C4.99716 3.33579 5.33295 3 5.74716 3H22.2476C22.6619 3 22.9976 3.33579 22.9976 3.75V5.92424C22.9976 9.58746 20.9408 12.6227 17.5 13.8033V14.1967C20.9408 15.3773 22.9976 18.4125 22.9976 22.0758V24.25C22.9976 24.6642 22.6619 25 22.2476 25H5.74716ZM6.49716 22.0758V23.5H21.4976V22.0758C21.4976 18.8651 19.6417 16.321 16.5516 15.4733C16.2258 15.3839 16 15.0878 16 14.75V13.25C16 12.9122 16.2258 12.6161 16.5516 12.5267C19.6417 11.679 21.4976 9.13494 21.4976 5.92424V4.5H6.49716V5.92424C6.49716 9.13411 8.35747 11.6788 11.4484 12.5267C11.7742 12.6161 12 12.9122 12 13.25V14.75C12 15.0878 11.7742 15.3839 11.4484 15.4733C8.35747 16.3212 6.49716 18.8659 6.49716 22.0758Z" fill="#7D8198"/>
</svg>
