<svg width="28" height="28" viewBox="0 0 28 28" fill="none" xmlns="http://www.w3.org/2000/svg">
<path d="M11.7936 6.82837C12.4412 5.60873 13.9534 5.14573 15.1712 5.79422C15.5366 5.98877 15.9903 5.84987 16.1845 5.48398C16.3788 5.11808 16.2401 4.66376 15.8747 4.46921C13.9262 3.43162 11.5066 4.17243 10.4705 6.12385C9.55114 7.85546 10.0301 9.95846 11.5111 11.1352L7.61487 19.0731C7.2522 19.2231 6.99698 19.5806 6.99698 19.9978C6.99698 20.5501 7.44424 20.9978 7.99597 20.9978C8.5477 20.9978 8.99496 20.5501 8.99496 19.9978C8.99496 19.9067 8.98279 19.8184 8.95998 19.7345L13.1469 11.2044C13.3254 10.8409 13.1834 10.4011 12.8263 10.2109C11.6084 9.56242 11.1461 8.048 11.7936 6.82837Z" fill="#7D8198"/>
<path d="M14.9512 8.26557C14.9758 8.17876 14.9889 8.08715 14.9889 7.99247C14.9889 7.44018 14.5416 6.99247 13.9899 6.99247C13.4382 6.99247 12.9909 7.44018 12.9909 7.99247C12.9909 8.40605 13.2417 8.76099 13.5994 8.91319L17.7043 17.4922C17.7945 17.6807 17.9591 17.8229 18.1585 17.8847C18.3578 17.9465 18.5739 17.9222 18.7546 17.8177C19.9492 17.1271 21.4766 17.537 22.1663 18.7332C22.8559 19.9295 22.4466 21.4591 21.2521 22.1498C20.8938 22.357 20.771 22.8159 20.9779 23.1748C21.1848 23.5336 21.643 23.6566 22.0014 23.4494C23.9126 22.3443 24.5674 19.8969 23.464 17.9829C22.498 16.3074 20.5049 15.596 18.741 16.1861L14.9512 8.26557Z" fill="#7D8198"/>
<path d="M20.9828 19.9978C20.9828 20.5501 20.5356 20.9978 19.9839 20.9978C19.7309 20.9978 19.4999 20.9037 19.3239 20.7486H11.9195C11.5647 22.5695 9.94762 24 7.99597 24C5.78285 24 4 22.1605 4 19.9982C4 19.5838 4.33545 19.2479 4.74924 19.2479C5.16304 19.2479 5.49849 19.5838 5.49849 19.9982C5.49849 21.3442 6.62285 22.4993 7.99597 22.4993C9.36908 22.4993 10.4934 21.3442 10.4934 19.9982C10.4934 19.5838 10.8289 19.2479 11.2427 19.2479H19.3229C19.4991 19.0922 19.7304 18.9978 19.9839 18.9978C20.5356 18.9978 20.9828 19.4455 20.9828 19.9978Z" fill="#7D8198"/>
</svg>
