<svg width="28" height="28" viewBox="0 0 28 28" fill="none" xmlns="http://www.w3.org/2000/svg">
<path fill-rule="evenodd" clip-rule="evenodd" d="M9.75 4C8.7835 4 8 4.7835 8 5.75V13H4.75C3.7835 13 3 13.7835 3 14.75V22.25C3 23.2165 3.7835 24 4.75 24H13.25C14.2165 24 15 23.2165 15 22.25V19H23.25C24.2165 19 25 18.2165 25 17.25V5.75C25 4.7835 24.2165 4 23.25 4H9.75ZM13.5 19H9.75C8.7835 19 8 18.2165 8 17.25V14.5H4.75C4.61193 14.5 4.5 14.6119 4.5 14.75V22.25C4.5 22.3881 4.61193 22.5 4.75 22.5H13.25C13.3881 22.5 13.5 22.3881 13.5 22.25V19ZM9.5 5.75C9.5 5.61193 9.61193 5.5 9.75 5.5H23.25C23.3881 5.5 23.5 5.61193 23.5 5.75V17.25C23.5 17.3881 23.3881 17.5 23.25 17.5H9.75C9.61193 17.5 9.5 17.3881 9.5 17.25V5.75Z" fill="#7D8198"/>
</svg>
