<svg width="28" height="28" viewBox="0 0 28 28" fill="none" xmlns="http://www.w3.org/2000/svg">
<path d="M6.75 6C6.33579 6 6 6.33579 6 6.75C6 7.16421 6.33579 7.5 6.75 7.5H23.25C23.6642 7.5 24 7.16421 24 6.75C24 6.33579 23.6642 6 23.25 6H6.75Z" fill="#7D8198"/>
<path d="M6.75 11C6.33579 11 6 11.3358 6 11.75C6 12.1642 6.33579 12.5 6.75 12.5H20.25C20.6642 12.5 21 12.1642 21 11.75C21 11.3358 20.6642 11 20.25 11H6.75Z" fill="#7D8198"/>
<path d="M6 16.75C6 16.3358 6.33579 16 6.75 16H17.25C17.6642 16 18 16.3358 18 16.75C18 17.1642 17.6642 17.5 17.25 17.5H6.75C6.33579 17.5 6 17.1642 6 16.75Z" fill="#7D8198"/>
<path d="M6.75 21C6.33579 21 6 21.3358 6 21.75C6 22.1642 6.33579 22.5 6.75 22.5H14.25C14.6642 22.5 15 22.1642 15 21.75C15 21.3358 14.6642 21 14.25 21H6.75Z" fill="#7D8198"/>
</svg>
