<svg width="28" height="28" viewBox="0 0 28 28" fill="none" xmlns="http://www.w3.org/2000/svg">
<path d="M18.7992 15.265C19.0836 14.9638 19.07 14.4892 18.7689 14.2047C18.4677 13.9203 17.9931 13.9339 17.7086 14.235L14.0039 18.1577L10.2992 14.235C10.0148 13.9339 9.54008 13.9203 9.23894 14.2047C8.9378 14.4892 8.92424 14.9638 9.20864 15.265L13.4586 19.765C13.6003 19.915 13.7976 20 14.0039 20C14.2103 20 14.4075 19.915 14.5492 19.765L18.7992 15.265Z" fill="#7D8198"/>
<path d="M18.7952 9.26497C19.0009 9.04726 19.0573 8.72811 18.9387 8.45312C18.8202 8.17813 18.5494 8 18.25 8L9.7499 8C9.45044 8 9.17969 8.17813 9.06115 8.45312C8.94262 8.72812 8.99903 9.04727 9.20464 9.26497L13.4547 13.765C13.5964 13.915 13.7936 14 14 14C14.2063 14 14.4036 13.915 14.5452 13.765L18.7952 9.26497Z" fill="#7D8198"/>
<path fill-rule="evenodd" clip-rule="evenodd" d="M6.75 4C5.23122 4 4 5.23122 4 6.75V21.25C4 22.7688 5.23122 24 6.75 24H21.25C22.7688 24 24 22.7688 24 21.25V6.75C24 5.23122 22.7688 4 21.25 4H6.75ZM5.5 6.75C5.5 6.05964 6.05964 5.5 6.75 5.5H21.25C21.9404 5.5 22.5 6.05964 22.5 6.75V21.25C22.5 21.9404 21.9404 22.5 21.25 22.5H6.75C6.05964 22.5 5.5 21.9404 5.5 21.25V6.75Z" fill="#7D8198"/>
</svg>
