<svg width="28" height="28" viewBox="0 0 28 28" fill="none" xmlns="http://www.w3.org/2000/svg">
<path fill-rule="evenodd" clip-rule="evenodd" d="M14.5 6.22187C16.6479 4.07399 20.1303 4.07399 22.2782 6.22187C24.4261 8.36976 24.4261 11.8522 22.2782 14L13.0858 23.1924C11.719 24.5593 9.50292 24.5593 8.13609 23.1924C6.76925 21.8256 6.76925 19.6095 8.13609 18.2427L15.7375 10.6413C16.0304 10.3484 16.5053 10.3484 16.7981 10.6413C17.091 10.9342 17.091 11.4091 16.7981 11.702L9.19675 19.3033C8.4157 20.0844 8.4157 21.3507 9.19675 22.1318C9.9778 22.9128 11.2441 22.9128 12.0252 22.1318L21.2176 12.9394C22.7797 11.3773 22.7797 8.84463 21.2176 7.28253C19.6555 5.72044 17.1228 5.72044 15.5607 7.28253L8.66642 14.1768C8.37353 14.4697 7.89865 14.4697 7.60576 14.1768C7.31286 13.8839 7.31287 13.4091 7.60576 13.1162L14.5 6.22187Z" fill="#7D8198"/>
</svg>
