<svg width="28" height="28" viewBox="0 0 28 28" fill="none" xmlns="http://www.w3.org/2000/svg">
<path fill-rule="evenodd" clip-rule="evenodd" d="M13.9983 4C8.47647 4 4 8.47647 4 13.9983C4 19.5202 8.47647 23.9967 13.9983 23.9967C15.2334 23.9967 16.4175 23.7724 17.511 23.3621C17.8989 23.2166 18.0953 22.7843 17.9498 22.3965C17.8043 22.0086 17.3719 21.8122 16.9841 21.9577C16.0564 22.3058 15.0507 22.4967 13.9983 22.4967C9.3049 22.4967 5.5 18.6918 5.5 13.9983C5.5 9.3049 9.3049 5.5 13.9983 5.5C18.6918 5.5 22.4967 9.3049 22.4967 13.9983V15.0259C22.4967 16.3144 21.4524 17.3587 20.1639 17.3587C18.8754 17.3587 17.8311 16.3144 17.8311 15.0259V14.0325C17.8312 14.0211 17.8312 14.0097 17.8312 13.9983C17.8312 13.9869 17.8312 13.9755 17.8311 13.9641V9.88797C17.8311 9.47375 17.4953 9.13797 17.0811 9.13797C16.6669 9.13797 16.3311 9.47375 16.3311 9.88797V10.3239C15.5807 9.59169 14.5955 9.13795 13.4846 9.13795C10.9962 9.13795 9.13807 11.415 9.13807 13.9983C9.13807 16.5817 10.9962 18.8587 13.4846 18.8587C14.8973 18.8587 16.1068 18.1249 16.8886 17.0178C17.5613 18.1217 18.7765 18.8587 20.1639 18.8587C22.2808 18.8587 23.9967 17.1429 23.9967 15.0259V13.9983C23.9967 8.47647 19.5202 4 13.9983 4ZM16.3311 13.9682V14.0284C16.3171 15.9622 14.9551 17.3587 13.4846 17.3587C12.0066 17.3587 10.6381 15.9477 10.6381 13.9983C10.6381 12.0489 12.0066 10.638 13.4846 10.638C14.9551 10.638 16.3171 12.0345 16.3311 13.9682Z" fill="#7D8198"/>
</svg>
