<svg width="28" height="28" viewBox="0 0 28 28" fill="none" xmlns="http://www.w3.org/2000/svg">
<path d="M11.75 19.5C11.3358 19.5 11 19.8358 11 20.25C11 20.6642 11.3358 21 11.75 21H16.25C16.6642 21 17 20.6642 17 20.25C17 19.8358 16.6642 19.5 16.25 19.5H11.75Z" fill="#7D8198"/>
<path fill-rule="evenodd" clip-rule="evenodd" d="M8.75 4C7.23122 4 6 5.23122 6 6.75V21.25C6 22.7688 7.23122 24 8.75 24H19.25C20.7688 24 22 22.7688 22 21.25V6.75C22 5.23122 20.7688 4 19.25 4H8.75ZM7.5 6.75C7.5 6.05964 8.05964 5.5 8.75 5.5H19.25C19.9404 5.5 20.5 6.05964 20.5 6.75V21.25C20.5 21.9404 19.9404 22.5 19.25 22.5H8.75C8.05964 22.5 7.5 21.9404 7.5 21.25V6.75Z" fill="#7D8198"/>
</svg>
