<svg width="28" height="28" viewBox="0 0 28 28" fill="none" xmlns="http://www.w3.org/2000/svg">
<path d="M6.99976 4.75C6.99976 4.33579 7.33554 4 7.74976 4H20.2502C20.6644 4 21.0002 4.33579 21.0002 4.75C21.0002 5.16421 20.6644 5.5 20.2502 5.5H7.74976C7.33554 5.5 6.99976 5.16421 6.99976 4.75Z" fill="#7D8198"/>
<path d="M4 9.75C4 8.23122 5.23122 7 6.75 7H21.25C22.7688 7 24 8.23122 24 9.75V12.25C24 12.6642 23.6642 13 23.25 13C22.8358 13 22.5 12.6642 22.5 12.25V9.75C22.5 9.05964 21.9404 8.5 21.25 8.5H6.75C6.05964 8.5 5.5 9.05964 5.5 9.75V20.25C5.5 20.9404 6.05964 21.5 6.75 21.5H12.25C12.6642 21.5 13 21.8358 13 22.25C13 22.6642 12.6642 23 12.25 23H6.75C5.23122 23 4 21.7688 4 20.25V9.75Z" fill="#7D8198"/>
<path fill-rule="evenodd" clip-rule="evenodd" d="M20.5 26C23.5376 26 26 23.5376 26 20.5C26 17.4624 23.5376 15 20.5 15C17.4624 15 15 17.4624 15 20.5C15 23.5376 17.4624 26 20.5 26ZM21.25 17.25C21.25 16.8358 20.9142 16.5 20.5 16.5C20.0858 16.5 19.75 16.8358 19.75 17.25V19.75H17.2497C16.8355 19.75 16.4997 20.0858 16.4997 20.5C16.4997 20.9142 16.8355 21.25 17.2497 21.25H19.75V23.75C19.75 24.1642 20.0858 24.5 20.5 24.5C20.9142 24.5 21.25 24.1642 21.25 23.75V21.25H23.7497C24.1639 21.25 24.4997 20.9142 24.4997 20.5C24.4997 20.0858 24.1639 19.75 23.7497 19.75H21.25V17.25Z" fill="#7D8198"/>
</svg>
