<svg width="28" height="28" viewBox="0 0 28 28" fill="none" xmlns="http://www.w3.org/2000/svg">
<path fill-rule="evenodd" clip-rule="evenodd" d="M6 5.75C6 4.23122 7.23122 3 8.75 3H14.4216C15.1509 3 15.8504 3.28973 16.3661 3.80546L21.1945 8.63388C21.7103 9.14961 22 9.84908 22 10.5784V12.25C22 12.6642 21.6642 13 21.25 13C20.8358 13 20.5 12.6642 20.5 12.25V11H15.75C14.7835 11 14 10.2165 14 9.25V4.5H8.75C8.05964 4.5 7.5 5.05964 7.5 5.75V21.25C7.5 21.9404 8.05964 22.5 8.75 22.5H13.25C13.6642 22.5 14 22.8358 14 23.25C14 23.6642 13.6642 24 13.25 24H8.75C7.23122 24 6 22.7688 6 21.25V5.75ZM15.5 5.06066L19.9393 9.5H15.75C15.6119 9.5 15.5 9.38807 15.5 9.25V5.06066Z" fill="#7D8198"/>
<path fill-rule="evenodd" clip-rule="evenodd" d="M20.5 26C23.5376 26 26 23.5376 26 20.5C26 17.4624 23.5376 15 20.5 15C17.4624 15 15 17.4624 15 20.5C15 23.5376 17.4624 26 20.5 26ZM22.2197 23.2806C22.5126 23.5735 22.9874 23.5735 23.2803 23.2806C23.5732 22.9877 23.5732 22.5129 23.2804 22.22L21.5594 20.4989L23.2766 18.7801C23.5694 18.487 23.5692 18.0122 23.2761 17.7194C22.9831 17.4267 22.5082 17.4269 22.2155 17.7199L20.4988 19.4382L18.7803 17.7197C18.4874 17.4268 18.0125 17.4268 17.7196 17.7197C17.4267 18.0125 17.4267 18.4874 17.7196 18.7803L19.4386 20.4994L17.7194 22.2202C17.4267 22.5132 17.4269 22.9881 17.7199 23.2809C18.013 23.5736 18.4878 23.5734 18.7806 23.2804L20.4992 21.5601L22.2197 23.2806Z" fill="#7D8198"/>
</svg>
