<svg width="28" height="28" viewBox="0 0 28 28" fill="none" xmlns="http://www.w3.org/2000/svg">
<path fill-rule="evenodd" clip-rule="evenodd" d="M5 5.75C5 5.33579 5.33579 5 5.75 5H12.25C12.6642 5 13 5.33579 13 5.75V9H15V5.75C15 5.33579 15.3358 5 15.75 5H22.25C22.6642 5 23 5.33579 23 5.75V9.10326C24.1547 9.42943 25.0009 10.4909 25.0009 11.75V20.2507C25.0009 21.7695 23.7697 23.0007 22.2509 23.0007H5.75C4.23121 23.0007 3 21.7695 3 20.2507V11.75C3 10.4912 3.84575 9.42998 5 9.10352V5.75ZM22.25 10.5H5.75C5.05964 10.5 4.5 11.0596 4.5 11.75V20.2507C4.5 20.9411 5.05964 21.5007 5.75 21.5007H22.2509C22.9413 21.5007 23.5009 20.9411 23.5009 20.2507V11.75C23.5009 11.0596 22.9404 10.5 22.25 10.5ZM21.5 9V6.5H16.5V9H21.5ZM11.5 6.5V9H6.5V6.5H11.5Z" fill="#7D8198"/>
</svg>
