<svg width="28" height="28" viewBox="0 0 28 28" fill="none" xmlns="http://www.w3.org/2000/svg">
<path fill-rule="evenodd" clip-rule="evenodd" d="M4 8.75C4 7.23122 5.23122 6 6.75 6H21.25C22.7688 6 24 7.23122 24 8.75V19.25C24 20.7688 22.7688 22 21.25 22H6.75C5.23122 22 4 20.7688 4 19.25V8.75ZM6.75 7.5C6.05964 7.5 5.5 8.05964 5.5 8.75V8.92051L13.3886 13.3442C13.7684 13.5571 14.2316 13.5571 14.6114 13.3442L22.5 8.92051V8.75C22.5 8.05964 21.9404 7.5 21.25 7.5H6.75ZM22.5 10.6403L15.3451 14.6525C14.5096 15.121 13.4904 15.121 12.6549 14.6525L5.5 10.6403V19.25C5.5 19.9404 6.05964 20.5 6.75 20.5H21.25C21.9404 20.5 22.5 19.9404 22.5 19.25V10.6403Z" fill="#7D8198"/>
</svg>
