<svg width="28" height="28" viewBox="0 0 28 28" fill="none" xmlns="http://www.w3.org/2000/svg">
<path fill-rule="evenodd" clip-rule="evenodd" d="M14 3C20.0751 3 25 7.92487 25 14C25 20.0751 20.0751 25 14 25C7.92487 25 3 20.0751 3 14C3 7.92487 7.92487 3 14 3ZM18.9949 14.5017H23.487C23.2767 18.5427 20.5413 21.9154 16.8286 23.0718C18.0815 21.1774 18.9223 18.0595 18.9949 14.5017ZM18.9797 13.0017H23.4482C23.0494 9.18281 20.3881 6.03691 16.8286 4.92823C18.0228 6.73391 18.8427 9.65129 18.9797 13.0017ZM11.1714 23.0718C7.45873 21.9154 4.72328 18.5427 4.51302 14.5017H9.00511C9.0777 18.0595 9.91853 21.1774 11.1714 23.0718ZM9.02031 13.0017H4.55183C4.95063 9.18281 7.61188 6.03691 11.1714 4.92823C9.97716 6.73391 9.15731 9.65129 9.02031 13.0017ZM10.5216 13.0017C10.6288 10.5424 11.1263 8.39081 11.83 6.84253C12.6891 4.95264 13.5692 4.5 14 4.5C14.4308 4.5 15.3109 4.95264 16.17 6.84253C16.8737 8.39081 17.3712 10.5424 17.4784 13.0017H10.5216ZM10.5054 14.5017H17.4946C17.4367 17.1677 16.9207 19.5058 16.17 21.1575C15.3109 23.0474 14.4308 23.5 14 23.5C13.5692 23.5 12.6891 23.0474 11.83 21.1575C11.0793 19.5058 10.5633 17.1677 10.5054 14.5017Z" fill="#7D8198"/>
</svg>
