<svg width="28" height="28" viewBox="0 0 28 28" fill="none" xmlns="http://www.w3.org/2000/svg">
<path fill-rule="evenodd" clip-rule="evenodd" d="M10.735 7.20474C11.0362 6.92033 11.5109 6.9339 11.7953 7.23503C12.0797 7.53617 12.0661 8.01085 11.765 8.29526L8.63642 11.25H17.25C19.3211 11.25 21 12.9289 21 15V18.2521C21 18.6663 20.6642 19.0021 20.25 19.0021C19.8358 19.0021 19.5 18.6663 19.5 18.2521V15C19.5 13.7574 18.4926 12.75 17.25 12.75H8.63642L11.765 15.7047C12.0661 15.9892 12.0797 16.4638 11.7953 16.765C11.5109 17.0661 11.0362 17.0797 10.735 16.7953L6.23503 12.5453C6.08502 12.4036 6 12.2063 6 12C6 11.7937 6.08502 11.5964 6.23503 11.4547L10.735 7.20474Z" fill="#7D8198"/>
</svg>
