<svg width="28" height="28" viewBox="0 0 28 28" fill="none" xmlns="http://www.w3.org/2000/svg">
<path d="M21.2483 10.5C21.6625 10.5 21.9983 10.1642 21.9983 9.75C21.9983 9.33579 21.6625 9 21.2483 9H18.7526C18.3384 9 18.0026 9.33579 18.0026 9.75C18.0026 10.1642 18.3384 10.5 18.7526 10.5H21.2483Z" fill="#7D8198"/>
<path d="M21.9983 13.75C21.9983 14.1642 21.6625 14.5 21.2483 14.5H18.7526C18.3384 14.5 18.0026 14.1642 18.0026 13.75C18.0026 13.3358 18.3384 13 18.7526 13H21.2483C21.6625 13 21.9983 13.3358 21.9983 13.75Z" fill="#7D8198"/>
<path d="M21.2483 18.5C21.6625 18.5 21.9983 18.1642 21.9983 17.75C21.9983 17.3358 21.6625 17 21.2483 17H18.7526C18.3384 17 18.0026 17.3358 18.0026 17.75C18.0026 18.1642 18.3384 18.5 18.7526 18.5H21.2483Z" fill="#7D8198"/>
<path fill-rule="evenodd" clip-rule="evenodd" d="M3 7.75C3 6.23122 4.23122 5 5.75 5H22.25C23.7688 5 25 6.23122 25 7.75V20.25C25 21.7688 23.7688 23 22.25 23H5.75C4.23122 23 3 21.7688 3 20.25V7.75ZM5.75 6.5C5.05964 6.5 4.5 7.05964 4.5 7.75V20.25C4.5 20.9404 5.05964 21.5 5.75 21.5H15L15 6.5H5.75ZM22.25 21.5H16.5L16.5 6.5H22.25C22.9404 6.5 23.5 7.05964 23.5 7.75V20.25C23.5 20.9404 22.9404 21.5 22.25 21.5Z" fill="#7D8198"/>
</svg>
