<svg width="28" height="28" viewBox="0 0 28 28" fill="none" xmlns="http://www.w3.org/2000/svg">
<path fill-rule="evenodd" clip-rule="evenodd" d="M3 18.25C3 19.7688 4.23122 21 5.75 21L16.25 21C17.7688 21 19 19.7688 19 18.25V17.4635L23.9146 19.9208C24.1471 20.0371 24.4232 20.0246 24.6443 19.888C24.8654 19.7513 25 19.5099 25 19.25V8.75C25 8.48569 24.8609 8.24089 24.6338 8.10564C24.4067 7.97038 24.1252 7.96464 23.8928 8.09053L19 10.7408V9.75C19 8.23122 17.7688 7 16.25 7H5.75C4.23122 7 3 8.23122 3 9.75V18.25ZM19 12.4467V15.7865L23.5 18.0365V10.0092L19 12.4467ZM17.5 9.75C17.5 9.05964 16.9404 8.5 16.25 8.5L5.75 8.5C5.05964 8.5 4.5 9.05964 4.5 9.75L4.5 18.25C4.5 18.9404 5.05964 19.5 5.75 19.5L16.25 19.5C16.9404 19.5 17.5 18.9404 17.5 18.25V9.75Z" fill="#7D8198"/>
</svg>
