<svg width="28" height="28" viewBox="0 0 28 28" fill="none" xmlns="http://www.w3.org/2000/svg">
    <path fill-rule="evenodd" clip-rule="evenodd"
        d="M14.75 7.875C14.75 7.46079 14.4142 7.125 14 7.125C13.5858 7.125 13.25 7.46079 13.25 7.875V13.25H7.875C7.46079 13.25 7.125 13.5858 7.125 14C7.125 14.4142 7.46079 14.75 7.875 14.75H13.25V20.125C13.25 20.5392 13.5858 20.875 14 20.875C14.4142 20.875 14.75 20.5392 14.75 20.125V14.75H20.125C20.5392 14.75 20.875 14.4142 20.875 14C20.875 13.5858 20.5392 13.25 20.125 13.25H14.75V7.875Z"
        fill="#BCBED2" />
</svg>
