<svg width="28" height="28" viewBox="0 0 28 28" fill="none" xmlns="http://www.w3.org/2000/svg">
<path d="M14.0001 10.5001C15.1046 10.5001 16.0001 11.3955 16.0001 12.5001C16 13.6046 15.1046 14.5001 14.0001 14.5001C12.8956 14.5001 12.0002 13.6046 12.0001 12.5001C12.0001 11.3955 12.8955 10.5001 14.0001 10.5001Z" fill="#7D8198"/>
<path fill-rule="evenodd" clip-rule="evenodd" d="M7.29696 5.76963C10.9972 2.07677 17.0277 2.07714 20.7276 5.7706C24.428 9.46506 24.4282 15.4883 20.7032 19.1827L15.4786 24.3985C14.6461 25.1945 13.3111 25.2101 12.4864 24.3868L7.27255 19.1817C3.57204 15.4873 3.57213 9.4642 7.29696 5.76963ZM19.6671 6.83213C16.5524 3.72297 11.4701 3.72294 8.35555 6.83213L8.3536 6.8331C5.21904 9.94139 5.21897 15.012 8.33212 18.1202L13.547 23.3253C13.7727 23.5504 14.1723 23.5674 14.4376 23.3185L19.6466 18.1183C22.7811 15.01 22.7805 9.94021 19.6671 6.83213Z" fill="#7D8198"/>
</svg>
