<svg width="28" height="28" viewBox="0 0 28 28" fill="none" xmlns="http://www.w3.org/2000/svg">
<path d="M10.5 11.558L10.5 16.2473C10.5 16.6616 10.1642 16.9973 9.75004 16.9973C9.33582 16.9973 9.00003 16.6616 9.00003 16.2474L8.99998 9.74734C8.99998 9.54843 9.07899 9.35766 9.21965 9.21701C9.3603 9.07635 9.55107 8.99734 9.74998 8.99734L16.25 8.99735C16.6642 8.99735 17 9.33314 17 9.74736C17 10.1616 16.6642 10.4974 16.25 10.4974L11.5607 10.4973L18.7803 17.717C19.0732 18.0099 19.0732 18.4848 18.7803 18.7776C18.4874 19.0705 18.0126 19.0705 17.7197 18.7776L10.5 11.558Z" fill="#7D8198"/>
<path fill-rule="evenodd" clip-rule="evenodd" d="M25 14C25 20.0751 20.0751 25 14 25C7.92487 25 3 20.0751 3 14C3 7.92487 7.92487 3 14 3C20.0751 3 25 7.92487 25 14ZM14 23.5C19.2467 23.5 23.5 19.2467 23.5 14C23.5 8.75329 19.2467 4.5 14 4.5C8.75329 4.5 4.5 8.75329 4.5 14C4.5 19.2467 8.75329 23.5 14 23.5Z" fill="#7D8198"/>
</svg>
