<svg width="28" height="28" viewBox="0 0 28 28" fill="none" xmlns="http://www.w3.org/2000/svg">
<path fill-rule="evenodd" clip-rule="evenodd" d="M7.5 6.7497C7.5 6.33565 7.16421 6 6.75 6C6.33579 6 6 6.33565 6 6.7497V21.2479C6 21.6619 6.33579 21.9976 6.75 21.9976C7.16421 21.9976 7.5 21.6619 7.5 21.2479V15.6013C7.72753 15.9189 8.03127 16.196 8.41124 16.4057L17.9192 21.6536C19.752 22.6652 21.9985 21.34 21.9985 19.2472V8.75C21.9985 6.65859 19.7548 5.34933 17.9221 6.35809L8.41409 11.5913C8.03282 11.8011 7.72811 12.0789 7.5 12.3972V6.7497ZM20.4985 8.7661C20.4985 7.81546 19.4786 7.21302 18.6456 7.67155L9.1376 12.9047C8.2754 13.3793 8.27467 14.6176 9.1363 15.0931L18.6443 20.341C19.4774 20.8008 20.4985 20.1985 20.4985 19.2472V8.7661Z" fill="#7D8198"/>
</svg>
