<svg width="28" height="28" viewBox="0 0 28 28" fill="none" xmlns="http://www.w3.org/2000/svg">
<path d="M14 9C14.4142 9 14.75 9.33579 14.75 9.75V13.25H18.25C18.6642 13.25 19 13.5858 19 14C19 14.4142 18.6642 14.75 18.25 14.75H14.75V18.25C14.75 18.6642 14.4142 19 14 19C13.5858 19 13.25 18.6642 13.25 18.25V14.75H9.75C9.33579 14.75 9 14.4142 9 14C9 13.5858 9.33579 13.25 9.75 13.25H13.25V9.75C13.25 9.33579 13.5858 9 14 9Z" fill="#7D8198"/>
<path fill-rule="evenodd" clip-rule="evenodd" d="M14 3C20.0751 3 25 7.92487 25 14C25 20.0751 20.0751 25 14 25C7.92487 25 3 20.0751 3 14C3 7.92487 7.92487 3 14 3ZM23.5 14C23.5 8.75329 19.2467 4.5 14 4.5C8.75329 4.5 4.5 8.75329 4.5 14C4.5 19.2467 8.7533 23.5 14 23.5C19.2467 23.5 23.5 19.2467 23.5 14Z" fill="#7D8198"/>
</svg>
