<svg width="28" height="28" viewBox="0 0 28 28" fill="none" xmlns="http://www.w3.org/2000/svg">
<path d="M12.5898 11.7899C12.5122 11.9243 12.467 12.075 12.4576 12.2299L12.3226 14.472C12.2973 14.8931 12.7727 15.1544 13.1146 14.9073L14.8965 13.6197C15.0108 13.537 15.1064 13.4312 15.1769 13.309L19.8122 5.25186C20.2264 4.53434 19.9806 3.61687 19.2632 3.20266C18.5458 2.78844 17.6283 3.03432 17.2141 3.75185L12.5898 11.7899Z" fill="#7D8198"/>
<path d="M12.997 6.75034C12.9933 7.16354 12.6536 7.49849 12.2383 7.49847C8.42296 7.49827 5.65133 10.0608 4.81414 13.0114C3.88591 16.2828 5.14365 18.8544 7.39958 20.6655C9.68899 22.5035 13.3634 23.505 16.2518 23.5051C16.6671 23.5052 17.0007 23.8401 16.997 24.2533C16.9933 24.6665 16.6653 25.0015 16.25 25.0015C13.0636 25.0013 9.03509 23.9096 6.44876 21.8333C3.82895 19.7301 2.24274 16.579 3.36694 12.6168C4.37764 9.05468 7.71867 6.00191 12.2518 6.00214C12.6671 6.00216 13.0008 6.33714 12.997 6.75034Z" fill="#7D8198"/>
<path d="M20.1587 9.30771C20.4062 8.97466 20.8798 8.89926 21.2167 9.13931C23.3617 10.668 24.546 12.3428 24.8885 13.9713C25.2293 15.5916 24.777 17.0753 23.9637 18.1926C22.811 19.9959 20.5451 20.8248 18.2566 20.965C15.9342 21.1073 13.3181 20.5535 11.3682 19.3767C11.0135 19.1626 10.9053 18.7051 11.1264 18.3548C11.3476 18.0044 11.8144 17.894 12.169 18.108C13.8263 19.1082 16.1277 19.6067 18.1761 19.4812C20.2487 19.3542 21.9223 18.6171 22.6938 17.3948L22.708 17.3723L22.7238 17.3508C23.3273 16.5298 23.6531 15.4588 23.4062 14.2848C23.1588 13.1088 22.2523 11.7221 20.3205 10.3454C19.9837 10.1053 19.9113 9.64075 20.1587 9.30771Z" fill="#7D8198"/>
</svg>
