<svg width="28" height="28" viewBox="0 0 28 28" fill="none" xmlns="http://www.w3.org/2000/svg">
<path d="M20 16.75C20 16.3358 19.6642 16 19.25 16L8.75 16C8.33579 16 8 16.3358 8 16.75L8 19.25C8 19.6642 8.33579 20 8.75 20L19.25 20C19.6642 20 20 19.6642 20 19.25V16.75Z" fill="#7D8198"/>
<path d="M13.25 12.3402V7.75C13.25 7.33579 13.5858 7 14 7C14.4142 7 14.75 7.33579 14.75 7.75V12.34L16.7004 10.2396C16.9823 9.93612 17.4568 9.91856 17.7603 10.2004C18.0639 10.4823 18.0814 10.9568 17.7996 11.2604L14.5494 14.7604C14.4075 14.9132 14.2084 15 13.9998 15C13.7913 15 13.5921 14.9132 13.4502 14.7603L10.2004 11.2603C9.91854 10.9568 9.93613 10.4822 10.2397 10.2004C10.5432 9.91855 11.0178 9.93613 11.2996 10.2397L13.25 12.3402Z" fill="#7D8198"/>
<path fill-rule="evenodd" clip-rule="evenodd" d="M4 6.75C4 5.23122 5.23122 4 6.75 4H21.25C22.7688 4 24 5.23122 24 6.75V21.25C24 22.7688 22.7688 24 21.25 24H6.75C5.23122 24 4 22.7688 4 21.25V6.75ZM6.75 5.5C6.05964 5.5 5.5 6.05964 5.5 6.75V21.25C5.5 21.9404 6.05964 22.5 6.75 22.5H21.25C21.9404 22.5 22.5 21.9404 22.5 21.25V6.75C22.5 6.05964 21.9404 5.5 21.25 5.5H6.75Z" fill="#7D8198"/>
</svg>
