<svg width="28" height="28" viewBox="0 0 28 28" fill="none" xmlns="http://www.w3.org/2000/svg">
<path fill-rule="evenodd" clip-rule="evenodd" d="M14 6.5C11.5446 6.5 9.50115 8.2707 9.07974 10.605C9.02284 10.9202 8.77209 11.1644 8.45554 11.2131C6.24393 11.5528 4.5 13.4661 4.5 15.8302C4.5 18.4092 6.59075 20.5 9.16981 20.5H19.5291C21.7222 20.5 23.5 18.7221 23.5 16.529C23.5 14.5421 22.0314 12.861 20.0624 12.5941L19.6419 12.5371C19.2557 12.4847 18.974 12.1454 18.9936 11.7562C18.9978 11.6714 19 11.586 19 11.5C19 8.73858 16.7614 6.5 14 6.5ZM7.71631 9.83153C8.45315 7.05008 10.9865 5 14 5C17.4701 5 20.3051 7.71926 20.4904 11.1432C23.0885 11.6056 25 13.8682 25 16.529C25 19.5506 22.5506 22 19.5291 22H9.16981C5.76232 22 3 19.2377 3 15.8302C3 12.8878 5.04219 10.4797 7.71631 9.83153Z" fill="#7D8198"/>
</svg>
