<svg width="28" height="28" viewBox="0 0 28 28" fill="none" xmlns="http://www.w3.org/2000/svg">
<path d="M3.21924 4.28141L23.7201 24.7807C24.013 25.0736 24.4877 25.0734 24.7804 24.7803C25.0731 24.4872 25.0729 24.0122 24.78 23.7193L4.27918 3.22004C3.98628 2.92716 3.51156 2.92733 3.21886 3.22042C2.92617 3.51351 2.92634 3.98853 3.21924 4.28141Z" fill="#7D8198"/>
<path d="M24.0725 15.6504C23.4262 16.3483 22.4888 17.2707 21.3338 18.1522L20.2627 17.0812C21.4009 16.2332 22.3324 15.3218 22.972 14.6312C23.311 14.2651 23.311 13.7349 22.972 13.3688C22.1622 12.4944 20.8842 11.2659 19.3115 10.2603C17.7351 9.25233 15.9124 8.49999 13.9979 8.49999C13.3023 8.49999 12.6189 8.5993 11.955 8.77409L10.7546 7.57383C11.7719 7.21958 12.8607 6.99999 13.9979 6.99999C16.3011 6.99999 18.4056 7.90068 20.1195 8.99654C21.8371 10.0948 23.2125 11.4209 24.0725 12.3496C24.9442 13.2908 24.9442 14.7092 24.0725 15.6504Z" fill="#7D8198"/>
<path d="M6.66347 9.84669L7.73453 10.9177C6.59574 11.766 5.66367 12.6779 5.02385 13.3688C4.68478 13.7349 4.68478 14.2651 5.02385 14.6312C5.83366 15.5056 7.11164 16.7341 8.68435 17.7397C10.2608 18.7476 12.0834 19.5 13.9979 19.5C14.6942 19.5 15.3783 19.4005 16.0428 19.2254L17.2431 20.4255C16.2253 20.7801 15.1358 21 13.9979 21C11.6947 21 9.59018 20.0993 7.8763 19.0034C6.15872 17.9052 4.78335 16.5791 3.92331 15.6504C3.05163 14.7092 3.05163 13.2908 3.9233 12.3496C4.56992 11.6513 5.50783 10.7285 6.66347 9.84669Z" fill="#7D8198"/>
<path d="M14 18C14.2555 18 14.5054 17.976 14.7476 17.9302L10.0697 13.2527C10.024 13.4948 10 13.7446 10 14C10 16.2091 11.7909 18 14 18Z" fill="#7D8198"/>
<path d="M13.251 10.07L17.9301 14.7487C17.976 14.5062 18 14.2559 18 14C18 11.7908 16.2092 9.99999 14 9.99999C13.744 9.99999 13.4936 10.024 13.251 10.07Z" fill="#7D8198"/>
</svg>
