<svg width="28" height="28" viewBox="0 0 28 28" fill="none" xmlns="http://www.w3.org/2000/svg">
<path fill-rule="evenodd" clip-rule="evenodd" d="M20.4985 6.7497C20.4985 6.33565 20.8343 6 21.2485 6C21.6627 6 21.9985 6.33565 21.9985 6.7497V21.2479C21.9985 21.6619 21.6627 21.9976 21.2485 21.9976C20.8343 21.9976 20.4985 21.6619 20.4985 21.2479V15.6013C20.2709 15.9189 19.9672 16.196 19.5872 16.4057L10.0793 21.6536C8.24644 22.6652 6 21.34 6 19.2472V8.75C6 6.65859 8.24365 5.34933 10.0764 6.35809L19.5844 11.5913C19.9657 11.8011 20.2704 12.0789 20.4985 12.3972V6.7497ZM7.5 8.75C7.5 7.79936 8.51984 7.21302 9.35292 7.67155L18.8609 12.9047C19.7231 13.3793 19.7238 14.6176 18.8622 15.0931L9.35422 20.341C8.52111 20.8008 7.5 20.1985 7.5 19.2472V8.75Z" fill="#7D8198"/>
</svg>
