<svg width="28" height="28" viewBox="0 0 28 28" fill="none" xmlns="http://www.w3.org/2000/svg">
<path d="M20 15.1242C20 12.9868 18.2671 11.2539 16.1297 11.2539H10.657L12.7605 9.29943C13.064 9.01748 13.0814 8.54293 12.7994 8.23949C12.5175 7.93604 12.0429 7.91862 11.7395 8.20057L8.23762 11.4544C8.08479 11.5964 7.99801 11.7956 7.99813 12.0043C7.99825 12.2129 8.08526 12.412 8.23826 12.5539L11.7401 15.8C12.0439 16.0816 12.5184 16.0636 12.8 15.7599C13.0816 15.4561 13.0636 14.9816 12.7599 14.7L10.6605 12.7539H16.1297C17.4387 12.7539 18.5 13.8152 18.5 15.1242C18.5 16.3133 17.6718 17.3167 16.6106 17.5169C16.2036 17.5937 15.9359 17.9859 16.0127 18.393C16.0895 18.8 16.4817 19.0677 16.8888 18.9909C18.7054 18.6481 20 16.9858 20 15.1242Z" fill="#7D8198"/>
<path fill-rule="evenodd" clip-rule="evenodd" d="M25 14C25 20.0751 20.0751 25 14 25C7.92487 25 3 20.0751 3 14C3 7.92487 7.92487 3 14 3C20.0751 3 25 7.92487 25 14ZM14 23.5C19.2467 23.5 23.5 19.2467 23.5 14C23.5 8.75329 19.2467 4.5 14 4.5C8.75329 4.5 4.5 8.75329 4.5 14C4.5 19.2467 8.75329 23.5 14 23.5Z" fill="#7D8198"/>
</svg>
