<svg width="28" height="28" viewBox="0 0 28 28" fill="none" xmlns="http://www.w3.org/2000/svg">
<path d="M14 7C14.5523 7 15 6.55228 15 6C15 5.44772 14.5523 5 14 5C13.4477 5 13 5.44772 13 6C13 6.55228 13.4477 7 14 7Z" fill="#7D8198"/>
<path fill-rule="evenodd" clip-rule="evenodd" d="M14 23C17.866 23 21 19.866 21 16C21 12.134 17.866 9 14 9C10.134 9 7 12.134 7 16C7 19.866 10.134 23 14 23ZM14 21.5C17.0376 21.5 19.5 19.0376 19.5 16C19.5 12.9624 17.0376 10.5 14 10.5C10.9624 10.5 8.5 12.9624 8.5 16C8.5 17.4948 9.09635 18.8504 10.0641 19.8417L13.6613 15.2853C13.918 14.9602 14.3896 14.9047 14.7147 15.1613C15.0398 15.418 15.0953 15.8896 14.8387 16.2147L11.2479 20.763C12.0574 21.2317 12.9974 21.5 14 21.5Z" fill="#7D8198"/>
<path d="M7 22C7 22.5523 6.55228 23 6 23C5.44772 23 5 22.5523 5 22C5 21.4477 5.44772 21 6 21C6.55228 21 7 21.4477 7 22Z" fill="#7D8198"/>
<path d="M4 16C4.55228 16 5 15.5523 5 15C5 14.4477 4.55228 14 4 14C3.44772 14 3 14.4477 3 15C3 15.5523 3.44772 16 4 16Z" fill="#7D8198"/>
<path d="M25 15C25 15.5523 24.5523 16 24 16C23.4477 16 23 15.5523 23 15C23 14.4477 23.4477 14 24 14C24.5523 14 25 14.4477 25 15Z" fill="#7D8198"/>
<path d="M22 10C22.5523 10 23 9.55228 23 9C23 8.44772 22.5523 8 22 8C21.4477 8 21 8.44772 21 9C21 9.55228 21.4477 10 22 10Z" fill="#7D8198"/>
<path d="M8 9C8 9.55228 7.55228 10 7 10C6.44772 10 6 9.55228 6 9C6 8.44772 6.44772 8 7 8C7.55228 8 8 8.44772 8 9Z" fill="#7D8198"/>
<path d="M22 23C22.5523 23 23 22.5523 23 22C23 21.4477 22.5523 21 22 21C21.4477 21 21 21.4477 21 22C21 22.5523 21.4477 23 22 23Z" fill="#7D8198"/>
</svg>
