<svg width="28" height="28" viewBox="0 0 28 28" fill="none" xmlns="http://www.w3.org/2000/svg">
<path d="M13.0838 3.59662C13.4333 2.79771 14.5666 2.79771 14.9161 3.59662L17.7241 10.0149C18.4081 10.1046 18.9849 10.5922 19.1783 11.2692L21.9711 21.044C22.0849 21.4423 21.8542 21.8574 21.456 21.9712C21.0577 22.085 20.6426 21.8544 20.5288 21.4561L17.736 11.6813C17.7054 11.574 17.6073 11.5 17.4956 11.5H10.5043C10.3926 11.5 10.2945 11.574 10.2639 11.6813L7.47109 21.4561C7.3573 21.8544 6.94219 22.085 6.54391 21.9712C6.14563 21.8574 5.91501 21.4423 6.02881 21.044L8.82158 11.2692C9.01502 10.5922 9.59181 10.1046 10.2758 10.0149L13.0838 3.59662Z" fill="#7D8198"/>
</svg>
