<svg width="28" height="28" viewBox="0 0 28 28" fill="none" xmlns="http://www.w3.org/2000/svg">
<path d="M6.99976 4.75C6.99976 4.33579 7.33554 4 7.74976 4H20.2502C20.6644 4 21.0002 4.33579 21.0002 4.75C21.0002 5.16421 20.6644 5.5 20.2502 5.5H7.74976C7.33554 5.5 6.99976 5.16421 6.99976 4.75Z" fill="#7D8198"/>
<path d="M4 9.75C4 8.23122 5.23122 7 6.75 7H21.25C22.7688 7 24 8.23122 24 9.75V12.25C24 12.6642 23.6642 13 23.25 13C22.8358 13 22.5 12.6642 22.5 12.25V9.75C22.5 9.05964 21.9404 8.5 21.25 8.5H6.75C6.05964 8.5 5.5 9.05964 5.5 9.75V20.25C5.5 20.9404 6.05964 21.5 6.75 21.5H12.25C12.6642 21.5 13 21.8358 13 22.25C13 22.6642 12.6642 23 12.25 23H6.75C5.23122 23 4 21.7688 4 20.25V9.75Z" fill="#7D8198"/>
<path fill-rule="evenodd" clip-rule="evenodd" d="M20.5 26C23.5376 26 26 23.5376 26 20.5C26 17.4624 23.5376 15 20.5 15C17.4624 15 15 17.4624 15 20.5C15 23.5376 17.4624 26 20.5 26ZM19.75 17.5C20.1642 17.5 20.5 17.8358 20.5 18.25V20.4966H22.75C23.1642 20.4966 23.5 20.8324 23.5 21.2466C23.5 21.6609 23.1642 21.9966 22.75 21.9966H19.75C19.3358 21.9966 19 21.6609 19 21.2466V18.25C19 17.8358 19.3358 17.5 19.75 17.5Z" fill="#7D8198"/>
</svg>
