<svg width="28" height="28" viewBox="0 0 28 28" fill="none" xmlns="http://www.w3.org/2000/svg">
<path d="M11 8.74993C11 8.33572 10.6641 7.99996 10.2499 8L9.01965 8.00011C5.70547 8.00014 3 10.6781 3 13.9997C3 17.3213 5.70542 20 9.01971 20L10.2499 20.0001C10.6641 20.0001 11 19.6644 11 19.2502C11 18.836 10.6643 18.5001 10.2501 18.5001L9.01971 18.5C6.52658 18.5 4.5 16.4857 4.5 13.9997C4.5 11.514 6.52708 9.50011 9.02033 9.50011L10.2501 9.5C10.6643 9.49996 11 9.16414 11 8.74993Z" fill="#7D8198"/>
<path d="M17 8.75C17 8.33579 17.3358 8 17.75 8H18.9909C22.3075 8 24.9982 10.6803 24.9982 13.9996C24.9982 17.3188 22.3076 20 18.9909 20H17.75C17.3358 20 17 19.6642 17 19.25C17 18.8358 17.3358 18.5 17.75 18.5H18.9909C21.4817 18.5 23.4982 16.4879 23.4982 13.9996C23.4982 11.5115 21.4819 9.5 18.9909 9.5H17.75C17.3358 9.5 17 9.16421 17 8.75Z" fill="#7D8198"/>
<path d="M9 13.75C9 13.3358 9.33579 13 9.75 13L18.25 13C18.6642 13 19 13.3358 19 13.75C19 14.1642 18.6642 14.5 18.25 14.5L9.75 14.5C9.33579 14.5 9 14.1642 9 13.75Z" fill="#7D8198"/>
</svg>
