<svg width="28" height="28" viewBox="0 0 28 28" fill="none" xmlns="http://www.w3.org/2000/svg">
<path fill-rule="evenodd" clip-rule="evenodd" d="M5.75 4C4.7835 4 4 4.7835 4 5.75V11.25C4 12.2165 4.7835 13 5.75 13H11.25C12.2165 13 13 12.2165 13 11.25V5.75C13 4.7835 12.2165 4 11.25 4H5.75ZM5.5 5.75C5.5 5.61193 5.61193 5.5 5.75 5.5H11.25C11.3881 5.5 11.5 5.61193 11.5 5.75V11.25C11.5 11.3881 11.3881 11.5 11.25 11.5H5.75C5.61193 11.5 5.5 11.3881 5.5 11.25V5.75Z" fill="#7D8198"/>
<path fill-rule="evenodd" clip-rule="evenodd" d="M16.75 4C15.7835 4 15 4.7835 15 5.75V11.25C15 12.2165 15.7835 13 16.75 13H22.25C23.2165 13 24 12.2165 24 11.25V5.75C24 4.7835 23.2165 4 22.25 4H16.75ZM16.5 5.75C16.5 5.61193 16.6119 5.5 16.75 5.5H22.25C22.3881 5.5 22.5 5.61193 22.5 5.75V11.25C22.5 11.3881 22.3881 11.5 22.25 11.5H16.75C16.6119 11.5 16.5 11.3881 16.5 11.25V5.75Z" fill="#7D8198"/>
<path fill-rule="evenodd" clip-rule="evenodd" d="M15 16.75C15 15.7835 15.7835 15 16.75 15H22.25C23.2165 15 24 15.7835 24 16.75V22.25C24 23.2165 23.2165 24 22.25 24H16.75C15.7835 24 15 23.2165 15 22.25V16.75ZM16.75 16.5C16.6119 16.5 16.5 16.6119 16.5 16.75V22.25C16.5 22.3881 16.6119 22.5 16.75 22.5H22.25C22.3881 22.5 22.5 22.3881 22.5 22.25V16.75C22.5 16.6119 22.3881 16.5 22.25 16.5H16.75Z" fill="#7D8198"/>
<path fill-rule="evenodd" clip-rule="evenodd" d="M5.75 15C4.7835 15 4 15.7835 4 16.75V22.25C4 23.2165 4.7835 24 5.75 24H11.25C12.2165 24 13 23.2165 13 22.25V16.75C13 15.7835 12.2165 15 11.25 15H5.75ZM5.5 16.75C5.5 16.6119 5.61193 16.5 5.75 16.5H11.25C11.3881 16.5 11.5 16.6119 11.5 16.75V22.25C11.5 22.3881 11.3881 22.5 11.25 22.5H5.75C5.61193 22.5 5.5 22.3881 5.5 22.25V16.75Z" fill="#7D8198"/>
</svg>
