<svg width="28" height="28" viewBox="0 0 28 28" fill="none" xmlns="http://www.w3.org/2000/svg">
<path d="M17.0066 4.98146C16.0879 4.67269 14.9691 4.5 14 4.5C8.75329 4.5 4.5 8.75329 4.5 14C4.5 19.2467 8.75329 23.5 14 23.5C14.9688 23.5 15.9233 23.3672 17.0147 23.0132C17.4087 22.8853 17.8317 23.1011 17.9595 23.4951C18.0873 23.8891 17.8715 24.3121 17.4775 24.44C16.2329 24.8437 15.1219 25 14 25C7.92487 25 3 20.0751 3 14C3 7.92487 7.92487 3 14 3C15.1216 3 16.4026 3.19599 17.4845 3.55962C17.8771 3.69158 18.0884 4.11685 17.9564 4.50948C17.8245 4.90211 17.3992 5.11342 17.0066 4.98146Z" fill="#7D8198"/>
<path d="M25 14.001C25 13.7946 24.915 13.5974 24.765 13.4557L20.265 9.20567C19.9638 8.92126 19.4892 8.93482 19.2048 9.23596C18.9204 9.5371 18.9339 10.0118 19.2351 10.2962L22.3626 13.25L11.75 13.25C11.3358 13.25 11 13.5858 11 14C11 14.4142 11.3358 14.75 11.75 14.75L22.3643 14.75L19.2351 17.7047C18.9339 17.9891 18.9203 18.4637 19.2047 18.7649C19.4891 19.0661 19.9638 19.0797 20.2649 18.7953L24.7649 14.5462C24.915 14.4046 25 14.2073 25 14.001Z" fill="#7D8198"/>
</svg>
