<svg width="28" height="28" viewBox="0 0 28 28" fill="none" xmlns="http://www.w3.org/2000/svg">
<path fill-rule="evenodd" clip-rule="evenodd" d="M12.3629 3.12307C13.951 2.88296 15.5721 2.9951 17.1123 3.45157C18.6525 3.90804 20.0744 4.69772 21.2781 5.76491C22.4819 6.8321 23.4384 8.15091 24.0807 9.62862C24.723 11.1063 25.0356 12.7072 24.9968 14.319C24.9868 14.7331 24.643 15.0607 24.2289 15.0507C23.8148 15.0407 23.4872 14.697 23.4972 14.2829C23.5308 12.8888 23.2604 11.5042 22.705 10.2266C22.1497 8.94891 21.3229 7.80921 20.2831 6.88733C19.2432 5.96547 18.0155 5.28373 16.6861 4.88974C15.3567 4.49575 13.9577 4.399 12.5872 4.60621C11.2167 4.81343 9.90778 5.31964 8.75226 6.08952C7.59673 6.8594 6.62256 7.87436 5.89838 9.06334C5.17419 10.2523 4.7176 11.5864 4.56086 12.972C4.40411 14.3576 4.55105 15.7608 4.99127 17.0831C5.12211 17.4761 4.90958 17.9008 4.51658 18.0316C4.12357 18.1625 3.69891 17.95 3.56807 17.557C3.059 16.0278 2.88914 14.4054 3.07036 12.8034C3.25159 11.2014 3.77952 9.65855 4.6173 8.28306C5.45509 6.90756 6.58248 5.73272 7.92056 4.84121C9.25865 3.94969 10.7749 3.36318 12.3629 3.12307ZM13.9708 6.26635C15.2344 6.26157 16.4798 6.56721 17.5986 7.15647C17.9651 7.34949 18.1058 7.80306 17.9127 8.16955C17.7197 8.53605 17.2662 8.67668 16.8997 8.48366C15.9978 8.00866 14.9943 7.76249 13.9765 7.76634C12.9587 7.7702 11.957 8.02397 11.0587 8.50578C10.1604 8.98761 9.39242 9.68299 8.82194 10.5317C8.25144 11.3805 7.89579 12.3568 7.78623 13.3757C7.74194 13.7875 7.37218 14.0855 6.96034 14.0412C6.5485 13.9969 6.25054 13.6272 6.29482 13.2153C6.43039 11.9547 6.87046 10.7461 7.57702 9.69495C8.2836 8.64374 9.23536 7.78161 10.3497 7.18391C11.4641 6.5862 12.7072 6.27114 13.9708 6.26635ZM18.9965 9.22574C19.3036 8.94771 19.7779 8.97122 20.0559 9.27825C20.702 9.99172 21.1306 10.9851 21.422 12.0407C21.7166 13.1081 21.889 14.3063 21.9807 15.4894C22.1638 17.853 22.0312 20.2416 21.8527 21.5783C21.7979 21.9889 21.4207 22.2773 21.0101 22.2225C20.5995 22.1677 20.3111 21.7904 20.3659 21.3799C20.5313 20.1412 20.6597 17.8581 20.4851 15.6053C20.398 14.4802 20.2367 13.3841 19.9761 12.4399C19.7122 11.4839 19.3637 10.7486 18.944 10.2851C18.666 9.97807 18.6895 9.50378 18.9965 9.22574ZM13.9942 9.65391C14.9584 9.65263 15.8949 9.97525 16.6549 10.5698C17.4149 11.1643 17.9548 11.9965 18.1895 12.9337C18.7971 15.3588 19.1108 19.8923 17.4507 24.2433C17.303 24.6303 16.8696 24.8243 16.4826 24.6766C16.0956 24.529 15.9016 24.0956 16.0492 23.7086C17.5766 19.7054 17.2848 15.495 16.7345 13.2982C16.5806 12.6838 16.227 12.1395 15.7307 11.7513C15.2345 11.3631 14.624 11.1531 13.9962 11.1539C13.3684 11.1547 12.7584 11.3664 12.2633 11.7559C11.768 12.1454 11.4158 12.6907 11.2635 13.3054C11.1649 13.7036 11.1924 14.2775 11.2797 14.9718C11.2978 15.1158 11.3165 15.2616 11.3355 15.4088C11.5001 16.6878 11.6788 18.0767 11.5693 19.3994C11.444 20.9127 10.9404 22.3965 9.61627 23.6459C9.31501 23.9302 8.84033 23.9165 8.55605 23.6152C8.27177 23.3139 8.28553 22.8393 8.58679 22.555C9.57821 21.6194 9.9716 20.5176 10.0744 19.2756C10.17 18.1212 10.0133 16.8958 9.84614 15.5895C9.8279 15.4469 9.80954 15.3034 9.79137 15.1589C9.70475 14.47 9.63456 13.6429 9.80752 12.9447C10.0398 12.007 10.5775 11.1734 11.3359 10.5768C12.0944 9.98027 13.0301 9.65518 13.9942 9.65391ZM13.3827 13.1462C13.7438 12.9434 14.201 13.0717 14.4039 13.4329C15.269 14.973 15.2581 16.867 15.251 18.0978C15.2506 18.1776 15.2502 18.2546 15.25 18.3285C15.2489 18.7427 14.9123 19.0777 14.4981 19.0766C14.0839 19.0756 13.7489 18.739 13.75 18.3248C13.7501 18.2761 13.7502 18.227 13.7504 18.1777C13.7547 16.8719 13.7596 15.3488 13.0961 14.1674C12.8932 13.8063 13.0215 13.3491 13.3827 13.1462ZM7.12481 15.573C7.53334 15.5046 7.91998 15.7803 7.98841 16.1888L7.99795 16.2458C8.11019 16.9154 8.26336 17.8293 8.18285 18.7432C8.09894 19.696 7.75681 20.7064 6.83096 21.4884C6.51451 21.7557 6.04131 21.7158 5.77404 21.3994C5.50676 21.0829 5.54662 20.6097 5.86307 20.3425C6.40261 19.8868 6.62845 19.2949 6.68864 18.6116C6.75096 17.9041 6.63062 17.1625 6.51321 16.4616L6.50902 16.4366C6.44059 16.0281 6.71629 15.6414 7.12481 15.573ZM14.4106 20.8564C14.8152 20.9452 15.0713 21.3451 14.9826 21.7497C14.8579 22.3178 14.5067 22.9497 14.1643 23.462C13.8127 23.9883 13.4034 24.4868 13.0811 24.7934C12.7809 25.0789 12.3062 25.067 12.0207 24.7669C11.7353 24.4668 11.7471 23.992 12.0473 23.7066C12.2682 23.4964 12.6084 23.0907 12.9171 22.6287C13.2351 22.1528 13.455 21.7126 13.5174 21.4283C13.6061 21.0237 14.006 20.7677 14.4106 20.8564Z" fill="#7D8198"/>
</svg>
