<svg width="28" height="28" viewBox="0 0 28 28" fill="none" xmlns="http://www.w3.org/2000/svg">
<path d="M11 18.25C11 18.6642 11.3358 19 11.75 19H16.25C16.6642 19 17 18.6642 17 18.25C17 17.8358 16.6642 17.5 16.25 17.5L11.75 17.5C11.3358 17.5 11 17.8358 11 18.25Z" fill="#7D8198"/>
<path d="M9 14.25C9 13.8358 9.33579 13.5 9.75 13.5H18.25C18.6642 13.5 19 13.8358 19 14.25C19 14.6642 18.6642 15 18.25 15H9.75C9.33579 15 9 14.6642 9 14.25Z" fill="#7D8198"/>
<path d="M8.75 9.5C8.33579 9.5 8 9.83579 8 10.25C8 10.6642 8.33579 11 8.75 11H19.25C19.6642 11 20 10.6642 20 10.25C20 9.83579 19.6642 9.5 19.25 9.5H8.75Z" fill="#7D8198"/>
<path fill-rule="evenodd" clip-rule="evenodd" d="M14 25C20.0751 25 25 20.0751 25 14C25 7.92487 20.0751 3 14 3C7.92487 3 3 7.92487 3 14C3 20.0751 7.92487 25 14 25ZM23.5 14C23.5 19.2467 19.2467 23.5 14 23.5C8.75329 23.5 4.5 19.2467 4.5 14C4.5 8.75329 8.75329 4.5 14 4.5C19.2467 4.5 23.5 8.75329 23.5 14Z" fill="#7D8198"/>
</svg>
