<svg width="28" height="28" viewBox="0 0 28 28" fill="none" xmlns="http://www.w3.org/2000/svg">
<path d="M11.75 7C11.3358 7 11 7.33579 11 7.75C11 8.16421 11.3358 8.5 11.75 8.5H18.4393L13.2197 13.7197C12.9268 14.0126 12.9268 14.4874 13.2197 14.7803C13.5126 15.0732 13.9874 15.0732 14.2803 14.7803L19.5 9.56063V16.25C19.5 16.6642 19.8358 17 20.25 17C20.6642 17 21 16.6642 21 16.25V7.75C21 7.55109 20.921 7.36032 20.7804 7.21967C20.6397 7.07902 20.4489 7 20.25 7H11.75Z" fill="#7D8198"/>
<path d="M12 17C12 17.5523 11.5523 18 11 18C10.4477 18 10 17.5523 10 17C10 16.4477 10.4477 16 11 16C11.5523 16 12 16.4477 12 17Z" fill="#7D8198"/>
<path d="M8 21.0032C8.55228 21.0032 9 20.5555 9 20.0032C9 19.4509 8.55228 19.0032 8 19.0032C7.44772 19.0032 7 19.4509 7 20.0032C7 20.5555 7.44772 21.0032 8 21.0032Z" fill="#7D8198"/>
</svg>
