<svg width="28" height="28" viewBox="0 0 28 28" fill="none" xmlns="http://www.w3.org/2000/svg">
<path d="M3 5.75C3 4.23122 4.23122 3 5.75 3H17.25C18.7688 3 20 4.23122 20 5.75V8H22.25C23.7688 8 25 9.23122 25 10.75V22.25C25 23.7688 23.7688 25 22.25 25H14.75C14.3358 25 14 24.6642 14 24.25C14 23.8358 14.3358 23.5 14.75 23.5H22.25C22.9404 23.5 23.5 22.9404 23.5 22.25V10.75C23.5 10.0596 22.9404 9.5 22.25 9.5H10.75C10.0596 9.5 9.5 10.0596 9.5 10.75V14.25C9.5 14.6642 9.16421 15 8.75 15C8.33579 15 8 14.6642 8 14.25V10.75C8 9.23122 9.23122 8 10.75 8H18.5V5.75C18.5 5.05964 17.9404 4.5 17.25 4.5H5.75C5.05964 4.5 4.5 5.05964 4.5 5.75V13.25C4.5 13.6642 4.16421 14 3.75 14C3.33579 14 3 13.6642 3 13.25V5.75Z" fill="#7D8198"/>
<path d="M4.5 16.75C4.5 16.3358 4.16421 16 3.75 16C3.33579 16 3 16.3358 3 16.75V19C3 20.5188 4.23122 21.75 5.75 21.75H10.3389L8.2395 23.7006C7.93605 23.9825 7.91862 24.4571 8.20056 24.7605C8.4825 25.064 8.95705 25.0814 9.2605 24.7994L12.7584 21.5494C12.9112 21.4075 12.9979 21.2085 12.9979 21C12.9979 20.7915 12.9112 20.5925 12.7584 20.4506L9.2605 17.2006C8.95705 16.9186 8.4825 16.9361 8.20056 17.2395C7.91862 17.543 7.93605 18.0175 8.2395 18.2994L10.3389 20.25H5.75C5.05964 20.25 4.5 19.6904 4.5 19V16.75Z" fill="#7D8198"/>
</svg>
