<svg width="28" height="28" viewBox="0 0 28 28" fill="none" xmlns="http://www.w3.org/2000/svg">
<path d="M12.0145 20.1031C11.9333 20.5092 12.1967 20.9043 12.6029 20.9856C13.009 21.0668 13.4042 20.8034 13.4854 20.3972L15.9854 7.89723C16.0666 7.49106 15.8032 7.09594 15.397 7.01471C14.9909 6.93347 14.5958 7.19689 14.5145 7.60306L12.0145 20.1031Z" fill="#7D8198"/>
<path d="M25 14.0001C25 14.2065 24.915 14.4037 24.765 14.5454L20.265 18.7954C19.9638 19.0798 19.4892 19.0662 19.2048 18.7651C18.9203 18.4639 18.9339 17.9893 19.235 17.7049L23.1577 14.0001L19.235 10.2954C18.9339 10.011 18.9203 9.53629 19.2048 9.23515C19.4892 8.93401 19.9638 8.92045 20.265 9.20486L24.765 13.4549C24.915 13.5965 25 13.7938 25 14.0001Z" fill="#7D8198"/>
<path d="M3 14.0006C2.99999 13.7943 3.08499 13.5971 3.235 13.4554L7.735 9.20489C8.03612 8.92046 8.5108 8.934 8.79523 9.23512C9.07966 9.53624 9.06612 10.0109 8.765 10.2953L4.8423 14.0005L8.76494 17.7048C9.06609 17.9892 9.07968 18.4639 8.79529 18.7651C8.5109 19.0662 8.03622 19.0798 7.73506 18.7954L3.23506 14.5459C3.08504 14.4042 3.00001 14.207 3 14.0006Z" fill="#7D8198"/>
</svg>
