<svg width="28" height="28" viewBox="0 0 28 28" fill="none" xmlns="http://www.w3.org/2000/svg">
<path fill-rule="evenodd" clip-rule="evenodd" d="M17.1696 5.27051C17.4345 4.95213 17.9074 4.90882 18.2258 5.17377L19.7258 6.42207C19.8969 6.56446 19.9959 6.77551 19.9961 6.99812C19.9962 7.22073 19.8974 7.4319 19.7265 7.57449L18.2265 8.82571C17.9084 9.09104 17.4355 9.04827 17.1701 8.73019C16.9048 8.41211 16.9476 7.93917 17.2657 7.67384L18.0744 6.99923L17.2663 6.32675C16.9479 6.06179 16.9046 5.5889 17.1696 5.27051ZM13.1563 7.78966C12.9443 8.06203 12.9427 8.45436 13.1728 8.73021C13.4381 9.04829 13.9111 9.09106 14.2291 8.82573L15.7291 7.57451C15.9001 7.43192 15.9988 7.22075 15.9987 6.99814C15.9986 6.77553 15.8996 6.56448 15.7285 6.42208L14.2285 5.17379C13.9101 4.90883 13.4372 4.95215 13.1722 5.27053C12.9225 5.57063 12.9466 6.00801 13.2168 6.27914C8.4132 6.64102 5 10.3365 5 15C5 19.901 9.09416 24 13.9961 24C16.6381 24 18.8853 22.8792 20.4665 21.3053C22.0363 19.7425 22.9961 17.6848 22.9961 15.75C22.9961 15.3358 22.6603 15 22.2461 15C21.8319 15 21.4961 15.3358 21.4961 15.75C21.4961 17.2117 20.7525 18.904 19.4082 20.2422C18.0753 21.5691 16.1974 22.5 13.9961 22.5C9.92351 22.5 6.5 19.0735 6.5 15C6.5 11.2011 9.20533 8.16732 13.1563 7.78966Z" fill="#7D8198"/>
</svg>
