<svg width="28" height="28" viewBox="0 0 28 28" fill="none" xmlns="http://www.w3.org/2000/svg">
<path fill-rule="evenodd" clip-rule="evenodd" d="M11.75 7C12.1642 7 12.5 7.33579 12.5 7.75V20.25C12.5 20.6642 12.1642 21 11.75 21C11.3358 21 11 20.6642 11 20.25V7.75C11 7.33579 11.3358 7 11.75 7ZM8.5 12.75C8.5 12.3358 8.16421 12 7.75 12C7.33579 12 7 12.3358 7 12.75V20.25C7 20.6642 7.33579 21 7.75 21C8.16421 21 8.5 20.6642 8.5 20.25V12.75ZM20.5 15.75C20.5 15.3358 20.1642 15 19.75 15C19.3358 15 19 15.3358 19 15.75V20.25C19 20.6642 19.3358 21 19.75 21C20.1642 21 20.5 20.6642 20.5 20.25V15.75ZM16.5 8.75C16.5 8.33579 16.1642 8 15.75 8C15.3358 8 15 8.33579 15 8.75L15 20.25C15 20.6642 15.3358 21 15.75 21C16.1642 21 16.5 20.6642 16.5 20.25L16.5 8.75Z" fill="#7D8198"/>
</svg>
