<svg width="28" height="28" viewBox="0 0 28 28" fill="none" xmlns="http://www.w3.org/2000/svg">
<path d="M19.0001 7.75269C19.0001 8.1669 18.6643 8.50269 18.2501 8.50269H9.75C9.33579 8.50269 9 8.1669 9 7.75269C9 7.33847 9.33579 7.00269 9.75 7.00269H18.2501C18.6643 7.00269 19.0001 7.33847 19.0001 7.75269Z" fill="#7D8198"/>
<path d="M18.2501 12.5C18.6643 12.5 19.0001 12.1642 19.0001 11.75C19.0001 11.3358 18.6643 11 18.2501 11H9.75C9.33579 11 9 11.3358 9 11.75C9 12.1642 9.33579 12.5 9.75 12.5H18.2501Z" fill="#7D8198"/>
<path d="M19.0001 15.75C19.0001 16.1642 18.6643 16.5 18.2501 16.5H9.75C9.33579 16.5 9 16.1642 9 15.75C9 15.3358 9.33579 15 9.75 15H18.2501C18.6643 15 19.0001 15.3358 19.0001 15.75Z" fill="#7D8198"/>
<path d="M18.2501 20.5C18.6643 20.5 19.0001 20.1642 19.0001 19.75C19.0001 19.3358 18.6643 19 18.2501 19H9.75C9.33579 19 9 19.3358 9 19.75C9 20.1642 9.33579 20.5 9.75 20.5H18.2501Z" fill="#7D8198"/>
<path fill-rule="evenodd" clip-rule="evenodd" d="M5 5.74603C5 4.22725 6.23122 2.99603 7.75 2.99603H20.25C21.7688 2.99603 23 4.22725 23 5.74603V22.246C23 23.7648 21.7688 24.996 20.25 24.996H7.75C6.23122 24.996 5 23.7648 5 22.246V5.74603ZM7.75 4.49603C7.05964 4.49603 6.5 5.05568 6.5 5.74603V22.246C6.5 22.9364 7.05964 23.496 7.75 23.496H20.25C20.9404 23.496 21.5 22.9364 21.5 22.246V5.74603C21.5 5.05568 20.9404 4.49603 20.25 4.49603H7.75Z" fill="#7D8198"/>
</svg>
