<svg width="28" height="28" viewBox="0 0 28 28" fill="none" xmlns="http://www.w3.org/2000/svg">
<path fill-rule="evenodd" clip-rule="evenodd" d="M4.5 14C4.5 8.75329 8.75329 4.5 14 4.5C19.2467 4.5 23.5 8.75329 23.5 14C23.5 19.2467 19.2467 23.5 14 23.5C8.75329 23.5 4.5 19.2467 4.5 14ZM14 3C7.92487 3 3 7.92487 3 14C3 20.0751 7.92487 25 14 25C20.0751 25 25 20.0751 25 14C25 7.92487 20.0751 3 14 3ZM12.8758 8C15.0132 8 16.7461 9.73287 16.7461 11.8703V17.343L18.7006 15.2395C18.9825 14.936 19.4571 14.9186 19.7605 15.2006C20.064 15.4825 20.0814 15.9571 19.7994 16.2605L16.5456 19.7624C16.4036 19.9152 16.2044 20.002 15.9957 20.0019C15.7871 20.0017 15.588 19.9147 15.4461 19.7617L12.2 16.2599C11.9184 15.9561 11.9364 15.4816 12.2401 15.2C12.5439 14.9184 13.0184 14.9364 13.3 15.2401L15.2461 17.3395V11.8703C15.2461 10.5613 14.1848 9.5 12.8758 9.5C11.6867 9.5 10.6833 10.3282 10.4831 11.3894C10.4063 11.7964 10.0141 12.0641 9.60702 11.9873C9.19999 11.9105 8.93229 11.5183 9.0091 11.1112C9.3519 9.29462 11.0142 8 12.8758 8Z" fill="#7D8198"/>
</svg>
