<svg width="28" height="28" viewBox="0 0 28 28" fill="none" xmlns="http://www.w3.org/2000/svg">
<path fill-rule="evenodd" clip-rule="evenodd" d="M4 6.74878C4 5.23 5.23122 3.99878 6.75 3.99878H21.25C22.7688 3.99878 24 5.23 24 6.74878V21.2488C24 22.7676 22.7688 23.9988 21.25 23.9988H6.75C5.23122 23.9988 4 22.7676 4 21.2488V6.74878ZM6.75 5.49878C6.05964 5.49878 5.5 6.05842 5.5 6.74878V21.2488C5.5 21.9391 6.05964 22.4988 6.75 22.4988H21.25C21.9404 22.4988 22.5 21.9391 22.5 21.2488V6.74878C22.5 6.05842 21.9404 5.49878 21.25 5.49878H6.75Z" fill="#7D8198"/>
<path d="M10.9955 16.5V11.4978C10.9955 11.1261 11.3865 10.8844 11.719 11.0505L16.7263 13.5526C17.095 13.7368 17.0949 14.263 16.7261 14.4472L11.7189 16.9473C11.3864 17.1133 10.9955 16.8715 10.9955 16.5Z" fill="#7D8198"/>
<path d="M7 7.3C7 7.13431 7.13431 7 7.3 7H8.2C8.36569 7 8.5 7.13431 8.5 7.3V8.2C8.5 8.36569 8.36569 8.5 8.2 8.5H7.3C7.13431 8.5 7 8.36569 7 8.2V7.3Z" fill="#7D8198"/>
<path d="M10 7.3C10 7.13431 10.1343 7 10.3 7H11.2C11.3657 7 11.5 7.13431 11.5 7.3V8.2C11.5 8.36569 11.3657 8.5 11.2 8.5H10.3C10.1343 8.5 10 8.36569 10 8.2V7.3Z" fill="#7D8198"/>
<path d="M13 7.3C13 7.13431 13.1343 7 13.3 7H14.2C14.3657 7 14.5 7.13431 14.5 7.3V8.2C14.5 8.36569 14.3657 8.5 14.2 8.5H13.3C13.1343 8.5 13 8.36569 13 8.2V7.3Z" fill="#7D8198"/>
<path d="M16 7.3C16 7.13431 16.1343 7 16.3 7H17.2C17.3657 7 17.5 7.13431 17.5 7.3V8.2C17.5 8.36569 17.3657 8.5 17.2 8.5H16.3C16.1343 8.5 16 8.36569 16 8.2V7.3Z" fill="#7D8198"/>
<path d="M19 7.3C19 7.13431 19.1343 7 19.3 7H20.2C20.3657 7 20.5 7.13431 20.5 7.3V8.2C20.5 8.36569 20.3657 8.5 20.2 8.5H19.3C19.1343 8.5 19 8.36569 19 8.2V7.3Z" fill="#7D8198"/>
<path d="M7 19.8C7 19.6343 7.13431 19.5 7.3 19.5H8.2C8.36569 19.5 8.5 19.6343 8.5 19.8V20.7C8.5 20.8657 8.36569 21 8.2 21H7.3C7.13431 21 7 20.8657 7 20.7V19.8Z" fill="#7D8198"/>
<path d="M10 19.8C10 19.6343 10.1343 19.5 10.3 19.5H11.2C11.3657 19.5 11.5 19.6343 11.5 19.8V20.7C11.5 20.8657 11.3657 21 11.2 21H10.3C10.1343 21 10 20.8657 10 20.7V19.8Z" fill="#7D8198"/>
<path d="M13 19.8C13 19.6343 13.1343 19.5 13.3 19.5H14.2C14.3657 19.5 14.5 19.6343 14.5 19.8V20.7C14.5 20.8657 14.3657 21 14.2 21H13.3C13.1343 21 13 20.8657 13 20.7V19.8Z" fill="#7D8198"/>
<path d="M16 19.8C16 19.6343 16.1343 19.5 16.3 19.5H17.2C17.3657 19.5 17.5 19.6343 17.5 19.8V20.7C17.5 20.8657 17.3657 21 17.2 21H16.3C16.1343 21 16 20.8657 16 20.7V19.8Z" fill="#7D8198"/>
<path d="M19 19.8C19 19.6343 19.1343 19.5 19.3 19.5H20.2C20.3657 19.5 20.5 19.6343 20.5 19.8V20.7C20.5 20.8657 20.3657 21 20.2 21H19.3C19.1343 21 19 20.8657 19 20.7V19.8Z" fill="#7D8198"/>
</svg>
