<svg width="28" height="28" viewBox="0 0 28 28" fill="none" xmlns="http://www.w3.org/2000/svg">
<path d="M7.50256 3.75C7.50256 3.33579 7.16678 3 6.75256 3C6.33835 3 6.00256 3.33579 6.00256 3.75V9.25C6.00256 10.7688 7.23378 12 8.75256 12H19.25C20.7688 12 22 10.7688 22 9.25V3.75C22 3.33579 21.6642 3 21.25 3C20.8358 3 20.5 3.33579 20.5 3.75V9.25C20.5 9.94036 19.9404 10.5 19.25 10.5H8.75256C8.06221 10.5 7.50256 9.94036 7.50256 9.25V3.75Z" fill="#7D8198"/>
<path fill-rule="evenodd" clip-rule="evenodd" d="M6 16.75C6 15.2312 7.23122 14 8.75 14H14.4216C15.1509 14 15.8504 14.2897 16.3661 14.8055L21.1945 19.6339C21.7103 20.1496 22 20.8491 22 21.5784V24.25C22 24.6642 21.6642 25 21.25 25C20.8358 25 20.5 24.6642 20.5 24.25V22H15.75C14.7835 22 14 21.2165 14 20.25V15.5H8.75C8.05964 15.5 7.5 16.0596 7.5 16.75V24.25C7.5 24.6642 7.16421 25 6.75 25C6.33579 25 6 24.6642 6 24.25V16.75ZM15.5 16.0607L19.9393 20.5H15.75C15.6119 20.5 15.5 20.3881 15.5 20.25V16.0607Z" fill="#7D8198"/>
</svg>
