<svg width="28" height="28" viewBox="0 0 28 28" fill="none" xmlns="http://www.w3.org/2000/svg">
<path fill-rule="evenodd" clip-rule="evenodd" d="M23.7803 4.21969C23.9834 4.42276 24.0527 4.72397 23.9587 4.99535L17.2087 24.4954C17.1055 24.7937 16.8264 24.9955 16.5107 24.9999C16.1949 25.0044 15.9102 24.8107 15.7985 24.5154L12.419 15.5818L3.4846 12.2015C3.18929 12.0898 2.99558 11.8051 3.00008 11.4893C3.00457 11.1736 3.2063 10.8946 3.50467 10.7913L23.0047 4.04128C23.2761 3.94734 23.5773 4.01662 23.7803 4.21969ZM13.8737 15.1878L16.4687 22.0476L21.4745 7.5863L13.8737 15.1878ZM20.4142 6.52529L5.95227 11.5314L12.813 14.1271L20.4142 6.52529Z" fill="#7D8198"/>
</svg>
