<svg width="28" height="28" viewBox="0 0 28 28" fill="none" xmlns="http://www.w3.org/2000/svg">
<path fill-rule="evenodd" clip-rule="evenodd" d="M14 3.00415C14.4142 3.00415 14.75 3.33994 14.75 3.75415V5H18.25C19.2165 5 20 5.7835 20 6.75V11.7513L23.4637 12.7811C23.6832 12.8463 23.8608 13.0082 23.946 13.2207C24.0313 13.4331 24.0149 13.6729 23.9014 13.8717L21.9575 17.2783L21.4821 19.413C21.392 19.8173 20.9913 20.0721 20.587 19.9821C20.1827 19.892 19.9279 19.4913 20.0179 19.087L20.5179 16.8418C20.5342 16.7686 20.5614 16.6982 20.5986 16.6331L22.13 13.9495L14 11.5324L5.87001 13.9495L7.4014 16.6331C7.43857 16.6982 7.46576 16.7686 7.48207 16.8418L7.98207 19.087C8.07211 19.4913 7.81734 19.892 7.41303 19.9821C7.00872 20.0721 6.60797 19.8173 6.51794 19.413L6.04253 17.2783L4.0986 13.8717C3.98514 13.6729 3.9687 13.4331 4.05396 13.2207C4.13922 13.0082 4.31684 12.8463 4.53627 12.7811L8 11.7513V6.75C8 5.7835 8.7835 5 9.75 5H13.25V3.75415C13.25 3.33994 13.5858 3.00415 14 3.00415ZM9.5 6.75C9.5 6.61193 9.61193 6.5 9.75 6.5H18.25C18.3881 6.5 18.5 6.61193 18.5 6.75V11.3054L14.2137 10.0311C14.0743 9.98963 13.9257 9.98963 13.7863 10.0311L9.5 11.3054V6.75Z" fill="#7D8198"/>
<path d="M4.28041 21.2191C3.98756 20.9262 3.51269 20.9261 3.21975 21.219C2.92681 21.5118 2.92674 21.9867 3.21959 22.2796C4.3221 23.3825 5.5654 23.9998 6.9375 23.9998C8.132 23.9998 9.32195 23.5315 10.4972 22.692C11.6478 23.527 12.7901 23.9998 13.9924 23.9998C15.1954 23.9998 16.3422 23.5265 17.5011 22.6908C18.6769 23.5311 19.8674 23.9998 21.0625 23.9998C22.4346 23.9998 23.6779 23.3825 24.7804 22.2796C25.0733 21.9867 25.0732 21.5118 24.7802 21.219C24.4873 20.9261 24.0124 20.9262 23.7196 21.2191C22.8221 22.1169 21.9404 22.4998 21.0625 22.4998C20.167 22.4998 19.1406 22.1017 17.9686 21.1638C17.6947 20.9446 17.3053 20.9446 17.0314 21.1638C15.8509 22.1085 14.883 22.4998 13.9924 22.4998C13.1026 22.4998 12.1404 22.1091 10.9709 21.1657C10.697 20.9447 10.3062 20.9439 10.0314 21.1638C8.85938 22.1017 7.83301 22.4998 6.9375 22.4998C6.0596 22.4998 5.1779 22.1169 4.28041 21.2191Z" fill="#7D8198"/>
</svg>
