<svg width="28" height="28" viewBox="0 0 28 28" fill="none" xmlns="http://www.w3.org/2000/svg">
<path d="M9.07838 8.26986C8.93589 8.09887 8.7248 8 8.50222 8C8.27963 8 8.06855 8.09887 7.92605 8.26986L4.17605 12.7699C3.91088 13.0881 3.95387 13.561 4.27208 13.8262C4.59029 14.0913 5.06321 14.0483 5.32838 13.7301L7.7522 10.8216V19.25C7.7522 19.6642 8.08798 20 8.5022 20C8.91641 20 9.2522 19.6642 9.2522 19.25V10.8215L11.676 13.7301C11.9412 14.0483 12.4141 14.0913 12.7324 13.8262C13.0506 13.561 13.0936 13.0881 12.8284 12.7699L9.07838 8.26986Z" fill="#7D8198"/>
<path d="M18.9238 19.7301C19.0663 19.9011 19.2774 20 19.5 20C19.7226 20 19.9337 19.9011 20.0761 19.7301L23.8261 15.2301C24.0913 14.9119 24.0483 14.439 23.7301 14.1738C23.4119 13.9087 22.939 13.9517 22.6738 14.2699L20.25 17.1784V8.75C20.25 8.33579 19.9142 8 19.5 8C19.0858 8 18.75 8.33579 18.75 8.75V17.1785L16.3261 14.2699C16.061 13.9517 15.5881 13.9087 15.2698 14.1738C14.9516 14.439 14.9086 14.9119 15.1738 15.2301L18.9238 19.7301Z" fill="#7D8198"/>
</svg>
