<svg width="28" height="28" viewBox="0 0 28 28" fill="none" xmlns="http://www.w3.org/2000/svg">
<path fill-rule="evenodd" clip-rule="evenodd" d="M6.75 4C5.23122 4 4 5.23122 4 6.75V21.25C4 22.7688 5.23122 24 6.75 24H21.25C22.7688 24 24 22.7688 24 21.25V6.75C24 5.23122 22.7688 4 21.25 4H6.75ZM5.5 6.75C5.5 6.05964 6.05964 5.5 6.75 5.5H14V7H12V9H14V11H16V9H14V7H16V5.5H21.25C21.9404 5.5 22.5 6.05964 22.5 6.75V21.25C22.5 21.9404 21.9404 22.5 21.25 22.5H6.75C6.05964 22.5 5.5 21.9404 5.5 21.25V6.75ZM12 11.0042H14V13.0042H12V11.0042ZM12.4304 14.4178C12.4705 14.1767 12.6791 14 12.9236 14H15.0764C15.3209 14 15.5294 14.1767 15.5696 14.4178L16.403 19.4178C16.4538 19.7226 16.2187 20 15.9098 20H12.0902C11.7813 20 11.5462 19.7226 11.597 19.4178L12.4304 14.4178ZM15 18C15 18.5523 14.553 19 14.0016 19C13.4501 19 13.0031 18.5523 13.0031 18C13.0031 17.4477 13.4501 17 14.0016 17C14.553 17 15 17.4477 15 18Z" fill="#7D8198"/>
</svg>
