<svg width="28" height="28" viewBox="0 0 28 28" fill="none" xmlns="http://www.w3.org/2000/svg">
<path d="M16.75 8C16.3358 8 16 8.33579 16 8.75V19.25C16 19.6642 16.3358 20 16.75 20H19.25C19.6642 20 20 19.6642 20 19.25V8.75C20 8.33579 19.6642 8 19.25 8H16.75Z" fill="#7D8198"/>
<path d="M9.65647 13.25L11.7568 11.2996C12.0603 11.0177 12.0779 10.5432 11.796 10.2397C11.5142 9.93613 11.0396 9.91856 10.7361 10.2004L7.23611 13.4506C7.08329 13.5925 6.99645 13.7916 6.99646 14.0002C6.99647 14.2087 7.08331 14.4079 7.23614 14.5498L10.7361 17.7996C11.0397 18.0815 11.5142 18.0639 11.7961 17.7603C12.0779 17.4568 12.0603 16.9822 11.7568 16.7004L9.65625 14.75H14.2465C14.6607 14.75 14.9965 14.4142 14.9965 14C14.9965 13.5858 14.6607 13.25 14.2465 13.25H9.65647Z" fill="#7D8198"/>
<path fill-rule="evenodd" clip-rule="evenodd" d="M4 6.75C4 5.23122 5.23122 4 6.75 4H21.25C22.7688 4 24 5.23122 24 6.75V21.25C24 22.7688 22.7688 24 21.25 24H6.75C5.23122 24 4 22.7688 4 21.25V6.75ZM6.75 5.5C6.05964 5.5 5.5 6.05964 5.5 6.75V21.25C5.5 21.9404 6.05964 22.5 6.75 22.5H21.25C21.9404 22.5 22.5 21.9404 22.5 21.25V6.75C22.5 6.05964 21.9404 5.5 21.25 5.5H6.75Z" fill="#7D8198"/>
</svg>
