<svg width="28" height="28" viewBox="0 0 28 28" fill="none" xmlns="http://www.w3.org/2000/svg">
<path d="M5.75 2.99646C4.23122 2.99646 3 4.22768 3 5.74646V6.24646C3 6.66067 3.33579 6.99646 3.75 6.99646C4.16421 6.99646 4.5 6.66067 4.5 6.24646V5.74646C4.5 5.0561 5.05964 4.49646 5.75 4.49646H6.25C6.66421 4.49646 7 4.16067 7 3.74646C7 3.33225 6.66421 2.99646 6.25 2.99646H5.75Z" fill="#7D8198"/>
<path d="M25 5.74646C25 4.22768 23.7688 2.99646 22.25 2.99646H21.75C21.3358 2.99646 21 3.33225 21 3.74646C21 4.16067 21.3358 4.49646 21.75 4.49646H22.25C22.9404 4.49646 23.5 5.0561 23.5 5.74646V6.24646C23.5 6.66067 23.8358 6.99646 24.25 6.99646C24.6642 6.99646 25 6.66067 25 6.24646V5.74646Z" fill="#7D8198"/>
<path d="M25 22.2465C25 23.7652 23.7688 24.9965 22.25 24.9965H21.75C21.3358 24.9965 21 24.6607 21 24.2465C21 23.8322 21.3358 23.4965 21.75 23.4965H22.25C22.9404 23.4965 23.5 22.9368 23.5 22.2465V21.7465C23.5 21.3322 23.8358 20.9965 24.25 20.9965C24.6642 20.9965 25 21.3322 25 21.7465V22.2465Z" fill="#7D8198"/>
<path d="M3 22.2465C3 23.7652 4.23122 24.9965 5.75 24.9965H6.25C6.66421 24.9965 7 24.6607 7 24.2465C7 23.8322 6.66421 23.4965 6.25 23.4965H5.75C5.05964 23.4965 4.5 22.9368 4.5 22.2465V21.7465C4.5 21.3322 4.16421 20.9965 3.75 20.9965C3.33579 20.9965 3 21.3322 3 21.7465V22.2465Z" fill="#7D8198"/>
<path fill-rule="evenodd" clip-rule="evenodd" d="M14.0002 6.99646C14.3142 6.99646 14.5949 7.19198 14.7037 7.48643L18.9537 18.9845C19.0973 19.373 18.8988 19.8044 18.5103 19.948C18.1217 20.0916 17.6904 19.8931 17.5468 19.5046L16.2501 15.9965H11.7504L10.4537 19.5046C10.3101 19.8931 9.87874 20.0916 9.49022 19.948C9.1017 19.8044 8.90315 19.373 9.04676 18.9845L13.2968 7.48643C13.4056 7.19198 13.6863 6.99646 14.0002 6.99646ZM12.3049 14.4965H15.6956L14.0002 9.90971L12.3049 14.4965Z" fill="#7D8198"/>
</svg>
