<svg width="28" height="28" viewBox="0 0 28 28" fill="none" xmlns="http://www.w3.org/2000/svg">
<path fill-rule="evenodd" clip-rule="evenodd" d="M6.75 4C5.23122 4 4 5.23122 4 6.75V21.25C4 22.7688 5.23122 24 6.75 24H21.25C22.7688 24 24 22.7688 24 21.25V6.75C24 5.23122 22.7688 4 21.25 4H6.75ZM5.5 6.75C5.5 6.05964 6.05964 5.5 6.75 5.5H21.25C21.9404 5.5 22.5 6.05964 22.5 6.75V21.25C22.5 21.9404 21.9404 22.5 21.25 22.5H6.75C6.05964 22.5 5.5 21.9404 5.5 21.25V6.75ZM12.2473 7.99854C11.557 7.99854 10.9973 8.55818 10.9973 9.24854V15.7485C10.9973 16.4389 11.557 16.9985 12.2473 16.9985H18.7499C19.4402 16.9985 19.9999 16.4389 19.9999 15.7485V9.24854C19.9999 8.55818 19.4402 7.99854 18.7499 7.99854H12.2473ZM12.4973 15.4985V9.49854H18.4999V15.4985H12.4973Z" fill="#7D8198"/>
</svg>
