<svg width="28" height="28" viewBox="0 0 28 28" fill="none" xmlns="http://www.w3.org/2000/svg">
<path d="M11.0057 18.5227V13.5205C11.0057 13.1488 11.3968 12.9071 11.7292 13.0732L16.7365 15.5753C17.1053 15.7595 17.1052 16.2857 16.7364 16.4699L11.7291 18.97C11.3967 19.136 11.0057 18.8943 11.0057 18.5227Z" fill="#7D8198"/>
<path fill-rule="evenodd" clip-rule="evenodd" d="M16.2453 4.00001H21.249C22.7678 4.00001 23.999 5.23122 23.999 6.75001V21.25C23.999 22.7688 22.7678 24 21.249 24H6.74902C5.23024 24 3.99902 22.7688 3.99902 21.25V6.75001C3.99902 5.23122 5.23024 4.00001 6.74902 4.00001H9.85544L9.86992 3.98987L9.87702 4.00001H16.2237L16.2382 3.98987L16.2453 4.00001ZM17.214 7.99866H12.6769L10.9273 5.50001H15.4644L17.214 7.99866ZM19.0452 7.99866H22.499V6.75001C22.499 6.05965 21.9394 5.50001 21.249 5.50001H17.2956L19.0452 7.99866ZM10.8457 7.99866L9.09617 5.50001H6.74902C6.05867 5.50001 5.49902 6.05965 5.49902 6.75001V7.99866H10.8457ZM22.499 9.49866H5.49902V21.25C5.49902 21.9404 6.05867 22.5 6.74902 22.5H21.249C21.9394 22.5 22.499 21.9404 22.499 21.25V9.49866Z" fill="#7D8198"/>
</svg>
