<svg width="28" height="28" viewBox="0 0 28 28" fill="none" xmlns="http://www.w3.org/2000/svg">
<path d="M14 25C13.9 25 13.8 24.98 13.7 24.94C6.13 21.65 5 16.17 5 13.19V7.75C5 7.34 5.34 7 5.75 7C9.94 7 13.42 3.28 13.45 3.24C13.59 3.09 13.79 3 13.99 3C14.2 3.01 14.39 3.08 14.54 3.23C14.58 3.27 18.26 7 22.25 7C22.66 7 23 7.34 23 7.75V13.2C23 16.17 21.87 21.65 14.3 24.94C14.2 24.98 14.1 25 14 25ZM6.5 8.46V13.19C6.5 15.76 7.48 20.46 14 23.42C20.52 20.46 21.5 15.75 21.5 13.19V8.46C18.12 8.15 15.19 5.85 14.01 4.79C12.86 5.86 10.01 8.16 6.5 8.46Z" fill="#7D8198"/>
</svg>
