<svg width="28" height="28" viewBox="0 0 28 28" fill="none" xmlns="http://www.w3.org/2000/svg">
<path d="M14 7.75C14 8.16421 13.6642 8.5 13.25 8.5H11.75C11.3358 8.5 11 8.16421 11 7.75C11 7.33579 11.3358 7 11.75 7H13.25C13.6642 7 14 7.33579 14 7.75Z" fill="#7D8198"/>
<path d="M17.0001 10.7482C17.0001 11.1624 16.6643 11.4982 16.2501 11.4982H9.75C9.33578 11.4982 9 11.1624 9 10.7482C9 10.334 9.33578 9.99823 9.75 9.99823H16.2501C16.6643 9.99823 17.0001 10.334 17.0001 10.7482Z" fill="#7D8198"/>
<path d="M13.25 21C13.6642 21 14 20.6642 14 20.25C14 19.8358 13.6642 19.5 13.25 19.5H11.75C11.3358 19.5 11 19.8358 11 20.25C11 20.6642 11.3358 21 11.75 21H13.25Z" fill="#7D8198"/>
<path d="M17.0001 17.25C17.0001 17.6642 16.6643 18 16.2501 18H9.75C9.33578 18 9 17.6642 9 17.25C9 16.8358 9.33578 16.5 9.75 16.5H16.2501C16.6643 16.5 17.0001 16.8358 17.0001 17.25Z" fill="#7D8198"/>
<path d="M14.25 14.7518C14.6642 14.7518 15 14.416 15 14.0018C15 13.5876 14.6642 13.2518 14.25 13.2518H3.75C3.33579 13.2518 3 13.5876 3 14.0018C3 14.416 3.33579 14.7518 3.75 14.7518H14.25Z" fill="#7D8198"/>
<path d="M22.2936 14.7518L21.2483 15.6925C20.9404 15.9696 20.9154 16.4438 21.1925 16.7517C21.4696 17.0596 21.9438 17.0846 22.2517 16.8075L24.7517 14.5575C24.9098 14.4152 25 14.2126 25 14C25 13.7874 24.9098 13.5848 24.7517 13.4425L22.2517 11.1925C21.9438 10.9154 21.4696 10.9404 21.1925 11.2483C20.9154 11.5562 20.9404 12.0304 21.2483 12.3075L22.2975 13.2518H17.7501C17.3359 13.2518 17.0001 13.5876 17.0001 14.0018C17.0001 14.416 17.3359 14.7518 17.7501 14.7518H22.2936Z" fill="#7D8198"/>
<path d="M7.5 10.7482C7.5 11.1624 7.16421 11.4982 6.75 11.4982C6.33579 11.4982 6 11.1624 6 10.7482C6 10.334 6.33579 9.99823 6.75 9.99823C7.16421 9.99823 7.5 10.334 7.5 10.7482Z" fill="#7D8198"/>
<path d="M6.75 18.0018C7.16421 18.0018 7.5 17.666 7.5 17.2518C7.5 16.8376 7.16421 16.5018 6.75 16.5018C6.33579 16.5018 6 16.8376 6 17.2518C6 17.666 6.33579 18.0018 6.75 18.0018Z" fill="#7D8198"/>
<path d="M17 7.75C17 8.16421 16.6642 8.5 16.25 8.5C15.8358 8.5 15.5 8.16421 15.5 7.75C15.5 7.33579 15.8358 7 16.25 7C16.6642 7 17 7.33579 17 7.75Z" fill="#7D8198"/>
<path d="M16.25 21C16.6642 21 17 20.6642 17 20.25C17 19.8358 16.6642 19.5 16.25 19.5C15.8358 19.5 15.5 19.8358 15.5 20.25C15.5 20.6642 15.8358 21 16.25 21Z" fill="#7D8198"/>
</svg>
