<svg width="28" height="28" viewBox="0 0 28 28" fill="none" xmlns="http://www.w3.org/2000/svg">
<path fill-rule="evenodd" clip-rule="evenodd" d="M22.25 12C22.6642 12 23 11.6642 23 11.25C23 10.8358 22.6642 10.5 22.25 10.5H17.5V5.75C17.5 5.33579 17.1642 5 16.75 5C16.3358 5 16 5.33579 16 5.75V11.25C16 11.6642 16.3358 12 16.75 12H22.25ZM5.75 16C5.33579 16 5 16.3358 5 16.75C5 17.1642 5.33579 17.5 5.75 17.5H10.4999V22.25C10.4999 22.6642 10.8357 23 11.2499 23C11.6642 23 11.9999 22.6642 11.9999 22.25V16.75C11.9999 16.3358 11.6642 16 11.2499 16H5.75Z" fill="#7D8198"/>
</svg>
