<svg width="28" height="28" viewBox="0 0 28 28" fill="none" xmlns="http://www.w3.org/2000/svg">
<path d="M14 18C16.2091 18 18 16.2091 18 14C18 11.7909 16.2091 10 14 10C11.7909 10 10 11.7909 10 14C10 16.2091 11.7909 18 14 18Z" fill="#7D8198"/>
<path fill-rule="evenodd" clip-rule="evenodd" d="M13.9979 7C11.7181 7 9.58944 7.88278 7.83288 8.96066C6.07123 10.0416 4.63057 11.3516 3.71196 12.2833C2.76333 13.2454 2.76333 14.7546 3.71196 15.7167C4.63057 16.6484 6.07123 17.9584 7.83288 19.0393C9.58945 20.1172 11.7181 21 13.9979 21C16.2773 21 18.4064 20.1175 20.1637 19.04C21.9261 17.9593 23.368 16.6496 24.2876 15.7179C25.2376 14.7554 25.2376 13.2446 24.2876 12.2821C23.368 11.3504 21.9261 10.0407 20.1637 8.96003C18.4064 7.88247 16.2773 7 13.9979 7ZM4.78009 13.3364C5.64938 12.4547 6.99494 11.2347 8.61739 10.2391C10.2449 9.24045 12.0983 8.5 13.9979 8.5C15.8973 8.5 17.7512 9.24024 19.3796 10.2388C21.0029 11.2342 22.3497 12.454 23.2201 13.3358C23.5935 13.7141 23.5935 14.2859 23.2201 14.6642C22.3497 15.546 21.0029 16.7658 19.3796 17.7612C17.7511 18.7598 15.8973 19.5 13.9979 19.5C12.0983 19.5 10.2449 18.7595 8.61739 17.7609C6.99494 16.7653 5.64938 15.5453 4.78009 14.6636C4.40729 14.2855 4.40729 13.7145 4.78009 13.3364Z" fill="#7D8198"/>
</svg>
