<svg width="28" height="28" viewBox="0 0 28 28" fill="none" xmlns="http://www.w3.org/2000/svg">
<path d="M5.3112 6.75024C5.17381 6.9051 4.9733 7.00269 4.75 7.00269C4.33579 7.00269 4 6.6669 4 6.25269V5.75269C4 5.33847 4.33579 5.00269 4.75 5.00269C4.97094 5.00269 5.16957 5.09822 5.30683 5.25024L16.6922 5.25024C16.8294 5.09822 17.0281 5.00269 17.249 5.00269C17.6632 5.00269 17.999 5.33847 17.999 5.75269V6.25269C17.999 6.6669 17.6632 7.00269 17.249 7.00269C17.0257 7.00269 16.8252 6.9051 16.6878 6.75024H11.75V21.5H13.25C13.6642 21.5 14 21.8358 14 22.25C14 22.6642 13.6642 23 13.25 23H8.75C8.33579 23 8 22.6642 8 22.25C8 21.8358 8.33579 21.5 8.75 21.5H10.25V6.75024H5.3112Z" fill="#7D8198"/>
<path d="M20.5 21C20.0858 21 19.75 20.6642 19.75 20.25V17.25L16.75 17.25C16.3358 17.25 16 16.9142 16 16.5C16 16.0858 16.3358 15.75 16.75 15.75L19.75 15.75V12.75C19.75 12.3358 20.0858 12 20.5 12C20.9142 12 21.25 12.3358 21.25 12.75V15.75H24.25C24.6642 15.75 25 16.0858 25 16.5C25 16.9142 24.6642 17.25 24.25 17.25H21.25V20.25C21.25 20.6642 20.9142 21 20.5 21Z" fill="#7D8198"/>
</svg>
