<svg width="28" height="28" viewBox="0 0 28 28" fill="none" xmlns="http://www.w3.org/2000/svg">
<path fill-rule="evenodd" clip-rule="evenodd" d="M19.031 4.23549C19.8668 3.63517 21 4.24815 21 5.24793V22.75C21 23.7832 19.8157 24.3634 18.9913 23.739L13.6121 19.6647C13.0431 19.2337 12.4642 19.0015 11.75 19.0039L9.75 19C8.22515 19.0051 7 17.7724 7 16.25V11.75C7 10.2312 8.23321 9 9.75444 9H11.75C12.4127 9 13.0416 8.81217 13.5601 8.43478C14.5044 7.74759 15.3223 7.09833 16.1533 6.43873C16.186 6.41271 16.2188 6.38667 16.2517 6.36062C17.1147 5.67567 17.9958 4.979 19.031 4.23549ZM19.4976 5.75162C18.667 6.36202 17.9293 6.94534 17.1866 7.5348C17.1518 7.56244 17.1169 7.5901 17.0821 7.61777C16.2552 8.27417 15.4154 8.94083 14.4451 9.64692C13.6528 10.2235 12.7095 10.5097 11.75 10.5097L9.75444 10.5C9.06297 10.5 8.50242 11.0693 8.50242 11.7597V16.2602C8.50242 16.9522 9.06554 17.5023 9.75865 17.5L11.75 17.5039C12.7939 17.5004 13.6886 17.8397 14.5202 18.4696L19.4976 22.2396V5.75162Z" fill="#7D8198"/>
</svg>
