<svg width="28" height="28" viewBox="0 0 28 28" fill="none" xmlns="http://www.w3.org/2000/svg">
<path fill-rule="evenodd" clip-rule="evenodd" d="M18.4987 16C18.4987 13.5147 16.484 11.5 13.9987 11.5C11.5134 11.5 9.49872 13.5147 9.49872 16C9.49872 18.4853 11.5134 20.5 13.9987 20.5C16.484 20.5 18.4987 18.4853 18.4987 16ZM13.9987 10C17.3124 10 19.9987 12.6863 19.9987 16C19.9987 19.3137 17.3124 22 13.9987 22C10.685 22 7.99872 19.3137 7.99872 16C7.99872 12.6863 10.685 10 13.9987 10Z" fill="#7D8198"/>
<path fill-rule="evenodd" clip-rule="evenodd" d="M9.32815 4.41409C9.45529 4.16028 9.71484 4 9.99872 4H17.9987C18.2828 4 18.5425 4.1605 18.6695 4.41459L19.4622 6H22.2487C23.7675 6 24.9987 7.23122 24.9987 8.75V19.25C24.9987 20.7688 23.7675 22 22.2487 22H20.7487C20.3345 22 19.9987 21.6642 19.9987 21.25C19.9987 20.8358 20.3345 20.5 20.7487 20.5H22.2487C22.9391 20.5 23.4987 19.9404 23.4987 19.25V8.75C23.4987 8.05964 22.9391 7.5 22.2487 7.5H18.9987C18.7146 7.5 18.4549 7.3395 18.3279 7.08541L17.5352 5.5H10.4619L9.66929 7.08221C9.54215 7.33603 9.2826 7.49631 8.99872 7.49631H5.74872C5.05836 7.49631 4.49872 8.05595 4.49872 8.74631V19.25C4.49872 19.9404 5.05836 20.5 5.74872 20.5H7.24872C7.66293 20.5 7.99872 20.8358 7.99872 21.25C7.99872 21.6642 7.66293 22 7.24872 22H5.74872C4.22994 22 2.99872 20.7688 2.99872 19.25V8.74631C2.99872 7.22752 4.22994 5.99631 5.74872 5.99631H8.53558L9.32815 4.41409Z" fill="#7D8198"/>
<path fill-rule="evenodd" clip-rule="evenodd" d="M11.9987 7.75C11.9987 7.33579 12.3345 7 12.7487 7H15.2487C15.6629 7 15.9987 7.33579 15.9987 7.75C15.9987 8.16421 15.6629 8.5 15.2487 8.5H12.7487C12.3345 8.5 11.9987 8.16421 11.9987 7.75Z" fill="#7D8198"/>
</svg>
