<svg width="28" height="28" viewBox="0 0 28 28" fill="none" xmlns="http://www.w3.org/2000/svg">
<path d="M14 9C14.4142 9 14.75 9.33579 14.75 9.75V13.25H18.25C18.6642 13.25 19 13.5858 19 14C19 14.4142 18.6642 14.75 18.25 14.75H14.75V18.25C14.75 18.6642 14.4142 19 14 19C13.5858 19 13.25 18.6642 13.25 18.25V14.75H9.75C9.33579 14.75 9 14.4142 9 14C9 13.5858 9.33579 13.25 9.75 13.25H13.25V9.75C13.25 9.33579 13.5858 9 14 9Z" fill="#7D8198"/>
<path fill-rule="evenodd" clip-rule="evenodd" d="M4.00024 13.9971C4.00024 8.49391 8.49367 4 13.9972 4C19.5002 4 24.0002 8.49328 24.0002 13.9971C24.0002 19.5004 19.5008 24 13.9972 24C12.3519 24 10.7643 23.5883 9.39204 22.8805L5.59612 23.9543L5.59392 23.955C5.07922 24.0989 4.61772 23.8798 4.34637 23.5791C4.07968 23.2836 3.92081 22.8322 4.04981 22.3646L5.08194 18.5156C4.37369 17.1476 4.00024 15.6407 4.00024 13.9971ZM13.9972 5.5C9.32216 5.5 5.50024 9.32228 5.50024 13.9971C5.50024 15.4973 5.86106 16.8431 6.53836 18.0573C6.63342 18.2277 6.65832 18.4284 6.60778 18.6169L5.5944 22.396L9.27516 21.3547C9.46619 21.3007 9.67086 21.3246 9.8443 21.4212C11.0626 22.0999 12.5041 22.5 13.9972 22.5C18.6724 22.5 22.5002 18.672 22.5002 13.9971C22.5002 9.32291 18.673 5.5 13.9972 5.5Z" fill="#7D8198"/>
</svg>
