<svg width="28" height="28" viewBox="0 0 28 28" fill="none" xmlns="http://www.w3.org/2000/svg">
<path d="M14.5 8.75C14.5 8.33579 14.1642 8 13.75 8C13.3358 8 13 8.33579 13 8.75V15.2498C13 15.4487 13.079 15.6395 13.2197 15.7802C13.3603 15.9208 13.5511 15.9998 13.75 15.9998L18.25 15.9998C18.6642 15.9998 19 15.664 19 15.2498C19 14.8356 18.6642 14.4998 18.25 14.4998L14.5 14.4998V8.75Z" fill="#7D8198"/>
<path fill-rule="evenodd" clip-rule="evenodd" d="M25 14C25 7.92487 20.0751 3 14 3C7.92487 3 3 7.92487 3 14C3 20.0751 7.92487 25 14 25C20.0751 25 25 20.0751 25 14ZM14 4.5C19.2467 4.5 23.5 8.75329 23.5 14C23.5 19.2467 19.2467 23.5 14 23.5C8.7533 23.5 4.5 19.2467 4.5 14C4.5 8.75329 8.75329 4.5 14 4.5Z" fill="#7D8198"/>
</svg>
