<svg width="28" height="28" viewBox="0 0 28 28" fill="none" xmlns="http://www.w3.org/2000/svg">
<path d="M11.75 16C11.3358 16 11 16.3358 11 16.75C11 17.1642 11.3358 17.5 11.75 17.5H16.25C16.6642 17.5 17 17.1642 17 16.75C17 16.3358 16.6642 16 16.25 16H11.75Z" fill="#7D8198"/>
<path fill-rule="evenodd" clip-rule="evenodd" d="M4 5.75C4 4.7835 4.7835 4 5.75 4H22.25C23.2165 4 24 4.7835 24 5.75V9.25C24 9.9481 23.5912 10.5507 23 10.8316V20.25C23 22.3211 21.3211 24 19.25 24H8.75C6.67893 24 5 22.3211 5 20.25V10.8316C4.40876 10.5507 4 9.9481 4 9.25V5.75ZM6.5 11H21.5V20.25C21.5 21.4926 20.4926 22.5 19.25 22.5H8.75C7.50736 22.5 6.5 21.4926 6.5 20.25V11ZM5.75 5.5C5.61193 5.5 5.5 5.61193 5.5 5.75V9.25C5.5 9.38807 5.61193 9.5 5.75 9.5H22.25C22.3881 9.5 22.5 9.38807 22.5 9.25V5.75C22.5 5.61193 22.3881 5.5 22.25 5.5H5.75Z" fill="#7D8198"/>
</svg>
