<svg width="28" height="28" viewBox="0 0 28 28" fill="none" xmlns="http://www.w3.org/2000/svg">
<path d="M23.4746 13.3052C23.5049 13.7183 23.8643 14.0286 24.2774 13.9984C24.6905 13.9681 25.0008 13.6086 24.9705 13.1955C24.8164 11.094 24.062 9.08103 22.7969 7.39592C21.5319 5.71081 19.8095 4.4245 17.8345 3.68998C15.8595 2.95545 13.7152 2.80363 11.6564 3.25255C9.59769 3.70148 7.7112 4.73227 6.22134 6.22232C4.73147 7.71238 3.70092 9.59899 3.25226 11.6578C2.80359 13.7166 2.95569 15.8609 3.69046 17.8358C4.42524 19.8107 5.71176 21.5329 7.39703 22.7978C9.0823 24.0626 11.0954 24.8168 13.1969 24.9706C13.61 25.0009 13.9694 24.6905 13.9997 24.2774C14.0299 23.8643 13.7195 23.5049 13.3064 23.4746C11.622 23.3513 10.0034 22.7815 8.61586 21.8269C8.94761 20.8983 10.002 18.8822 13.0803 18.5481C13.155 18.54 13.2311 18.5328 13.3085 18.5267C13.7214 18.494 14.0296 18.1327 13.9969 17.7198C13.9641 17.3069 13.6029 16.9987 13.19 17.0314C13.0982 17.0387 13.0077 17.0472 12.9184 17.0569C9.50276 17.4276 8.01052 19.5061 7.40246 20.8354C6.38351 19.8519 5.59359 18.6493 5.09631 17.3127C4.46173 15.6072 4.33037 13.7552 4.71786 11.9772C5.10534 10.1991 5.99536 8.56978 7.28206 7.28291C8.56877 5.99605 10.198 5.10582 11.976 4.71811C13.754 4.3304 15.606 4.46153 17.3116 5.09589C19.0173 5.73025 20.5048 6.84115 21.5974 8.29648C22.6899 9.7518 23.3415 11.4903 23.4746 13.3052Z" fill="#7D8198"/>
<path fill-rule="evenodd" clip-rule="evenodd" d="M14 7C11.7909 7 10 8.79086 10 11C10 13.2091 11.7909 15 14 15C16.2091 15 18 13.2091 18 11C18 8.79086 16.2091 7 14 7ZM11.5 11C11.5 9.61929 12.6193 8.5 14 8.5C15.3807 8.5 16.5 9.61929 16.5 11C16.5 12.3807 15.3807 13.5 14 13.5C12.6193 13.5 11.5 12.3807 11.5 11Z" fill="#7D8198"/>
<path fill-rule="evenodd" clip-rule="evenodd" d="M26 20.5C26 23.5376 23.5376 26 20.5 26C17.4624 26 15 23.5376 15 20.5C15 17.4624 17.4624 15 20.5 15C23.5376 15 26 17.4624 26 20.5ZM20.5 16.5C20.9142 16.5 21.25 16.8358 21.25 17.25V19.75H23.7497C24.1639 19.75 24.4997 20.0858 24.4997 20.5C24.4997 20.9142 24.1639 21.25 23.7497 21.25H21.25V23.75C21.25 24.1642 20.9142 24.5 20.5 24.5C20.0858 24.5 19.75 24.1642 19.75 23.75V21.25H17.2497C16.8355 21.25 16.4997 20.9142 16.4997 20.5C16.4997 20.0858 16.8355 19.75 17.2497 19.75H19.75V17.25C19.75 16.8358 20.0858 16.5 20.5 16.5Z" fill="#7D8198"/>
</svg>
