<svg width="28" height="28" viewBox="0 0 28 28" fill="none" xmlns="http://www.w3.org/2000/svg">
    <path
        d="M19.6367 21.1142C19.2122 20.4749 18.6415 19.929 17.941 19.4982C16.8347 18.8175 15.4713 18.4582 14.0001 18.4582C12.5573 18.4582 11.1571 18.8335 10.0572 19.5146C9.3632 19.9446 8.79664 20.4849 8.37341 21.1142M23.3333 14C23.3333 19.1546 19.1546 23.3333 14 23.3333C8.8453 23.3333 4.66663 19.1546 4.66663 14C4.66663 8.8453 8.8453 4.66663 14 4.66663C19.1546 4.66663 23.3333 8.8453 23.3333 14ZM12.1687 10.4896C12.6704 9.95104 13.364 9.67238 14.1079 9.67238C14.8505 9.67238 15.5447 9.95698 16.0433 10.4927C16.5481 11.035 16.7803 11.7607 16.7267 12.5132C16.6762 13.2121 16.3965 13.8768 15.9268 14.3817C15.4444 14.8999 14.8007 15.2101 14.1079 15.2101C13.4153 15.2101 12.7711 14.8992 12.288 14.3819C11.8176 13.8767 11.5374 13.2117 11.488 12.5124C11.4347 11.7572 11.6649 11.0304 12.1687 10.4896Z"
        stroke="#BCBED2" stroke-width="1.5" stroke-miterlimit="10" stroke-linecap="round" stroke-linejoin="round" />
</svg>
