<svg width="28" height="28" viewBox="0 0 28 28" fill="none" xmlns="http://www.w3.org/2000/svg">
<path fill-rule="evenodd" clip-rule="evenodd" d="M14.61 7H22.25C23.77 7 25 8.23 25 9.75V20.25C25 21.77 23.77 23 22.25 23H5.75C4.23 23 3 21.77 3 20.25V7.75C3 6.23 4.23 5 5.75 5H10.4C10.95 5 11.48 5.16 11.93 5.46L13.92 6.79C14.12 6.93 14.36 7 14.61 7ZM12.5 15.73L7.15 21.5H17.85L12.5 15.73ZM22.25 21.5C22.94 21.5 23.5 20.94 23.5 20.25H23.49V9.75C23.49 9.06 22.93 8.5 22.24 8.5H14.6C14.05 8.5 13.52 8.34 13.07 8.04L11.08 6.71C10.88 6.57 10.64 6.5 10.39 6.5H5.75C5.06 6.5 4.5 7.06 4.5 7.75V20.25C4.5 20.75 4.8 21.18 5.23 21.38C5.24 21.36 5.27 21.32 5.27 21.32L11.76 14.32C12.14 13.91 12.85 13.91 13.23 14.32L19.73 21.32C19.7633 21.3533 19.7878 21.3956 19.8122 21.4378C19.8244 21.4589 19.8367 21.48 19.85 21.5H22.25ZM17.5028 14C18.3312 14 19.0028 13.3284 19.0028 12.5C19.0028 11.6716 18.3312 11 17.5028 11C16.6744 11 16.0028 11.6716 16.0028 12.5C16.0028 13.3284 16.6744 14 17.5028 14Z" fill="#7D8198"/>
</svg>
