<svg width="28" height="28" viewBox="0 0 28 28" fill="none" xmlns="http://www.w3.org/2000/svg">
<path d="M11 12C11.5523 12 12 11.5523 12 11C12 10.4477 11.5523 10 11 10C10.4477 10 10 10.4477 10 11C10 11.5523 10.4477 12 11 12Z" fill="#7D8198"/>
<path d="M17 12C17.5523 12 18 11.5523 18 11C18 10.4477 17.5523 10 17 10C16.4477 10 16 10.4477 16 11C16 11.5523 16.4477 12 17 12Z" fill="#7D8198"/>
<path d="M10.4745 15.6131C10.3979 15.2061 10.0058 14.9382 9.59872 15.0148C9.19166 15.0914 8.92377 15.4835 9.00038 15.8906C9.2195 17.0549 9.83848 18.106 10.7504 18.8624C11.6622 19.6188 12.8097 20.0328 13.9944 20.0329C15.1792 20.0331 16.3267 19.6194 17.2388 18.8632C18.1509 18.1071 18.7701 17.0561 18.9896 15.8919C19.0663 15.4848 18.7985 15.0927 18.3914 15.0159C17.9844 14.9392 17.5922 15.207 17.5155 15.6141C17.3608 16.4347 16.9243 17.1755 16.2815 17.7085C15.6386 18.2414 14.8297 18.5331 13.9946 18.5329C13.1595 18.5328 12.3507 18.241 11.708 17.7079C11.0653 17.1747 10.629 16.4338 10.4745 15.6131Z" fill="#7D8198"/>
<path fill-rule="evenodd" clip-rule="evenodd" d="M3 14C3 7.92487 7.92487 3 14 3C20.0751 3 25 7.92487 25 14C25 20.0751 20.0751 25 14 25C7.92487 25 3 20.0751 3 14ZM14 4.5C8.75329 4.5 4.5 8.75329 4.5 14C4.5 19.2467 8.75329 23.5 14 23.5C19.2467 23.5 23.5 19.2467 23.5 14C23.5 8.75329 19.2467 4.5 14 4.5Z" fill="#7D8198"/>
</svg>
