<svg width="28" height="28" viewBox="0 0 28 28" fill="none" xmlns="http://www.w3.org/2000/svg">
<path d="M6.99976 4.75195C6.99976 4.33774 7.33554 4.00195 7.74976 4.00195H20.2502C20.6644 4.00195 21.0002 4.33774 21.0002 4.75195C21.0002 5.16617 20.6644 5.50195 20.2502 5.50195H7.74976C7.33554 5.50195 6.99976 5.16617 6.99976 4.75195Z" fill="#7D8198"/>
<path d="M4 9.75C4 8.23122 5.23122 7 6.75 7H21.25C22.7688 7 24 8.23122 24 9.75V15.25C24 15.6642 23.6642 16 23.25 16C22.8358 16 22.5 15.6642 22.5 15.25V9.75C22.5 9.05964 21.9404 8.5 21.25 8.5H6.75C6.05964 8.5 5.5 9.05964 5.5 9.75V20.25C5.5 20.9404 6.05964 21.5 6.75 21.5H10.25C10.6642 21.5 11 21.8358 11 22.25C11 22.6642 10.6642 23 10.25 23H6.75C5.23122 23 4 21.7688 4 20.25V9.75Z" fill="#7D8198"/>
<path d="M12.999 21.4971C12.999 19.4626 14.663 18 16.499 18H17.249C17.6632 18 17.999 18.3358 17.999 18.75C17.999 19.1642 17.6632 19.5 17.249 19.5H16.499C15.4373 19.5 14.499 20.3441 14.499 21.4971C14.499 22.6522 15.4394 23.5 16.499 23.5H17.249C17.6632 23.5 17.999 23.8358 17.999 24.25C17.999 24.6642 17.6632 25 17.249 25H16.499C14.6609 25 12.999 23.5296 12.999 21.4971Z" fill="#7D8198"/>
<path d="M16.999 21.5C16.999 21.0858 17.3348 20.75 17.749 20.75H20.249C20.6632 20.75 20.999 21.0858 20.999 21.5C20.999 21.9142 20.6632 22.25 20.249 22.25H17.749C17.3348 22.25 16.999 21.9142 16.999 21.5Z" fill="#7D8198"/>
<path d="M24.999 21.4971C24.999 19.4626 23.3351 18 21.499 18H20.749C20.3348 18 19.999 18.3358 19.999 18.75C19.999 19.1642 20.3348 19.5 20.749 19.5H21.499C22.5607 19.5 23.499 20.3441 23.499 21.4971C23.499 22.6522 22.5586 23.5 21.499 23.5H20.749C20.3348 23.5 19.999 23.8358 19.999 24.25C19.999 24.6642 20.3348 25 20.749 25H21.499C23.3372 25 24.999 23.5296 24.999 21.4971Z" fill="#7D8198"/>
</svg>
