<svg width="28" height="28" viewBox="0 0 28 28" fill="none" xmlns="http://www.w3.org/2000/svg">
<path d="M14.7453 3.74794C14.7441 3.33373 14.4074 2.99887 13.9932 3C13.579 3.00114 13.2441 3.33785 13.2453 3.75206C13.2495 5.30125 13.2474 6.89843 13.2453 8.49745L13.2453 8.49863V8.49967C13.2431 10.0977 13.241 11.6975 13.2453 13.2498C13.2464 13.664 13.5831 13.9989 13.9973 13.9977C14.4115 13.9966 14.7464 13.6599 14.7453 13.2457C14.741 11.6964 14.7431 10.099 14.7453 8.49986C14.7474 6.90156 14.7495 5.30058 14.7453 3.74794Z" fill="#7D8198"/>
<path d="M10.457 6.46619C10.8551 6.3519 11.0852 5.93649 10.9709 5.53836C10.8566 5.14023 10.4412 4.91013 10.0431 5.02443C8.06305 5.59287 6.55064 7.02734 5.54403 8.68614C4.53837 10.3434 3.99536 12.29 3.99536 14.0023C3.99536 19.5251 8.47842 24.0012 14.0001 24.0012C19.5222 24.0012 24.0001 19.5246 24.0001 14.0023C24.0001 12.2904 23.4584 10.3438 22.454 8.68649C21.4485 7.02758 19.9373 5.59292 17.957 5.02443C17.5589 4.91013 17.1435 5.14023 17.0292 5.53836C16.9149 5.93649 17.145 6.3519 17.5431 6.46619C19.0629 6.90249 20.3016 8.02916 21.1712 9.46395C22.0417 10.9003 22.5001 12.5798 22.5001 14.0023C22.5001 18.696 18.694 22.5012 14.0001 22.5012C9.30563 22.5012 5.49536 18.6955 5.49536 14.0023C5.49536 12.5802 5.9547 10.9008 6.82639 9.46431C7.69714 8.0294 8.93707 6.90254 10.457 6.46619Z" fill="#7D8198"/>
</svg>
