<svg width="28" height="28" viewBox="0 0 28 28" fill="none" xmlns="http://www.w3.org/2000/svg">
<path d="M21.0002 7.74805C21.0002 7.54913 20.9212 7.35837 20.7805 7.21772C20.6399 7.07706 20.4491 6.99805 20.2502 6.99805L11.7464 6.99808C11.3322 6.99809 10.9964 7.33387 10.9964 7.74809C10.9964 8.1623 11.3322 8.49809 11.7464 8.49808L18.4454 8.49805L7.21972 19.7217C6.9268 20.0146 6.92676 20.4895 7.21962 20.7824C7.51249 21.0753 7.98736 21.0753 8.28028 20.7825L19.5002 9.56456V16.25C19.5002 16.6642 19.836 17 20.2502 17C20.6644 17 21.0002 16.6642 21.0002 16.25V7.74805Z" fill="#7D8198"/>
</svg>
