<svg width="28" height="28" viewBox="0 0 28 28" fill="none" xmlns="http://www.w3.org/2000/svg">
<path fill-rule="evenodd" clip-rule="evenodd" d="M6.74902 4C5.23024 4 3.99902 5.23122 3.99902 6.75V21.25C3.99902 22.7688 5.23024 24 6.74902 24H12.25C12.6642 24 13 23.6642 13 23.25C13 22.8358 12.6642 22.5 12.25 22.5H6.74902C6.05867 22.5 5.49902 21.9404 5.49902 21.25V9.49866H22.499V12.253C22.499 12.6672 22.8348 13.003 23.249 13.003C23.6632 13.003 23.999 12.6672 23.999 12.253V6.75C23.999 5.23122 22.7678 4 21.249 4H6.74902ZM22.499 7.99866V6.75C22.499 6.05964 21.9394 5.5 21.249 5.5H17.2956L19.0452 7.99866H22.499ZM17.214 7.99866H12.6769L10.9273 5.5H15.4644L17.214 7.99866ZM10.8457 7.99866L9.09617 5.5H6.74902C6.05867 5.5 5.49902 6.05964 5.49902 6.75V7.99866H10.8457Z" fill="#7D8198"/>
<path fill-rule="evenodd" clip-rule="evenodd" d="M24.9998 16.7499C24.9998 15.7834 24.2163 14.9999 23.2498 14.9999H21.7502C21.336 14.9999 21.0002 15.3357 21.0002 15.7499C21.0002 16.1641 21.336 16.4999 21.7502 16.4999H23.2498C23.3879 16.4999 23.4998 16.6118 23.4998 16.7499V18.2499C23.4998 18.6641 23.8356 18.9999 24.2498 18.9999C24.664 18.9999 24.9998 18.6641 24.9998 18.2499V16.7499ZM16.75 15.0001C15.7835 15.0001 15 15.7836 15 16.7501V18.2497C15 18.6639 15.3358 18.9997 15.75 18.9997C16.1642 18.9997 16.5 18.6639 16.5 18.2497V16.7501C16.5 16.612 16.6119 16.5001 16.75 16.5001H18.25C18.6642 16.5001 19 16.1643 19 15.7501C19 15.3358 18.6642 15.0001 18.25 15.0001H16.75ZM15.0002 23.2499C15.0002 24.2164 15.7837 24.9999 16.7502 24.9999H18.2498C18.664 24.9999 18.9998 24.6641 18.9998 24.2499C18.9998 23.8357 18.664 23.4999 18.2498 23.4999H16.7502C16.6121 23.4999 16.5002 23.3879 16.5002 23.2499V21.7499C16.5002 21.3357 16.1644 20.9999 15.7502 20.9999C15.336 20.9999 15.0002 21.3357 15.0002 21.7499V23.2499ZM25 23.2497C25 24.2162 24.2165 24.9997 23.25 24.9997H21.75C21.3358 24.9997 21 24.6639 21 24.2497C21 23.8355 21.3358 23.4997 21.75 23.4997H23.25C23.3881 23.4997 23.5 23.3878 23.5 23.2497V21.7501C23.5 21.3358 23.8358 21 24.25 21C24.6642 21 25 21.3358 25 21.75V23.2497Z" fill="#7D8198"/>
</svg>
