<svg width="28" height="28" viewBox="0 0 28 28" fill="none" xmlns="http://www.w3.org/2000/svg">
<path fill-rule="evenodd" clip-rule="evenodd" d="M4 20.25C4 21.7688 5.23122 23 6.75 23H12.25C12.6642 23 13 22.6642 13 22.25C13 21.8358 12.6642 21.5 12.25 21.5H6.75C6.05964 21.5 5.5 20.9404 5.5 20.25V12.5H23.5V13.25C23.5 13.6642 23.8358 14 24.25 14C24.6642 14 25 13.6642 25 13.25V9.75C25 8.23122 23.7688 7 22.25 7H15.6056C15.3588 7 15.1175 6.92695 14.9122 6.79006L12.9199 5.46186C12.4681 5.1607 11.9374 5 11.3944 5H6.75C5.23122 5 4 6.23122 4 7.75V20.25ZM6.75 6.5C6.05964 6.5 5.5 7.05964 5.5 7.75V11H23.5V9.75C23.5 9.05964 22.9404 8.5 22.25 8.5H15.6056C15.0626 8.5 14.5319 8.3393 14.0801 8.03814L12.0878 6.70994C11.8825 6.57305 11.6412 6.5 11.3944 6.5H6.75Z" fill="#7D8198"/>
<path fill-rule="evenodd" clip-rule="evenodd" d="M20.5 26C23.5376 26 26 23.5376 26 20.5C26 17.4624 23.5376 15 20.5 15C17.4624 15 15 17.4624 15 20.5C15 23.5376 17.4624 26 20.5 26ZM21.25 17.25C21.25 16.8358 20.9142 16.5 20.5 16.5C20.0858 16.5 19.75 16.8358 19.75 17.25V19.75H17.2497C16.8355 19.75 16.4997 20.0858 16.4997 20.5C16.4997 20.9142 16.8355 21.25 17.2497 21.25H19.75V23.75C19.75 24.1642 20.0858 24.5 20.5 24.5C20.9142 24.5 21.25 24.1642 21.25 23.75V21.25H23.7497C24.1639 21.25 24.4997 20.9142 24.4997 20.5C24.4997 20.0858 24.1639 19.75 23.7497 19.75H21.25V17.25Z" fill="#7D8198"/>
</svg>
