<svg width="28" height="28" viewBox="0 0 28 28" fill="none" xmlns="http://www.w3.org/2000/svg">
<path fill-rule="evenodd" clip-rule="evenodd" d="M10.748 8.00317C10.3338 8.00317 9.99802 8.33896 9.99802 8.75317V19.25C9.99802 19.6642 10.3338 20 10.748 20C11.1622 20 11.498 19.6642 11.498 19.25V16H14C14.0692 16 14.138 15.9983 14.2063 15.9948L16.6238 19.6631C16.8517 20.009 17.3168 20.1046 17.6627 19.8766C18.0086 19.6487 18.1042 19.1836 17.8762 18.8377L15.7453 15.6042C17.0832 14.9593 18 13.5927 18 12C18 9.77948 16.2186 8.00317 14 8.00317H10.748ZM11.498 9.50317V14.5H14C15.3911 14.5 16.5 13.3911 16.5 12C16.5 10.6098 15.3921 9.50317 14 9.50317H11.498Z" fill="#7D8198"/>
<path fill-rule="evenodd" clip-rule="evenodd" d="M25 14C25 7.92487 20.0751 3 14 3C7.92487 3 3 7.92487 3 14C3 20.0751 7.92487 25 14 25C20.0751 25 25 20.0751 25 14ZM14 4.5C19.2467 4.5 23.5 8.75329 23.5 14C23.5 19.2467 19.2467 23.5 14 23.5C8.7533 23.5 4.5 19.2467 4.5 14C4.5 8.75329 8.75329 4.5 14 4.5Z" fill="#7D8198"/>
</svg>
