<svg width="28" height="28" viewBox="0 0 28 28" fill="none" xmlns="http://www.w3.org/2000/svg">
<path d="M14.0449 18.9986H8.15078C8.05101 18.9986 8.00115 18.9427 8.00119 18.8307V9.13859C7.99858 9.11993 8.00027 9.1009 8.00611 9.08302C8.01195 9.06514 8.0218 9.04889 8.03486 9.03556C8.04793 9.02223 8.06386 9.01219 8.08139 9.00623C8.09892 9.00027 8.11756 8.99855 8.13585 9.00122H9.96095C9.97517 8.99918 9.98966 9.00053 10.0033 9.00518C10.0169 9.00983 10.0293 9.01764 10.0394 9.028C10.0496 9.03837 10.0572 9.05099 10.0618 9.06489C10.0663 9.07879 10.0677 9.09357 10.0657 9.10808V17.0755H14.3591C14.4489 17.0755 14.4838 17.1213 14.4638 17.2128L14.1946 18.8613C14.1939 18.8838 14.1882 18.9058 14.1778 18.9257C14.1674 18.9455 14.1527 18.9627 14.1347 18.9757C14.107 18.9904 14.0762 18.9983 14.0449 18.9986Z" fill="#7D8198"/>
<path d="M17.1564 11.4129H15.5258C15.5114 11.4091 15.4962 11.4092 15.4817 11.4132C15.4673 11.4172 15.4541 11.425 15.4436 11.4358C15.433 11.4466 15.4254 11.46 15.4214 11.4747C15.4175 11.4894 15.4174 11.505 15.4211 11.5197C15.4543 11.7268 15.4743 11.9358 15.4809 12.1455C15.4908 12.3898 15.4983 12.6366 15.5034 12.8858C15.5084 13.1352 15.5109 13.3718 15.5109 13.5955V18.8461C15.508 18.8668 15.5098 18.8879 15.5163 18.9078C15.5228 18.9277 15.5337 18.9457 15.5482 18.9606C15.5628 18.9754 15.5805 18.9865 15.5999 18.9932C15.6194 18.9998 15.6401 19.0017 15.6605 18.9987H17.4706C17.5504 18.9987 17.5903 18.9529 17.5903 18.8613V14.0229C17.7335 13.8739 17.9037 13.7547 18.0914 13.6718C18.6438 13.4232 19.2466 13.3133 19.8492 13.3513C19.9489 13.3514 19.9988 13.3158 19.9988 13.2445V11.3976C20.0014 11.379 19.9997 11.3599 19.9939 11.3421C19.9881 11.3242 19.9782 11.3079 19.9651 11.2946C19.9521 11.2813 19.9362 11.2712 19.9186 11.2653C19.9011 11.2593 19.8825 11.2576 19.8642 11.2603C19.3816 11.2512 18.9049 11.3695 18.4804 11.6037C18.1024 11.8112 17.7652 12.088 17.4856 12.4202C17.4854 12.2981 17.4804 12.1837 17.4706 12.0768C17.4616 11.9768 17.4466 11.8774 17.4257 11.7792C17.4117 11.7045 17.3865 11.6324 17.3509 11.5655C17.3392 11.5219 17.3139 11.4835 17.2788 11.4559C17.2437 11.4284 17.2007 11.4133 17.1564 11.4129Z" fill="#7D8198"/>
<path fill-rule="evenodd" clip-rule="evenodd" d="M4 7.75C4 5.67893 5.67893 4 7.75 4H20.25C22.3211 4 24 5.67893 24 7.75V20.25C24 22.3211 22.3211 24 20.25 24H7.75C5.67893 24 4 22.3211 4 20.25V7.75ZM7.75 5.5C6.50736 5.5 5.5 6.50736 5.5 7.75V20.25C5.5 21.4926 6.50736 22.5 7.75 22.5H20.25C21.4926 22.5 22.5 21.4926 22.5 20.25V7.75C22.5 6.50736 21.4926 5.5 20.25 5.5H7.75Z" fill="#7D8198"/>
</svg>
