<svg width="28" height="28" viewBox="0 0 28 28" fill="none" xmlns="http://www.w3.org/2000/svg">
<path fill-rule="evenodd" clip-rule="evenodd" d="M12.5 11.6975V16.3029L16.2688 14.0007L12.5 11.6975ZM11 11.2517C11 10.2756 12.0689 9.67609 12.9018 10.1851L17.4001 12.9341C18.1978 13.4216 18.1977 14.5801 17.3999 15.0674L12.9016 17.8153C12.0687 18.3242 11 17.7247 11 16.7486V11.2517Z" fill="#7D8198"/>
<path d="M14.7779 3.00487C14.3656 2.97534 14.0074 3.28633 13.9779 3.69949C13.9485 4.11265 14.2588 4.47152 14.6712 4.50105C17.0685 4.67277 19.312 5.74812 20.95 7.51065C22.5879 9.27318 23.4987 11.592 23.4991 14.0004C23.4995 16.4088 22.5893 18.7279 20.9519 20.4909C19.3144 22.2539 17.0713 23.3299 14.674 23.5024C14.2616 23.532 13.9514 23.891 13.981 24.3041C14.0106 24.7173 14.3688 25.0282 14.7811 24.9985C17.556 24.7989 20.1524 23.5535 22.0477 21.5128C23.943 19.4722 24.9965 16.7878 24.9961 14.0002C24.9957 11.2125 23.9414 8.52851 22.0455 6.48842C20.1496 4.44833 17.5528 3.20363 14.7779 3.00487Z" fill="#7D8198"/>
<path d="M11.4349 4.82222C11.8332 4.71142 12.0664 4.29804 11.9559 3.89892C11.8453 3.49981 11.4327 3.26608 11.0344 3.37689C9.20544 3.8857 7.53891 4.85999 6.19684 6.20508C4.85477 7.55017 3.88281 9.22029 3.37543 11.0531C3.26493 11.4523 3.49827 11.8656 3.8966 11.9763C4.29494 12.087 4.70742 11.8532 4.81792 11.4541C5.25627 9.8706 6.09599 8.42771 7.25547 7.26562C8.41494 6.10354 9.85473 5.26181 11.4349 4.82222Z" fill="#7D8198"/>
<path d="M8.99538 22.1138C8.64366 21.8961 8.18247 22.0054 7.96528 22.3579C7.7481 22.7103 7.85717 23.1724 8.20889 23.3901C9.08835 23.9342 10.0399 24.3515 11.0356 24.6295C11.4338 24.7408 11.8466 24.5074 11.9576 24.1084C12.0685 23.7094 11.8357 23.2958 11.4375 23.1846C10.5773 22.9444 9.75519 22.5839 8.99538 22.1138Z" fill="#7D8198"/>
<path d="M3.68928 14.0005C4.10153 13.97 4.4605 14.2801 4.49107 14.6932C4.62825 16.5473 5.30397 18.3208 6.43491 19.795C6.68688 20.1234 6.62546 20.5943 6.29774 20.8467C5.97003 21.099 5.5001 21.0374 5.24814 20.7089C3.9391 19.0026 3.15697 16.9498 2.99818 14.8037C2.96761 14.3906 3.27703 14.031 3.68928 14.0005Z" fill="#7D8198"/>
</svg>
