<svg width="28" height="28" viewBox="0 0 28 28" fill="none" xmlns="http://www.w3.org/2000/svg">
<path d="M6.75 20C5.23122 20 4 18.7664 4 17.25V6.74571C4 5.2293 5.23122 4 6.75 4H21.25C22.7688 4 24 5.2293 24 6.74571V17.25C24 18.7664 22.7688 20 21.25 20H20.75C20.3358 20 20 19.6636 20 19.25C20 18.8364 20.3358 18.5 20.75 18.5H21.25C21.9404 18.5 22.5 17.9393 22.5 17.25C22.5 16.5607 22.5 6.74571 22.5 6.74571C22.5 6.05643 21.9404 5.49766 21.25 5.49766L6.75 5.49766C6.05964 5.49766 5.5 6.05643 5.5 6.74571L5.5 17.25C5.5 17.9393 6.05964 18.5 6.75 18.5H7.25C7.66421 18.5 8 18.8364 8 19.25C8 19.6636 7.66421 20 7.25 20H6.75Z" fill="#7D8198"/>
<path d="M8.16544 22.782C7.98462 23.0066 7.94893 23.3149 8.07365 23.5748C8.19838 23.8346 8.46139 24 8.75001 24H19.25C19.5386 24 19.8016 23.8346 19.9264 23.5748C20.0511 23.3149 20.0154 23.0066 19.8346 22.782L14.5844 16.261C14.4421 16.0841 14.2271 15.9813 13.9999 15.9813C13.7727 15.9813 13.5577 16.0841 13.4153 16.261L8.16544 22.782Z" fill="#7D8198"/>
</svg>
