<svg width="28" height="28" viewBox="0 0 28 28" fill="none" xmlns="http://www.w3.org/2000/svg">
<path d="M12.75 14.252C11.5074 14.252 10.5 13.2446 10.5 12.002V11.75C10.5 11.3358 10.1642 11 9.75 11C9.33579 11 9 11.3358 9 11.75V12.002C9 14.073 10.6789 15.752 12.75 15.752H17.3392L15.2398 17.7003C14.9362 17.982 14.9185 18.4566 15.2003 18.7602C15.482 19.0638 15.9566 19.0815 16.2602 18.7997L19.7602 15.5516C19.913 15.4097 19.9999 15.2106 20 15.0021C20.0001 14.7935 19.9133 14.5944 19.7605 14.4524L16.2605 11.2006C15.957 10.9186 15.4825 10.9361 15.2006 11.2395C14.9186 11.543 14.9361 12.0175 15.2395 12.2994L17.341 14.252H12.75Z" fill="#7D8198"/>
<path fill-rule="evenodd" clip-rule="evenodd" d="M6.75 5C5.23122 5 4 6.23122 4 7.75V20.25C4 21.7688 5.23122 23 6.75 23H22.25C23.7688 23 25 21.7688 25 20.25V9.75C25 8.23122 23.7688 7 22.25 7H15.6056C15.3588 7 15.1175 6.92695 14.9122 6.79006L12.9199 5.46186C12.4681 5.1607 11.9374 5 11.3944 5H6.75ZM5.5 7.75C5.5 7.05964 6.05964 6.5 6.75 6.5H11.3944C11.6412 6.5 11.8825 6.57305 12.0878 6.70994L14.0801 8.03814C14.5319 8.3393 15.0626 8.5 15.6056 8.5H22.25C22.9404 8.5 23.5 9.05964 23.5 9.75V20.25C23.5 20.9404 22.9404 21.5 22.25 21.5H6.75C6.05964 21.5 5.5 20.9404 5.5 20.25V7.75Z" fill="#7D8198"/>
</svg>
