<svg width="28" height="28" viewBox="0 0 28 28" fill="none" xmlns="http://www.w3.org/2000/svg">
<path d="M14.75 10.5017L18.2501 10.501C18.6644 10.5009 19.0001 10.165 19 9.75083C18.9999 9.33662 18.6641 9.0009 18.2499 9.00098L9.74985 9.00262C9.33564 9.00271 8.99992 9.33856 9 9.75277C9.00008 10.167 9.33593 10.5027 9.75015 10.5026L13.25 10.5019V18.25C13.25 18.6642 13.5858 19 14 19C14.4142 19 14.75 18.6642 14.75 18.25V10.5017Z" fill="#7D8198"/>
<path fill-rule="evenodd" clip-rule="evenodd" d="M4 6.75C4 5.23122 5.23122 4 6.75 4H21.25C22.7688 4 24 5.23122 24 6.75V21.25C24 22.7688 22.7688 24 21.25 24H6.75C5.23122 24 4 22.7688 4 21.25V6.75ZM6.75 5.5C6.05964 5.5 5.5 6.05964 5.5 6.75V21.25C5.5 21.9404 6.05964 22.5 6.75 22.5H21.25C21.9404 22.5 22.5 21.9404 22.5 21.25V6.75C22.5 6.05964 21.9404 5.5 21.25 5.5H6.75Z" fill="#7D8198"/>
</svg>
