<svg width="28" height="28" viewBox="0 0 28 28" fill="none" xmlns="http://www.w3.org/2000/svg">
    <path fill-rule="evenodd" clip-rule="evenodd"
        d="M9.38193 6.29163C9.25899 6.29163 9.15971 6.39091 9.15971 6.51385V8.94093V9.29623C9.15974 9.30005 9.15974 9.30388 9.15971 9.3077V13.4848L13.9999 15.8395L18.8403 13.4847V10.9217L9.15971 8.94093L18.8403 10.9217V9.32015C18.84 9.30837 18.84 9.29657 18.8403 9.28475V6.51385C18.8403 6.39091 18.741 6.29163 18.618 6.29163H9.38193ZM20.3403 8.8766V6.51385C20.3403 5.56248 19.5694 4.79163 18.618 4.79163H9.38193C8.43056 4.79163 7.65971 5.56248 7.65971 6.51385V8.87601L5.3367 10.2573L5.33665 10.2573C4.66681 10.6556 4.25684 11.377 4.25684 12.1557V19.5902C4.25684 21.3466 5.68103 22.7708 7.43739 22.7708H20.5624C22.3188 22.7708 23.7429 21.3466 23.7429 19.5902V12.1561C23.7429 11.3771 23.3322 10.656 22.6634 10.258L22.6631 10.2578L20.3403 8.8766ZM20.3403 10.6217V11.2286L21.8962 11.547L20.3403 10.6217ZM20.3403 11.2287V12.755L22.1783 11.8608C22.1193 11.7322 22.0221 11.622 21.8965 11.5471L20.3403 11.2287ZM22.2429 13.4975L14.328 17.348C14.1209 17.4487 13.8789 17.4487 13.6718 17.348L5.75684 13.4975V19.5902C5.75684 20.5182 6.50945 21.2708 7.43739 21.2708H20.5624C21.4903 21.2708 22.2429 20.5182 22.2429 19.5902V13.4975ZM5.82113 11.8607L7.65971 12.7551V10.6211L6.10328 11.5466L6.10322 11.5467C5.97738 11.6215 5.88012 11.7318 5.82113 11.8607Z"
        fill="#BCBED2" />
</svg>
