<svg width="28" height="29" viewBox="0 0 28 29" fill="none" xmlns="http://www.w3.org/2000/svg">
<path d="M20.25 11.49C20.6642 11.49 21 11.8258 21 12.24V16.74C21 17.1542 20.6642 17.49 20.25 17.49C19.8358 17.49 19.5 17.1542 19.5 16.74V12.24C19.5 11.8258 19.8358 11.49 20.25 11.49Z" fill="#7D8198"/>
<path fill-rule="evenodd" clip-rule="evenodd" d="M21.25 6.48999C22.7688 6.48999 24 7.72121 24 9.23999V19.74C24 21.2588 22.7688 22.49 21.25 22.49H6.75C5.23122 22.49 4 21.2588 4 19.74V9.23999C4 7.72121 5.23122 6.48999 6.75 6.48999H21.25ZM6.75 7.98999C6.05964 7.98999 5.5 8.54963 5.5 9.23999V19.74C5.5 20.4303 6.05964 20.99 6.75 20.99H21.25C21.9404 20.99 22.5 20.4303 22.5 19.74V9.23999C22.5 8.54963 21.9404 7.98999 21.25 7.98999H6.75Z" fill="#7D8198"/>
</svg>
