<svg width="28" height="28" viewBox="0 0 28 28" fill="none" xmlns="http://www.w3.org/2000/svg">
<path fill-rule="evenodd" clip-rule="evenodd" d="M10.5 8C10.5 6.02618 12.0616 4.5 14 4.5C15.4347 4.5 16.6593 5.33602 17.2011 6.56228C17.3685 6.94117 17.8113 7.11263 18.1902 6.94524C18.5691 6.77785 18.7405 6.33501 18.5731 5.95612C17.7937 4.19195 16.0346 3 14 3C11.2438 3 9 5.18715 9 8V10H8.74622C7.22743 10 5.99622 11.2312 5.99622 12.75V21.25C5.99622 22.7688 7.22743 24 8.74622 24H19.2462C20.765 24 21.9962 22.7688 21.9962 21.25V12.75C21.9962 11.2312 20.765 10 19.2462 10H10.5V8ZM7.49622 12.75C7.49622 12.0596 8.05586 11.5 8.74622 11.5H19.2462C19.9366 11.5 20.4962 12.0596 20.4962 12.75V21.25C20.4962 21.9404 19.9366 22.5 19.2462 22.5H8.74622C8.05586 22.5 7.49622 21.9404 7.49622 21.25V12.75Z" fill="#7D8198"/>
</svg>
