<svg width="28" height="28" viewBox="0 0 28 28" fill="none" xmlns="http://www.w3.org/2000/svg">
<path fill-rule="evenodd" clip-rule="evenodd" d="M23.8359 10.2896L21 8.28785V5.75C21 4.7835 20.2165 4 19.25 4H8.75C7.7835 4 7 4.7835 7 5.75V8.28785L4.16412 10.2897C3.43413 10.8049 3 11.6428 3 12.5363V21.25C3 22.7688 4.23122 24 5.75 24H22.25C23.7688 24 25 22.7688 25 21.25V12.5363C25 11.6428 24.5659 10.8049 23.8359 10.2896ZM8.5 13.1815L13.4918 15.4029C13.8153 15.5468 14.1847 15.5468 14.5082 15.4029L19.5 13.1815V5.75C19.5 5.61193 19.3881 5.5 19.25 5.5L8.75 5.5C8.61193 5.5 8.5 5.61193 8.5 5.75V13.1815ZM21 12.514L23.07 11.5929C23.0385 11.5654 23.0054 11.5395 22.9709 11.5151L21 10.1239V12.514ZM23.5 13.0433V21.25C23.5 21.9404 22.9404 22.5 22.25 22.5L5.75 22.5C5.05964 22.5 4.5 21.9404 4.5 21.25L4.5 13.0433L12.882 16.7733C13.5937 17.09 14.4063 17.09 15.118 16.7733L23.5 13.0433ZM4.92999 11.5929C4.96154 11.5654 4.99461 11.5395 5.02915 11.5151L7 10.1239V12.514L4.92999 11.5929Z" fill="#7D8198"/>
</svg>
