<svg width="28" height="28" viewBox="0 0 28 28" fill="none" xmlns="http://www.w3.org/2000/svg">
<path fill-rule="evenodd" clip-rule="evenodd" d="M4.88962 5.51537C5.00704 4.64746 5.748 4 6.62382 4H21.3762C22.252 4 22.993 4.64746 23.1104 5.51537L23.9898 12.0154C24.1319 13.0655 23.3153 14 22.2556 14H5.74441C4.68467 14 3.86813 13.0655 4.01021 12.0154L4.88962 5.51537ZM6.62382 5.5C6.4987 5.5 6.39285 5.59249 6.37608 5.71648L5.49667 12.2165C5.47637 12.3665 5.59302 12.5 5.74441 12.5H22.2556C22.407 12.5 22.5236 12.3665 22.5033 12.2165L21.6239 5.71648C21.6072 5.59249 21.5013 5.5 21.3762 5.5H6.62382Z" fill="#7D8198"/>
<path fill-rule="evenodd" clip-rule="evenodd" d="M4 18.25C4 17.8358 4.33578 17.5 4.75 17.5H23.25C23.6642 17.5 24 17.8358 24 18.25C24 18.6642 23.6642 19 23.25 19H4.75C4.33578 19 4 18.6642 4 18.25Z" fill="#7D8198"/>
<path fill-rule="evenodd" clip-rule="evenodd" d="M4 23.25C4 22.8358 4.33578 22.5 4.75 22.5H23.25C23.6642 22.5 24 22.8358 24 23.25C24 23.6642 23.6642 24 23.25 24H4.75C4.33578 24 4 23.6642 4 23.25Z" fill="#7D8198"/>
</svg>
