<svg width="28" height="28" viewBox="0 0 28 28" fill="none" xmlns="http://www.w3.org/2000/svg">
<path fill-rule="evenodd" clip-rule="evenodd" d="M3.21664 4.28071L23.7201 24.7807C24.013 25.0735 24.4877 25.0734 24.7804 24.7802C25.0731 24.4871 25.0729 24.0121 24.78 23.7192L4.27653 3.21928C3.98362 2.92641 3.50889 2.9266 3.21621 3.21971C2.92353 3.51281 2.92372 3.98784 3.21664 4.28071ZM17.0006 5.24725V13.8201L15.5006 12.3203V5.75094C14.6714 6.36134 13.9349 6.94466 13.1934 7.53412L13.089 7.61709C12.6703 7.94998 12.248 8.28576 11.8074 8.62774L10.7381 7.55858C11.2253 7.18254 11.6914 6.81196 12.1617 6.43806L12.26 6.35994C13.1216 5.67499 14.0013 4.97832 15.0348 4.23481C15.8692 3.6345 17.0006 4.24747 17.0006 5.24725ZM5.75 10.5H7.32448L5.82422 9H5.75C4.23122 9 3 10.2312 3 11.75V16.25C3 17.7724 4.22761 19.0051 5.75 19L7.75 19.0032C8.46307 19.0008 9.0566 19.233 9.6247 19.664L14.9951 23.7383C15.8183 24.3628 17.0006 23.7832 17.0006 22.75V20.1835L15.5006 18.6838V22.239L10.5313 18.469C9.70101 17.8391 8.79218 17.4997 7.75 17.5032L5.75 17.5C5.05801 17.5023 4.5 16.942 4.5 16.25V11.75C4.5 11.0596 5.05964 10.5 5.75 10.5Z" fill="#7D8198"/>
</svg>
