<svg width="28" height="28" viewBox="0 0 28 28" fill="none" xmlns="http://www.w3.org/2000/svg">
<path d="M14.75 10.6364L17.7047 13.765C17.9891 14.0661 18.4638 14.0797 18.765 13.7953C19.0661 13.5109 19.0797 13.0362 18.7953 12.735L14.5453 8.23504C14.4037 8.08502 14.2064 8 14.0001 8C13.7937 8 13.5965 8.08501 13.4548 8.23503L9.20474 12.735C8.92033 13.0362 8.93389 13.5108 9.23503 13.7953C9.53616 14.0797 10.0108 14.0661 10.2953 13.765L13.25 10.6365V19.25C13.25 19.6642 13.5858 20 14 20C14.4142 20 14.75 19.6642 14.75 19.25V10.6364Z" fill="#7D8198"/>
<path fill-rule="evenodd" clip-rule="evenodd" d="M25 14C25 20.0751 20.0751 25 14 25C7.92487 25 3 20.0751 3 14C3 7.92487 7.92487 3 14 3C20.0751 3 25 7.92487 25 14ZM14 23.5C19.2467 23.5 23.5 19.2467 23.5 14C23.5 8.75329 19.2467 4.5 14 4.5C8.75329 4.5 4.5 8.75329 4.5 14C4.5 19.2467 8.75329 23.5 14 23.5Z" fill="#7D8198"/>
</svg>
