<svg width="28" height="29" viewBox="0 0 28 29" fill="none" xmlns="http://www.w3.org/2000/svg">
<path d="M19.251 14.49C19.6651 14.4901 20.001 14.8258 20.001 15.24V19.74C20.001 20.1541 19.6651 20.4899 19.251 20.49H14.75C14.3358 20.49 14 20.1542 14 19.74C14 19.3258 14.3358 18.99 14.75 18.99H18.501V15.24C18.501 14.8258 18.8368 14.49 19.251 14.49Z" fill="#7D8198"/>
<path d="M13.25 8.48999C13.6642 8.49006 14 8.82582 14 9.23999C14 9.65416 13.6642 9.98992 13.25 9.98999H9.49902V13.74C9.49902 14.1542 9.16324 14.49 8.74902 14.49C8.33487 14.4899 7.99902 14.1542 7.99902 13.74V9.23999C7.99902 8.82582 8.33487 8.49006 8.74902 8.48999H13.25Z" fill="#7D8198"/>
<path fill-rule="evenodd" clip-rule="evenodd" d="M21.25 4.48999C22.7688 4.48999 24 5.72121 24 7.23999V21.74C24 23.2588 22.7688 24.49 21.25 24.49H6.75C5.23122 24.49 4 23.2588 4 21.74V7.23999C4 5.72121 5.23122 4.48999 6.75 4.48999H21.25ZM6.75 5.98999C6.05964 5.98999 5.5 6.54963 5.5 7.23999V21.74C5.5 22.4303 6.05964 22.99 6.75 22.99H21.25C21.9404 22.99 22.5 22.4303 22.5 21.74V7.23999C22.5 6.54963 21.9404 5.98999 21.25 5.98999H6.75Z" fill="#7D8198"/>
</svg>
