<svg width="28" height="28" viewBox="0 0 28 28" fill="none" xmlns="http://www.w3.org/2000/svg">
<path d="M9.24829 10.5C9.6625 10.5 9.99829 10.1642 9.99829 9.75C9.99829 9.33579 9.6625 9 9.24829 9H6.75262C6.33841 9 6.00262 9.33579 6.00262 9.75C6.00262 10.1642 6.33841 10.5 6.75262 10.5H9.24829Z" fill="#7D8198"/>
<path d="M9.99829 13.75C9.99829 14.1642 9.6625 14.5 9.24829 14.5H6.75262C6.33841 14.5 6.00262 14.1642 6.00262 13.75C6.00262 13.3358 6.33841 13 6.75262 13H9.24829C9.6625 13 9.99829 13.3358 9.99829 13.75Z" fill="#7D8198"/>
<path d="M9.24829 18.5C9.6625 18.5 9.99829 18.1642 9.99829 17.75C9.99829 17.3358 9.6625 17 9.24829 17H6.75262C6.33841 17 6.00262 17.3358 6.00262 17.75C6.00262 18.1642 6.33841 18.5 6.75262 18.5H9.24829Z" fill="#7D8198"/>
<path fill-rule="evenodd" clip-rule="evenodd" d="M3 7.75C3 6.23122 4.23122 5 5.75 5H22.25C23.7688 5 25 6.23122 25 7.75V20.25C25 21.7688 23.7688 23 22.25 23H5.75C4.23122 23 3 21.7688 3 20.25V7.75ZM5.75 6.5C5.05964 6.5 4.5 7.05964 4.5 7.75V20.25C4.5 20.9404 5.05964 21.5 5.75 21.5H11.5L11.5 6.5H5.75ZM22.25 21.5H13L13 6.5H22.25C22.9404 6.5 23.5 7.05964 23.5 7.75V20.25C23.5 20.9404 22.9404 21.5 22.25 21.5Z" fill="#7D8198"/>
</svg>
