<svg width="28" height="28" viewBox="0 0 28 28" fill="none" xmlns="http://www.w3.org/2000/svg">
<path d="M22.25 23C21.8357 23 21.5 22.6642 21.5 22.25L21.5 5.75C21.5 5.33579 21.8357 5 22.25 5C22.6642 5 23 5.33579 23 5.75L23 22.25C23 22.6642 22.6642 23 22.25 23Z" fill="#7D8198"/>
<path d="M16.3786 14.75L12.2357 18.7077C11.9362 18.9938 11.9253 19.4686 12.2114 19.7681C12.4975 20.0676 12.9723 20.0784 13.2718 19.7923L18.7674 14.5424C18.9155 14.4009 18.9993 14.2049 18.9993 14.0001C18.9993 13.7952 18.9155 13.5993 18.7674 13.4578L13.2718 8.20769C12.9723 7.92157 12.4976 7.93242 12.2114 8.23192C11.9253 8.53143 11.9362 9.00618 12.2357 9.29231L16.3784 13.25H4.75061C4.3364 13.25 4.00061 13.5858 4.00061 14C4.00061 14.4142 4.3364 14.75 4.75061 14.75H16.3786Z" fill="#7D8198"/>
</svg>
