<svg width="28" height="28" viewBox="0 0 28 28" fill="none" xmlns="http://www.w3.org/2000/svg">
<path fill-rule="evenodd" clip-rule="evenodd" d="M7 7.75C7 6.23122 8.23122 5 9.75 5H18.25C19.7688 5 21 6.23122 21 7.75V22.25C21 22.5315 20.8424 22.7892 20.5919 22.9175C20.3414 23.0458 20.0402 23.0231 19.8118 22.8587L14 18.6742L8.18823 22.8587C7.95982 23.0231 7.65857 23.0458 7.40807 22.9175C7.15757 22.7892 7 22.5315 7 22.25V7.75ZM9.75 6.5C9.05964 6.5 8.5 7.05964 8.5 7.75V20.7858L13.5618 17.1413C13.8235 16.9529 14.1765 16.9529 14.4382 17.1413L19.5 20.7858V7.75C19.5 7.05964 18.9404 6.5 18.25 6.5H9.75Z" fill="#7D8198"/>
</svg>
