<svg width="28" height="28" viewBox="0 0 28 28" fill="none" xmlns="http://www.w3.org/2000/svg">
<path d="M13.25 3.75C13.25 3.33579 13.5858 3 14 3C20.075 3 25 7.92502 25 14C25 20.075 20.075 25 14 25C7.92502 25 3 20.075 3 14C3 10.963 4.23224 8.21198 6.22146 6.22217C6.51431 5.92923 6.98918 5.92916 7.28212 6.22201C7.57505 6.51486 7.57512 6.98973 7.28227 7.28267C5.56265 9.00281 4.5 11.3768 4.5 14C4.5 19.2466 8.75344 23.5 14 23.5C19.2466 23.5 23.5 19.2466 23.5 14C23.5 9.00586 19.646 4.91158 14.75 4.52917V6.25C14.75 6.66421 14.4142 7 14 7C13.5858 7 13.25 6.66421 13.25 6.25V3.75Z" fill="#7D8198"/>
<path d="M9.21964 9.2197C9.51252 8.92679 9.9874 8.92676 10.2803 9.21964L13.2191 12.1582C13.459 12.0563 13.7229 12 14 12C15.1046 12 16 12.8954 16 14C16 15.1046 15.1046 16 14 16C12.8954 16 12 15.1046 12 14C12 13.7228 12.0564 13.4587 12.1584 13.2187L9.2197 10.2804C8.92679 9.98748 8.92676 9.5126 9.21964 9.2197Z" fill="#7D8198"/>
</svg>
