<svg width="28" height="28" viewBox="0 0 28 28" fill="none" xmlns="http://www.w3.org/2000/svg">
<path d="M13.7997 18.7602C13.518 19.0638 13.0434 19.0815 12.7398 18.7997L9.23982 15.5516C9.08695 15.4098 9.00006 15.2106 9 15.0021C8.99994 14.7935 9.08672 14.5944 9.2395 14.4524L12.7395 11.2006C13.043 10.9186 13.5175 10.9361 13.7994 11.2395C14.0814 11.543 14.0639 12.0175 13.7605 12.2995L11.659 14.252H16.25C17.4926 14.252 18.5 13.2446 18.5 12.002V11.75C18.5 11.3358 18.8358 11 19.25 11C19.6642 11 20 11.3358 20 11.75V12.002C20 14.073 18.3211 15.752 16.25 15.752H11.6608L13.7602 17.7003C14.0638 17.982 14.0815 18.4566 13.7997 18.7602Z" fill="#7D8198"/>
<path fill-rule="evenodd" clip-rule="evenodd" d="M6.75 5C5.23122 5 4 6.23122 4 7.75V20.25C4 21.7688 5.23122 23 6.75 23H22.25C23.7688 23 25 21.7688 25 20.25V9.75C25 8.23122 23.7688 7 22.25 7H15.6056C15.3588 7 15.1175 6.92695 14.9122 6.79006L12.9199 5.46186C12.4681 5.1607 11.9374 5 11.3944 5H6.75ZM5.5 7.75C5.5 7.05964 6.05964 6.5 6.75 6.5H11.3944C11.6412 6.5 11.8825 6.57305 12.0878 6.70994L14.0801 8.03814C14.5319 8.3393 15.0626 8.5 15.6056 8.5H22.25C22.9404 8.5 23.5 9.05964 23.5 9.75V20.25C23.5 20.9404 22.9404 21.5 22.25 21.5H6.75C6.05964 21.5 5.5 20.9404 5.5 20.25V7.75Z" fill="#7D8198"/>
</svg>
