<svg width="28" height="28" viewBox="0 0 28 28" fill="none" xmlns="http://www.w3.org/2000/svg">
<path fill-rule="evenodd" clip-rule="evenodd" d="M10 11C10 8.79086 11.7909 7 14 7C16.2091 7 18 8.79086 18 11C18 13.2091 16.2091 15 14 15C11.7909 15 10 13.2091 10 11ZM14 8.5C12.6193 8.5 11.5 9.61929 11.5 11C11.5 12.3807 12.6193 13.5 14 13.5C15.3807 13.5 16.5 12.3807 16.5 11C16.5 9.61929 15.3807 8.5 14 8.5Z" fill="#7D8198"/>
<path fill-rule="evenodd" clip-rule="evenodd" d="M20.5942 22.8052C23.2693 20.7986 25 17.6014 25 14C25 7.92487 20.0751 3 14 3C7.92487 3 3 7.92487 3 14C3 17.6015 4.73079 20.7987 7.40597 22.8053C7.44112 22.8393 7.47861 22.8714 7.51832 22.9013C8.0342 23.2895 9.32902 24.1536 11.2112 24.6434C12.0933 24.8739 13.0185 24.9976 13.9722 25C13.9815 25 13.9907 25 13.9999 25C15.0421 25 15.986 24.8544 16.8151 24.6365M20.5982 20.8348C22.3873 19.1072 23.5 16.6835 23.5 14C23.5 8.75329 19.2467 4.5 14 4.5C8.75329 4.5 4.5 8.75329 4.5 14C4.5 16.6835 5.61266 19.1072 7.40182 20.8348C7.66134 20.2656 8.08298 19.5596 8.7541 18.9064C9.82972 17.8595 11.4946 17 13.9999 17C16.5052 17 18.1701 17.8595 19.2458 18.9063C19.917 19.5595 20.3386 20.2656 20.5982 20.8348ZM19.3844 21.8279C19.2194 21.3679 18.8732 20.6369 18.1996 19.9813C17.412 19.2148 16.1257 18.5 13.9999 18.5C11.8741 18.5 10.5879 19.2148 9.8003 19.9813C9.12671 20.6369 8.78057 21.3679 8.61565 21.8279C9.54452 22.468 10.593 22.9471 11.7206 23.2248C12.4436 23.4028 13.1992 23.4981 13.9768 23.5C13.9845 23.5 13.9922 23.5 13.9999 23.5C14.8471 23.5 15.6193 23.3884 16.304 23.2187C17.4223 22.9401 18.4623 22.4633 19.3844 21.8279Z" fill="#7D8198"/>
</svg>
