<svg width="28" height="28" viewBox="0 0 28 28" fill="none" xmlns="http://www.w3.org/2000/svg">
<path d="M18.8116 11.2495C19.0861 10.9393 19.0572 10.4653 18.747 10.1908C18.4368 9.91629 17.9628 9.94522 17.6883 10.2554L12.5342 16.0796L10.3397 13.2866C10.0838 12.9609 9.61231 12.9044 9.2866 13.1603C8.9609 13.4162 8.90432 13.8877 9.16023 14.2134L11.9102 17.7134C12.0477 17.8883 12.2557 17.9932 12.478 17.9997C12.7004 18.0062 12.9142 17.9136 13.0616 17.747L18.8116 11.2495Z" fill="#7D8198"/>
<path fill-rule="evenodd" clip-rule="evenodd" d="M6.75 4C5.23122 4 4 5.23122 4 6.75V21.25C4 22.7688 5.23122 24 6.75 24H21.25C22.7688 24 24 22.7688 24 21.25V6.75C24 5.23122 22.7688 4 21.25 4H6.75ZM5.5 6.75C5.5 6.05964 6.05964 5.5 6.75 5.5H21.25C21.9404 5.5 22.5 6.05964 22.5 6.75V21.25C22.5 21.9404 21.9404 22.5 21.25 22.5H6.75C6.05964 22.5 5.5 21.9404 5.5 21.25V6.75Z" fill="#7D8198"/>
</svg>
