<svg width="28" height="28" viewBox="0 0 28 28" fill="none" xmlns="http://www.w3.org/2000/svg">
    <path fill-rule="evenodd" clip-rule="evenodd"
        d="M22.0417 6.70837C22.0417 6.29416 21.7059 5.95837 21.2917 5.95837H14.4862C14.0719 5.95837 13.7362 6.29416 13.7362 6.70837C13.7362 7.12259 14.0719 7.45837 14.4862 7.45837L20.5417 7.45837V13.5139C20.5417 13.9281 20.8775 14.2639 21.2917 14.2639C21.7059 14.2639 22.0417 13.9281 22.0417 13.5139L22.0417 6.70837ZM5.95837 21.2917C5.95837 21.7059 6.29416 22.0417 6.70837 22.0417L13.5139 22.0417C13.9281 22.0417 14.2639 21.7059 14.2639 21.2917C14.2639 20.8775 13.9281 20.5417 13.5139 20.5417H7.45837L7.45837 14.4862C7.45837 14.0719 7.12259 13.7362 6.70837 13.7362C6.29416 13.7362 5.95837 14.0719 5.95837 14.4862V21.2917Z"
        fill="#BCBED2" />
</svg>
