<svg width="28" height="28" viewBox="0 0 28 28" fill="none" xmlns="http://www.w3.org/2000/svg">
<path fill-rule="evenodd" clip-rule="evenodd" d="M3.99994 6.75C3.99994 5.23122 5.23116 4 6.74994 4H21.2499C22.7687 4 23.9999 5.23122 23.9999 6.75V21.25C23.9999 22.7688 22.7687 24 21.2499 24H6.74994C5.23116 24 3.99994 22.7688 3.99994 21.25V6.75ZM8 5.99999C8 6.55228 7.55228 6.99999 7 6.99999C6.44772 6.99999 6 6.55228 6 5.99999C6 5.44771 6.44772 4.99999 7 4.99999C7.55228 4.99999 8 5.44771 8 5.99999ZM5.5 8.49902C5.5 8.22288 5.72386 7.99902 6 7.99902H22C22.2761 7.99902 22.5 8.22288 22.5 8.49902V22C22.5 22.2761 22.2761 22.5 22 22.5H6C5.72386 22.5 5.5 22.2761 5.5 22V8.49902ZM10 6.99999C10.5523 6.99999 11 6.55228 11 5.99999C11 5.44771 10.5523 4.99999 10 4.99999C9.44772 4.99999 9 5.44771 9 5.99999C9 6.55228 9.44772 6.99999 10 6.99999ZM14 5.99999C14 6.55228 13.5523 6.99999 13 6.99999C12.4477 6.99999 12 6.55228 12 5.99999C12 5.44771 12.4477 4.99999 13 4.99999C13.5523 4.99999 14 5.44771 14 5.99999Z" fill="#7D8198"/>
</svg>
