<svg width="28" height="28" viewBox="0 0 28 28" fill="none" xmlns="http://www.w3.org/2000/svg">
<path d="M18.8901 14.1398C19.106 13.7863 18.9944 13.3247 18.6409 13.1088C18.2874 12.8929 17.8259 13.0045 17.6099 13.358L15.3192 17.1085L14.2381 16.1818C13.9236 15.9123 13.4501 15.9487 13.1806 16.2632C12.911 16.5777 12.9474 17.0511 13.2619 17.3207L15.0119 18.8207C15.1788 18.9638 15.4001 19.0264 15.6172 18.9921C15.8343 18.9577 16.0255 18.8298 16.1401 18.6422L18.8901 14.1398Z" fill="#7D8198"/>
<path fill-rule="evenodd" clip-rule="evenodd" d="M4 6.75C4 5.23122 5.23122 4 6.75 4H17.25C18.7688 4 20 5.23122 20 6.75V8H21.25C22.7688 8 24 9.23122 24 10.75V21.25C24 22.7688 22.7688 24 21.25 24H10.75C9.23122 24 8 22.7688 8 21.25V20H6.75C5.23122 20 4 18.7688 4 17.25V6.75ZM18.5 6.75V8H10.75C9.23122 8 8 9.23122 8 10.75V18.5H6.75C6.05964 18.5 5.5 17.9404 5.5 17.25V6.75C5.5 6.05964 6.05964 5.5 6.75 5.5H17.25C17.9404 5.5 18.5 6.05964 18.5 6.75ZM10.75 9.5C10.0596 9.5 9.5 10.0596 9.5 10.75V21.25C9.5 21.9404 10.0596 22.5 10.75 22.5H21.25C21.9404 22.5 22.5 21.9404 22.5 21.25V10.75C22.5 10.0596 21.9404 9.5 21.25 9.5H10.75Z" fill="#7D8198"/>
</svg>
