<svg width="28" height="28" viewBox="0 0 28 28" fill="none" xmlns="http://www.w3.org/2000/svg">
<path fill-rule="evenodd" clip-rule="evenodd" d="M17.3 5.1C20.9 6.4 23.5 9.9 23.5 14C23.5 16.7 22.4 19.1 20.6 20.9V20.5C20.6 19.3 19.6 18.3 18.4 18.3C17.8 18.3 17.3 17.8 17.3 17.2L16.8 15.3C16.8 14.7 16.3 14.2 15.7 14.2L11.9 13.9C11.3 13.9 10.8 13.4 10.8 12.8C10.8 12.2 11.3 11.7 11.9 11.7C12.5 11.7 13 11.2 13 10.6V9.7C13 9.1 13.5 8.6 14.1 8.6H15.2C16.4 8.6 17.4 7.6 17.4 6.4V5.1H17.3ZM13 23.4V20.5C11.8 20.5 10.8 19.5 10.8 18.3C10.8 17.6 10.6 16.9 10.2 16.3L9.8 15.7C8.7 14.2 7.4 12.9 5.9 11.8L4.9 11.2C4.6 12.1 4.5 13 4.5 14C4.5 18.9 8.2 22.9 13 23.4ZM25 14C25 7.9 20.1 3 14 3C7.9 3 3 7.9 3 14C3 20.1 7.9 25 14 25C20.1 25 25 20.1 25 14Z" fill="#7D8198"/>
</svg>
