<svg width="28" height="28" viewBox="0 0 28 28" fill="none" xmlns="http://www.w3.org/2000/svg">
<path d="M3 5.74646C3 4.22768 4.23122 2.99646 5.75 2.99646H6.25C6.66421 2.99646 7 3.33225 7 3.74646C7 4.16067 6.66421 4.49646 6.25 4.49646H5.75C5.05964 4.49646 4.5 5.0561 4.5 5.74646V6.24646C4.5 6.66067 4.16421 6.99646 3.75 6.99646C3.33579 6.99646 3 6.66067 3 6.24646V5.74646Z" fill="#7D8198"/>
<path d="M22.2495 2.99646C23.7683 2.99646 24.9995 4.22768 24.9995 5.74646V6.24646C24.9995 6.66067 24.6637 6.99646 24.2495 6.99646C23.8353 6.99646 23.4995 6.66067 23.4995 6.24646V5.74646C23.4995 5.0561 22.9399 4.49646 22.2495 4.49646H21.7495C21.3353 4.49646 20.9995 4.16067 20.9995 3.74646C20.9995 3.33225 21.3353 2.99646 21.7495 2.99646H22.2495Z" fill="#7D8198"/>
<path d="M22.25 24.9965C23.7688 24.9965 25 23.7652 25 22.2465V21.7465C25 21.3322 24.6642 20.9965 24.25 20.9965C23.8358 20.9965 23.5 21.3322 23.5 21.7465V22.2465C23.5 22.9368 22.9404 23.4965 22.25 23.4965H21.75C21.3358 23.4965 21 23.8322 21 24.2465C21 24.6607 21.3358 24.9965 21.75 24.9965H22.25Z" fill="#7D8198"/>
<path d="M5.75 24.9965C4.23122 24.9965 3 23.7652 3 22.2465V21.7465C3 21.3322 3.33579 20.9965 3.75 20.9965C4.16421 20.9965 4.5 21.3322 4.5 21.7465V22.2465C4.5 22.9368 5.05964 23.4965 5.75 23.4965H6.25C6.66421 23.4965 7 23.8322 7 24.2465C7 24.6607 6.66421 24.9965 6.25 24.9965H5.75Z" fill="#7D8198"/>
<path d="M18.5 20.25C18.5 20.6642 18.8358 21 19.25 21C19.6642 21 20 20.6642 20 20.25V16.75C20 16.5511 19.921 16.3603 19.7803 16.2197L17.5 13.9393V5.75C17.5 5.33579 17.1642 5 16.75 5C16.3358 5 16 5.33579 16 5.75V14.25C16 14.4489 16.079 14.6397 16.2197 14.7803L18.5 17.0607V20.25Z" fill="#7D8198"/>
<path d="M8.75 7C9.16421 7 9.5 7.33579 9.5 7.75V10.8598L11.6775 12.3858C11.8778 12.5262 11.9971 12.7554 11.9971 13V22.25C11.9971 22.6642 11.6613 23 11.2471 23C10.8329 23 10.4971 22.6642 10.4971 22.25V13.3902L8.31956 11.8642C8.11927 11.7238 8 11.4946 8 11.25V7.75C8 7.33579 8.33579 7 8.75 7Z" fill="#7D8198"/>
<path d="M14.75 9.75C14.75 9.33579 14.4142 9 14 9C13.5858 9 13.25 9.33579 13.25 9.75L13.25 22.25C13.25 22.6642 13.5858 23 14 23C14.4142 23 14.75 22.6642 14.75 22.25L14.75 9.75Z" fill="#7D8198"/>
<path d="M16.75 16.9965C17.1642 16.9965 17.5 17.3322 17.5 17.7465V22.2468C17.5 22.661 17.1642 22.9968 16.75 22.9968C16.3358 22.9968 16 22.661 16 22.2468V17.7465C16 17.3322 16.3358 16.9965 16.75 16.9965Z" fill="#7D8198"/>
<path d="M12 5.75C12 5.33579 11.6642 5 11.25 5C10.8358 5 10.5 5.33579 10.5 5.75L10.5 9.25C10.5 9.66421 10.8358 10 11.25 10C11.6642 10 12 9.66421 12 9.25L12 5.75Z" fill="#7D8198"/>
<path d="M14 5C14.4142 5 14.75 5.33579 14.75 5.75L14.75 7.25C14.75 7.66421 14.4142 8 14 8C13.5858 8 13.25 7.66421 13.25 7.25L13.25 5.75C13.25 5.33579 13.5858 5 14 5Z" fill="#7D8198"/>
<path d="M20 7.75C20 7.33579 19.6642 7 19.25 7C18.8358 7 18.5 7.33579 18.5 7.75V13.25C18.5 13.6642 18.8358 14 19.25 14C19.6642 14 20 13.6642 20 13.25V7.75Z" fill="#7D8198"/>
<path d="M8.75008 14C9.16429 14 9.50007 14.3358 9.50007 14.75L9.5 20.25C9.5 20.6642 9.16421 21 8.74999 21C8.33578 21 8 20.6642 8 20.25L8.00007 14.75C8.00007 14.3358 8.33587 14 8.75008 14Z" fill="#7D8198"/>
<path d="M23.0006 10.75C23.0006 10.3358 22.6648 10 22.2506 10C21.8364 10 21.5006 10.3358 21.5006 10.75L21.5006 17.253C21.5006 17.6672 21.8364 18.003 22.2506 18.003C22.6648 18.003 23.0006 17.6672 23.0006 17.253L23.0006 10.75Z" fill="#7D8198"/>
<path d="M5.75061 10C6.16482 10 6.50061 10.3358 6.50061 10.75L6.50062 13.25C6.50063 13.6642 6.16484 14 5.75063 14C5.33641 14 5.00063 13.6642 5.00062 13.25L5.00061 10.75C5.00061 10.3358 5.33639 10 5.75061 10Z" fill="#7D8198"/>
<path d="M6.50049 15.75C6.50049 15.3358 6.1647 15 5.75049 15C5.33628 15 5.00049 15.3358 5.00049 15.75L5.00049 17.248C5.00049 17.6622 5.33627 17.998 5.75049 17.998C6.1647 17.998 6.50049 17.6622 6.50049 17.248L6.50049 15.75Z" fill="#7D8198"/>
</svg>
