<svg width="28" height="28" viewBox="0 0 28 28" fill="none" xmlns="http://www.w3.org/2000/svg">
<path d="M13.0855 9.07918C13.3395 9.20623 13.5 9.46593 13.5 9.75V15.2499C13.5 15.6641 13.1643 15.9999 12.75 15.9999C12.3358 15.9999 12 15.6641 12 15.2499V11.25L11.2 11.85C10.8687 12.0985 10.3986 12.0314 10.15 11.7C9.90152 11.3686 9.96867 10.8985 10.3 10.65L12.3 9.15C12.5273 8.97956 12.8314 8.95214 13.0855 9.07918Z" fill="#7D8198"/>
<path fill-rule="evenodd" clip-rule="evenodd" d="M17.9576 19.0167C16.481 20.2546 14.5776 21 12.5 21C7.80558 21 4 17.1944 4 12.5C4 7.80558 7.80558 4 12.5 4C17.1944 4 21 7.80558 21 12.5C21 14.5768 20.2552 16.4796 19.0181 17.9559L22.7819 21.7197C23.0747 22.0126 23.0747 22.4874 22.7819 22.7803C22.489 23.0732 22.0141 23.0732 21.7212 22.7803L17.9576 19.0167ZM12.5 19.5C16.366 19.5 19.5 16.366 19.5 12.5C19.5 8.63401 16.366 5.5 12.5 5.5C8.63401 5.5 5.5 8.63401 5.5 12.5C5.5 16.366 8.63401 19.5 12.5 19.5Z" fill="#7D8198"/>
</svg>
