<svg width="28" height="28" viewBox="0 0 28 28" fill="none" xmlns="http://www.w3.org/2000/svg">
<path d="M5 7C5.00118 6.44771 5.44984 6 6.00213 6H20.0021C20.5544 6 21.0012 6.44771 21 7C20.9988 7.55228 20.5502 8 19.9979 8H5.99788C5.44559 8 4.99883 7.55228 5 7Z" fill="#7D8198"/>
<path d="M5 14C5.00118 13.4477 5.44984 13 6.00213 13H24.0021C24.5544 13 25.0012 13.4477 25 14C24.9988 14.5523 24.5502 15 23.9979 15H5.99788C5.44559 15 4.99883 14.5523 5 14Z" fill="#7D8198"/>
<path d="M6.00213 20C5.44984 20 5.00118 20.4477 5 21C4.99883 21.5523 5.44559 22 5.99788 22H17.9979C18.5502 22 18.9988 21.5523 19 21C19.0012 20.4477 18.5544 20 18.0021 20H6.00213Z" fill="#7D8198"/>
</svg>
