<svg width="28" height="28" viewBox="0 0 28 28" fill="none" xmlns="http://www.w3.org/2000/svg">
<path d="M22.7766 4.22264C21.1453 2.59245 18.4971 2.59245 16.8658 4.22264L6.47415 14.6075C6.19221 14.8893 5.97068 15.2516 5.83977 15.634L4.07762 20.9673C3.89637 21.5208 4.03735 22.1346 4.45019 22.5472C4.74221 22.839 5.12484 23 5.53769 23C5.70887 23 5.86998 22.9698 6.02102 22.9195L11.3478 21.1585C11.7304 21.0377 12.0929 20.8164 12.3748 20.5245L22.7766 10.1396C24.4078 8.50943 24.4078 5.86289 22.7766 4.2327V4.22264ZM11.3175 19.4579C11.1967 19.5786 11.0457 19.6692 10.8846 19.7195L5.50748 21.4403L7.26963 16.1069C7.31998 15.9459 7.41061 15.805 7.53144 15.6843L15.4662 7.75472L19.2422 11.5384L11.3075 19.4679L11.3175 19.4579ZM21.7092 9.07296L20.3196 10.4616L16.5436 6.67799L17.9332 5.28931C18.9804 4.25283 20.6721 4.25283 21.7092 5.28931C22.7464 6.32579 22.7464 8.02641 21.7092 9.06289V9.07296Z" fill="#7D8198"/>
</svg>
