<svg width="28" height="28" viewBox="0 0 28 28" fill="none" xmlns="http://www.w3.org/2000/svg">
<path fill-rule="evenodd" clip-rule="evenodd" d="M10.647 7C11.0811 5.55927 12.426 4.5 14.003 4.5C15.579 4.5 16.9208 5.5586 17.3536 7H10.647ZM9 8.5V12.2454C9 12.6596 9.33579 12.9954 9.75 12.9954C10.1642 12.9954 10.5 12.6593 10.5 12.245V8.5H17.5V12.2454C17.5 12.6596 17.8358 12.9954 18.25 12.9954C18.6642 12.9954 19 12.6595 19 12.2453V8.5H21.5V20.25C21.5 22.0449 20.0449 23.5 18.25 23.5H9.75C7.95507 23.5 6.5 22.0449 6.5 20.25V8.5H9ZM9.10107 7C9.56767 4.72323 11.5938 3 14.003 3C16.4132 3 18.4338 4.72408 18.8992 7H21.75C22.4404 7 23 7.55965 23 8.25V20.25C23 22.8734 20.8734 25 18.25 25H9.75C7.12665 25 5 22.8734 5 20.25V8.25C5 7.55964 5.55965 7 6.25 7H9.10107Z" fill="#7D8198"/>
</svg>
