<svg width="28" height="28" viewBox="0 0 28 28" fill="none" xmlns="http://www.w3.org/2000/svg">
<path d="M17.55 3H11.85C8.07 3 5 6.01466 5 9.70811V13.6212C5 15.2483 5.76 16.8455 7.13 18.1132C7.95 18.8719 9.65 21.0081 11.8 23.9728C12.21 24.5418 12.83 24.9212 13.44 24.991C13.93 25.0409 14.4 24.8812 14.76 24.5418C15.35 23.9928 15.66 23.2341 15.66 22.3557C15.66 21.8965 15.55 21.3874 15.43 20.7885C15.19 19.6106 14.9 18.6822 14.44 17.6241H19.81C20.75 17.6241 21.63 17.2248 22.24 16.526C22.83 15.8472 23.1 14.9488 22.97 14.0604L21.93 6.80326C21.65 4.64708 19.77 3.01996 17.55 3.01996V3ZM13.61 23.4937C13.61 23.4937 13.59 23.4937 13.58 23.4937C13.43 23.4837 13.2 23.3539 13.01 23.0944C11.71 21.3076 9.36 18.1332 8.14 17.0052C7.08 16.0269 6.49 14.8191 6.49 13.6112V9.69813C6.49 6.82323 8.89 4.48736 11.84 4.48736H17.54C19.01 4.48736 20.25 5.55547 20.43 6.96298C20.43 6.96298 20.43 6.96298 20.43 6.97296L21.47 14.2401C21.54 14.7093 21.4 15.1585 21.09 15.5178C20.77 15.8872 20.3 16.0968 19.8 16.0968H14.21C13.75 16.0968 13.33 16.3164 13.09 16.6957C12.83 17.085 12.8 17.5941 12.99 18.0334C13.44 19.0516 13.72 19.93 13.95 21.058C14.06 21.5771 14.15 22.0263 14.15 22.3258C14.15 22.7949 14.01 23.1543 13.73 23.4238C13.69 23.4637 13.65 23.4737 13.61 23.4737V23.4937Z" fill="#7D8198"/>
</svg>
