<svg width="28" height="28" viewBox="0 0 28 28" fill="none" xmlns="http://www.w3.org/2000/svg">
    <path fill-rule="evenodd" clip-rule="evenodd"
        d="M14.75 4.375C14.75 3.96079 14.4142 3.625 14 3.625C13.5858 3.625 13.25 3.96079 13.25 4.375V7H7.5C5.567 7 4 8.567 4 10.5V17.5C4 19.433 5.567 21 7.5 21H13.25V23.625C13.25 24.0392 13.5858 24.375 14 24.375C14.4142 24.375 14.75 24.0392 14.75 23.625V21H20.5C22.433 21 24 19.433 24 17.5V10.5C24 8.567 22.433 7 20.5 7H14.75V4.375ZM13.25 8.5H7.5C6.39543 8.5 5.5 9.39543 5.5 10.5V17.5C5.5 18.6046 6.39543 19.5 7.5 19.5H13.25V8.5ZM14.75 19.5V8.5H20.5C21.6046 8.5 22.5 9.39543 22.5 10.5V17.5C22.5 18.6046 21.6046 19.5 20.5 19.5H14.75Z"
        fill="#BCBED2" />
</svg>
