<svg width="28" height="28" viewBox="0 0 28 28" fill="none" xmlns="http://www.w3.org/2000/svg">
<path d="M10.8265 5.27051C10.5616 4.95213 10.0887 4.90882 9.77028 5.17377L8.27028 6.42207C8.09917 6.56446 8.00016 6.77551 8.00003 6.99812C7.9999 7.22073 8.09867 7.4319 8.26961 7.57449L9.76961 8.82571C10.0877 9.09104 10.5606 9.04827 10.826 8.73019C11.0913 8.41211 11.0485 7.93917 10.7304 7.67384L9.9217 6.99923L10.7298 6.32675C11.0482 6.06179 11.0915 5.5889 10.8265 5.27051Z" fill="#7D8198"/>
<path d="M14.8398 7.78966C15.0518 8.06203 15.0534 8.45436 14.8233 8.73021C14.558 9.04829 14.085 9.09106 13.767 8.82573L12.267 7.57451C12.096 7.43192 11.9972 7.22075 11.9974 6.99814C11.9975 6.77553 12.0965 6.56448 12.2676 6.42208L13.7676 5.17379C14.086 4.90883 14.5589 4.95215 14.8239 5.27053C15.0736 5.57063 15.0495 6.00801 14.7792 6.27914C19.5829 6.64102 22.9961 10.3365 22.9961 15C22.9961 19.901 18.9019 24 14 24C11.358 24 9.11083 22.8792 7.52963 21.3053C5.95976 19.7425 5 17.6848 5 15.75C5 15.3358 5.33579 15 5.75 15C6.16421 15 6.5 15.3358 6.5 15.75C6.5 17.2117 7.24357 18.904 8.58787 20.2422C9.92084 21.5691 11.7987 22.5 14 22.5C18.0726 22.5 21.4961 19.0735 21.4961 15C21.4961 11.2011 18.7908 8.16732 14.8398 7.78966Z" fill="#7D8198"/>
</svg>
