<svg width="28" height="28" viewBox="0 0 28 28" fill="none" xmlns="http://www.w3.org/2000/svg">
<path d="M10.4435 11.5015L5.75146 11.5015C5.33725 11.5015 5.00146 11.8373 5.00146 12.2515C5.00146 12.6657 5.33725 13.0015 5.75146 13.0015L12.2515 13.0015C12.6657 13.0015 13.0015 12.6657 13.0015 12.2515L13.0015 5.74854C13.0015 5.33432 12.6657 4.99854 12.2515 4.99854C11.8373 4.99854 11.5015 5.33432 11.5015 5.74854L11.5015 10.4381L6.28181 5.21824C5.98892 4.92534 5.51405 4.92533 5.22115 5.21822C4.92825 5.5111 4.92824 5.98598 5.22112 6.27888L10.4435 11.5015Z" fill="#7D8198"/>
<path d="M17.5622 16.5015H22.2515C22.6657 16.5015 23.0015 16.1657 23.0015 15.7515C23.0015 15.3373 22.6657 15.0015 22.2515 15.0015H15.7515C15.3373 15.0015 15.0015 15.3373 15.0015 15.7515V22.2515C15.0015 22.6657 15.3373 23.0015 15.7515 23.0015C16.1657 23.0015 16.5015 22.6657 16.5015 22.2515V17.5621L21.7212 22.7818C22.0141 23.0747 22.489 23.0747 22.7819 22.7818C23.0748 22.4889 23.0748 22.0141 22.7819 21.7212L17.5622 16.5015Z" fill="#7D8198"/>
</svg>
