<svg width="28" height="28" viewBox="0 0 28 28" fill="none" xmlns="http://www.w3.org/2000/svg">
<path fill-rule="evenodd" clip-rule="evenodd" d="M4 6.74878C4 5.23 5.23122 3.99878 6.75 3.99878H21.25C22.7688 3.99878 24 5.23 24 6.74878V12.25C24 12.6642 23.6642 13 23.25 13C22.8358 13 22.5 12.6642 22.5 12.25V10.5H19.5V13.25C19.5 13.6642 19.1642 14 18.75 14C18.3358 14 18 13.6642 18 13.25V5.49878H10L10 22.4988H15.25C15.6642 22.4988 16 22.8346 16 23.2488C16 23.663 15.6642 23.9988 15.25 23.9988H6.75C5.23122 23.9988 4 22.7676 4 21.2488V6.74878ZM19.5 5.49878V9H22.5V6.74878C22.5 6.05842 21.9404 5.49878 21.25 5.49878H19.5ZM8.5 16.5L8.5 10.5H5.5V16.5H8.5ZM8.5 18H5.5V21.2488C5.5 21.9391 6.05964 22.4988 6.75 22.4988H8.5V18ZM8.5 5.49878V9H5.5V6.74878C5.5 6.05842 6.05964 5.49878 6.75 5.49878H8.5Z" fill="#7D8198"/>
<path fill-rule="evenodd" clip-rule="evenodd" d="M19.0047 19V17.374C19.0047 17.0541 19.0727 16.7389 19.203 16.4468C19.3333 16.1549 19.5226 15.8935 19.7571 15.6759C19.9915 15.4584 20.2668 15.2885 20.5659 15.1736C20.865 15.0586 21.1839 15 21.5047 15C21.8255 15 22.1444 15.0586 22.4435 15.1736C22.7426 15.2885 23.0179 15.4584 23.2523 15.6759C23.4868 15.8935 23.6761 16.1549 23.8064 16.4468C23.9367 16.7389 24.0047 17.0541 24.0047 17.374V19C24.5548 19.0026 25 19.4493 25 20V24C25 24.5523 24.5523 25 24 25H19C18.4477 25 18 24.5523 18 24V20C18 19.4477 18.4477 19 19 19H19.0047ZM21.1041 16.5737C21.2296 16.5254 21.3659 16.5 21.5047 16.5C21.6435 16.5 21.7798 16.5254 21.9053 16.5737C22.0308 16.6219 22.1413 16.6913 22.232 16.7754C22.3225 16.8594 22.391 16.956 22.4366 17.0582C22.4821 17.1602 22.5047 17.2673 22.5047 17.374V19H20.5047V17.374C20.5047 17.2673 20.5273 17.1602 20.5728 17.0582C20.6184 16.956 20.6869 16.8594 20.7774 16.7754C20.8681 16.6913 20.9786 16.6219 21.1041 16.5737Z" fill="#7D8198"/>
</svg>
