<svg width="29" height="28" viewBox="0 0 29 28" fill="none" xmlns="http://www.w3.org/2000/svg">
<path fill-rule="evenodd" clip-rule="evenodd" d="M12.5 6.75C12.5 5.23122 13.7312 4 15.25 4H21.75C23.2688 4 24.5 5.23122 24.5 6.75V21.25C24.5 22.7688 23.2688 24 21.75 24H15.25C13.7312 24 12.5 22.7688 12.5 21.25V6.75ZM15.25 5.5C14.5596 5.5 14 6.05964 14 6.75V21.25C14 21.9404 14.5596 22.5 15.25 22.5H21.75C22.4404 22.5 23 21.9404 23 21.25V6.75C23 6.05964 22.4404 5.5 21.75 5.5H15.25Z" fill="#7D8198"/>
<path d="M3.5 8.75004C3.5 8.43618 3.69543 8.15551 3.98979 8.04662C4.28415 7.93773 4.61519 8.02364 4.81944 8.26194L9.31944 13.5119C9.56019 13.7928 9.56019 14.2073 9.31944 14.4881L4.81944 19.7381C4.61519 19.9764 4.28415 20.0623 3.98979 19.9535C3.69543 19.8446 3.5 19.5639 3.5 19.25V8.75004Z" fill="#7D8198"/>
</svg>
