<svg width="28" height="28" viewBox="0 0 28 28" fill="none" xmlns="http://www.w3.org/2000/svg">
<path d="M22.25 5C22.6642 5 23 5.33579 23 5.75V12.25C23 12.6642 22.6642 13 22.25 13C21.8358 13 21.5 12.6642 21.5 12.25V7.5586L7.56052 21.5H12.25C12.6642 21.5 13 21.8358 13 22.25C13 22.6642 12.6642 23 12.25 23H5.75C5.33579 23 5 22.6642 5 22.25L5 15.75C5 15.3358 5.33579 15 5.75 15C6.16421 15 6.5 15.3358 6.5 15.75L6.5 20.4392L20.4373 6.5L15.75 6.5C15.3358 6.5 15 6.16421 15 5.75C15 5.33579 15.3358 5 15.75 5H22.25Z" fill="#7D8198"/>
</svg>
