<svg width="28" height="28" viewBox="0 0 28 28" fill="none" xmlns="http://www.w3.org/2000/svg">
<path fill-rule="evenodd" clip-rule="evenodd" d="M9 8V10H8.74622C7.22743 10 5.99622 11.2312 5.99622 12.75V21.25C5.99622 22.7688 7.22743 24 8.74622 24H13.25C13.6642 24 14 23.6642 14 23.25C14 22.8358 13.6642 22.5 13.25 22.5H8.74622C8.05586 22.5 7.49622 21.9404 7.49622 21.25V12.75C7.49622 12.0596 8.05586 11.5 8.74622 11.5H19.2462C19.9366 11.5 20.4962 12.0596 20.4962 12.75V13.25C20.4962 13.6642 20.832 14 21.2462 14C21.6604 14 21.9962 13.6642 21.9962 13.25V12.75C21.9962 11.2312 20.765 10 19.2462 10H19V8C19 5.18715 16.7562 3 14 3C11.2438 3 9 5.18715 9 8ZM14 4.5C12.0616 4.5 10.5 6.02618 10.5 8V10H17.5V8C17.5 6.02618 15.9384 4.5 14 4.5Z" fill="#7D8198"/>
<path d="M21.2396 16.1836C21.1737 15.9388 20.8263 15.9388 20.7604 16.1836L20.0867 18.6861C19.9028 19.3692 19.3692 19.9028 18.6861 20.0867L16.1836 20.7604C15.9388 20.8263 15.9388 21.1737 16.1836 21.2396L18.6861 21.9133C19.3692 22.0972 19.9028 22.6308 20.0867 23.3139L20.7604 25.8164C20.8263 26.0612 21.1737 26.0612 21.2396 25.8164L21.9133 23.3139C22.0972 22.6308 22.6308 22.0972 23.3139 21.9133L25.8164 21.2396C26.0612 21.1737 26.0612 20.8263 25.8164 20.7604L23.3139 20.0867C22.6308 19.9028 22.0972 19.3692 21.9133 18.6861L21.2396 16.1836Z" fill="#7D8198"/>
</svg>
