<svg width="28" height="28" viewBox="0 0 28 28" fill="none" xmlns="http://www.w3.org/2000/svg">
<path fill-rule="evenodd" clip-rule="evenodd" d="M4 6.74878C4 5.23 5.23122 3.99878 6.75 3.99878H21.25C22.7688 3.99878 24 5.23 24 6.74878V21.2488C24 22.7676 22.7688 23.9988 21.25 23.9988H6.75C5.23122 23.9988 4 22.7676 4 21.2488V6.74878ZM6.75 5.49878C6.05964 5.49878 5.5 6.05842 5.5 6.74878V9H8.5V5.49878H6.75ZM8.5 10.5H5.5V16.5H8.5L8.5 10.5ZM5.5 21.2488V18H8.5V22.4988H6.75C6.05964 22.4988 5.5 21.9391 5.5 21.2488ZM18 22.4988H10L10 5.49878H18V22.4988ZM19.5 22.4988H21.25C21.9404 22.4988 22.5 21.9391 22.5 21.2488V18H19.5V22.4988ZM19.5 16.5H22.5V10.5H19.5V16.5ZM19.5 9H22.5V6.74878C22.5 6.05842 21.9404 5.49878 21.25 5.49878H19.5V9Z" fill="#7D8198"/>
</svg>
