<svg width="28" height="28" viewBox="0 0 28 28" fill="none" xmlns="http://www.w3.org/2000/svg">
<path fill-rule="evenodd" clip-rule="evenodd" d="M14.5497 7.23968C14.4078 7.08685 14.2086 7 14.0001 7C13.7915 7 13.5924 7.08683 13.4505 7.23966L10.2004 10.7397C9.91856 11.0432 9.93613 11.5177 10.2397 11.7996C10.5432 12.0814 11.0177 12.0639 11.2996 11.7603L14.0001 8.85222L16.7003 11.7603C16.9821 12.0639 17.4567 12.0815 17.7602 11.7996C18.0638 11.5178 18.0814 11.0432 17.7995 10.7397L14.5497 7.23968ZM14.5496 20.76C14.4077 20.9127 14.2087 20.9995 14.0003 20.9996C13.7918 20.9997 13.5927 20.913 13.4508 20.7604L10.1962 17.2608C9.91414 16.9575 9.93135 16.4829 10.2347 16.2008C10.538 15.9187 11.0126 15.9359 11.2946 16.2393L13.9996 19.1479L16.7004 16.2396C16.9823 15.9361 17.4569 15.9185 17.7604 16.2004C18.0639 16.4823 18.0814 16.9568 17.7996 17.2604L14.5496 20.76Z" fill="#7D8198"/>
</svg>
