<svg width="28" height="28" viewBox="0 0 28 28" fill="none" xmlns="http://www.w3.org/2000/svg">
<path fill-rule="evenodd" clip-rule="evenodd" d="M14 3C14.2844 3 14.5443 3.16086 14.6712 3.41538L17.3934 8.87583L23.7529 9.7571C24.0317 9.79572 24.2653 9.98713 24.3581 10.2528C24.4508 10.5185 24.3871 10.8137 24.1929 11.0174L19.7975 15.6292L20.802 22.1361C20.8454 22.4171 20.7261 22.6985 20.494 22.8627C20.2619 23.027 19.9569 23.0458 19.7063 22.9114L14 19.8511L8.29366 22.9114C8.04308 23.0458 7.73805 23.027 7.50594 22.8627C7.27384 22.6985 7.15458 22.4171 7.19796 22.1361L8.20249 15.6292L3.80708 11.0174C3.61293 10.8137 3.54915 10.5185 3.6419 10.2528C3.73464 9.98713 3.96831 9.79573 4.24705 9.7571L10.6066 8.87583L13.3288 3.41538C13.4557 3.16086 13.7156 3 14 3ZM14 5.43102L11.7726 9.89906C11.6621 10.1206 11.4495 10.2734 11.2043 10.3073L5.90266 11.042L9.54293 14.8614C9.70348 15.0299 9.77674 15.2633 9.74124 15.4933L8.90982 20.8789L13.6455 18.3391C13.8669 18.2203 14.1331 18.2203 14.3545 18.3391L19.0902 20.8789L18.2588 15.4933C18.2233 15.2633 18.2966 15.0299 18.4571 14.8614L22.0973 11.042L16.7957 10.3073C16.5505 10.2734 16.3379 10.1206 16.2274 9.89906L14 5.43102Z" fill="#7D8198"/>
</svg>
