<svg width="28" height="28" viewBox="0 0 28 28" fill="none" xmlns="http://www.w3.org/2000/svg">
    <path fill-rule="evenodd" clip-rule="evenodd"
        d="M8.69696 7.6363C8.40406 7.3434 7.92919 7.3434 7.6363 7.6363C7.3434 7.92919 7.3434 8.40406 7.6363 8.69696L12.9393 14L7.6363 19.303C7.3434 19.5959 7.3434 20.0707 7.6363 20.3636C7.92919 20.6565 8.40406 20.6565 8.69696 20.3636L14 15.0606L19.303 20.3636C19.5959 20.6565 20.0707 20.6565 20.3636 20.3636C20.6565 20.0707 20.6565 19.5959 20.3636 19.303L15.0606 14L20.3636 8.69696C20.6565 8.40406 20.6565 7.92919 20.3636 7.6363C20.0707 7.3434 19.5959 7.3434 19.303 7.6363L14 12.9393L8.69696 7.6363Z"
        fill="#BCBED2" />
</svg>
