<svg width="28" height="28" viewBox="0 0 28 28" fill="none" xmlns="http://www.w3.org/2000/svg">
<path d="M10.6364 13.25L13.765 10.2953C14.0661 10.0109 14.0797 9.53618 13.7953 9.23504C13.5109 8.9339 13.0362 8.92033 12.735 9.20474L8.23504 13.4547C8.08502 13.5963 8 13.7936 8 13.9999C8 14.2063 8.08501 14.4035 8.23503 14.5452L12.735 18.7953C13.0362 19.0797 13.5108 19.0661 13.7953 18.765C14.0797 18.4638 14.0661 17.9892 13.765 17.7047L10.6365 14.75H19.25C19.6642 14.75 20 14.4142 20 14C20 13.5858 19.6642 13.25 19.25 13.25H10.6364Z" fill="#7D8198"/>
<path fill-rule="evenodd" clip-rule="evenodd" d="M25 14C25 20.0751 20.0751 25 14 25C7.92487 25 3 20.0751 3 14C3 7.92487 7.92487 3 14 3C20.0751 3 25 7.92487 25 14ZM14 23.5C19.2467 23.5 23.5 19.2467 23.5 14C23.5 8.75329 19.2467 4.5 14 4.5C8.75329 4.5 4.5 8.75329 4.5 14C4.5 19.2467 8.75329 23.5 14 23.5Z" fill="#7D8198"/>
</svg>
