<svg width="28" height="28" viewBox="0 0 28 28" fill="none" xmlns="http://www.w3.org/2000/svg">
<path fill-rule="evenodd" clip-rule="evenodd" d="M10.735 20.7952C11.0362 21.0796 11.5109 21.066 11.7953 20.7649C12.0797 20.4638 12.0661 19.9891 11.765 19.7047L8.63642 16.7499H17.25C19.3211 16.7499 21 15.071 21 12.9999V9.7478C21 9.33359 20.6642 8.9978 20.25 8.9978C19.8358 8.9978 19.5 9.33359 19.5 9.7478V12.9999C19.5 14.2426 18.4926 15.2499 17.25 15.2499H8.63642L11.765 12.2952C12.0661 12.0108 12.0797 11.5361 11.7953 11.235C11.5109 10.9338 11.0362 10.9203 10.735 11.2047L6.23503 15.4547C6.08502 15.5963 6 15.7936 6 15.9999C6 16.2063 6.08502 16.4035 6.23503 16.5452L10.735 20.7952Z" fill="#7D8198"/>
</svg>
