<svg width="28" height="28" viewBox="0 0 28 28" fill="none" xmlns="http://www.w3.org/2000/svg">
<path fill-rule="evenodd" clip-rule="evenodd" d="M25 14C25 20.0751 20.0751 25 14 25C7.92487 25 3 20.0751 3 14C3 7.92487 7.92487 3 14 3C20.0751 3 25 7.92487 25 14ZM20.1663 21.2271C18.5068 22.6443 16.3533 23.5 14 23.5C8.75329 23.5 4.5 19.2467 4.5 14C4.5 11.6467 5.3557 9.49317 6.77294 7.83371L20.1663 21.2271ZM21.227 20.1664L7.83359 6.77305C9.49306 5.35575 11.6466 4.5 14 4.5C19.2467 4.5 23.5 8.75329 23.5 14C23.5 16.3534 22.6443 18.5069 21.227 20.1664Z" fill="#7D8198"/>
</svg>
