<svg width="28" height="28" viewBox="0 0 28 28" fill="none" xmlns="http://www.w3.org/2000/svg">
<path d="M21.5407 6.82997C19.7075 5.63839 16.8124 5.43158 13.9975 8.2382C11.1826 5.44143 8.2975 5.63839 6.46429 6.82997C4.06008 8.39576 3.29875 11.6258 4.69119 14.3734C8.24742 20.9418 13.5166 22.8818 13.7471 22.9606C13.8272 22.9902 13.9173 23 13.9975 23C14.0776 23 14.1678 22.9902 14.2479 22.9606C14.4683 22.8818 19.7476 20.9418 23.3038 14.3734V14.3537C24.6962 11.6258 23.9349 8.39576 21.5407 6.82997ZM21.9715 13.684C19.1365 18.923 15.0493 20.9911 13.9975 21.4637C12.9356 21.0009 8.85849 18.923 6.02352 13.6939C4.83143 11.3501 5.7831 9.04571 7.28573 8.07078C7.81666 7.72611 8.47782 7.49961 9.22914 7.49961C10.4813 7.49961 11.9539 8.12002 13.4365 9.81384C13.727 10.1388 14.298 10.1388 14.5785 9.81384C16.9326 7.1057 19.2968 7.13525 20.7193 8.06094C22.2219 9.03587 23.1736 11.3402 21.9815 13.684H21.9715Z" fill="#7D8198"/>
</svg>
