<svg width="28" height="28" viewBox="0 0 28 28" fill="none" xmlns="http://www.w3.org/2000/svg">
<path d="M5 5.75C5 5.33579 5.33579 5 5.75 5H12.25C12.6642 5 13 5.33579 13 5.75C13 6.16421 12.6642 6.5 12.25 6.5H7.5586L21.5 20.4395V15.75C21.5 15.3358 21.8358 15 22.25 15C22.6642 15 23 15.3358 23 15.75V22.25C23 22.6642 22.6642 23 22.25 23L15.75 23C15.3358 23 15 22.6642 15 22.25C15 21.8358 15.3358 21.5 15.75 21.5L20.4392 21.5L6.5 7.56272V12.25C6.5 12.6642 6.16421 13 5.75 13C5.33579 13 5 12.6642 5 12.25V5.75Z" fill="#7D8198"/>
</svg>
