<svg width="28" height="28" viewBox="0 0 28 28" fill="none" xmlns="http://www.w3.org/2000/svg">
<path d="M6.99976 4.75195C6.99976 4.33774 7.33554 4.00195 7.74976 4.00195H20.2502C20.6644 4.00195 21.0002 4.33774 21.0002 4.75195C21.0002 5.16617 20.6644 5.50195 20.2502 5.50195H7.74976C7.33554 5.50195 6.99976 5.16617 6.99976 4.75195Z" fill="#7D8198"/>
<path d="M4 9.75C4 8.23122 5.23122 7 6.75 7H21.25C22.7688 7 24 8.23122 24 9.75V20.25C24 21.7688 22.7688 23 21.25 23H18C17.5858 23 17.25 22.6642 17.25 22.25C17.25 21.8358 17.5858 21.5 18 21.5H21.25C21.9404 21.5 22.5 20.9404 22.5 20.25V9.75C22.5 9.05964 21.9404 8.5 21.25 8.5H6.75C6.05964 8.5 5.5 9.05964 5.5 9.75V20.25C5.5 20.9404 6.05964 21.5 6.75 21.5H12C12.6904 21.5 13.25 20.9404 13.25 20.25V15.6599L11.2996 17.7603C11.0177 18.0639 10.5432 18.0814 10.2397 17.7996C9.93613 17.5177 9.91856 17.0432 10.2004 16.7397L13.4504 13.2397C13.5923 13.0868 13.7915 13 14 13C14.2086 13 14.4077 13.0868 14.5496 13.2397L17.7996 16.7397C18.0815 17.0432 18.0639 17.5177 17.7603 17.7996C17.4568 18.0814 16.9823 18.0639 16.7004 17.7603L14.75 15.6599V20.25C14.75 21.7688 13.5188 23 12 23H6.75C5.23122 23 4 21.7688 4 20.25V9.75Z" fill="#7D8198"/>
</svg>
