<svg width="28" height="28" viewBox="0 0 28 28" fill="none" xmlns="http://www.w3.org/2000/svg">
    <path fill-rule="evenodd" clip-rule="evenodd"
        d="M8.54163 4.79163C6.47056 4.79163 4.79163 6.47056 4.79163 8.54163V19.4583C4.79163 21.5294 6.47056 23.2083 8.54163 23.2083H19.4583C21.5294 23.2083 23.2083 21.5294 23.2083 19.4583V8.54163C23.2083 6.47056 21.5294 4.79163 19.4583 4.79163H8.54163ZM6.29163 8.54163C6.29163 7.29899 7.29899 6.29163 8.54163 6.29163H19.4583C20.7009 6.29163 21.7083 7.29899 21.7083 8.54163V19.4583C21.7083 20.7009 20.7009 21.7083 19.4583 21.7083H8.54163C7.29899 21.7083 6.29163 20.7009 6.29163 19.4583V8.54163ZM13.2744 10.5C13.2744 10.0857 12.9386 9.74996 12.5244 9.74996C12.1102 9.74996 11.7744 10.0857 11.7744 10.5V17.8888C11.7744 18.3031 12.1102 18.6388 12.5244 18.6388C12.9386 18.6388 13.2744 18.3031 13.2744 17.8888V10.5ZM16.2083 12.0069C16.2083 11.5927 15.8725 11.2569 15.4583 11.2569C15.0441 11.2569 14.7083 11.5927 14.7083 12.0069V16.3819C14.7083 16.7961 15.0441 17.1319 15.4583 17.1319C15.8725 17.1319 16.2083 16.7961 16.2083 16.3819V12.0069ZM19.125 13.2222C19.125 12.808 18.7892 12.4722 18.375 12.4722C17.9607 12.4722 17.625 12.808 17.625 13.2222V14.7777C17.625 15.192 17.9607 15.5277 18.375 15.5277C18.7892 15.5277 19.125 15.192 19.125 14.7777V13.2222ZM10.375 13.5625C10.375 13.1482 10.0392 12.8125 9.62496 12.8125C9.21075 12.8125 8.87496 13.1482 8.87496 13.5625V14.8263C8.87496 15.2406 9.21075 15.5763 9.62496 15.5763C10.0392 15.5763 10.375 15.2406 10.375 14.8263V13.5625Z"
        fill="#BCBED2" />
</svg>
