<svg width="28" height="28" viewBox="0 0 28 28" fill="none" xmlns="http://www.w3.org/2000/svg">
<path fill-rule="evenodd" clip-rule="evenodd" d="M17.5 6.5C15.8431 6.5 14.5 7.84315 14.5 9.5C14.5 11.1569 15.8431 12.5 17.5 12.5C19.1569 12.5 20.5 11.1569 20.5 9.5C20.5 7.84315 19.1569 6.5 17.5 6.5ZM13 9.5C13 7.01472 15.0147 5 17.5 5C19.9853 5 22 7.01472 22 9.5C22 11.9853 19.9853 14 17.5 14C15.0147 14 13 11.9853 13 9.5Z" fill="#7D8198"/>
<path fill-rule="evenodd" clip-rule="evenodd" d="M10.5012 19.3683C11.7815 17.7684 14.0012 16 17.4922 16C20.9791 16 23.2039 17.7642 24.4907 19.3619C25.1242 20.1485 25.1345 21.0971 24.6892 21.832C24.2596 22.5412 23.4433 23 22.5114 23H12.4846C11.5547 23 10.7395 22.5429 10.3093 21.8356C9.86343 21.1026 9.87118 20.1556 10.5012 19.3683ZM17.4922 17.5C14.5811 17.5 12.7553 18.9508 11.6707 20.3061C11.443 20.5907 11.4641 20.85 11.5891 21.0555C11.7297 21.2866 12.0427 21.5 12.4846 21.5H22.5114C22.9545 21.5 23.2676 21.2859 23.408 21.0542C23.5327 20.8483 23.5535 20.5882 23.3241 20.3033C22.2327 18.9482 20.4008 17.5 17.4922 17.5Z" fill="#7D8198"/>
<path fill-rule="evenodd" clip-rule="evenodd" d="M9.26729 7.51417C8.78437 7.46253 8.29686 7.55267 7.86433 7.77359C7.4318 7.9945 7.07299 8.33661 6.83173 8.75813C6.59047 9.17965 6.47721 9.66231 6.5058 10.1471C6.53439 10.632 6.70358 11.098 6.9927 11.4882C7.28182 11.8785 7.67835 12.1761 8.13384 12.3446C8.58933 12.5132 9.08406 12.5454 9.55757 12.4374C10.0311 12.3293 10.4629 12.0857 10.8002 11.7363C11.0878 11.4383 11.5626 11.4299 11.8607 11.7175C12.1587 12.0052 12.1671 12.48 11.8794 12.778C11.3397 13.3371 10.6488 13.7269 9.89123 13.8998C9.13361 14.0726 8.34205 14.0211 7.61327 13.7514C6.88448 13.4817 6.25003 13.0056 5.78744 12.3812C5.32484 11.7568 5.05414 11.0112 5.0084 10.2354C4.96266 9.4597 5.14387 8.68744 5.52989 8.01301C5.9159 7.33858 6.49 6.7912 7.18205 6.43774C7.87409 6.08428 8.65411 5.94005 9.42679 6.02268C10.1995 6.1053 10.9313 6.41121 11.533 6.90301C11.8537 7.16516 11.9012 7.63766 11.639 7.95836C11.3769 8.27906 10.9044 8.32653 10.5837 8.06438C10.2076 7.757 9.75021 7.56581 9.26729 7.51417Z" fill="#7D8198"/>
<path fill-rule="evenodd" clip-rule="evenodd" d="M3.58154 18.3735C4.68434 17.1736 6.43259 16 8.99805 16C9.31103 16 9.61299 16.0175 9.90413 16.0508C10.3157 16.0979 10.6111 16.4696 10.5641 16.8811C10.517 17.2927 10.1453 17.5882 9.73375 17.5411C9.49998 17.5144 9.25491 17.5 8.99805 17.5C6.94685 17.5 5.57564 18.4205 4.68596 19.3886C4.44803 19.6474 4.46621 19.8774 4.57636 20.0633C4.70673 20.2834 5.01509 20.5 5.45944 20.5H7.77215C8.18637 20.5 8.52215 20.8358 8.52215 21.25C8.52215 21.6642 8.18637 22 7.77215 22H5.45944C4.52723 22 3.70702 21.5389 3.28581 20.8279C2.84438 20.0827 2.88799 19.1282 3.58154 18.3735Z" fill="#7D8198"/>
</svg>
