<svg width="28" height="28" viewBox="0 0 28 28" fill="none" xmlns="http://www.w3.org/2000/svg">
<path fill-rule="evenodd" clip-rule="evenodd" d="M22.8142 10.3367C23.0995 11.0254 23.3022 11.7436 23.4194 12.4763H15.5236V4.58053C16.2563 4.69768 16.9745 4.90038 17.6632 5.18565C18.8179 5.66397 19.8672 6.36506 20.751 7.24888C21.6348 8.1327 22.3359 9.18196 22.8142 10.3367ZM24.0397 13.9791C24.593 13.9791 25.0463 13.5296 24.9961 12.9786C24.8954 11.8743 24.6285 10.7896 24.2027 9.76162C23.6488 8.42451 22.837 7.20959 21.8137 6.18622C20.7903 5.16284 19.5754 4.35106 18.2383 3.79721C17.2103 3.37141 16.1256 3.10448 15.0213 3.00381C14.4703 2.95358 14.0208 3.40686 14.0208 3.96019V12.9772C14.0208 13.5305 14.4694 13.9791 15.0227 13.9791H24.0397ZM11.4765 4.80761C11.8764 4.69667 12.1107 4.28257 11.9998 3.88267C11.8888 3.48278 11.4747 3.24853 11.0748 3.35946C9.2186 3.87438 7.52976 4.86685 6.17666 6.23793C4.82356 7.609 3.85347 9.31079 3.36309 11.1737C2.8727 13.0365 2.87916 14.9954 3.38181 16.855C3.88446 18.7145 4.86575 20.4099 6.22786 21.772C7.58997 23.1342 9.28531 24.1155 11.1449 24.6181C13.0045 25.1208 14.9633 25.1273 16.8262 24.637C18.6891 24.1466 20.3909 23.1765 21.762 21.8235C23.1331 20.4704 24.1255 18.7815 24.6405 16.9253C24.7514 16.5254 24.5172 16.1113 24.1173 16.0004C23.7174 15.8894 23.3033 16.1237 23.1924 16.5236C22.7476 18.1267 21.8905 19.5852 20.7063 20.7538C19.5222 21.9223 18.0525 22.7601 16.4436 23.1836C14.8348 23.6071 13.1431 23.6015 11.5371 23.1674C9.93106 22.7333 8.4669 21.8858 7.29053 20.7094C6.11417 19.533 5.26669 18.0688 4.83258 16.4628C4.39847 14.8568 4.3929 13.1651 4.81641 11.5562C5.23992 9.9474 6.07773 8.47767 7.24632 7.29356C8.4149 6.10945 9.87344 5.25232 11.4765 4.80761Z" fill="#7D8198"/>
</svg>
