<svg width="28" height="28" viewBox="0 0 28 28" fill="none" xmlns="http://www.w3.org/2000/svg">
<path d="M17.55 25H11.85C8.07 25 5 21.9853 5 18.2919V14.3788C5 12.7517 5.76 11.1545 7.13 9.88678C7.95 9.12812 9.65 6.99191 11.8 4.02716C12.21 3.45817 12.83 3.07884 13.44 3.00896C13.93 2.95905 14.4 3.11877 14.76 3.45817C15.35 4.0072 15.66 4.76585 15.66 5.64429C15.66 6.10348 15.55 6.61258 15.43 7.21152C15.19 8.38943 14.9 9.31779 14.44 10.3759H19.81C20.75 10.3759 21.63 10.7752 22.24 11.474C22.83 12.1528 23.1 13.0512 22.97 13.9396L21.93 21.1967C21.65 23.3529 19.77 24.98 17.55 24.98V25ZM13.61 4.50631C13.61 4.50631 13.59 4.50631 13.58 4.50631C13.43 4.51629 13.2 4.64606 13.01 4.9056C11.71 6.69244 9.36 9.86681 8.14 10.9948C7.08 11.9731 6.49 13.1809 6.49 14.3888V18.3019C6.49 21.1768 8.89 23.5126 11.84 23.5126H17.54C19.01 23.5126 20.25 22.4445 20.43 21.037C20.43 21.037 20.43 21.037 20.43 21.027L21.47 13.7599C21.54 13.2907 21.4 12.8415 21.09 12.4822C20.77 12.1128 20.3 11.9032 19.8 11.9032H14.21C13.75 11.9032 13.33 11.6836 13.09 11.3043C12.83 10.915 12.8 10.4059 12.99 9.96664C13.44 8.94844 13.72 8.07 13.95 6.942C14.06 6.42291 14.15 5.97371 14.15 5.67424C14.15 5.20507 14.01 4.84571 13.73 4.57619C13.69 4.53626 13.65 4.52628 13.61 4.52628V4.50631Z" fill="#7D8198"/>
</svg>
