<svg width="28" height="28" viewBox="0 0 28 28" fill="none" xmlns="http://www.w3.org/2000/svg">
<path fill-rule="evenodd" clip-rule="evenodd" d="M4 6.75C4 5.23122 5.23122 4 6.75 4H21.25C22.7688 4 24 5.23122 24 6.75V21.25C24 22.7688 22.7688 24 21.25 24H6.75C5.23122 24 4 22.7688 4 21.25V6.75ZM6.75 5.5C6.05964 5.5 5.5 6.05964 5.5 6.75V13.248L9.25 13.2481C9.66421 13.2481 10 13.5838 10 13.9981C10 14.4123 9.66421 14.7481 9.25 14.7481L5.5 14.748V21.25C5.5 21.9404 6.05964 22.5 6.75 22.5H13.25V18.75C13.25 18.3358 13.5858 18 14 18C14.4142 18 14.75 18.3358 14.75 18.75V22.5H21.25C21.9404 22.5 22.5 21.9404 22.5 21.25V14.75L18.75 14.75C18.3358 14.75 18 14.4142 18 14C18 13.5858 18.3358 13.25 18.75 13.25L22.5 13.25V6.75C22.5 6.05964 21.9404 5.5 21.25 5.5H14.7474V9.24805C14.7474 9.66226 14.4116 9.99805 13.9974 9.99805C13.5832 9.99805 13.2474 9.66226 13.2474 9.24805V5.5H6.75Z" fill="#7D8198"/>
</svg>
