<svg width="28" height="28" viewBox="0 0 28 28" fill="none" xmlns="http://www.w3.org/2000/svg">
<path d="M5.23238 13.4595C5.0854 13.6009 5.00233 13.7961 5.00232 14C5.00231 14.204 5.08535 14.3991 5.23232 14.5405L11.7297 20.792C12.0282 21.0792 12.503 21.07 12.7902 20.7715C13.0774 20.473 13.0682 19.9983 12.7697 19.7111L7.61355 14.7501H22.25C22.6642 14.7501 23 14.4143 23 14.0001C23 13.5858 22.6642 13.2501 22.25 13.2501H7.61385L12.7697 8.29052C13.0682 8.00336 13.0774 7.52858 12.7902 7.23006C12.5031 6.93154 12.0283 6.92233 11.7298 7.20948L5.23238 13.4595Z" fill="#7D8198"/>
</svg>
