<svg width="28" height="28" viewBox="0 0 28 28" fill="none" xmlns="http://www.w3.org/2000/svg">
  <path d="M23.21 21.42h-.13c-.54 0-1.03-.33-1.23-.84L15.95 5.29c-.13-.34.12-.71.49-.71.37 0 .71-.35.71-.79s-.35-.79-.79-.79h-4.74c-.44 0-.79.35-.79.79s.52.79.71.79c.37 0 .63.37.49.71L6.18 20.49l-.03.08c-.2.51-.69.84-1.23.84h-.13c-.44 0-.79.35-.79.79s.35.79.79.79h3.11c.44 0 .79-.35.79-.79s-.35-.79-.79-.79c-.12 0-.19-.07-.22-.11-.03-.04-.07-.13-.03-.23l1.08-2.8h9.47l1.08 2.8c.04.1 0 .19-.03.23-.03.04-.1.11-.22.11-.44 0-.79.35-.79.79s.35.79.79.79h4.17c.44 0 .79-.35.79-.79s-.35-.79-.79-.79zM9.35 16.68l4.13-10.7 4.13 10.7H9.35z" fill="#7D8198"/>
</svg>
