<svg width="28" height="28" viewBox="0 0 28 28" fill="none" xmlns="http://www.w3.org/2000/svg">
<path d="M10.2197 16.7197C9.92677 17.0126 9.92677 17.4874 10.2197 17.7803C10.5126 18.0732 10.9874 18.0732 11.2803 17.7803L17.7764 11.2842C18.0693 10.9913 18.0693 10.5165 17.7764 10.2236C17.4835 9.93068 17.0086 9.93068 16.7158 10.2236L10.2197 16.7197Z" fill="#7D8198"/>
<path fill-rule="evenodd" clip-rule="evenodd" d="M14 25C20.0751 25 25 20.0751 25 14C25 7.92487 20.0751 3 14 3C7.92487 3 3 7.92487 3 14C3 20.0751 7.92487 25 14 25ZM23.5 14C23.5 19.2467 19.2467 23.5 14 23.5C8.75329 23.5 4.5 19.2467 4.5 14C4.5 8.75329 8.75329 4.5 14 4.5C19.2467 4.5 23.5 8.75329 23.5 14Z" fill="#7D8198"/>
</svg>
