<svg width="28" height="28" viewBox="0 0 28 28" fill="none" xmlns="http://www.w3.org/2000/svg">
<path d="M12.5 9C12.9142 9 13.25 9.33579 13.25 9.75V11.75H15.25C15.6642 11.75 16 12.0858 16 12.5C16 12.9142 15.6642 13.25 15.25 13.25H13.25V15.25C13.25 15.6642 12.9142 16 12.5 16C12.0858 16 11.75 15.6642 11.75 15.25V13.25H9.75C9.33579 13.25 9 12.9142 9 12.5C9 12.0858 9.33579 11.75 9.75 11.75H11.75V9.75C11.75 9.33579 12.0858 9 12.5 9Z" fill="#7D8198"/>
<path fill-rule="evenodd" clip-rule="evenodd" d="M19.0181 17.956C20.2552 16.4796 21 14.5768 21 12.5C21 7.80558 17.1944 4 12.5 4C7.80558 4 4 7.80558 4 12.5C4 17.1944 7.80558 21 12.5 21C14.5775 21 16.481 20.2547 17.9576 19.0168L21.7211 22.7803C22.014 23.0732 22.4889 23.0732 22.7818 22.7803C23.0747 22.4874 23.0747 22.0126 22.7818 21.7197L19.0181 17.956ZM19.5 12.5C19.5 16.366 16.366 19.5 12.5 19.5C8.63401 19.5 5.5 16.366 5.5 12.5C5.5 8.63401 8.63401 5.5 12.5 5.5C16.366 5.5 19.5 8.63401 19.5 12.5Z" fill="#7D8198"/>
</svg>
