<svg width="28" height="28" viewBox="0 0 28 28" fill="none" xmlns="http://www.w3.org/2000/svg">
<path fill-rule="evenodd" clip-rule="evenodd" d="M16.75 5C17.1642 5 17.5 5.33579 17.5 5.75V22.25C17.5 22.6642 17.1642 23 16.75 23C16.3358 23 16 22.6642 16 22.25V5.75C16 5.33579 16.3358 5 16.75 5ZM7.75 10C8.16421 10 8.5 10.3358 8.5 10.75V17.25C8.5 17.6642 8.16421 18 7.75 18C7.33579 18 7 17.6642 7 17.25V10.75C7 10.3358 7.33579 10 7.75 10ZM19.75 11C20.1642 11 20.5 11.3358 20.5 11.75V16.25C20.5 16.6642 20.1642 17 19.75 17C19.3358 17 19 16.6642 19 16.25V11.75C19 11.3358 19.3358 11 19.75 11ZM11.5 12.748C11.5 12.3338 11.1642 11.998 10.75 11.998C10.3358 11.998 10 12.3338 10 12.748V15.25C10 15.6642 10.3358 16 10.75 16C11.1642 16 11.5 15.6642 11.5 15.25V12.748ZM14.5 8.74634C14.5 8.33212 14.1642 7.99634 13.75 7.99634C13.3358 7.99634 13 8.33212 13 8.74634V19.25C13 19.6642 13.3358 20 13.75 20C14.1642 20 14.5 19.6642 14.5 19.25V8.74634Z" fill="#7D8198"/>
</svg>
