<svg width="28" height="28" viewBox="0 0 28 28" fill="none" xmlns="http://www.w3.org/2000/svg">
<path fill-rule="evenodd" clip-rule="evenodd" d="M21.249 4.01013H16.2453L16.2382 4L16.2237 4.01013H9.87702L9.86992 4L9.85544 4.01013H6.74902C5.23024 4.01013 3.99902 5.24075 3.99902 6.7588V21.2518C3.99902 22.7698 5.23024 24.0005 6.74902 24.0005H15.2508C15.665 24.0005 16.0008 23.6648 16.0008 23.2508C16.0008 22.8368 15.665 22.5012 15.2508 22.5012H6.74902C6.05867 22.5012 5.49902 21.9418 5.49902 21.2518V9.50613H22.499V12.2528C22.499 12.6668 22.8348 13.0024 23.249 13.0024C23.6632 13.0024 23.999 12.6668 23.999 12.2528V6.7588C23.999 5.24075 22.7678 4.01013 21.249 4.01013ZM12.6769 8.00686H17.214L15.4644 5.50941H10.9273L12.6769 8.00686ZM22.499 8.00686H19.0452L17.2956 5.50941H21.249C21.9394 5.50941 22.499 6.06878 22.499 6.7588V8.00686ZM9.09617 5.50941L10.8457 8.00686H5.49902V6.7588C5.49902 6.06878 6.05867 5.50941 6.74902 5.50941H9.09617Z" fill="#7D8198"/>
<path fill-rule="evenodd" clip-rule="evenodd" d="M19.0047 17.3777V19.0029H19C18.4477 19.0029 18 19.4504 18 20.0024V24.0005C18 24.5525 18.4477 25 19 25H24C24.5523 25 25 24.5525 25 24.0005V20.0024C25 19.452 24.5548 19.0054 24.0047 19.0029V17.3777C24.0047 17.0579 23.9367 16.7429 23.8064 16.4509C23.6761 16.1592 23.4868 15.8979 23.2523 15.6804C23.0179 15.463 22.7426 15.2932 22.4435 15.1783C22.1444 15.0634 21.8255 15.0048 21.5047 15.0048C21.1839 15.0048 20.865 15.0634 20.5659 15.1783C20.2668 15.2932 19.9915 15.463 19.7571 15.6804C19.5226 15.8979 19.3333 16.1592 19.203 16.4509C19.0727 16.7429 19.0047 17.0579 19.0047 17.3777ZM21.5047 16.5041C21.3659 16.5041 21.2296 16.5295 21.1041 16.5777C20.9786 16.6259 20.8681 16.6953 20.7774 16.7794C20.6869 16.8633 20.6184 16.9599 20.5728 17.062C20.5273 17.164 20.5047 17.2711 20.5047 17.3777V19.0029H22.5047V17.3777C22.5047 17.2711 22.4821 17.164 22.4366 17.062C22.391 16.9599 22.3225 16.8633 22.232 16.7794C22.1413 16.6953 22.0308 16.6259 21.9053 16.5777C21.7798 16.5295 21.6435 16.5041 21.5047 16.5041Z" fill="#7D8198"/>
</svg>
