<svg width="28" height="28" viewBox="0 0 28 28" fill="none" xmlns="http://www.w3.org/2000/svg">
<path fill-rule="evenodd" clip-rule="evenodd" d="M19.5314 4.28255C19.5314 4.28255 23.3574 9.66124 24.4288 13.4369C19.7956 20.9833 14.1839 24.9483 13.9967 25C13.8051 24.9479 7.86885 20.916 3.56467 13.4369C4.63605 9.66125 8.46204 4.28255 8.46204 4.28255C8.46204 4.28255 10.8535 4 14.0061 4C17.1587 4 19.5314 4.28255 19.5314 4.28255ZM13.6688 15.863L12.2444 14.7752C12.2095 14.7466 12.2297 14.69 12.2749 14.69H15.7241C15.7692 14.69 15.7895 14.7466 15.7545 14.7752L14.3302 15.863L14.7074 16.9662L17.4619 17.4494C17.4861 17.4536 17.5096 17.4389 17.5164 17.4153L19.732 9.70626L16.4628 11.9303L16.5951 14.3868C16.5982 14.4421 16.5207 14.4579 16.5019 14.4058L15.1551 10.5764L19.7528 9.00041L17.3907 7.69303L13.9995 8.84993L10.5801 7.69303L8.24073 8.99988L12.8439 10.5764L11.497 14.4058C11.4782 14.4579 11.4007 14.4421 11.4038 14.3868L11.5361 11.9303L8.26705 9.70628L10.4858 17.4148C10.4926 17.4384 10.5161 17.4531 10.5403 17.4488L13.2917 16.9657L13.6688 15.863ZM11.7966 17.8826L12.3825 19.4212H15.6113L16.1972 17.8826L13.9967 17.5396L11.7966 17.8826Z" fill="#7D8198"/>
</svg>
