<svg width="28" height="28" viewBox="0 0 28 28" fill="none" xmlns="http://www.w3.org/2000/svg">
<path fill-rule="evenodd" clip-rule="evenodd" d="M25 14C25 7.92487 20.0751 3 14 3C7.92487 3 3 7.92487 3 14C3 20.0751 7.92487 25 14 25C20.0751 25 25 20.0751 25 14ZM18.0412 22.6001C18.281 22.2587 18.4877 21.9011 18.6613 21.5623C19.1952 20.5202 19.1701 19.3088 18.8388 18.1858L18.7647 17.9345C18.5438 17.1859 18.1049 16.5202 17.5039 16.0224L17.1307 15.7132C16.9054 15.5266 16.6397 15.3952 16.3546 15.3294L16.0517 15.2595C15.3766 15.1037 14.8983 14.5025 14.8983 13.8097C14.8983 13.4193 15.0518 13.0445 15.3256 12.7662L15.8751 12.2076C16.3786 11.6959 17.0664 11.4077 17.7843 11.4077H18.0475C18.2962 11.4077 18.5414 11.4664 18.7631 11.5791L19.3514 11.8781C19.8126 12.1124 20.3763 11.9245 20.6046 11.4604C20.852 10.9574 20.6005 10.3517 20.0697 10.1718L18.8105 9.74514C18.5645 9.6618 18.2954 9.68115 18.0638 9.79882L17.9395 9.86202C17.3547 10.1592 16.6621 9.73436 16.6621 9.07833C16.6621 8.84767 16.7528 8.62626 16.9145 8.46183L17.3283 8.04122C17.4715 7.8957 17.6332 7.76972 17.8093 7.66652L18.0093 7.54932C18.9732 6.98455 20.1488 6.97089 20.9976 7.5747C19.4512 5.89143 17.3053 4.76768 14.8983 4.54192V7.8163C14.8983 8.36977 14.5876 8.87636 14.0941 9.12713L13.8475 9.25248C13.423 9.46823 12.9077 9.38418 12.5737 9.04473C12.3684 8.83597 12.0878 8.71841 11.7949 8.71841H11.6372C11.003 8.71841 10.489 9.23248 10.489 9.86661C10.489 10.267 10.2804 10.6384 9.9386 10.8469L6.6299 12.8648C6.28809 13.0733 6.07955 13.4447 6.07955 13.8451C6.07955 14.4792 6.59362 14.9933 7.22776 14.9933H7.94398C8.44374 14.9933 8.92258 15.194 9.27306 15.5502L10.0633 16.3535C10.9012 17.2052 11.3708 18.3522 11.3708 19.547V19.6536C11.3708 21.1615 12.076 22.5679 13.2518 23.471C13.4987 23.4902 13.7482 23.5 14 23.5C15.4452 23.5 16.8149 23.1773 18.0412 22.6001Z" fill="#7D8198"/>
</svg>
