<svg width="28" height="28" viewBox="0 0 28 28" fill="none" xmlns="http://www.w3.org/2000/svg">
<path d="M14.5403 5.2344C14.3988 5.08756 14.2038 5.00461 13.9999 5.00464C13.796 5.00467 13.601 5.08768 13.4596 5.23457L7.20961 11.7288C6.92238 12.0273 6.93148 12.5021 7.22993 12.7893C7.52838 13.0765 8.00317 13.0674 8.2904 12.769L13.25 7.61555V22.2515C13.25 22.6657 13.5858 23.0015 14 23.0015C14.4142 23.0015 14.75 22.6657 14.75 22.2515V7.61466L19.7137 12.7691C20.0011 13.0675 20.4759 13.0764 20.7742 12.7891C21.0726 12.5018 21.0815 12.027 20.7942 11.7287L14.5403 5.2344Z" fill="#7D8198"/>
</svg>
