<svg width="28" height="28" viewBox="0 0 28 28" fill="none" xmlns="http://www.w3.org/2000/svg">
<path d="M15 15.9985C15 15.4462 14.5523 14.9985 14 14.9985C13.4477 14.9985 13 15.4462 13 15.9985V17.9985C13 18.5508 13.4477 18.9985 14 18.9985C14.5523 18.9985 15 18.5508 15 17.9985V15.9985Z" fill="#7D8198"/>
<path fill-rule="evenodd" clip-rule="evenodd" d="M9 8V10H8.74622C7.22743 10 5.99622 11.2312 5.99622 12.75V21.25C5.99622 22.7688 7.22743 24 8.74622 24H19.2462C20.765 24 21.9962 22.7688 21.9962 21.25V12.75C21.9962 11.2312 20.765 10 19.2462 10H19V8C19 5.18715 16.7562 3 14 3C11.2438 3 9 5.18715 9 8ZM14 4.5C12.0616 4.5 10.5 6.02618 10.5 8V10H17.5V8C17.5 6.02618 15.9384 4.5 14 4.5ZM8.74622 11.5C8.05586 11.5 7.49622 12.0596 7.49622 12.75V21.25C7.49622 21.9404 8.05586 22.5 8.74622 22.5H19.2462C19.9366 22.5 20.4962 21.9404 20.4962 21.25V12.75C20.4962 12.0596 19.9366 11.5 19.2462 11.5H8.74622Z" fill="#7D8198"/>
</svg>
