<svg width="28" height="28" viewBox="0 0 28 28" fill="none" xmlns="http://www.w3.org/2000/svg">
<path d="M14.0009 9C14.0866 9 14.165 9.04842 14.2033 9.12507L15.5705 11.8594L18.81 12.3578C18.8943 12.3708 18.9641 12.43 18.9906 12.511C19.0171 12.5921 18.9959 12.6811 18.9356 12.7414L16.6938 14.9831L17.1926 18.225C17.2055 18.3093 17.17 18.3937 17.1007 18.4434C17.0313 18.493 16.9399 18.4994 16.8643 18.46L14.0009 16.9661L11.1375 18.46C11.0619 18.4994 10.9705 18.493 10.9012 18.4434C10.8318 18.3937 10.7963 18.3093 10.8093 18.225L11.308 14.9831L9.06627 12.7414C9.00599 12.6811 8.98471 12.5921 9.01123 12.511C9.03776 12.43 9.10758 12.3708 9.19185 12.3578L12.4314 11.8594L13.7986 9.12507C13.8369 9.04842 13.9152 9 14.0009 9Z" fill="#7D8198"/>
<path fill-rule="evenodd" clip-rule="evenodd" d="M6.75 4C5.23122 4 4 5.23122 4 6.75V21.25C4 22.7688 5.23122 24 6.75 24H21.25C22.7688 24 24 22.7688 24 21.25V6.75C24 5.23122 22.7688 4 21.25 4H6.75ZM5.5 6.75C5.5 6.05964 6.05964 5.5 6.75 5.5H21.25C21.9404 5.5 22.5 6.05964 22.5 6.75V21.25C22.5 21.9404 21.9404 22.5 21.25 22.5H6.75C6.05964 22.5 5.5 21.9404 5.5 21.25V6.75Z" fill="#7D8198"/>
</svg>
