<svg width="28" height="28" viewBox="0 0 28 28" fill="none" xmlns="http://www.w3.org/2000/svg">
<path fill-rule="evenodd" clip-rule="evenodd" d="M4.94957 4.30031C5.19549 3.36674 6.13883 2.81272 7.05658 3.06287L22.7245 7.33339C23.6422 7.58353 24.1869 8.54312 23.941 9.47669L23.0504 12.8574C23.036 12.9123 23.0191 12.9658 23 13.018V20.25C23 22.3211 21.3211 24 19.25 24H8.75C6.67893 24 5 22.3211 5 20.25V12.7473C5 12.3331 5.33579 11.9973 5.75 11.9973C6.16421 11.9973 6.5 12.3331 6.5 12.7473V20.25C6.5 21.4926 7.50736 22.5 8.75 22.5H19.25C20.4926 22.5 21.5 21.4926 21.5 20.25V14.1513C21.3175 14.1633 21.1299 14.1457 20.9434 14.0949L5.27553 9.82435C4.35777 9.5742 3.81313 8.61461 4.05905 7.68105L4.94957 4.30031ZM6.67493 4.51176C6.54382 4.47603 6.40906 4.55517 6.37393 4.68854L5.4834 8.06928C5.44827 8.20264 5.52608 8.33973 5.65718 8.37546L21.3251 12.646C21.4562 12.6817 21.5909 12.6026 21.6261 12.4692L22.5166 9.08846C22.5517 8.95509 22.4739 8.81801 22.3428 8.78227L6.67493 4.51176Z" fill="#7D8198"/>
<path d="M11.75 16C11.3358 16 11 16.3358 11 16.75C11 17.1642 11.3358 17.5 11.75 17.5H16.25C16.6642 17.5 17 17.1642 17 16.75C17 16.3358 16.6642 16 16.25 16H11.75Z" fill="#7D8198"/>
</svg>
