<svg width="28" height="28" viewBox="0 0 28 28" fill="none" xmlns="http://www.w3.org/2000/svg">
<path fill-rule="evenodd" clip-rule="evenodd" d="M10.7896 4C9.05423 4 7.75267 5.58764 8.093 7.28931L8.84562 11.0525C9.0827 12.2379 8.90342 13.4688 8.33805 14.5373L7.08707 16.9017C6.96407 17.1342 6.97183 17.4141 7.10752 17.6394C7.24321 17.8647 7.48699 18.0024 7.75 18.0024H13.25L13.25 23.2482C13.25 23.6625 13.5858 23.9982 14 23.9982C14.4142 23.9982 14.75 23.6625 14.75 23.2482L14.75 18.0024H20.2522C20.5152 18.0024 20.7591 17.8646 20.8947 17.6392C21.0304 17.4139 21.0381 17.1339 20.915 16.9014L19.6632 14.5379C19.097 13.4689 18.9174 12.2372 19.1546 11.0511L19.907 7.28933C20.2473 5.58765 18.9458 4 17.2104 4H10.7896ZM9.56387 6.99514C9.40918 6.22165 10.0008 5.5 10.7896 5.5H17.2104C17.9992 5.5 18.5908 6.22166 18.4361 6.99515L17.6837 10.7569C17.3787 12.282 17.6097 13.8656 18.3376 15.24L19.0063 16.5024H8.99534L9.6639 15.2389C10.3908 13.865 10.6213 12.2824 10.3165 10.7583L9.56387 6.99514Z" fill="#7D8198"/>
</svg>
