<svg width="28" height="28" viewBox="0 0 28 28" fill="none" xmlns="http://www.w3.org/2000/svg">
<path d="M6.99915 9.75C6.99915 9.33579 7.33493 9 7.74915 9H12.25C12.6642 9 13 9.33579 13 9.75C13 10.1642 12.6642 10.5 12.25 10.5H8.49915V14.25C8.49915 14.6642 8.16336 15 7.74915 15C7.33493 15 6.99915 14.6642 6.99915 14.25V9.75Z" fill="#7D8198"/>
<path d="M21.0008 13.75C21.0008 13.3358 20.665 13 20.2508 13C19.8366 13 19.5008 13.3358 19.5008 13.75V17.5H15.75C15.3358 17.5 15 17.8358 15 18.25C15 18.6642 15.3358 19 15.75 19H20.2508C20.665 19 21.0008 18.6642 21.0008 18.25V13.75Z" fill="#7D8198"/>
<path fill-rule="evenodd" clip-rule="evenodd" d="M3 7.75C3 6.23122 4.23122 5 5.75 5H22.25C23.7688 5 25 6.23122 25 7.75V20.25C25 21.7688 23.7688 23 22.25 23H5.75C4.23122 23 3 21.7688 3 20.25V7.75ZM5.75 6.5C5.05964 6.5 4.5 7.05964 4.5 7.75V20.25C4.5 20.9404 5.05964 21.5 5.75 21.5H22.25C22.9404 21.5 23.5 20.9404 23.5 20.25V7.75C23.5 7.05964 22.9404 6.5 22.25 6.5H5.75Z" fill="#7D8198"/>
</svg>
