<svg width="28" height="28" viewBox="0 0 28 28" fill="none" xmlns="http://www.w3.org/2000/svg">
<path d="M7 7C7.00118 6.44771 7.44984 6 8.00213 6H22.0021C22.5544 6 23.0012 6.44771 23 7C22.9988 7.55228 22.5502 8 21.9979 8H7.99788C7.44559 8 6.99883 7.55228 7 7Z" fill="#7D8198"/>
<path d="M3 14C3.00118 13.4477 3.44984 13 4.00213 13H22.0021C22.5544 13 23.0012 13.4477 23 14C22.9988 14.5523 22.5502 15 21.9979 15H3.99788C3.44559 15 2.99883 14.5523 3 14Z" fill="#7D8198"/>
<path d="M10.0021 20C9.44984 20 9.00118 20.4477 9 21C8.99883 21.5523 9.44559 22 9.99788 22H21.9979C22.5502 22 22.9988 21.5523 23 21C23.0012 20.4477 22.5544 20 22.0021 20H10.0021Z" fill="#7D8198"/>
</svg>
