<svg width="28" height="28" viewBox="0 0 28 28" fill="none" xmlns="http://www.w3.org/2000/svg">
<path d="M13.4433 11.2966C13.2823 11.6783 12.8425 11.8572 12.4608 11.6963C12.0808 11.5361 11.6671 11.4724 11.2565 11.5108C10.846 11.5493 10.4513 11.6887 10.1077 11.9166C9.76401 12.1446 9.4821 12.454 9.28703 12.8173C9.09195 13.1806 8.98978 13.5865 8.9896 13.9989C8.98943 14.4113 9.09126 14.8173 9.28603 15.1808C9.4808 15.5442 9.76246 15.8539 10.1059 16.0821C10.4493 16.3104 10.8439 16.4501 11.2545 16.4889C11.665 16.5277 12.0788 16.4643 12.4589 16.3044C12.8407 16.1438 13.2804 16.3232 13.441 16.705C13.6016 17.0868 13.4222 17.5265 13.0404 17.6871C12.4322 17.9429 11.7702 18.0443 11.1134 17.9822C10.4565 17.9202 9.8252 17.6966 9.27568 17.3314C8.72617 16.9662 8.27552 16.4708 7.96389 15.8892C7.65226 15.3077 7.48933 14.6581 7.4896 13.9983C7.48988 13.3385 7.65336 12.689 7.96548 12.1077C8.2776 11.5264 8.72866 11.0314 9.27848 10.6667C9.8283 10.3019 10.4598 10.0789 11.1167 10.0174C11.7736 9.95587 12.4356 10.0578 13.0435 10.3141C13.4252 10.475 13.6042 10.9149 13.4433 11.2966Z" fill="#7D8198"/>
<path d="M19.4921 11.6963C19.8737 11.8572 20.3136 11.6783 20.4745 11.2966C20.6354 10.9149 20.4565 10.475 20.0748 10.3141C19.4668 10.0578 18.8049 9.95587 18.148 10.0174C17.491 10.0789 16.8596 10.3019 16.3097 10.6667C15.7599 11.0314 15.3088 11.5264 14.9967 12.1077C14.6846 12.689 14.5211 13.3385 14.5209 13.9983C14.5206 14.6581 14.6835 15.3077 14.9951 15.8892C15.3068 16.4708 15.7574 16.9662 16.3069 17.3314C16.8564 17.6966 17.4878 17.9202 18.1446 17.9822C18.8015 18.0443 19.4635 17.9429 20.0717 17.6871C20.4535 17.5265 20.6328 17.0868 20.4722 16.705C20.3116 16.3232 19.8719 16.1438 19.4901 16.3044C19.11 16.4643 18.6962 16.5277 18.2857 16.4889C17.8752 16.4501 17.4806 16.3104 17.1372 16.0821C16.7937 15.8539 16.5121 15.5442 16.3173 15.1808C16.1225 14.8173 16.0207 14.4113 16.0209 13.9989C16.021 13.5865 16.1232 13.1806 16.3183 12.8173C16.5133 12.454 16.7953 12.1446 17.1389 11.9166C17.4825 11.6887 17.8772 11.5493 18.2878 11.5108C18.6984 11.4724 19.1121 11.5361 19.4921 11.6963Z" fill="#7D8198"/>
<path fill-rule="evenodd" clip-rule="evenodd" d="M3 7.75C3 6.23122 4.23122 5 5.75 5H22.25C23.7688 5 25 6.23122 25 7.75V20.25C25 21.7688 23.7688 23 22.25 23H5.75C4.23122 23 3 21.7688 3 20.25V7.75ZM5.75 6.5C5.05964 6.5 4.5 7.05964 4.5 7.75V20.25C4.5 20.9404 5.05964 21.5 5.75 21.5H22.25C22.9404 21.5 23.5 20.9404 23.5 20.25V7.75C23.5 7.05964 22.9404 6.5 22.25 6.5H5.75Z" fill="#7D8198"/>
</svg>
