<svg width="28" height="28" viewBox="0 0 28 28" fill="none" xmlns="http://www.w3.org/2000/svg">
<path d="M14 17C14.1468 17 14.2907 17.0029 14.4316 17.0084C13.839 18.0361 13.5 19.2285 13.5 20.5C13.5 22.1889 14.0981 23.7381 15.0941 24.9473C14.7598 24.9797 14.4131 24.9982 14.0545 24.9999C14.0218 25 13.9891 25.0001 13.9565 24.9999C10.6259 24.9873 8.31576 23.5273 7.47338 22.9C7.39385 22.8393 7.32383 22.7708 7.26379 22.6962C6.1424 21.8275 5.19219 20.7444 4.47374 19.5C3.263 17.403 2.77806 14.965 3.09412 12.5642C3.41019 10.1635 4.5096 7.93408 6.22184 6.22184C7.93408 4.5096 10.1635 3.41019 12.5642 3.09412C14.965 2.77806 17.403 3.263 19.5 4.47374C21.5971 5.68448 23.236 7.55335 24.1627 9.7905C24.8603 11.4747 25.1249 13.2968 24.9456 15.0927C24.5051 14.7301 24.0195 14.4203 23.4984 14.1729C23.522 12.8754 23.2797 11.5785 22.7769 10.3645C21.9766 8.43244 20.5611 6.81841 18.75 5.77277C16.9389 4.72714 14.8334 4.30832 12.76 4.58129C10.6866 4.85426 8.76126 5.80375 7.2825 7.2825C5.80375 8.76126 4.85426 10.6866 4.58129 12.76C4.30832 14.8334 4.72714 16.9389 5.77277 18.75C6.21122 19.5094 6.7496 20.1993 7.36946 20.8034C8.05048 19.3397 9.79722 17 14 17Z" fill="#7D8198"/>
<path d="M14 15C16.2251 15 18.0288 13.2092 18.0288 11C18.0288 8.79088 16.2251 7.00002 14 7.00002C11.775 7.00002 9.97127 8.79088 9.97127 11C9.97127 13.2092 11.775 15 14 15Z" fill="#7D8198"/>
<path fill-rule="evenodd" clip-rule="evenodd" d="M20.5 26C23.5376 26 26 23.5376 26 20.5C26 17.4624 23.5376 15 20.5 15C17.4624 15 15 17.4624 15 20.5C15 23.5376 17.4624 26 20.5 26ZM21.25 17.25C21.25 16.8358 20.9142 16.5 20.5 16.5C20.0858 16.5 19.75 16.8358 19.75 17.25V19.75H17.2497C16.8355 19.75 16.4997 20.0858 16.4997 20.5C16.4997 20.9142 16.8355 21.25 17.2497 21.25H19.75V23.75C19.75 24.1642 20.0858 24.5 20.5 24.5C20.9142 24.5 21.25 24.1642 21.25 23.75V21.25H23.7497C24.1639 21.25 24.4997 20.9142 24.4997 20.5C24.4997 20.0858 24.1639 19.75 23.7497 19.75H21.25V17.25Z" fill="#7D8198"/>
</svg>
