<svg width="28" height="28" viewBox="0 0 28 28" fill="none" xmlns="http://www.w3.org/2000/svg">
<path fill-rule="evenodd" clip-rule="evenodd" d="M20.6305 20.8034C22.4007 19.0779 23.5 16.6673 23.5 14C23.5 8.75329 19.2467 4.5 14 4.5C8.75329 4.5 4.5 8.75329 4.5 14C4.5 16.6673 5.59925 19.0779 7.36945 20.8034C8.05046 19.3396 9.7972 17 14 17C18.2028 17 19.9495 19.3397 20.6305 20.8034ZM20.7458 22.6894C23.3345 20.6768 25 17.5329 25 14C25 7.92487 20.0751 3 14 3C7.92487 3 3 7.92487 3 14C3 17.5379 4.67022 20.6857 7.26517 22.6979C7.32489 22.7718 7.39445 22.8397 7.47336 22.9C8.31941 23.53 10.646 25 14 25C14 25 14 25 14 25C17.3539 25 19.6806 23.53 20.5266 22.9C20.6099 22.8385 20.6833 22.7675 20.7458 22.6894ZM14 15C16.2251 15 18.0288 13.2091 18.0288 11C18.0288 8.79086 16.2251 7 14 7C11.775 7 9.97125 8.79086 9.97125 11C9.97125 13.2091 11.775 15 14 15Z" fill="#7D8198"/>
</svg>
