<svg width="32" height="32" viewBox="0 0 32 32" fill="none" xmlns="http://www.w3.org/2000/svg">
<path d="M12.5714 23.9999C12.5714 24.4501 12.6601 24.896 12.8324 25.312C13.0047 25.7279 13.2573 26.1059 13.5756 26.4243C13.894 26.7426 14.272 26.9952 14.688 27.1675C15.1039 27.3398 15.5498 27.4285 16 27.4285C16.4503 27.4285 16.8961 27.3398 17.3121 27.1675C17.728 26.9952 18.106 26.7426 18.4244 26.4243C18.7427 26.1059 18.9953 25.7279 19.1676 25.312C19.3399 24.896 19.4286 24.4501 19.4286 23.9999H12.5714Z" fill="#7D8198"/>
<path fill-rule="evenodd" clip-rule="evenodd" d="M16 3.42847C11.5817 3.42847 8.00001 7.01019 8.00001 11.4285V13.714C8.00001 16.0757 7.2033 17.4414 6.55061 18.164C6.10229 18.6603 5.71429 19.2795 5.71429 19.9484C5.71429 20.9236 6.50488 21.7142 7.48011 21.7142H24.5199C25.4951 21.7142 26.2857 20.9236 26.2857 19.9484C26.2857 19.2795 25.8977 18.6603 25.4494 18.164C24.7967 17.4414 24 16.0757 24 13.714V11.4285C24 7.01019 20.4183 3.42847 16 3.42847Z" fill="#7D8198"/>
</svg>
