<svg width="32" height="32" viewBox="0 0 32 32" fill="none" xmlns="http://www.w3.org/2000/svg">
<path fill-rule="evenodd" clip-rule="evenodd" d="M8 8.85725C8 6.49031 9.91878 4.57153 12.2857 4.57153H19.7143C22.0812 4.57153 24 6.49031 24 8.85725V23.143C24 25.5099 22.0812 27.4287 19.7143 27.4287H12.2857C9.91878 27.4287 8 25.5099 8 23.143V8.85725ZM13.7143 20.5715C13.0831 20.5715 12.5714 21.0832 12.5714 21.7144C12.5714 22.3456 13.0831 22.8572 13.7143 22.8572H18.2857C18.9169 22.8572 19.4286 22.3456 19.4286 21.7144C19.4286 21.0832 18.9169 20.5715 18.2857 20.5715H13.7143Z" fill="#7D8198"/>
</svg>
