<svg width="32" height="32" viewBox="0 0 32 32" fill="none" xmlns="http://www.w3.org/2000/svg">
<path fill-rule="evenodd" clip-rule="evenodd" d="M8.63433 9.44497C9.8514 6.58132 12.69 4.57153 16.0001 4.57153C20.119 4.57153 23.5108 7.68424 23.9516 11.686L24.1339 11.7184C27.3624 12.2924 29.7143 15.0993 29.7143 18.3785C29.7143 22.1144 26.6858 25.143 22.9498 25.143H10.0001C5.73957 25.143 2.28577 21.6892 2.28577 17.4287V17.041C2.28577 13.1836 5.08482 10.0823 8.63433 9.44497ZM11.7634 15.6654C11.317 15.2191 11.317 14.4954 11.7634 14.0491L15.1919 10.6206C15.6382 10.1742 16.3618 10.1742 16.8081 10.6206L20.2367 14.0491C20.6831 14.4954 20.6831 15.219 20.2367 15.6654C19.7904 16.1117 19.0668 16.1117 18.6205 15.6654L17.1428 14.1876V20.5715C17.1428 21.2027 16.6311 21.7144 15.9999 21.7144C15.3687 21.7144 14.8571 21.2027 14.8571 20.5715V14.1879L13.3796 15.6654C12.9333 16.1117 12.2097 16.1117 11.7634 15.6654Z" fill="#7D8198"/>
</svg>
