<svg width="32" height="32" viewBox="0 0 32 32" fill="none" xmlns="http://www.w3.org/2000/svg">
<path fill-rule="evenodd" clip-rule="evenodd" d="M6.88787 6.30886C7.42025 5.24411 8.5085 4.57153 9.69893 4.57153H22.3022C23.4926 4.57153 24.5809 5.24411 25.1133 6.30886L28.2402 12.5627C28.4584 12.9991 28.572 13.4803 28.572 13.9683V23.143C28.572 24.8787 27.1649 26.2858 25.4291 26.2858H6.572C4.83624 26.2858 3.42914 24.8787 3.42914 23.143V13.9683C3.42914 13.4803 3.54274 12.9991 3.76094 12.5627L6.88787 6.30886ZM9.69893 6.28582C9.15783 6.28582 8.66317 6.59154 8.42118 7.07552L5.29424 13.3294C5.23325 13.4514 5.19024 13.581 5.16616 13.7144H9.59811C10.8737 13.7144 12.0666 14.3461 12.7835 15.4012C14.3115 17.6503 17.6261 17.6503 19.1542 15.4012C19.871 14.3461 21.0639 13.7144 22.3395 13.7144H26.835C26.8109 13.581 26.7679 13.4514 26.7069 13.3294L23.58 7.07551C23.338 6.59154 22.8433 6.28582 22.3022 6.28582H9.69893ZM13.1419 20.5715C12.7375 20.5715 12.4618 20.9821 12.6138 21.3578L12.6434 21.4309C12.9924 22.2932 13.8277 22.8572 14.7558 22.8572H17.2442C18.1723 22.8572 19.0077 22.2932 19.3566 21.4309L19.3862 21.3578C19.5382 20.9821 19.2625 20.5715 18.8581 20.5715H13.1419Z" fill="#7D8198"/>
</svg>
