<svg width="32" height="32" viewBox="0 0 32 32" fill="none" xmlns="http://www.w3.org/2000/svg">
<path fill-rule="evenodd" clip-rule="evenodd" d="M21.9599 18.1003C21.5381 18.5558 21.2366 18.8815 21.2366 19.1579L21.2363 20.5686C21.2362 21.1997 20.7246 21.7112 20.0935 21.7112H11.9066C11.2755 21.7112 10.7638 21.1997 10.7637 20.5686L10.7635 19.1579C10.7635 18.8815 10.4619 18.5558 10.0401 18.1003C9.05934 17.041 7.42859 15.2799 7.42859 11.8038C7.42859 7.09821 11.7353 3.42847 16 3.42847C20.2647 3.42847 24.5714 7.09821 24.5714 11.8038C24.5714 15.2799 22.9407 17.041 21.9599 18.1003ZM17.1429 5.71429C16.5117 5.71429 16 6.22596 16 6.85714C16 7.48833 16.5117 8 17.1429 8C17.6283 8 18.2094 8.25423 18.6919 8.73669C19.1743 9.21915 19.4286 9.80026 19.4286 10.2857C19.4286 10.9169 19.9402 11.4286 20.5714 11.4286C21.2026 11.4286 21.7143 10.9169 21.7143 10.2857C21.7143 9.05688 21.1114 7.9237 20.3081 7.12045C19.5049 6.3172 18.3717 5.71429 17.1429 5.71429Z" fill="#7D8198"/>
<path d="M17.6162 28.0693C18.0449 27.7478 18.2857 27.3118 18.2857 26.8571H13.7143C13.7143 27.3118 13.9551 27.7478 14.3838 28.0693C14.8124 28.3908 15.3938 28.5714 16 28.5714C16.6062 28.5714 17.1876 28.3908 17.6162 28.0693Z" fill="#7D8198"/>
<path d="M11.7143 24.2857C11.7143 23.8123 12.098 23.4286 12.5714 23.4286H19.4286C19.902 23.4286 20.2857 23.8123 20.2857 24.2857C20.2857 24.7591 19.902 25.1429 19.4286 25.1429L12.5714 25.1429C12.098 25.1429 11.7143 24.7591 11.7143 24.2857Z" fill="#7D8198"/>
</svg>
