<svg width="32" height="32" viewBox="0 0 32 32" fill="none" xmlns="http://www.w3.org/2000/svg">
<path fill-rule="evenodd" clip-rule="evenodd" d="M4.57141 11.4286V23.143C4.57141 25.5099 6.49019 27.4287 8.85713 27.4287H23.1428C25.5098 27.4287 27.4286 25.5099 27.4286 23.143V11.4286H4.57141ZM19.7846 20.1296C20.8375 19.6038 20.8375 18.1029 19.7846 17.5771L14.6361 15.0058C13.6862 14.5314 12.5686 15.2214 12.5686 16.2821L12.5686 21.4246C12.5686 22.4853 13.6862 23.1752 14.6361 22.7009L19.7846 20.1296Z" fill="#7D8198"/>
<path d="M27.4286 9.14289V8.85725C27.4286 6.49031 25.5098 4.57153 23.1428 4.57153H20.1801L23.4453 9.14289H27.4286Z" fill="#7D8198"/>
<path d="M17.3712 4.57153H11.0372L14.3025 9.14289H20.6364L17.3712 4.57153Z" fill="#7D8198"/>
<path d="M8.25797 4.61308C6.17468 4.90451 4.57141 6.69365 4.57141 8.85725V9.14289H11.4936L8.25797 4.61308Z" fill="#7D8198"/>
</svg>
