<svg width="32" height="32" viewBox="0 0 32 32" fill="none" xmlns="http://www.w3.org/2000/svg">
<path d="M12.0427 7.20639C11.647 8.15426 11.4285 9.19452 11.4285 10.2858C11.4285 12.0874 12.024 13.7498 13.0289 15.0871C12.2651 15.6604 11.3159 16.0001 10.2873 16.0001C7.76261 16.0001 5.71591 13.9534 5.71591 11.4287C5.71591 8.90395 7.76261 6.85725 10.2873 6.85725C10.9093 6.85725 11.5022 6.98145 12.0427 7.20639Z" fill="#7D8198"/>
<path d="M11.7412 18.4009C10.8543 19.0293 10.0954 19.7288 9.45737 20.432C8.18665 21.8324 7.78001 23.5569 8.10923 25.1438H6.24344C5.18718 25.1438 4.25429 24.6249 3.77026 23.8212C3.26283 22.9786 3.3015 21.8948 4.07958 21.0295C5.32505 19.6445 7.32093 18.2867 10.2911 18.2867C10.803 18.2867 11.286 18.327 11.7412 18.4009Z" fill="#7D8198"/>
<path d="M13.7142 10.2858C13.7142 7.12991 16.2726 4.57153 19.4285 4.57153C22.5844 4.57153 25.1428 7.12991 25.1428 10.2858C25.1428 13.4417 22.5844 16.0001 19.4285 16.0001C16.2726 16.0001 13.7142 13.4417 13.7142 10.2858Z" fill="#7D8198"/>
<path d="M11.1501 21.968C12.8557 20.0883 15.5252 18.2867 19.43 18.2867C23.3363 18.2867 26.0048 20.0896 27.7087 21.9702C28.7537 23.1236 28.7941 24.5445 28.1263 25.6501C27.4823 26.7163 26.2263 27.4276 24.7791 27.4276H14.0782C12.6302 27.4276 11.3739 26.7157 10.7301 25.6488C10.0625 24.5426 10.1038 23.1211 11.1501 21.968Z" fill="#7D8198"/>
</svg>
