<svg width="32" height="32" viewBox="0 0 32 32" fill="none" xmlns="http://www.w3.org/2000/svg">
<path fill-rule="evenodd" clip-rule="evenodd" d="M7.7143 5.71436C5.34737 5.71436 3.42859 7.63313 3.42859 10.0001V20.8572C3.42859 23.2241 5.34737 25.1429 7.7143 25.1429H9.14286V28.0021C9.14286 28.5033 9.74281 28.7617 10.1078 28.4178L13.5837 25.1429H24.2857C26.6527 25.1429 28.5714 23.2241 28.5714 20.8572V10.0001C28.5714 7.63313 26.6527 5.71436 24.2857 5.71436H7.7143ZM16.3497 10.8858C16.0976 10.8419 15.8389 10.8485 15.5897 10.9053C15.3406 10.962 15.1075 11.0674 14.9044 11.2135C14.7013 11.3597 14.5329 11.5432 14.4079 11.7517C14.2829 11.9602 14.2036 12.1898 14.1736 12.4266C14.152 12.597 14.1562 12.7692 14.1857 12.938C14.2945 13.5597 13.8787 14.1519 13.2569 14.2607C12.6352 14.3695 12.043 13.9536 11.9342 13.3319C11.8654 12.9387 11.8557 12.5368 11.9061 12.1391C11.9761 11.5864 12.1607 11.0548 12.4474 10.5766C12.734 10.0984 13.1162 9.68432 13.5693 9.35825C14.0224 9.03224 14.5372 8.80079 15.082 8.67667C15.6268 8.55255 16.1915 8.53807 16.7421 8.634C17.2926 8.72994 17.8188 8.93452 18.2883 9.23652C18.7579 9.53855 19.1615 9.93205 19.4731 10.3943C19.7849 10.8567 19.9978 11.3777 20.0975 11.9259C20.3584 13.3599 19.7671 14.4253 19.137 15.1716C18.848 15.5139 18.529 15.8155 18.2773 16.0534L18.2406 16.0881C17.9553 16.358 17.7869 16.5238 17.6835 16.6625L17.6705 16.6796C17.3448 17.0996 17.2209 17.4074 17.1735 17.5667C17.1524 17.6378 17.1452 17.6835 17.143 17.7013C17.1504 18.3021 16.6876 18.8115 16.0806 18.8543C15.451 18.8987 14.9046 18.4243 14.8602 17.7947L14.8601 17.7932L14.86 17.7917L14.8598 17.7887L14.8594 17.7826L14.8587 17.7694L14.8575 17.7398C14.8569 17.7186 14.8566 17.6945 14.857 17.6677C14.8577 17.6141 14.8608 17.5496 14.8685 17.4749C14.8837 17.3253 14.9167 17.1368 14.9825 16.9154C15.1144 16.4719 15.3724 15.915 15.8581 15.2868C16.0955 14.9708 16.4074 14.6758 16.6514 14.4451L16.6731 14.4245C16.9489 14.1637 17.1858 13.9395 17.3905 13.6971C17.7778 13.2383 17.9416 12.8456 17.8487 12.335C17.8059 12.0999 17.7143 11.8743 17.5779 11.6721C17.4415 11.4698 17.263 11.2947 17.0518 11.1589C16.8406 11.0231 16.6018 10.9297 16.3497 10.8858ZM17.1444 21.1428C17.1444 21.7739 16.6321 22.2856 16.0001 22.2856C15.3682 22.2856 14.8559 21.7739 14.8559 21.1428C14.8559 20.5116 15.3682 19.9999 16.0001 19.9999C16.6321 19.9999 17.1444 20.5116 17.1444 21.1428Z" fill="#7D8198"/>
</svg>
