<svg width="32" height="32" viewBox="0 0 32 32" fill="none" xmlns="http://www.w3.org/2000/svg">
<path fill-rule="evenodd" clip-rule="evenodd" d="M21.7143 13.7142C21.7143 18.1325 18.1326 21.7142 13.7143 21.7142C9.29602 21.7142 5.7143 18.1325 5.7143 13.7142C5.7143 9.2959 9.29602 5.71418 13.7143 5.71418C18.1326 5.71418 21.7143 9.2959 21.7143 13.7142ZM22.1538 19.5954C23.3175 17.9287 24 15.9011 24 13.7142C24 8.03354 19.3949 3.42847 13.7143 3.42847C8.03366 3.42847 3.42859 8.03354 3.42859 13.7142C3.42859 19.3948 8.03366 23.9999 13.7143 23.9999C15.9025 23.9999 17.9311 23.3166 19.5984 22.1517L22.2821 26.1773C23.266 27.6532 25.3541 27.8599 26.6083 26.6057C27.8625 25.3515 27.6558 23.2634 26.1799 22.2795L22.1538 19.5954Z" fill="#7D8198"/>
</svg>
