<svg width="32" height="32" viewBox="0 0 32 32" fill="none" xmlns="http://www.w3.org/2000/svg">
<path d="M14.9546 6.06646C15.5692 5.596 16.4229 5.59575 17.0378 6.06587L26.7344 13.4794C27.2359 13.8628 27.9531 13.7671 28.3365 13.2657C28.7198 12.7642 28.6241 12.047 28.1227 11.6636L18.426 4.25006C16.9913 3.15312 14.9994 3.15368 13.5653 4.25144L3.88125 11.664C3.38004 12.0477 3.28474 12.765 3.66839 13.2662C4.05203 13.7674 4.76935 13.8627 5.27055 13.479L14.9546 6.06646Z" fill="#7D8198"/>
<path d="M17.0782 8.95221C16.4422 8.46426 15.5578 8.46421 14.9218 8.95209L5.35444 16.2908C4.77917 16.7321 4.48775 17.4501 4.5928 18.1675L5.86591 25.7184C6.00973 26.7006 6.85217 27.4287 7.8448 27.4287L9.5343 27.4287C10.5835 27.4044 11.5079 26.6815 12.5688 25.6772L14.0817 24.1265C14.591 23.6175 15.2953 23.344 15.9996 23.344C16.665 23.344 17.3693 23.6175 17.8786 24.1265L19.4442 25.6915L19.4469 25.6941C20.5003 26.6896 21.4202 27.4046 22.4635 27.4287L24.1549 27.4287C25.1477 27.4287 25.9902 26.7004 26.1339 25.718L27.405 18.1671C27.5098 17.4499 27.2185 16.7321 26.6434 16.2909L17.0782 8.95221Z" fill="#7D8198"/>
</svg>
