<svg width="32" height="32" viewBox="0 0 32 32" fill="none" xmlns="http://www.w3.org/2000/svg">
<path fill-rule="evenodd" clip-rule="evenodd" d="M7.7143 6.85474C5.34737 6.85474 3.42859 8.77352 3.42859 11.1405V20.8547C3.42859 23.2217 5.34737 25.1405 7.7143 25.1405H24.2857C26.6527 25.1405 28.5714 23.2217 28.5714 20.8547V11.1405C28.5714 8.77352 26.6527 6.85474 24.2857 6.85474H7.7143ZM10.2822 21.7094C10.2822 21.0782 10.7939 20.5665 11.4251 20.5665H20.568C21.1991 20.5665 21.7108 21.0782 21.7108 21.7094C21.7108 22.3406 21.1991 22.8522 20.568 22.8522H11.4251C10.7939 22.8522 10.2822 22.3406 10.2822 21.7094ZM10.8572 17.7119C11.6461 17.7119 12.2857 17.0723 12.2857 16.2833C12.2857 15.4943 11.6461 14.8547 10.8572 14.8547C10.0682 14.8547 9.42859 15.4943 9.42859 16.2833C9.42859 17.0723 10.0682 17.7119 10.8572 17.7119ZM9.7143 11.7144C9.7143 12.5034 9.07471 13.143 8.28573 13.143C7.49675 13.143 6.85716 12.5034 6.85716 11.7144C6.85716 10.9254 7.49675 10.2858 8.28573 10.2858C9.07471 10.2858 9.7143 10.9254 9.7143 11.7144ZM16.0003 17.7119C16.7893 17.7119 17.4289 17.0723 17.4289 16.2833C17.4289 15.4943 16.7893 14.8547 16.0003 14.8547C15.2113 14.8547 14.5717 15.4943 14.5717 16.2833C14.5717 17.0723 15.2113 17.7119 16.0003 17.7119ZM14.8572 11.7144C14.8572 12.5034 14.2176 13.143 13.4286 13.143C12.6396 13.143 12 12.5034 12 11.7144C12 10.9254 12.6396 10.2858 13.4286 10.2858C14.2176 10.2858 14.8572 10.9254 14.8572 11.7144ZM21.1429 17.7119C21.9319 17.7119 22.5714 17.0723 22.5714 16.2833C22.5714 15.4943 21.9319 14.8547 21.1429 14.8547C20.3539 14.8547 19.7143 15.4943 19.7143 16.2833C19.7143 17.0723 20.3539 17.7119 21.1429 17.7119ZM25.1429 11.7144C25.1429 12.5034 24.5033 13.143 23.7143 13.143C22.9253 13.143 22.2857 12.5034 22.2857 11.7144C22.2857 10.9254 22.9253 10.2858 23.7143 10.2858C24.5033 10.2858 25.1429 10.9254 25.1429 11.7144ZM18.5714 13.143C19.3604 13.143 20 12.5034 20 11.7144C20 10.9254 19.3604 10.2858 18.5714 10.2858C17.7825 10.2858 17.1429 10.9254 17.1429 11.7144C17.1429 12.5034 17.7825 13.143 18.5714 13.143Z" fill="#7D8198"/>
</svg>
