<svg width="32" height="32" viewBox="0 0 32 32" fill="none" xmlns="http://www.w3.org/2000/svg">
<path d="M11.1127 20.577C11.309 20.577 11.4922 20.6771 11.5982 20.8415L16.0089 27.7009C16.2526 28.0798 15.981 28.5746 15.529 28.5747H12.3103C12.1138 28.5747 11.9307 28.4749 11.8248 28.3102L7.41405 21.452C7.17039 21.0731 7.44204 20.5773 7.89396 20.577H11.1127Z" fill="#7D8198"/>
<path d="M26.2857 3.43188C26.9168 3.43194 27.4286 3.9436 27.4286 4.57474V21.7243C27.4286 22.3554 26.9168 22.8671 26.2857 22.8672H25.7143C25.6671 22.8671 25.6205 22.8627 25.5748 22.8571C23.4552 22.8335 23.1089 22.5805 20.5714 20.577C18.6759 19.0805 16.2345 18.5643 14.8348 18.3861C14.215 18.307 13.7143 17.79 13.7143 17.1651V10.2355C13.7143 9.62539 14.1922 9.1165 14.7957 9.02787C16.1887 8.82389 18.6581 8.27858 20.5714 6.85822C23.1949 4.91056 23.4631 3.62448 25.5011 3.45197C25.5701 3.43896 25.6415 3.43189 25.7143 3.43188H26.2857Z" fill="#7D8198"/>
<path d="M10.2857 9.14505C10.9169 9.14505 11.4286 9.65673 11.4286 10.2879V17.1484C11.4284 17.7794 10.9168 18.2913 10.2857 18.2913H7.42855C5.8507 18.2913 4.57158 17.0119 4.57141 15.4341V12.0022C4.57141 10.4242 5.8506 9.14505 7.42855 9.14505H10.2857Z" fill="#7D8198"/>
</svg>
