<svg preserveAspectRatio="none" width="100%" height="100%" overflow="visible" style="display: block;" viewBox="0 0 10 13" fill="none" xmlns="http://www.w3.org/2000/svg">
<path id="Union" fill-rule="evenodd" clip-rule="evenodd" d="M1.99353 4.00439V2.99815C1.99353 1.26901 3.35035 0 4.99353 0C6.63671 0 7.99353 1.26901 7.99353 2.99815V4.00439H8.25C9.2165 4.00439 10 4.7879 10 5.75439V11.25C10 12.2165 9.2165 13 8.25 13H1.75C0.783502 13 0 12.2165 0 11.25V5.75439C0 4.7879 0.783502 4.00439 1.75 4.00439H1.99353ZM3.49353 2.99815C3.49353 2.12463 4.15132 1.5 4.99353 1.5C5.83574 1.5 6.49353 2.12463 6.49353 2.99815V4.00439H3.49353V2.99815ZM1.5 5.75439C1.5 5.61632 1.61193 5.50439 1.75 5.50439H8.25C8.38807 5.50439 8.5 5.61632 8.5 5.75439V11.25C8.5 11.3881 8.38807 11.5 8.25 11.5H1.75C1.61193 11.5 1.5 11.3881 1.5 11.25V5.75439Z" fill="var(--fill-0, #D4D6E6)" fill-opacity="0.75" style="fill:#D4D6E6;fill:color(display-p3 0.8314 0.8392 0.9020);fill-opacity:0.75;"/>
</svg>
