<svg preserveAspectRatio="none" width="100%" height="100%" overflow="visible" style="display: block;" viewBox="0 0 10 12" fill="none" xmlns="http://www.w3.org/2000/svg">
<path id="Union" fill-rule="evenodd" clip-rule="evenodd" d="M2 3.33073V2.66406C2 1.13308 3.20224 0 4.66667 0C6.13109 0 7.33333 1.13308 7.33333 2.66406V3.33073H7.5C8.51252 3.33073 9.33333 4.15154 9.33333 5.16406V9.4974C9.33333 10.5099 8.51252 11.3307 7.5 11.3307H1.83333C0.820812 11.3307 0 10.5099 0 9.4974V5.16406C0 4.15154 0.820811 3.33073 1.83333 3.33073H2ZM3 2.66406C3 1.70199 3.73776 1 4.66667 1C5.59558 1 6.33333 1.70199 6.33333 2.66406V3.33073H3V2.66406ZM1 5.16406C1 4.70383 1.3731 4.33073 1.83333 4.33073H7.5C7.96024 4.33073 8.33333 4.70383 8.33333 5.16406V9.4974C8.33333 9.95763 7.96024 10.3307 7.5 10.3307H1.83333C1.3731 10.3307 1 9.95763 1 9.4974V5.16406Z" fill="var(--fill-0, #D4D6E6)" fill-opacity="0.75" style="fill:#D4D6E6;fill:color(display-p3 0.8314 0.8392 0.9020);fill-opacity:0.75;"/>
</svg>
