<svg preserveAspectRatio="none" width="100%" height="100%" overflow="visible" style="display: block;" viewBox="0 0 13 23" fill="none" xmlns="http://www.w3.org/2000/svg">
<g id="arrow">
<path id="beak - top border" d="M1.41421 12.8382L7.12132 18.5453C7.68393 19.1079 8 19.8709 8 20.6666L8 22.4239L9 22.4239L9 0.42395L8 0.42395L8 2.18131C8 2.97696 7.68393 3.74002 7.12132 4.30263L1.41421 10.0097C0.633166 10.7908 0.633164 12.0571 1.41421 12.8382Z" fill="var(--fill-0, #32374C)" style="fill:#32374C;fill:color(display-p3 0.1961 0.2157 0.2980);fill-opacity:1;"/>
<path id="beak - top border_2" d="M2.61567 12.5024L7.92152 17.6314C8.61078 18.2977 9 19.2153 9 20.1739L11.5 20.1739L11.5 2.67395L9 2.67395C9 3.63261 8.61079 4.55019 7.92152 5.21648L2.61567 10.3455C2.00572 10.9351 2.00572 11.9128 2.61567 12.5024Z" fill="var(--fill-0, #0B0D17)" style="fill:#0B0D17;fill:color(display-p3 0.0431 0.0510 0.0902);fill-opacity:1;"/>
</g>
</svg>
