<svg preserveAspectRatio="none" width="100%" height="100%" overflow="visible" style="display: block;" viewBox="0 0 8 8" fill="none" xmlns="http://www.w3.org/2000/svg">
<path id="Union" d="M6.71967 0.21967C7.01256 -0.0732211 7.48732 -0.0732224 7.78022 0.21967C8.07311 0.512563 8.07311 0.987324 7.78022 1.28022L5.06049 3.99994L7.78022 6.71967C8.07311 7.01256 8.07311 7.48732 7.78022 7.78022C7.48732 8.07311 7.01256 8.07311 6.71967 7.78022L3.99994 5.06049L1.28022 7.78022C0.987324 8.07311 0.512563 8.07311 0.21967 7.78022C-0.0732232 7.48732 -0.0732232 7.01256 0.21967 6.71967L2.9394 3.99994L0.21967 1.28022C-0.0732233 0.987324 -0.0732233 0.512563 0.21967 0.21967C0.512563 -0.0732233 0.987324 -0.0732233 1.28022 0.21967L3.99994 2.9394L6.71967 0.21967Z" fill="var(--fill-0, #D4D6E6)" fill-opacity="0.75" style="fill:#D4D6E6;fill:color(display-p3 0.8314 0.8392 0.9020);fill-opacity:0.75;"/>
</svg>
