<svg preserveAspectRatio="none" width="100%" height="100%" overflow="visible" style="display: block;" viewBox="0 0 16 16" fill="none" xmlns="http://www.w3.org/2000/svg">
<g id="Union">
<path d="M1.5 2.75C1.5 2.05964 2.05964 1.5 2.75 1.5H3.25C3.66421 1.5 4 1.16421 4 0.75C4 0.335787 3.66421 0 3.25 0H2.75C1.23122 0 0 1.23122 0 2.75V3.25C0 3.66421 0.335786 4 0.75 4C1.16421 4 1.5 3.66421 1.5 3.25V2.75Z" fill="var(--fill-0, #5B53FF)" style="fill:#5B53FF;fill:color(display-p3 0.3569 0.3255 1.0000);fill-opacity:1;"/>
<path d="M13.25 1.5C13.9404 1.5 14.5 2.05964 14.5 2.75V3.25C14.5 3.66421 14.8358 4 15.25 4C15.6642 4 16 3.66421 16 3.25V2.75C16 1.23122 14.7688 0 13.25 0H12.75C12.3358 0 12 0.335786 12 0.75C12 1.16421 12.3358 1.5 12.75 1.5H13.25Z" fill="var(--fill-0, #5B53FF)" style="fill:#5B53FF;fill:color(display-p3 0.3569 0.3255 1.0000);fill-opacity:1;"/>
<path d="M2.75 14.5C2.05964 14.5 1.5 13.9404 1.5 13.25V12.75C1.5 12.3358 1.16421 12 0.75 12C0.335786 12 0 12.3358 0 12.75V13.25C0 14.7688 1.23122 16 2.75 16H3.25C3.66421 16 4 15.6642 4 15.25C4 14.8358 3.66421 14.5 3.25 14.5H2.75Z" fill="var(--fill-0, #5B53FF)" style="fill:#5B53FF;fill:color(display-p3 0.3569 0.3255 1.0000);fill-opacity:1;"/>
<path d="M13.25 14.5C13.9404 14.5 14.5 13.9404 14.5 13.25V12.75C14.5 12.3358 14.8358 12 15.25 12C15.6642 12 16 12.3358 16 12.75V13.25C16 14.7688 14.7688 16 13.25 16H12.75C12.3358 16 12 15.6642 12 15.25C12 14.8358 12.3358 14.5 12.75 14.5H13.25Z" fill="var(--fill-0, #5B53FF)" style="fill:#5B53FF;fill:color(display-p3 0.3569 0.3255 1.0000);fill-opacity:1;"/>
<path d="M10.0008 0.75C10.0008 1.16421 9.66501 1.5 9.25079 1.5L6.74919 1.5C6.33497 1.5 5.99919 1.16421 5.99919 0.75C5.99919 0.335786 6.33497 0 6.74919 0H9.25079C9.66501 0 10.0008 0.335787 10.0008 0.75Z" fill="var(--fill-0, #5B53FF)" style="fill:#5B53FF;fill:color(display-p3 0.3569 0.3255 1.0000);fill-opacity:1;"/>
<path d="M9.25079 16C9.66501 16 10.0008 15.6642 10.0008 15.25C10.0008 14.8358 9.66501 14.5 9.25079 14.5H6.74919C6.33497 14.5 5.99919 14.8358 5.99919 15.25C5.99919 15.6642 6.33497 16 6.74919 16H9.25079Z" fill="var(--fill-0, #5B53FF)" style="fill:#5B53FF;fill:color(display-p3 0.3569 0.3255 1.0000);fill-opacity:1;"/>
<path d="M0.75 10.0007C0.335786 10.0007 0 9.66495 0 9.25073V6.74912C0 6.33491 0.335787 5.99912 0.75 5.99912C1.16421 5.99912 1.5 6.33491 1.5 6.74912L1.5 9.25073C1.5 9.66495 1.16421 10.0007 0.75 10.0007Z" fill="var(--fill-0, #5B53FF)" style="fill:#5B53FF;fill:color(display-p3 0.3569 0.3255 1.0000);fill-opacity:1;"/>
<path d="M14.5 9.25073C14.5 9.66495 14.8358 10.0007 15.25 10.0007C15.6642 10.0007 16 9.66495 16 9.25073V6.74912C16 6.33491 15.6642 5.99912 15.25 5.99912C14.8358 5.99912 14.5 6.33491 14.5 6.74912V9.25073Z" fill="var(--fill-0, #5B53FF)" style="fill:#5B53FF;fill:color(display-p3 0.3569 0.3255 1.0000);fill-opacity:1;"/>
</g>
</svg>
