<svg preserveAspectRatio="none" width="100%" height="100%" overflow="visible" style="display: block;" viewBox="0 0 11 11" fill="none" xmlns="http://www.w3.org/2000/svg">
<g id="Union">
<path d="M1 1.83333C1 1.3731 1.3731 1 1.83333 1H2.16667C2.44281 1 2.66667 0.776142 2.66667 0.5C2.66667 0.223858 2.44281 0 2.16667 0H1.83333C0.820811 0 0 0.820811 0 1.83333V2.16667C0 2.44281 0.223858 2.66667 0.5 2.66667C0.776142 2.66667 1 2.44281 1 2.16667V1.83333Z" fill="var(--fill-0, #7E85FF)" style="fill:#7E85FF;fill:color(display-p3 0.4941 0.5216 1.0000);fill-opacity:1;"/>
<path d="M8.83333 1C9.29357 1 9.66667 1.3731 9.66667 1.83333V2.16667C9.66667 2.44281 9.89052 2.66667 10.1667 2.66667C10.4428 2.66667 10.6667 2.44281 10.6667 2.16667V1.83333C10.6667 0.820811 9.84586 0 8.83333 0H8.5C8.22386 0 8 0.223858 8 0.5C8 0.776142 8.22386 1 8.5 1H8.83333Z" fill="var(--fill-0, #7E85FF)" style="fill:#7E85FF;fill:color(display-p3 0.4941 0.5216 1.0000);fill-opacity:1;"/>
<path d="M1.83333 9.66667C1.3731 9.66667 1 9.29357 1 8.83333V8.5C1 8.22386 0.776142 8 0.5 8C0.223858 8 0 8.22386 0 8.5V8.83333C0 9.84586 0.820811 10.6667 1.83333 10.6667H2.16667C2.44281 10.6667 2.66667 10.4428 2.66667 10.1667C2.66667 9.89052 2.44281 9.66667 2.16667 9.66667H1.83333Z" fill="var(--fill-0, #7E85FF)" style="fill:#7E85FF;fill:color(display-p3 0.4941 0.5216 1.0000);fill-opacity:1;"/>
<path d="M8.83333 9.66667C9.29357 9.66667 9.66667 9.29357 9.66667 8.83333V8.5C9.66667 8.22386 9.89052 8 10.1667 8C10.4428 8 10.6667 8.22386 10.6667 8.5V8.83333C10.6667 9.84585 9.84586 10.6667 8.83333 10.6667H8.5C8.22386 10.6667 8 10.4428 8 10.1667C8 9.89052 8.22386 9.66667 8.5 9.66667H8.83333Z" fill="var(--fill-0, #7E85FF)" style="fill:#7E85FF;fill:color(display-p3 0.4941 0.5216 1.0000);fill-opacity:1;"/>
<path d="M6.6672 0.5C6.6672 0.776142 6.44334 1 6.1672 1L4.49946 1C4.22331 1 3.99946 0.776142 3.99946 0.5C3.99946 0.223858 4.22331 0 4.49946 0H6.1672C6.44334 0 6.6672 0.223858 6.6672 0.5Z" fill="var(--fill-0, #7E85FF)" style="fill:#7E85FF;fill:color(display-p3 0.4941 0.5216 1.0000);fill-opacity:1;"/>
<path d="M6.1672 10.6667C6.44334 10.6667 6.6672 10.4428 6.6672 10.1667C6.6672 9.89052 6.44334 9.66667 6.1672 9.66667H4.49946C4.22331 9.66667 3.99946 9.89052 3.99946 10.1667C3.99946 10.4428 4.22331 10.6667 4.49946 10.6667H6.1672Z" fill="var(--fill-0, #7E85FF)" style="fill:#7E85FF;fill:color(display-p3 0.4941 0.5216 1.0000);fill-opacity:1;"/>
<path d="M0.5 6.66715C0.223858 6.66715 0 6.4433 0 6.16715V4.49942C0 4.22327 0.223858 3.99942 0.5 3.99942C0.776143 3.99942 1 4.22327 1 4.49942L1 6.16715C1 6.4433 0.776142 6.66715 0.5 6.66715Z" fill="var(--fill-0, #7E85FF)" style="fill:#7E85FF;fill:color(display-p3 0.4941 0.5216 1.0000);fill-opacity:1;"/>
<path d="M9.66667 6.16715C9.66667 6.4433 9.89052 6.66715 10.1667 6.66715C10.4428 6.66715 10.6667 6.4433 10.6667 6.16715V4.49942C10.6667 4.22327 10.4428 3.99942 10.1667 3.99942C9.89052 3.99942 9.66667 4.22327 9.66667 4.49942V6.16715Z" fill="var(--fill-0, #7E85FF)" style="fill:#7E85FF;fill:color(display-p3 0.4941 0.5216 1.0000);fill-opacity:1;"/>
</g>
</svg>
