<svg preserveAspectRatio="none" width="100%" height="100%" overflow="visible" style="display: block;" viewBox="0 0 14 14" fill="none" xmlns="http://www.w3.org/2000/svg">
<g id="Union">
<path d="M9.70959 6.3445C10.0379 6.09194 10.0993 5.62106 9.84676 5.29274C9.5942 4.96443 9.12332 4.90302 8.79501 5.15558L6.11543 7.21686L5.325 6.27302C5.05905 5.95546 4.58602 5.91362 4.26846 6.17957C3.9509 6.44551 3.90906 6.91854 4.17501 7.2361L5.42742 8.73158C5.6856 9.03987 6.14098 9.08968 6.45971 8.8445L9.70959 6.3445Z" fill="var(--fill-0, #21C17B)" style="fill:#21C17B;fill:color(display-p3 0.1294 0.7569 0.4824);fill-opacity:1;"/>
<path fill-rule="evenodd" clip-rule="evenodd" d="M7 14C10.866 14 14 10.866 14 7C14 3.13401 10.866 0 7 0C3.13401 0 0 3.13401 0 7C0 10.866 3.13401 14 7 14ZM12.5 7C12.5 10.0376 10.0376 12.5 7 12.5C3.96243 12.5 1.5 10.0376 1.5 7C1.5 3.96243 3.96243 1.5 7 1.5C10.0376 1.5 12.5 3.96243 12.5 7Z" fill="var(--fill-0, #21C17B)" style="fill:#21C17B;fill:color(display-p3 0.1294 0.7569 0.4824);fill-opacity:1;"/>
</g>
</svg>
