<svg preserveAspectRatio="none" width="100%" height="100%" overflow="visible" style="display: block;" viewBox="0 0 12 12" fill="none" xmlns="http://www.w3.org/2000/svg">
<g id="Union">
<path d="M3.75 4.75C3.33579 4.75 3 5.08579 3 5.5C3 5.91421 3.33579 6.25 3.75 6.25H7.25C7.66421 6.25 8 5.91421 8 5.5C8 5.08579 7.66421 4.75 7.25 4.75H3.75Z" fill="var(--fill-0, white)" fill-opacity="0.4" style="fill:white;fill-opacity:0.4;"/>
<path fill-rule="evenodd" clip-rule="evenodd" d="M11 5.5C11 6.74835 10.5841 7.89957 9.8833 8.82264L11.7803 10.7197C12.0732 11.0126 12.0732 11.4874 11.7803 11.7803C11.4874 12.0732 11.0126 12.0732 10.7197 11.7803L8.82264 9.8833C7.89957 10.5841 6.74835 11 5.5 11C2.46243 11 0 8.53757 0 5.5C0 2.46243 2.46243 0 5.5 0C8.53757 0 11 2.46243 11 5.5ZM5.5 9.5C7.70914 9.5 9.5 7.70914 9.5 5.5C9.5 3.29086 7.70914 1.5 5.5 1.5C3.29086 1.5 1.5 3.29086 1.5 5.5C1.5 7.70914 3.29086 9.5 5.5 9.5Z" fill="var(--fill-0, white)" fill-opacity="0.4" style="fill:white;fill-opacity:0.4;"/>
</g>
</svg>
