<svg preserveAspectRatio="none" width="100%" height="100%" overflow="visible" style="display: block;" viewBox="0 0 18 16" fill="none" xmlns="http://www.w3.org/2000/svg">
<g id="Union">
<path d="M11.0024 8C13.2118 8 15.0024 6.20914 15.0024 4C15.0024 1.79086 13.2118 0 11.0024 0C8.7931 0 7.00244 1.79086 7.00244 4C7.00244 6.20914 8.7931 8 11.0024 8Z" fill="var(--fill-0, #D4D6E6)" fill-opacity="0.75" style="fill:#D4D6E6;fill:color(display-p3 0.8314 0.8392 0.9020);fill-opacity:0.75;"/>
<path d="M6.72299 7.45001C6.23295 7.79001 5.6425 8.00001 5.00244 8.00001C3.35229 8.00001 2.00244 6.65 2.00244 5C2.00244 3.35 3.35229 2 5.00244 2C5.29247 2 5.55289 2.06001 5.82291 2.14001C5.61289 2.73001 5.49288 3.35001 5.49288 4.01001C5.49288 5.31001 5.96292 6.51001 6.72299 7.45001Z" fill="var(--fill-0, #D4D6E6)" fill-opacity="0.75" style="fill:#D4D6E6;fill:color(display-p3 0.8314 0.8392 0.9020);fill-opacity:0.75;"/>
<path d="M5.80297 9.06999C4.71287 9.79999 3.86279 10.67 3.25273 11.49C2.69268 12.24 2.44265 13.13 2.51266 14H1.21254C0.7825 14 0.392464 13.79 0.172443 13.43C-0.0375765 13.08 -0.0575784 12.66 0.122438 12.29C0.612484 11.3 2.07217 9.01 5.00244 9C5.29247 9 5.54294 9.02999 5.80297 9.06999Z" fill="var(--fill-0, #D4D6E6)" fill-opacity="0.75" style="fill:#D4D6E6;fill:color(display-p3 0.8314 0.8392 0.9020);fill-opacity:0.75;"/>
<path d="M11.0024 9C14.3127 9 16.394 10.84 17.5441 12.39C18.0541 13.08 18.1442 13.93 17.7741 14.67C17.3541 15.49 16.4925 16 15.5024 16H6.50244C5.50235 16 4.6429 15.49 4.23286 14.67C3.86282 13.93 3.95283 13.08 4.46288 12.39C5.61299 10.84 7.69213 9 11.0024 9Z" fill="var(--fill-0, #D4D6E6)" fill-opacity="0.75" style="fill:#D4D6E6;fill:color(display-p3 0.8314 0.8392 0.9020);fill-opacity:0.75;"/>
</g>
</svg>
