<svg preserveAspectRatio="none" width="100%" height="100%" overflow="visible" style="display: block;" viewBox="0 0 12 12" fill="none" xmlns="http://www.w3.org/2000/svg">
<path id="Union" fill-rule="evenodd" clip-rule="evenodd" d="M6.00184 0.821388C7.69786 -0.347998 10.0132 -0.247645 11.6189 1.11097C11.8581 1.31335 12 1.61305 12 1.93164V9.993C12 10.8998 10.9158 11.3672 10.2565 10.7448C9.25703 9.80125 7.70283 9.77614 6.67341 10.6869L6.31456 10.2813L6.67341 10.6869L6.49696 10.843C6.21254 11.0946 5.78493 11.094 5.5013 10.8414L5.34277 10.7003C4.31141 9.78212 2.74984 9.80271 1.74304 10.7478C1.08231 11.368 0 10.8995 0 9.99328V1.93263C0 1.61534 0.140157 1.31426 0.382944 1.10999L0.382944 1.10999L0.419402 1.07932L0.419403 1.07932C2.02762 -0.273727 4.32048 -0.348849 6.00184 0.821388ZM6.75 8.87541C7.95207 8.34292 9.35045 8.41006 10.5 9.06964V2.13678C9.38537 1.30423 7.84684 1.30657 6.75 2.13092V8.87541ZM5.25 2.12908C4.14793 1.29196 2.61022 1.2867 1.5 2.13496V9.07403C2.65029 8.41559 4.04776 8.34841 5.25 8.87832V2.12908Z" fill="var(--fill-0, #7D8198)" style="fill:#7D8198;fill:color(display-p3 0.4902 0.5059 0.5961);fill-opacity:1;"/>
</svg>
