<svg preserveAspectRatio="none" width="100%" height="100%" overflow="visible" style="display: block;" viewBox="0 0 12 12" fill="none" xmlns="http://www.w3.org/2000/svg">
<path id="Union" fill-rule="evenodd" clip-rule="evenodd" d="M9.8833 8.82264C10.5841 7.89957 11 6.74835 11 5.5C11 2.46243 8.53757 0 5.5 0C2.46243 0 0 2.46243 0 5.5C0 8.53757 2.46243 11 5.5 11C6.74835 11 7.89957 10.5841 8.82264 9.8833L10.7197 11.7803C11.0126 12.0732 11.4874 12.0732 11.7803 11.7803C12.0732 11.4874 12.0732 11.0126 11.7803 10.7197L9.8833 8.82264ZM9.5 5.5C9.5 7.70914 7.70914 9.5 5.5 9.5C3.29086 9.5 1.5 7.70914 1.5 5.5C1.5 3.29086 3.29086 1.5 5.5 1.5C7.70914 1.5 9.5 3.29086 9.5 5.5Z" fill="var(--fill-0, #D4D6E6)" fill-opacity="0.75" style="fill:#D4D6E6;fill:color(display-p3 0.8314 0.8392 0.9020);fill-opacity:0.75;"/>
</svg>
